<svg xmlns="http://www.w3.org/2000/svg" width="46.969" height="43.034"><defs><style>.b{fill:#fff}</style></defs><path d="M38.964 31.514l-6.8-5.4h-6.188a5.294 5.294 0 01-5.294-5.3V6.044A5.294 5.294 0 0125.976.75h14.949a5.294 5.294 0 015.294 5.294v14.77a5.294 5.294 0 01-5.294 5.3h-1.96z" stroke="#fff" stroke-width="1.5" fill-rule="evenodd" fill="#0c5fb0"/><path class="b" d="M34.381 8.157a1.569 1.569 0 01.288.63h4.289a.724.724 0 01.6.212.979.979 0 01.164.61.954.954 0 01-.164.6.724.724 0 01-.6.212h-1.562a13.254 13.254 0 01-1.131 2.967 11.528 11.528 0 01-1.679 2.35 14.95 14.95 0 002.131 1.329 14.4 14.4 0 002.473.987 1.1 1.1 0 01.6.411.824.824 0 01.014.713q-.247.767-1.192.452a16.521 16.521 0 01-2.943-1.183 13.133 13.133 0 01-2.371-1.548q-.534.411-1.172.808t-1.315.754q-.678.356-1.384.658t-1.377.521a2.811 2.811 0 01-.528.116.752.752 0 01-.349-.034.454.454 0 01-.219-.185 1.556 1.556 0 01-.151-.336.916.916 0 010-.7 1.115 1.115 0 01.74-.438 18.755 18.755 0 002.391-.939 11.055 11.055 0 002.159-1.377 12.971 12.971 0 01-.952-1.151 10.5 10.5 0 01-.781-1.24 13.15 13.15 0 01-.637-1.377q-.288-.726-.534-1.562h-1.48a.7.7 0 01-.6-.212 1.018 1.018 0 01-.151-.6 1.045 1.045 0 01.151-.61.7.7 0 01.6-.212h5.1q-.137-.178-.295-.363t-.308-.336a1.162 1.162 0 01-.384-.761.737.737 0 01.37-.569.868.868 0 01.6-.192 1.025 1.025 0 01.623.4q.233.26.486.569t.48.626zm-3.521 2.261a10.4 10.4 0 001 2.343 9.917 9.917 0 001.466 1.891 9.585 9.585 0 001.4-1.891 10.508 10.508 0 00.952-2.343z"/><path d="M8 41.48l6.8-5.4h6.188a5.294 5.294 0 005.294-5.294V16.01a5.294 5.294 0 00-5.289-5.294H6.044A5.294 5.294 0 00.75 16.01v14.771a5.294 5.294 0 005.294 5.295H8z" fill="#508ee3" stroke="#fff" stroke-width="1.5" fill-rule="evenodd"/><path class="b" d="M16.975 28.468l-.732-2.006H11.05l-.732 2.006H7.592l4.5-11.633h3.1l4.482 11.633zm-3.331-9.487l-1.936 5.337h3.854z"/></svg>