<?xml version="1.0" encoding="utf-8"?>
<!-- Generator: Adobe Illustrator 26.5.0, SVG Export Plug-In . SVG Version: 6.00 Build 0)  -->
<svg version="1.1" id="Ebene_2_00000159430660212584767550000017297049559843600063_"
	 xmlns="http://www.w3.org/2000/svg" xmlns:xlink="http://www.w3.org/1999/xlink" x="0px" y="0px" viewBox="0 0 663.1 663.1"
	 style="enable-background:new 0 0 663.1 663.1;" xml:space="preserve">
<style type="text/css">
	.st0{fill:#EA1D2D;}
	.st1{fill:#D19F2A;}
	.st2{fill:#2D9A47;}
	.st3{fill:#C22033;}
	.st4{fill:#EF412A;}
	.st5{fill:#00ADD8;}
	.st6{fill:#FDB714;}
	.st7{fill:#8F1838;}
	.st8{fill:#1A3668;}
	.st9{fill:#00558A;}
	.st10{fill:#5FB946;}
	.st11{fill:#007DBB;}
	.st12{fill:#48773C;}
	.st13{fill:#CD8B2A;}
	.st14{fill:#F99D25;}
	.st15{fill:#E01A83;}
	.st16{fill:#F36E24;}
	.st17{fill:none;}
</style>
<g id="Layer_1">
	<g>
		<circle class="st0" cx="366.7" cy="168.5" r="24.8"/>
		<circle class="st1" cx="425.8" cy="191" r="24.8"/>
		<circle class="st2" cx="472.9" cy="234.1" r="24.8"/>
		
			<ellipse transform="matrix(0.1602 -0.9871 0.9871 0.1602 134.0102 739.5101)" class="st3" cx="501.6" cy="291" rx="24.8" ry="24.8"/>
		
			<ellipse transform="matrix(0.1602 -0.9871 0.9871 0.1602 75.93 799.645)" class="st4" cx="507.9" cy="355.2" rx="24.8" ry="24.8"/>
		
			<ellipse transform="matrix(0.1602 -0.9871 0.9871 0.1602 0.4728 833.5557)" class="st5" cx="490.1" cy="416.5" rx="24.8" ry="24.8"/>
		<circle class="st6" cx="451.3" cy="468.1" r="24.8"/>
		<circle class="st7" cx="396" cy="501.7" r="24.8"/>
		<circle class="st8" cx="300.7" cy="168.5" r="24.8"/>
		
			<ellipse transform="matrix(0.1602 -0.9871 0.9871 0.1602 14.3663 398.8855)" class="st9" cx="241.6" cy="191" rx="24.8" ry="24.8"/>
		<circle class="st10" cx="194.5" cy="234.1" r="24.8"/>
		<circle class="st11" cx="165.8" cy="291" r="24.8"/>
		<circle class="st12" cx="159.5" cy="355.2" r="24.8"/>
		<circle class="st13" cx="177.3" cy="416.5" r="24.8"/>
		<circle class="st14" cx="216.1" cy="468.1" r="24.8"/>
		<circle class="st15" cx="271.4" cy="501.7" r="24.8"/>
		<circle class="st16" cx="334.8" cy="512.9" r="24.8"/>
	</g>
	<g>
		<path class="st0" d="M415.6,106.6L415.6,106.6c-6.5,16.5-23.9,26.6-42,23.4c-18.3-3.2-31.2-19.1-31.4-37l0,0L342,70.4
			c13,0.4,26.1,1.7,39.3,4.1c14.6,2.6,28.7,6.3,42.3,11.1C423.6,85.6,415.6,106.6,415.6,106.6z"/>
		<path class="st1" d="M493.6,150.8L493.6,150.8c-12,13-31.9,16.3-47.6,6.8c-15.9-9.6-22.3-29-16-45.8l0,0l7.9-21.2
			c12,5,23.8,10.9,35.2,17.8c12.7,7.7,24.5,16.2,35.5,25.5L493.6,150.8z"/>
		<path class="st2" d="M550.7,221L550.7,221c-15.9,7.9-35.6,3.8-46.9-10.8c-11.4-14.7-10.4-35.1,1.5-48.5l0,0l15-16.9
			c9.4,9,18.2,18.8,26.4,29.3c9.1,11.7,17.1,24,23.9,36.6L550.7,221L550.7,221z"/>
		<path class="st3" d="M578.8,307.1L578.8,307.1c-17.6,1.5-34.5-9.5-39.7-27.1c-5.3-17.8,3.2-36.4,19.1-44.6l0,0l20.1-10.3
			c5.5,11.8,10.1,24.1,13.9,36.9c4.2,14.2,7.2,28.5,8.9,42.8L578.8,307.1L578.8,307.1z"/>
		<path class="st4" d="M574.1,398.2L574.1,398.2c-17-5-28.7-21.4-27.2-39.7c1.5-18.5,16.1-32.8,34-34.6l0,0l22.5-2.3
			c0.8,13,0.7,26.1-0.4,39.5c-1.2,14.8-3.7,29.2-7.2,43.1L574.1,398.2L574.1,398.2z"/>
		<path class="st5" d="M535.7,480.8L535.7,480.8c-14-10.9-18.8-30.4-10.6-46.9c8.3-16.6,27.1-24.6,44.4-19.7l0,0l21.7,6.1
			c-4,12.4-9,24.6-15,36.5c-6.6,13.3-14.2,25.8-22.6,37.5L535.7,480.8L535.7,480.8z"/>
		<path class="st6" d="M470.6,544.6L470.6,544.6c-9.1-15.2-6.6-35.2,7-47.6c13.7-12.5,34.1-13.1,48.5-2.4l0,0l18,13.6
			c-8.2,10.1-17.2,19.7-27.1,28.7c-11,10-22.5,18.9-34.5,26.8L470.6,544.6z"/>
		<path class="st7" d="M386.6,580L386.6,580c-3-17.4,6.5-35.2,23.6-41.9c17.3-6.8,36.6,0,46.1,15.2l0,0l12,19.1
			c-11.3,6.5-23.2,12.2-35.6,17c-13.8,5.4-27.8,9.6-41.9,12.6L386.6,580L386.6,580z"/>
		<line class="st17" x1="313.3" y1="582.8" x2="349.1" y2="582.5"/>
		<path class="st8" d="M251.8,106.6L251.8,106.6c6.5,16.5,23.9,26.6,42,23.4c18.3-3.2,31.2-19.1,31.4-37l0,0l0.2-22.6
			c-13,0.4-26.1,1.7-39.3,4.1c-14.6,2.6-28.7,6.3-42.3,11.1L251.8,106.6L251.8,106.6z"/>
		<path class="st9" d="M173.8,150.8L173.8,150.8c12,13,31.9,16.3,47.6,6.8c15.9-9.6,22.3-29,16-45.8l0,0l-7.9-21.2
			c-12,5-23.8,10.9-35.2,17.8c-12.7,7.7-24.6,16.2-35.5,25.5L173.8,150.8z"/>
		<path class="st10" d="M116.7,221L116.7,221c15.9,7.9,35.6,3.8,46.9-10.8c11.4-14.7,10.4-35.1-1.5-48.5l0,0l-15-16.9
			c-9.4,9-18.2,18.8-26.4,29.3c-9.1,11.7-17.1,24-23.9,36.6L116.7,221L116.7,221z"/>
		<path class="st11" d="M88.6,307.1L88.6,307.1c17.6,1.5,34.5-9.5,39.7-27.1c5.3-17.8-3.2-36.4-19.1-44.6l0,0l-20.1-10.3
			C83.6,236.9,79,249.2,75.2,262c-4.2,14.2-7.2,28.5-8.9,42.8L88.6,307.1L88.6,307.1z"/>
		<path class="st12" d="M93.3,398.2L93.3,398.2c17-5,28.7-21.4,27.2-39.7c-1.6-18.5-16.1-32.8-34-34.6l0,0l-22.4-2.3
			c-0.8,13-0.7,26.1,0.4,39.5c1.2,14.8,3.7,29.2,7.2,43.1L93.3,398.2L93.3,398.2z"/>
		<path class="st13" d="M131.7,480.8L131.7,480.8c14-10.9,18.8-30.4,10.6-46.9s-27.1-24.6-44.4-19.7l0,0l-21.7,6.1
			c4,12.4,9,24.6,14.9,36.5c6.6,13.3,14.2,25.8,22.6,37.5L131.7,480.8L131.7,480.8z"/>
		<path class="st14" d="M196.8,544.6L196.8,544.6c9.1-15.2,6.6-35.2-7-47.6c-13.7-12.5-34.1-13.1-48.5-2.4l0,0l-18.1,13.6
			c8.2,10.1,17.2,19.7,27.1,28.7c10.9,10,22.5,18.9,34.5,26.8L196.8,544.6z"/>
		<path class="st15" d="M280.8,580L280.8,580c3-17.4-6.5-35.2-23.6-41.9c-17.3-6.8-36.6,0-46.1,15.2l0,0l-12,19.1
			c11.3,6.5,23.2,12.2,35.6,17c13.8,5.4,27.8,9.6,41.9,12.6L280.8,580L280.8,580z"/>
		<path class="st16" d="M372.1,582.4L372.1,582.4c-3.5-17.3-18.9-30.4-37.3-30.4s-34.1,13.3-37.4,31l0,0l-4.2,22.2
			c12.9,1.9,26,2.9,39.4,2.9c14.8,0,29.4-1.2,43.6-3.5L372.1,582.4L372.1,582.4z"/>
	</g>
</g>
</svg>
