<svg width="61" height="122" fill="none" xmlns="http://www.w3.org/2000/svg"><g clip-path="url(#clip0)" fill="#fff"><path d="M37.03 21.5v.1c-.73.76-1.54 1.55-2.24 2.33a.54.54 0 00.22.23c0-.19.13-.36.15-.55.19-.27.48-.1.73 0 .375-.018.751.01 1.12.08.29.14.32.5.58.65a.22.22 0 01-.08.3c.08.6.37-.16.67 0 .12.05.29 0 .38.17.09.17.35.2.37.44.02.24-.15.15-.23.21.07.24-.25.39-.14.65.46.09.48-.45.69-.69a4.327 4.327 0 00-.44-1.2c-.27-.05-.43-.36-.69-.42-.51-.2.08-.52 0-.82a9.588 9.588 0 00-1.09-1.48zm2.98 8.5a10.861 10.861 0 01-1.39 3c-.27.33-.52.8-.87 1l.73.64v-.16c0-.05 0-.21.17-.19.35 0 .36.36.56.55 0 .31.22.55.13.83a11.86 11.86 0 003.2-7.59l.11-.13c-.72.07-1.47 0-2.22 0l-.17-.06c.004.482-.033.964-.11 1.44l.26.29a.29.29 0 01-.05.36.32.32 0 01-.37 0m-2.77 7.56l.11-.15c.502-.353.97-.751 1.4-1.19h.06c-.1 0-.22.07-.33 0a.52.52 0 01-.26-.54l-1-1-.06-.15a1.31 1.31 0 01-.36.46c0 .12 0 .31.12.4.12.09.73.31.8.69-.13.35-.8.67-.38 1 .13.19-.19.26-.14.42m-5.68-4.14c.21 0 .07.26.22.34.33-.11.57.28.84 0 0-.38.4-.34.63-.44.23-.1.77-.5.73-1l-.06-.07c-.25 0-.37.19-.56.34-.19.15-.33-.24-.51-.15 0 0 0 .06.08.07.08.01.06.18 0 .23-.27.25-.4-.12-.66-.09v.09c0 .06 0 .15-.09.11-.16-.26-.49-.16-.65-.39-.1-.06-.2 0-.27.08s-.31 0-.25.19c-.19.07-.22.28-.36.41-.25 0-.36.24-.59.23 0 0 0 .13.07.14a.79.79 0 00.46 0c.24-.38.64-.06 1-.2m-1.46 7.18l.08-.12-.25.06a12.54 12.54 0 01-8.12-3.5v.09l-1.64 1.65a16 16 0 008.49 4c.53.03 1.058.098 1.58.2l-.12-.2-.02-2.18zm1.46-15.79c.18.1.28-.09.44-.13a.93.93 0 01.53.36c.14.06.28 0 .41-.07.08-.67.91-.57 1.16-1.19l-.15.06c-.07-.09-.23 0-.22-.2.138-.152.3-.28.48-.38a8.15 8.15 0 00-2.27-1c-.32-.08-.65-.08-1-.19.072.544.112 1.091.12 1.64l.57.19c.17-.27.53-.33.69-.59.11-.09.23 0 .31.09a1.74 1.74 0 01-.1.64c-.22.43-.73.49-1 .8m5.15 8.02c0 .26-.29.38-.25.64a.56.56 0 01-.44.14 7.598 7.598 0 00-2-.46.15.15 0 00-.09.16c.28.15.63.15.94.28.31.13.45.41.79.3.34-.11.77.1 1-.2 0-.3.22-.51.35-.77h.09c.118.181.197.386.23.6.22-.24.4-.51.6-.75a7.29 7.29 0 001.16-2.46 1.9 1.9 0 00-.63.11c-.23 0-.51.12-.71 0-.2-.12-.12 0-.11.09.01.09-.16.27-.34.22-.18-.05-.15-.22-.2-.33a.691.691 0 010 .25 2.997 2.997 0 00-.34.53c-.16.19-.44.12-.61.27 0 .39-.45.31-.69.43 0 0 0 .05.06.09a.31.31 0 00.34-.08c.34.09.27-.33.46-.48.19-.15.32-.16.5-.05.159.235.227.52.19.8-.19.19-.1.51-.23.73m-3.76-.88c.19-.2.6-.19.62-.48-.28 0-.43.11-.62.26 0 .07-.11.18 0 .22zm-1.97 7.7a11.848 11.848 0 011.92-.27.64.64 0 01-.35-.21c-.38 0-.55-.41-.67-.71s.08-.39.17-.57c-.16-.33-.65-.09-.94-.21-.08-.06-.13-.16-.25-.17l.12.17c.041.666.041 1.334 0 2m8.43-2.9c-.22.44-.72.72-1.09 1-.52.52-1.36.63-1.63 1.38-.27.25-.37.65-.76.8-.14.38-.55.35-.78.63-.67.6-1.1-.38-1.7-.5l-1.22.22c-.414.07-.836.07-1.25 0 .06.832.06 1.668 0 2.5l.16-.09a15.52 15.52 0 0010-4.21l-1.68-1.6-.05-.13zm-1.39-8.83l.24.25c.25.16.08.52.35.66.27.14.42.52.55.79a.68.68 0 00.07-.23c.12-.44.1-.93.24-1.36a3.33 3.33 0 01-1.45-.11zm-4.54-8.62a14.881 14.881 0 00-2.56-.54l.08.18v2.15h.21a7.12 7.12 0 013.58 1.46l.05.17c.36-.5.9-.93 1.32-1.41l.4-.23-.19-.08a9.31 9.31 0 00-2.87-1.66m-3.78 13.87c.06-.21 0-.48.08-.66.08-.18.29-.17.45-.14a.142.142 0 00.106-.078.14.14 0 00-.006-.132c-.23 0-.13-.3-.21-.44-.08-.14.14-.07.11-.17-.03-.1.08-.27-.05-.41 0 0 .06-.07.1-.1-.48.21-1-.09-1.42-.28-.2-.12-.51-.24-.56-.49a11.394 11.394 0 01-1.47 1.58 5.999 5.999 0 002.87 1.32zm-11-5.02l.18 1.47c.143.545.244 1.1.3 1.66.09-.12 0-.36.25-.38-.09-.18.17-.33 0-.48.017-.395.18-.77.46-1.05.4 0 .43-.55.84-.57.21 0 .33.27.42.36a1.51 1.51 0 01-.2-1.13l-.18.08a20.152 20.152 0 01-2.21-.08l.14.12zm9.11 1.58l-.27-.13c-.061.2-.175.38-.33.52.19-.13.32-.38.57-.4"/><path d="M21.28 36.27a4.854 4.854 0 01-.74-.76 1.101 1.101 0 01-.67-.51c-.08-.09 0-.25-.1-.31l-.09.12c-.28.13-.38-.15-.57-.27-.19-.12-.13-.61-.47-.52-.12 0-.16-.15-.24-.23-.31 0-.39-.31-.56-.48 0 .07 0 .17-.1.22-.31.07-.43-.32-.64-.48-.06 0-.1.09-.18.07a1 1 0 01-.32-.67c-.27-.29-.15-.76-.1-1.12.05-.1.18-.15.16-.27-.02-.12.25-.18.41-.19a.41.41 0 01.17.15c.1-.07.33 0 .24-.22a1.18 1.18 0 01.52-.2c.104.177.225.345.36.5l-.11-.18a11.879 11.879 0 01-.39-2.42c0-.05-.1-.07 0-.12-.011-.15-.011-.3 0-.45l-.21.08-2.22-.01c.13 2.454.813 4.847 2 7a25.913 25.913 0 002.11 3l1.59-1.64.15-.09zm8.6 1.04a9.22 9.22 0 01-5.15-1.93c0 .19.31.31.24.55-.07.24-.42.22-.64.22-.46-.08-.79.27-1.22.32-.43.05-.53-.36-.88-.32a12.53 12.53 0 007.7 3.3l.23.15-.1-.27v-2.1l-.18.08zm-6.05-19.63c-.5.34-1 .79-1.46 1.09.577.451 1.115.95 1.61 1.49l.05.15A9.62 9.62 0 0128.81 18a4.169 4.169 0 011.26-.09 16.05 16.05 0 010-2.3 12.31 12.31 0 00-6.22 2.08m2.19 11.65h-.27c0-.45-.51-.18-.7-.42.22.41.34.88.57 1.3.23.42.47.65.61 1 .195-.283.42-.544.67-.78a.46.46 0 00-.07-.31c-.08-.17 0-.41-.14-.55-.21.07.07.28 0 .4a.13.13 0 01-.19-.1.53.53 0 01-.38-.36c.15-.09 0-.13-.08-.21M21.93 26a6.57 6.57 0 01-.2 1.18 2 2 0 011 0c-.19-.09 0-.33-.14-.45s-.05-.45.14-.58c0-.32.32-.49.36-.79.04-.3.47-.11.65-.28.18-.17 0-.18 0-.26.16-.22.41-.21.6-.33a1.7 1.7 0 01.54-.56c.47 0 .48-.65.93-.67a21.006 21.006 0 01-1.76-1.64A9.58 9.58 0 0021.93 26zm-.15-6.56l-.86 1.09a12.71 12.71 0 00-2.28 6.61h2.19l.2.08c-.08-.05-.06-.15-.09-.23a9.57 9.57 0 012.54-6 15.675 15.675 0 01-1.68-1.68l-.02.13zm.46 9.79c0-.15-.2-.19-.17-.33s0-.77.4-.9a.94.94 0 01-.77-.07l.12.19c.101.513.138 1.037.11 1.56.09-.15.11-.36.31-.45zm.82-1.23l-.06.42c-.1.25-.41.07-.55.23-.14.16 0 .33.1.46-.23.51.5.67.49 1.13.22.28 0 .7.29 1 .07.52-.07 1.22.38 1.63l.08.49c.09.34-.41.26-.34.56.09 0 .11.08.12.11a22.444 22.444 0 012.05-2.09l-.3-.3a8.052 8.052 0 01-1.23-2.74l-.23-.11c-.051.23-.088.465-.11.7l-.08.1c-.17 0-.27-.14-.41-.23-.14-.09-.13-.23 0-.3a.24.24 0 01.19.05c.07-.09 0-.21.08-.32.08-.11-.14-.37 0-.54.15 0 .26.17.32.27s.28-.08.4-.13.19-.32 0-.4a1.87 1.87 0 000-.94c-.09-.26-.38-.22-.6-.19-.64.21.11.69-.05 1.09-.09.23-.33 0-.5.11m5.41 6.27a1.52 1.52 0 01.6-.39c-.71.14-1.34-.36-1.94-.64-.34-.26-.79-.47-1-.85a11.688 11.688 0 01-1.59 1.63c.25 0 .39.28.59.4a9.87 9.87 0 004.07 1.82l-.38-.18c-.29-.32-.7-.71-.71-1.16.29-.1.25-.41.35-.63m11.17-15.61c.16 0 .21.23.32.35.58.31.74.94 1.25 1.29.28.59.94 1.05 1 1.74a12.75 12.75 0 011.21 4.95l-.07.09a.29.29 0 00.19-.07h2.3c-.15-.22-.09-.55-.13-.82A15.73 15.73 0 0041.52 17a19.067 19.067 0 01-1.58 1.7l-.27.02z"/><path d="M17.88 27.16l-.06-.31A13 13 0 0120.21 20a6.292 6.292 0 011.07-1.22c-.52-.48-1.06-1-1.6-1.58l-.06-.2a15.63 15.63 0 00-4.07 8.7c-.09.48 0 1-.13 1.45.819-.06 1.641-.06 2.46 0m4.01-8.94v-.11a12.61 12.61 0 018.14-3.42l-.07-.19v-1.91l.07-.23a15.48 15.48 0 00-8.57 3c-.48.33-.91.84-1.41 1.13h.07a13.371 13.371 0 011.76 1.69m8.19 3.74a5.42 5.42 0 00-3.4 1.6h.18c.19.19.5.15.64.41s-.13.12-.13.24.1 0 .13.1.12-.09.18-.15.23.19.42.19a.291.291 0 01.42.05c.13-.11.4 0 .44-.21.25-.26.11-.67.48-.84.12.07 0 .19 0 .3.24.11.52-.2.72 0a5.002 5.002 0 01-.12-1.74"/><path d="M.73 59.74h59.73V0H.73v59.74zm51.25-28.63c-.84 1.19-1.85 2.3-2.62 3.51a6.77 6.77 0 00-.18-3 26.63 26.63 0 01-1.39-6.08v-.82c.49 2.19 2.64 3.7 2.5 6.15a5.33 5.33 0 01-.24 1.62l.09-.11a24.99 24.99 0 011-3.59c.71-1.62 1.59-3.25 1.23-5.2a8.84 8.84 0 01-.42 7.52h.03zm-1.32-12.39a7.45 7.45 0 01.69 7.14 13.118 13.118 0 00-.81 2.95c-.07-.18-.08-.42-.15-.62-.55-2.14-2.59-3.67-3.42-5.69a10.998 10.998 0 01-.62-2.07c.9 1.65 3.09 2.51 3.69 4.32a8.78 8.78 0 01.39 1.53.06.06 0 00.06-.05 21.167 21.167 0 01.07-5.68 4.7 4.7 0 00-.67-2.75c.36.21.52.61.77.92zm-1-.37c.38 1.67-.17 3.31.18 5-.91-1.79-2.84-2.64-4.17-4.07a5.73 5.73 0 01-1.3-3c.76 1.84 2.82 2.25 4 3.79.318.381.58.805.78 1.26a33.888 33.888 0 01-1.38-4.63 3.69 3.69 0 00-1.34-1.75 4.65 4.65 0 013.21 3.42l.02-.02zm-4.16-3.82a7.11 7.11 0 012 3.8l.19.45a16.83 16.83 0 01-4.32-4.59l-1.32-1.34c1.223.365 2.375.933 3.41 1.68h.04zm-22.19-1.3a16.85 16.85 0 017.24-1.72 16 16 0 0114.35 9.1 15.74 15.74 0 011.05 11.19 16.013 16.013 0 11-30.85-8.6 16.2 16.2 0 018.21-10v.03zm-4.58-.18a19.93 19.93 0 00-2.85 3.54c-.82.864-1.698 1.67-2.63 2.41.48-1 .5-2.17 1.17-3.08 1-1.68 2.75-2.26 4.34-2.89l-.03.02zm-6.37 3.56a4 4 0 012.1-1.41c-1.57 1.08-1.47 3-2 4.64-.16.6-.44 1.15-.58 1.76h.05a5.52 5.52 0 011.29-1.91c1.13-1 2.78-1.68 3.33-3.21 0 2.13-1.8 3.8-3.49 5a6.86 6.86 0 00-1.76 2.1c0-.54.08-1.08 0-1.65-.19-1.85-.32-4 1-5.35l.06.03zM9.17 23A7.35 7.35 0 0111 18.18s.06-.05.1 0c-1.22 1.84-.21 4.16-.27 6.25l-.16 2.14s0 .08.08.06c.07-.24.09-.5.14-.74.28-1.73 1.78-3 3.1-4.15.277-.292.5-.63.66-1a8.721 8.721 0 01-.73 2.53c-1 2-2.91 3.62-3.25 5.9-.16-2.18-1.65-3.82-1.5-6.13V23zm-.92 2.71a8.39 8.39 0 01.48-1.79c-.49 2.48 1.18 4.27 1.73 6.43.155.822.362 1.634.62 2.43h.07c-.82-2.29.36-4.42 1.55-6.21a6.21 6.21 0 00.6-1.59 13.915 13.915 0 01-.29 3.31c-.29 1.37-.72 2.66-1.09 4a6.34 6.34 0 00-.06 2.64l-.13-.14c-.87-1.6-2.58-2.86-3.09-4.61a9.6 9.6 0 01-.42-4.53l.03.06zm-.11 4.8c.19 2.63 3 4 4.34 6.21a6.68 6.68 0 001 1.31c-.07-.27-.33-.51-.42-.8a5.62 5.62 0 01-.52-3.11c.13-1.35.69-2.6.48-4 1.15 2.5.8 5.6 1.44 8.3.218.572.465 1.133.74 1.68-2.34-1.64-5.58-3.17-6.63-6.1a7.41 7.41 0 01-.4-3.46l-.03-.03zm1.45 6.08c1.32 3 4.63 3.24 6.86 5.07.388.35.822.646 1.29.88a7.87 7.87 0 01-1.46-1.59c-1.3-1.81-.84-4.34-1.82-6.28A14.763 14.763 0 0116.73 38c.79 2 1.1 4.17 2.94 5.65-2-.65-4.33-.47-6.08-1.69a8.388 8.388 0 01-4-5.38v.01zm3.4 5.57c2.12 2.42 5.58 1.61 8.41 2.24a3.64 3.64 0 001.19.15c-.34-.21-.81-.19-1.17-.38-2.22-.78-2.55-3.18-3.75-4.79a34.099 34.099 0 014.25 3.72 7.39 7.39 0 003.53 1.57c-.31.11-.71.08-1 .17-2.32.57-4.9 1.5-7.36.67a7.11 7.11 0 01-4-3.35h-.1zm28.74 5.61c-2.39.89-4.88-.05-6.75-1.46-.75-.48-1.42-1.17-2.4-1.11a3.269 3.269 0 00-1 .1 18.18 18.18 0 015 3.49 6.556 6.556 0 01-.91.83 17.891 17.891 0 00-5-4c-.33.08-.647.208-.94.38a15.277 15.277 0 00-4.09 3.66l-1-.79a17.41 17.41 0 015.09-3.59c-1.82-.57-3 .95-4.38 1.72a6.459 6.459 0 01-5.86.88A6.33 6.33 0 0116.73 46a6.24 6.24 0 005.54.48c2.33-1 4.75-2.3 7.56-1.68.44 0 .87.44 1.29.07a9 9 0 016.25.79l1.85.74a6.18 6.18 0 005.43-.59 6.49 6.49 0 01-2.87 2l-.05-.04zm2.6-2.47c-2.68 1-5.38-.23-8-.65l-.5-.06A7.11 7.11 0 0039.28 43a35.888 35.888 0 014.33-3.9c-1.19 1.52-1.31 3.69-3.27 4.67-.519.24-1.053.444-1.6.61a16.41 16.41 0 002.07-.31c2.63-.41 5.64 0 7.48-2.23a7.06 7.06 0 01-4 3.42l.04.04zm1.45-2.78c-1.37.37-2.83.49-4.16.94 2.25-1.93 2.12-4.92 3.63-7.2.46-.658.955-1.292 1.48-1.9-.91 1.84-.52 4.22-1.57 6a7.69 7.69 0 01-1.62 2c.21 0 .39-.19.57-.31 1.71-1.71 3.94-2.18 5.79-3.57a5.5 5.5 0 001.74-2.2c-.35 2.83-3.16 5.48-5.81 6.32l-.05-.08zm3.44-4.73c-1.06.69-2.14 1.34-3.16 2.12v-.09c1.56-2.6.8-6.16 1.76-9l.36-.95c-.2 1.77.58 3.28.52 5.06a5.8 5.8 0 01-1 2.89h.09c.7-1.04 1.454-2.04 2.26-3 1.38-1.34 2.79-2.71 3-4.57.46 3.1-1.27 5.82-3.84 7.57"/><path d="M43.47 28l-.13-.1.08.22a12.8 12.8 0 01-2.53 7.07 5.15 5.15 0 01-.94 1c.636.53 1.231 1.109 1.78 1.73l.06-.12a15.3 15.3 0 004-9.72l.09-.19-.12.05-2.29.06zm-13.51-9.24A9.23 9.23 0 0024.65 21c.59.498 1.154 1.025 1.69 1.58l.12-.17a7.33 7.33 0 012.43-1.26A3.79 3.79 0 0130.1 21c-.09-.777-.09-1.563 0-2.34l-.14.1zm.99-4.29a.36.36 0 01.08-.19c.11-.06.2 0 .25.11.05.11.06.3 0 .37.1 0 .14-.06.23-.06a11.93 11.93 0 015 1.53c.31-.15.71-.35 1-.08.39-.14.46.33.77.38a1.67 1.67 0 01.84 1.08c.07.14.3.25.33.4a6 6 0 011.2-1.4l.27-.11a14.79 14.79 0 00-8.45-4 13.121 13.121 0 01-1.55-.2c.075.731.075 1.469 0 2.2l.03-.03zm7.14 1.1a.47.47 0 01.36.29c0 .18.17.33 0 .47-.43.11-.47-.37-.8-.49a.311.311 0 01-.06-.23c.15-.18.29.12.46 0l.04-.04zm-6.88-1.41c.06-.13.25-.08.34 0l1.18-.6a1.59 1.59 0 011.24.47v.06a1 1 0 01-1 .27c-.53.1-1.26.41-1.68-.14 0 0-.07-.09 0-.13m-.34 3.81c.304-.06.616-.06.92 0a9.2 9.2 0 014.28 1.72 1.1 1.1 0 01-.36-.58.08.08 0 01.09 0c0-.24-.24-.37-.28-.6a.17.17 0 01.17-.07c.258.251.492.526.7.82.18-.07.32 0 .45.14s.09.43.26.59c0 .47.61.73.57 1.2 0 .11.15 0 .2.08l.48.59a.24.24 0 00.07.33c.22.09.34-.18.55-.14.21.04 0 .38 0 .57.12 0 .27-.09.36 0 .09.09-.14.28-.21.4-.07.12.14.13.27.17.13.04.23.17.19.29.4.41-.12.86.07 1.3a.761.761 0 01-.2.78c0 .35-.32.56-.44.86l-.41.08c-.21.21.18.47 0 .61h.89l-.13-.04a1.29 1.29 0 01.12-1.13c.078-.32.22-.619.42-.88 0 0 .16-.12.21 0 .024.28-.024.563-.14.82.195.404.282.852.25 1.3.78-.05 1.56-.06 2.33-.05l-.07-.16a11.321 11.321 0 00-1-4.12c-.16 0-.28.14-.48.09a.13.13 0 01-.09-.15 10.254 10.254 0 00-.88-1c-.4 0-.59-.43-1-.47-.41-.04-.11-.66-.58-.52a.78.78 0 01-.5-.53 1.33 1.33 0 00-.45-1.14c-.29-.1-.41.28-.69.22-.28-.06-.09-.29-.14-.42-.05-.13-.19-.21-.17-.37.38-.49-.45-.49-.27-1-.05-.35-.4-.49-.59-.77a13.201 13.201 0 00-3.86-1.1 2.76 2.76 0 01-1-.14l.08.15v2.23m-.79 7.62a1.54 1.54 0 01-1 .59c-.1.13-.08.41-.33.39-.08.17-.35.27-.24.53a4.538 4.538 0 00-.14.91c-.47.3-.33-.38-.57-.53l-.08.14c-.1 0-.16 0-.22-.1s-.2-.05-.26 0-.26.32-.22.56c.04.24-.29.09-.26.24a4.51 4.51 0 00.81-.11c.18.05.33-.09.51-.1.18-.01.14.1.11.2h.07a.34.34 0 00.13-.39c0-.16.2-.16.31-.21.11-.05 0 .15 0 .23.36.14-.08.4-.13.59-.05.19 0 .49-.3.45a.11.11 0 01-.08-.14h-.05a.429.429 0 00.22.36c.22-.19.23-.5.55-.54.32-.04-.07-.44.18-.58.41 0 .85-.19 1.18.15 0 .14-.08.2 0 .32a1.643 1.643 0 01-.28.54.29.29 0 01-.09.3c-.11.48-.66.25-1 .42a2.53 2.53 0 001.76.48c.34 0 .19-.44.36-.63.12-.56.63-.18.94-.33.134-.228.225-.48.27-.74a.53.53 0 01-.22-.6c-.13-.18-.12-.51-.41-.54a.17.17 0 010-.2c0-.17.17-.23.22-.36-.19-.12-.14-.38-.12-.53-.31.08-.35-.32-.58-.41 0-.18-.25-.22-.41-.25-.38.19-.45-.29-.73-.4 0-.08-.1-.21 0-.28.1-.07.33 0 .5 0l-.14-.07c-.13-.14-.4 0-.57 0 .16.16.09.45.19.65m-15.3 42.78a13.11 13.11 0 00-2.35.2V76a8.64 8.64 0 002.06.2c3 0 4.85-1.49 4.85-4.1 0-2.61-1.8-3.83-4.56-3.83z"/><path d="M.73 90.52h29v-29h-29v29zM20.3 76a8 8 0 01-5.9 2.12 8.763 8.763 0 01-2-.17v7.75H9.89V66.58a25.707 25.707 0 014.79-.4c2.47 0 4.27.57 5.42 1.6a5.22 5.22 0 011.72 4A5.57 5.57 0 0120.3 76zm23.82 22.7a14.602 14.602 0 00-2.93.25v15.29c.839.109 1.685.149 2.53.12 5.33 0 8.23-3 8.23-8.21 0-4.61-2.56-7.45-7.83-7.45z"/><path d="M31.47 121.12h29v-29h-29v29zm20.34-7.54c-1.84 1.81-4.82 2.79-8.58 2.79a35.265 35.265 0 01-4.56-.23v-19a36.243 36.243 0 015.33-.41c3.59 0 6.14.81 7.84 2.39a8.92 8.92 0 012.75 7 10.356 10.356 0 01-2.78 7.51M.73 121.11h29V92.16h-29v28.95zm21.6-12.83c0 5.94-3.13 8.35-7.31 8.35-4 0-6.95-2.24-6.95-8.26V97h2.53v11.48c0 4.3 1.92 6.14 4.5 6.14 2.84 0 4.71-1.89 4.71-6.14V97h2.52v11.28zm9.14-17.76h29v-29h-29v29zm7.26-24.15h2.76l6.17 9.79a50.82 50.82 0 013.44 6.28h.09c-.23-2.58-.29-4.93-.29-7.92v-8.15h2.35v19.34h-2.52l-6.18-9.81a56.715 56.715 0 01-3.59-6.45h-.08c.14 2.44.17 4.76.17 8v8.26h-2.32V66.37z"/></g><defs><clipPath id="clip0"><path fill="#fff" transform="translate(.73)" d="M0 0h59.73v121.12H0z"/></clipPath></defs></svg>