<svg width="60" height="123" fill="none" xmlns="http://www.w3.org/2000/svg"><path d="M.031 62.22v29.076h29.073V62.219H.031zm21.69 16.111c0 5.971-3.161 8.384-7.345 8.384-3.98 0-6.972-2.244-6.972-8.296v-11.45h2.54v11.52c0 4.324 1.924 6.168 4.52 6.168 2.849 0 4.721-1.897 4.721-6.168V66.97h2.536v11.36zM30.91 62.22v29.076h29.072V62.219H30.91zm21.83 24.236h-2.536L44.043 76.6a57.636 57.636 0 01-3.604-6.477l-.088.028c.148 2.458.176 4.777.176 8.008v8.296h-2.36V67.04h2.764l6.192 9.835a51.771 51.771 0 013.457 6.322l.087-.028c-.228-2.596-.284-4.953-.284-7.956v-8.149h2.357v19.392zM0 93.094v29.073h29.076V93.094H0zm20.418 21.514c-1.848 1.816-4.844 2.785-8.613 2.785a35.359 35.359 0 01-4.566-.224V98.071a36.449 36.449 0 015.357-.404c3.6 0 6.164.808 7.86 2.392 1.757 1.588 2.765 3.864 2.765 7.001 0 3.136-1.022 5.764-2.803 7.548z" fill="#fff"/><path d="M12.293 115.384a15.647 15.647 0 01-2.532-.119v-15.35a14.5 14.5 0 012.937-.256c5.296 0 7.892 2.852 7.86 7.485 0 5.244-2.912 8.268-8.264 8.24z" fill="#fff"/><path d="M12.293 115.384a15.647 15.647 0 01-2.532-.119v-15.35a14.5 14.5 0 012.937-.256c5.296 0 7.892 2.852 7.86 7.485 0 5.244-2.912 8.268-8.264 8.24zM30.91 93.062v29.077h29.072V93.062H30.91zm19.63 14.468c-1.32 1.405-3.473 2.108-5.932 2.108a8.666 8.666 0 01-2.02-.172v7.776h-2.504V98.099c1.59-.284 3.202-.42 4.816-.404 2.48 0 4.292.58 5.444 1.62a5.219 5.219 0 011.728 4.057c0 1.749-.52 3.133-1.531 4.158z" fill="#fff"/><path d="M44.672 107.748a8.777 8.777 0 01-2.076-.2v-7.545a12.45 12.45 0 012.364-.2c2.767 0 4.566 1.233 4.566 3.832 0 2.599-1.802 4.113-4.854 4.113zM.031.4v59.983H60V.4H.03zm51.444 31.23c-.84 1.19-1.854 2.3-2.63 3.512.087-.959.2-2.143-.18-3.053a26.468 26.468 0 01-1.405-6.097v-.822c.488 2.195 2.649 3.71 2.508 6.171.002.552-.08 1.1-.242 1.627l.035.042.098-.113c.32-1.204.478-2.48.977-3.607.702-1.62 1.587-3.256 1.229-5.216 1.11 2.318.787 5.399-.39 7.555zm-1.331-12.442a7.457 7.457 0 01.702 7.166c-.385.95-.655 1.943-.804 2.957-.074-.175-.088-.414-.151-.614-.562-2.15-2.6-3.685-3.439-5.715a10.8 10.8 0 01-.614-2.07c.895 1.655 3.101 2.509 3.702 4.332.246.463.232 1.053.38 1.535a.063.063 0 00.066-.056 20.911 20.911 0 01.074-5.698c-.018-1.008-.113-1.98-.671-2.757.351.207.513.608.755.92zm-.994-.369c.372 1.68-.169 3.316.172 5.013-.913-1.799-2.856-2.645-4.187-4.085a5.676 5.676 0 01-1.303-2.996c.766 1.847 2.828 2.255 4.011 3.804.397.35.527.857.783 1.264l.04-.042c-.682-1.454-.91-3.091-1.378-4.64a3.66 3.66 0 00-1.348-1.756c1.538.33 2.883 1.953 3.21 3.438zm-4.159-3.863c1.177 1.053 1.704 2.406 2.048 3.814l.19.446a16.908 16.908 0 01-4.331-4.601L41.57 13.27c1.17.505 2.424.8 3.421 1.696v-.01zm-22.23-1.293a16.937 16.937 0 017.27-1.725 16.073 16.073 0 0114.402 9.133 15.866 15.866 0 011.053 11.24c-1.095 4.275-4.692 8.598-8.88 10.358-4.713 2.311-11.415 1.732-15.616-1.282-5.84-4-8.233-10.889-6.466-17.71 1.075-4.05 4.296-8.135 8.237-10.014zm-4.623-.158c-1.173 1.03-1.98 2.35-2.859 3.551-.783.966-1.78 1.605-2.67 2.434.482-.99.5-2.174 1.177-3.084.966-1.686 2.758-2.28 4.352-2.901zm-6.42 3.586a3.959 3.959 0 012.107-1.405c-1.577 1.086-1.479 3.035-1.981 4.658-.162.6-.44 1.152-.576 1.756l.042.032a5.53 5.53 0 011.3-1.918c1.127-1.054 2.81-1.686 3.344-3.221-.025 2.136-1.81 3.811-3.513 5.012a7.123 7.123 0 00-1.756 2.108c-.039-.534.084-1.079.045-1.655-.193-1.858-.333-3.983.987-5.367zm-3.204 6.372c-.05-1.886.73-3.428 1.837-4.833.032 0 .056-.05.095-.042-1.215 1.833-.21 4.172-.26 6.273l-.162 2.15c.022 0 .022.08.081.052.058-.244.102-.492.134-.741.298-1.735 1.788-2.964 3.108-4.145.281-.29.508-.628.671-.997a9.093 9.093 0 01-.734 2.532c-1.026 1.978-2.919 3.618-3.263 5.901-.165-2.167-1.661-3.825-1.507-6.15zm-.924 2.683a8.46 8.46 0 01.5-1.756c-.49 2.494 1.186 4.289 1.738 6.456.232.805.291 1.676.618 2.438.032 0 .056 0 .077-.042-.822-2.283.366-4.416 1.553-6.217a6.041 6.041 0 00.597-1.588c.126 1.054-.134 2.237-.288 3.316-.285 1.373-.703 2.676-1.092 4.01a6.262 6.262 0 00-.053 2.646l-.12-.095c-.874-1.605-2.599-2.863-3.105-4.619a9.772 9.772 0 01-.425-4.549zm-.08 4.876c.193 2.648 3.038 4.046 4.358 6.234.283.475.617.917.998 1.318-.067-.282-.327-.52-.421-.808a5.676 5.676 0 01-.503-3.123c.127-1.352.703-2.606.482-4.029 1.155 2.501.804 5.62 1.45 8.328.169.59.513 1.117.738 1.686-2.382-1.622-5.62-3.16-6.674-6.14-.474-1.022-.523-2.29-.428-3.466zm1.426 6.073c1.324 2.996 4.647 3.252 6.87 5.082.39.358.828.657 1.303.889l.021-.025a7.573 7.573 0 01-1.461-1.59c-1.303-1.813-.847-4.356-1.823-6.323a14.584 14.584 0 012.23 3.372c.801 1.967 1.103 4.187 2.95 5.676-2.001-.657-4.337-.47-6.1-1.704-1.911-1.166-3.632-3.171-3.99-5.377zm3.41 5.62c2.125 2.423 5.62 1.615 8.43 2.244.387.113.788.166 1.19.155-.35-.218-.807-.193-1.176-.387-2.22-.783-2.546-3.185-3.755-4.808 1.542 1.022 2.835 2.406 4.261 3.74 1.022.893 2.252 1.307 3.544 1.574-.309.113-.702.078-1.054.169-2.321.576-4.917 1.51-7.376.667a7.144 7.144 0 01-4.064-3.372v.018zm28.883 5.64c-2.399.896-4.9-.038-6.772-1.46-.737-.482-1.44-1.184-2.413-1.128a3.391 3.391 0 00-.997.095 18.43 18.43 0 015.058 3.512 7.95 7.95 0 01-.917.833c-1.486-1.605-3.161-3.161-4.988-4.054a3.223 3.223 0 00-1.029.436 15.495 15.495 0 00-4.11 3.67l-.959-.79a17.643 17.643 0 015.083-3.621c-1.82-.573-3.01.952-4.394 1.728-1.609 1.12-3.93 1.647-5.884.875a6.38 6.38 0 01-2.81-1.936c1.539 1.054 3.822 1.17 5.56.485 2.344-1.019 4.77-2.304 7.591-1.69.443 0 .875.45 1.29.074a9.01 9.01 0 016.273.79l1.861.742c1.728.639 3.966.467 5.445-.594a6.456 6.456 0 01-2.888 2.016v.018zm2.571-2.458c-2.694 1.015-5.402-.228-7.983-.646l-.496-.063c1.233-.278 2.43-.647 3.414-1.535 1.444-1.405 2.733-2.81 4.338-3.917-1.19 1.528-1.313 3.699-3.28 4.682-.492.32-1.103.376-1.609.618.72 0 1.373-.242 2.086-.312 2.638-.411 5.655 0 7.503-2.238-.688 1.51-2.403 2.825-3.973 3.376v.035zm1.493-2.74c-1.37.37-2.841.489-4.18.942 2.262-1.943 2.136-4.946 3.646-7.232.444-.674.925-1.322 1.44-1.943-.916 1.848-.52 4.236-1.577 6.028a7.825 7.825 0 01-1.63 1.956c.211 0 .397-.19.577-.313 1.72-1.707 3.958-2.188 5.813-3.579a5.619 5.619 0 001.756-2.202c-.358 2.8-3.179 5.458-5.827 6.308l-.018.035zm3.4-4.836c-1.053.702-2.142 1.341-3.161 2.132v-.092c1.57-2.606.8-6.182 1.756-9.04l.352-.956c-.2 1.777.572 3.291.523 5.079a5.764 5.764 0 01-.98 2.901h.095c.769-1.004 1.37-2.076 2.265-3.038 1.388-1.342 2.81-2.715 2.99-4.566.48 3.063-1.251 5.785-3.84 7.544v.036z" fill="#fff"/><path d="M29.568 25.97a1.517 1.517 0 01-1.015.601c-.102.127-.077.408-.327.383-.077.176-.351.281-.246.538-.076.301-.122.61-.137.92-.474.291-.35-.393-.572-.537l-.084.133c-.092.025-.159-.032-.225-.095a.242.242 0 00-.253 0c-.105.176-.264.32-.225.559-.046.144-.288.095-.256.245.272-.01.542-.047.808-.108.186.045.35-.088.52-.095.06.031.14.095.112.19h.08a.323.323 0 00.127-.383c0-.169.204-.169.313-.218.102.049.038.15.056.235.351.134-.088.397-.137.587-.05.19 0 .498-.302.45a.112.112 0 01-.078-.138h-.042a.404.404 0 00.218.352c.218-.183.228-.496.552-.534.165-.176-.074-.446.175-.59.415 0 .857-.186 1.187.147-.024.148-.077.214.043.33-.06.197-.158.38-.288.538a.271.271 0 01-.085.302c-.109.488-.667.256-.994.425a2.522 2.522 0 001.757.477c.35 0 .193-.439.35-.628.11-.559.626-.176.938-.33.133-.23.224-.48.267-.741a.533.533 0 01-.214-.598c-.133-.186-.12-.523-.418-.555a.158.158 0 01.035-.19c0-.175.166-.235.215-.35-.183-.12-.134-.383-.12-.538-.312.091-.351-.32-.576-.407-.056-.183-.256-.215-.414-.246-.383.182-.446-.288-.734-.4-.032-.088-.099-.215 0-.285.098-.07.35 0 .502-.028l-.137-.07c-.127-.145-.404-.057-.573 0 .165.165.099.453.197.653zm.808-7.607c.306-.046.618-.035.92.031a9.354 9.354 0 014.296 1.729 1.17 1.17 0 01-.351-.576.087.087 0 01.095-.032c0-.25-.246-.376-.285-.6a.162.162 0 01.176-.071c.26.25.496.525.702.822.176-.07.32.042.45.133.228.137.088.436.263.594.032.47.604.738.576 1.208 0 .11.14.025.19.081l.478.587a.234.234 0 00.084.326c.214.102.351-.172.548-.133.309.175-.05.383-.018.576.12 0 .274-.095.37.024.038.176-.145.288-.219.4 0 .177.144.138.274.177a.222.222 0 01.194.288c.396.414-.12.864.07 1.303a.752.752 0 01-.211.78c0 .35-.313.568-.436.863l-.407.081c-.218.215.186.482-.035.615l.9.018-.1-.095a1.323 1.323 0 01.12-1.138c.085-.317.229-.616.425-.878.056 0 .158-.12.207 0 .03.282-.017.567-.137.825.26.351.225.847.246 1.3.794-.05 1.57-.064 2.347-.053l-.07-.155a11.475 11.475 0 00-1.054-4.137c-.165 0-.288.144-.478.095a.154.154 0 01-.098-.159 11.497 11.497 0 00-.875-.976c-.415.039-.597-.432-.962-.481-.327-.134-.102-.664-.576-.517a.772.772 0 01-.503-.537 1.32 1.32 0 00-.453-1.134c-.291-.106-.407.277-.702.214-.158-.081-.088-.288-.137-.422-.05-.133-.19-.207-.165-.368.375-.496-.457-.485-.274-.974-.05-.35-.408-.491-.59-.769a13.022 13.022 0 00-3.864-1.11c-.351-.049-.664.025-.96-.133l.078.147c-.028.745.025 1.535-.049 2.23zm-1.079 19.483a9.259 9.259 0 01-5.156-1.935c.05.19.302.316.232.552-.137.22-.415.224-.636.22-.46-.076-.794.271-1.222.317-.394.12-.53-.351-.889-.316 2.22 1.935 4.76 3.161 7.728 3.312l.224.151-.098-.27v-2.108l-.183.078zm-11.232-9.22l.172 1.468c.07.57.32 1.114.302 1.672.088-.12.035-.35.25-.382-.088-.176.168-.33.024-.482a1.57 1.57 0 01.457-1.053c.407 0 .435-.555.846-.576.207 0 .334.27.425.35a1.516 1.516 0 01-.169-1.158l-.175.08c-.744.03-1.489.015-2.23-.045l.098.126zm3.119-8.866v.152l-.864 1.1c-1.405 1.938-2.087 4.186-2.287 6.63l2.192-.041.207.08c-.088-.056-.067-.15-.095-.232a9.67 9.67 0 012.547-6.002 15.59 15.59 0 01-1.7-1.686zm12.128 13.907c.288.15.636.161.942.288.27.07.456.407.794.302.291-.158.769.098.962-.207-.032-.296.225-.513.351-.766l.092-.025c.161.169.154.418.224.6.225-.238.4-.505.601-.75a7.136 7.136 0 001.166-2.46c-.213.01-.425.046-.629.11-.231 0-.512.122-.702-.04-.07-.059-.123.036-.109.099-.084.12-.165.27-.351.214-.186-.056-.144-.214-.193-.326a.702.702 0 01-.039.245c-.14.164-.258.345-.351.538-.169.183-.443.12-.618.27-.032.383-.457.302-.703.425 0 .046.039.057.063.095a.309.309 0 00.352-.08c.35.09.263-.352.46-.478.165-.025.326-.169.498-.056.165.235.234.523.194.807-.194.19-.095.503-.232.727.031.264-.292.383-.25.647a.562.562 0 01-.439.137 7.501 7.501 0 00-1.998-.457.134.134 0 00-.085.14zm-11.686-3.934c.021-.144-.193-.183-.168-.327.15-.295 0-.773.4-.903a.915.915 0 01-.77-.07l.12.193c0 .527.225 1.03.113 1.567.105-.155.105-.362.305-.46zm11.665 1.004a.605.605 0 00.13.38c.31-.046.18.386.464.35.161-.048 0-.185.052-.287-.042-.243-.277-.267-.439-.411-.017-.046 0-.088.039-.127-.116-.066-.169.007-.246.095zm3.372 7.341l.113-.15c.5-.358.97-.756 1.404-1.191h.06c-.098-.032-.221.063-.33 0-.228-.106-.263-.306-.263-.538l-.984-1.015-.053-.151c-.082.175-.202.33-.35.453 0 .13-.04.323.115.408.316.105.73.316.804.702-.13.351-.8.671-.386 1.054.14.197-.183.267-.13.428zm-11.219-8.229c-.077-.043-.087-.032-.15.038a.197.197 0 01-.12 0c0-.453-.51-.183-.703-.421.225.414.352.885.573 1.3.148.35.464.656.611 1.018a5.33 5.33 0 01.689-.8.42.42 0 00-.078-.314c-.07-.168 0-.407-.133-.551-.204.074.074.281 0 .404a.125.125 0 01-.12 0 .126.126 0 01-.066-.102.531.531 0 01-.39-.351c.12-.102-.07-.144-.113-.221z" fill="#fff"/><path d="M39.115 19.188c.172.039.221.239.351.351.58.31.73.935 1.243 1.286.288.604.952 1.054.977 1.756a12.683 12.683 0 011.212 4.963l-.06.095a.301.301 0 00.186-.074l2.308-.038c-.151-.225-.092-.552-.13-.822-.306-3.558-1.823-6.604-4.215-9.287a18.345 18.345 0 01-1.591 1.71l-.281.06zm-8.163 5.919c.183.105.284-.084.442-.127a.98.98 0 01.53.352c.145.063.282-.021.408-.07.092-.665.92-.566 1.166-1.191l-.15.06c-.064-.092-.222-.053-.215-.194.134-.159.297-.29.481-.386a8.046 8.046 0 00-2.28-1.054 8.433 8.433 0 01-.958-.193c.151.457 0 1.124.112 1.654l.573.19c.172-.278.537-.351.702-.597.106-.088.225 0 .306.095.014.226-.022.453-.105.663-.215.432-.727.485-1.012.798zm8.514 5.37a10.46 10.46 0 01-1.405 3.053c-.263.35-.523.8-.86.976l.734.64c.038-.04 0-.106.028-.159.028-.052.046-.21.165-.193.351 0 .351.351.559.559-.043.305.224.544.133.825a11.872 11.872 0 003.21-7.618l.106-.127c-.703.07-1.476.021-2.217.032l-.179-.057a8.16 8.16 0 01-.109 1.44l.26.285a.288.288 0 01-.052.351.302.302 0 01-.373-.007zm-1.991-2.121l.245.242c.246.172.081.527.352.675.27.147.421.52.562.79a.927.927 0 00.07-.232c.109-.439.091-.934.228-1.366-.488.07-.985.033-1.457-.11zm-4.549-8.637a13.62 13.62 0 00-2.575-.545l.081.176v2.163l.21-.038a7.025 7.025 0 013.57 1.45l.056.17c.351-.503.902-.935 1.324-1.406l.4-.235-.193-.078a9.25 9.25 0 00-2.873-1.657zm4.615 3.688a9.011 9.011 0 00-1.053-1.405l-.039.098c-.738.762-1.545 1.556-2.244 2.34a.51.51 0 00.214.231c.032-.193.137-.351.154-.558.187-.264.478-.099.724-.042.383-.088.745.087 1.135.08.291.144.316.513.575.657.074.102.018.221-.08.302.08.6.351-.158.674 0 .127.05.285.032.38.169.049.25.35.204.35.439-.024.12-.15.15-.235.218.078.238-.242.39-.133.646.464.088.481-.45.702-.703a4.367 4.367 0 00-.446-1.204c-.26-.056-.421-.352-.702-.425-.499-.222.091-.541.024-.843zm-5.149 8.957c.19-.197.593-.19.611-.475-.281-.045-.422.11-.611.26-.028.06-.113.172 0 .215zm-2.887 8.591l.08-.12-.245.064a12.6 12.6 0 01-8.153-3.513l-.024.095-1.644 1.655a16.158 16.158 0 008.518 3.99c.532.03 1.062.094 1.587.19l-.12-.19v-2.171zm1.422-7.095c.211.038.063.263.215.351.326-.105.579.278.839.039 0-.376.41-.352.64-.44.35-.217.768-.502.73-.983l-.06-.07c-.25 0-.376.19-.555.351-.179.162-.351-.239-.523-.15 0 .038.049.055.08.073a.18.18 0 010 .232c-.27.246-.396-.123-.656-.099v.099c0 .056 0 .14-.092.109-.165-.264-.491-.166-.653-.397-.098-.056-.197 0-.267.08-.06.12-.313 0-.25.194-.2.07-.22.28-.35.414-.25-.046-.352.235-.594.232.024.046 0 .126.07.133a.85.85 0 00.464.057c.242-.4.625-.081.962-.225zm-10.26 2.947a4.56 4.56 0 01-.744-.77 1.092 1.092 0 01-.671-.512c-.081-.092 0-.25-.095-.313l-.099.12c-.28.133-.379-.155-.572-.27-.25-.138-.126-.609-.467-.524-.123 0-.165-.151-.246-.229-.31.029-.39-.312-.558-.48-.032.073 0 .168-.095.213-.32.074-.432-.316-.65-.48-.056.024-.095.094-.176.077a.965.965 0 01-.33-.675c-.263-.298-.14-.766-.095-1.127.05-.095.19-.148.162-.27.074-.17.25-.183.418-.19a.41.41 0 01.158.15c.105-.066.351 0 .25-.224.152-.11.332-.177.52-.193.099.176.216.342.35.495l-.109-.172a12.772 12.772 0 01-.386-2.43c0-.05-.102-.075-.042-.12v.024c-.004-.15.004-.3.024-.45l-.214.081h-2.223c.115 2.46.784 4.86 1.956 7.025.57 1.054 1.405 2.002 2.108 2.986l1.59-1.647.236-.095zm7.253-1.95c.167-.174.373-.307.601-.386-.702.144-1.335-.351-1.942-.65-.352-.253-.79-.463-.998-.846a12.067 12.067 0 01-1.59 1.63c.245 0 .382.288.593.41 1.197.998 2.69 1.48 4.078 1.823l-.38-.179c-.288-.326-.702-.702-.702-1.166.277-.102.246-.418.34-.636zm2.495 5.233c.59-.2 1.278-.168 1.917-.273a.664.664 0 01-.35-.207c-.377-.025-.552-.415-.672-.703-.056-.21.091-.39.18-.572-.162-.33-.657-.092-.945-.208-.081-.066-.138-.161-.246-.179l.116.18c.04.653.04 1.309 0 1.963zm8.457-2.872c-.228.435-.702.702-1.096 1.053-.52.52-1.366.63-1.633 1.384-.277.253-.372.654-.762.798-.148.383-.555.35-.787.635-.67.601-1.103-.379-1.71-.498l-1.223.214c-.425 0-.846.151-1.247 0 .06.836.06 1.675 0 2.511l.151-.098a15.54 15.54 0 0010.028-4.215l-1.682-1.605-.039-.18z" fill="#fff"/><path d="M42.937 28.465l-.134-.099.077.218a12.806 12.806 0 01-2.536 7.099c-.264.384-.58.73-.938 1.029a15.853 15.853 0 011.781 1.756l.064-.12a15.405 15.405 0 003.986-9.76l.099-.19-.12.056-2.28.01zm-25.684-.798l-.042-.312c.133-2.465.965-4.84 2.399-6.85.351-.407.622-.916 1.071-1.222-.52-.488-1.053-1.054-1.608-1.591l-.057-.218a15.76 15.76 0 00-4.106 8.729c-.088.48-.028.976-.123 1.464.82-.066 1.646-.066 2.466 0zm6.217-5.606a9.455 9.455 0 00-2.15 4.43c-.087.383-.038.829-.192 1.19a2.006 2.006 0 011-.042c-.178-.095-.03-.326-.136-.453-.025-.197-.056-.446.137-.576-.021-.326.326-.495.351-.79.088-.351.47-.113.653-.288.12-.063 0-.176 0-.264.158-.217.408-.207.597-.326.133-.226.317-.417.538-.559.477 0 .488-.657.941-.674a18.65 18.65 0 01-1.738-1.648zm2.796 10.278a6.07 6.07 0 002.887 1.328c.053-.215-.031-.485.081-.671.113-.186.292-.169.453-.137a.137.137 0 00.095-.211c-.228-.042-.126-.299-.207-.443 0-.08.144-.063.112-.168-.161-.13.078-.27-.056-.408.039-.024.07-.073.109-.102-.485.204-.997-.09-1.426-.28-.21-.123-.513-.24-.558-.5-.359.563-1.012 1.072-1.49 1.592zM22.455 28.5l-.063.425c-.095.25-.407.063-.551.232-.144.168 0 .326.095.453-.222.513.505.674.495 1.134.225.292-.032.703.291.963.07.52-.073 1.222.383 1.63l.078.498c.09.352-.412.253-.352.559.099-.046.12.08.127.112a21.315 21.315 0 012.051-2.107l-.302-.306a8.008 8.008 0 01-1.23-2.743l-.231-.116c-.05.232-.087.466-.113.702l-.08.095c-.166 0-.27-.144-.415-.232-.035-.087-.123-.231 0-.302a.302.302 0 01.193.053c.07-.084.039-.21.081-.323.021-.193-.147-.351-.028-.538.151 0 .263.17.327.27.154.05.274-.076.4-.133 0-.137.19-.32 0-.4a1.819 1.819 0 000-.941c-.084-.264-.38-.218-.597-.194-.646.208.105.703-.053 1.093-.098.242-.337.024-.506.116zm4.525 1.58c-.06.203-.175.385-.331.527h.046c.19-.137.33-.383.572-.397l-.288-.13zm2.525-7.688a5.451 5.451 0 00-3.41 1.605h.171c.197.193.506.15.65.41.074.141-.137.127-.127.247.043.031.095.038.127.095.151.052.12-.088.18-.152.196-.196.23.194.42.194a.296.296 0 01.422.052c.13-.112.404 0 .443-.214.25-.263.112-.67.477-.84.13.074 0 .194.043.306.245.102.526-.21.723.042a5.139 5.139 0 01-.12-1.745zm-8.223-3.71l.039-.112a12.683 12.683 0 018.184-3.418l-.07-.19-.028-1.92.066-.222a15.54 15.54 0 00-8.612 3.035c-.489.351-.92.846-1.405 1.138h.07a13.243 13.243 0 011.756 1.69z" fill="#fff"/><path d="M29.47 16.062a12.293 12.293 0 00-6.245 2.086c-.5.352-.952.79-1.465 1.096.593.373 1.082.998 1.616 1.493l.056.151a9.62 9.62 0 014.794-2.427c.419-.098.85-.132 1.279-.098a16.238 16.238 0 01-.035-2.3zm-.092 3.165a9.322 9.322 0 00-5.332 2.248c.608.421 1.149 1.1 1.704 1.587.043-.056.083-.114.12-.175a7.404 7.404 0 012.437-1.261c.397-.039.79-.228 1.205-.137a11.014 11.014 0 010-2.357l-.134.095zm-5.55 16.277l-.031-.057.031.099v-.042zm8.079-22.593a12.54 12.54 0 01-1.556-.19c.081.732.09 1.47.025 2.203a.302.302 0 01.074-.186c.112-.067.204.032.25.109.045.077.059.305-.036.351.095 0 .144-.056.228-.056 1.776.129 3.5.653 5.048 1.535v-.039c.309-.154.702-.351 1.029-.08.383-.145.456.326.766.382a1.658 1.658 0 01.85 1.078c.066.145.295.246.326.401.257-.544.766-.93 1.209-1.405l.27-.112a14.917 14.917 0 00-8.483-3.99zm1.539 1.634a1.02 1.02 0 01-1.054.27c-.527.106-1.264.408-1.686-.133-.02-.043-.067-.099-.02-.137.07-.127.252-.081.35-.042l1.152-.492c.46.039.973.095 1.247.478l.01.056zm4.52 2.22c-.432.112-.47-.373-.804-.496a.326.326 0 01-.056-.231c.15-.183.295.122.46-.04a.477.477 0 01.351.289c-.031.179.18.334.05.478z" fill="#fff"/></svg>