<?xml version="1.0" encoding="UTF-8"?><svg id="Ebene_2" xmlns="http://www.w3.org/2000/svg" xmlns:xlink="http://www.w3.org/1999/xlink" viewBox="0 0 83.18 48.52"><defs><style>.cls-1{fill:none;}.cls-2{clip-path:url(#clippath);}.cls-3{fill:#f1d62f;}.cls-4{fill:#bc0030;}.cls-5{clip-path:url(#clippath-1);}</style><clipPath id="clippath"><rect class="cls-1" width="83.18" height="48.52"/></clipPath><clipPath id="clippath-1"><rect class="cls-1" width="83.18" height="48.52"/></clipPath></defs><g id="Layer_1"><g class="cls-2"><rect class="cls-4" width="83.18" height="48.52"/><rect y="24.26" width="83.18" height="24.26"/><polygon class="cls-3" points="37.88 23.43 40.45 21.56 43.02 23.43 42.04 20.41 44.6 18.54 41.43 18.54 40.45 15.52 39.47 18.54 36.29 18.54 38.86 20.41 37.88 23.43"/><g class="cls-5"><path class="cls-3" d="M54.13,38.31c-.37-.61-.84-1.06-1.44-1.6-.61-.54-1.44-1.13-2.06-1.73l-1.18,1.38c-.05,.06-.03,.19,.03,.2,1.32,.23,1.74,.7,2.27,1.15,.71,.72,1,1.59,1.46,1.91,.86,.6,1.48-.42,.93-1.31m-3.1-2.2c-.09,0-.16-.07-.16-.16s.07-.16,.16-.16,.16,.07,.16,.16-.07,.16-.16,.16m1.2,1.05c-.09,0-.16-.07-.16-.16s.07-.16,.16-.16,.16,.07,.16,.16-.07,.16-.16,.16m1.06,1.07c-.09,0-.16-.07-.16-.16s.07-.16,.16-.16,.16,.07,.16,.16-.07,.16-.16,.16"/><path class="cls-3" d="M43.53,33.21c-.97,.33-2,.51-3.08,.51-2.28,0-4.34-.84-5.97-2.18l-1.38,1.69c.58,.48,1.21,.91,1.88,1.27l-.47,.89c.73,.39,1.5,.71,2.28,.95l.28-.94c.72,.23,1.46,.38,2.24,.46l-.09,.96c.82,.08,1.65,.08,2.47,0l-.09-.96c.77-.07,1.52-.22,2.24-.44l.28,.92c.39-.12,.78-.26,1.15-.41l-.51-1.99-1.22-.72Z"/><path class="cls-3" d="M49.91,24.27c0,2.89-1.3,5.48-3.35,7.22l2.66,1.84c.35-.34,.68-.69,.98-1.07l-.75-.61c.48-.59,.91-1.22,1.27-1.9l.85,.46c.39-.73,.71-1.49,.95-2.28l-.93-.28c.22-.72,.37-1.47,.44-2.24l.97,.09c.08-.82,.08-1.65,0-2.47l-.97,.1c-.08-.77-.23-1.52-.45-2.24l.93-.28c-.24-.79-.56-1.56-.95-2.28l-.86,.46c-.37-.67-.79-1.3-1.28-1.89l.77-.63c-.52-.64-1.11-1.22-1.75-1.75l-.64,.79c-.59-.48-1.22-.9-1.9-1.26l.48-.9c-.73-.39-1.49-.71-2.28-.95l-.3,.99c-.69-.21-1.41-.35-2.15-.43l-.23,2.16c4.75,.5,8.48,4.48,8.48,9.37"/><path class="cls-3" d="M46.23,32.76c-2.5-1.76-5.08-3.58-7.25-5.63-.02-.02-.02-.05,0-.07,.02-.02,.05-.02,.07,0,2.16,2.04,4.74,3.86,7.24,5.61,1.23,.87,2.51,1.77,3.71,2.68l.38-.45c-4.16-2.97-14-9.8-14.12-12.29-1.94,3.79,.52,6.06,2.11,6.96,4.04,2.29,6.71,3.81,10.92,6.61l.64-.75c-1.2-.91-2.48-1.81-3.71-2.67"/></g></g></g></svg>