<svg xmlns="http://www.w3.org/2000/svg" viewBox="0 0 13.12 13.12" xmlns:v="https://vecta.io/nano"><defs><clipPath id="A"><circle cx="6.56" cy="6.56" r="5.89" fill="none"/></clipPath><clipPath id="B"><circle cx="6.56" cy="6.56" r="5.89" fill="none"/></clipPath><clipPath id="C"><circle cx="6.56" cy="6.56" r="5.89" fill="none"/></clipPath></defs><circle cx="6.56" cy="6.56" r="6.56" fill="#fff"/><circle cx="6.56" cy="6.56" r="6.08" fill="#c6cde0"/><g clip-path="url(#A)"><path d="M-.5.42h13.3v4.09H-.5z" fill="#75a5da"/></g><g clip-path="url(#B)"><path d="M-.5 4.52h13.3v4.09H-.5z" fill="#fff"/></g><g clip-path="url(#C)"><path d="M-.5 8.61h13.3v4.09H-.5z" fill="#75a5da"/></g><path d="M7.47 6.66l.84-.04c.03 0 .06 0 .06-.03 0-.04-.04-.03-.06-.03-.32 0-.64-.02-.97-.03-.02 0-.03 0-.05-.01h0c.06-.02.11-.03.15-.03.1-.01.19-.02.28-.07.12-.06.25-.1.38-.08.06 0 .11-.01.16-.05l.06-.06c0-.01 0-.02-.01-.03 0 0-.02 0-.03.01-.06.06-.13.05-.21.04-.12-.02-.24 0-.35.05-.04.03-.09.04-.13.05l-.28.02H7.3s.03-.03.04-.03l.84-.39c.03 0 .06-.02.05-.05 0-.04-.04-.01-.07-.01h-.01s-.01 0-.02.01h0s-.01 0-.02.01h0l-.6.23-.25.09c-.01 0-.02.01-.04 0 0 0 .02-.02.03-.02.04-.02.08-.05.12-.07.08-.04.16-.1.22-.17a.58.58 0 0 1 .27-.19c.07-.02.12-.06.16-.12.02-.02.02-.05.03-.08 0-.01-.01-.02-.01-.02-.01 0-.02.01-.03.01-.03.07-.09.1-.16.12-.14.04-.25.11-.35.21-.06.08-.16.11-.25.16a.69.69 0 0 1-.08.03c.01-.01.01-.02.02-.03l.57-.62c.02-.03.05-.05.07-.08.01-.01.01-.03.01-.05-.02 0-.04 0-.05.01-.06.05-.11.1-.17.16l-.58.53h-.01a2.22 2.22 0 0 1 .12-.16.72.72 0 0 0 .12-.21c.04-.12.1-.22.19-.3.06-.05.1-.12.1-.2 0-.01 0-.03-.01-.04 0-.01-.02-.01-.03-.02 0 0-.02.01-.02.02 0 .08-.05.13-.11.17-.1.08-.18.17-.22.3-.01.05-.04.09-.07.13a3.13 3.13 0 0 1-.17.21c.01-.08.04-.14.06-.21l.26-.7c.01-.02.04-.06 0-.07-.03-.02-.04.02-.05.04l-.41.89c0 .01-.01.01-.01.02h-.01s.01-.08.02-.11a1.02 1.02 0 0 0 .06-.42.66.66 0 0 1 .06-.27c.03-.06.04-.12.02-.19 0-.02-.03-.05-.05-.07-.03 0-.03.03-.02.05.03.05 0 .1-.01.15 0 .01-.02.03-.03.04-.05.09-.08.18-.08.28 0 .05.01.11 0 .16-.02.08-.05.17-.08.25 0 .03-.02.05-.02.07h-.01v-.2l-.02-.5-.01-.28c0-.02 0-.04-.01-.05l-.03-.01s-.03.04-.03.06l-.01.28-.02.5v.2h-.01l-.03-.07c-.03-.08-.06-.17-.08-.25-.01-.05 0-.1 0-.16 0-.1-.03-.19-.08-.28-.01 0-.02-.03-.03-.04-.02-.05-.04-.1 0-.16.01-.02.01-.04-.02-.05l-.05.08c-.02.07-.01.13.02.19.04.09.07.18.06.27-.01.14 0 .28.05.42.02.03.02.07.03.11h-.01s-.01-.01-.01-.02l-.41-.89c0-.02-.02-.06-.05-.05-.04.02 0 .05 0 .08l.26.71.07.19c-.07-.06-.13-.13-.18-.2-.03-.04-.06-.08-.08-.13-.04-.12-.12-.22-.22-.3-.05-.04-.11-.09-.1-.17 0-.01-.01-.02-.02-.03 0 .01-.02.02-.03.02 0 .02 0 .03-.01.04 0 .08.03.15.1.2.1.08.15.18.19.3a.55.55 0 0 0 .12.21A2.22 2.22 0 0 0 6.1 6h0l-.59-.52c-.06-.05-.11-.11-.17-.16 0-.01-.03 0-.05-.01 0 .02 0 .04.01.05.02.03.05.05.07.08l.57.61c.01 0 .02.03.02.04l-.08-.03c-.09-.05-.19-.08-.25-.16a.58.58 0 0 0-.34-.21c-.07-.01-.13-.04-.16-.12 0-.01-.02-.01-.03-.01s-.02.02-.01.02c0 .03.01.05.02.07.03.06.09.1.16.12a.58.58 0 0 1 .27.19.52.52 0 0 0 .21.18c.04.02.08.05.12.07l.03.03h-.04c-.07-.04-.15-.07-.23-.1l-.59-.22-.01-.01s-.01 0-.02-.01h0s-.01 0-.02-.01h-.01s-.05-.03-.07.01c-.02.03.01.04.03.05l.84.39c.01.01.03.01.04.02h0c-.09.01-.18.01-.27-.01-.05 0-.1-.03-.14-.05-.11-.05-.23-.07-.35-.05-.08.01-.15.02-.21-.05h-.03v.03c.02.02.03.05.06.06.05.03.1.05.16.05a.69.69 0 0 1 .37.08c.09.05.18.06.28.07.05 0 .1.01.15.02h0s-.03.02-.05.02l-.96.03c-.02 0-.06 0-.06.03s.04.03.06.03l.84.03h.15v.02l-.34.1c-.03.01-.07.01-.11 0-.11 0-.21.02-.31.08-.03.02-.07.04-.1.05s-.07 0-.1 0h-.04s.01.04.02.04c.05.03.11.03.17.03h.02s.08-.03.11-.05c.09-.04.17-.05.27-.04.07.01.16-.01.34-.05.02 0 .06 0 .11-.03 0 0 .01 0 .02.01l-.19.09-.65.29c-.03.02-.06.03-.09.04-.02.02-.05.02-.04.06.01.03.04.01.06 0h.02s.03-.01.04-.01c.04-.02.09-.03.13-.05.01 0 .02-.01.03-.01h.02c.01-.01.04-.03.05-.03l.36-.14.23-.08c.01-.01.03-.01.05-.01-.02.01-.03.02-.04.03-.05.04-.09.09-.14.13-.05.03-.1.07-.15.09a.66.66 0 0 0-.29.2c-.03.03-.05.07-.09.09-.02.02-.06.02-.09.03 0 0-.03.02-.04.02.01.01.03.03.04.03.04 0 .08-.01.12-.01.05-.03.09-.07.13-.11.07-.06.14-.11.23-.14.11-.04.22-.09.3-.18.03-.03.08-.06.11-.09H6c-.03.06-.06.09-.09.13l-.59.64c-.02.02-.02.04-.02.05s.01.02.02.02c.02 0 .03-.03.04-.03.04-.07.2-.19.45-.41l.24-.24c0-.01.02-.01.04-.02-.02.03-.03.06-.05.1a.78.78 0 0 1-.21.3c-.08.07-.12.16-.14.26-.02.09-.05.16-.14.2v.02s.01.01.03.01h.03c.1-.05.15-.14.18-.24.01-.03.03-.06.05-.09l.18-.18s.01-.01.01-.02h0l.02-.02.11-.2.06-.09c-.03.12-.07.23-.11.35-.03.06-.05.12-.08.19v.02l-.01.01-.05.15-.07.18-.03.08h0a.4.4 0 0 0 .03.04c.01-.01.03-.02.03-.03l.23-.49.17-.37c.01-.02.02-.03.03-.05-.01.16 0 .32-.08.47-.05.09-.05.2-.04.3 0 .03 0 .06.01.08.01.05-.01.1-.04.14-.02 0-.02.02-.02.04.02.01.03.01.03.01.05 0 .09-.1.1-.18v-.06c0-.12.02-.23.08-.33a.89.89 0 0 0 .08-.33c0-.04.01-.08.02-.13h.02s0 .08.01.12l.03.89c0 .01 0 .04.01.05 0 0 .01 0 .02-.01v.02s.03-.03.03-.05l.03-.89c0-.04 0-.08.01-.12h.02v.12c.01.11.03.22.08.33.06.1.08.21.07.33v.06c.02.06.04.12.09.16.01.01.03 0 .05.01 0-.01-.01-.03-.01-.04-.03-.04-.05-.09-.04-.14 0-.03 0-.06.01-.08.01-.1.01-.2-.04-.29-.09-.15-.07-.31-.08-.47.01.01.02.03.03.05l.16.36.23.49.03.03s.02 0 .03-.03h0l-.03-.09c-.02-.06-.05-.12-.07-.17l-.05-.17h0l-.01-.03c-.02-.06-.05-.12-.08-.18l-.13-.34c.04.02.06.05.08.09a1.86 1.86 0 0 0 .11.19l.02.02s.01.01.01.02l.18.18s.04.06.05.09c.03.1.08.19.18.24h.03s.03-.01.03-.03c-.09-.04-.12-.11-.14-.2a.51.51 0 0 0-.14-.26.78.78 0 0 1-.21-.3c-.02-.03-.03-.07-.05-.1.02 0 .02.01.03.02l.26.23.45.41c.02.01.04.04.06.01.01-.01 0-.04-.01-.05l-.61-.63c-.03-.04-.07-.07-.1-.11h.01s.08.04.11.08a1.05 1.05 0 0 0 .31.17c.09.03.16.08.23.14.04.04.09.08.13.11.04.01.08.01.12.01.01 0 .03-.02.04-.03-.01 0-.03-.01-.04-.02-.03-.01-.07-.01-.09-.03-.03-.03-.06-.06-.09-.1a.66.66 0 0 0-.29-.2c-.05-.02-.1-.05-.15-.09-.05-.03-.09-.07-.14-.12-.01 0-.02-.02-.03-.03.02 0 .03 0 .05.01.07.03.15.05.22.08l.36.14h.05l.03.01s.02.01.03.01c.04.02.09.03.13.05.01 0 .03.01.04.01h.02s.05.03.06 0-.02-.04-.04-.05a.3.3 0 0 1-.1-.04l-.65-.29-.18-.09h.03.01s.05.01.07.02c.01 0 .02.01.02.01.12.04.23.07.35.05a.51.51 0 0 1 .27.04c.03.02.07.03.1.05h.02c.06.01.12.01.17-.03 0 0 0-.02.02-.04h-.04s-.07.01-.1 0a.37.37 0 0 1-.11-.05.51.51 0 0 0-.32-.08c-.04 0-.07.01-.11 0l-.32-.1s0-.01-.01-.02h.15z" fill="#fdcd20"/><g fill="#a05f27"><path d="M6.56 5.88v-.42h0v.03l-.01.34c0 .01-.01.03-.01.04h-.02l.04-1.06h.01v-.02h-.02s-.02.03-.02.05l-.01.28-.02.5v.2h-.01l-.03-.07c-.03-.08-.06-.17-.08-.25-.01-.05 0-.1 0-.16 0-.1-.03-.19-.08-.28-.01 0-.02-.03-.03-.04-.02-.05-.04-.1 0-.16.01-.02.01-.04-.02-.05l-.05.08c-.02.07-.01.13.02.19.04.09.07.18.06.27-.01.14 0 .28.05.42.02.03.02.07.03.11h-.01s-.01-.01-.01-.02l-.41-.89c0-.02-.02-.06-.05-.05-.04.02 0 .05 0 .08l.26.71.07.19c-.07-.06-.13-.13-.18-.2-.03-.04-.06-.08-.08-.13-.04-.12-.12-.22-.22-.3-.05-.04-.11-.09-.1-.17 0-.01-.01-.02-.02-.03 0 .01-.02.02-.03.02 0 .02 0 .03-.01.04 0 .08.03.15.1.2.1.08.15.18.19.3a.55.55 0 0 0 .12.21A2.22 2.22 0 0 0 6.1 6h0l-.59-.52c-.06-.05-.11-.11-.17-.16 0-.01-.03 0-.05-.01 0 .02 0 .04.01.05.02.03.05.05.07.08l.57.61c.01 0 .02.03.02.04l-.08-.03c-.09-.05-.19-.08-.25-.16a.58.58 0 0 0-.34-.21c-.07-.01-.13-.04-.16-.12 0-.01-.02-.01-.03-.01s-.02.02-.01.02c0 .03.01.05.02.07.03.06.09.1.16.12a.58.58 0 0 1 .27.19.52.52 0 0 0 .21.18c.04.02.08.05.12.07l.03.03h-.04c-.07-.04-.15-.07-.23-.1l-.59-.22-.01-.01s-.01 0-.02-.01h0s-.01 0-.02-.01h-.01s-.05-.03-.07.01c-.02.03.01.04.04.05l.84.39c.01.01.03.01.04.02h0c-.1.01-.19.01-.28-.01-.05 0-.1-.02-.14-.05-.11-.05-.23-.07-.35-.05-.08.01-.15.02-.21-.05h-.03v.03c.02.02.03.05.06.06.05.03.1.05.16.05a.69.69 0 0 1 .37.08c.09.05.18.06.28.07a.77.77 0 0 1 .15.02h0s-.03.02-.05.02l-.96.03c-.02 0-.06 0-.06.03s.04.03.06.03l.84.03h.15v.02l-.33.1c-.03.01-.07.01-.11 0-.12 0-.22.02-.32.08-.03.02-.07.04-.1.05s-.07 0-.1 0h-.04s.01.04.02.04c.05.03.11.03.17.03h.02s.08-.03.11-.05c.09-.04.17-.05.27-.04.12.01.23-.01.34-.05 0 0 .04-.02.07-.03-.03 0-.07 0-.11.02a.66.66 0 0 1-.34.05c-.1 0-.19.01-.28.05-.06.03-.12.04-.18.03-.03 0-.06-.01-.08-.04h.01c.08.03.14 0 .21-.04a.58.58 0 0 1 .34-.09c.12.02.23-.03.35-.07l.09-.03c.01 0 .02.01.03.01-.01 0-.01.02-.02.03l-.31.1c-.03 0-.06 0-.08.01v.02l.15-.03.21-.06c.02 0 .05-.02.07.02-.02 0-.03 0-.04.02.01 0 .02.01.04.01l-.19.09-.65.29c-.03.02-.06.03-.09.04-.02.02-.05.02-.04.06.01.03.04.01.06 0h.02s.03-.01.04-.01c.04-.02.09-.03.13-.05.01 0 .02-.01.03-.01h.02c.01-.01.04-.03.05-.03l.36-.14.23-.08c.01-.01.03-.01.05-.01-.02.01-.03.02-.04.03-.05.04-.09.09-.14.13-.05.03-.1.07-.15.09a.66.66 0 0 0-.29.2c-.03.03-.05.07-.09.09-.02.02-.06.02-.09.03 0 0-.03.02-.04.02.01.01.03.03.04.03.04 0 .08-.01.12-.01.05-.03.09-.07.13-.11.07-.06.14-.11.23-.14.11-.04.22-.09.3-.18.03-.03.08-.06.11-.09H6c-.03.06-.06.09-.09.13l-.59.64c-.02.02-.02.04-.02.05s.01.02.02.02c.02 0 .03-.03.04-.03.04-.07.2-.19.45-.41l.24-.24c0-.01.02-.01.04-.02-.02.03-.03.06-.05.1a.78.78 0 0 1-.21.3c-.08.07-.12.16-.14.26-.02.09-.05.16-.14.2v.02s.01.01.03.01h.03c.1-.05.15-.14.18-.24.01-.03.03-.06.05-.09l.18-.18s.01-.01.01-.02h-.01a1.1 1.1 0 0 0-.16.15c-.04.05-.08.12-.1.18-.03.06-.06.12-.12.16-.02.01-.05.02-.07.03h0c.09-.05.11-.13.14-.21.03-.12.1-.21.19-.3.05-.05.09-.11.12-.18.04-.06.07-.13.1-.19.01-.02.02-.02.04-.01a.97.97 0 0 1-.19-.22c0-.01-.01-.01-.02-.01 0-.02-.02-.03-.02-.05h0s0-.02-.01-.03c-.04-.09-.05-.18-.05-.27 0-.01 0-.02-.01-.03l-.37.01h0s.03.01.05.01l.28.01c.02 0 .04.01.03.04L4.79 6.6v-.02s.02-.01.04-.01l1.03-.03.07-.25h0s.04-.08.07-.12h0l.13-.12c.12-.12.29-.17.45-.17zm-.23-.17a.75.75 0 0 1-.04-.33c.01-.1-.02-.2-.06-.29-.03-.06-.05-.13-.02-.21 0-.02.02-.03.02-.04h.01v.02c-.02.07-.01.13.03.19.07.12.11.24.09.38-.01.1.04.21.08.31l.03.1c0 .01-.01.02-.01.03-.01 0-.02 0-.02-.02l-.08-.24a.75.75 0 0 1-.04-.16h-.01l.03.16c0 .08.04.16.05.24 0 .01-.01.02-.01.03h-.01c0-.05-.03-.11-.04-.17zm-.47-.77h.01s.02 0 .02.02l.33.7.09.21v.03s-.02-.01-.02-.02l-.11-.23c0-.02-.02-.05-.03-.07h-.01c.03.07.06.15.08.22l.03.1c0 .01 0 .02-.01.03h-.01l-.37-.99zm.16 2.14v.04l-.2.21c.09-.06.17-.13.25-.21.03.02.01.03 0 .04l-.23.21-.5.46c0 .02-.02.03-.03.04a9.91 9.91 0 0 1 .71-.79h0zm-.31.12l.19-.15c.02 0 .03-.02.05-.03h.03c-.1.1-.21.17-.32.24-.03.02-.07.03-.11.04a.76.76 0 0 0-.26.18c-.05.06-.12.1-.2.09-.01 0-.02 0-.04-.01.01-.01.02-.01.02-.01.08 0 .13-.05.17-.1.08-.11.18-.19.31-.23.08-.03.15-.09.21-.14l.16-.13c.02.02.02.03 0 .05l-.14.12-.18.13c.04-.02.08-.03.11-.05zM5.59 7l.12-.04.16-.06h.04s-.03.03-.04.03l-.43.16-.49.18c0 .01-.03.01-.04.01 0-.02.01-.03.02-.03l.89-.41c.01 0 .01-.01.02-.01h.03v.03c-.07.04-.15.07-.22.1-.02 0-.04.02-.05.03h0zm-.07-.57c.09.02.18.02.27.04.02 0 .03.02.04.03h-.05l-.25-.04c-.06 0-.12-.04-.18-.06a.59.59 0 0 0-.29-.07c-.06 0-.12 0-.18-.03-.02-.02-.04-.04-.07-.06h.01c.07.05.15.05.23.04.11-.02.22-.01.33.05s.22.06.34.06c.04 0 .08.01.12.01.01 0 .02.01.02.02h-.03c-.1 0-.19-.01-.29-.02-.04 0-.08-.02-.12-.03h0a.89.89 0 0 0 .1.05zm.38-.13l-.19-.06c-.05-.02-.1-.03-.14-.05h0l.28.14c.02.01.03.02.02.04l-.97-.44h0s.03-.01.04 0l.49.18.44.15c.02.01.04.02.03.04zm.08-.12c-.05-.02-.1-.05-.15-.07l-.23-.13s.01.02.02.02c.06.05.13.08.19.12.04.03.08.05.12.08.01 0 .01.02.01.02-.01 0-.02.01-.02 0l-.29-.16c-.04-.03-.08-.08-.11-.12-.08-.08-.17-.14-.28-.17-.06-.03-.11-.07-.14-.13v-.06c.01.01.02.01.02.02.02.06.08.09.14.11.14.03.26.1.35.21.06.07.15.11.23.15l.13.06c.02.01.03.02.02.05zm-.03-.08q0 0 0 0zm.11-.03l-.19-.17c-.03-.03-.06-.06-.1-.08l.16.18.08.08v.04l-.72-.78h.01.03l.58.54.15.14c.01.01.03.02 0 .04zm-.17-.36s-.04-.1-.05-.15c-.04-.08-.09-.15-.16-.21-.06-.05-.1-.12-.1-.2 0-.01 0-.03.01-.04h.01v.03c0 .05.02.09.06.12.06.05.13.1.18.16a.64.64 0 0 1 .08.14c.04.1.09.18.16.25a1.06 1.06 0 0 1 .1.12c.01.01.01.02.01.04-.01 0-.03 0-.03-.01-.06-.06-.12-.13-.17-.19-.03-.04-.05-.08-.09-.11.01.02.02.05.03.07l.15.2c.01.02.03.04.04.06v.04h-.01l-.22-.32z"/><path d="M6.56 8.38h-.01s-.01-.04-.01-.06l-.02-.79c0-.06-.01-.12-.01-.19 0-.01.01-.02.01-.02.01.01.02.02.02.03l.01.26v.04h.01v-.34a.73.73 0 0 1-.42-.14l-.01.03-.16.31h.01l.11-.18c.02-.03.04-.07.07-.1.01-.01.02-.01.03-.01-.05.11-.12.22-.18.32h.01c.06-.07.1-.13.13-.2 0-.03.03-.06.05-.09a3.58 3.58 0 0 1-.11.35c-.03.06-.05.12-.08.19v.02L6 7.82l-.05.15-.07.18-.03.08h0a.4.4 0 0 0 .03.04c.01-.01.03-.02.03-.03l.23-.49.17-.37c.01-.02.02-.03.03-.05-.01.16 0 .32-.08.47-.05.09-.05.2-.04.3 0 .03 0 .06.01.08.01.05-.01.1-.04.14-.02 0-.02.02-.02.04.02.01.03.01.03.01.05 0 .09-.1.1-.18v-.06c0-.12.02-.23.08-.33a.89.89 0 0 0 .08-.33c0-.04.01-.08.02-.13h.02s0 .08.01.12l.03.89c0 .01 0 .04.01.05zm-.25-1.06l-.18.4-.21.46c-.01.03-.03.05-.04.07-.01 0-.01-.01-.02-.01l.37-.99c.04 0 .03.02.02.04l-.09.24c0 .01-.01.03-.01.04h.01s.03-.07.05-.1l.07-.16.03-.03s.01.03 0 .04zm.15 0c-.01.1-.03.2-.05.3a.58.58 0 0 1-.05.14c-.05.11-.08.22-.07.34.01.06 0 .12-.04.17-.01.02-.04.04-.06.06 0-.01-.01-.02-.01-.02.07-.06.07-.13.06-.21-.02-.12 0-.24.05-.35.03-.06.04-.13.05-.2 0-.08 0-.16.02-.24 0-.01.01-.02.02-.02.01.01.02.02.02.03-.02.11-.03.22-.04.33 0 .03-.01.05-.02.08.04-.05.05-.11.06-.17l.02-.2c0-.02.01-.04.02-.05 0 0 .01-.01.02-.01v.02z"/></g><g fill="#ececeb"><path d="M5.65 5.96s-.01 0-.02-.01l.02.01z"/><path d="M5.63 5.95s-.01 0-.02-.01q0 0 .02.01zm.04.01q-.01-.01 0 0z"/></g><g fill="#a05f27"><path d="M6.47 7.08h0zm-.51.45l-.04.04h0s.02-.03.04-.04h0z"/><path d="M5.97 7.52h-.01q-.01.01.01 0h0zm-.44-1.35s.02.01.03.02h0s-.02-.02-.03-.02h0z"/><path d="M5.53 6.17h-.02s.02-.01.02 0h0z"/><path d="M6.56 7.3h0c-.39 0-.71-.32-.71-.71s.32-.71.71-.71h0a.72.72 0 0 0-.73.72c0 .4.33.73.73.73h0V7.3zm.46-1.25l.13.12h0s.05.08.07.13h0l.07.25 1.03.04c.01 0 .02.01.04.01v.02l-1.07.03c-.01-.03 0-.04.03-.04l.28-.01h.05l-.37-.02c0 .01-.01.02-.01.03 0 .09-.01.18-.05.26 0 .01 0 .02-.01.03h0s-.01.03-.02.05c-.01 0-.01.01-.02.01-.05.08-.11.15-.19.21.03 0 .04 0 .05.02.03.06.06.13.1.19.03.06.07.13.12.18.09.08.16.18.19.3.02.08.05.16.14.2h0s-.06-.01-.08-.02c-.06-.04-.09-.1-.12-.16-.03-.07-.06-.13-.1-.18-.05-.06-.1-.1-.16-.15h-.01s.01.02.01.03l.18.18s.04.05.05.08c.03.1.08.19.18.24h.03s.03-.01.03-.03c-.09-.04-.12-.11-.14-.2a.51.51 0 0 0-.14-.26.78.78 0 0 1-.21-.3c-.02-.03-.03-.07-.05-.1.02 0 .02.01.03.02l.26.23.45.41c.02.01.04.04.06.01.01-.01 0-.04-.01-.05l-.61-.63c-.03-.04-.07-.07-.1-.11h.01s.08.04.11.08a1.05 1.05 0 0 0 .31.17c.09.03.16.08.23.14.04.04.09.08.13.11.04.01.08.01.12.01.01 0 .03-.02.04-.03-.01 0-.03-.01-.04-.02-.03-.01-.07-.01-.09-.03a.9.9 0 0 1-.09-.1.66.66 0 0 0-.29-.2c-.05-.02-.1-.05-.15-.09-.05-.03-.09-.07-.14-.12-.01 0-.02-.02-.03-.03a.09.09 0 0 1 .05.01c.07.03.15.05.22.08l.36.14h.05l.03.01s.02.01.03.01c.04.02.09.03.13.05.01 0 .03.01.04.01h.02s.05.03.06 0c0-.03-.03-.03-.05-.05-.03-.01-.06-.02-.09-.04l-.65-.29-.18-.09h.03c-.01-.01-.02-.01-.03-.02.01-.04.05-.02.07-.02l.2.06.15.03v-.02s-.06 0-.08-.01l-.31-.1c-.01 0-.01-.02-.02-.02.01 0 .02-.01.03-.01.03 0 .06 0 .1.02.11.04.22.09.34.08a.53.53 0 0 1 .34.09c.06.04.13.07.21.04h.01s-.05.03-.08.03c-.06.01-.12 0-.18-.03a.54.54 0 0 0-.28-.05c-.12.01-.23 0-.34-.04-.04-.02-.07-.02-.11-.03.03 0 .06.02.09.03.11.04.22.07.34.05a.51.51 0 0 1 .27.04c.03.02.07.03.11.05h.02c.06.01.12.01.17-.03V6.9h-.04s-.07.01-.1 0a.37.37 0 0 1-.11-.05.51.51 0 0 0-.32-.08c-.04 0-.07.01-.11 0l-.32-.1s0-.01-.01-.02h.15l.84-.03c.03 0 .06 0 .06-.03 0-.04-.04-.03-.06-.03-.32 0-.64-.02-.97-.03-.02 0-.03 0-.05-.01h0c.06-.02.11-.03.15-.03.1-.01.19-.02.28-.07.12-.06.25-.1.38-.08.06 0 .11-.01.16-.05l.06-.06c0-.01 0-.02-.01-.03 0 0-.02 0-.03.01-.06.06-.13.05-.21.04-.12-.02-.24 0-.35.05-.04.03-.09.04-.13.05l-.28.02h-.01s.03-.03.04-.03l.84-.39c.03 0 .06-.02.05-.05 0-.04-.04-.01-.07-.01h-.01s-.01 0-.02.01h0s-.01 0-.02.01h0l-.6.23-.25.09c-.01 0-.02.01-.04 0 0 0 .02-.02.03-.02.04-.02.08-.05.12-.07.08-.04.16-.1.22-.17a.58.58 0 0 1 .27-.19c.07-.02.12-.06.16-.12.02-.02.02-.05.03-.08 0-.01-.01-.02-.01-.02-.01 0-.02.01-.03.01-.03.07-.09.1-.16.12-.14.04-.25.11-.34.21-.07.08-.17.11-.26.16-.02.01-.05.02-.08.03.01-.01.01-.02.02-.03l.57-.62c.02-.03.05-.05.07-.08.01-.01.01-.03.01-.05-.02 0-.04 0-.05.01-.06.05-.11.1-.17.16l-.58.53h-.01a2.22 2.22 0 0 1 .12-.16.72.72 0 0 0 .12-.21c.04-.12.1-.22.19-.3.06-.05.1-.12.1-.2 0-.01 0-.03-.01-.04 0-.01-.02-.01-.03-.02 0 0-.02.01-.02.02 0 .08-.05.13-.11.17-.1.08-.18.17-.22.3-.01.05-.04.09-.07.13-.05.07-.11.14-.17.21.01-.08.04-.14.06-.21l.26-.7c.01-.02.04-.06 0-.07-.03-.02-.04.02-.05.04l-.41.89c0 .01-.01.01-.01.02h-.01s.01-.08.02-.11a1.02 1.02 0 0 0 .06-.42.66.66 0 0 1 .06-.27c.03-.06.04-.12.02-.19 0-.02-.03-.05-.05-.07-.03 0-.03.03-.02.05.03.05 0 .1-.01.15 0 .01-.02.03-.03.04-.05.09-.08.18-.08.28 0 .05.01.11 0 .16-.02.08-.05.17-.08.25 0 .03-.02.05-.02.07h-.01v-.2l-.02-.5-.01-.28c0-.02 0-.04-.01-.05l-.01.01h.01l.04 1.06H6.6s-.01-.03-.01-.04l-.01-.34v-.03h0v.41a.82.82 0 0 1 .43.19zm-.27-.17c-.02 0-.02-.02-.02-.03l.05-.24.03-.16H6.8a.75.75 0 0 1-.04.16l-.07.24c0 .01-.02.01-.02.02 0-.01-.01-.02-.01-.03l.03-.1c.04-.1.08-.21.08-.32-.02-.14.01-.26.08-.37.04-.06.05-.12.03-.18v-.02h.01s.02.03.02.04c.02.07.01.14-.02.21-.04.08-.07.18-.06.28a.75.75 0 0 1-.04.33c0 .06-.03.12-.04.17zm.14.06h-.01s-.01-.02-.01-.03l.03-.09c.03-.07.06-.15.08-.22h-.01l-.03.05c-.03.08-.07.15-.11.23 0 .01-.02.01-.03.02v-.03l.1-.21.32-.69c.01-.01.02-.02.02-.03h.01l-.36 1zm.22 1.14c.06.05.71.76.71.79 0 0-.02-.02-.04-.03l-.49-.46-.23-.21c-.01-.01-.03-.03 0-.04l.24.21a2 2 0 0 0-.19-.22s-.01-.03-.01-.04h.01zm.41.17l-.17-.13L7.21 7c-.03-.02-.03-.03-.02-.05.05.04.11.08.16.13.06.06.13.12.21.14.13.04.23.12.31.23.04.06.09.1.17.1 0 0 .01 0 .02.01-.02 0-.03.01-.04.01-.08 0-.15-.03-.2-.09-.07-.08-.15-.14-.25-.17-.04-.02-.08-.03-.11-.05l-.32-.22h0s.02-.02.03-.01c.01 0 .03.01.04.02l.2.15c.03.02.07.03.11.05zm.01-.26l-.05-.03-.22-.1c-.01 0-.01-.02-.02-.02h.03s.01 0 .02.01l.89.41c.01.01.02.01.03.02-.02.01-.04 0-.05 0-.15-.07-.31-.13-.48-.19l-.43-.16c-.01 0-.02-.02-.03-.03.01 0 .03-.01.04 0l.16.06c.03 0 .07.03.11.04h0zm.18-.61c-.04 0-.08.01-.13.02l-.29.02c-.01 0-.02-.01-.03-.02.01 0 .02-.02.03-.02.04 0 .08-.01.12-.01.11 0 .23 0 .34-.06.1-.06.21-.06.33-.05.07.01.15.01.21-.05h.02l-.07.07c-.06.03-.12.04-.18.03-.1-.01-.2.02-.29.06a.67.67 0 0 1-.18.07c-.08.02-.17.03-.26.04h-.05s.03-.03.04-.03l.27-.04c.04 0 .08-.02.12-.03zm-.46-.14l.43-.16.49-.18c.01 0 .03 0 .04-.01h0c-.31.17-.63.31-.95.46-.02-.03 0-.03.02-.04l.28-.13h0a.42.42 0 0 0-.15.04l-.19.06c0-.02.01-.03.03-.04zm-.09-.13c.05-.02.09-.04.13-.06.08-.04.17-.07.23-.15.09-.11.21-.17.35-.21.07-.02.12-.05.15-.11l.02-.02c-.01.03-.01.05-.02.06-.03.06-.08.1-.14.12-.11.04-.2.09-.28.18-.03.04-.07.09-.11.12l-.28.17h-.02s0-.02.01-.02c.04-.03.08-.05.12-.08.06-.05.12-.08.18-.12l.02-.02c-.07.03-.15.07-.22.11-.05.03-.1.05-.16.08 0-.03 0-.04.02-.05zm0-.02q0 0 0 0 0 0 0 0zm-.1-.08l.15-.14.58-.54c.01-.01.02-.01.03-.02h.01c-.23.28-.48.53-.72.79 0-.01-.01-.03 0-.04.02-.03.05-.06.08-.08l.16-.18c-.04.02-.07.05-.1.08-.06.06-.12.12-.19.17-.03-.02 0-.03 0-.04zm-.05 0H7v-.04s.02-.04.04-.06l.15-.2c.01-.02.02-.04.03-.07-.04.04-.06.08-.09.12l-.17.19c0 .01-.02.01-.03.01 0-.01 0-.03.01-.04.03-.04.07-.08.1-.12a.67.67 0 0 0 .16-.25.64.64 0 0 1 .08-.14c.05-.06.12-.11.18-.16.04-.03.06-.07.06-.12V5.1h.01s.01.03.01.04c0 .08-.04.15-.1.2a.51.51 0 0 0-.15.21l-.06.15c-.07.11-.15.21-.22.31z"/><path d="M6.56 8.4s.03-.03.03-.05l.03-.89c0-.04 0-.08.01-.12h.02v.12c.01.11.03.22.08.33.06.1.08.21.07.33v.06c.02.06.04.12.09.16.01.01.03 0 .05.01 0-.01-.01-.03-.01-.04-.03-.04-.05-.09-.04-.14 0-.03 0-.06.01-.08.01-.1.01-.2-.04-.29-.09-.15-.07-.31-.08-.47.01.01.02.03.03.05l.16.36.23.49.03.03s.02 0 .03-.02h0l-.03-.1c-.02-.06-.05-.12-.07-.17l-.05-.17h0l-.01-.03c-.02-.06-.05-.12-.08-.18l-.13-.34c.04.02.06.05.08.09a1.86 1.86 0 0 0 .11.19l.02.02h.01l-.19-.32c.02-.01.04-.01.04 0l.07.1a1.86 1.86 0 0 0 .11.19h.01l-.17-.33v-.02c-.14.09-.28.14-.43.14v.35h.01v-.04l.01-.26c0-.01.01-.02.02-.03 0 .01.01.02.01.02 0 .06 0 .12-.01.19l-.03.78c0 .02 0 .04-.01.06h-.01v.02h.01zm.25-1.12l.03.03c.03.05.05.11.07.16.02.03.03.07.05.11h.01s-.01-.03-.01-.04l-.09-.25c0-.02-.02-.04.02-.04l.37.99c-.01 0-.01.01-.02.01 0-.02-.03-.04-.04-.07l-.21-.46-.18-.4v-.04zm-.14.03s.02 0 .02.01c.01.02.01.03.02.05.01.07.02.13.02.2.01.06.02.12.06.17-.02-.03-.03-.05-.03-.08l-.03-.34c0-.01.01-.02.02-.03 0 .02.01.02.01.03 0 .08 0 .16.02.23s.02.14.05.2c.05.11.07.23.05.35-.01.09-.01.16.06.23v.02s-.06-.05-.07-.07c-.04-.05-.05-.11-.04-.17a.59.59 0 0 0-.08-.34.58.58 0 0 1-.05-.14l-.05-.3c.01 0 .01 0 .02-.02z"/><path d="M6.66 7.08v.01l-.01-.01h.01zm.5.45l.04.04h0s-.02-.03-.04-.04h0z"/><path d="M7.15 7.52h.01q.01.01-.01 0h0zm.05.05h0zm.32-.32q0 0 0 0h0zm.07-1.08h-.04 0 .04 0z"/><path d="M7.59,6.17h.02s-.02-.01-.02,0h0Z"/><path d="M6.56 7.3h0c.39 0 .71-.32.71-.71s-.32-.71-.71-.71h0a.72.72 0 0 1 .73.72c0 .4-.33.73-.73.73h0V7.3zm.25-.83s-.02-.04-.04-.04-.04.02-.04.04.02.04.04.04.04-.02.04-.04zm-.64-.07s.13-.1.23-.06.11.07.11.07.04.15-.03.21c0 0 0 .06.03-.01.02-.07.04-.14 0-.24-.04-.09-.25-.07-.25-.07s-.11.07-.11.09z"/><path d="M6.93 6.39s-.13-.1-.23-.06-.1.07-.1.07-.04.15.02.21c0 0 0 .06-.03-.01a.3.3 0 0 1 0-.23c.04-.09.24-.07.24-.07s.12.07.11.09zm-.5.26s0 .03.02.04.03-.02.03-.02.01-.01.03.02c0 0 .06.03.09-.01.03-.03.03 0 .03 0s.03.03.04 0 0-.05 0-.05.04.02.02.05c-.03.05-.05.04-.05.04h-.03c0-.01-.03.01-.03.01s-.04.01-.07 0c-.03-.02-.04 0-.04 0s-.03.02-.05 0c-.02-.03.01-.07.01-.07z"/><path d="M6.34 6.5h0c.07.01.11-.04.11-.04s-.03-.04-.1-.05c-.09 0-.14.05-.14.05.04.04.09.04.12.04h.01zm.08-.04s-.02.03-.06.03c.01-.01.02-.02.02-.03s-.01-.03-.02-.03c.05.01.06.03.06.03zm-.18 0s.04-.05.09-.05c-.02 0-.03.02-.03.04 0 .01.01.02.01.03-.02 0-.05 0-.07-.02zm.24-.01s-.09-.07-.14-.07-.08 0-.16.06c0 0-.02.02.01.01 0 0 .08-.09.15-.07s.13.06.13.06.02.03 0 0z"/><path d="M6.46 6.48l-.06.03c-.06.03-.14 0-.14 0s-.03-.02-.04-.02.02.02.02.02.05.03.11.03.08-.02.11-.04c.02-.01 0-.02 0-.02zm.3.02c.07.01.11-.04.11-.04s-.03-.04-.1-.05c-.08 0-.13.05-.13.05.04.04.09.04.11.04h.01zm.09-.04s-.02.03-.06.03c.01-.01.02-.02.02-.03s-.01-.03-.02-.03c.04.01.06.03.06.03zm-.19 0s.04-.05.09-.05c-.02 0-.03.02-.03.04 0 .01.01.02.01.03-.02 0-.04 0-.07-.02zm.24-.01s-.08-.07-.13-.07-.08 0-.16.06c0 0-.02.02.01.01 0 0 .08-.09.15-.07s.13.06.13.06.02.03 0 0z"/><path d="M6.89 6.48l-.06.03c-.06.03-.14 0-.14 0s-.04-.02-.05-.02.02.02.02.02.05.03.11.03.08-.02.11-.04 0-.02 0-.02zm-.43.36s.03-.01.05.01c.02.01.06 0 .06 0s.05-.02.07-.01c0 0 0-.02-.04-.01s-.07.02-.1 0c-.02-.02-.05 0-.04.01z"/><path d="M6.64 7h0s-.05-.07-.07-.07h-.02s-.04.01-.06.04c0 .01-.01.01-.01.02h-.02l.01-.02c.02-.03.03-.04.04-.05-.02 0-.06-.03-.07-.06-.02 0-.05-.01-.05-.02h0s.04-.09.1-.08c.05 0 .05.01.05.01h.03.06 0s.08.04.08.07h0s-.05.02-.05.03c-.02.02-.05.03-.07.04.02.01.05.04.06.06 0 .01 0 .02-.01.03h0zm-.07-.08a.5.5 0 0 0 .07.05c-.01-.02-.05-.05-.07-.05h0c.03-.01.06-.04.07-.05.01-.02.04-.03.06-.03 0-.02-.05-.05-.08-.06-.01 0-.04-.01-.05 0-.02.02-.04.01-.04 0h-.01s-.02 0-.04-.01c-.05 0-.08.05-.09.06.01 0 .03.01.05.02h0a.68.68 0 0 0 .07.05h0s-.01.02-.02.03c.02-.01.04-.01.04-.01h.04z"/></g></svg>