<?xml version="1.0" encoding="UTF-8"?><svg id="Ebene_2" xmlns="http://www.w3.org/2000/svg" xmlns:xlink="http://www.w3.org/1999/xlink" viewBox="0 0 83.18 48.52"><defs><style>.cls-1{fill:none;}.cls-2{clip-path:url(#clippath);}.cls-3{fill:#f1bd51;}.cls-4{fill:#fff;}.cls-5{fill:#80a7d8;}.cls-6{fill:#7a361d;}.cls-7{clip-path:url(#clippath-1);}</style><clipPath id="clippath"><rect class="cls-1" width="83.18" height="48.52"/></clipPath><clipPath id="clippath-1"><rect class="cls-1" width="83.18" height="48.52"/></clipPath></defs><g id="Layer_1"><g class="cls-2"><rect class="cls-4" y="16.17" width="83.18" height="16.17"/><rect class="cls-5" width="83.18" height="16.17"/><rect class="cls-5" y="32.35" width="83.18" height="16.18"/><g class="cls-7"><path class="cls-3" d="M41.26,24.26l.25,6.62s0,.12,.08,.12,.08-.12,.08-.12l.25-6.62h-.67Z"/><path class="cls-6" d="M41.59,31.02c-.08,0-.1-.09-.1-.14l-.25-6.62h.04s.25,6.61,.25,6.61c0,0,0,.1,.06,.1,.06,0,.06-.1,.06-.1l.25-6.62-.21,6.62s-.02,.14-.1,.14h0Z"/><polygon class="cls-6" points="41.43 24.26 41.59 28.8 41.76 24.26 41.43 24.26"/><path class="cls-3" d="M40.97,26.4c-.38,.83-.06,1.51-.44,2.24-.38,.73-.14,1.33-.17,1.66-.02,.34-.3,.43-.23,.51,.07,.08,.35-.08,.46-.52,.11-.44-.15-.7,.3-1.59,.46-.89,.09-1.29,.55-2.09l-.48-.2Z"/><path class="cls-6" d="M40.21,30.84l-.09-.02s0-.1,.05-.15c.06-.07,.16-.18,.17-.37,0-.09,0-.2-.02-.32-.04-.34-.09-.81,.19-1.34,.19-.36,.2-.71,.21-1.07,.01-.37,.03-.75,.22-1.17l.04,.02c-.19,.41-.2,.79-.22,1.15-.01,.37-.03,.72-.22,1.09-.28,.52-.22,.98-.19,1.32,.01,.13,.03,.24,.02,.33-.01,.2-.12,.32-.18,.39-.05,.06-.07,.08-.05,.1,.16-.02,.35-.18,.43-.51,.04-.15,.03-.28,.03-.41-.01-.28-.03-.59,.28-1.18,.23-.44,.25-.76,.27-1.07,.02-.32,.05-.62,.28-1.02-.19,.42-.21,.71-.24,1.03-.02,.31-.05,.64-.28,1.08-.3,.58-.29,.89-.27,1.16,0,.14,.01,.27-.03,.42-.08,.33-.26,.52-.4,.55h-.01Z"/><path class="cls-6" d="M41.07,26.61c-.29,.83,.02,1.38-.38,2.08,.44-.5,.15-1.15,.53-2.01l-.15-.08Z"/><path class="cls-3" d="M41.93,24.26l-.25-6.61s0-.12-.08-.12-.08,.12-.08,.12l-.25,6.61h.67Z"/><path class="cls-6" d="M41.91,24.26l-.25-6.61s0-.1-.06-.1c-.06,0-.06,.1-.06,.1l-.25,6.62,.21-6.62s.02-.14,.1-.14,.1,.09,.1,.14l.25,6.61h-.04Z"/><polygon class="cls-6" points="41.76 24.26 41.59 19.72 41.43 24.26 41.76 24.26"/><path class="cls-3" d="M42.22,22.12c.38-.83,.05-1.51,.43-2.24,.38-.73,.14-1.32,.17-1.66,.02-.33,.3-.43,.23-.5-.07-.08-.35,.08-.46,.52-.11,.44,.15,.7-.3,1.59-.46,.89-.09,1.29-.55,2.09l.49,.21Z"/><path class="cls-6" d="M42.24,22.13l-.04-.02c.19-.41,.2-.79,.21-1.15,.01-.37,.03-.72,.22-1.09,.28-.52,.22-.98,.19-1.32-.01-.13-.03-.24-.02-.33,.01-.2,.12-.32,.18-.39,.05-.06,.06-.08,.05-.09-.16,.01-.35,.17-.43,.51-.04,.15-.03,.28-.02,.41,.01,.28,.03,.59-.28,1.18-.23,.44-.25,.76-.27,1.07-.02,.32-.05,.62-.28,1.02,.19-.42,.21-.71,.24-1.02s.05-.64,.28-1.08c.3-.58,.29-.89,.27-1.16,0-.14-.01-.27,.03-.42,.09-.36,.29-.52,.4-.55h.01s.09,.02,.09,.02c.04,.04,0,.09-.05,.15-.06,.07-.16,.18-.17,.37,0,.09,0,.2,.02,.33,.04,.34,.09,.81-.19,1.34-.19,.36-.2,.71-.21,1.07-.01,.37-.03,.75-.22,1.16h0Z"/><path class="cls-6" d="M42.11,21.91c.3-.83-.02-1.38,.38-2.08-.44,.5-.15,1.15-.54,2.01l.15,.07Z"/><path class="cls-3" d="M41.59,23.93l-6.62,.25s-.12,0-.12,.08,.12,.08,.12,.08l6.62,.25v-.66Z"/><path class="cls-6" d="M41.6,24.57l-6.62-.21s-.14-.02-.14-.1,.1-.1,.15-.1l6.62-.25v.04s-6.61,.25-6.61,.25c0,0-.11,0-.11,.06,0,.06,.1,.06,.1,.06l6.62,.25h0Z"/><polygon class="cls-6" points="41.59 24.09 37.05 24.26 41.59 24.43 41.59 24.09"/><path class="cls-3" d="M39.46,23.63c-.83-.38-1.51-.05-2.24-.43-.73-.38-1.33-.14-1.66-.17-.33-.03-.42-.3-.5-.23-.08,.07,.08,.35,.52,.47,.44,.11,.7-.15,1.59,.3,.89,.46,1.29,.09,2.09,.55l.2-.49Z"/><path class="cls-6" d="M39.26,24.1c-.42-.19-.71-.21-1.02-.24-.31-.02-.64-.05-1.08-.28-.59-.3-.89-.29-1.16-.28-.14,0-.27,.01-.42-.03-.33-.08-.51-.27-.55-.4h0s.02-.1,.02-.1c.05-.04,.09,0,.15,.05,.07,.06,.18,.16,.37,.18,.09,0,.2,0,.32-.02,.34-.04,.81-.09,1.35,.19,.36,.19,.71,.2,1.07,.21,.37,.01,.74,.03,1.16,.22l-.02,.04c-.41-.19-.79-.2-1.15-.21-.37-.01-.72-.03-1.09-.22-.53-.27-.99-.22-1.32-.18-.13,.01-.24,.02-.33,.02-.2-.02-.32-.12-.39-.19-.06-.05-.08-.07-.09-.05,.02,.16,.18,.35,.51,.43,.15,.04,.27,.03,.41,.02,.28-.01,.59-.02,1.18,.28,.44,.23,.76,.25,1.07,.27,.32,.02,.62,.05,1.02,.28h0Z"/><path class="cls-6" d="M39.24,23.74c-.83-.3-1.38,.01-2.08-.38,.5,.44,1.15,.15,2.01,.53l.07-.15Z"/><path class="cls-3" d="M41.59,24.59l6.61-.25s.12,0,.12-.08-.12-.08-.12-.08l-6.61-.25v.66Z"/><path class="cls-6" d="M41.6,24.61v-.04s6.61-.25,6.61-.25c0,0,.1,0,.1-.06s-.1-.06-.1-.06l-6.61-.25,6.62,.21s.14,.02,.14,.1-.09,.1-.14,.1l-6.61,.25h0Z"/><polygon class="cls-6" points="41.59 24.43 46.13 24.26 41.59 24.09 41.59 24.43"/><path class="cls-3" d="M43.73,24.88c.83,.38,1.51,.05,2.24,.44,.72,.38,1.32,.14,1.66,.17,.33,.02,.42,.3,.5,.23,.08-.07-.08-.35-.52-.47-.44-.11-.7,.16-1.59-.3-.89-.46-1.29-.09-2.09-.55l-.2,.49Z"/><path class="cls-6" d="M48.1,25.75s-.07-.03-.11-.07c-.07-.06-.18-.16-.37-.17-.09,0-.2,0-.32,.02-.34,.04-.81,.09-1.34-.19-.36-.19-.71-.2-1.08-.22-.37-.01-.75-.03-1.16-.22l.02-.04c.41,.19,.79,.2,1.15,.22,.37,.01,.72,.03,1.09,.22,.52,.27,.98,.22,1.32,.19,.13-.01,.24-.03,.33-.02,.2,.02,.32,.12,.39,.18,.06,.05,.08,.06,.09,.05-.01-.16-.17-.35-.51-.43-.15-.04-.27-.03-.41-.03-.28,.02-.59,.03-1.18-.28-.44-.23-.76-.25-1.07-.27-.32-.02-.62-.05-1.02-.28,.42,.19,.71,.22,1.02,.24s.64,.05,1.08,.28c.58,.3,.89,.28,1.16,.27,.14,0,.27-.01,.42,.03,.35,.09,.52,.29,.55,.4h0s-.02,.1-.02,.1c-.01,.01-.03,.02-.04,.02h0Z"/><path class="cls-6" d="M43.94,24.78c.83,.3,1.38-.01,2.08,.38-.5-.44-1.16-.15-2.01-.53l-.07,.15Z"/><path class="cls-3" d="M41.36,24.03l-4.5,4.85s-.09,.09-.03,.15c.06,.06,.15-.03,.15-.03l4.85-4.5-.47-.47Z"/><path class="cls-6" d="M36.88,29.07c-.12-.08-.07-.17-.04-.2l4.5-4.85,.03,.03-4.5,4.85s-.07,.08-.03,.12c.04,.05,.12-.03,.12-.03l4.86-4.5-4.83,4.53s-.05,.05-.11,.06h0Z"/><polygon class="cls-6" points="41.47 24.14 38.38 27.47 41.71 24.38 41.47 24.14"/><path class="cls-3" d="M39.64,25.33c-.86,.32-1.11,1.03-1.89,1.28-.78,.25-1.04,.83-1.29,1.05-.25,.22-.51,.09-.52,.19,0,.1,.3,.2,.7-.04,.39-.23,.38-.6,1.34-.91,.95-.31,.98-.85,1.87-1.08l-.2-.49Z"/><path class="cls-6" d="M36.17,27.98c-.08,0-.15-.02-.19-.04l-.06-.09c0-.06,.07-.06,.14-.07,.1,0,.24-.02,.38-.14,.07-.06,.13-.14,.21-.24,.22-.27,.51-.64,1.09-.82,.39-.12,.64-.36,.91-.61,.27-.25,.54-.51,.98-.67v.04c-.41,.16-.68,.41-.95,.66-.27,.25-.53,.49-.93,.62-.57,.18-.86,.54-1.07,.81-.08,.1-.15,.18-.22,.24-.15,.13-.31,.14-.41,.15-.07,0-.1,0-.1,.03,.13,.1,.37,.12,.67-.06,.13-.08,.22-.17,.31-.27,.19-.2,.4-.43,1.03-.64,.47-.15,.71-.36,.95-.56,.24-.21,.47-.4,.92-.52-.43,.16-.66,.35-.89,.55-.24,.2-.48,.41-.96,.57-.62,.2-.83,.43-1.01,.63-.09,.1-.18,.2-.32,.28-.18,.11-.35,.15-.48,.15h0Z"/><path class="cls-6" d="M39.56,25.55c-.79,.38-.96,.99-1.74,1.2,.67-.05,.92-.71,1.8-1.04l-.06-.16Z"/><path class="cls-3" d="M41.83,24.5l4.5-4.85s.09-.09,.03-.15c-.06-.06-.15,.03-.15,.03l-4.85,4.5,.47,.47Z"/><path class="cls-6" d="M41.84,24.51l-.03-.03,4.5-4.85s.07-.07,.03-.12c-.05-.04-.12,.03-.12,.03l-4.86,4.5,4.83-4.53s.12-.09,.18-.03c.05,.06,0,.14-.03,.18l-4.5,4.85h0Z"/><polygon class="cls-6" points="41.71 24.38 44.8 21.05 41.47 24.14 41.71 24.38"/><path class="cls-3" d="M43.55,23.19c.86-.32,1.11-1.03,1.89-1.28,.78-.24,1.04-.84,1.29-1.05,.25-.22,.51-.09,.52-.19,0-.1-.3-.2-.7,.04-.39,.23-.38,.6-1.34,.91-.95,.31-.98,.85-1.87,1.09l.2,.49Z"/><path class="cls-6" d="M43.55,23.21v-.04c.41-.16,.68-.41,.95-.66,.27-.25,.53-.49,.93-.62,.56-.18,.85-.54,1.07-.8,.08-.1,.15-.19,.22-.25,.15-.13,.31-.14,.41-.15,.08,0,.1,0,.1-.03-.13-.1-.37-.12-.67,.06-.13,.08-.22,.17-.31,.27-.19,.2-.4,.43-1.03,.64-.47,.15-.71,.36-.95,.56-.24,.21-.47,.4-.92,.53,.43-.16,.65-.35,.89-.56,.24-.2,.48-.42,.96-.57,.62-.2,.83-.43,1.01-.63,.09-.1,.18-.2,.32-.28,.29-.17,.55-.18,.67-.11l.06,.09c0,.06-.07,.07-.14,.07-.1,0-.24,.02-.38,.14-.07,.06-.14,.14-.22,.24-.21,.27-.51,.64-1.09,.82-.39,.12-.64,.36-.91,.61-.27,.25-.55,.51-.98,.67h0Z"/><path class="cls-6" d="M43.62,22.97c.8-.38,.97-.99,1.74-1.2-.67,.04-.92,.71-1.8,1.04l.06,.16Z"/><path class="cls-3" d="M41.83,24.03l-4.85-4.5s-.09-.09-.15-.03c-.06,.06,.03,.15,.03,.15l4.5,4.85,.47-.47Z"/><path class="cls-6" d="M41.37,24.48l-4.53-4.83s-.09-.12-.03-.17c.06-.06,.14,0,.18,.03l4.85,4.5-.03,.03-4.85-4.5s-.08-.07-.12-.03c-.04,.04,.03,.12,.03,.12l4.5,4.86h0Z"/><polygon class="cls-6" points="41.71 24.14 38.38 21.05 41.47 24.38 41.71 24.14"/><path class="cls-3" d="M40.52,22.31c-.32-.86-1.03-1.11-1.28-1.89-.24-.78-.83-1.04-1.05-1.29-.22-.25-.09-.51-.19-.52-.1,0-.2,.31,.04,.7,.24,.39,.6,.38,.91,1.34,.31,.95,.85,.98,1.09,1.87l.49-.2Z"/><path class="cls-6" d="M40.05,22.5c-.16-.43-.35-.66-.56-.89-.2-.24-.41-.48-.57-.96-.2-.63-.43-.83-.63-1.01-.1-.09-.2-.18-.28-.32-.19-.31-.16-.57-.1-.67l.09-.06c.06,0,.07,.07,.07,.14,0,.1,.02,.24,.14,.38,.06,.07,.14,.14,.24,.22,.27,.21,.63,.51,.81,1.08,.12,.39,.36,.64,.61,.91,.25,.27,.51,.55,.67,.98h-.04c-.16-.41-.41-.69-.66-.95-.25-.27-.49-.53-.62-.93-.18-.56-.54-.85-.8-1.06-.1-.08-.19-.15-.25-.22-.13-.15-.14-.31-.15-.41,0-.07,0-.1-.03-.1-.11,.13-.12,.37,.05,.67,.08,.13,.17,.22,.27,.31,.2,.19,.43,.4,.64,1.03,.15,.47,.36,.71,.56,.95,.21,.24,.4,.47,.52,.92h0Z"/><path class="cls-6" d="M40.3,22.23c-.38-.8-.99-.97-1.2-1.74,.04,.67,.71,.92,1.04,1.8l.16-.06Z"/><path class="cls-3" d="M41.36,24.5l4.85,4.5s.09,.09,.15,.03c.06-.06-.03-.15-.03-.15l-4.5-4.85-.47,.47Z"/><path class="cls-6" d="M46.31,29.05c-.08,0-.11-.03-.11-.04l-4.85-4.5,.03-.03,4.85,4.5s.07,.08,.12,.03c.04-.04-.03-.12-.03-.12l-4.5-4.85,4.53,4.82s.09,.12,.03,.17c-.02,0-.04,0-.06,0h0Z"/><polygon class="cls-6" points="41.47 24.38 44.8 27.47 41.71 24.14 41.47 24.38"/><path class="cls-3" d="M42.66,26.21c.32,.86,1.03,1.1,1.28,1.89,.24,.78,.84,1.04,1.05,1.29,.22,.26,.09,.51,.19,.52,.1,0,.2-.3-.04-.69-.23-.39-.6-.39-.91-1.34-.31-.95-.85-.98-1.09-1.87l-.49,.2Z"/><path class="cls-6" d="M45.18,29.93c-.06,0-.07-.07-.07-.14,0-.1-.01-.24-.14-.39-.06-.07-.14-.13-.24-.21-.27-.21-.64-.51-.82-1.09-.12-.39-.36-.65-.61-.92-.25-.27-.51-.54-.67-.97h.04c.16,.41,.41,.68,.66,.95,.25,.27,.49,.53,.62,.93,.18,.57,.54,.86,.81,1.07,.1,.08,.19,.15,.24,.22,.13,.15,.14,.31,.15,.41,0,.08,0,.1,.03,.1,.11-.13,.12-.37-.05-.66-.08-.13-.17-.22-.27-.31-.2-.19-.43-.4-.64-1.03-.15-.47-.36-.71-.56-.95-.21-.24-.4-.47-.52-.92,.16,.43,.35,.66,.56,.89,.2,.24,.42,.48,.57,.96,.2,.62,.43,.83,.63,1.01,.1,.09,.2,.18,.28,.32,.17,.29,.18,.55,.11,.67l-.09,.06h0Z"/><path class="cls-6" d="M42.89,26.29c.38,.79,.99,.96,1.2,1.74-.04-.67-.71-.92-1.04-1.8l-.16,.05Z"/><path class="cls-3" d="M41.29,24.13l-2.3,6.21s-.05,.12,.03,.15c.08,.03,.12-.08,.12-.08l2.76-6.02-.61-.25Z"/><path class="cls-6" d="M39.07,30.51c-.14-.03-.13-.13-.11-.18l2.3-6.21h.04s-2.3,6.22-2.3,6.22c0,0-.04,.1,.02,.12l.1-.07,2.76-6.02-2.72,6.03s-.03,.07-.08,.1h0Z"/><polygon class="cls-6" points="41.44 24.2 39.86 28.46 41.74 24.32 41.44 24.2"/><path class="cls-3" d="M40.2,26c-.67,.62-.63,1.38-1.26,1.9-.63,.53-.64,1.17-.79,1.47-.15,.3-.44,.28-.4,.38,.04,.1,.36,.06,.63-.3,.27-.37,.13-.7,.89-1.35,.76-.65,.58-1.16,1.31-1.72l-.37-.37Z"/><path class="cls-6" d="M37.85,29.81s-.02,0-.03,0l-.09-.06c-.02-.06,.04-.09,.1-.12,.09-.04,.22-.11,.3-.27,.04-.08,.07-.19,.11-.31,.09-.33,.23-.78,.69-1.17,.31-.26,.46-.58,.61-.91,.15-.33,.31-.68,.65-.99l.03,.03c-.33,.31-.49,.65-.64,.98-.16,.34-.3,.66-.62,.92-.45,.38-.58,.82-.68,1.15-.04,.12-.07,.23-.11,.32-.09,.18-.23,.25-.32,.29-.07,.03-.09,.05-.08,.07,.16,.05,.39-.03,.59-.31,.09-.12,.14-.24,.18-.37,.1-.26,.2-.55,.71-.98,.38-.32,.52-.61,.66-.88,.14-.28,.28-.55,.65-.84-.33,.31-.47,.58-.61,.85s-.29,.57-.67,.9c-.5,.43-.6,.71-.7,.97-.05,.13-.09,.26-.19,.38-.19,.25-.4,.36-.54,.36h0Z"/><path class="cls-6" d="M40.21,26.23c-.59,.65-.51,1.28-1.15,1.78,.6-.29,.58-1.01,1.26-1.65l-.11-.13Z"/><path class="cls-3" d="M41.9,24.39l2.3-6.21s.05-.11-.03-.14c-.08-.03-.12,.08-.12,.08l-2.76,6.02,.61,.25Z"/><path class="cls-6" d="M41.92,24.39h-.04s2.3-6.22,2.3-6.22c0,0,.04-.09-.02-.12l-.1,.07-2.76,6.02,2.72-6.03s.03-.07,.08-.09l.12,.05c.02,.05,0,.12,0,.12l-2.3,6.21h0Z"/><polygon class="cls-6" points="41.74 24.32 43.33 20.06 41.44 24.2 41.74 24.32"/><path class="cls-3" d="M42.99,22.52c.67-.62,.63-1.38,1.26-1.9,.63-.52,.64-1.17,.79-1.47,.15-.3,.44-.28,.4-.38-.04-.1-.36-.07-.63,.3-.27,.37-.13,.7-.89,1.35-.76,.65-.58,1.16-1.31,1.72l.37,.38Z"/><path class="cls-6" d="M43,22.54l-.03-.03c.33-.31,.49-.65,.64-.98,.16-.34,.3-.66,.62-.92,.46-.38,.58-.82,.68-1.15,.04-.12,.07-.23,.11-.32,.09-.18,.23-.25,.32-.29,.06-.03,.09-.05,.08-.07-.16-.05-.39,.03-.59,.31-.09,.12-.14,.24-.18,.37-.09,.26-.2,.55-.71,.98-.38,.32-.52,.6-.66,.88-.14,.28-.28,.55-.65,.84,.34-.31,.47-.57,.61-.85s.29-.57,.67-.89c.5-.42,.6-.71,.7-.97,.05-.13,.09-.26,.19-.38,.2-.27,.43-.38,.57-.35l.09,.06c.02,.06-.04,.09-.1,.12-.09,.04-.22,.11-.3,.27-.04,.08-.07,.19-.11,.31-.09,.33-.23,.78-.69,1.17-.31,.26-.46,.58-.61,.91-.15,.33-.31,.68-.65,.99h0Z"/><path class="cls-6" d="M42.97,22.29c.59-.65,.51-1.28,1.15-1.78-.6,.3-.58,1.01-1.26,1.65l.11,.13Z"/><path class="cls-3" d="M41.72,23.95l-6.2-2.3s-.11-.05-.15,.03c-.03,.08,.08,.13,.08,.13l6.02,2.76,.25-.61Z"/><path class="cls-6" d="M41.48,24.55l-6.04-2.72s-.12-.08-.09-.15c.03-.07,.13-.06,.17-.04l6.2,2.3v.04s-6.22-2.3-6.22-2.3c0,0-.1-.04-.12,.02-.02,.06,.07,.1,.07,.1l6.02,2.76h0Z"/><polygon class="cls-6" points="41.65 24.11 37.4 22.52 41.53 24.41 41.65 24.11"/><path class="cls-3" d="M39.86,22.86c-.63-.67-1.38-.63-1.91-1.26-.52-.63-1.17-.64-1.47-.79-.3-.15-.28-.44-.38-.41-.1,.03-.06,.36,.3,.63,.36,.27,.7,.13,1.35,.89,.65,.76,1.16,.58,1.72,1.31l.38-.37Z"/><path class="cls-6" d="M39.5,23.22c-.31-.34-.58-.47-.86-.61-.28-.14-.57-.29-.89-.67-.42-.5-.71-.6-.97-.7-.13-.05-.25-.09-.38-.19-.28-.2-.38-.44-.36-.58l.06-.09c.06-.02,.09,.04,.12,.1,.04,.09,.11,.22,.27,.3,.08,.04,.18,.07,.3,.1,.33,.09,.79,.23,1.18,.69,.26,.31,.58,.45,.91,.61s.68,.31,1,.65l-.03,.03c-.31-.33-.65-.49-.98-.64-.34-.15-.66-.3-.92-.62-.38-.46-.83-.59-1.16-.68-.12-.03-.23-.06-.31-.1-.18-.09-.25-.23-.29-.32-.03-.06-.04-.09-.07-.08-.05,.16,.03,.39,.31,.59,.12,.09,.24,.13,.37,.18,.26,.09,.55,.2,.98,.71,.32,.38,.61,.52,.88,.66,.28,.14,.55,.28,.84,.65h0Z"/><path class="cls-6" d="M39.62,22.88c-.65-.59-1.28-.51-1.78-1.15,.29,.6,1.01,.58,1.65,1.26l.13-.11Z"/><path class="cls-3" d="M41.47,24.57l6.21,2.3s.11,.05,.15-.03c.03-.08-.08-.12-.08-.12l-6.02-2.76-.25,.61Z"/><path class="cls-6" d="M47.74,26.9s-.06,0-.08-.02l-6.21-2.3v-.04s6.22,2.3,6.22,2.3c0,0,.1,.04,.12-.02,.02-.06-.07-.1-.07-.1l-6.02-2.76,6.04,2.72s.12,.08,.09,.15c-.02,.04-.06,.06-.1,.06h0Z"/><polygon class="cls-6" points="41.53 24.41 45.79 26 41.65 24.11 41.53 24.41"/><path class="cls-3" d="M43.33,25.66c.62,.67,1.38,.63,1.91,1.26,.53,.63,1.17,.64,1.47,.79,.3,.15,.28,.44,.38,.4,.1-.03,.06-.36-.3-.63-.36-.27-.7-.12-1.35-.89-.65-.76-1.16-.58-1.72-1.31l-.38,.37Z"/><path class="cls-6" d="M47.06,28.13s-.07-.05-.1-.11c-.04-.09-.11-.22-.27-.3-.08-.04-.18-.07-.3-.1-.33-.1-.78-.23-1.17-.69-.26-.31-.58-.46-.91-.61-.33-.15-.68-.31-.99-.65l.03-.03c.31,.33,.65,.49,.98,.64,.34,.15,.66,.3,.93,.62,.38,.46,.83,.58,1.15,.68,.12,.04,.23,.07,.31,.11,.18,.09,.25,.23,.29,.32,.04,.07,.05,.09,.07,.08,.05-.15-.03-.39-.31-.59-.12-.09-.24-.13-.37-.18-.26-.09-.55-.2-.99-.71-.32-.38-.61-.52-.88-.66-.28-.14-.55-.28-.84-.65,.31,.34,.58,.47,.86,.61,.28,.14,.57,.29,.89,.67,.42,.5,.71,.6,.97,.7,.13,.05,.25,.09,.38,.19,.29,.22,.37,.47,.36,.58l-.06,.08s-.02,0-.02,0h0Z"/><path class="cls-6" d="M43.56,25.64c.65,.59,1.28,.51,1.78,1.15-.29-.6-1.01-.58-1.65-1.26l-.13,.11Z"/><path class="cls-3" d="M41.47,23.95l-6.02,2.76s-.11,.05-.08,.12c.03,.08,.15,.03,.15,.03l6.2-2.3-.25-.61Z"/><path class="cls-6" d="M35.44,26.9s-.08-.01-.1-.06c-.03-.07,.05-.13,.09-.15l6.02-2.76,.02,.04-6.02,2.76s-.1,.04-.07,.1c.02,.06,.12,.02,.12,.02l6.2-2.3-6.19,2.34s-.05,.02-.08,.02h0Z"/><polygon class="cls-6" points="41.53 24.11 37.4 26 41.65 24.41 41.53 24.11"/><path class="cls-3" d="M39.38,24.5c-.91-.03-1.42,.53-2.23,.45-.82-.07-1.28,.38-1.6,.48-.32,.1-.51-.11-.55-.02-.05,.09,.2,.3,.66,.23,.45-.07,.58-.41,1.58-.33,1,.08,1.23-.41,2.14-.29v-.53Z"/><path class="cls-6" d="M35.48,25.68c-.26,0-.43-.1-.49-.17l-.02-.1c.03-.05,.08-.04,.16-.01,.09,.03,.23,.08,.41,.02,.08-.03,.18-.08,.29-.14,.3-.16,.7-.39,1.32-.34,.41,.04,.73-.08,1.07-.21,.34-.13,.69-.26,1.16-.24v.04c-.45-.01-.8,.11-1.15,.24-.35,.13-.68,.25-1.09,.21-.58-.05-1,.17-1.29,.33-.11,.06-.21,.12-.3,.14-.19,.06-.34,.01-.43-.02-.08-.03-.1-.03-.11,0,.08,.15,.29,.25,.64,.2,.15-.02,.27-.08,.39-.13,.25-.12,.53-.25,1.2-.2,.49,.04,.8-.06,1.09-.16,.3-.1,.59-.19,1.05-.13-.48-.03-.74,.07-1.04,.17-.3,.1-.61,.2-1.11,.16-.65-.05-.93,.08-1.17,.19-.13,.06-.25,.11-.4,.14-.06,0-.12,.01-.18,.01h0Z"/><path class="cls-6" d="M39.22,24.68c-.88,.05-1.27,.54-2.07,.44,.64,.22,1.12-.3,2.06-.27v-.17Z"/><path class="cls-3" d="M41.72,24.57l6.02-2.76s.11-.05,.08-.13c-.03-.08-.15-.03-.15-.03l-6.21,2.3,.25,.61Z"/><path class="cls-6" d="M41.73,24.59l-.02-.04,6.02-2.76s.1-.04,.07-.1c-.02-.06-.12-.02-.12-.02l-6.21,2.3,6.19-2.34s.14-.04,.17,.04c.03,.08-.05,.13-.09,.15l-6.02,2.76h0Z"/><polygon class="cls-6" points="41.65 24.41 45.79 22.52 41.53 24.11 41.65 24.41"/><path class="cls-3" d="M43.81,24.02c.91,.03,1.42-.53,2.23-.45,.82,.07,1.28-.38,1.6-.48,.32-.1,.51,.11,.55,.02,.05-.09-.2-.3-.66-.23-.45,.07-.58,.41-1.58,.33-1-.08-1.23,.41-2.14,.29v.53Z"/><path class="cls-6" d="M43.89,24.04s-.05,0-.08,0v-.04c.45,.01,.8-.11,1.14-.24,.35-.13,.69-.25,1.09-.21,.59,.05,1-.17,1.29-.34,.11-.06,.21-.12,.29-.14,.19-.06,.34-.01,.43,.02,.07,.02,.09,.03,.1,.01-.08-.15-.29-.25-.64-.2-.15,.02-.27,.08-.39,.14-.25,.12-.53,.25-1.2,.2-.49-.04-.8,.06-1.09,.16-.3,.1-.59,.19-1.05,.13,.46,.02,.74-.07,1.04-.17,.3-.1,.6-.19,1.11-.16,.65,.05,.93-.08,1.18-.19,.13-.06,.25-.11,.4-.14,.34-.05,.58,.05,.66,.16l.02,.1c-.03,.05-.09,.04-.15,.01-.09-.03-.23-.08-.41-.02-.08,.03-.18,.08-.29,.14-.3,.17-.71,.39-1.32,.34-.4-.04-.73,.08-1.08,.21-.32,.12-.66,.24-1.08,.24h0Z"/><path class="cls-6" d="M43.96,23.84c.88-.04,1.27-.54,2.07-.44-.63-.21-1.12,.31-2.06,.28v.17Z"/><path class="cls-3" d="M41.9,24.13l-2.76-6.02s-.05-.11-.12-.08c-.08,.03-.03,.14-.03,.14l2.3,6.21,.61-.25Z"/><path class="cls-6" d="M41.31,24.38l-2.34-6.19s-.03-.07,0-.12l.12-.05c.05,.02,.08,.09,.08,.09l2.76,6.02-.04,.02-2.81-6.11-.04,.02-.02,.12,2.3,6.21h0Z"/><polygon class="cls-6" points="41.74 24.2 39.86 20.06 41.44 24.32 41.74 24.2"/><path class="cls-3" d="M41.35,22.05c.03-.91-.53-1.42-.46-2.24,.07-.82-.37-1.28-.48-1.6-.1-.32,.11-.51,.02-.55-.09-.04-.3,.21-.23,.66,.07,.45,.41,.59,.33,1.59-.08,1,.41,1.23,.29,2.14h.53Z"/><path class="cls-6" d="M41.38,22.05h-.04c.02-.45-.12-.81-.24-1.15-.13-.35-.25-.68-.22-1.09,.05-.59-.17-1-.33-1.29-.06-.11-.12-.21-.14-.3-.06-.19-.01-.34,.02-.43,.02-.07,.03-.1,0-.11-.15,.08-.25,.3-.2,.64,.02,.15,.08,.27,.13,.39,.12,.25,.25,.53,.19,1.2-.04,.49,.06,.8,.16,1.09,.1,.3,.19,.59,.13,1.05,.02-.46-.08-.74-.17-1.04-.1-.3-.2-.61-.16-1.11,.05-.65-.08-.93-.19-1.18-.06-.13-.11-.25-.14-.4-.05-.33,.05-.58,.16-.66l.1-.02c.06,.03,.04,.09,.01,.16-.03,.09-.08,.23-.02,.41,.03,.08,.08,.18,.14,.29,.17,.3,.39,.71,.34,1.31-.04,.41,.09,.73,.21,1.08,.13,.34,.26,.7,.25,1.16h0Z"/><path class="cls-6" d="M41.17,21.89c-.04-.88-.54-1.27-.44-2.07-.22,.63,.3,1.12,.27,2.06h.17Z"/><path class="cls-3" d="M41.29,24.39l2.76,6.02s.05,.12,.12,.08c.08-.03,.03-.15,.03-.15l-2.3-6.21-.61,.25Z"/><path class="cls-6" d="M44.18,30.51c-.12-.02-.15-.09-.15-.1l-2.76-6.02,.04-.02,2.76,6.02s.05,.1,.1,.07c.06-.02,.02-.12,.02-.12l-2.3-6.21,2.34,6.19s.03,.14-.04,.17h0Z"/><polygon class="cls-6" points="41.44 24.32 43.33 28.46 41.74 24.2 41.44 24.32"/><path class="cls-3" d="M41.83,26.47c-.03,.91,.53,1.42,.46,2.23-.07,.82,.37,1.28,.48,1.6,.1,.32-.11,.5-.02,.55,.09,.05,.3-.21,.23-.66-.07-.45-.41-.58-.33-1.58,.08-1-.41-1.23-.29-2.14h-.53Z"/><path class="cls-6" d="M42.74,30.88c-.06-.03-.04-.09-.01-.16,.03-.09,.08-.23,.02-.41-.03-.09-.08-.18-.14-.29-.16-.3-.39-.71-.34-1.32,.04-.4-.08-.73-.21-1.07-.13-.34-.26-.7-.25-1.16h.04c-.02,.45,.11,.81,.24,1.15,.13,.35,.25,.68,.22,1.09-.05,.59,.17,1,.33,1.29,.06,.11,.12,.21,.14,.3,.06,.19,.01,.34-.02,.43-.02,.07-.03,.1,0,.11,.15-.08,.25-.29,.2-.64-.02-.15-.08-.27-.13-.39-.12-.25-.25-.53-.2-1.2,.04-.49-.06-.8-.16-1.09-.1-.3-.19-.59-.13-1.05-.02,.46,.08,.74,.17,1.04,.1,.3,.2,.61,.16,1.11-.05,.65,.08,.93,.19,1.18,.06,.13,.11,.24,.14,.4,.05,.34-.05,.58-.16,.66l-.1,.02h0Z"/><path class="cls-6" d="M42.01,26.63c.04,.88,.54,1.27,.45,2.07,.21-.63-.3-1.12-.28-2.06h-.17Z"/><path class="cls-3" d="M41.59,21.57c1.49,0,2.69,1.21,2.69,2.69s-1.21,2.7-2.69,2.7-2.7-1.21-2.7-2.7,1.21-2.69,2.7-2.69h0Z"/><path class="cls-6" d="M41.59,26.98c-1.5,0-2.72-1.22-2.72-2.72s1.22-2.71,2.72-2.71,2.71,1.22,2.71,2.71-1.22,2.72-2.71,2.72h0Zm0-5.39c-1.48,0-2.68,1.2-2.68,2.67s1.2,2.68,2.68,2.68,2.67-1.2,2.67-2.68-1.2-2.67-2.67-2.67h0Z"/><path class="cls-6" d="M43.29,23.68c-.48-.41-1.08-.48-1.41-.16-.24,.32-.22,.7,.06,1.1-.02,0-.06,.02-.08,.04-.21-.4-.25-.81-.1-1.18,.46-.37,1.08-.41,1.54,.21h0Z"/><path class="cls-6" d="M42.55,23.55c-.27,0-.33,.06-.46,.17-.12,.1-.18,.08-.21,.1-.02,.02,0,.08,.04,.06,.04-.02,.12-.06,.25-.17,.12-.1,.25-.1,.37-.1,.37,0,.58,.31,.62,.29,.04-.02-.21-.35-.62-.35h0Z"/><path class="cls-6" d="M43.02,23.91c-.27-.29-.77-.31-.97,.02h.08c.21-.33,.71-.19,.75-.04v.04l.14-.02Z"/><path class="cls-6" d="M42.5,23.7c.1,0,.19,.08,.19,.19s-.08,.19-.19,.19-.18-.08-.18-.19,.08-.19,.18-.19h0Z"/><path class="cls-6" d="M42.05,23.93c.21,.19,.66,.21,.97-.02l-.14-.02c-.21,.23-.54,.21-.75,.04v-.04l-.08,.04Z"/><path class="cls-6" d="M43.04,24.01c-.35,.27-.71,.25-.91,.13-.21-.13-.21-.16-.17-.16,.04,0,.08,.04,.25,.12,.16,.08,.41,.08,.83-.08h0Z"/><path class="cls-6" d="M42.03,24.63c.06,.02,.1,.09,.07,.16-.02,.06-.09,.1-.16,.08-.05-.02-.08-.06-.08-.11-.02,.04-.1,.16-.27,.16h-.04l.04,.06s.16,0,.25-.06c.06,.08,.17,.1,.26,.05,.08-.06,.1-.18,.05-.26-.03-.04-.07-.07-.12-.08h0Z"/><path class="cls-6" d="M42.28,25.5c-.19-.12-.27-.31-.47-.31-.04,0-.13,.02-.21,.06h-.04l.04,.06c.08,0,.21-.1,.35-.02,.14,.08,.23,.17,.33,.21h0Z"/><path class="cls-6" d="M42.22,25.5c-.41-.12-.5-.04-.62-.04h-.04l.04,.08c.16,0,.25-.13,.62-.04h0Z"/><path class="cls-6" d="M42.28,25.5c-.45-.04-.31,.23-.68,.23h-.04l.04,.06c.45,0,.25-.25,.68-.29h0Z"/><path class="cls-6" d="M41.97,26.17c0-.21-.17-.37-.37-.37s-.37,.17-.37,.37c.05-.21,.25-.33,.46-.28,.14,.03,.25,.14,.28,.28h0Z"/><path class="cls-6" d="M39.89,23.68c.48-.41,1.08-.48,1.41-.16,.24,.32,.22,.7-.06,1.1,.02,0,.06,.02,.08,.04,.21-.4,.24-.81,.1-1.18-.46-.37-1.08-.41-1.53,.21h0Z"/><path class="cls-6" d="M40.64,23.55c.27,0,.33,.06,.46,.17,.12,.1,.18,.08,.21,.1,.02,.02,0,.08-.04,.06-.04-.02-.12-.06-.25-.17-.12-.1-.25-.1-.37-.1-.37,0-.58,.31-.62,.29-.04-.02,.21-.35,.62-.35h0Z"/><path class="cls-6" d="M40.16,23.91c.27-.29,.77-.31,.97,.02h-.08c-.21-.33-.7-.19-.75-.04v.04l-.14-.02Z"/><path class="cls-6" d="M40.68,23.7c-.1,0-.19,.08-.19,.19s.08,.19,.19,.19,.18-.08,.18-.19-.08-.19-.18-.19h0Z"/><path class="cls-6" d="M41.14,23.93c-.21,.19-.66,.21-.97-.02l.14-.02c.21,.23,.54,.21,.75,.04v-.04l.08,.04Z"/><path class="cls-6" d="M40.14,24.01c.36,.27,.71,.25,.91,.13,.21-.13,.21-.16,.17-.16-.04,0-.08,.04-.25,.12-.16,.08-.41,.08-.83-.08h0Z"/><path class="cls-6" d="M41.16,24.63c-.06,.02-.1,.09-.07,.16,.02,.06,.09,.1,.16,.08,.05-.02,.08-.06,.08-.11,.02,.04,.1,.16,.27,.16h.04l-.04,.06s-.17,0-.25-.06c-.06,.08-.17,.1-.26,.05-.08-.06-.1-.18-.05-.26,.03-.04,.07-.07,.12-.08h0Z"/><path class="cls-6" d="M40.91,25.5c.19-.12,.27-.31,.47-.31,.04,0,.13,.02,.21,.06h.04l-.04,.06c-.08,0-.21-.1-.35-.02-.14,.08-.23,.17-.33,.21h0Z"/><path class="cls-6" d="M40.97,25.5c.41-.12,.5-.04,.62-.04h.04l-.04,.08c-.17,0-.25-.13-.62-.04h0Z"/><path class="cls-6" d="M40.91,25.5c.46-.04,.31,.23,.69,.23h.04l-.04,.06c-.46,0-.25-.25-.69-.29h0Z"/><path class="cls-6" d="M41.22,26.17c0-.21,.17-.37,.37-.37s.37,.17,.37,.37c-.05-.21-.25-.33-.46-.28-.14,.03-.25,.14-.28,.28h0Z"/></g></g></g></svg>