<svg xmlns="http://www.w3.org/2000/svg" xmlns:xlink="http://www.w3.org/1999/xlink" viewBox="0 0 425.7 253.4" xmlns:v="https://vecta.io/nano"><style><![CDATA[.B{clip-path:url(#B)}]]></style><defs><path id="A" d="M6.2 5.8h414.2v241.7H6.2z"/></defs><clipPath id="B"><use xlink:href="#A"/></clipPath><path d="M6.2 5.8h414.2v241.7H6.2z" fill="#180087" class="B"/><g fill="#fff"><path d="M115.2 154.1l6 19.5 19.7-7.3-11.5 16.9L147 194l-20.3 2.1 2.7 20.2-14.2-14.8-14.2 14.8 2.7-20.2-20.3-2.1 17.6-10.8-10.9-16.9 19 7.3zm217.9 35.2l2.6 9.4 9.6-3.3-5.5 8 8.8 4.7-10.1.7 1.3 10.3-6.7-7.5-6.8 7.5 1.4-10.3-9.6-.7 8.2-4.7-5.4-8 8.7 3.3zm-54.9-85.9l3.4 9.4 8.8-4-5.4 8 8.8 5.4-10.2.7 1.4 9.6-6.8-6.8-6.1 6.8.7-9.6-9.4-.7 8.7-5.4-5.4-8 8.9 4zm54.9-59.6l2.6 9.4 9.6-3.3-5.5 8 8.8 5.4-10.1.7 1.3 9.6-6.7-6.8-6.8 6.8 1.4-9.6-9.6-.7 8.2-5.4-5.4-8 8.7 3.3zM381 88.4l3.5 9.6 8.7-3.5-5.4 8.2 8.9 4.7-10.2 1.4 1.3 9.4-6.8-6.8-6.6 6.8 1.2-9.4-9.4-1.4 8.2-4.7-5.5-8.2 9.5 3.5zm-26.3 44.1l2.7 5.4 6.1.5-4.8 4.2 1.4 6.1-5.4-3.5-5.4 3.5 2-6.1-5.4-4.2 6.7-.5zM96.9 5.8v36.6H6.2V79h90.7v35.9h36.5V79h90.7V42.4h-90.7V5.8z" class="B"/><path d="M6.2 5.8V18l193.6 96.9h24.3v-12.2L30.6 5.8z" class="B"/><path d="M199.8 5.8L6.2 102.7v12.2h24.4L224.1 18V5.8z" class="B"/></g><path d="M104.3 5.8v44.1H6.2v21.6h98.1v43.4H126V71.5h98.1V49.9H126V5.8zm-98.1 0V14l57 28.4h16.2L6.2 5.8zm201.6 0l-72.3 36.6h16.2l72.5-36.6h-16.4zM79.3 79L6.2 114.9h16.4l73-35.9H79.3zm72.4 0l72.5 35.9v-8.2L167.9 79h-16.2z" class="B" fill="#ea0020"/></svg>