<?xml version="1.0" encoding="UTF-8"?><svg id="Ebene_2" xmlns="http://www.w3.org/2000/svg" xmlns:xlink="http://www.w3.org/1999/xlink" viewBox="0 0 83.18 48.52"><defs><style>.cls-1{fill:none;}.cls-2{clip-path:url(#clippath);}.cls-3{fill:#fff;}.cls-4{fill:#d6003f;}.cls-5{fill:#438fc3;}.cls-6{fill:#48ae68;}.cls-7{clip-path:url(#clippath-1);}</style><clipPath id="clippath"><rect class="cls-1" width="83.18" height="48.52"/></clipPath><clipPath id="clippath-1"><rect class="cls-1" width="83.18" height="48.52"/></clipPath></defs><g id="Layer_1"><g class="cls-2"><rect class="cls-5" width="83.18" height="48.52"/><rect class="cls-4" y="16.17" width="83.18" height="16.18"/><rect class="cls-6" y="32.35" width="83.18" height="16.17"/><g class="cls-7"><path class="cls-3" d="M43.23,29.92c-3.13,0-5.66-2.54-5.66-5.67s2.53-5.66,5.66-5.66c1.13,0,2.19,.33,3.07,.91-1.23-1.26-2.95-2.04-4.85-2.04-3.75,0-6.79,3.04-6.79,6.79s3.04,6.8,6.79,6.8c1.9,0,3.62-.78,4.85-2.04-.89,.57-1.94,.91-3.07,.91"/><polygon class="cls-3" points="50.9 26.84 49.04 25.99 48.33 27.9 47.61 25.99 45.75 26.83 46.6 24.97 44.69 24.26 46.6 23.54 45.76 21.69 47.61 22.53 48.33 20.62 49.05 22.53 50.9 21.69 50.06 23.54 51.97 24.26 50.06 24.98 50.9 26.84"/></g></g></g></svg>