<?xml version="1.0" encoding="UTF-8"?><svg id="Ebene_2" xmlns="http://www.w3.org/2000/svg" xmlns:xlink="http://www.w3.org/1999/xlink" viewBox="0 0 13.12 13.12"><defs><style>.cls-1{fill:none;}.cls-2{clip-path:url(#clippath);}.cls-3{fill:#f5cc28;}.cls-4{fill:#fff;}.cls-5{fill:#c6cde0;}.cls-6{fill:#250392;}.cls-7{clip-path:url(#clippath-1);}.cls-8{clip-path:url(#clippath-4);}.cls-9{clip-path:url(#clippath-3);}.cls-10{clip-path:url(#clippath-2);}.cls-11{clip-path:url(#clippath-7);}.cls-12{clip-path:url(#clippath-8);}.cls-13{clip-path:url(#clippath-6);}.cls-14{clip-path:url(#clippath-5);}.cls-15{clip-path:url(#clippath-9);}.cls-16{clip-path:url(#clippath-10);}</style><clipPath id="clippath"><circle class="cls-1" cx="6.56" cy="6.56" r="5.89"/></clipPath><clipPath id="clippath-1"><rect class="cls-1" x="-3.54" y=".67" width="20.21" height="11.79"/></clipPath><clipPath id="clippath-2"><rect class="cls-1" x="-3.54" y=".67" width="20.21" height="11.79"/></clipPath><clipPath id="clippath-3"><rect class="cls-1" x="-3.54" y=".67" width="20.21" height="11.79"/></clipPath><clipPath id="clippath-4"><rect class="cls-1" x="-3.54" y=".67" width="20.21" height="11.79"/></clipPath><clipPath id="clippath-5"><rect class="cls-1" x="-3.54" y=".67" width="20.21" height="11.79"/></clipPath><clipPath id="clippath-6"><rect class="cls-1" x="-3.54" y=".67" width="20.21" height="11.79"/></clipPath><clipPath id="clippath-7"><rect class="cls-1" x="-3.54" y=".67" width="20.21" height="11.79"/></clipPath><clipPath id="clippath-8"><rect class="cls-1" x="-3.54" y=".67" width="20.21" height="11.79"/></clipPath><clipPath id="clippath-9"><rect class="cls-1" x="-3.54" y=".67" width="20.21" height="11.79"/></clipPath><clipPath id="clippath-10"><rect class="cls-1" x="-3.54" y=".67" width="20.21" height="11.79"/></clipPath></defs><g id="Camada_1"><g><g><circle class="cls-4" cx="6.56" cy="6.56" r="6.56"/><circle class="cls-5" cx="6.56" cy="6.56" r="6.08"/></g><g class="cls-2"><g id="Bosnia_and_Herzegovina"><g><g class="cls-7"><rect class="cls-6" x="-3.54" y=".67" width="20.21" height="11.79"/></g><g class="cls-10"><polygon class="cls-3" points="1.02 .67 12.81 12.46 12.81 .67 1.02 .67"/></g><g class="cls-9"><polygon class="cls-4" points="10.44 11.98 9.62 11.98 10.28 12.46 10.69 12.46 11.1 12.46 11.75 11.98 10.94 11.98 10.69 11.2 10.44 11.98"/></g><g class="cls-8"><polygon class="cls-4" points=".37 2.44 1.03 2.92 .78 2.14 1.44 1.66 .62 1.66 .37 .89 .12 1.66 -.69 1.66 -.03 2.14 -.29 2.92 .37 2.44"/></g><g class="cls-14"><polygon class="cls-4" points="1.85 3.91 2.5 4.39 2.25 3.62 2.91 3.14 2.1 3.14 1.85 2.36 1.59 3.14 .78 3.14 1.44 3.61 1.19 4.39 1.85 3.91"/></g><g class="cls-13"><polygon class="cls-4" points="3.32 5.38 3.98 5.86 3.73 5.09 4.38 4.61 3.57 4.61 3.32 3.84 3.07 4.61 2.25 4.61 2.91 5.09 2.66 5.86 3.32 5.38"/></g><g class="cls-11"><polygon class="cls-4" points="4.79 6.86 5.45 7.34 5.2 6.56 5.86 6.08 5.04 6.08 4.79 5.31 4.54 6.08 3.73 6.08 4.39 6.56 4.13 7.34 4.79 6.86"/></g><g class="cls-12"><polygon class="cls-4" points="6.27 8.33 6.92 8.81 6.67 8.04 7.33 7.56 6.52 7.56 6.27 6.78 6.01 7.56 5.2 7.56 5.86 8.04 5.61 8.81 6.27 8.33"/></g><g class="cls-15"><polygon class="cls-4" points="7.74 9.8 8.4 10.28 8.15 9.51 8.8 9.03 7.99 9.03 7.74 8.26 7.49 9.03 6.67 9.03 7.33 9.51 7.08 10.28 7.74 9.8"/></g><g class="cls-16"><polygon class="cls-4" points="9.21 11.28 9.87 11.76 9.62 10.98 10.28 10.5 9.46 10.5 9.21 9.73 8.96 10.5 8.15 10.5 8.81 10.98 8.55 11.76 9.21 11.28"/></g></g></g></g></g></g></svg>