<?xml version="1.0" encoding="UTF-8"?><svg id="Ebene_2" xmlns="http://www.w3.org/2000/svg" xmlns:xlink="http://www.w3.org/1999/xlink" viewBox="0 0 83.18 48.52"><defs><style>.cls-1{fill:none;}.cls-2{clip-path:url(#clippath);}.cls-3{fill:#fff;}.cls-4{fill:#bc0030;}.cls-5{fill:#50b63f;}.cls-6{clip-path:url(#clippath-1);}</style><clipPath id="clippath"><rect class="cls-1" width="83.18" height="48.52"/></clipPath><clipPath id="clippath-1"><rect class="cls-1" width="83.18" height="48.52"/></clipPath></defs><g id="Layer_1"><g class="cls-2"><polygon class="cls-4" points="76.72 0 6.47 0 41.59 20.49 76.72 0"/><polygon class="cls-4" points="6.47 48.52 76.72 48.52 41.59 28.03 6.47 48.52"/><polygon class="cls-5" points="83.18 44.75 83.18 3.77 48.06 24.26 83.18 44.75"/><polygon class="cls-5" points="0 44.75 35.12 24.26 0 3.77 0 44.75"/><g class="cls-6"><path class="cls-3" d="M83.18,0h-6.47l-25.05,14.61c-2.57-2.53-6.13-4.1-10.07-4.1s-7.51,1.57-10.07,4.1L6.47,0H0V3.77L28.09,20.16c-.42,1.3-.64,2.67-.64,4.1s.22,2.81,.64,4.1L0,44.75v3.77H6.47l25.05-14.61c2.57,2.53,6.13,4.1,10.07,4.1s7.51-1.57,10.07-4.1l25.05,14.61h6.47v-3.77l-28.09-16.39c.42-1.3,.64-2.67,.64-4.1s-.22-2.81-.64-4.1L83.18,3.77V0Z"/><polygon class="cls-5" points="42.53 15.53 41.59 13.91 40.66 15.53 38.79 15.53 39.72 17.15 38.79 18.76 40.66 18.76 41.59 20.38 42.53 18.76 44.39 18.76 43.46 17.15 44.39 15.53 42.53 15.53"/><polygon class="cls-5" points="49.62 27.82 50.56 26.2 48.69 26.2 47.75 24.58 46.82 26.2 44.95 26.2 45.89 27.82 44.95 29.44 46.82 29.44 47.75 31.05 48.69 29.44 50.56 29.44 49.62 27.82"/><polygon class="cls-5" points="36.36 26.2 35.43 24.58 34.49 26.2 32.63 26.2 33.56 27.82 32.63 29.44 34.49 29.44 35.43 31.05 36.36 29.44 38.23 29.44 37.3 27.82 38.23 26.2 36.36 26.2"/><polygon class="cls-4" points="42.36 15.82 41.59 14.49 40.83 15.82 39.29 15.82 40.06 17.15 39.29 18.47 40.83 18.47 41.59 19.8 42.36 18.47 43.89 18.47 43.12 17.15 43.89 15.82 42.36 15.82"/><polygon class="cls-4" points="49.29 27.82 50.05 26.49 48.52 26.49 47.75 25.17 46.99 26.49 45.46 26.49 46.22 27.82 45.46 29.15 46.99 29.15 47.75 30.47 48.52 29.15 50.05 29.15 49.29 27.82"/><polygon class="cls-4" points="36.19 26.49 35.43 25.17 34.66 26.49 33.13 26.49 33.9 27.82 33.13 29.15 34.66 29.15 35.43 30.47 36.19 29.15 37.73 29.15 36.96 27.82 37.73 26.49 36.19 26.49"/></g></g></g></svg>