<?xml version="1.0" encoding="UTF-8"?><svg id="Ebene_2" xmlns="http://www.w3.org/2000/svg" xmlns:xlink="http://www.w3.org/1999/xlink" viewBox="0 0 83.18 48.52"><defs><style>.cls-1{fill:none;}.cls-2{clip-path:url(#clippath);}.cls-3{fill:#fff;}.cls-4{fill:#ba0019;}.cls-5{fill:#1a0095;}.cls-6{clip-path:url(#clippath-1);}</style><clipPath id="clippath"><rect class="cls-1" width="83.18" height="48.52"/></clipPath><clipPath id="clippath-1"><rect class="cls-1" width="83.18" height="48.52"/></clipPath></defs><g id="Layer_1"><g class="cls-2"><rect class="cls-5" width="83.18" height="48.52"/><rect class="cls-4" y="12.13" width="83.18" height="24.26"/><rect class="cls-3" x="26.17" y="24.22" width="30.85" height="4.99"/><path class="cls-4" d="M57.08,29.27H26.17l-.06-5.05,30.91-.06,.06,5.11h0Zm-.12-5.05l-30.79,.06,.06,4.93,30.72-.06v-4.93h0Z"/><polygon class="cls-3" points="26.15 29.2 25.65 30.38 57.54 30.38 57.04 29.2 26.15 29.2"/><path class="cls-4" d="M57.63,30.44H25.56l.53-1.26,30.95-.04,.59,1.3h0Zm-31.89-.12h31.71l-.46-1.09-30.83,.04-.41,1.05h0Z"/><polygon class="cls-3" points="50.51 29.2 49.91 30.38 57.16 30.38 56.56 29.2 50.51 29.2"/><path class="cls-4" d="M57.26,30.44h-7.45l.65-1.26,6.1-.03,.71,1.3h0Zm-7.26-.12h7.05l-.56-1.08-5.99,.03-.51,1.05h0Z"/><polygon class="cls-3" points="52.26 29.2 51.96 30.38 55.61 30.38 55.31 29.2 52.26 29.2"/><path class="cls-4" d="M55.69,30.44h-3.73l.25-1.25,3.1-.05,.38,1.3h0Zm-.44-1.22l-2.98,.05-.25,1.13,3.52-.08-.29-1.1h0Z"/><polygon class="cls-3" points="52.8 29.2 52.61 30.38 54.97 30.38 54.77 29.2 52.8 29.2"/><path class="cls-4" d="M55.04,30.44h-2.43l.14-1.25,2.03-.05,.27,1.3h0Zm-.33-1.23l-1.91,.05-.14,1.12,2.23-.07-.19-1.11h0Z"/><polygon class="cls-3" points="38.41 29.2 37.78 30.38 45.4 30.38 44.77 29.2 38.41 29.2"/><path class="cls-4" d="M45.51,30.44h-7.83l.68-1.26,6.41-.03,.74,1.3h0Zm-7.63-.12h7.42l-.59-1.08-6.3,.03-.54,1.05h0Z"/><rect class="cls-3" x="26" y="24.14" width="31.19" height="1.17"/><path class="cls-4" d="M57.25,25.38H26l-.06-1.24,31.25-.06,.06,1.3h0Zm-.12-1.24l-31.13,.06,.06,1.11,31.07-.06v-1.11h0Z"/><rect class="cls-3" x="50.47" y="24.23" width="6.11" height="4.97"/><path class="cls-4" d="M56.64,29.26h-6.18l-.06-5.03,6.18-.06,.06,5.09h0Zm-.12-5.03l-6.05,.06,.06,4.91,5.99-.06v-4.91h0Z"/><rect class="cls-3" x="54.84" y="26.56" width=".61" height="2.64"/><path class="cls-4" d="M55.51,29.26h-.67l-.06-2.7,.67-.06,.06,2.76h0Zm-.12-2.7l-.55,.06,.06,2.58,.49-.05v-2.59h0Z"/><rect class="cls-3" x="52.15" y="26.56" width=".61" height="2.64"/><path class="cls-4" d="M52.82,29.26h-.67l-.06-2.7,.67-.06,.06,2.76h0Zm-.12-2.7l-.55,.06,.06,2.58,.49-.05v-2.59h0Z"/><polygon class="cls-3" points="39.97 29.2 39.66 30.38 43.49 30.38 43.17 29.2 39.97 29.2"/><path class="cls-4" d="M43.57,30.44h-3.91l.26-1.25,3.25-.05,.4,1.3h0Zm-.46-1.22l-3.13,.05-.26,1.13,3.69-.08-.3-1.1h0Z"/><polygon class="cls-3" points="40.59 29.2 40.39 30.38 42.79 30.38 42.59 29.2 40.59 29.2"/><path class="cls-4" d="M42.87,30.44h-2.47l.14-1.25,2.06-.05,.27,1.3h0Zm-.33-1.22l-1.94,.05-.14,1.12,2.27-.07-.19-1.1h0Z"/><rect class="cls-3" x="38.34" y="24.22" width="6.44" height="4.99"/><path class="cls-4" d="M44.84,29.27h-6.5l-.06-5.05,6.5-.06,.06,5.11h0Zm-.12-5.05l-6.38,.06,.06,4.93,6.32-.06v-4.93h0Z"/><rect class="cls-3" x="43.47" y="26.55" width=".61" height="2.64"/><path class="cls-4" d="M44.14,29.26h-.67l-.06-2.7,.67-.06,.06,2.76h0Zm-.12-2.7l-.55,.06,.06,2.58,.49-.05v-2.58h0Z"/><rect class="cls-3" x="39.22" y="26.55" width=".61" height="2.64"/><path class="cls-4" d="M39.89,29.26h-.67l-.06-2.7,.67-.06,.06,2.76h0Zm-.12-2.7l-.55,.06,.06,2.58,.49-.05v-2.58h0Z"/><rect class="cls-3" x="40.03" y="23.01" width="3.12" height="6.19"/><path class="cls-4" d="M43.21,29.26h-3.18l-.06-6.25,3.18-.06,.06,6.32h0Zm-.12-6.25l-3.06,.06,.06,6.13,3-.06v-6.13h0Z"/><rect class="cls-3" x="42.37" y="26.55" width=".61" height="2.64"/><path class="cls-4" d="M43.04,29.26h-.67l-.06-2.7,.67-.06,.06,2.76h0Zm-.12-2.7l-.55,.06,.06,2.58,.49-.05v-2.58h0Z"/><rect class="cls-3" x="40.32" y="26.55" width=".61" height="2.64"/><path class="cls-4" d="M40.99,29.26h-.67l-.06-2.7,.67-.06,.06,2.76h0Zm-.12-2.7l-.55,.06,.06,2.58,.49-.05v-2.58h0Z"/><polygon class="cls-3" points="40.24 24 41.55 25.91 42.95 24 40.24 24"/><path class="cls-4" d="M41.55,26.01l-1.43-2.07h2.95l-1.52,2.07h0Zm-1.2-1.95l1.2,1.74,1.27-1.74h-2.48Z"/><rect class="cls-3" x="52.89" y="24.22" width="1.73" height="6.16"/><path class="cls-4" d="M54.69,30.44h-1.79l-.06-6.22,1.79-.06,.06,6.28h0Zm-.12-6.22l-1.67,.06,.06,6.1,1.61-.06v-6.1h0Z"/><rect class="cls-3" x="53.18" y="24.22" width="1.15" height="6.16"/><path class="cls-4" d="M54.4,30.44h-1.22l-.06-6.22,1.22-.06,.06,6.28h0Zm-.12-6.22l-1.09,.06,.06,6.1,1.03-.06v-6.1h0Z"/><polygon class="cls-3" points="26.56 29.2 25.96 30.38 33.21 30.38 32.61 29.2 26.56 29.2"/><path class="cls-4" d="M33.31,30.44h-7.45l.65-1.26,6.1-.03,.7,1.3h0Zm-7.26-.12h7.06l-.56-1.08-5.99,.03-.51,1.05h0Z"/><polygon class="cls-3" points="28.01 29.2 27.73 30.38 31.14 30.38 30.85 29.2 28.01 29.2"/><path class="cls-4" d="M31.22,30.44h-3.49l.22-1.25,2.9-.05,.36,1.3h0Zm-.42-1.22l-2.78,.05-.22,1.13,3.27-.07-.27-1.1h0Z"/><polygon class="cls-3" points="28.52 29.2 28.34 30.38 30.51 30.38 30.33 29.2 28.52 29.2"/><path class="cls-4" d="M30.58,30.44h-2.25l.12-1.25,1.87-.05,.25,1.3h0Zm-.31-1.23l-1.75,.05-.12,1.12,2.04-.07-.17-1.11h0Z"/><rect class="cls-3" x="26.51" y="24.22" width="6.07" height="4.99"/><path class="cls-4" d="M32.64,29.27h-6.13l-.06-5.05,6.13-.06,.06,5.11h0Zm-.12-5.05l-6,.06,.06,4.93,5.94-.06v-4.93h0Z"/><rect class="cls-3" x="27.7" y="26.56" width=".61" height="2.64"/><path class="cls-4" d="M28.37,29.26h-.67l-.06-2.7,.67-.06,.06,2.76h0Zm-.12-2.7l-.55,.06,.06,2.58,.49-.05v-2.59h0Z"/><rect class="cls-3" x="30.51" y="26.56" width=".61" height="2.64"/><path class="cls-4" d="M31.18,29.26h-.67l-.06-2.7,.67-.06,.06,2.76h0Zm-.12-2.7l-.55,.06,.06,2.58,.49-.05v-2.59h0Z"/><rect class="cls-3" x="28.59" y="24.22" width="1.73" height="6.16"/><path class="cls-4" d="M30.39,30.44h-1.79l-.06-6.22,1.79-.06,.06,6.28h0Zm-.12-6.22l-1.67,.06,.06,6.1,1.61-.06v-6.1h0Z"/><rect class="cls-3" x="28.88" y="24.22" width="1.15" height="6.16"/><path class="cls-4" d="M30.1,30.44h-1.22l-.06-6.22,1.22-.06,.06,6.28h0Zm-.12-6.22l-1.09,.06,.06,6.1,1.03-.06v-6.1h0Z"/><rect class="cls-3" x="25.65" y="23.04" width="31.89" height="1.17"/><path class="cls-4" d="M57.6,24.28H25.65l-.06-1.23,31.95-.06,.06,1.3h0Zm-.12-1.23l-31.83,.06,.06,1.11,31.76-.06v-1.11h0Z"/><rect class="cls-3" x="24.76" y="30.08" width="33.53" height="1.51"/><path class="cls-4" d="M58.35,31.66H24.76l-.06-1.57,33.59-.06,.06,1.63h0Zm-.12-1.57l-33.47,.06,.06,1.45,33.41-.06v-1.45h0Z"/><rect class="cls-3" x="24.25" y="30.41" width="34.55" height="1.51"/><path class="cls-4" d="M58.87,31.98H24.25l-.06-1.57,34.62-.06,.06,1.63h0Zm-.12-1.57l-34.49,.06,.06,1.45,34.43-.06v-1.45h0Z"/><rect class="cls-3" x="23.36" y="31.27" width="36.47" height="1.51"/><path class="cls-4" d="M59.89,32.84H23.36l-.06-1.57,36.53-.06,.06,1.63h0Zm-.12-1.57l-36.41,.06,.06,1.45,36.35-.06v-1.45h0Z"/><rect class="cls-3" x="22.08" y="32.35" width="39.03" height="1.51"/><path class="cls-4" d="M61.17,33.92H22.08l-.06-1.57,39.09-.06,.06,1.63h0Zm-.12-1.57l-38.97,.06,.06,1.45,38.91-.06v-1.45h0Z"/><rect class="cls-3" x="20.8" y="33.87" width="41.57" height="1.49"/><path class="cls-4" d="M62.44,35.42H20.8l-.06-1.55,41.64-.06,.06,1.62h0Zm-.12-1.55l-41.51,.06,.06,1.43,41.45-.06v-1.43h0Z"/><rect class="cls-3" x="28.59" y="30.08" width="1.73" height="5.28"/><path class="cls-4" d="M30.39,35.43h-1.79l-.06-5.34,1.79-.06,.06,5.4h0Zm-.12-5.34l-1.67,.06,.06,5.22,1.61-.06v-5.22h0Z"/><rect class="cls-3" x="28.88" y="30.08" width="1.16" height="5.28"/><path class="cls-4" d="M30.1,35.43h-1.22l-.06-5.34,1.22-.06,.06,5.4h0Zm-.12-5.34l-1.09,.06,.06,5.22,1.03-.06v-5.22h0Z"/><rect class="cls-3" x="52.86" y="30.08" width="1.73" height="5.28"/><path class="cls-4" d="M54.65,35.43h-1.79l-.06-5.34,1.79-.06,.06,5.4h0Zm-.12-5.34l-1.67,.06,.06,5.22,1.61-.06v-5.22h0Z"/><rect class="cls-3" x="53.14" y="30.08" width="1.16" height="5.28"/><path class="cls-4" d="M54.36,35.43h-1.22l-.06-5.34,1.22-.06,.06,5.4h0Zm-.12-5.34l-1.09,.06,.06,5.22,1.03-.06v-5.22h0Z"/><rect class="cls-3" x="40.95" y="24.22" width="1.39" height="11.15"/><path class="cls-4" d="M42.41,35.43h-1.45l-.06-11.21,1.45-.06,.06,11.27h0Zm-.12-11.21l-1.33,.06,.06,11.09,1.27-.06v-11.09h0Z"/><g class="cls-6"><path class="cls-3" d="M50.86,24.27l.02-3.06s.31,.6,2.72,.73c2.28-.08,2.66-.44,2.77-.77l-.09,3.11h-5.41Z"/><path class="cls-4" d="M56.34,24.34h-5.47s-.04-3.13-.04-3.13v-.23s.12,.2,.12,.2c0,0,.35,.57,2.67,.7,2.22-.07,2.61-.43,2.71-.73l.12,.02-.1,3.17h0Zm-5.4-2.98l-.02,2.9,5.29-.05,.09-2.8c-.25,.28-.89,.52-2.7,.58-1.78-.1-2.44-.45-2.67-.64h0Z"/><path class="cls-3" d="M52.42,20.69l-.75-.6c.25-.16,.71,.11,.71,.11,0,0,.25-.69,1.32-.98,1.07,.29,1.32,.98,1.32,.98,0,0,.46-.27,.71-.11l-.75,.6h-2.56Z"/><path class="cls-4" d="M55.01,20.75h-2.58l-.79-.61c.07-.14,.14-.16,.23-.16,.23,0,.49,.13,.54,.16-.04-.06,.25-.7,1.28-.98,1.01,.26,1.32,.86,1.38,.99,.03-.08,.49-.25,.7-.12l-.76,.71h0Zm-3.14-.65c-.06,0-.12,.01-.16,.04l.75,.5h2.5s.66-.54,.66-.54c-.03,0-.05,0-.08,0-.22,0-.49,.15-.49,.15-.09-.04-.34-.7-1.36-.97-.99,.28-1.24,.93-1.24,.94-.1,.03-.36-.12-.58-.12h0Z"/><path class="cls-3" d="M52.04,22.24l-.97-.84c.32-.22,.92,.16,.92,.16,0,0,.32-.96,1.71-1.37,1.39,.4,1.71,1.37,1.71,1.37,0,0,.6-.37,.93-.16l-.97,.84h-3.33Z"/><path class="cls-4" d="M55.39,22.3h-3.35l-1.01-.86c.08-.15,.18-.17,.29-.17,.31,0,.65,.2,.7,.23-.05-.07,.31-.98,1.67-1.37,1.33,.38,1.72,1.23,1.78,1.38,.03-.1,.63-.35,.91-.16l-.98,.95h0Zm-4.07-.91c-.09,0-.16,.02-.22,.06l.98,.74,3.27-.02,.93-.8c-.05,.03-.11,.02-.19,.02-.29,0-.64,.21-.64,.21-.09-.04-.42-.97-1.76-1.36-1.3,.39-1.63,1.32-1.64,1.33-.1,.03-.44-.18-.73-.18h0Z"/><path class="cls-3" d="M53.72,16s1.16,2.02,0,2.05c-1.16,.03,0-1.99,0-2.05h0Z"/><path class="cls-4" d="M53.69,18.12c-.22,0-.38-.07-.47-.22-.28-.44,.2-1.43,.38-1.8,.03-.06,.05-.1,.05-.11,.02,0,.04,0,.06,.01h.06s0,.02-.01,.04c.21,.22,.53,.99,.54,1.43,0,.41-.2,.62-.58,.64h-.03Zm.04-1.99s0,.02-.01,.03c-.15,.32-.63,1.3-.39,1.68,.07,.11,.19,.16,.36,.16v.06l.02-.06c.21,0,.35-.08,.41-.23,.19-.43-.24-1.35-.4-1.64h0Z"/><path class="cls-3" d="M52.74,18.57l-.57-.32c.19-.08,.55,.06,.55,.06,0,0,.19-.36,1.01-.51,.82,.15,1.01,.51,1.01,.51,0,0,.36-.14,.55-.06l-.58,.32h-1.97Z"/><path class="cls-4" d="M54.72,18.63h-1.99l-.71-.38,.12-.05c.17-.07,.52,.03,.58,.05-.02-.04,.22-.37,.99-.51,.76,.14,1.01,.45,1.06,.53,.02-.05,.37-.13,.53-.07l.12,.05-.7,.38h0Zm-2.37-.34l.41,.22h1.92s.4-.22,.4-.22c-.16,.01-.33,.08-.33,.08-.08-.03-.27-.37-1.04-.51-.75,.14-.95,.48-.95,.48-.07,.03-.25-.04-.41-.05h0Z"/><path class="cls-3" d="M53.22,18.83v-.26s.08-.36,.51-.51c.42,.15,.52,.51,.52,.51v.26h-1.03Z"/><path class="cls-4" d="M54.29,18.89h-1.07l-.08-.32s.11-.41,.56-.57c.49,.16,.59,.54,.6,.56v.33h-.01Zm-.58-.77c-.34,.14-.44,.46-.44,.47l.02,.24,.89-.05v-.2h.01s-.1-.32-.48-.45h0Z"/><path class="cls-3" d="M52.71,19.59l-.03-.34s.2-.48,1.04-.68c.84,.2,1.04,.68,1.04,.68l-.03,.34h-2.02Z"/><path class="cls-4" d="M54.79,19.66h-2.08l-.09-.4s.22-.54,1.09-.75c.89,.21,1.1,.7,1.11,.72l-.03,.43h0Zm-1.08-1.03c-.77,.19-.97,.64-.97,.65l.03,.31,1.91-.05,.02-.29h0s-.22-.43-.99-.62h0Z"/><path class="cls-3" d="M52.71,20.11l-.03-.34s.2-.48,1.04-.68c.84,.2,1.04,.68,1.04,.68l-.03,.34h-2.02Z"/><path class="cls-4" d="M54.79,20.17h-2.08l-.09-.4s.22-.54,1.09-.75c.89,.21,1.1,.7,1.11,.72l-.03,.43h0Zm-1.08-1.03c-.77,.19-.97,.64-.97,.65l.03,.31,1.91-.05,.02-.29h0s-.22-.43-.99-.62h0Z"/><path class="cls-3" d="M52.74,21.65l-.57-.84c.19-.22,.55,.16,.55,.16,0,0,.19-.96,1.01-1.37,.82,.41,1.01,1.37,1.01,1.37,0,0,.36-.37,.55-.16l-.58,.84h-1.97Z"/><path class="cls-4" d="M54.74,21.71h-2l-.62-.87c.16-.37,.43-.1,.56,0,.08-.27,.33-.97,1.02-1.31,.73,.34,1,1.04,1.07,1.31,.13-.11,.42-.25,.56-.08l-.59,.94h0Zm-2.43-.91s-.07,.01-.1,.05l.58,.77,1.89-.03,.55-.8s-.05,.02-.09,.02c-.13,0-.3,.15-.36,.21l-.08,.08-.02-.12s-.2-.94-.98-1.33c-.73,.39-.92,1.32-.93,1.33l-.02,.12-.08-.09c-.05-.06-.22-.21-.35-.21h0Z"/><path class="cls-3" d="M52.74,22.68l-.57-.84c.19-.22,.55,.16,.55,.16,0,0,.19-.96,1.01-1.37,.82,.4,1.01,1.37,1.01,1.37,0,0,.36-.37,.55-.16l-.58,.84h-1.97Z"/><path class="cls-4" d="M54.74,22.74h-2l-.62-.87c.16-.37,.43-.11,.56,0,.07-.27,.33-.97,1.02-1.31,.73,.34,1,1.04,1.07,1.31,.13-.11,.42-.24,.56-.08l-.59,.94h0Zm-2.43-.91s-.07,.01-.1,.05l.58,.77,1.89-.03,.55-.8s-.05,.02-.09,.02c-.13,0-.3,.15-.35,.2l-.08,.08-.02-.12s-.2-.94-.98-1.33c-.73,.39-.92,1.32-.93,1.33l-.02,.12-.08-.08c-.05-.06-.22-.2-.35-.2h0Z"/><path class="cls-3" d="M52.71,24.22l-.03-.86s.2-1.21,1.04-1.71c.84,.5,1.04,1.71,1.04,1.71l-.03,.86h-2.02Z"/><path class="cls-4" d="M54.79,24.28h-2.08l-.09-.91c0-.06,.21-1.25,1.07-1.77,.92,.51,1.12,1.7,1.13,1.75l-.03,.93h0Zm-1.1-2.58c-.75,.48-.95,1.66-.95,1.67l.03,.84,1.9-.06,.03-.8s-.2-1.17-1.01-1.66h0Z"/><path class="cls-3" d="M52.74,24.22l-.57-.63c.19-.16,.55,.12,.55,.12,0,0,.19-.72,1.01-1.03,.82,.3,1.01,1.03,1.01,1.03,0,0,.36-.28,.55-.12l-.58,.63h-1.97Z"/><path class="cls-4" d="M54.73,24.28h-2l-.62-.65c.06-.13,.12-.15,.19-.15,.14,0,.28,.08,.37,.13,.08-.2,.34-.73,1.02-.99,.72,.25,.99,.78,1.07,.99,.13-.08,.41-.19,.56-.07l-.59,.74h0Zm-2.42-.68s-.08,.01-.11,.04l.58,.54,1.9-.02,.51-.56s-.04,0-.06,0c-.13,0-.31,.11-.36,.16l-.07,.06-.02-.09s-.2-.7-.97-.99c-.74,.29-.93,.98-.93,.99l-.02,.09-.07-.06s-.2-.16-.36-.16h0Z"/><path class="cls-3" d="M28.2,20.47l-.75-.6c.25-.16,.71,.11,.71,.11,0,0,.25-.69,1.32-.98,1.07,.29,1.32,.98,1.32,.98,0,0,.46-.27,.71-.11l-.75,.6h-2.56Z"/><path class="cls-4" d="M30.78,20.53h-2.58l-.79-.61c.07-.14,.14-.16,.23-.16,.23,0,.49,.13,.54,.16-.04-.06,.25-.7,1.28-.98,1.01,.26,1.32,.86,1.38,.99,.03-.08,.49-.25,.7-.12l-.76,.71h0Zm-3.14-.65c-.07,0-.12,.01-.16,.04l.75,.5h2.5s.66-.54,.66-.54c-.03,0-.05,0-.08,0-.22,0-.49,.15-.49,.15-.09-.04-.34-.7-1.36-.97-.99,.28-1.24,.93-1.24,.94-.1,.03-.36-.12-.58-.12h0Z"/><path class="cls-3" d="M27.81,22.02l-.97-.84c.32-.22,.93,.16,.93,.16,0,0,.32-.96,1.71-1.37,1.39,.4,1.71,1.37,1.71,1.37,0,0,.6-.37,.92-.16l-.97,.84h-3.33Z"/><path class="cls-4" d="M31.17,22.08h-3.35l-1.01-.86c.08-.15,.18-.17,.29-.17,.31,0,.65,.2,.7,.23-.05-.07,.31-.98,1.67-1.37,1.33,.38,1.72,1.23,1.78,1.38,.03-.1,.63-.35,.91-.16l-.98,.95h0Zm-4.07-.91c-.09,0-.16,.02-.22,.06l.98,.74h3.27s.93-.82,.93-.82c-.05,.03-.11,.02-.19,.02-.29,0-.64,.21-.64,.21-.09-.04-.42-.97-1.76-1.36-1.31,.39-1.63,1.32-1.64,1.33-.09,.04-.44-.18-.73-.18h0Z"/><path class="cls-3" d="M26.84,24.27l.02-3.06s.31,.6,2.72,.73c2.28-.08,2.66-.44,2.77-.77l-.09,3.11h-5.41Z"/><path class="cls-4" d="M32.32,24.34h-5.47s-.04-3.13-.04-3.13v-.23s.12,.2,.12,.2c0,0,.35,.57,2.67,.7,2.22-.07,2.61-.43,2.71-.73l.12,.02-.1,3.17h0Zm-5.39-2.98l-.02,2.9,5.29-.05,.09-2.8c-.25,.28-.89,.52-2.7,.58-1.78-.1-2.44-.45-2.66-.64h0Z"/><path class="cls-3" d="M29.46,16s1.16,2.02,0,2.05c-1.16,.03,0-1.99,0-2.05h0Z"/><path class="cls-4" d="M29.43,18.12c-.22,0-.38-.07-.47-.22-.28-.44,.2-1.43,.38-1.8,.03-.06,.05-.1,.05-.11,.02,0,.04,0,.06,.01h.06s0,.02-.01,.04c.21,.22,.53,.99,.54,1.43,0,.41-.2,.62-.58,.64h-.03Zm.04-1.99s0,.02-.01,.03c-.15,.32-.63,1.3-.39,1.68,.07,.11,.19,.16,.36,.16v.06l.02-.06c.21,0,.35-.08,.41-.23,.19-.43-.24-1.35-.4-1.64h0Z"/><path class="cls-3" d="M28.48,18.57l-.57-.32c.19-.08,.55,.06,.55,.06,0,0,.19-.36,1.01-.51,.82,.15,1.01,.51,1.01,.51,0,0,.36-.14,.55-.06l-.57,.32h-1.97Z"/><path class="cls-4" d="M30.46,18.63h-1.99l-.71-.38,.12-.05c.17-.07,.52,.03,.58,.05-.02-.04,.22-.37,.99-.51,.76,.14,1.01,.45,1.07,.53,.02-.05,.37-.13,.53-.07l.12,.05-.7,.38h0Zm-2.37-.34l.41,.22h1.93s.4-.22,.4-.22c-.16,.01-.33,.08-.33,.08-.08-.03-.27-.37-1.05-.51-.75,.14-.95,.48-.95,.48-.07,.03-.25-.04-.41-.05h0Z"/><path class="cls-3" d="M28.96,18.83v-.26s.08-.36,.51-.51c.42,.15,.52,.51,.52,.51v.26h-1.03Z"/><path class="cls-4" d="M30.02,18.89h-1.07l-.08-.32s.11-.41,.56-.57c.49,.16,.59,.54,.6,.56v.33h-.01Zm-.58-.77c-.34,.14-.44,.46-.44,.47l.02,.24,.89-.05v-.2h.01s-.1-.32-.48-.45h0Z"/><path class="cls-3" d="M28.45,19.59l-.03-.34s.2-.48,1.04-.68c.84,.2,1.04,.68,1.04,.68l-.03,.34h-2.02Z"/><path class="cls-4" d="M30.53,19.66h-2.08l-.09-.4s.22-.54,1.09-.75c.89,.21,1.1,.7,1.11,.72l-.03,.43h0Zm-1.08-1.03c-.77,.19-.97,.64-.97,.65l.03,.31,1.91-.05,.02-.29h0s-.22-.43-.99-.62h0Z"/><path class="cls-3" d="M28.45,20.11l-.03-.34s.2-.48,1.04-.68c.84,.2,1.04,.68,1.04,.68l-.03,.34h-2.02Z"/><path class="cls-4" d="M30.53,20.17h-2.08l-.09-.4s.22-.54,1.09-.75c.89,.21,1.1,.7,1.11,.72l-.03,.43h0Zm-1.08-1.03c-.77,.19-.97,.64-.97,.65l.03,.31,1.91-.05,.02-.29h0s-.22-.43-.99-.62h0Z"/><path class="cls-3" d="M28.48,21.65l-.57-.84c.19-.22,.55,.16,.55,.16,0,0,.19-.96,1.01-1.37,.82,.41,1.01,1.37,1.01,1.37,0,0,.36-.37,.55-.16l-.57,.84h-1.97Z"/><path class="cls-4" d="M30.48,21.71h-2l-.62-.87c.15-.37,.43-.1,.56,0,.08-.27,.33-.97,1.02-1.31,.73,.34,1,1.04,1.07,1.31,.13-.11,.42-.25,.56-.08l-.59,.94h0Zm-2.43-.91s-.07,.01-.1,.05l.58,.77,1.89-.03,.55-.8s-.05,.02-.09,.02c-.13,0-.3,.15-.35,.21l-.08,.08-.02-.12s-.2-.94-.98-1.33c-.73,.39-.92,1.32-.93,1.33l-.02,.12-.08-.09c-.05-.06-.22-.21-.35-.21h0Z"/><path class="cls-3" d="M28.48,22.68l-.57-.84c.19-.22,.55,.16,.55,.16,0,0,.19-.96,1.01-1.37,.82,.4,1.01,1.37,1.01,1.37,0,0,.36-.37,.55-.16l-.57,.84h-1.97Z"/><path class="cls-4" d="M30.48,22.74h-2l-.62-.87c.16-.37,.43-.11,.56,0,.07-.27,.33-.97,1.02-1.31,.73,.34,1,1.04,1.07,1.31,.13-.11,.42-.25,.56-.08l-.59,.94h0Zm-2.43-.91s-.07,.01-.1,.05l.58,.77,1.89-.03,.55-.8s-.05,.02-.09,.02c-.13,0-.3,.15-.35,.2l-.08,.08-.02-.12s-.2-.94-.98-1.33c-.73,.39-.92,1.32-.93,1.33l-.02,.12-.08-.08c-.05-.06-.22-.2-.35-.2h0Z"/><path class="cls-3" d="M28.45,24.22l-.03-.86s.2-1.21,1.04-1.71c.84,.5,1.04,1.71,1.04,1.71l-.03,.86h-2.02Z"/><path class="cls-4" d="M30.53,24.28h-2.08l-.09-.91c0-.06,.21-1.25,1.07-1.77,.92,.51,1.12,1.7,1.13,1.75l-.03,.93h0Zm-1.1-2.58c-.75,.48-.95,1.66-.95,1.67l.03,.84,1.9-.06,.03-.8s-.2-1.17-1.01-1.66h0Z"/><path class="cls-3" d="M28.48,24.22l-.57-.63c.19-.16,.55,.12,.55,.12,0,0,.19-.72,1.01-1.03,.82,.3,1.01,1.03,1.01,1.03,0,0,.36-.28,.55-.12l-.57,.63h-1.97Z"/><path class="cls-4" d="M30.47,24.28h-2l-.62-.65c.06-.13,.12-.15,.19-.15,.14,0,.28,.08,.37,.13,.08-.2,.34-.73,1.02-.99,.72,.25,.99,.78,1.07,.99,.13-.08,.41-.19,.55-.07l-.59,.74h0Zm-2.42-.68s-.08,.01-.11,.04l.58,.54,1.9-.02,.51-.56s-.04,0-.06,0c-.16,0-.36,.15-.36,.16l-.07,.06-.02-.09s-.2-.7-.98-.99c-.74,.29-.93,.98-.93,.99l-.02,.09-.07-.06s-.2-.16-.36-.16h0Z"/><path class="cls-3" d="M38.06,22.84h7.06c.35,0,.63,.28,.63,.63s-.28,.63-.63,.63h-7.06c-.35,0-.63-.28-.63-.63s.28-.63,.63-.63h0Z"/><path class="cls-4" d="M45.12,24.16h-7.06c-.38,0-.69-.31-.69-.69s.31-.69,.69-.69h7.06c.38,0,.69,.31,.69,.69s-.31,.69-.69,.69h0Zm-7.06-1.26c-.31,0-.57,.25-.57,.57s.25,.57,.57,.57h7.06c.31,0,.57-.25,.57-.57s-.25-.57-.57-.57h-7.06Z"/><path class="cls-3" d="M45.87,23.58l.05-4.16s-.16,1.02-.64,1.02h-7.38c-.48,0-.64-1.02-.64-1.02l.05,4.16h8.56Z"/><path class="cls-4" d="M45.93,23.64h-8.62l-.11-4.22h.12c.04,.26,.23,.96,.58,.96h7.38c.35,0,.54-.7,.58-.97h.12s-.05,4.23-.05,4.23h0Zm-8.6-3.73l.05,3.67,8.44-.06,.05-3.61c-.11,.29-.29,.59-.57,.59h-7.38c-.29,0-.47-.31-.57-.59h0Z"/><path class="cls-3" d="M44.24,21.69l.02-1.36s.92-.25,.79-.61c-.13-.36-1.24,.45-1.24,.45h-4.43s-1.11-.8-1.24-.45c-.13,.36,.79,.61,.79,.61l.02,1.36h5.29Z"/><path class="cls-4" d="M44.3,21.75h-5.35l-.08-1.42s-.63-.13-.77-.41c-.04-.07-.04-.14-.02-.22,.02-.05,.07-.13,.21-.13,.36,0,1.09,.53,1.12,.55h4.4s.73-.55,1.08-.55c.14,0,.19,.08,.21,.13,.03,.07,.02,.14-.02,.22-.15,.28-.79,.46-.82,.47l.03,1.3v.06h0Zm-6-2.05c-.07,0-.09,.03-.1,.05-.01,.04-.01,.08,.01,.12,.1,.2,.57,.36,.74,.41l.06,1.42,5.17-.06,.02-1.3c.22-.1,.68-.27,.79-.46,.02-.04,.02-.08,0-.12,0-.02-.03-.05-.1-.05-.26,0-.84,.38-1.05,.53h-4.47c-.24-.15-.82-.53-1.08-.53h0Z"/><path class="cls-3" d="M44.76,22.87l.02-1.44s1.11-.17,.95-.52c-.15-.36-1.48,.45-1.48,.45h-5.32s-1.33-.8-1.48-.45c-.15,.36,.95,.52,.95,.52l.02,1.44h6.35Z"/><path class="cls-4" d="M44.83,22.93h-6.41l-.08-1.5s-.79-.08-.94-.35c-.04-.06-.04-.13,0-.2,.02-.06,.09-.13,.24-.13,.42,0,1.29,.53,1.33,.55h5.29s.88-.55,1.3-.55c.15,0,.22,.07,.24,.13,.03,.07,.03,.14,0,.2-.15,.27-.91,.4-.99,.41l.03,1.38v.06h0Zm-7.19-2.05c-.11,0-.12,.04-.13,.05,.11,.28,.69,.41,.91,.44l.07,1.5,6.22-.06,.02-1.38c.27-.09,.85-.22,.95-.41,0-.49-1.38,.38-1.39,.39h-5.35s-.91-.53-1.3-.53h0Z"/><path class="cls-3" d="M42.37,15.53v-.57c-.64,0-.48-.62-.48-.86,.19-.24,.25-.7-.29-.94-.52,.27-.48,.7-.29,.92,0,.26,.21,.88-.5,.88v.57h1.56Z"/><path class="cls-4" d="M42.43,15.59h-1.62l-.07-.63c.24-.06,.37-.1,.44-.19,.12-.13,.09-.35,.07-.53,0-.06-.01-.12-.01-.16-.1-.1-.16-.29-.12-.46,.03-.15,.13-.35,.44-.52,.36,.14,.46,.33,.5,.48,.04,.19,0,.4-.13,.56,0,0,0,.04,0,.09-.01,.18-.03,.42,.09,.55,.07,.08,.19,.12,.34,.12l.06,.63v.06h0Zm-.86-2.38c-.16,.11-.29,.26-.33,.43-.03,.14,.01,.29,.11,.4,.02,.08,.02,.13,.03,.19,.02,.19,.05,.46-.1,.63-.1,.11-.26,.16-.47,.16l.07,.51,1.43-.06v-.51c-.13,.06-.27,0-.37-.09-.16-.18-.14-.46-.12-.65v-.12c.1-.14,.17-.31,.13-.49-.04-.17-.17-.3-.37-.4h0Z"/><path class="cls-3" d="M43.46,19.27v-1.1s.66-.22,.57-.51c-.09-.29-.87,.37-.87,.37h-3.14s-.79-.66-.88-.37c-.09,.29,.56,.51,.56,.51v1.1h3.76Z"/><path class="cls-4" d="M43.52,19.33h-3.81l-.07-1.16s-.66-.19-.56-.53c.02-.08,.08-.12,.17-.12,.26,0,.75,.41,.81,.46h3.1s.51-.46,.77-.46c.08,0,.14,.04,.17,.12,.11,.34-.53,.56-.6,.59l.03,1.04v.06h0Zm-4.27-1.68c-.11,.22,.32,.41,.47,.46l.05,1.15,3.62-.06v-1.04c.21-.11,.63-.3,.58-.49-.23-.05-.64,.28-.78,.4h-3.18c-.18-.12-.59-.43-.77-.43h0Z"/><path class="cls-3" d="M43.84,20.23v-1.18s.8-.14,.69-.43c-.11-.29-1.05,.37-1.05,.37h-3.77s-.94-.66-1.05-.37c-.11,.29,.67,.43,.67,.43v1.18h4.51Z"/><path class="cls-4" d="M43.9,20.29h-4.55l-.08-1.24s-.53-.05-.66-.27c-.03-.06-.04-.12-.02-.18,.02-.04,.06-.11,.19-.11,.3,0,.93,.43,.96,.45h3.73s.62-.45,.92-.45c.13,0,.17,.07,.19,.11,.02,.06,.02,.12-.02,.18-.13,.22-.65,.32-.71,.33l.04,1.12v.06h0Zm-5.11-1.68l-.07,.11c.07,.13,.42,.23,.62,.27l.06,1.24,4.37-.06v-1.12c.21-.08,.6-.18,.68-.33l-.07-.11c-.22,0-.71,.31-.89,.43h-3.8c-.21-.12-.7-.43-.92-.43h0Z"/><path class="cls-3" d="M42.8,17.52v-.72s.43-.17,.37-.37c-.06-.2-.57,.25-.57,.25h-2.03s-.51-.45-.57-.25c-.06,.2,.36,.37,.36,.37v.72h2.43Z"/><path class="cls-4" d="M42.86,17.58h-2.48l-.07-.78s-.43-.15-.36-.39v-.04s.13-.05,.13-.05c.17,0,.48,.26,.54,.32l1.99-.02s.33-.3,.5-.3h.04l.08,.09c.07,.24-.35,.43-.4,.45l.03,.66v.06h0Zm-2.79-1.14c-.04,.12,.2,.25,.32,.3l.05,.77,2.3-.06v-.66c.17-.11,.41-.25,.37-.35-.06,.01-.33,.16-.47,.28l-2.07,.02c-.17-.13-.4-.3-.5-.3h0Z"/><path class="cls-3" d="M43.05,18.17v-.72s.52-.17,.45-.37c-.07-.2-.68,.25-.68,.25h-2.44s-.61-.45-.68-.25c-.07,.2,.44,.37,.44,.37v.72h2.92Z"/><path class="cls-4" d="M43.11,18.23h-2.97l-.07-.78s-.34-.08-.42-.25v-.02s0-.12,0-.12c.01-.03,.05-.09,.14-.09,.2,0,.59,.28,.63,.31h2.4s.39-.31,.6-.31h.04l.1,.09s.01,.09,0,.14c-.08,.17-.43,.3-.46,.31l.03,.66v.06h0Zm-3.33-1.14c.03,.15,.25,.26,.37,.3l.05,.78,2.79-.06v-.66c.18-.1,.4-.21,.44-.3-.14-.06-.43,.12-.58,.23h-2.48c-.19-.11-.47-.29-.6-.29h0Z"/><path class="cls-3" d="M42.45,16.25v-.65s.3-.16,.26-.32c-.04-.16-.4,.2-.4,.2h-1.44s-.36-.37-.4-.2c-.04,.16,.26,.32,.26,.32v.57s1.72,.08,1.72,.08Z"/><path class="cls-4" d="M42.51,16.32l-1.78-.08-.06-.63s-.31-.14-.26-.33v-.05s.11-.04,.11-.04c.13,0,.33,.2,.4,.26l1.4-.02s.23-.25,.35-.25h.05l.06,.09c.05,.2-.25,.37-.29,.39l.03,.6v.06h0Zm-1.99-1.02c-.01,.08,.16,.2,.24,.25l.04,.62,1.59,.02v-.59c.12-.1,.29-.22,.26-.3-.04,0-.19,.12-.3,.23l-1.48,.02c-.15-.13-.3-.25-.35-.25h0Z"/><path class="cls-3" d="M42.62,16.71v-.57s.37-.16,.32-.32c-.05-.16-.48,.2-.48,.2h-1.73s-.43-.37-.48-.2c-.05,.16,.31,.32,.31,.32v.57h2.07Z"/><path class="cls-4" d="M42.68,16.77h-2.12l-.07-.63s-.37-.13-.31-.34v-.04s.12-.04,.12-.04c.15,0,.41,.22,.46,.26h1.69s.28-.26,.42-.26h.04l.07,.09c.06,.2-.28,.36-.34,.39l.03,.52v.06h0Zm-2.38-.93c-.02,.07,.14,.19,.27,.24l.04,.63,1.94-.06v-.51c.17-.11,.34-.23,.32-.3-.08,0-.27,.14-.38,.23h-1.77c-.15-.1-.35-.23-.42-.23h0Z"/><path class="cls-3" d="M41.04,16.74l-.32-.36c.11-.09,.3,.07,.3,.07,0,0,.11-.41,.56-.59,.46,.17,.56,.59,.56,.59,0,0,.2-.16,.3-.07l-.32,.36h-1.09Z"/><path class="cls-4" d="M42.17,16.8h-1.12l-.46-.48,.22-.03c.07,0,.14,.03,.19,.06,.06-.14,.21-.41,.57-.55,.39,.14,.56,.41,.61,.55,.05-.03,.12-.06,.19-.06l.12,.04-.33,.47h0Zm-1.36-.39l.28,.29,1.02-.02,.3-.34c-.1,.07-.19,.13-.22,.16l-.07,.06-.02-.09s-.11-.39-.52-.54c-.38,.16-.48,.53-.48,.54l-.02,.09-.07-.06s-.12-.08-.18-.08h0Z"/><path class="cls-3" d="M40.83,17.32l-.45-.36c.15-.09,.43,.07,.43,.07,0,0,.15-.41,.79-.59,.64,.17,.79,.59,.79,.59,0,0,.28-.16,.43-.07l-.45,.36h-1.53Z"/><path class="cls-4" d="M42.38,17.38h-1.55l-.48-.37c.05-.12,.1-.14,.15-.14,.13,0,.27,.07,.32,.09-.02-.06,.17-.42,.76-.58,.58,.15,.79,.48,.84,.59,.04-.07,.29-.14,.42-.06l-.46,.47h0Zm-1.86-.39l.35,.28h1.47s.33-.28,.33-.28c-.12,0-.25,.09-.26,.09-.09-.05-.24-.42-.83-.58-.57,.16-.71,.53-.71,.55-.08,.03-.22-.05-.34-.05h0Z"/><path class="cls-3" d="M40.72,18.35l-.51-.48c.17-.12,.49,.09,.49,.09,0,0,.17-.55,.9-.78,.73,.23,.9,.78,.9,.78,0,0,.32-.21,.49-.09l-.51,.48h-1.75Z"/><path class="cls-4" d="M42.49,18.41h-1.78l-.55-.5c.05-.13,.11-.14,.17-.14,.15,0,.32,.09,.37,.13-.03-.08,.18-.56,.86-.78,.67,.2,.9,.64,.96,.78,.04-.08,.34-.18,.48-.08l-.52,.59h0Zm-2.15-.52s-.07,0-.1,.03l.52,.39,1.68-.02,.42-.4c-.11,0-.29,.08-.34,.12-.09-.04-.26-.56-.95-.77-.65,.22-.82,.74-.82,.74-.09,.03-.27-.08-.41-.08h0Z"/><path class="cls-3" d="M40.5,19.61l-.64-.6c.21-.16,.61,.11,.61,.11,0,0,.21-.69,1.12-.98,.91,.29,1.12,.98,1.12,.98,0,0,.39-.27,.61-.11l-.64,.6h-2.19Z"/><path class="cls-4" d="M42.71,19.67h-2.21l-.68-.62c.06-.13,.13-.16,.21-.16,.2,0,.41,.13,.46,.16-.04-.08,.21-.7,1.08-.98,.85,.26,1.13,.83,1.19,.98,.04-.09,.42-.24,.6-.11l-.65,.71h0Zm-2.69-.65c-.05,0-.1,.01-.13,.04l.64,.51,2.12-.02,.56-.53s-.04,0-.06,0c-.18,0-.41,.15-.41,.15-.09-.04-.31-.7-1.18-.97-.83,.27-1.05,.93-1.05,.94-.1,.03-.32-.12-.5-.12h0Z"/><polygon class="cls-3" points="40.34 20.65 41.56 22.16 42.84 20.65 40.34 20.65"/><path class="cls-4" d="M41.55,22.26l-1.34-1.67h2.76l-1.42,1.67h0Zm-1.09-1.55l1.09,1.36,1.16-1.36h-2.24Z"/><path class="cls-3" d="M40.28,20.82l-.77-.67c.26-.17,.73,.12,.73,.12,0,0,.25-.77,1.35-1.09,1.09,.32,1.35,1.09,1.35,1.09,0,0,.47-.3,.73-.12l-.77,.67h-2.63Z"/><path class="cls-4" d="M42.93,20.88h-2.65l-.81-.68c.07-.14,.15-.16,.24-.16,.24,0,.5,.15,.56,.18-.04-.07,.25-.78,1.31-1.09,1.04,.3,1.35,.95,1.41,1.1,.04-.09,.5-.27,.72-.13l-.78,.78h0Zm-3.22-.72c-.07,0-.12,.01-.16,.04l.77,.57h2.56s.69-.62,.69-.62c-.03,0-.06,0-.1,0-.23,0-.5,.17-.5,.17-.09-.04-.35-.77-1.4-1.08-1.01,.31-1.27,1.04-1.27,1.05-.1,.04-.36-.14-.59-.14h0Z"/><polygon class="cls-3" points="40.24 22.31 41.55 24.22 42.95 22.31 40.24 22.31"/><path class="cls-4" d="M41.55,24.32l-1.43-2.07h2.95l-1.52,2.07h0Zm-1.2-1.95l1.2,1.74,1.27-1.74h-2.47Z"/><path class="cls-3" d="M40.17,22.53l-.83-.84c.28-.22,.79,.16,.79,.16,0,0,.28-.96,1.46-1.37,1.19,.4,1.46,1.37,1.46,1.37,0,0,.51-.37,.79-.16l-.83,.84h-2.85Z"/><path class="cls-4" d="M43.04,22.59h-2.87l-.87-.86c.07-.14,.16-.17,.26-.17,.21,0,.43,.12,.54,.19,.09-.24,.46-.99,1.48-1.33,1.05,.35,1.42,1.09,1.51,1.33,.16-.1,.58-.28,.8-.11l-.84,.95h0Zm-3.49-.91c-.07,0-.13,.02-.18,.05l.84,.75,2.78-.02,.79-.8s-.09,.02-.15,.02c-.24,0-.54,.21-.54,.21l-.07,.05-.02-.08s-.29-.94-1.42-1.33c-1.1,.39-1.38,1.32-1.38,1.33l-.02,.08-.07-.05s-.3-.21-.54-.21h0Z"/><path class="cls-3" d="M40.17,24.22l-.83-.84c.28-.22,.79,.16,.79,.16,0,0,.28-.96,1.46-1.37,1.19,.41,1.46,1.37,1.46,1.37,0,0,.51-.37,.79-.16l-.83,.84h-2.85Z"/><path class="cls-4" d="M43.04,24.28h-2.87l-.87-.86c.07-.14,.16-.17,.26-.17,.21,0,.43,.12,.54,.19,.09-.24,.46-.98,1.48-1.33,1.05,.35,1.42,1.09,1.51,1.33,.16-.1,.58-.28,.8-.11l-.84,.95h0Zm-3.49-.91c-.07,0-.13,.02-.18,.05l.84,.75,2.78-.02,.79-.8s-.09,.02-.15,.02c-.24,0-.54,.21-.54,.21l-.07,.05-.02-.08s-.29-.94-1.42-1.33c-1.1,.39-1.38,1.32-1.38,1.33l-.02,.08-.07-.05s-.29-.21-.54-.21h0Z"/><rect class="cls-3" x="33.11" y="26.56" width=".61" height="2.64"/><path class="cls-4" d="M33.78,29.26h-.67l-.06-2.7,.67-.06,.06,2.76h0Zm-.12-2.7l-.55,.06,.06,2.58,.49-.05v-2.59h0Z"/><rect class="cls-3" x="35.19" y="26.55" width=".61" height="2.64"/><path class="cls-4" d="M35.86,29.26h-.67l-.06-2.7,.67-.06,.06,2.76h0Zm-.12-2.7l-.55,.06,.06,2.58,.49-.05v-2.58h0Z"/><rect class="cls-3" x="34.21" y="26.55" width=".61" height="2.64"/><path class="cls-4" d="M34.88,29.26h-.67l-.06-2.7,.67-.06,.06,2.76h0Zm-.12-2.7l-.55,.06,.06,2.58,.49-.05v-2.58h0Z"/><rect class="cls-3" x="45.32" y="26.55" width=".61" height="2.64"/><path class="cls-4" d="M45.99,29.26h-.67l-.06-2.7,.67-.06,.06,2.76h0Zm-.12-2.7l-.55,.06,.06,2.58,.49-.05v-2.59h0Z"/><rect class="cls-3" x="49.47" y="26.55" width=".61" height="2.64"/><path class="cls-4" d="M50.15,29.26h-.67l-.06-2.7,.67-.06,.06,2.76h0Zm-.12-2.7l-.55,.06,.06,2.58,.49-.05v-2.58h0Z"/><rect class="cls-3" x="47.4" y="26.55" width=".61" height="2.64"/><path class="cls-4" d="M48.07,29.26h-.67l-.06-2.7,.67-.06,.06,2.76h0Zm-.12-2.7l-.55,.06,.06,2.58,.49-.05v-2.58h0Z"/><rect class="cls-3" x="46.42" y="26.55" width=".61" height="2.64"/><path class="cls-4" d="M47.09,29.26h-.67l-.06-2.7,.67-.06,.06,2.76h0Zm-.12-2.7l-.55,.06,.06,2.58,.49-.05v-2.58h0Z"/><rect class="cls-3" x="48.37" y="26.55" width=".61" height="2.64"/><path class="cls-4" d="M49.05,29.26h-.67l-.06-2.7,.67-.06,.06,2.76h0Zm-.12-2.7l-.55,.06,.06,2.58,.49-.05v-2.58h0Z"/><rect class="cls-3" x="37.27" y="26.55" width=".61" height="2.64"/><path class="cls-4" d="M37.94,29.26h-.67l-.06-2.7,.67-.06,.06,2.76h0Zm-.12-2.7l-.55,.06,.06,2.58,.49-.05v-2.59h0Z"/><rect class="cls-3" x="36.17" y="26.55" width=".61" height="2.64"/><path class="cls-4" d="M36.84,29.26h-.67l-.06-2.7,.67-.06,.06,2.76h0Zm-.12-2.7l-.55,.06,.06,2.58,.49-.05v-2.58h0Z"/><rect class="cls-3" x="40.95" y="14.5" width="1.27" height=".48"/><path class="cls-4" d="M42.28,15.04h-1.33l-.06-.54,1.33-.06,.06,.6h0Zm-.12-.54l-1.21,.06,.06,.42,1.15-.06v-.42h0Z"/><rect class="cls-3" x="41.12" y="14.03" width=".94" height=".46"/><path class="cls-4" d="M42.12,14.55h-1l-.06-.52,1-.06,.06,.58h0Zm-.12-.52l-.87,.06,.06,.4,.81-.06v-.4h0Z"/></g></g></g></svg>