<svg xmlns="http://www.w3.org/2000/svg" xmlns:xlink="http://www.w3.org/1999/xlink" viewBox="0 0 204.3 119.2" xmlns:v="https://vecta.io/nano"><defs><path id="A" d="M0 0h204.3v119.2H0z"/></defs><clipPath id="B"><use xlink:href="#A"/></clipPath><path d="M0 0h48.1v119.2H0z" clip-path="url(#B)" fill="#d80621"/><defs><path id="C" d="M0 0h204.3v119.2H0z"/></defs><clipPath id="D"><use xlink:href="#C"/></clipPath><path d="M156.2 0h48.1v119.2h-48.1z" clip-path="url(#D)" fill="#d80621"/><defs><path id="E" d="M0 0h204.3v119.2H0z"/></defs><clipPath id="F"><use xlink:href="#E"/></clipPath><path d="M48.1 0h108.2v119.2H48.1z" clip-path="url(#F)" fill="#fff"/><defs><path id="G" d="M0 0h204.3v119.2H0z"/></defs><clipPath id="H"><use xlink:href="#G"/></clipPath><g clip-path="url(#H)"><defs><path id="I" d="M0 0h204.3v119.2H0z"/></defs><clipPath id="J"><use xlink:href="#I"/></clipPath><path d="M102.1 15.4L95 29.2c-.8 1.5-2.2 1.3-3.7.5L86.2 27 90 48.2c.8 3.9-1.8 3.9-3 2.2L78 40l-1.5 5.3c-.2.7-.9 1.4-2 1.3l-11.3-2.5 3 11.3c.6 2.5 1.1 3.6-.6 4.2l-4 2 19.5 16.5c.8.6 1.2 1.7.9 2.8l-1.7 5.8 19.4-2.3c.6 0 1.6.5 1.6 1.2l-.9 21.4h3.3l-.5-21.3c0-.7.9-1.3 1.5-1.3l19.4 2.3-1.7-5.8c-.3-1 .1-2.1.9-2.8l19.5-16.5-4-2c-1.8-.7-1.3-1.7-.6-4.2l3-11.3-11.3 2.5c-1.1.2-1.8-.6-2-1.3l-1.5-5.3-9 10.4c-1.3 1.7-3.9 1.7-3-2.2L118 27l-5.1 2.8c-1.5.8-2.9 1-3.7-.5l-7.1-13.9z" clip-path="url(#J)" fill="#d80621"/></g></svg>