<?xml version="1.0" encoding="UTF-8"?><svg id="Ebene_2" xmlns="http://www.w3.org/2000/svg" xmlns:xlink="http://www.w3.org/1999/xlink" viewBox="0 0 83.18 48.52"><defs><style>.cls-1{fill:none;}.cls-2{clip-path:url(#clippath);}.cls-3{fill:#f3d02f;}.cls-4{fill:#fff;}.cls-5{fill:#bc0030;}.cls-6{fill:#22368f;}</style><clipPath id="clippath"><rect class="cls-1" width="83.18" height="48.52"/></clipPath></defs><g id="Layer_1"><g class="cls-2"><rect class="cls-6" width="83.18" height="48.52"/><rect class="cls-4" y="24.26" width="83.18" height="12.13"/><rect class="cls-5" y="28.31" width="83.18" height="4.04"/><polygon class="cls-3" points="30.93 15.77 30.39 17.45 28.63 17.45 30.05 18.48 29.51 20.16 30.93 19.12 32.36 20.16 31.81 18.48 33.24 17.45 31.48 17.45 30.93 15.77"/><polygon class="cls-3" points="23.8 18.09 23.26 19.76 21.5 19.76 22.92 20.8 22.38 22.47 23.8 21.44 25.23 22.47 24.68 20.8 26.11 19.76 24.35 19.76 23.8 18.09"/><polygon class="cls-3" points="19.4 24.15 18.85 25.83 17.09 25.83 18.51 26.86 17.97 28.54 19.4 27.5 20.82 28.54 20.28 26.86 21.7 25.83 19.94 25.83 19.4 24.15"/><polygon class="cls-3" points="19.4 31.65 18.85 33.33 17.09 33.33 18.51 34.36 17.97 36.04 19.4 35 20.82 36.04 20.28 34.36 21.7 33.33 19.94 33.33 19.4 31.65"/><polygon class="cls-3" points="23.8 37.72 23.26 39.39 21.5 39.39 22.92 40.43 22.38 42.1 23.8 41.07 25.23 42.1 24.68 40.43 26.11 39.39 24.35 39.39 23.8 37.72"/><polygon class="cls-3" points="30.93 40.03 30.39 41.71 28.63 41.71 30.05 42.74 29.51 44.42 30.93 43.38 32.36 44.42 31.81 42.74 33.24 41.71 31.48 41.71 30.93 40.03"/><polygon class="cls-3" points="38.06 37.72 37.52 39.39 35.76 39.39 37.18 40.43 36.64 42.1 38.06 41.07 39.49 42.1 38.94 40.43 40.37 39.39 38.61 39.39 38.06 37.72"/><polygon class="cls-3" points="42.47 24.15 41.93 25.83 40.16 25.83 41.59 26.86 41.04 28.54 42.47 27.5 43.9 28.54 43.35 26.86 44.78 25.83 43.02 25.83 42.47 24.15"/><polygon class="cls-3" points="42.47 31.65 41.93 33.33 40.16 33.33 41.59 34.36 41.04 36.04 42.47 35 43.9 36.04 43.35 34.36 44.78 33.33 43.02 33.33 42.47 31.65"/><polygon class="cls-3" points="38.06 18.09 37.52 19.76 35.76 19.76 37.18 20.8 36.64 22.47 38.06 21.44 39.49 22.47 38.94 20.8 40.37 19.76 38.61 19.76 38.06 18.09"/></g></g></svg>