<?xml version="1.0" encoding="UTF-8"?><svg id="Ebene_2" xmlns="http://www.w3.org/2000/svg" xmlns:xlink="http://www.w3.org/1999/xlink" viewBox="0 0 83.18 48.52"><defs><style>.cls-1{fill:none;}.cls-2{clip-path:url(#clippath);}.cls-3{fill:#fff;}.cls-4{fill:#c22623;}.cls-5{fill:#2530a9;}</style><clipPath id="clippath"><rect class="cls-1" width="83.18" height="48.52"/></clipPath></defs><g id="Layer_1"><g class="cls-2"><rect class="cls-3" width="83.18" height="48.52"/><rect class="cls-5" width="24.26" height="48.52"/><rect class="cls-4" y="24.26" width="83.18" height="24.26"/><polygon class="cls-3" points="12.13 6.07 10.26 11.83 13.14 12.77 12.13 6.07"/><polygon class="cls-3" points="12.13 6.07 14.01 11.83 11.12 12.77 12.13 6.07"/><polygon class="cls-3" points="17.9 10.26 11.83 10.26 11.83 13.29 17.9 10.26"/><polygon class="cls-3" points="17.9 10.26 12.99 13.82 11.21 11.37 17.9 10.26"/><polygon class="cls-3" points="6.36 10.26 11.27 13.82 13.05 11.37 6.36 10.26"/><polygon class="cls-3" points="6.36 10.26 12.43 10.26 12.43 13.29 6.36 10.26"/><polygon class="cls-3" points="15.7 17.04 13.82 11.27 10.94 12.21 15.7 17.04"/><polygon class="cls-3" points="15.7 17.04 10.79 13.47 12.57 11.02 15.7 17.04"/><polygon class="cls-3" points="8.57 17.04 13.47 13.47 11.69 11.02 8.57 17.04"/><polygon class="cls-3" points="8.57 17.04 10.44 11.27 13.32 12.21 8.57 17.04"/></g></g></svg>