<?xml version="1.0" encoding="UTF-8"?><svg id="Ebene_2" xmlns="http://www.w3.org/2000/svg" xmlns:xlink="http://www.w3.org/1999/xlink" viewBox="0 0 83.18 48.52"><defs><style>.cls-1{fill:none;}.cls-2{clip-path:url(#clippath);}.cls-3{fill:#f4c533;}.cls-4{fill:#fff;}.cls-5{fill:#bc0030;}.cls-6{fill:#4d72c0;}.cls-7{fill:#508e38;}.cls-8{clip-path:url(#clippath-1);}</style><clipPath id="clippath"><rect class="cls-1" width="83.18" height="48.52"/></clipPath><clipPath id="clippath-1"><rect class="cls-1" width="83.18" height="48.52"/></clipPath></defs><g id="Layer_1"><g class="cls-2"><rect class="cls-3" width="83.18" height="48.52"/><rect class="cls-4" y="12.13" width="83.18" height="36.39"/><rect class="cls-5" y="24.26" width="83.18" height="24.26"/><rect class="cls-6" y="36.39" width="83.18" height="12.13"/><polygon class="cls-7" points="0 0 0 48.52 40.44 24.26 0 0"/><g class="cls-8"><path class="cls-4" d="M24.67,24.26c0,6.03-4.88,10.92-10.91,10.92-6.03,0-10.92-4.88-10.92-10.91h0c0-6.04,4.88-10.93,10.92-10.93,6.03,0,10.92,4.88,10.92,10.91h0Z"/><path class="cls-7" d="M29.52,24.26c0,6.03-4.89,10.92-10.92,10.92s-10.92-4.88-10.92-10.91h0c0-6.04,4.88-10.93,10.91-10.93,6.03,0,10.92,4.88,10.92,10.91h0Z"/><polygon class="cls-4" points="14.25 31.45 15.72 31.45 16.17 30.05 16.63 31.45 18.1 31.45 16.91 32.31 17.36 33.71 16.17 32.85 14.99 33.71 15.44 32.31 14.25 31.45"/><polygon class="cls-4" points="14.25 15.82 15.72 15.82 16.17 14.43 16.63 15.82 18.1 15.82 16.91 16.69 17.36 18.08 16.17 17.22 14.99 18.08 15.44 16.69 14.25 15.82"/><polygon class="cls-4" points="14.25 21.03 15.72 21.03 16.17 19.64 16.63 21.03 18.1 21.03 16.91 21.9 17.36 23.29 16.17 22.43 14.99 23.29 15.44 21.9 14.25 21.03"/><polygon class="cls-4" points="14.25 26.24 15.72 26.24 16.17 24.84 16.63 26.24 18.1 26.24 16.91 27.11 17.36 28.5 16.17 27.64 14.99 28.5 15.44 27.11 14.25 26.24"/></g></g></g></svg>