<?xml version="1.0" encoding="UTF-8"?><svg id="Ebene_2" xmlns="http://www.w3.org/2000/svg" xmlns:xlink="http://www.w3.org/1999/xlink" viewBox="0 0 83.18 48.52"><defs><style>.cls-1{fill:none;}.cls-2{clip-path:url(#clippath);}.cls-3,.cls-4{fill:#fff;}.cls-5{fill:#d80031;}.cls-6{fill:#292c2f;}.cls-7{fill:#2f3c85;}.cls-4{fill-rule:evenodd;}</style><clipPath id="clippath"><rect class="cls-1" width="83.18" height="48.52"/></clipPath></defs><g id="Layer_1"><g class="cls-2"><rect class="cls-7" width="83.18" height="48.52"/><path class="cls-6" d="M0,33.99H0ZM0,14.53H0Z"/><path class="cls-3" d="M0,38.84H83.18v-9.69H0v9.69ZM0,19.38H83.18V9.69H0v9.69Z"/><polygon class="cls-5" points="0 0 0 48.52 41.95 24.3 0 0"/><polygon class="cls-4" points="14.01 16.17 11.5 23.83 15.34 25.08 14.01 16.17"/><polygon class="cls-4" points="14.01 16.17 16.44 23.83 12.6 25.08 14.01 16.17"/><polygon class="cls-4" points="21.68 21.8 13.62 21.8 13.62 25.79 21.68 21.8"/><polygon class="cls-4" points="21.68 21.8 15.11 26.49 12.76 23.29 21.68 21.8"/><polygon class="cls-4" points="6.26 21.8 12.84 26.49 15.18 23.29 6.26 21.8"/><polygon class="cls-4" points="6.26 21.8 14.4 21.8 14.4 25.79 6.26 21.8"/><polygon class="cls-4" points="18.71 30.79 16.2 23.13 12.37 24.38 18.71 30.79"/><polygon class="cls-4" points="18.71 30.79 12.21 26.02 14.56 22.82 18.71 30.79"/><polygon class="cls-4" points="9.24 30.79 15.73 26.02 13.38 22.82 9.24 30.79"/><polygon class="cls-4" points="9.24 30.79 11.74 23.13 15.57 24.38 9.24 30.79"/></g></g></svg>