<?xml version="1.0" encoding="UTF-8"?><svg id="Ebene_2" xmlns="http://www.w3.org/2000/svg" xmlns:xlink="http://www.w3.org/1999/xlink" viewBox="0 0 83.18 48.52"><defs><style>.cls-1{fill:none;}.cls-2{clip-path:url(#clippath);}.cls-3{fill:#f5cd28;}.cls-4{fill:#fff;}.cls-5{fill:#999396;}.cls-6{fill:#bc0030;}.cls-7{fill:#c0003b;}.cls-8{fill:#223e84;}.cls-9{fill:#1a4104;}.cls-10{fill:#1a4204;}.cls-11{fill:#347c63;}.cls-12{fill:#272015;}.cls-13{clip-path:url(#clippath-1);}.cls-14{clip-path:url(#clippath-4);}.cls-15{clip-path:url(#clippath-3);}.cls-16{clip-path:url(#clippath-2);}.cls-17{clip-path:url(#clippath-7);}.cls-18{clip-path:url(#clippath-8);}.cls-19{clip-path:url(#clippath-6);}.cls-20{clip-path:url(#clippath-5);}.cls-21{clip-path:url(#clippath-9);}.cls-22{clip-path:url(#clippath-14);}.cls-23{clip-path:url(#clippath-13);}.cls-24{clip-path:url(#clippath-12);}.cls-25{clip-path:url(#clippath-10);}.cls-26{clip-path:url(#clippath-11);}</style><clipPath id="clippath"><rect class="cls-1" width="83.18" height="48.52"/></clipPath><clipPath id="clippath-1"><rect class="cls-1" width="83.18" height="48.52"/></clipPath><clipPath id="clippath-2"><rect class="cls-1" width="83.18" height="48.52"/></clipPath><clipPath id="clippath-3"><rect class="cls-1" x="45.24" y="18.2" width="1.92" height="2.13"/></clipPath><clipPath id="clippath-4"><rect class="cls-1" x="44.64" y="17.83" width="2.14" height="1.37"/></clipPath><clipPath id="clippath-5"><rect class="cls-1" x="42.39" y="17.35" width="3.79" height="1.58"/></clipPath><clipPath id="clippath-6"><rect class="cls-1" x="36.04" y="18.18" width="1.92" height="2.13"/></clipPath><clipPath id="clippath-7"><rect class="cls-1" x="36.41" y="17.81" width="2.14" height="1.37"/></clipPath><clipPath id="clippath-8"><rect class="cls-1" x="37.01" y="17.33" width="3.8" height="1.58"/></clipPath><clipPath id="clippath-9"><rect class="cls-1" x="39.82" y="16.73" width="3.57" height="1.25"/></clipPath><clipPath id="clippath-10"><rect class="cls-1" x="45.22" y="28.4" width="2.07" height="1.12"/></clipPath><clipPath id="clippath-11"><rect class="cls-1" x="44.1" y="28.08" width="2.28" height=".85"/></clipPath><clipPath id="clippath-12"><rect class="cls-1" x="35.92" y="28.4" width="2.07" height="1.12"/></clipPath><clipPath id="clippath-13"><rect class="cls-1" x="36.84" y="28.08" width="2.28" height=".85"/></clipPath><clipPath id="clippath-14"><rect class="cls-1" x="37.81" y="27.18" width="7.56" height="1.52"/></clipPath></defs><g id="Layer_1"><g class="cls-2"><g class="cls-13"><rect class="cls-4" width="83.18" height="48.52"/><rect class="cls-8" width="35.65" height="18.64"/><rect class="cls-6" y="29.8" width="35.65" height="18.72"/><rect class="cls-8" x="47.53" y="29.8" width="35.65" height="18.72"/><rect class="cls-6" x="47.53" width="35.65" height="18.64"/><g class="cls-16"><path d="M47.31,20.65c-.02-.39-.24-.52-.25-.52,.05-.07,.32,.08,.34,.52h-.08Z"/><path d="M47.18,20.67c-.02-.39-.24-.52-.25-.52,.05-.06,.31,.08,.33,.52h-.08Z"/><path d="M47.04,20.68c-.02-.39-.24-.52-.25-.52,.05-.07,.32,.08,.34,.52h-.08Z"/><path d="M46.92,20.73c-.02-.39-.24-.52-.25-.52,.05-.07,.32,.08,.34,.52h-.08Z"/><path d="M46.78,20.79c-.02-.39-.24-.52-.25-.52,.05-.07,.32,.08,.34,.52h-.08Z"/><path d="M46.65,20.86c-.02-.39-.24-.52-.25-.52,.05-.07,.32,.08,.34,.52h-.08Z"/><g class="cls-15"><path class="cls-8" d="M47.16,20.11c-.47-1.27-.67-1.45-.75-1.54-.08-.09-.93-.37-.93-.37l-.24,.53s.72,.35,.88,.68c.15,.32,.26,.92,.26,.92,0,0,.32-.14,.43-.18,.11-.04,.35-.01,.35-.04h0Z"/></g><path d="M46.35,20.38v-.05s-.12-.6-.27-.91c-.15-.31-.85-.65-.86-.66l.22-.58c.19,.02,.91,.26,1,.35,.11,.12,.3,.34,.76,1.56,0,.07-.05,.07-.15,.07-.07,0-.17,0-.22,.02-.11,.04-.43,.17-.43,.17l-.05,.02h0Zm-1.06-1.64c.08,0,.72,.33,.87,.65,.13,.27,.23,.73,.26,.88,.09-.04,.3-.13,.38-.16,.07-.02,.17-.03,.25-.03-.37-1.17-.57-1.38-.65-1.48-.06-.07-.52-.24-.93-.37l-.19,.5s0,0,0,0h0Z"/><g class="cls-14"><path class="cls-8" d="M46.79,19.2c-.75-.31-.99-.15-1.25-.22-.27-.07-.83-.22-.89-.35-.05-.14,.49-.8,.49-.8l.38,.4c.25,.26,.84,.03,1.05,.48l.23,.5Z"/></g><path d="M46.79,19.25s-.01,0-.02,0c-.42-.17-.67-.2-.86-.2h-.1c-.14,0-.21,0-.28-.02-.6-.15-.88-.27-.93-.38-.06-.15,.33-.65,.49-.85l.46,.39c.09,.09,.25,.12,.41,.14,.24,.03,.51,.07,.65,.36l.23,.5s0,.04,0,.06c-.01,.01-.02,.02-.04,.02h0Zm-.88-.31c.18,0,.42,.02,.78,.16l-.17-.38c-.11-.23-.33-.26-.57-.29-.17-.02-.35-.05-.47-.17l-.38-.4c-.17,.3-.42,.67-.4,.75,.02,.04,.15,.14,.85,.32,.06,.02,.12,.02,.17,.02h.19Z"/><path d="M45.9,18.99c-.14,0-.38-.11-.68-.25-.13-.06-.25-.12-.31-.13-.18-.05-.25,.04-.25,.04-.06-.05,.03-.19,.27-.12,.06,.01,.18,.07,.32,.14,.21,.1,.63,.3,.69,.23l.07,.05s-.06,.05-.11,.05h0Z"/><g class="cls-20"><path class="cls-8" d="M42.6,17.38c.05,0,1.12-.11,2.06,.07,.96,.17,1.52,.51,1.53,.73,.01,.42-.2,.76-.22,.75-.03-.01,0-.19-.24-.26-.24-.07-1.33-.42-1.62-.43-.29-.01-1.14,.03-1.27,.01-.12-.01-.45-.08-.45-.23s.2-.61,.21-.64h0Z"/></g><path d="M45.95,18.97l-.04-.06c-.02-.05-.04-.15-.19-.19l-.23-.07c-.4-.12-1.16-.35-1.39-.36h-.16c-.16,0-.38,0-.58,0-.17,0-.33,0-.43,0h-.1s-.48-.06-.48-.27c0-.17,.21-.65,.21-.66,.21-.04,.5-.06,.86-.06,.47,0,.89,.03,1.25,.1,.97,.17,1.55,.52,1.56,.77,.01,.37-.15,.69-.22,.77l-.06,.02h0Zm-2.01-.77h.16c.24,.01,1,.25,1.41,.37l.23,.07c.17,.05,.22,.15,.24,.22,.06-.1,.18-.35,.17-.66,0-.18-.53-.52-1.49-.69-.35-.07-.77-.1-1.23-.1-.36,0-.64,.02-.76,.03-.04,.02-.23,.46-.23,.6,0,.1,.24,.17,.41,.19,.19,0,.35,0,.52,0,.2,0,.42-.01,.58-.01h0Z"/><path d="M43.1,18.13s-.03,0-.04,0c-.09,0-.16-.04-.22-.07-.07-.03-.13-.06-.21-.05-.12,.01-.14,.09-.14,.09-.08-.02-.05-.15,.13-.17,.1-.02,.18,.03,.25,.06,.06,.03,.12,.06,.19,.06l.12,.02v-.08s.05-.01,.05-.01l.02,.02-.05,.11s-.06,.03-.11,.03h0Z"/><path d="M35.89,20.63h-.08c.02-.44,.29-.59,.3-.59,.03,.08-.2,.21-.21,.59h0Z"/><path d="M36.02,20.66h-.08c.02-.44,.29-.59,.3-.59,.03,.08-.19,.2-.21,.59h0Z"/><path d="M36.15,20.66h-.08c.02-.44,.29-.59,.3-.59,.03,.08-.2,.2-.21,.59h0Z"/><path d="M36.28,20.71h-.08c.02-.44,.29-.59,.3-.59,.03,.08-.2,.2-.21,.59h0Z"/><path d="M36.42,20.77h-.08c.02-.44,.29-.59,.3-.59,.03,.08-.2,.21-.21,.59h0Z"/><path d="M36.55,20.84h-.08c.02-.44,.29-.59,.3-.59,.03,.08-.2,.2-.21,.59h0Z"/><g class="cls-19"><path class="cls-8" d="M36.04,20.09c.47-1.27,.67-1.45,.75-1.54,.08-.09,.93-.37,.93-.37l.24,.53s-.72,.35-.88,.68c-.15,.33-.26,.92-.26,.92,0,0-.32-.13-.43-.18-.11-.04-.35-.01-.35-.04h0Z"/></g><path d="M36.84,20.36l-.05-.02s-.32-.13-.43-.17c-.05-.02-.15-.02-.22-.02-.1,0-.15,0-.15-.06,.45-1.23,.65-1.45,.75-1.56,.1-.11,.82-.35,.96-.39l.29,.55c-.03,.06-.73,.4-.88,.71-.15,.32-.26,.91-.26,.91v.05h0Zm-.56-.29s.08,0,.12,.02c.08,.03,.29,.12,.38,.16,.03-.15,.13-.61,.26-.88,.16-.33,.87-.68,.9-.7l-.26-.47c-.35,.15-.81,.32-.86,.38-.1,.11-.29,.33-.74,1.53,.08-.02,.15-.03,.21-.03h0Z"/><g class="cls-17"><path class="cls-8" d="M36.41,19.18c.75-.31,.99-.15,1.25-.22,.27-.07,.83-.22,.89-.35,.05-.14-.49-.8-.49-.8l-.38,.4c-.25,.26-.84,.03-1.05,.48l-.23,.5Z"/></g><path d="M36.41,19.23s-.03,0-.04-.02c-.01-.02-.02-.04,0-.06l.23-.5c.13-.29,.41-.32,.65-.35,.16-.02,.32-.04,.41-.14l.38-.4c.25,.21,.63,.71,.57,.86-.05,.12-.32,.23-.93,.38-.07,.02-.14,.02-.19,.02h-.19c-.19,0-.44,.02-.86,.19,0,0-.01,0-.02,0h0Zm1.61-1.39l-.3,.4c-.12,.12-.3,.15-.47,.17-.23,.03-.46,.06-.56,.29l-.17,.38c.36-.14,.6-.16,.78-.16h.11c.13,0,.19,0,.25-.01,.67-.17,.83-.27,.86-.32,.02-.07-.23-.44-.48-.75h0Z"/><path d="M37.3,18.97c-.05,0-.09-.01-.11-.05l.07-.05c.05,.07,.48-.13,.68-.23,.14-.07,.26-.13,.33-.14,.24-.07,.33,.06,.33,.07-.05,.04-.1,0-.2,0-.03,0-.07,0-.11,.02-.06,.01-.18,.07-.31,.13-.3,.14-.53,.25-.67,.25h0Z"/><g class="cls-18"><path class="cls-8" d="M40.59,17.36c-.05,0-1.12-.11-2.06,.07-.96,.17-1.52,.51-1.53,.73-.01,.42,.19,.76,.22,.75,.03-.01,0-.19,.24-.26,.24-.07,1.33-.42,1.62-.43,.29-.01,1.14,.03,1.27,.01,.12-.01,.45-.08,.45-.23s-.2-.61-.21-.64h0Z"/></g><path d="M37.23,18.95l-.05-.02c-.07-.07-.23-.39-.22-.76,0-.25,.6-.6,1.56-.77,.36-.07,.77-.1,1.24-.1,.36,0,.65,.02,.77,.03,.1,.05,.3,.52,.3,.68,0,.22-.46,.27-.48,.27h-.1c-.1,0-.26,0-.43,0-.2,0-.42-.01-.58-.01h-.16c-.23,.01-1.03,.26-1.41,.37l-.21,.06c-.16,.04-.18,.14-.19,.19l-.06,.07h0Zm2.54-1.58c-.46,0-.87,.03-1.22,.1-.97,.17-1.49,.51-1.5,.69-.01,.31,.1,.57,.16,.67,.03-.08,.08-.17,.24-.22l.2-.06c.41-.13,1.19-.36,1.43-.37h.16c.16,0,.38,0,.58,0,.17,0,.33,0,.43,0,.26-.02,.5-.1,.5-.19,0-.13-.19-.58-.2-.62-.14,0-.43-.01-.79-.01h0Z"/><path d="M40.09,18.11c-.14,0-.15-.09-.15-.14l.08-.05v.04s.02,.07,.12,.06c.08,0,.14-.04,.2-.06,.07-.04,.15-.07,.25-.06,.19,.02,.21,.15,.22,.15-.08,.02-.1-.06-.22-.07-.08,0-.14,.02-.21,.05-.06,.03-.13,.06-.23,.07-.02,0-.03,0-.04,0h0Z"/><g class="cls-21"><path class="cls-8" d="M41.57,16.73c-1.32,.02-1.68,.21-1.74,.43-.06,.21,.15,.81,.15,.81,0,0,.22-.42,1.6-.41,1.38,.01,1.64,.38,1.64,.38,0,0,.18-.6,.16-.8-.01-.2-.57-.42-1.82-.42h0Z"/></g><path d="M39.97,18.07l-.03-.09s-.21-.62-.15-.84c.05-.21,.3-.45,1.78-.46,1.13,0,1.85,.18,1.86,.46,.01,.21-.16,.79-.16,.81h0c-.08,0-.37-.34-1.68-.35h0c-1.33,0-1.56,.38-1.56,.38l-.05,.08h0Zm1.54-.55c1.29,.01,1.65,.3,1.73,.38-.02-.1,.11-.58,.1-.75-.01-.15-.48-.38-1.75-.38-1.11,.01-1.66,.14-1.73,.4-.04,.14,.06,.52,.13,.72,.12-.12,.5-.36,1.52-.36h0Z"/><polygon class="cls-3" points="43.4 18.04 43.45 17.49 43.51 17.5 43.46 17.98 43.66 18 43.65 18.06 43.4 18.04"/><polygon class="cls-3" points="43.73 18.07 43.78 17.52 43.83 17.53 43.78 18.07 43.73 18.07"/><polygon class="cls-3" points="44.24 18.1 44.33 17.56 44.62 17.61 44.61 17.67 44.37 17.63 44.34 17.8 44.56 17.83 44.55 17.9 44.33 17.86 44.3 18.05 44.55 18.09 44.54 18.15 44.24 18.1"/><polygon class="cls-3" points="45.09 18.31 45.25 17.85 45.13 17.8 45.15 17.74 45.45 17.85 45.43 17.91 45.3 17.87 45.14 18.32 45.09 18.31"/><path class="cls-3" d="M43.93,18.02h.1s.03,.01,.04,0c.01,0,.02,0,.03-.01,0,0,.02-.02,.02-.03,0-.01,0-.03,.01-.05,0-.02,0-.04,0-.05,0-.02-.02-.03-.03-.04-.01,0-.03-.01-.06-.01h-.09s-.02,.18-.02,.18Zm.02-.25h.09s.04,0,.05,0c.02,0,.03-.01,.03-.02,0-.01,.01-.03,.02-.05,0-.02,0-.04,0-.05,0-.01-.01-.03-.02-.03-.01,0-.03-.01-.06-.01h-.08s-.02,.16-.02,.16Zm-.08,.31l.05-.55h.15s.06,.02,.07,.04c.02,.01,.03,.03,.04,.05,0,.02,.01,.05,0,.07,0,.02,0,.04-.02,.06-.01,.02-.03,.04-.05,.05,.02,.01,.04,.03,.05,.05,0,.02,.01,.05,.01,.08,0,.03,0,.05-.02,.07,0,.02-.02,.04-.04,.05-.01,.01-.03,.02-.05,.02-.02,0-.04,0-.07,0h-.15Z"/><path class="cls-3" d="M44.75,17.88l.11,.03s.04,0,.06,0c.02,0,.03-.01,.04-.02,.01-.01,.02-.03,.03-.04,0-.03,0-.05,0-.07,0-.02-.03-.03-.06-.04l-.12-.03-.05,.17Zm-.14,.28l.15-.53,.17,.05s.06,.02,.08,.04c.02,.01,.03,.04,.03,.06,0,.03,0,.06,0,.08,0,.04-.03,.07-.05,.09-.03,.02-.06,.03-.1,.03,.01,.01,.02,.02,.02,.04,0,.02,.02,.05,.02,.08l.03,.16-.06-.02-.02-.12s-.01-.06-.02-.08c0-.02,0-.03-.02-.04,0,0-.01-.02-.02-.02,0,0-.02,0-.03-.01l-.06-.02-.07,.24h-.05Z"/><path class="cls-3" d="M45.72,18.49l.08,.03s.04,.01,.06,.01c.02,0,.03,0,.04-.02,.02-.01,.04-.03,.05-.06,.02-.02,.03-.06,.05-.1,.02-.05,.03-.1,.03-.13,0-.03,0-.06-.03-.08-.01-.01-.03-.02-.06-.03l-.08-.03-.14,.4Zm-.07,.04l.19-.52,.13,.05s.05,.02,.07,.03c.02,.01,.03,.03,.04,.06,.01,.03,.02,.06,.01,.1,0,.04-.01,.08-.03,.13-.02,.04-.03,.07-.05,.1-.02,.03-.04,.05-.05,.07-.02,.02-.04,.03-.05,.04-.02,0-.04,0-.06,0-.02,0-.04,0-.06-.01l-.14-.05Z"/><path class="cls-3" d="M45.44,18.2l.13,.04v-.16s.02-.09,.02-.12c-.02,.03-.04,.06-.06,.09l-.1,.14Zm-.19,.17l.34-.47,.05,.02-.03,.57-.06-.02v-.17s-.15-.06-.15-.06l-.1,.14-.05-.02Z"/><polygon class="cls-3" points="41.42 17.46 41.42 16.97 41.27 16.97 41.27 16.91 41.63 16.91 41.63 16.97 41.48 16.97 41.48 17.46 41.42 17.46"/><polygon class="cls-3" points="42.18 17.46 42.21 16.91 42.27 16.91 42.24 17.46 42.18 17.46"/><path class="cls-3" d="M40.51,17.24l.12-.02s.06-.02,.08-.04c.01-.02,.02-.05,0-.08,0-.02-.01-.04-.03-.06-.01-.01-.03-.02-.04-.03-.01,0-.03,0-.06,0l-.12,.02,.04,.19Zm0,.29l-.1-.54,.17-.03s.05,0,.07,0c.02,0,.04,0,.06,.01,.02,0,.03,.03,.05,.05,.01,.02,.02,.04,.03,.07,0,.05,0,.09-.01,.12-.02,.04-.06,.06-.12,.07l-.12,.02,.04,.22h-.06Z"/><path class="cls-3" d="M40.96,17.22h.15s-.06-.16-.06-.16c-.02-.04-.03-.08-.04-.11,0,.04,0,.07-.02,.11l-.04,.16Zm-.11,.24l.13-.56h.06s.23,.53,.23,.53h-.07s-.07-.16-.07-.16h-.19s-.04,.18-.04,.18h-.06Z"/><path class="cls-3" d="M41.76,17.15h.13s.05,0,.06-.01c.02,0,.03-.02,.04-.03,0-.02,.01-.03,.01-.05,0-.03,0-.05-.02-.06-.02-.02-.04-.03-.07-.03h-.14v.18Zm-.06,.31v-.55h.2s.07,0,.09,.02c.02,0,.04,.03,.05,.05,.01,.03,.02,.05,.02,.08,0,.04,0,.07-.03,.1-.02,.03-.05,.04-.1,.05,.02,0,.03,.02,.04,.03,.02,.02,.04,.04,.05,.07l.08,.15h-.08l-.06-.12s-.03-.06-.04-.08c0-.02-.02-.03-.03-.04,0,0-.02-.01-.03-.01,0,0-.02,0-.04,0h-.07v.24h-.06Z"/><path class="cls-3" d="M42.53,17.27l.15,.03-.02-.16s0-.09-.01-.12c-.01,.03-.03,.07-.04,.1l-.08,.15Zm-.17,.2l.27-.51h.06s.09,.58,.09,.58h-.07s-.02-.18-.02-.18l-.19-.03-.08,.16h-.06Z"/><polygon class="cls-3" points="38.3 18.23 38.21 17.68 38.28 17.67 38.36 18.22 38.3 18.23"/><path class="cls-3" d="M38.93,17.92h.06s.01,.04,.02,.06c.01,.02,.03,.03,.05,.04s.05,.01,.07,0c.02,0,.04,0,.06-.02s.03-.02,.04-.04c0-.01,.01-.03,0-.05,0-.02,0-.03-.02-.04,0-.01-.03-.02-.04-.03-.01,0-.04-.01-.08-.02-.04,0-.07-.02-.09-.03-.02-.01-.04-.03-.05-.05-.01-.02-.02-.04-.02-.07,0-.03,0-.05,.01-.08,.01-.03,.03-.05,.05-.06,.02-.01,.05-.02,.08-.03,.04,0,.06,0,.09,.01,.03,.01,.05,.03,.07,.05,.02,.02,.03,.05,.03,.08h-.06s-.02-.05-.04-.07c-.02-.02-.05-.02-.08-.02-.04,0-.06,.01-.08,.03-.02,.02-.02,.04-.02,.06,0,.02,0,.04,.02,.05,.01,.01,.04,.02,.1,.03s.09,.02,.1,.03c.03,.01,.05,.03,.06,.05,.02,.02,.02,.05,.03,.08,0,.03,0,.06-.01,.08-.01,.03-.03,.05-.05,.07-.03,.02-.05,.03-.09,.03-.04,0-.08,0-.11-.01-.03-.01-.05-.03-.07-.06-.02-.03-.03-.06-.04-.1h0Z"/><path class="cls-3" d="M38.41,17.9c-.01-.09,0-.16,.03-.22,.03-.06,.08-.09,.15-.1,.04,0,.08,0,.12,.02,.04,.02,.07,.05,.09,.09,.02,.04,.04,.09,.05,.14,0,.06,0,.11,0,.15-.01,.05-.04,.08-.06,.11-.03,.03-.07,.04-.11,.05-.04,0-.08,0-.12-.02-.04-.02-.07-.05-.09-.09-.02-.04-.04-.08-.04-.13h0Zm.06,0c0,.07,.03,.12,.07,.15,.04,.03,.08,.05,.12,.04,.04,0,.08-.03,.1-.07,.02-.04,.03-.1,.02-.17,0-.04-.02-.08-.04-.11-.02-.03-.04-.05-.07-.07-.03-.01-.05-.02-.08-.02-.04,0-.08,.03-.1,.07-.03,.04-.03,.1-.02,.18h0Z"/><path class="cls-3" d="M37.9,18.28l.09-.03s.05-.02,.07-.03c.01-.01,.02-.02,.03-.04,0-.02,.01-.05,.01-.08,0-.03,0-.07-.02-.1-.02-.05-.04-.09-.06-.12-.02-.03-.05-.04-.07-.04-.02,0-.04,0-.08,.01l-.09,.03,.13,.4Zm-.04,.08l-.17-.53,.15-.05s.06-.02,.08-.02c.03,0,.05,0,.08,.02,.03,.02,.06,.04,.08,.07,.02,.03,.04,.07,.06,.12,.01,.04,.02,.08,.02,.11,0,.03,0,.06,0,.09,0,.02-.01,.04-.03,.06,0,.02-.03,.03-.04,.04-.02,.01-.04,.02-.07,.03l-.16,.05Z"/><path class="cls-4" d="M37.77,19.3l.7,.68v5.45c0,.43,.46,.91,.93,.91h1.16c.7,0,1.05,.57,1.05,.57,0,0,.35-.58,1.05-.57l1.26,.02c.37,0,.83-.47,.83-.92v-5.45l.7-.68h-7.69Z"/><path d="M41.62,26.98l-.04-.06s-.35-.55-1.01-.55h-1.16c-.47,0-.97-.49-.97-.95v-5.45l-.69-.65,7.71-.07-.67,.75v5.42c.01,.22-.09,.46-.27,.66-.18,.19-.39,.31-.58,.31h0l-1.27-.02h0c-.67,0-1.01,.54-1.01,.55l-.04,.06h0Zm3.81-7.71l-7.66,.07,.73,.61v5.48c.01,.42,.47,.87,.9,.87h1.16c.6,0,.94,.39,1.05,.54,.11-.14,.44-.54,1.03-.54l1.28,.02h0c.17,0,.36-.1,.52-.28,.17-.18,.27-.4,.27-.6v-5.45l.71-.71h0Z"/><polygon class="cls-6" points="42.2 19.3 42.2 22.48 44.76 22.48 44.76 19.98 45.46 19.3 42.2 19.3"/><path d="M44.79,22.5h-2.59l-.03-3.21,3.29-.03-.68,.73v2.5h0Zm.66-3.22l-3.24,.04,.03,3.15,2.51-.03v-2.47l.71-.7h0Z"/><polygon class="cls-8" points="37.77 19.3 41.03 19.3 41.03 22.48 38.47 22.48 38.47 19.98 37.77 19.3"/><path d="M41.06,22.5h-2.59l-.03-2.52-.69-.66,3.28-.04,.03,3.23h0Zm-.05-3.21l-3.23,.03,.72,.64v2.52s2.52-.03,2.52-.03v-3.15h0Z"/><path class="cls-6" d="M38.47,23.61h2.56v2.84l-.23-.11h-1.4c-.47,0-.93-.45-.93-.91v-1.82Z"/><path d="M41.06,26.49l-.27-.13h-1.39c-.48,0-.96-.46-.96-.93v-1.82l2.59-.03,.03,2.91h0Zm-.05-2.88l-2.53,.03,.03,1.79c0,.44,.46,.88,.91,.88h1.4l.21,.1v-2.8h0Z"/><path class="cls-8" d="M44.76,23.61h-2.56v2.84l.23-.11h1.4c.47,0,.93-.45,.93-.91v-1.82Z"/><path d="M42.17,26.49v-2.88l2.59-.03,.03,1.84c0,.47-.47,.93-.96,.93h-1.4l-.26,.13h0Zm2.56-2.88l-2.53,.03,.03,2.77,.2-.1h1.41c.45,0,.91-.45,.91-.88v-1.82h0Z"/><path d="M41.62,26.98l-.04-.06s-.35-.55-1.01-.55h-1.16c-.47,0-.97-.49-.97-.95v-5.45l-.69-.65,7.71-.07-.67,.75v5.42c.01,.22-.09,.46-.27,.66-.18,.19-.39,.31-.58,.31h0l-1.27-.02h0c-.67,0-1.01,.54-1.01,.55l-.04,.06h0Zm3.81-7.71l-7.66,.07,.73,.61v5.48c.01,.42,.47,.87,.9,.87h1.16c.6,0,.94,.39,1.05,.54,.11-.14,.44-.54,1.03-.54l1.28,.02h0c.17,0,.36-.1,.52-.28,.17-.18,.27-.4,.27-.6v-5.45l.71-.71h0Z"/><polygon class="cls-3" points="41.5 21.12 41.5 22.02 41.73 22.02 41.73 21.12 41.96 21.12 41.96 20.89 41.73 20.89 41.73 20.66 41.5 20.66 41.5 20.89 41.27 20.89 41.27 21.12 41.5 21.12"/><path d="M41.77,22.07h-.27l-.04-.95-.19,.04-.04-.27,.27-.04-.04-.19,.27-.04,.04,.27,.19-.04,.04,.27-.27,.04,.04,.91h0Zm-.27-.99l.04,.95,.15-.03v-.88l.27-.04-.04-.18-.19,.04-.04-.27-.19,.04,.04,.19-.27,.04,.04,.18,.19-.04h0Z"/><polygon class="cls-12" points="41.7 22.29 39.84 19.84 39.97 19.75 41.82 22.2 41.7 22.29 41.7 22.29"/><polygon class="cls-3" points="39.83 19.84 39.63 19.43 40.01 19.74 39.83 19.84"/><path class="cls-6" d="M40.87,21.62s-.24,.94-.24,.94c0,0,.74,.11,.72,.07s-.1-.62-.14-.66c-.04-.04-.33-.28-.35-.34h0Z"/><path class="cls-4" d="M40.26,21l-.12,1.23s.83,.73,.82,.64c-.01-.09-.07-1.25-.07-1.25l-.63-.62Z"/><path class="cls-8" d="M39.56,20.25l-.04,1.36s.74,.6,.74,.54,.07-1.1,.07-1.1l-.77-.8Z"/><polygon points="39.55 21.39 39.51 20.23 39.59 20.24 39.55 21.39 39.55 21.39"/><polygon class="cls-12" points="41.6 22.37 39.42 20.19 39.53 20.08 41.71 22.26 41.6 22.37 41.6 22.37"/><polygon class="cls-3" points="39.4 20.2 39.15 19.81 39.56 20.07 39.4 20.2"/><path class="cls-4" d="M39.17,20.66v3.41c0,.68,.69,1.17,1.17,1.13,.47-.03,1.16-.23,1.16-.23v-2.5l-2.33-1.82Z"/><path d="M40.29,25.24c-.46,0-1.16-.47-1.16-1.18v-3.41l2.4,1.78,.02,2.53s-.73,.23-1.2,.27h-.05Zm-1.14-4.55l.07,3.37c0,.66,.65,1.09,1.08,1.09v.04l.05-.04c.46-.03,1.15-.22,1.16-.23l-.03-2.46-2.31-1.78h0Z"/><path class="cls-6" d="M39.17,23.39v.68c0,.68,.69,1.17,1.17,1.13,.47-.03,1.16-.23,1.16-.23-.47-.23-1.63,.45-1.63-1.36-.23,0-.46,0-.7-.23h0Z"/><path class="cls-8" d="M39.9,21.19l-.03,1.96c-.25-.04-.46-.12-.7-.23v-2.27l.73,.53Z"/><path class="cls-6" d="M40.54,21.75v1.52s.17-.03,.44,.08c.28,.11,.53,.22,.53,.22v-1.1l-.97-.72Z"/><path class="cls-8" d="M41.44,24.07s-.51-.26-.64-.27-.29,.01-.29,.01c0,0-.03,.23-.01,.37,.01,.13,.22,.2,.29,.2s.65-.07,.65-.07v-.24Z"/><path d="M40.29,25.24c-.46,0-1.16-.47-1.16-1.18v-3.41l2.4,1.78,.02,2.53s-.73,.23-1.2,.27h-.05Zm-1.14-4.55l.07,3.37c0,.66,.65,1.09,1.08,1.09v.04l.05-.04c.46-.03,1.15-.22,1.16-.23l-.03-2.46-2.31-1.78h0Z"/><polygon class="cls-12" points="41.48 22.53 39.06 20.61 39.16 20.49 41.57 22.41 41.48 22.53 41.48 22.53"/><polygon class="cls-3" points="39.04 20.61 38.75 20.26 39.19 20.47 39.04 20.61"/><polygon class="cls-12" points="41.57 22.25 41.45 22.16 43.3 19.71 43.43 19.8 41.57 22.25 41.57 22.25"/><polygon class="cls-3" points="43.44 19.8 43.64 19.39 43.26 19.7 43.44 19.8"/><path class="cls-6" d="M42.4,21.58s.24,.93,.24,.93c0,0-.74,.11-.72,.07,.01-.04,.1-.62,.14-.66,.04-.04,.33-.28,.35-.34h0Z"/><path class="cls-4" d="M43.01,20.96l.12,1.23s-.83,.73-.82,.64c.01-.09,.07-1.25,.07-1.25l.62-.62Z"/><path class="cls-8" d="M43.7,20.21l.04,1.35s-.74,.6-.74,.54-.07-1.1-.07-1.1l.76-.8Z"/><polygon points="43.8 21.35 43.68 20.2 43.76 20.19 43.8 21.35 43.8 21.35"/><polygon class="cls-12" points="41.67 22.33 41.56 22.22 43.74 20.04 43.85 20.15 41.67 22.33 41.67 22.33"/><polygon class="cls-3" points="43.87 20.16 44.12 19.77 43.71 20.03 43.87 20.16"/><path class="cls-4" d="M44.1,20.62v3.41c0,.68-.69,1.17-1.16,1.13-.47-.04-1.16-.23-1.16-.23v-2.5l2.33-1.82Z"/><path d="M42.98,25.2h-.05c-.47-.04-1.17-.23-1.17-.23l-.03-2.54,2.34-1.85,.07,3.44c0,.71-.7,1.18-1.16,1.18h0Zm-1.16-.28c.09,0,.7,.16,1.12,.19l.04,.04v-.04c.43,0,1.08-.44,1.08-1.09v-3.41l-2.26,1.85,.02,2.46s0,0,.01,0h0Z"/><path class="cls-6" d="M44.1,23.34v.68c0,.68-.69,1.17-1.16,1.13-.47-.04-1.16-.23-1.16-.23,.46-.23,1.63,.45,1.63-1.36,.23,0,.47,0,.7-.23h0Z"/><path class="cls-8" d="M43.37,21.15l.03,1.96c.25-.04,.47-.12,.7-.23v-2.27l-.73,.53Z"/><path class="cls-6" d="M42.73,21.71v1.52s-.17-.03-.45,.08c-.28,.11-.53,.22-.53,.22v-1.1l.97-.72Z"/><path class="cls-8" d="M41.83,24.03s.51-.26,.64-.27c.13-.01,.29,.01,.29,.01,0,0,.03,.23,.01,.37-.01,.14-.22,.2-.29,.2s-.65-.07-.65-.07v-.24Z"/><path d="M42.98,25.2h-.05c-.47-.04-1.17-.23-1.17-.23l-.03-2.54,2.34-1.85,.07,3.44c0,.71-.7,1.18-1.16,1.18h0Zm-1.16-.28c.09,0,.7,.16,1.12,.19l.04,.04v-.04c.43,0,1.08-.44,1.08-1.09v-3.41l-2.26,1.85,.02,2.46s0,0,.01,0h0Z"/><polygon class="cls-12" points="41.79 22.49 41.69 22.37 44.11 20.45 44.21 20.57 41.79 22.49 41.79 22.49"/><polygon class="cls-3" points="44.22 20.57 44.52 20.22 44.08 20.43 44.22 20.57"/><path class="cls-6" d="M42.02,24.85c.05,.06,.25,.31,.3,.25,.05-.06-.12-.53-.19-.77-.06-.24-.21-.52-.22-.89-.01-.37-.24,.04-.24,.04l.34,1.37Z"/><path d="M42.3,25.15c-.07,0-.16-.1-.29-.26l-.37-1.4c.04-.1,.13-.25,.22-.25,.1,0,.1,.15,.1,.2,0,.26,.08,.47,.14,.65,.03,.08,.05,.16,.07,.23,.02,.07,.05,.17,.08,.27,.11,.34,.15,.49,.1,.54l-.05,.02h0Zm-.45-1.83s-.09,.09-.14,.18l.35,1.34c.15,.17,.21,.22,.23,.23,0-.06-.07-.31-.12-.46-.03-.1-.06-.19-.08-.27-.02-.07-.04-.14-.07-.22-.07-.19-.14-.41-.15-.68,0-.1-.02-.12-.02-.12h0Z"/><path class="cls-6" d="M41.83,25.59l.45,.02s-.14-.59-.19-.93c-.04-.34-.42-1.38-.42-1.38l.16,2.29Z"/><path d="M42.33,25.65l-.5-.02-.2-2.33c.1,.03,.46,1.02,.5,1.37,.04,.34,.18,.92,.19,.93v.05h.01Zm-.69-2.34l.24,2.27,.35-.02c-.04-.15-.14-.6-.17-.89-.04-.34-.41-1.36-.41-1.37h0Z"/><path class="cls-4" d="M41.5,23.2s-.63,.99-.63,1.5,.29,.81,.39,.97,.35,.68,.35,.68c0,0,.3-.57,.33-.79,.03-.22-.12-1.16-.07-1.53,.04-.36,.32-1.22,.32-1.22l-.7,.39Z"/><path d="M41.62,26.44l-.04-.07s-.25-.51-.35-.67l-.06-.09c-.13-.17-.34-.47-.34-.91,0-.41,.39-1.11,.62-1.49l.73-.43c.06,.06-.22,.91-.26,1.26-.02,.2,.01,.57,.04,.9,.02,.28,.05,.52,.03,.63-.03,.23-.33,.78-.34,.8l-.04,.07h0Zm.54-3.65l-.64,.44c-.39,.65-.61,1.17-.61,1.46,0,.41,.19,.68,.32,.86l.06,.09c.08,.12,.24,.46,.32,.61,.08-.16,.27-.54,.29-.7,.01-.09,0-.34-.03-.61-.03-.33-.06-.71-.04-.92,.04-.36,.31-1.2,.32-1.23h0Z"/><path class="cls-8" d="M41.5,23.2s-.63,.99-.63,1.5,.29,.81,.39,.97c-.02-.32-.05-.62-.03-1.03,.05-1.08,.75-1.71,.75-1.71l-.48,.27Z"/><path class="cls-6" d="M41.75,22.92c0,.18-.25,.73-.25,1.23,0,.25,.1,.84,.13,1.33,.03,.49-.02,.87-.02,.87,0,0,.3-.57,.33-.79,.03-.22-.12-1.16-.07-1.53,.04-.36,.32-1.22,.32-1.22l-.45,.11Z"/><path d="M41.62,26.44l-.04-.07s-.25-.51-.35-.67l-.06-.09c-.13-.17-.34-.47-.34-.91,0-.41,.39-1.11,.62-1.49l.73-.43c.06,.06-.22,.91-.26,1.26-.02,.2,.01,.57,.04,.9,.02,.28,.05,.52,.03,.63-.03,.23-.33,.78-.34,.8l-.04,.07h0Zm.54-3.65l-.64,.44c-.39,.65-.61,1.17-.61,1.46,0,.41,.19,.68,.32,.86l.06,.09c.08,.12,.24,.46,.32,.61,.08-.16,.27-.54,.29-.7,.01-.09,0-.34-.03-.61-.03-.33-.06-.71-.04-.92,.04-.36,.31-1.2,.32-1.23h0Z"/><path class="cls-6" d="M41.41,22.98c-.14,.12-.04,.4-.04,.4,0,0,.1-.12,.3-.11,.2,.01,.32,.3,.32,.3,0,0,.12-.09,.14-.28,.02-.19-.39-.41-.73-.31h0Z"/><path d="M41.97,23.64l-.02-.05s-.12-.27-.29-.28h0c-.18,0-.26,.1-.27,.1-.08-.03-.18-.33-.02-.46,.31-.1,.58,.02,.73,.18,.05,.06,.07,.12,.07,.17-.02,.21-.16,.31-.16,.31l-.04,.03h0Zm-.33-.41c.19,0,.31,.19,.36,.28,.03-.04,.08-.11,.09-.22,0-.04-.02-.08-.05-.11-.1-.11-.4-.22-.63-.16-.08,.07-.05,.23-.03,.31,.02-.04,.12-.1,.25-.1h0Z"/><path d="M40.97,22.21l.4,1.04s.18-.08,.29-.12c.12-.04,.26-.02,.26-.02,0,0,.19-.1,.28-.14,.1-.03,.29-.04,.29-.04l.03-.04s-1.41-.81-1.54-.77l-.02,.07Z"/><path d="M41.35,23.3l-.42-1.08,.04-.12h0c.22,0,1.43,.69,1.57,.77l.04,.02-.06,.08s-.22,.02-.31,.05c-.09,.03-.27,.13-.27,.13h-.12c-.05,0-.1,0-.14,.02-.11,.04-.29,.12-.29,.12l-.04,.02h0Zm-.35-1.13l.4,1.02c.06-.03,.18-.07,.26-.1,.09-.03,.25-.02,.27-.02,0,0,.17-.1,.26-.13,.11-.04,.3-.04,.31-.04-.51-.26-1.37-.73-1.5-.73h0Z"/><path class="cls-4" d="M41,22.11l.4,1.04s.18-.08,.29-.12c.12-.04,.26-.02,.26-.02,0,0,.19-.1,.28-.14,.1-.03,.29-.04,.29-.04l-.4-1.14s-.16,.02-.29,.06c-.1,.04-.24,.17-.24,.17-.07,0-.2-.02-.32,.02-.12,.05-.22,.1-.27,.15h0Z"/><path d="M41.38,23.21l-.42-1.08c.07-.11,.21-.18,.29-.21,.06-.02,.13-.03,.21-.03h.11s.14-.12,.25-.16c.13-.04,.29-.06,.3-.06l.45,1.17c-.04,.06-.22,.06-.32,.09-.09,.03-.27,.13-.27,.13h-.12c-.05,0-.1,0-.14,.02-.11,.04-.29,.12-.29,.12l-.04,.02h0Zm.71-1.48s-.14,.04-.24,.07c-.09,.03-.23,.16-.23,.16h-.16c-.07,0-.13,.01-.18,.03-.12,.04-.21,.1-.25,.14l.4,.96c.06-.03,.18-.07,.26-.1,.09-.03,.25-.02,.27-.02,0,0,.17-.1,.26-.13,.11-.04,.3-.04,.31-.04l-.44-1.07h0Z"/><polygon class="cls-5" points="42 23.01 41.57 21.95 41.61 21.93 42 23.01 42 23.01"/><path class="cls-5" d="M41.08,22.2l-.03-.04c.14-.12,.38-.18,.58-.16-.19,.03-.42,.09-.55,.2h0Z"/><path class="cls-5" d="M41.12,22.33l-.03-.04c.14-.12,.39-.18,.58-.16-.19,.03-.42,.09-.55,.2h0Z"/><path class="cls-5" d="M41.16,22.47l-.03-.04c.14-.12,.38-.18,.58-.16-.19,.03-.42,.09-.55,.2h0Z"/><path class="cls-5" d="M41.2,22.61l-.03-.04c.14-.12,.39-.18,.58-.16-.19,.03-.42,.09-.55,.2h0Z"/><path class="cls-5" d="M41.28,22.76l-.03-.04c.14-.12,.39-.18,.58-.16-.19,.03-.42,.09-.55,.2h0Z"/><path class="cls-5" d="M41.32,22.9l-.03-.04c.14-.12,.39-.18,.58-.16-.19,.03-.42,.09-.55,.2h0Z"/><path class="cls-5" d="M41.38,23.04l-.03-.04c.14-.12,.38-.18,.58-.16-.19,.03-.42,.09-.55,.2h0Z"/><path class="cls-5" d="M41.65,22.05l-.04-.04c.12-.13,.34-.22,.54-.22-.19,.05-.39,.14-.5,.26h0Z"/><path class="cls-5" d="M41.69,22.21l-.04-.04c.12-.13,.34-.22,.54-.22-.19,.05-.39,.14-.5,.26h0Z"/><path class="cls-5" d="M41.73,22.32l-.04-.04c.12-.13,.34-.22,.54-.22-.19,.05-.39,.14-.5,.26h0Z"/><path class="cls-5" d="M41.79,22.47l-.04-.04c.12-.13,.34-.22,.54-.22-.18,.05-.39,.14-.5,.26h0Z"/><path class="cls-5" d="M41.82,22.62l-.04-.04c.12-.13,.34-.22,.54-.22-.18,.05-.39,.14-.5,.26h0Z"/><path class="cls-5" d="M41.89,22.74l-.04-.04c.12-.13,.34-.22,.54-.22-.19,.05-.39,.14-.5,.26h0Z"/><path class="cls-5" d="M41.94,22.88l-.04-.04c.12-.13,.34-.22,.54-.22-.19,.05-.39,.14-.5,.26h0Z"/><path d="M41.38,23.21l-.42-1.08c.07-.11,.21-.18,.29-.21,.06-.02,.13-.03,.21-.03h.11s.14-.12,.25-.16c.13-.04,.29-.06,.3-.06l.45,1.17c-.04,.06-.22,.06-.32,.09-.09,.03-.27,.13-.27,.13h-.12c-.05,0-.1,0-.14,.02-.11,.04-.29,.12-.29,.12l-.04,.02h0Zm.71-1.48s-.14,.04-.24,.07c-.09,.03-.23,.16-.23,.16h-.16c-.07,0-.13,.01-.18,.03-.12,.04-.21,.1-.25,.14l.4,.96c.06-.03,.18-.07,.26-.1,.09-.03,.25-.02,.27-.02,0,0,.17-.1,.26-.13,.11-.04,.3-.04,.31-.04l-.44-1.07h0Z"/><path class="cls-11" d="M40.26,29.31c.06-.03,.64-.38,.95-.65,.31-.27,.58-.62,.92-.95,.33-.33,.5-.24,.67-.62,.17-.38,.08-.54,.08-.92,.12,0,.16,.12,.23,.25,.03,.07,.18-.46,.17-.3,0,.17,0,.56,0,.54,.05-.08,.29-.61,.29-.61,0,0-.11,.73-.08,.65,.03-.08,.3-.46,.3-.46v.46s.2-.33,.25-.57c.06-.03,.17,.33,.22,.24,.06-.08,.11-.57,.2-.51,.08,.05,.14,.3,.14,.3,0,0-.05-1.57,.03-1.54,.08,.03,.28,.08,.28,.08v-.6s.22,.71,.25,.79c.03,.08-.03-.57-.08-.73-.05-.16-.11-.49-.11-.49,0,0,.29,.41,.34,.49,0-.08-.22-.79-.28-.79s-.31,.3-.25,.27c.06-.03,.2-.62,.28-.62s.25,.43,.22,.38l-.16-.93,.22,.41s.06-.24,0-.38c-.05-.14-.08-.35-.08-.35,0,0,.17,.22,.14,.16-.03-.05,0-.49,0-.49,0,0,.12,.25,.14,.31,.03,.05,.13,.21,.13,.21v-.19l.14,.12s-.31-.66-.45-.69c-.14-.03-.33,.22-.33,.22,0,0,.25-.43,.33-.43h.11l-.08-.46s.55,.76,.53,.65c-.03-.11-.25-.62-.28-.81-.03-.19-.11-.52-.11-.52,0,0,.19,.27,.25,.35,.05,.08,.22,.41,.22,.35s-.03-.68-.03-.68l.28,.6,.25-.71,.14,.68s.11-.33,.14-.46c.03-.14,.11-.14,.11-.14,0,0-.03,.57-.03,.62s-.05,.35-.05,.35c0,0,.25-.51,.3-.62,.06-.11,.28-.19,.28-.19,0,0-.11,.24-.14,.33-.03,.08-.33,.7-.28,.7s.28-.33,.42-.33,.39,.35,.33,.38c-.05,.03-.28-.11-.36-.11s-.75,.73-.64,.7c.11-.03,.5-.44,.5-.44,0,0-.14,.33-.08,.3,.06-.03,.47-.27,.47-.27,0,0-.61,.54-.53,.54s.42-.16,.42-.16l-.42,.52s.34-.22,.46-.22,.35,.09,.35,.09c0,0-.42,.03-.47,.05-.06,.03-.47,.62-.36,.57,.11-.05,.33-.3,.33-.3l-.14,.35,.58-.35-.81,.84s.56-.43,.64-.41c.08,.03,.47,.46,.47,.46,0,0-.5-.24-.56-.24s-.81,.95-.7,.89c.11-.05,.5-.27,.61-.27s.3,.49,.25,.49-.31-.14-.36-.14-.69,.38-.69,.38c0,0,.47-.08,.61-.11,.14-.03,.42,0,.53-.05,.11-.05,.42-.16,.42-.16,0,0-.32,.2-.49,.34-.17,.14-.46,.18-.46,.18l.53,.05s-.72,.22-.9,.29c-.16,.07-.28,.13-.4,.19,.08,0,.49-.02,.6-.02s.64,.08,.64,.08c0,0-.7,.11-.78,.11s-.19,.08-.19,.08l.75,.08-.5,.08s.36,.13,.45,.16c.08,.03,.33,.2,.33,.2,0,0-.64-.13-.78-.13s-.36,.03-.36,.03c0,0,.24,.01,.37,.08,.1,.04,.12,.1,.12,.1l-.36-.03s.25,.19,.33,.22c.08,.03,.17,.11,.17,.11l-.56-.05,.47,.35s-.5-.11-.58-.11h-.08s.25,.19,.3,.27c.06,.08,.11,.19,.11,.19,0,0-.22-.05-.33-.11-.11-.05-.3-.08-.3-.08l.25,.27-.42-.08,.22,.33-.42-.14s.19,.11,.19,.19-.08,.46-.14,.41c-.05-.05-.08-.27-.14-.35-.05-.08-.14-.14-.14-.14,0,0-.16-.07-.29-.08,.03,.05,.33,.24,.37,.3l-.53-.06s.5,.24,.42,.24-2.75-.22-2.92-.22-.97,.92-1.14,1c-.17,.08-.55,.54-.72,.57-.17,.03-.39,.14-.39,.14l-.31-.16Z"/><path class="cls-9" d="M40.57,29.52l-.33-.17c.06-.1,.64-.46,.94-.72,.17-.15,.33-.33,.5-.51,.13-.14,.27-.29,.42-.44,.14-.13,.25-.2,.34-.25,.14-.08,.23-.14,.32-.35,.12-.27,.11-.42,.09-.62,0-.08-.01-.17-.01-.27,.17-.04,.22,.07,.28,.19,0-.03,.03-.09,.05-.14,.05-.14,.07-.17,.11-.17,.04,.29,.04,.57,.05,.6-.02-.09,.22-.61,.22-.61,0,0,0,0,0,.01,.01,0,.01,.03,0,.06,.02,.17,0,.37-.01,.49,.05-.14,.21-.36,.23-.39l.06,.41c.03-.11,.14-.33,.18-.51,.1-.03,.13,.03,.18,.11,.02,.04,.06,.1,.07,.11,0-.02,.02-.12,.04-.2,.05-.21,.08-.33,.16-.33,.13,.07,.18,.29,.19,.33-.1-.54-.12-1.49-.05-1.56l.33,.07-.05-.56s.18,.33,.26,.57c-.03-.18-.06-.41-.09-.5-.06-.17-.11-.5-.11-.5,.06-.03,.26,.24,.36,.38-.09-.18-.24-.61-.28-.65,0,.01-.08,.09-.16,.18-.05-.09-.03-.15,0-.22,.1-.28,.14-.4,.21-.4,.12,0,.24,.36,.25,.39h0c-.13-.1-.22-.29-.26-.3-.02,.02-.09,.22-.13,.34h0s.08-.07,.11-.07c.12,0,.32,.82,.32,.83-.08-.04-.23-.22-.32-.34,.03,.1,.06,.24,.1,.33,.04,.11,.12,.73,.08,.78-.11-.1-.33-.8-.33-.8l.08,.58-.33-.04c0,.06,0,.82,.03,1.5-.1-.08-.15-.23-.2-.26,0,.02-.04,.18-.07,.27-.03,.12-.05,.2-.07,.23-.1,.03-.14-.03-.19-.12-.02-.04-.05-.1-.07-.11,0,.22-.2,.54-.21,.55v-.03s-.01-.02,0-.03l-.07-.42c-.03,.17-.21,.42-.22,.47-.08,0-.09,0-.03-.43-.06,.16-.15,.35-.18,.4-.07,0-.09-.02-.08-.41-.06,.15-.08,.19-.12,.19-.12-.19-.16-.26-.23-.26,.04,.06,.05,.15,.06,.23,.02,.21,.03,.38-.1,.66-.11,.24-.22,.31-.35,.39-.09,.06-.19,.12-.32,.25-.15,.14-.28,.29-.41,.43-.17,.19-.33,.36-.51,.52-.31,.28-.9,.63-.95,.66l.28,.08c.05-.02,.24-.11,.39-.13,.08-.01,.26-.18,.4-.31,.12-.11,.24-.22,.31-.26,.06-.03,.26-.22,.44-.41,.37-.37,.61-.6,.72-.6,.1,0,1.03,.07,1.84,.14,.44,.03,.83,.06,.99,.08-.09-.03-.23-.1-.35-.16h.46s-.08-.06-.12-.09c-.13-.09-.18-.14-.2-.17,.17-.05,.33,.02,.34,.02,0,0,.1,.06,.16,.15,.03,.04,.05,.12,.07,.19,.02,.06,.04,.14,.06,.16,0-.04,.07-.3,.07-.38,0-.03-.09-.11-.17-.15h.01s.1,0,.15,.02l.29,.04-.27-.26,.46,.02-.29-.2c.04-.07,.24-.04,.35,.02,.06,.03,.17,.06,.24,.08-.02-.03-.05-.07-.07-.1-.04-.06-.23-.21-.3-.26l-.1-.08h.21c.09,0,.54,.1,.59,.11l-.51-.28,.47-.02s-.05-.02-.07-.03c-.09-.03-.32-.2-.35-.22l.31-.04s-.04-.02-.06-.03c-.12-.06-.35-.08-.36-.08,0-.08,.22-.12,.36-.12,.09,0,.39,.06,.6,.1-.07-.03-.13-.07-.16-.08-.08-.03-.45-.16-.45-.16h.02s.03-.02,.05-.02h0l.43-.14h-.75c0-.08,.1-.16,.2-.16,.05,0,.34-.04,.55-.07-.16,0-.35-.03-.41-.03s-.2,0-.34,.01c-.12,0-.23,0-.27,0l.02-.04-.02-.04h.04l.02-.03c.09-.05,.19-.1,.32-.15,.18-.07,.91-.29,.91-.29l-.35,.02,.37-.02c0,.08-.71,.3-.89,.37-.08,.04-.16,.07-.22,.1,.02,0,.05,0,.08,0,.14,0,.28-.01,.34-.01,.11,0,.65,.08,.65,.08,0,.08-.7,.19-.79,.19-.06,0-.14,.05-.17,.07h.73s-.42,.15-.42,.15c.11,0,.31,.08,.37,.1,.09,.03,.32,.18,.34,.2-.25,.03-.69-.06-.8-.06-.02,0-.04,0-.06,0,.03,0,.06,.02,.09,.04,.11,.04,.14,.11,.14,.12l-.4,.03h0c.13,0,.29,.12,.35,.14,.09,.03,.18,.11,.18,.12h-.03s-.05,.02-.09,0h-.47s.5,.29,.5,.29c-.21,.03-.48-.02-.58-.03,.06,.04,.19,.14,.23,.2,.06,.08,.11,.19,.11,.19-.06,.05-.28,0-.39-.05-.1-.05-.29-.08-.29-.08l.29,.2h-.46s.26,.25,.26,.25l-.3-.05s.08,.08,.08,.12c0,0-.05,.45-.17,.45-.08-.05-.1-.13-.12-.21-.02-.06-.04-.13-.06-.17-.05-.07-.12-.12-.13-.12h0s-.06-.03-.13-.05c.03,.02,.06,.04,.08,.05,.1,.08,.17,.12,.19,.16h-.57c.49,.15,.48,.18,.47,.21-.09,.04-.57,0-1.13-.05-.78-.06-1.74-.13-1.84-.13-.08,0-.43,.35-.66,.58-.24,.24-.39,.39-.46,.42-.07,.03-.18,.14-.29,.24-.17,.16-.33,.31-.44,.33-.16,.03-.37,.13-.38,.13h-.02Zm6.73-4.52c0-.08,.28-.12,.44-.25,.05-.04,.12-.09,.19-.14-.03,.01-.06,.02-.08,.03-.08,.04-.2,.04-.33,.04-.08,0-.15,0-.21,.01-.14,.03-.61,.11-.61,.11h.01s.02-.04,.05-.06c.26-.23,.57-.4,.62-.4,.04,0,.1,.03,.2,.07,.06,.03,.14,.06,.16,.06-.02-.04-.19-.4-.25-.4-.08,0-.37,.15-.5,.22l-.09,.05c-.07-.1,.58-.97,.68-.97,.06,0,.42,.17,.57,.25-.24-.14-.46-.37-.5-.38-.05,0-.36,.21-.6,.4h0c.02-.06,.08-.13,.16-.2l.59-.71-.53,.42,.06-.3c-.06,.09-.18,.21-.25,.25-.1-.12,.27-.62,.33-.64,.03-.02,.16-.03,.29-.04-.05,0-.1-.02-.14-.02-.07,0-.31,.13-.44,.22h0s.02-.07,.06-.11l.25-.4c-.08,.08-.27,.16-.34,.16-.05-.05-.07-.09,.22-.36-.07,.04-.13,.08-.15,.09-.06-.03-.09-.06-.01-.25-.09,.15-.32,.37-.41,.39-.06-.15,.53-.79,.63-.79,.05,0,.12,.03,.19,.06,.06,.02,.12,.05,.15,.05-.02-.04-.22-.3-.32-.3-.07,0-.18,.12-.26,.2-.08,.09-.12,.12-.15,.12-.06-.06-.04-.14,.16-.58,.04-.09,.07-.15,.08-.18,.02-.06,.08-.2,.12-.28-.05,.06-.15,.12-.18,.18-.05,.11-.3,.62-.3,.62-.08-.03-.02-.32-.02-.37,0-.04,.02-.39,.02-.55,0,.02-.02,.04-.03,.07-.03,.14-.14,.47-.14,.47v-.02s-.03-.03-.03-.06l-.19-.6-.17,.71-.31-.51c.04,.17,.06,.54,.06,.58-.08,.05-.09,.04-.21-.18-.03-.06-.07-.12-.08-.14l-.14-.2c.03,.1,.06,.24,.08,.33,.02,.12,.12,.37,.19,.56,.04,.11,.08,.21,.09,.25-.07,.06-.11,.06-.6-.62l.16,.43-.15,.05s-.08,.08-.14,.17c.04-.02,.08-.04,.12-.04,.18,.03,.44,.56,.51,.72l-.21-.07v.02s-.01-.05-.01-.05l.21,.09c-.21-.26-.41-.6-.49-.62h0c-.11,0-.25,.15-.29,.2,0,0,0,0,0,0-.02-.03,0-.08,.04-.13,.07-.2,.19-.36,.26-.36h.11l-.12-.41c.19,.18,.37,.38,.48,.5-.01-.03-.02-.05-.03-.08-.08-.2-.17-.46-.19-.58-.03-.19-.11-.51-.11-.51h.01s.05,.03,.07,.08l.25,.24s.05,.09,.09,.15c.03,.06,.08,.14,.1,.18-.05-.11-.07-.63-.07-.63v.02s.04,.02,.05,.06l.31,.5,.17-.7,.19,.6c0-.11,.07-.28,.08-.38,.04-.17,.15-.17,.15-.17,.04,.04,.01,.61,.01,.67,0,.02,0,.07-.02,.12,.06-.16,.16-.35,.19-.42,.06-.12,.28-.2,.3-.21,.05,.06-.06,.3-.09,.38,0,.02-.04,.1-.08,.18-.05,.1-.13,.29-.17,.4,.01-.01,.02-.02,.03-.04,.1-.11,.22-.23,.32-.23,.15,0,.36,.28,.38,.38l-.07,.08s-.11-.03-.19-.06c-.06-.02-.13-.05-.16-.05-.07,.03-.59,.58-.61,.66,.03-.06,.28-.3,.44-.47,.02,.16-.03,.29-.02,.32,0-.05,.42-.29,.42-.29,0,0,0,0,0,0,.01,.02-.03,.07-.08,.11-.18,.23-.37,.42-.39,.46,.02-.04,.23-.14,.37-.2l-.02,.03s0,.02-.02,.03l-.26,.42c.1-.09,.27-.18,.36-.18,.12,0,.35,.09,.36,.09,0,0-.01,0-.02,0,0,.01-.03,.02-.06,.02-.19,.07-.36,.09-.39,.1-.05,.03-.35,.46-.36,.53,.04-.07,.22-.26,.28-.32v.02s0,.05-.02,.08l-.05,.3,.52-.4-.59,.71c.15-.14,.36-.28,.44-.28,.11,.03,.42,.37,.51,.48-.28-.05-.55-.17-.59-.17-.05,.04-.46,.54-.61,.76,.22-.11,.44-.22,.53-.22,.14,0,.3,.42,.3,.51-.09,.06-.15,.04-.25-.01-.06-.03-.14-.06-.16-.06-.04,0-.29,.15-.52,.28,.14-.04,.34-.08,.43-.09,.06-.01,.14-.01,.22-.02,.11,0,.24,0,.3-.03,.11-.06,.42-.16,.42-.16,.04,.07-.28,.28-.45,.41-.17,.13-.44,.18-.48,.19h-.01Zm-2.01-1.67l-.23-.83,.26,.33c-.01-.07,0-.21-.03-.29-.06-.14-.09-.35-.09-.36,.05-.02,.11,.04,.16,.08-.04-.1-.03-.31-.02-.41,.08,0,.2,.24,.22,.29,.02,.04,.1,.16,.12,.19v.03c-.07,.03-.17-.13-.2-.19-.03-.05-.14-.31-.14-.31,.07,.18,.06,.42,.07,.45-.04,.05-.06,.06-.12,0,.02,.06,.04,.14,.06,.2,.06,.15,0,.39,0,.41l-.3-.4,.22,.82h0Z"/><path class="cls-9" d="M42.88,27.32l-.06-.06c.14-.14,.36-.38,.39-.45,.04-.09,.06-.17,.06-.17,.08,.02,.06,.1,.02,.2-.04,.1-.37,.44-.4,.47h0Z"/><path class="cls-9" d="M43.05,27.39l-.05-.07c.28-.18,.46-.65,.46-.66,.07,.05-.11,.53-.42,.73h0Z"/><path class="cls-9" d="M43.56,27.19l-.05-.07c.1-.07,.21-.34,.25-.44,.07,.04-.05,.41-.2,.51h0Z"/><path class="cls-9" d="M43.64,27.4l-.05-.07c.52-.36,.51-1.03,.51-1.04,.08,.03,.09,.72-.47,1.11h0Z"/><path class="cls-9" d="M43.98,27.42l-.06-.06c.51-.57,.51-1.37,.51-1.38,.08,.03,.09,.84-.45,1.44h0Z"/><path class="cls-9" d="M44.14,27.5l-.04-.07c.42-.22,.43-1.25,.43-1.36l.08-.08c0,.27-.02,1.27-.47,1.51h0Z"/><path class="cls-9" d="M44.82,26.77c0-.62-.2-1.09-.2-1.1,.09,.01,.28,.46,.29,1.09h-.08Z"/><path class="cls-9" d="M45.05,26.54h-.08c.02-.7-.25-1.15-.25-1.16,.08-.04,.35,.43,.33,1.16h0Z"/><path class="cls-9" d="M45.11,26.49h-.08c.16-1.56-.17-1.74-.17-1.74,.07-.06,.42,.13,.26,1.74h0Z"/><path class="cls-9" d="M45.35,25.8h-.08c.06-.67-.13-.91-.13-.92,.07-.04,.27,.22,.21,.92h0Z"/><path class="cls-9" d="M45.57,25.34h-.08c.07-.5-.24-1.15-.24-1.16h0c.09,0,.39,.65,.32,1.16h0Z"/><path class="cls-9" d="M45.58,26.26l-.05-.07c.62-.41,1.04-.59,1.21-.53-.11,.06-.37,.08-1.16,.6h0Z"/><path class="cls-9" d="M45.3,26.84l-.05-.07c1.25-.86,1.51-.67,1.54-.65-.06,.06-.31-.09-1.49,.72h0Z"/><path class="cls-9" d="M46.77,26.57c-.07,0-.24-.05-.83-.02v-.08c.5-.03,.8,0,.88,.09-.01,.01-.03,.01-.05,.01h0Z"/><path class="cls-9" d="M46.31,27.04c-.05,0-.19-.08-.67-.05v-.08c.35-.03,.6,.01,.7,.11,0,.02-.02,.03-.03,.03h0Z"/><path class="cls-9" d="M45.99,24.71l-.06-.05c.85-.97,1.03-1.05,1.05-1.06,.02,.08-.16,.17-.99,1.11h0Z"/><path class="cls-9" d="M45.96,24.95l-.05-.07c.86-.56,.97-.65,.97-.65,.05,.07-.05,.14-.92,.72h0Z"/><path class="cls-9" d="M45.87,25.41l-.06-.06c.64-.62,.93-.66,.94-.66,0,.08-.27,.12-.88,.72h0Z"/><path class="cls-9" d="M45.87,25.69l-.05-.06c1.11-.87,1.58-.7,1.6-.7-.03,.08-.49-.07-1.55,.76h0Z"/><path class="cls-9" d="M45.71,25.95l-.05-.07c.46-.3,.69-.36,.83-.4l.12,.05c-.23,.07-.45,.13-.9,.42h0Z"/><path class="cls-9" d="M46.27,22.41c-.2-1.01-.33-1.44-.33-1.44,.11,.02,.21,.42,.41,1.43l-.08,.02h0Z"/><path class="cls-9" d="M46.41,22.43c-.08-.02,.04-.47,.05-.56,0-.09-.06-.67-.27-.99l.07-.05c.22,.34,.29,.94,.28,1.04-.01,.1-.13,.55-.13,.55h0Z"/><path class="cls-9" d="M46.6,21.31c-.07,0-.13-.16-.09-.66h.08c-.04,.51,.02,.65,.03,.66,0,0-.01,0-.02,0h0Z"/><path class="cls-9" d="M46.57,21.89l-.07-.04c.13-.23,.29-.72,.29-.73,.07,.05-.08,.53-.22,.77h0Z"/><path class="cls-9" d="M46.26,23.03c.01-.09,.07-.21,.21-.55,.14-.33,.33-.77,.45-1.08l.08,.03c-.12,.32-.31,.75-.45,1.09-.11,.25-.19,.45-.2,.48l-.09,.04h0Z"/><path class="cls-9" d="M46.28,23.62l-.07-.04c.64-1.26,.85-1.43,.86-1.44,.04,.07-.16,.25-.78,1.48h0Z"/><path class="cls-9" d="M46.3,23.82l-.07-.05c.72-1,.83-1.25,.83-1.26,.07,.04-.03,.29-.76,1.31h0Z"/><path class="cls-9" d="M46.17,24.28l-.07-.05c.83-1.06,1.15-1.18,1.17-1.18,.02,.08-.29,.2-1.1,1.23h0Z"/><path class="cls-9" d="M45.68,24.83c-.1-.91-.46-1.42-.46-1.43,.09-.03,.45,.48,.55,1.42h-.08Z"/><path class="cls-9" d="M45.83,24.34c-.08,0-.15-.79-.55-1.42l.07-.04c.41,.65,.48,1.46,.48,1.47h0Z"/><path class="cls-9" d="M45.92,23.98c-.08-.02,.04-.63-.58-1.64l.07-.04c.64,1.05,.51,1.66,.51,1.69h0Z"/><path class="cls-9" d="M46.02,24.29c-.08-.03,.15-.85-.41-1.92l.07-.04c.58,1.1,.35,1.92,.34,1.96h0Z"/><path class="cls-9" d="M46.17,23.51c-.08,0-.07-.39-.38-1.19l.08-.03c.33,.82,.31,1.21,.31,1.23h0Z"/><path class="cls-9" d="M46.24,22.77c-.08-.04,.1-.51-.82-1.37l.06-.06c.97,.91,.78,1.42,.77,1.44h0Z"/><path class="cls-9" d="M45.39,26.59c-.08-.03,.05-.37,.06-.5,0-.04,.01-.12,.03-.21-.05,.13-.13,.31-.23,.56l-.08-.03c.33-.76,.37-.89,.37-.9,0,0,.01,0,.02,.01,.01,0,.02,.03,.02,.06,.01,.13-.03,.42-.04,.52-.01,.14-.13,.48-.14,.49h0Z"/><path class="cls-9" d="M45.9,27.41c-.13,0-.77-.35-1.37-.24l-.02-.08c.68-.13,1.38,.29,1.41,.31,0,0-.01,0-.02,0h0Z"/><path class="cls-9" d="M45.43,27.49c-.16,0-.5-.06-.99-.1v-.08c.7,.06,1.09,.15,1.09,.15,0,.02-.04,.03-.1,.03h0Z"/><path class="cls-9" d="M46.15,27.24c-.18,0-1.1-.34-1.42-.36v-.08c.37,.02,1.41,.42,1.45,.43,0,0-.01,0-.03,0h0Z"/><path class="cls-10" d="M43.05,26.97c-.07-.05-.04-.09,0-.21,.05-.13,.04-.36,.04-.36h.08s.01,.25-.05,.39c-.05,.13-.08,.18-.09,.18h0Z"/><path class="cls-11" d="M42.65,29.51c-.91-.45-1.88-1.71-2.1-1.76-.21-.05-2.43,.32-2.41,.26,.02-.06,.06-.38,.17-.55,.1-.16,.37-.32,.33-.32s-.6,.02-.6,.02c0,0-.25,.3-.35,.34-.1,.04-.56,.08-.66,.14-.11,.06-.29,.24-.29,.24,0,0-.04-.22-.04-.28s.08-.18,.08-.18c0,0-.52,.02-.46,0,.06-.02,.08-.16,.17-.26,.08-.1,.19-.22,.33-.26,.15-.04,.29-.08,.29-.08l-.25-.12s.25-.12,.31-.12,.31-.06,.31-.06c0,0-.19-.2-.19-.28s-.19,.3-.33,.34c-.15,.04-.44,.08-.58,.08s-.35,.22-.35,.22c0,0-.06-.22-.04-.3,.02-.08,.1-.12,.1-.12l-.23,.02s.06-.3,.08-.34c.02-.04,.12-.22,.12-.22,0,0-.17-.12-.21-.2-.04-.08-.1-.28-.1-.28h.44c.1,0,.37,.12,.37,.12,0,0-.1-.16-.1-.22s-.08-.2-.04-.2,.33,.18,.33,.18c0,0-.08-.38-.21-.47-.12-.08-.69-.18-.79-.32-.1-.14-.25-.65-.29-.77-.04-.12-.17-.18-.17-.18h.33s-.04-.2-.06-.32c-.02-.12,.04-.3,.04-.3,0,0,.14,.24,.23,.24s.21,.14,.21,.14l.02-.14,.25,.32s.02-.22,.06-.26c.04-.04,.14-.08,.14-.08,0,0,.02,.14,.04,.18,.02,.04,.14,.34,.14,.4s-.04,.73-.04,.79,.25,.53,.25,.53v-.49c0-.12-.14-.38-.12-.49,.02-.1,.04-.26,.04-.26,0,0,.12,.22,.17,.24,.04,.02,.17,.24,.17,.24l.14-.26s-.35-.28-.39-.4c-.04-.12-.08-.38-.08-.38,0,0-.25-.12-.33-.2-.08-.08-.42-.65-.42-.65h.12s-.12-.26-.12-.38,.02-.36,.02-.36c0,0,.12,.1,.14,.14,.02,.04,.19,.06,.19,.06,0,0-.25-.55-.25-.77s.33-.65,.33-.65l.17,.26,.33-.49s.14,.22,.14,.28v.26s.21,.02,.25,.02,.14,.08,.14,.08c0,0-.17,.06-.23,.12-.06,.06-.12,.32-.19,.34s-.33,.2-.39,.26c-.06,.06-.12,.42-.12,.42,0,0,.21,.28,.23,.38,.02,.1,.04,.36,.04,.36,0,0,.1,.12,.19,.1,.08-.02,.17-.14,.15-.22-.02-.08-.25-.28-.27-.38-.02-.1,.02-.77,.02-.77l.33,.18s.19-.18,.23-.28c.04-.1,.11-.38,.11-.38l.14,.42s.1-.18,.21-.22c.1-.04,.31-.16,.31-.16,0,0-.08,.24-.08,.28s.02,.75-.02,.83c-.04,.08-.58,.59-.62,.63-.04,.04-.04,.34-.04,.34l.39-.34s.04,.18,.06,.28c.02,.1,.02,.2,.02,.2,0,0,.21-.06,.27-.1,.06-.04,.19,.04,.19,.04,0,0-.06,.16-.1,.2-.04,.04-.19,.42-.25,.49-.06,.06-.44,.2-.48,.26-.04,.06-.35,.41-.44,.53-.08,.12-.08,.36-.08,.36,0,0,.12-.36,.23-.45,.1-.08,.35-.36,.35-.36l.06,.3s.23-.16,.31-.18c.08-.02,.52-.12,.52-.12,0,0-.29,.24-.29,.3s-.04,.38-.15,.47c-.1,.08-.6,.38-.64,.4-.04,.02-.08,.18-.08,.24s.06,.14,.06,.14c0,0,.06-.14,.15-.22,.08-.08,.06-.26,.06-.26,0,0,.19,.18,.21,.26,.02,.08,.04,.51,.02,.61-.02,.1-.04,.34,0,.4,.04,.06,.23,.26,.27,.26s-.25-.53-.21-.77c.04-.24,.21-.4,.25-.53,.04-.12,.05-.24,.05-.24,0,0,.18,.21,.22,.31,.06-.08,.12-.14,.2-.19,.04,.05,.18,.42,.21,.53,.07-.11,.16-.23,.24-.31,.08,.11,.19,.41,.16,.56-.06,.19-.15,.34-.28,.42-.12,.08-.23,.12-.23,.12,0,0,.29,.1,.37,.1s.21,.06,.21,.06l-.46,.14s.56,.06,.56,.02,0-.26-.06-.38c-.06-.12-.08-.26-.08-.26,0,0,.19,.06,.27,.06s.23,.02,.23-.02-.17-.36-.12-.36,.58,.49,.58,.4,.23-.51,.23-.51c0,0,.2,.37,.22,.43,.02,.06,.03,.22,.03,.36s-.15,.34-.15,.34c0,0,.29,.45,.48,.61,.19,.16,.69,.85,1.22,1.17,.28,.16,.29,.16,.52,.28l-.23,.3Z"/><path class="cls-9" d="M42.65,29.55h-.02c-.58-.3-1.17-.89-1.6-1.33-.23-.23-.42-.43-.49-.44-.27,0-.9,.08-1.45,.16-.43,.06-.82,.11-.93,.11l-.03-.03v-.09c.02-.13,.06-.34,.14-.47,.07-.1,.19-.2,.27-.27,.04-.02-.52,0-.52,0,0,.02-.24,.3-.34,.34-.05,.02-.15,.03-.27,.05-.15,.02-.33,.05-.39,.09-.1,.06-.28,.24-.29,.24-.04-.01-.08-.24-.08-.3,0-.05,.05-.14,.07-.18-.05,.02-.22,.03-.33,.03h-.07c.21-.05,.43-.06,.43-.06,0,.08-.06,.17-.06,.21,0,.05,.03,.21,.04,.26,.02-.05,.16-.19,.26-.24,.06-.04,.24-.07,.41-.09,.11-.02,.22-.04,.26-.05,.08-.03,.27-.25,.34-.34,.02,0,.58-.03,.62-.03v.02s-.05,.09-.05,.09c-.07,.06-.2,.16-.26,.25-.08,.12-.12,.33-.14,.45,.09,.06,.48,0,.9-.05,.55-.08,1.16-.16,1.39-.16,.16,.03,.33,.2,.59,.46,.42,.43,1,1.01,1.57,1.3l.22-.29-.16-.05c-.1-.05-.16-.08-.35-.2-.38-.23-.75-.65-.99-.92-.1-.12-.18-.21-.24-.25-.19-.16-.47-.59-.48-.61,0-.03,.14-.23,.14-.36,0-.17-.01-.3-.03-.35-.02-.06-.22-.43-.22-.43-.04,.16-.18,.44-.18,.49-.08,.04-.18-.04-.41-.22-.08-.07-.19-.15-.21-.16,.02,0,.07,.12,.1,.19,.04,.1,.06,.13,.06,.15v.03l-.11,.03h-.14c-.07,0-.2-.04-.25-.06,.02,.03,.05,.13,.09,.22,.06,.11,.06,.3,.06,.4v.03h-.11c-.16,.01-.48-.02-.48-.02h.01s.02-.02,.05-.02l.35-.15s-.11-.03-.16-.03c-.09,0-.37-.1-.38-.1,0-.05,.1-.09,.22-.17,.11-.08,.21-.21,.26-.4,.03-.13-.08-.42-.16-.54-.04,.08-.13,.2-.2,.31-.09-.14-.21-.48-.25-.53-.05,.05-.1,.11-.16,.19-.06-.07-.18-.21-.23-.27,0,.04,0,.12-.04,.2-.02,.05-.05,.1-.08,.16-.06,.1-.14,.22-.16,.37-.02,.15,.09,.43,.16,.6,.06,.14,.06,.16,.05,.18-.09,.03-.3-.23-.32-.26-.05-.07-.02-.34,0-.42,.02-.1,0-.52-.02-.6-.01-.05-.11-.16-.17-.22,.02,.06,0,.17-.06,.23-.08,.08-.14,.21-.14,.21-.05,0-.11-.08-.11-.15,0-.06,.04-.24,.1-.27,.04-.02,.54-.32,.64-.4,.09-.07,.14-.38,.14-.45s.21-.25,.3-.32l-.5,.17c-.06,.02-.24,.13-.3,.18l-.1-.31c-.01,.06-.22,.29-.31,.37-.08,.06-.19,.33-.22,.43-.05-.02-.05-.26,.04-.39,.05-.07,.18-.22,.28-.34,.07-.08,.14-.16,.15-.18,.02-.04,.12-.08,.26-.15,.09-.04,.19-.09,.22-.12,.03-.03,.09-.16,.14-.27,.06-.12,.09-.19,.11-.21,.03-.03,.08-.15,.1-.19-.01,.02-.07-.02-.12-.02-.09,.05-.3,.11-.31,.11-.03-.03-.03-.13-.05-.22-.02-.1-.06-.28-.06-.28l-.35,.36c-.04-.11-.04-.34,0-.38,.4-.38,.59-.58,.62-.62,.01-.02,.03-.16,.02-.77,0-.07,.05-.22,.07-.3-.05,.05-.19,.13-.27,.16-.08,.03-.17,.16-.19,.21l-.17-.39c0,.08-.04,.27-.08,.34-.04,.11-.23,.28-.23,.29l-.36-.18c.03,.16,0,.66,.02,.74,0,.05,.08,.13,.14,.21,.06,.07,.11,.13,.12,.18,.01,.04,0,.09-.03,.14-.03,.06-.09,.1-.14,.11-.11,0-.2-.1-.21-.11,0-.01-.03-.28-.05-.38-.02-.08-.17-.3-.22-.37,0-.06,.06-.39,.13-.46,.06-.06,.34-.25,.4-.27,.02,0,.06-.1,.09-.16,.03-.07,.06-.14,.09-.17,.07-.06,.23-.12,.24-.13-.05,0-.12-.03-.14-.03-.04,0-.25-.02-.25-.02l-.02-.29s-.08-.18-.14-.27l-.29,.49-.21-.26s-.29,.43-.29,.63c0,.21,.25,.75,.25,.76-.08,.03-.21,0-.23-.04-.01-.02-.07-.08-.12-.12,.02,.05,0,.23,0,.33,0,.11,.12,.37,.12,.37l-.15,.04c.14,.16,.37,.54,.43,.6,.08,.08,.32,.2,.33,.2,.01,.02,.05,.28,.1,.4,.03,.09,.29,.31,.39,.39l-.14,.3c-.1-.1-.18-.22-.2-.23-.03-.02-.1-.13-.15-.2,0,.05,0,.14-.02,.21,0,.05,.03,.15,.06,.24,.03,.09,.06,.18,.06,.24v.49c-.11-.1-.3-.46-.3-.53,0-.03,.01-.21,.02-.4,.01-.18,.02-.36,.02-.39,0-.05-.12-.34-.14-.39-.02-.04-.04-.16-.04-.19,0,.03-.07,.06-.1,.09-.02,.02-.04,.14-.05,.25l-.29-.31,.02,.13c-.09-.04-.18-.12-.23-.12-.08,0-.19-.16-.23-.23,0,.05-.03,.17-.01,.26l.06,.32-.29,.03s.1,.08,.13,.15l.04,.12c.06,.19,.17,.53,.25,.64,.06,.08,.3,.15,.49,.21,.13,.04,.24,.07,.29,.11,.13,.09,.21,.47,.22,.48-.17-.06-.33-.15-.36-.15,.05,.1,.07,.15,.07,.18,0,.04,.06,.15,.1,.21-.11,0-.32-.08-.4-.08h-.42s.08,.18,.11,.25c.03,.06,.16,.16,.2,.19,0,.03-.1,.21-.12,.25-.01,.03-.06,.22-.08,.34l.2-.05s-.06,.09-.08,.16c-.02,.06,.02,.21,.04,.28,.01-.05,.19-.23,.33-.23s.43-.04,.58-.08c.08-.02,.18-.17,.24-.25,.06-.08,.07-.1,.1-.1,.03,.09,.14,.23,.21,.3-.04,.05-.27,.11-.33,.11-.04,0-.21,.07-.3,.12l.25,.07-.3,.13c-.14,.04-.24,.16-.32,.25-.03,.04-.06,.09-.08,.14-.03,.06-.05,.11-.09,.13h-.05c.05-.05,.07-.1,.09-.15,.02-.05,.05-.1,.09-.15,.08-.1,.19-.23,.34-.27l.29-.08-.25-.07c.04-.07,.26-.17,.32-.17,.05,0,.24-.04,.3-.06-.05,0-.17-.13-.2-.23,0,.02-.02,.04-.04,.06-.07,.1-.17,.25-.27,.28-.15,.04-.44,.08-.59,.08-.11,0-.28,.16-.33,.21-.05-.03-.11-.24-.08-.33,.02-.09,.11-.14,.12-.14l-.21,.07c-.02-.08,.04-.34,.06-.38,.02-.04,.11-.19,.12-.22,0,.01-.17-.1-.21-.18-.04-.08-.11-.29-.11-.29l.46-.03c.08,0,.26,.07,.34,.11-.05-.04-.09-.13-.09-.18l-.05-.21c.08-.02,.29,.12,.38,.17-.06-.08-.14-.36-.23-.42-.04-.03-.16-.06-.28-.1-.21-.06-.45-.14-.52-.23-.08-.12-.19-.45-.25-.65l-.04-.12c-.04-.11-.15-.17-.15-.17h.01s.02-.02,.05,0l.28-.04-.09-.29c-.02-.13,.04-.31,.04-.32,.1,.09,.21,.23,.25,.23,.09,0,.21,.14,.23,.15l-.02-.13,.28,.3s0-.21,.03-.26c.04-.04,.15-.08,.15-.09,.04,.07,.06,.17,.08,.2,.01,.03,.15,.35,.15,.42,0,.03-.01,.21-.02,.4-.01,.18-.02,.36-.02,.39,0,.04,.13,.29,.25,.51l-.05-.47c0-.05-.03-.14-.06-.22-.04-.11-.07-.21-.06-.27,.02-.1,.04-.26,.04-.26,.11,.09,.18,.21,.2,.22,.04,.02,.15,.2,.18,.25l.1-.26s-.35-.26-.4-.38c-.04-.12-.08-.38-.08-.39,.01,.02-.24-.11-.32-.19-.09-.08-.41-.63-.42-.65l.14-.04s-.14-.24-.14-.36,.02-.37,.02-.37h0c.06,0,.17,.09,.19,.13,0,.01,.09,.04,.16,.04-.05-.02-.27-.53-.27-.74,0-.23,.32-.65,.34-.66l.21,.27,.29-.49c.07,.04,.19,.23,.19,.3v.26s.19,0,.22,0c.05,0,.13,.07,.16,.09,0,.05-.17,.11-.23,.16-.02,.02-.05,.09-.08,.16-.05,.11-.08,.18-.12,.19-.06,.02-.32,.2-.38,.26-.04,.04-.09,.27-.12,.41h0s.21,.27,.23,.37c.02,.1,.04,.37,.04,.37,.02,.01,.09,.08,.14,.08,.05,0,.09-.04,.12-.09,.02-.04,.03-.08,.02-.1,0-.03-.06-.09-.11-.16-.07-.08-.14-.17-.16-.23-.02-.1,.02-.75,.02-.78l.37,.16s.16-.18,.19-.27c.04-.1,.1-.38,.1-.38v.02s.02,.01,.02,.02l.17,.36c0-.05,.09-.18,.18-.22,.1-.04,.31-.16,.31-.16,0,.15-.04,.28-.04,.31,.01,.54,0,.79-.02,.84-.04,.07-.33,.35-.58,.59-.06,.06-.08,.23-.08,.37l.35-.36s.09,.2,.1,.3c.02,.1,.02,.2,.02,.21,.02-.04,.18-.09,.23-.12,.13-.02,.21,.04,.22,.04,0,.05-.06,.2-.1,.24-.02,.02-.06,.12-.1,.2-.07,.15-.12,.25-.15,.29-.03,.03-.12,.08-.23,.12-.09,.05-.22,.11-.24,.13-.02,.03-.08,.1-.16,.19-.1,.12-.23,.27-.28,.34-.04,.06-.06,.14-.07,.21,.03-.12,.11-.28,.18-.33,.1-.08,.35-.36,.35-.36l.1,.31s.2-.17,.28-.19l.52-.12c-.11,.16-.25,.3-.26,.33,0,.06-.04,.4-.16,.49-.07,.05-.29,.2-.46,.3,.08,.04,.2,.17,.22,.24,.02,.07,.04,.37,.03,.54,0,0,0-.02,0-.03,.03-.16,.11-.28,.17-.38,.04-.06,.07-.1,.08-.15,.04-.12,.05-.24,.05-.24,.06-.02,.23,.2,.27,.3,.02-.09,.08-.15,.16-.2,.08,.07,.22,.46,.25,.54,.02-.12,.12-.24,.2-.32,.12,.11,.24,.42,.21,.58-.06,.2-.16,.35-.29,.43-.13,.08-.23,.12-.23,.12,.08-.03,.3,.05,.36,.05,.09,0,.21,.06,.22,.06h-.02s-.01,.02-.02,.02l-.36,.15c.1-.01,.29,0,.4,0,.06-.15,.04-.29,0-.36-.06-.12-.08-.26-.08-.27,.04-.03,.22,.03,.3,.03h.14c.06,0,.03-.07,0-.13-.07-.17-.09-.22-.07-.24,.05-.01,.08,0,.26,.15,.11,.09,.3,.24,.34,.25-.02-.07,.18-.43,.22-.5,.05,0,.24,.37,.27,.43,.03,.08,.03,.3,.03,.37,0,.14-.14,.34-.15,.36h0s.3,.42,.47,.57c.06,.05,.14,.14,.24,.26,.24,.27,.61,.69,.98,.91,.19,.11,.25,.15,.35,.19l.17,.09-.23,.36h0Zm-4.69-3.41s0,.05,0,.07c-.02,.12-.04,.34,0,.38,.04,.06,.17,.2,.23,.24-.02-.02-.04-.07-.05-.11-.07-.17-.17-.41-.16-.58h0Zm-.29-.77c-.08,.05-.14,.08-.15,.09-.03,.01-.07,.15-.07,.22,0,.03,.03,.08,.04,.11,0-.04,.05-.14,.12-.21,.05-.05,.06-.16,.05-.21h0Z"/><path class="cls-9" d="M36.04,26.33l-.04-.04c.1-.11,.21-.12,.31-.14,.05,0,.1-.01,.14-.03,.12-.06,.35-.18,.35-.18,.02,.05-.2,.17-.33,.23-.05,.02-.1,.03-.16,.04-.09,.01-.19,.02-.27,.12h0Z"/><path class="cls-9" d="M36.24,26.46c0-.05,.26-.11,.35-.17,.04-.02,.1-.1,.16-.19,.11-.14,.24-.32,.4-.42l.03,.04c-.15,.09-.28,.27-.38,.41-.07,.1-.13,.17-.18,.2-.11,.06-.37,.12-.38,.12h0Z"/><path class="cls-9" d="M36.29,26.56v-.05c.09,0,.35-.03,.42-.09,.08-.08,.23-.19,.23-.19,.03,.04-.11,.14-.2,.22-.09,.08-.42,.11-.45,.11h0Z"/><path class="cls-9" d="M36.67,27.29v-.05c.34-.04,.77-.14,.79-.16,.04,.08-.68,.2-.79,.21h0Z"/><path class="cls-9" d="M37.03,27.52h-.03v-.05c.39,.03,.79-.39,.79-.4,.02,.05-.35,.45-.76,.45h0Z"/><path class="cls-9" d="M37.97,27.06c-.31,0-.63-.04-.84-.16l.03-.04c.49,.28,1.63,.1,1.65,.1-.02,.03-.41,.11-.83,.11h0Z"/><path class="cls-9" d="M38.41,26.77s.02-.13,.06-.82h.05c-.04,.82-.08,.82-.11,.82h0Z"/><path class="cls-1" d="M38.24,26.38c.02-.22,.04-.3,.04-.3l-.04,.3Z"/><path class="cls-1" d="M38.35,25.67s-.02,.28-.02,.28l.02-.28Z"/><path class="cls-9" d="M38.72,26.61l-.05-.02c.1-.19,.1-.37,.1-.37,.05,0,.05,.19-.05,.4h0Z"/><path class="cls-1" d="M38.68,26.11l-.02,.14,.02-.14Z"/><path class="cls-1" d="M39.03,26.25c-.08,.2-.12,.2-.12,.2l.12-.2Z"/><path class="cls-9" d="M40.08,27.01c-.07,0-.43-.35-.67-.47l.02-.05c.25,.12,.63,.5,.65,.51,0,0,0,0,0,0h0Z"/><path class="cls-9" d="M40.31,26.87c-.06,0-.23-.24-.42-.35l.03-.04c.21,.12,.39,.38,.4,.39,0,0,0,0,0,0h0Z"/><path class="cls-9" d="M40.41,27.22s.15-.36-.1-.62l.04-.04c.28,.29,.07,.65,.07,.66h0Z"/><path class="cls-1" d="M40.61,26.34l-.06,.49,.06-.49Z"/><path class="cls-9" d="M36.12,24.5c-.05,0-.17-.1-.24-.19-.05-.06-.06-.13-.07-.18,0-.05-.01-.09-.04-.12-.09-.14-.17-.27-.4-.33v-.05c.26,.07,.35,.21,.41,.31,.06,.09,.07,.14,.08,.19,0,.05,.02,.11,.06,.16,.08,.1,.22,.22,.22,.22,0,0-.01,0-.02,0h0Z"/><path class="cls-9" d="M36.58,24.83s-.13-.16-.18-.24h0l-.15-.07c-.06-.03-.11-.13-.17-.27-.02-.05-.04-.08-.05-.1v-.1c0-.14,0-.38-.4-.41v-.05c.45,.03,.44,.33,.44,.47,.02,.09,.04,.13,.06,.18,.04,.09,.1,.22,.14,.24,.11,.03,.13,.03,.18,.09,.06,.08,.15,.26,.15,.27,0,0,0,0,0,0h0Z"/><path class="cls-9" d="M35.88,23.63s-.02-.13-.13-.25c-.12-.13-.16-.16-.16-.16l.02-.05s.05,.03,.17,.17c.13,.15,.09,.28,.09,.29h0Z"/><path class="cls-9" d="M36.27,24.02c-.06,0-.23-.32-.13-.6l.05,.02c-.1,.27,.08,.58,.08,.58h0Z"/><path class="cls-9" d="M36.42,24.08s.13-.37-.1-.54l.03-.04c.26,.19,.07,.58,.07,.58h0Z"/><path class="cls-1" d="M36.38,24.25l-.02,.3,.02-.3Z"/><path class="cls-1" d="M37.04,23.36c.17,.08,.19,.3,.19,.3l-.19-.3Z"/><path class="cls-9" d="M37.36,25.05c-.05-.01-.05-.03,.06-.18,.1-.14,.25-.54,.25-.54l.05,.02s-.15,.41-.25,.55c-.09,.12-.1,.15-.1,.15h0Z"/><path class="cls-9" d="M37.31,25.47l-.05-.02c.15-.49,.4-.58,.41-.58,.01,.05-.22,.13-.36,.6h0Z"/><path class="cls-9" d="M37.55,25.11l-.02-.05c.42-.16,.75-.67,.76-.68,.03,.05-.3,.56-.74,.73h0Z"/><path class="cls-9" d="M36.08,26.01l-.03-.04c.31-.18,.41-.17,.52-.17,.05,0,.09,0,.15-.01,.2-.06,.3-.19,.3-.19,.04,.04-.07,.18-.28,.24-.07,.02-.12,.02-.17,.02-.09,0-.19,0-.49,.16h0Z"/><path class="cls-9" d="M36.54,25.73c-.08,0-.47-.19-.72-.14v-.05c.29-.06,.72,.18,.73,.19,0,0,0,0-.02,0h0Z"/><path class="cls-9" d="M36.94,25.6c-.05,0-.13-.27-.48-.31v-.05c.39,.04,.48,.36,.48,.36h0Z"/><path class="cls-9" d="M37.7,26.82c-.05,0-.14-.08-.76-.03v-.05c.69-.06,.77,.05,.77,.08,0,0,0,0,0,0h0Z"/><path class="cls-1" d="M37.5,26.15c-.02-.26-.02-.32-.02-.32l.02,.32Z"/><path class="cls-9" d="M37.33,24.51l-.04-.03c.31-.54,.65-.87,.65-.88,.03,.04-.3,.37-.6,.9h0Z"/><path class="cls-9" d="M37.93,23.85l-.03-.04c.16-.12,.49-.59,.49-.6,.03,.05-.29,.52-.46,.64h0Z"/><path class="cls-9" d="M37.41,23.81c-.01-.24-.03-.4-.05-.53-.03-.25-.04-.34,.05-.5,.07-.12,.18-.22,.27-.31,.08-.07,.15-.14,.17-.19,.08-.21,.14-.37,.14-.56,0-.25,.21-.46,.21-.46,.03,.04-.16,.23-.16,.46,0,.2-.07,.37-.11,.49-.05,.15-.13,.21-.21,.29-.09,.09-.2,.18-.26,.3-.08,.14-.07,.22-.04,.47,.01,.12,.03,.29,.05,.53h-.05Z"/><path class="cls-9" d="M37.42,23.37c-.06,0-.18-.48-.13-.65,.01-.05,.06-.1,.13-.17,.19-.19,.5-.5,.37-1.09h.05c.14,.6-.18,.93-.38,1.13-.06,.06-.11,.11-.12,.15-.04,.15,.08,.63,.08,.63h0Z"/><path class="cls-9" d="M36.78,22.98c-.06,0-.34-.27-.69-.51l.03-.04c.37,.26,.66,.55,.67,.55,0,0,0,0,0,0h0Z"/><path class="cls-9" d="M36.87,22.75c-.06,0-.18-.06-.28-.09-.06-.02-.13-.06-.19-.09-.06-.03-.13-.07-.15-.07v-.05s.1,.03,.18,.08c.06,.03,.13,.07,.18,.09,.13,.04,.29,.12,.29,.12,0,0-.02,.01-.03,.01h0Z"/><path class="cls-9" d="M36.67,22.54c-.05-.01-.03-.1-.11-.21-.02-.04-.07-.08-.13-.12-.13-.11-.3-.25-.33-.45h.05c.03,.18,.19,.31,.31,.41,.06,.05,.11,.09,.14,.13,.09,.13,.07,.24,.07,.24h0Z"/><path class="cls-9" d="M37.24,22.43c-.02-.32,.04-.75,.04-.75,.05,.01,0,.43,.01,.75h-.05Z"/><path class="cls-9" d="M37.48,22.32s.12-.37,.12-.76h.05c0,.41-.16,.75-.17,.76h0Z"/><path class="cls-9" d="M37.24,22.3c-.07-.17-.08-.24-.1-.32,0-.04-.01-.08-.03-.13-.04-.15-.08-.19-.08-.19,.04-.04,.08,.01,.13,.18,.01,.05,.02,.09,.03,.13,.01,.08,.03,.15,.1,.31l-.05,.02h0Z"/><path class="cls-9" d="M36.63,21.86h-.05c.01-.35,.09-.52,.14-.63,.04-.08,.06-.13,.04-.19-.04-.18-.08-.28-.08-.28,.05-.02,.09,.08,.13,.27,.02,.08,0,.14-.05,.23-.05,.12-.13,.27-.14,.61h0Z"/><path class="cls-9" d="M36.81,21.15s.13-.3,.36-.4l.02,.05c-.22,.1-.38,.35-.38,.35h0Z"/><path class="cls-9" d="M36.73,21.59l-.05-.02c.12-.28,.25-.47,.38-.58,.13-.11,.31-.07,.31-.07-.01,.05-.17,.02-.28,.11-.12,.1-.25,.29-.37,.56h0Z"/><path class="cls-1" d="M36.5,20.77c-.02,.18,.06,.38,.06,.38l-.06-.38Z"/><path class="cls-9" d="M36.79,20.99l-.04-.03c.16-.25,.2-.65,.2-.66,.05,.02,0,.42-.16,.68h0Z"/><path class="cls-9" d="M37.67,23.83h-.05c.04-.43,.29-.94,.29-.95,.04,.03-.2,.53-.24,.95h0Z"/><path class="cls-7" d="M36.61,21.82c0-.08-.06-.15-.13-.15s-.13,.07-.13,.15,.06,.15,.13,.15,.13-.07,.13-.15h0Z"/><path class="cls-9" d="M36.48,22c-.09,0-.16-.08-.16-.18,0-.2,.32-.19,.32,0,0,.1-.07,.18-.16,.18h0Z"/><path class="cls-7" d="M36.83,22.03c0-.08-.06-.15-.13-.15s-.13,.07-.13,.15,.06,.15,.13,.15,.13-.07,.13-.15h0Z"/><path class="cls-9" d="M36.7,22.21c-.09,0-.16-.08-.16-.18,0-.2,.32-.19,.32,0,0,.1-.07,.18-.16,.18h0Z"/><path class="cls-7" d="M37.33,23.11c0-.08-.06-.15-.13-.15s-.13,.07-.13,.15,.06,.15,.13,.15,.13-.07,.13-.15h0Z"/><path class="cls-9" d="M37.2,23.28c-.09,0-.16-.08-.16-.18,0-.19,.32-.2,.32,0,0,.1-.07,.18-.16,.18h0Z"/><path class="cls-7" d="M37.59,23.26c0-.08-.06-.15-.13-.15s-.13,.07-.13,.15,.06,.15,.13,.15,.13-.07,.13-.15h0Z"/><path class="cls-9" d="M37.46,23.44c-.09,0-.16-.08-.16-.18,0-.2,.32-.2,.32,0,0,.1-.07,.18-.16,.18h0Z"/><path class="cls-7" d="M36.62,24.84c0-.08-.06-.15-.13-.15s-.13,.07-.13,.15,.06,.15,.13,.15,.13-.07,.13-.15h0Z"/><path class="cls-9" d="M36.49,25.02c-.09,0-.16-.08-.16-.18,0-.2,.32-.2,.32,0,0,.1-.07,.18-.16,.18h0Z"/><path class="cls-7" d="M37.27,25.17c0-.08-.06-.15-.13-.15s-.13,.07-.13,.15,.06,.15,.13,.15,.13-.07,.13-.15h0Z"/><path class="cls-9" d="M37.14,25.34c-.09,0-.16-.08-.16-.18,0-.19,.32-.2,.32,0,0,.1-.07,.18-.16,.18h0Z"/><path class="cls-7" d="M37.65,26.46c0-.08-.06-.15-.13-.15s-.13,.07-.13,.15,.06,.15,.13,.15,.13-.07,.13-.15h0Z"/><path class="cls-9" d="M37.52,26.63c-.09,0-.16-.08-.16-.18,0-.2,.32-.2,.32,0,0,.1-.07,.18-.16,.18h0Z"/><path class="cls-7" d="M38.34,26.81c0-.08-.06-.15-.13-.15s-.13,.07-.13,.15,.06,.15,.13,.15,.13-.07,.13-.15h0Z"/><path class="cls-9" d="M38.21,26.99c-.09,0-.16-.08-.16-.18,0-.19,.32-.2,.32,0,0,.1-.07,.18-.16,.18h0Z"/><path class="cls-7" d="M38.7,26.8c0-.08-.06-.15-.13-.15s-.13,.07-.13,.15,.06,.15,.13,.15,.13-.07,.13-.15h0Z"/><path class="cls-9" d="M38.56,26.98c-.09,0-.16-.08-.16-.18,0-.2,.32-.2,.32,0,0,.1-.07,.18-.16,.18h0Z"/><path class="cls-7" d="M39.78,27.04c0-.08-.06-.15-.13-.15s-.13,.07-.13,.15,.06,.15,.13,.15,.13-.07,.13-.15h0Z"/><path class="cls-9" d="M39.65,27.22c-.09,0-.16-.08-.16-.18,0-.2,.32-.19,.32,0,0,.1-.07,.18-.16,.18h0Z"/><path class="cls-1" d="M47.48,29.12c-.17-.27-.28-.3-.28-.3l.28,.3Z"/><path class="cls-1" d="M47.42,29.22c-.17-.27-.28-.3-.28-.3l.28,.3Z"/><path class="cls-1" d="M47.34,29.3c-.17-.27-.28-.3-.28-.3l.28,.3Z"/><path class="cls-1" d="M47.28,29.4c-.17-.27-.28-.3-.28-.3l.28,.3Z"/><path class="cls-1" d="M47.2,29.46c-.17-.27-.28-.3-.28-.3l.28,.3Z"/><path class="cls-1" d="M47.14,29.56c-.17-.27-.28-.3-.28-.3l.28,.3Z"/><path class="cls-1" d="M47.06,29.63c-.17-.27-.28-.3-.28-.3l.28,.3Z"/><path class="cls-1" d="M47,29.72c-.17-.27-.28-.3-.28-.3l.28,.3Z"/><path class="cls-1" d="M46.93,29.79c-.17-.27-.28-.3-.28-.3l.28,.3Z"/><g class="cls-25"><path class="cls-6" d="M47.29,28.89c-.4-.39-.9-.26-1.12-.29-.13-.12-.41-.27-.62-.18-.21,.09-.33,.53-.33,.59,0,.12,.22,.22,.4,.23,.18,.01,.6,.01,.74,.03,.14,.01,.33,.24,.33,.24,0,0,.4-.51,.6-.62h0Z"/></g><path d="M46.7,29.58l-.03-.04c-.05-.06-.2-.22-.31-.23-.07,0-.21,0-.36-.01-.14,0-.29,0-.38-.01-.19-.01-.44-.11-.44-.27,0-.08,.13-.53,.35-.63,.2-.08,.51,.05,.66,.19h.3c.24-.01,.55,.02,.82,.29-.19,.17-.59,.67-.59,.68l-.03,.04h0Zm-1.01-1.14s-.09,0-.12,.02c-.18,.08-.3,.5-.3,.55,0,.08,.18,.17,.36,.19,.09,0,.23,0,.37,.01,.15,0,.29,0,.37,.01,.12,.01,.26,.15,.33,.22,.1-.12,.41-.5,.58-.59-.26-.18-.55-.21-.77-.21h-.25s-.11,0-.11,0c-.1-.09-.29-.2-.45-.2h0Z"/><g class="cls-26"><path class="cls-6" d="M46.13,28.87c0-.2-.13-.31-.26-.28-.18,.04-.86,.34-1.13,.35-.23,.01-.64-.23-.64-.38s.58-.35,.58-.35l.4,.12s.51-.24,.82-.24,.49,.19,.47,.34c-.01,.15-.25,.47-.25,.45h0Z"/></g><path d="M44.72,28.98c-.12,0-.28-.05-.42-.14-.07-.04-.24-.16-.24-.28,0-.17,.47-.34,.61-.39l.43,.12s.5-.25,.81-.25c.18,0,.34,.06,.43,.17,.06,.07,.09,.14,.08,.21-.01,.13-.23,.49-.29,.49-.04-.2-.13-.29-.22-.29-.09,.02-.22,.06-.37,.12-.27,.1-.62,.23-.79,.24h-.02Zm-.05-.73c-.24,.09-.53,.24-.53,.31,0,.04,.06,.12,.2,.21,.13,.08,.27,.13,.38,.13v.04l.02-.04c.16,0,.5-.13,.77-.23,.16-.06,.29-.11,.35-.12,.16,0,.3,.1,.31,.29,.02-.1,.16-.31,.17-.42,0-.05-.02-.1-.06-.15-.08-.09-.22-.14-.37-.14-.29,0-.8,.24-.8,.24l-.43-.12h0Z"/><path d="M45.88,29.03s-.03,0-.05,0c-.13,0-.26-.04-.36-.06-.12-.03-.16,0-.22,.06-.05-.07,.04-.16,.11-.16,.03,0,.07,0,.13,.02,.09,.02,.22,.05,.35,.06,.25,0,.27-.12,.28-.17h.08c-.01,.1-.07,.25-.32,.25h0Z"/><path d="M35.78,29.15l-.07-.04c.17-.28,.29-.31,.3-.32,.02,.08-.08,.11-.23,.36h0Z"/><path d="M35.83,29.24l-.07-.04c.17-.28,.29-.31,.3-.32,.02,.08-.08,.11-.23,.36h0Z"/><path d="M35.92,29.32l-.07-.04c.17-.28,.29-.31,.3-.32,.02,.08-.08,.11-.23,.36h0Z"/><path d="M35.97,29.42l-.07-.04c.17-.28,.29-.31,.3-.32,.02,.08-.08,.11-.23,.36h0Z"/><path d="M36.05,29.48l-.07-.04c.17-.28,.29-.31,.3-.32,.02,.08-.08,.11-.23,.36h0Z"/><path d="M36.11,29.58l-.07-.04c.17-.28,.29-.31,.3-.32,.02,.08-.08,.11-.23,.36h0Z"/><path d="M36.2,29.65l-.07-.04c.17-.28,.29-.31,.3-.32,.02,.08-.08,.11-.23,.36h0Z"/><path d="M36.25,29.74l-.07-.04c.17-.28,.29-.31,.3-.32,.02,.08-.08,.11-.23,.36h0Z"/><path d="M36.32,29.81l-.07-.04c.17-.28,.29-.31,.3-.32,.02,.08-.08,.11-.23,.36h0Z"/><g class="cls-24"><path class="cls-6" d="M35.92,28.89c.4-.39,.9-.26,1.12-.29,.13-.12,.41-.27,.62-.18,.21,.09,.33,.53,.33,.59,0,.12-.22,.22-.4,.23-.18,.01-.6,.01-.74,.03-.14,.01-.33,.24-.33,.24,0,0-.4-.51-.6-.62h0Z"/></g><path d="M36.52,29.58l-.03-.04s-.4-.51-.59-.61c.26-.33,.57-.36,.81-.36h.25c.22-.13,.51-.26,.72-.18,.23,.09,.35,.55,.35,.63,0,.16-.26,.26-.44,.27-.09,0-.23,.01-.37,.01-.15,0-.29,0-.36,.01-.1,0-.26,.17-.31,.23l-.03,.04h0Zm.2-.93c-.22,0-.51,.03-.76,.27,.16,.04,.47,.41,.57,.53,.06-.07,.21-.21,.33-.22,.07,0,.22-.01,.37-.01,.14,0,.28,0,.37-.01,.18-.01,.36-.11,.36-.19,0-.05-.12-.47-.3-.55-.17-.07-.44,.05-.57,.17h-.01s-.1,.02-.1,.02h-.25Z"/><g class="cls-23"><path class="cls-6" d="M37.09,28.87c0-.2,.13-.31,.26-.28,.18,.04,.86,.34,1.12,.35,.24,.01,.64-.23,.64-.38s-.58-.35-.58-.35l-.4,.12s-.51-.24-.82-.24-.49,.19-.47,.34c.02,.15,.25,.47,.25,.45h0Z"/></g><path d="M38.5,28.98h-.02c-.17-.01-.52-.14-.79-.24-.15-.06-.28-.1-.34-.12-.11,0-.21,.08-.21,.24-.1,.05-.32-.32-.33-.44,0-.07,.02-.15,.08-.22,.1-.11,.25-.17,.43-.17,.31,0,.82,.24,.84,.25l.37-.12c.17,.05,.64,.23,.64,.39,0,.18-.42,.42-.66,.42h0Zm-1.19-.44c.11,.02,.25,.07,.4,.12,.27,.1,.6,.22,.77,.23l.02,.04v-.04c.23,0,.58-.22,.58-.34,0-.07-.29-.22-.56-.31l-.38,.12s-.54-.24-.83-.24c-.15,0-.29,.05-.37,.14-.04,.05-.07,.1-.06,.15,.01,.12,.2,.39,.23,.42-.06-.18,.07-.3,.2-.3h0Z"/><path d="M37.34,29.03c-.25,0-.31-.15-.32-.24h.08c.01,.12,.11,.17,.28,.16,.13,0,.26-.04,.35-.06,.06-.01,.1-.02,.13-.02,.07,0,.15,.08,.17,.11-.1,.02-.15-.03-.17-.03-.02,0-.06,0-.11,.02-.09,.02-.23,.05-.36,.06-.02,0-.03,0-.05,0h0Z"/><g class="cls-22"><path class="cls-6" d="M41.66,27.19c-2.72-.06-3.84,.46-3.85,.84-.01,.38,.33,.68,.51,.68s.63-.23,.62-.33c-.07-.04-.08-.09-.04-.12,.06-.03,1.04-.23,2.77-.23s2.7,.17,2.71,.23c.02,.07-.13,.11-.22,.21,.38-.04,.48,.2,.66,.21,.18,.01,.53-.25,.54-.62,.01-.39-1.14-.81-3.71-.87h0Z"/></g><path d="M38.33,28.75c-.1,0-.23-.07-.34-.18-.15-.15-.23-.35-.22-.54,.02-.43,1.1-.88,3.46-.88h.43c1.92,.05,3.29,.31,3.66,.69,.07,.07,.1,.15,.1,.22-.01,.38-.36,.66-.57,.66h0c-.1,0-.16-.05-.22-.09-.09-.06-.19-.13-.37-.13h-.09l-.02-.07s.09-.08,.13-.1c.03-.02,.08-.05,.08-.07-.06-.04-1.01-.2-2.67-.2s-2.66,.19-2.75,.22l.04,.03-.02,.13c-.1,.12-.47,.29-.63,.29h0Zm2.9-1.52c-2.44,0-3.37,.49-3.38,.81,0,.17,.07,.34,.2,.48,.09,.09,.2,.16,.28,.16,.18,0,.57-.21,.58-.28-.04,0-.06-.04-.06-.08,.12-.12,1.11-.31,2.84-.31,1.52,0,2.73,.14,2.75,.26,.02,.07-.05,.11-.11,.15-.04,.03-.08,.05-.11,.09,.25-.07,.37,0,.47,.07,.06,.04,.11,.07,.17,.08h0c.17,0,.49-.24,.5-.58,0-.05-.02-.11-.07-.16-.13-.14-.78-.6-3.6-.66h-.43Z"/><polygon class="cls-3" points="38.71 28.1 38.56 27.68 38.82 27.59 38.83 27.64 38.63 27.71 38.67 27.84 38.87 27.78 38.88 27.83 38.69 27.89 38.74 28.04 38.96 27.97 38.97 28.02 38.71 28.1"/><path class="cls-3" d="M39.58,27.47h.05s.03,.26,.03,.26c0,.05,0,.08,0,.11,0,.03-.02,.05-.04,.07-.02,.02-.05,.03-.09,.03-.04,0-.07,0-.09-.02-.02-.01-.04-.03-.05-.06-.01-.03-.02-.07-.03-.12l-.02-.27h.05s.02,.27,.02,.27c0,.04,0,.07,.02,.09,0,.02,.02,.03,.04,.04,.02,0,.04,.01,.06,.01,.04,0,.07-.02,.08-.04,.02-.02,.02-.06,.02-.12l-.03-.27Z"/><polygon class="cls-3" points="40.13 27.87 40.13 27.42 40.18 27.42 40.18 27.81 40.37 27.81 40.37 27.87 40.13 27.87"/><rect class="cls-3" x="40.46" y="27.4" width=".06" height=".46"/><path class="cls-3" d="M40.87,27.71l.04,.02c0,.05-.03,.09-.05,.12-.02,.03-.05,.04-.09,.04s-.06,0-.09-.03c-.02-.02-.04-.05-.05-.09-.01-.04-.02-.08-.02-.13,0-.05,0-.09,.02-.13,.01-.04,.03-.07,.06-.08,.03-.02,.05-.03,.08-.03,.03,0,.06,.01,.08,.04,.02,.02,.04,.06,.05,.1h-.04s-.02-.04-.04-.06c-.01-.02-.03-.02-.05-.02-.03,0-.05,0-.06,.03-.02,.02-.03,.04-.04,.07,0,.03-.01,.06-.01,.09,0,.04,0,.08,.01,.11,0,.03,.02,.05,.04,.07,.02,.01,.04,.02,.06,.02,.03,0,.05-.01,.06-.03,.02-.02,.03-.05,.04-.09h0Z"/><path class="cls-3" d="M42.38,27.86v-.44h.08l.1,.31s.02,.05,.02,.06c0-.02,.01-.04,.02-.07l.1-.3h.07v.44h-.05v-.37l-.12,.37h-.05l-.12-.37v.37h-.05Z"/><rect class="cls-3" x="42.85" y="27.43" width=".05" height=".45"/><polygon class="cls-3" points="43 27.89 43 27.44 43.05 27.44 43.22 27.79 43.22 27.44 43.27 27.44 43.27 27.89 43.22 27.89 43.04 27.54 43.04 27.89 43 27.89"/><rect class="cls-3" x="43.39" y="27.46" width=".05" height=".43"/><path class="cls-3" d="M43.78,27.8l.05,.02s-.04,.09-.07,.11c-.03,.02-.06,.03-.1,.03-.04,0-.07-.02-.09-.04-.02-.02-.04-.06-.05-.1,0-.04,0-.08,0-.13,0-.05,.02-.09,.04-.13,.02-.04,.04-.06,.07-.08,.03-.02,.06-.02,.09-.02,.04,0,.07,.02,.09,.04,.02,.03,.04,.06,.04,.11h-.05s-.01-.05-.03-.07c-.02-.02-.04-.03-.06-.03-.03,0-.05,0-.07,.02-.02,.02-.04,.04-.05,.07,0,.03-.02,.06-.02,.09,0,.04,0,.08,0,.11,0,.03,.02,.05,.04,.07,.02,.02,.04,.03,.06,.03,.03,0,.05,0,.07-.02,.02-.02,.04-.05,.05-.09h0Z"/><polygon class="cls-3" points="44.23 28.06 44.33 27.59 44.38 27.61 44.49 28.01 44.57 27.65 44.62 27.66 44.52 28.13 44.47 28.12 44.36 27.71 44.28 28.07 44.23 28.06"/><path class="cls-3" d="M38.36,28.25l-.18-.43,.15-.07s.05-.02,.07-.02c.02,0,.04,0,.05,.03,.02,.02,.03,.04,.04,.06,.01,.03,.02,.06,0,.09,0,.03-.03,.05-.05,.07,.02,0,.03,0,.04,0,.02,0,.04,.02,.06,.04l.11,.09-.06,.03-.08-.07s-.04-.04-.06-.04c-.02,0-.03-.02-.04-.02,0,0-.02,0-.03,0,0,0-.01,0-.03,0l-.05,.02,.08,.19-.04,.02Zm-.06-.26l.1-.04s.04-.02,.04-.03c0-.01,.01-.02,.02-.04,0-.01,0-.03,0-.04,0-.02-.02-.04-.04-.04-.02,0-.04,0-.06,0l-.11,.05,.06,.14Z"/><path class="cls-3" d="M39.06,28l-.1-.45,.14-.03s.04,0,.06,0c.02,0,.04,0,.05,.01,.01,0,.03,.02,.04,.04,.01,.02,.02,.04,.03,.06,0,.04,0,.07,0,.1-.01,.03-.05,.05-.1,.06l-.1,.02,.04,.18h-.05Zm0-.23l.1-.02s.05-.02,.06-.04c.01-.02,.01-.04,0-.06,0-.02-.01-.03-.02-.05s-.02-.02-.04-.02c0,0-.03,0-.05,0l-.1,.02,.04,.16Z"/><path class="cls-3" d="M39.77,27.91l-.03-.46h.14s.05,0,.07,0c.02,0,.03,.02,.04,.04,0,.02,.02,.04,.02,.06,0,.02,0,.04,0,.06,0,.02-.02,.03-.04,.04,.02,0,.04,.02,.05,.04,.01,.02,.02,.04,.02,.07,0,.02,0,.04,0,.06,0,.02-.02,.03-.03,.04,0,.01-.02,.02-.04,.03-.02,0-.04,0-.06,.01h-.14Zm.03-.26h.08s.04,0,.04-.01c.01,0,.02-.01,.03-.02,0-.01,0-.02,0-.04,0-.02,0-.03-.01-.04,0-.01-.02-.02-.03-.02-.01,0-.03,0-.05,0h-.07s0,.14,0,.14Zm.01,.21h.09s.03,0,.03,0c.01,0,.02,0,.03-.01,0,0,.01-.01,.02-.03,0-.01,0-.02,0-.04,0-.02,0-.03-.01-.04,0-.01-.02-.02-.03-.02-.01,0-.03,0-.05,0h-.08s0,.16,0,.16Z"/><path class="cls-3" d="M40.96,27.87l.14-.47h.05l.15,.47h-.06l-.04-.14h-.15l-.04,.14h-.05Zm.11-.19h.12l-.04-.13s-.02-.07-.03-.1c0,.03-.01,.06-.02,.09l-.04,.14Z"/><path class="cls-3" d="M41.6,27.87v-.46h.13s.05,0,.07,0c.02,0,.04,.02,.05,.03,.02,.02,.04,.05,.04,.08,0,.03,.01,.07,.01,.11,0,.04,0,.07,0,.09,0,.03-.01,.05-.03,.07,0,.02-.02,.03-.03,.04-.01,0-.03,.02-.04,.02-.02,0-.04,0-.06,0h-.13Zm.05-.05h.08s.04,0,.06,0c.01,0,.03-.01,.03-.02,.01-.01,.02-.03,.03-.06,0-.02,0-.05,0-.09,0-.05,0-.09-.02-.11-.01-.03-.03-.04-.05-.05-.01,0-.04,0-.06,0h-.08v.36Z"/><path class="cls-3" d="M41.99,27.64c0-.08,.02-.14,.04-.19,.03-.04,.07-.07,.11-.07,.03,0,.06,0,.08,.03,.03,.02,.04,.05,.06,.09,.01,.04,.02,.08,.02,.13s0,.09-.02,.13c-.01,.04-.03,.07-.06,.09-.03,.02-.05,.03-.08,.03-.03,0-.06-.01-.08-.03-.02-.02-.04-.05-.05-.09-.01-.04-.02-.08-.02-.12h0Zm.04,0c0,.06,.01,.1,.03,.14,.02,.03,.05,.05,.08,.05,.03,0,.06-.02,.08-.05,.02-.03,.03-.08,.03-.14,0-.04,0-.07-.01-.1,0-.03-.02-.05-.04-.07-.02-.02-.04-.02-.06-.02-.03,0-.06,.02-.08,.05-.02,.03-.03,.08-.03,.15h0Z"/><path class="cls-3" d="M43.83,27.96l.24-.44h.05s.05,.52,.05,.52h-.06s-.01-.17-.01-.17l-.15-.04-.07,.13h-.05Zm.15-.18l.13,.03v-.14s-.02-.08-.02-.1c0,.03-.02,.06-.04,.09l-.07,.13Z"/><path class="cls-3" d="M44.56,28.14l.32-.38,.05,.02-.05,.51-.05-.03,.02-.15-.14-.07-.09,.12-.05-.02Zm.17-.13l.11,.06,.02-.14s.01-.08,.02-.1c-.02,.03-.03,.05-.05,.08l-.09,.11Z"/><path class="cls-6" d="M42.91,28.52c-.44-.19-.68-.04-.68-.04v.3s.22,0,.3,.04c.08,.04,.28,.14,.28,.14l.1-.43Z"/><path d="M42.84,29.02l-.33-.16c-.06-.03-.22-.04-.27-.04l-.06-.34c.04-.07,.38-.15,.74,0l-.08,.53h0Zm-.47-.27c.06,0,.13,.01,.18,.03l.23,.11,.08-.38c-.27-.03-.62,0-.62,0l.03,.25s.04-.02,.09-.02h0Z"/><path class="cls-6" d="M40.32,28.54c.45-.19,.68-.04,.68-.04v.3s-.22,0-.31,.04c-.08,.04-.28,.13-.28,.13l-.1-.43Z"/><path d="M40.39,29.04l-.11-.48c.42-.26,.74-.09,.74-.08v.33c-.09,.04-.25,.05-.31,.08l-.32,.16h0Zm.35-.55c-.12,0-.26,.03-.41,.09l.11,.34,.23-.11c.09-.04,.29-.05,.31-.05l-.03-.25s-.09-.02-.22-.02h0Z"/><path class="cls-6" d="M41.36,28.44v.43s.1,.06,.24,.06,.24-.06,.24-.06v-.45s-.15-.05-.27-.04-.18,.03-.21,.06h0Z"/><path d="M41.6,28.98c-.13,0-.24-.03-.27-.08v-.46c.04-.06,.11-.09,.24-.1,.14,0,.28,.04,.28,.04l.03,.49s-.13,.1-.28,.1h0Zm-.19-.11s.4-.03,.4-.03l-.02-.4s-.11-.02-.19-.02c-.17,.02-.21,.04-.22,.05v.4s.01,0,.02,0h0Z"/><path class="cls-6" d="M41.83,28.9c.07,.12,.56,.08,.58-.03,.01-.11,0-.26,0-.26h-.58v.29Z"/><path d="M42.08,29.02h0c-.09,0-.24-.01-.29-.1v-.31s.62-.04,.62-.04c.04,.04,.05,.2,.03,.31-.01,.11-.25,.14-.37,.14h0Zm.29-.41l-.54,.04,.04,.25s.48,0,.49-.03c.01-.1,0-.26,0-.26h0Z"/><path class="cls-6" d="M41.83,28.42c.07-.03,.25-.09,.39-.08,.14,.01,.21,.1,.21,.1l-.03,.39s-.13-.1-.21-.09c-.14,0-.24,.05-.36,.12v-.43Z"/><path d="M41.79,28.92v-.5c.11-.07,.26-.12,.39-.12,.19,.02,.27,.11,.28,.11l-.02,.42c-.09,0-.18-.06-.24-.06-.13,0-.23,.05-.35,.12l-.06,.03h0Zm.4-.23c.09,0,.21,.06,.24,.12l-.05-.37s-.06-.04-.17-.06c-.14,0-.29,.05-.37,.08l.02,.33c.1-.05,.2-.09,.32-.1h0Z"/><path class="cls-6" d="M41.36,28.91c-.07,.12-.56,.08-.58-.03-.01-.11,0-.26,0-.26h.58v.29Z"/><path d="M41.11,29.02c-.12,0-.35-.03-.37-.14-.01-.11,0-.27,0-.27l.63-.04,.04,.33c-.05,.1-.21,.12-.29,.12h0Zm-.31-.37s.02,.14,.03,.22c.02,.04,.47,.07,.5,.01v-.27s-.53,.04-.53,.04h0Z"/><path class="cls-6" d="M41.36,28.43c-.07-.03-.25-.09-.39-.08-.14,.01-.21,.09-.21,.09l.03,.39s.14-.1,.21-.09c.13,0,.24,.05,.36,.12v-.43Z"/><path d="M41.4,28.93l-.06-.03c-.11-.06-.21-.11-.34-.12h0c-.07,0-.15,.05-.17,.07l-.1-.41s.09-.12,.24-.14c.2,.01,.35,.06,.41,.08l.03,.54h0Zm-.41-.23c.13,0,.23,.04,.33,.09v-.36c-.11-.01-.23-.04-.31-.04-.15,.01-.21,.08-.21,.08l.03,.31s.1-.08,.16-.08h0Z"/></g></g></g></g></svg>