<svg xmlns="http://www.w3.org/2000/svg" viewBox="0 0 13.12 13.12" xmlns:v="https://vecta.io/nano"><defs><clipPath id="A"><circle cx="6.54" cy="6.54" r="5.92" fill="none"/></clipPath></defs><circle cx="6.56" cy="6.56" r="6.56" fill="#fff"/><circle cx="6.56" cy="6.56" r="6.08" fill="#c6cde0"/><g clip-path="url(#A)"><path d="M-3.8 4.31h20.71v4.63H-3.8z" fill="#fff"/><g fill="#c09300"><path d="M8.11 7.98l-.02-.44-.03-.63-.02-.5-.02-.56L8 5.48a.59.59 0 0 0-.02-.14c-.03-.13-.12-.19-.25-.18-.09 0-.17.03-.26.07-.05.02-.1.05-.15.08a.88.88 0 0 1-.36.1q0 0-.02-.01c-.04-.08-.06-.16-.08-.25l-.02-.25c0-.08 0-.17-.02-.25 0-.02-.01-.03-.01-.05 0-.05-.05-.08-.1-.1a.83.83 0 0 0-.21-.06h-.04s-.03.02-.04.04c-.03 0-.06-.01-.09-.01-.04-.01-.08-.01-.12 0-.02 0-.04.02-.05.05 0 .03-.02.06-.02.09 0 .01 0 .02.01.02.01.01.02.02.03.01h.01s.07-.03.11 0c.05.04.07.1.07.16 0 .08-.01.16-.03.24a1.19 1.19 0 0 1-.17.36s-.01.01-.02.01c-.13 0-.26-.03-.38-.1-.07-.05-.14-.09-.23-.12-.07-.02-.13-.04-.2-.03-.1.01-.17.06-.21.16-.02.05-.02.1-.02.15l-.03.66-.02.5-.02.64-.02.5c0 .05 0 .11-.01.16h0v.09s.02.01.03 0l.78-.7s.01-.01.02-.01c-.07.19-.12.38-.18.58-.02 0-.05-.02-.08-.03-.02-.01-.05-.01-.08 0h-.01c-.06 0-.11.05-.12.11-.01.02 0 .05 0 .07v.04h-.01s-.05.02-.07.04c0 .02-.02.04-.04.05-.01 0-.02.02-.03.02-.02 0-.03.01-.03.02s.01.03.02.03.02.01.02.02c.01.02.01.03.02.05.01.04.03.06.05.08h.01v.05c0 .05.04.08.09.09.06.02.12.03.19.04l.37.05c.3.03.59.03.89.02l.5-.04c.12 0 .23-.03.35-.06.02 0 .03-.01.05-.02.04-.02.06-.06.06-.11q0 0 .02-.03s.03-.05.04-.08c0-.01.01-.03.01-.04s.01-.01.02-.01c.02 0 .03-.01.03-.03 0-.01-.01-.02-.03-.02-.01 0-.02 0-.03-.01-.02-.03-.03-.05-.05-.06-.02-.03-.04-.04-.07-.05-.01-.02-.02-.04-.01-.05.02-.06-.02-.14-.08-.16-.02-.01-.05-.01-.08-.02h-.05l-.08.03-.17-.59h0l.07.06.72.67h.01s.02.01.02 0v-.05zM6.53 4.54s.03.01.03.03-.01.03-.03.03-.03-.02-.03-.03c0-.02.02-.03.03-.03zm-.34.87c.06-.09.12-.18.15-.29a.86.86 0 0 0 .05-.32v-.05s0-.03.02-.03h.07s-.04-.07-.07-.1c-.03-.02-.06-.05-.11-.06-.05-.02-.08 0-.11.04 0 .01-.01.01-.01.02v-.06s.02-.04.04-.05c.05 0 .1 0 .14.02.02.02.05.04.08.05.02 0 .03.02.05.02l.02.01s.04.03.05.01c.02-.02.03-.03.05-.03.04-.01.08-.02.13-.01.02 0 .04.01.05.04a.4.4 0 0 1 .03.15v.15a1.05 1.05 0 0 0 .09.46c.01.01.01.03.02.04 0 0 0 .03.02.04-.03 0-.1-.02-.12-.03-.01 0-.01-.01-.01-.02-.03-.05-.05-.11-.06-.16-.02-.09-.03-.17-.04-.26v-.02h-.03s0 .06.01.09a1.26 1.26 0 0 0 .05.28c.01.03.03.06.04.1.01.02.01.04.02.06h-.02s-.08-.04-.12-.08c-.01 0-.02-.01-.02-.02 0-.05-.01-.11-.01-.16l-.01-.28v-.02H6.6l.01.42v.03s0 .03-.01.04c0 .02-.03.04-.05.06-.02-.02-.04-.04-.06-.07h0c.03-.1.04-.19.06-.29v-.17-.03h-.03s0 .06-.01.08c0 .11 0 .22-.04.33-.01.05-.03.09-.08.12-.03 0-.05.03-.08.05h0s.01-.03.01-.04c.01-.03.01-.05.03-.07.03-.05.05-.11.07-.17l.05-.27h0s-.02-.01-.03-.01v.1a1.29 1.29 0 0 1-.08.28c-.02.05-.05.08-.1.1-.03.01-.06.02-.1.04h-.02s.04-.04.05-.06zm-.38 2.07h0l.06.2c0 .02.01.04.01.06v.02c-.03.05-.07.1-.1.14 0 .01-.01.01-.02.01-.02-.01-.05-.01-.07-.02l.12-.41zm1.25.35s-.01-.01-.02-.01a.6.6 0 0 0-.05.14c-.04.01-.08.01-.11.02 0-.01 0-.02-.01-.02 0-.04 0-.06-.02-.08-.01-.04-.01-.07 0-.11l.03-.16h.01l.1.15c0 .01.01.01.02.01s.01-.01.01-.02c.03-.05.05-.1.07-.16 0 .01.01.01.01.02.03.06.07.11.1.17h0l-.05.16c0 .01-.01.01-.02.01s-.01 0-.02-.01c-.01-.03-.03-.07-.05-.11zm.03.12h-.08l.03-.08.05.08zM6.66 8s-.07.03-.08.07h0c-.03.01-.05.01-.05-.02s-.04-.04-.07-.05q0 0-.02-.01s-.04-.03-.07-.02c-.03 0-.07 0-.1.01.01-.03.01-.06.02-.09.02.02.03.04.05.06.03-.03.06-.05.08-.07.03-.13.04-.25.06-.36.01-.05.01-.1.02-.15h0v.08l-.02.41c0 .01 0 .02.01.02.02.03.05.06.07.09 0-.01.01-.01.01-.02.02-.03.04-.05.06-.08 0-.01.01-.01.01-.02l-.03-.4c0-.03 0-.06-.01-.08h0l.01.02.04.29c.02.06.03.12.04.19 0 .01.01.01.01.02.02.01.05.03.07.05l.05-.05h0l.03.08h-.1s-.05.01-.07.03h-.02zm.03.1s.01.03 0 .04c-.02 0-.04.03-.07.05 0-.04-.02-.08 0-.12 0-.02.02-.03.04-.04 0 .02.01.03.02.04s.02.02.02.03zm-.22-.07s.03.02.04.04c.01.04 0 .08-.01.11-.03 0-.05-.03-.08-.04-.02-.01-.02-.02 0-.04q0 0 .02-.02s.03-.03.03-.05zm-.37-.19l-.01-.02c-.01 0-.01.01-.02.01-.03.04-.05.08-.07.11 0 .01-.01.01-.02.01s-.02 0-.02-.01c-.01-.06-.03-.11-.04-.16v-.02c.03-.06.07-.11.1-.17q0 0 .01.02s.04.1.05.15c0 .01.01.02.01.02.01 0 .01-.01.02-.01l.1-.15s.01-.01.01-.02l.05.23h0c-.01.05-.02.09-.02.13l-.09.01c-.04-.05-.05-.09-.06-.13zm.01.12s-.05-.01-.08-.01c0-.02.03-.05.05-.08l.03.09zm-.17-.02c-.05 0-.09-.01-.14-.02l.09-.13c.02.05.03.1.05.15zm.24-1.01l.07-.06c.03.03.06.07.09.11l-.14.18c0-.07-.02-.14-.02-.21v-.02zm0-.03c0-.05-.01-.11-.02-.16l.08.11c-.02.01-.04.03-.06.05zm.15.15s.03-.03.04-.05c.03.02.05.05.07.07h0c-.01.08-.03.15-.04.21 0 .01-.01.02-.01.02 0-.01-.01-.03-.01-.04l-.06-.19s0-.01.01-.02zm.05.34q0 0 0 0l-.08.37h0s-.01-.04-.01-.06c0-.04-.02-.08-.03-.12v-.02l.12-.17zm.55-.48s.03.04.02.07c-.01.05-.01.11-.02.17v.02l-.14-.2c.03-.03.06-.07.09-.1.01.01.03.03.05.04zm-.03-.06l.08-.11h0c0 .05-.02.11-.02.17-.02-.03-.04-.04-.06-.06zm-.09.2h0c-.02.09-.05.17-.07.25h0s-.02-.06-.02-.09l-.03-.13q0 0 .01-.02l.07-.07s.02.04.04.06zm-.05.34l.11.17v.02l-.03.16h0l-.08-.35h0zm.48.4l.09.13c-.05 0-.09.02-.14.02.02-.05.03-.1.05-.15zm-.02-.07h0s-.02-.02-.03-.04c-.03-.04-.06-.08-.08-.13 0-.01-.01-.01-.02-.01 0 0-.01.01-.01.02l-.06.16q0 0-.01.02s-.04-.09-.07-.13-.04-.07-.03-.11c.02-.06.02-.13.04-.2h.01a1 1 0 0 0 .1.14c0 .01.01.01.02.01s.01-.01.01-.02l.05-.17.15.16s.01.01.01.02l-.08.28zm0-.41l-.09-.08c-.01-.01-.02-.01-.03 0-.01.05-.03.1-.04.15v.02l-.1-.15c0-.01-.01-.01-.02-.01s-.01.01-.01.02l-.05.25h-.01a.99.99 0 0 0-.11-.17c.02-.1.05-.19.07-.27h.01l.08.12c0 .01.01.01.02.01s.01-.01.01-.02c0-.07.02-.14.03-.22h0l.14.13c.02.02.02.01.03-.01 0-.03.02-.05.04-.08l.1.37c-.02-.02-.04-.04-.06-.07zm-.24-.41c.01-.07.02-.14.02-.22h0l.05-.11.03.1.08.27v.02s-.03.07-.04.11L7 6.95c-.02 0-.03-.03-.02-.05zm.28.3s-.01-.05-.02-.07c-.02-.06-.04-.11-.05-.17-.01-.03-.01-.06-.01-.09l-.02-.56v-.02c.01-.06.03-.12.04-.18h0l.06 1.09h0zm-.2-.7c-.11.25-.28.46-.5.64a1.69 1.69 0 0 1-.53-.69 1.63 1.63 0 0 1-.12-.65c.05.01.1 0 .14-.01a1.21 1.21 0 0 0 .42-.13c.03-.02.06-.04.09-.05.1.08.22.12.35.15.08.02.16.04.24.04h.05c0 .24-.04.47-.14.7zm-.93.44l-.12.12H6l-.05-.09h0l.1-.38h0s.02.02.03.04c.03.04.04.08.04.13s.01.1.02.15c.01.01 0 .02 0 .03zm-.22-.81h0c.02.06.03.11.04.17v.02.4l-.01.22c0 .02-.01.05-.02.07-.02.06-.03.12-.05.18h0l.05-1.06h0zm.03.88l.03.08c.01.03.02.03.04.01a.8.8 0 0 1 .13-.13h.01a.54.54 0 0 0 .01.08c.01.05.01.1.02.14 0 .01 0 .02.01.02s.01-.01.02-.01a.36.36 0 0 0 .07-.1h.01s.04.11.05.17c0 .02 0 .04.02.06v.03c-.03.05-.07.1-.1.16h-.01s-.01-.04-.01-.06c-.03-.07-.04-.13-.05-.19 0-.01-.01-.02-.01-.02q0 0-.02.01l-.1.13h-.01s0-.03-.02-.06c-.01-.03-.01-.06-.02-.09-.01-.02-.02-.02-.04 0-.04.05-.08.09-.12.13h-.01l.1-.35zm.04.26h0s0 .02.02.03c.01.04.02.09.04.13 0 .01.01.02.01.02.01 0 .01-.01.02-.01l.09-.13h.01l.02.1c.01.04.02.09.02.13 0 .01 0 .02-.01.03l-.1.15c-.01-.04-.03-.1-.05-.15q0 0-.01-.02c-.01-.01-.02-.01-.03 0 0 .03-.03.06-.05.09s-.03.05-.05.09c0-.01-.01-.02-.01-.03-.03-.09-.05-.18-.07-.26v-.02l.15-.15zm-.45.62h.01s.02-.01.03-.01a2.46 2.46 0 0 0 .39.09c.12.02.24.03.36.03h.05s.05.02.06.04c0 0 0 .01-.01.02 0 0-.02.02-.03.04h-.01c-.05.01-.09.02-.14.02-.07 0-.14-.01-.2-.01h-.01s0-.03-.01-.05h0c0-.06-.04-.08-.07-.08-.04 0-.07.04-.08.08h0s-.07 0-.1-.01A1.74 1.74 0 0 1 5.55 8h-.01s-.03-.01-.02-.03h0s0-.06.01-.08zm.46.2s-.01.02-.02.03c0 .02-.02.03-.03.04-.01-.01-.02-.03-.03-.04-.02-.03-.01-.09.03-.1.02-.01.03-.01.04.01s.02.04 0 .06zm-.5-.19v.06s-.01.04-.03.05l-.06.03c-.02-.07.03-.14.09-.14zm2.14.05V7.9c.07 0 .11.09.09.13-.02 0-.04 0-.06-.02-.03-.01-.04-.03-.03-.06zm0 .08s.05.04.05.08c0 .03.01.03.04.03.01 0 .02 0 .03.01l.03.03s.03.04.05.06c-.01.02-.01.04-.02.06 0 .03-.02.05-.05.06-.01 0-.02.01-.02.03v.05s-.02.04-.04.05c-.03 0-.07.02-.1.03l-.36.05a5.22 5.22 0 0 1-.79.03c-.12 0-.25-.01-.37-.01-.19-.01-.38-.03-.57-.07-.03-.01-.06-.02-.09-.02-.05-.02-.06-.04-.06-.08h0s0-.05-.04-.06c-.02-.02-.03-.04-.03-.06-.01-.02-.02-.04-.02-.06.02-.02.04-.05.06-.07 0-.02.03-.03.05-.03s.03-.01.03-.03h0c0-.07.05-.1.1-.09.03 0 .06.01.09.02l.25.06q0 0 .02.01a.4.4 0 0 0 .03.04l.03.06c.02.01.02 0 .02 0 0-.02.01-.04.03-.05l.03-.03h.01a2.26 2.26 0 0 0 .26.01c.03 0 .06-.01.09-.01h.01s.02.02.04.03c0 .02.02.03.03.04 0 .03.01.03.01.03s.01 0 .02-.01c.02-.02.03-.04.04-.07v-.02h.04a.49.49 0 0 0 .04.1h.01c.01-.02.02-.03.03-.04s.03-.02.04-.03l.02-.02c.05 0 .1.01.16.01.07 0 .14-.01.2-.01q0 0 .02.01l.03.03c.02 0 .03.01.03.03 0 .01 0 .02.01.02s.01-.01.01-.02c0-.02.01-.04.02-.06s.02-.03.03-.05h.01l.32-.08c.04 0 .06.01.08.01zm-.49 0s.02-.01.02 0c.02 0 .03.01.04.03.01.03.02.05 0 .08-.01 0-.02.02-.04.03l-.03-.03c-.03-.03-.03-.09.01-.11zm.39-.13h.04c.02.03.03.05.02.07h0V8h-.03l-.12.03c-.07.02-.13.03-.19.04h-.01s-.03-.07-.07-.09c-.03-.01-.05 0-.07.02 0 .03-.02.05-.02.08v.02s-.06.01-.09.01c-.08.01-.16.01-.24 0-.02 0-.03 0-.04-.02s-.02-.03-.03-.04q0 0 0-.02s.03-.04.06-.04a.81.81 0 0 0 .22 0c.09 0 .18 0 .27-.03.1-.01.2-.04.3-.07zm-.24-.42l.13.42c-.03.01-.05.01-.08.02-.04-.06-.08-.11-.12-.16h0l.07-.28zm.67-2.03c-.05-.03-.1-.06-.16-.08l.11 2.47c-.02-.02-.04-.03-.05-.05h0l-.02-.44-.03-.53v-.35l-.03-.53V5.6c0-.06-.01-.12-.01-.19h0c-.05.04-.1.08-.14.13-.01 0-.01.01-.01.02l.01.3.03.63c-.01.13 0 .25 0 .37l.02.56c0 .07.01.13.01.2h0l-.06-.06v-.02c0-.07-.01-.13-.01-.2 0-.16-.02-.32-.03-.48v-.34l-.02-.47-.02-.35v-.09l-.12.09h-.01l.01.37.01.32.04.68.01.36c-.02-.03-.04-.04-.05-.05-.01 0-.02-.02-.02-.04l-.02-.43-.02-.63-.02-.36c0-.06 0-.11-.01-.17-.03.02-.07.03-.1.05h0-.07c-.07 0-.13-.01-.2-.03l-.27-.1c-.06-.03-.08-.04-.13-.09 0 0 0 .02-.02.02-.04.04-.1.06-.15.08a1.89 1.89 0 0 1-.41.1h-.05s-.03 0-.05-.01h0s-.06 0-.1-.02v.09l-.02.43-.03.69-.02.4c0 .01 0 .02-.01.02l-.06.06h0l.03-.74c0-.13 0-.26.02-.39l.02-.59c0-.01 0-.02-.01-.02l-.11-.09v.02l-.03.47-.03.71-.02.4-.01.35c0 .01 0 .02-.01.02-.02.02-.04.04-.06.05v-.08l.01-.31c0-.17.02-.33.03-.5l.02-.36.02-.56.01-.26q0 0-.01-.02l-.13-.11-.02-.02s0 .08-.01.12l-.02.55c0 .12 0 .24-.02.35l-.02.53c0 .12 0 .23-.02.35l-.02.48q0 0-.01.02s-.02.02-.04.03l.1-2.47c-.03 0-.06.02-.08.03-.02.02-.05.03-.08.05.01-.09.03-.18.11-.23.05-.03.1-.03.16-.02.12.02.22.06.32.12.12.07.26.12.4.12h.01s-.03.05-.05.07c.08.01.15-.03.22-.06 0 .04-.02.08-.03.11h0s.07-.03.1-.05l.09-.06c.03.03.06.06.08.09l.09-.09a.88.88 0 0 1 .1.06c.03.01.05.02.08.02q0 0 .02-.02s0-.02-.01-.04c.02.01.05.01.07.02.02 0 .05.01.07.01.01-.02.02-.03.01-.03 0-.01 0-.01-.01-.03.04 0 .07-.01.1-.01a.68.68 0 0 0 .31-.11.79.79 0 0 1 .3-.12c.04-.01.09-.01.13 0 .05.01.09.04.12.09.03.04.04.11.04.16z"/><path d="M7.55 8.27l-.02-.08c0-.03-.01-.05-.04-.06s-.06 0-.09.01l.01.02s.01.02.02.01c.02-.02.05-.01.06.02h0l.03.12q0 0-.01.01s-.02 0-.03-.01c0 0-.03-.01-.04-.01l-.04.04c0 .01-.01.01-.02.01s-.02 0-.02-.01c-.01-.03-.03-.05-.06-.05-.01-.02-.01-.03-.02-.05 0-.01-.01-.01-.01-.02-.01 0-.01.01-.02.01 0 .01-.02.02-.02.03s.01.01.01.02.01.02 0 .02c-.02.02-.04.04-.04.07 0 .01 0 .02-.01.02s-.02 0-.02-.01 0-.02-.01-.03c0-.02-.01-.02-.03-.01h-.01s-.04.03-.04.07h0s.01.03.03.03h.03c.01.02 0 .03-.02.03-.01 0-.02 0-.02.01l.02.01s.06-.02.06-.06h.01s.05-.02.08-.02c.02.03.03.04.05.04.01 0 .02.01.02 0 .02-.01.04-.03.04-.05 0-.01.01-.02.02-.02s.01.01.02.01c.04.02.07.01.09-.02.01-.01.04-.01.06-.02.03-.01.05-.01.08-.02q0 0 0-.03h0s-.02-.02-.04 0c-.02.01-.03.01-.05 0v-.03zm-.41.12l-.02.02c0-.03.01-.03.02-.04zm.11-.01s-.02 0-.01-.02c0-.01 0-.02.02-.02.01 0 .01.01.01.03 0 .01 0 .01-.02.01zm.05-.03h.01l.03.01c0 .01-.01.01-.02.01s-.02-.01-.02-.02zm.03.07s-.01-.01-.02-.01c.01 0 .01-.01.02-.01h.01s0 .02-.01.02zm.12-.05l-.02-.01c0-.01.01-.01.02-.01h.01s0 .02-.01.02z"/><path d="M6.7 8.37s-.01-.02-.02-.01c-.01 0-.02.01-.02.01-.04.01-.06.02-.06.05h-.01l-.01-.02s0-.03-.03-.03c-.04 0-.09 0-.13-.01-.03 0-.03-.01-.04-.03h-.04s-.01.02 0 .03c.01.02 0 .04 0 .06h-.01s-.02.01-.03 0c0-.03 0-.04-.02-.06q0 0-.02 0s-.01.01-.01.02c-.01.01-.01.02 0 .03.01.02.02.04.02.06-.02.02-.04.03-.07.03h-.02v.01s.01.01.02.01c.04.01.07 0 .09-.04.01-.02.02-.02.04-.02.04 0 .09.01.13.01q0 0 .01.01a.14.14 0 0 0 .04.05h.01s.02-.01.03-.01c0-.01.02-.02.02-.03s.01-.02.02-.02h.09s.02-.01.02-.02v-.08zm-.16.1h-.01-.01s0-.03-.02-.03h-.12l.01-.02h.12s.04 0 .04.04zm.12-.04h-.02l.02-.02v.02z"/><path d="M6.15 8.21h-.01s-.02.01-.03.01c.01.03.01.04.01.04 0 .05-.02.09-.02.13 0 .02 0 .03-.01.05h-.01s-.02.01-.02-.01q0 0-.03-.04s-.01-.01-.01-.02l.03-.01s.02 0 .02-.01v-.03s-.02 0-.03-.02c0-.01-.01-.01-.01-.02 0-.02-.01-.03-.03-.04-.01-.01-.03 0-.04.01h-.01s-.01.02-.02.02c-.02 0-.03.01-.04.02s0 .02.01.02.02.01.03.01h0c0 .06-.05.06-.06.05h0v-.03s-.01-.03-.01-.04c-.02.01-.03.01-.03.02v.02s.01.04 0 .06c0 .01-.01.02-.03.02-.01 0-.02 0-.03.01s-.01.02 0 .02c.03.02.07.01.09-.02 0-.01.01-.01.02-.01h.05s.03 0 .04-.01c0 0 .01-.01.02-.01H6s.01.03.02.03h.01c.01.02.01.04.02.04.03.03.07.01.08-.02.01-.02.01-.05.02-.07-.01-.03-.01-.08 0-.12 0-.01 0-.03.01-.04zm-.19.11l.02-.02c.02-.02.01-.01.01 0s.01.02.01.03-.03.01-.04-.01z"/><path d="M5.77 8.35l.02-.08v-.02h-.02s-.02.01-.03.02c-.01 0-.01.01-.01.02.02 0 .01.02.01.04 0 0-.01.01-.02.01-.02 0-.03-.01-.05-.01-.01 0-.01-.01-.01-.02.01-.03.01-.05.02-.08h0c-.01 0-.03 0-.04.01 0 .02.01.03.01.04s0 .02-.01.03c0 .01-.01.02-.02.02s-.02 0-.03-.01h-.01s.01-.06.02-.08l.03-.1v-.02h-.01s-.05.01-.08 0h-.01c-.01.01-.01.02 0 .02.01.01.02.01.03 0 .01 0 .01-.01.02-.01s.02.01.01.01c-.01.03-.02.05-.02.08 0 .01-.01.01-.02.01-.03 0-.05.01-.07.04-.01.03-.01.04.02.05.02.01.04.01.06.02.06.01.11.03.17.04.02 0 .03 0 .04-.03zm-.23-.07v-.01zm1.41.14h0l-.01-.08c0-.01-.01-.02-.02-.01-.01 0-.02.01-.03.02.01.02.01.03.01.04.01.03 0 .03-.03.04-.02 0-.03 0-.03-.02s-.01-.05-.01-.07c0-.03-.01-.06-.01-.09l-.02-.01c.01.03.02.04.02.04 0 .02.01.05.01.07q0 0-.01.02s-.05.03-.05.06v.03s0 .02.02.02h.05s.07-.01.11-.01q0 0 0-.05zm-.15.01c0-.01 0-.02.01-.02h.01s-.01.02-.02.02zm-.61 0s.01-.07.01-.11c0-.03 0-.05.03-.07h0s-.03-.02-.04-.04c0 .01-.01.02-.01.03 0 .03-.01.05-.01.08 0 .04-.01.07-.02.11 0 .01.01.02.02.02.02 0 .02-.01.02-.02z"/><path d="M6.99 8.34v.03c-.01.01-.01.02 0 .02.02 0 .03.02.03.04 0 .03-.01.05-.04.06q0 0-.02.02h.01s.06 0 .08-.03c0 0 .01-.01.01-.02.01-.05-.01-.09-.04-.12q0 0-.02 0z"/><path d="M6.86 8.49c-.02 0-.03 0-.03-.01-.01-.01-.02 0-.03.01.01.03.02.03.03.02.01 0 .02-.01.02-.01h0s.01.02.02.02.02 0 .03-.01v-.03h-.04zm.73-.13s-.03.01-.03.02.01.02.02.02.02-.01.03-.02c0 0-.01-.02-.02-.02zm-.81-.03s-.01-.02-.02-.02-.02.01-.02.02.01.02.02.02.02-.01.02-.02zm-1.25-.12s.02-.01.02-.02-.02-.02-.02-.02c-.01 0-.02.01-.02.02s0 .02.02.02zm1.24.06s-.01-.02-.02-.02-.02.01-.02.02.01.02.02.02.02 0 .02-.02zm-1.09.12s-.02.01-.02.02.01.02.02.02.02-.01.02-.02c.01-.01 0-.02-.02-.02zm-.15-.04s-.02.01-.02.02.01.02.02.02.02-.01.02-.02-.01-.02-.02-.02zm.06.01s-.02 0-.02.02c0 .01.01.02.02.02s.02-.01.02-.02-.01-.02-.02-.02zm1.4-2.55c-.15-.03-.3-.07-.43-.16-.05.04-.11.06-.17.09a1.62 1.62 0 0 1-.38.09h-.07a1.54 1.54 0 0 0 .62 1.26c.21-.17.38-.38.48-.63a1.56 1.56 0 0 0 .13-.64h-.01s-.11 0-.17-.01zm-.21 1.02s0 .02-.01.03a1.89 1.89 0 0 1-.2.2h-.01l-.14-.12-.1-.11c-.01-.02-.03-.04-.05-.06.02.02.03.04.05.06V5.79l.12-.05.12-.06c.06.05.13.07.21.1h.01v1.05zm.29 1.21s-.06-.01-.1-.01c-.01 0-.02.01-.03.01h-.01l.01.02h.1s.01 0 .02-.01z"/><path d="M7.27 8.02l.12-.03h.01l-.01-.02h0L7.26 8h-.01l.02.02zm-.4.03s-.05-.01-.08-.01h-.04l.01.02.1.01c.01 0 .02.01.03-.01 0-.01-.02-.01-.02-.01zm.59-.08l.1-.03h.01l-.01-.02c-.02 0-.03 0-.04.01-.02 0-.04.01-.06.02h0s-.01.02 0 .02h0zm-1.35.09h.05s.02 0 .02-.01-.01-.01-.02-.02h0s-.08 0-.11.01h-.01l.01.02h.06zm-.38-.07l.11.03h.02a.43.43 0 0 0-.13-.05h-.01s0 .02.01.02zm.63.07h.01l-.01-.02h-.07l-.05.01h-.01l.01.02c.04 0 .08-.01.12-.01zm-.81-.12l.1.03h.02c-.01-.03-.01-.03-.03-.03l-.08-.03q0 0-.02.01s.01 0 .01.02z"/></g><path d="M-3.72-.29h20.61v4.6H-3.72z" fill="#ce1126"/><path d="M-3.82 8.94h20.71v4.51H-3.82z"/></g></svg>