<?xml version="1.0" encoding="UTF-8"?><svg id="Ebene_2" xmlns="http://www.w3.org/2000/svg" xmlns:xlink="http://www.w3.org/1999/xlink" viewBox="0 0 83.35 48.69"><defs><style>.cls-1{fill:none;}.cls-2{clip-path:url(#clippath);}.cls-3{fill:#f4d134;}.cls-4{fill:#fff;}.cls-5{fill:#f0c727;}.cls-6{fill:#bc0030;}.cls-7{clip-path:url(#clippath-1);}.cls-8{clip-path:url(#clippath-3);}.cls-9{clip-path:url(#clippath-2);}</style><clipPath id="clippath"><rect class="cls-1" x=".08" y=".08" width="83.18" height="48.52"/></clipPath><clipPath id="clippath-1"><rect class="cls-1" x=".08" y=".08" width="83.18" height="48.52"/></clipPath><clipPath id="clippath-2"><rect class="cls-1" x=".08" y=".08" width="83.18" height="48.52"/></clipPath><clipPath id="clippath-3"><rect class="cls-1" x=".08" y=".08" width="83.18" height="48.52"/></clipPath></defs><g id="Layer_1"><g class="cls-2"><rect x=".08" y="32.43" width="83.18" height="16.17"/><g class="cls-7"><path d="M83.35,48.69H0v-16.34H83.35v16.34h0ZM.17,48.52H83.18v-16H.17v16H.17Z"/></g><rect class="cls-4" x=".08" y="16.26" width="83.18" height="16.17"/><g class="cls-9"><path class="cls-4" d="M83.35,32.52H0V16.17H83.35v16.34h0ZM.17,32.35H83.18V16.34H.17v16H.17Z"/></g><rect class="cls-6" x=".08" y=".08" width="83.18" height="16.17"/><g class="cls-8"><path class="cls-6" d="M83.35,16.34H0V0H83.35V16.34h0ZM.17,16.17H83.18V.17H.17V16.17H.17Z"/><path class="cls-4" d="M41.21,32.02c1.59,0,3.11-.13,4-.38,.38-.07,.38-.26,.38-.51,.38-.13,.18-.57,.45-.57-.26,.07-.32-.45-.64-.38,0-.45-.45-.5-.82-.38-.76,.25-2.09,.31-3.36,.31-1.27-.06-2.6-.06-3.36-.31-.38-.12-.82-.07-.82,.38-.32-.07-.38,.45-.64,.38,.26,0,.07,.45,.45,.57,0,.25,0,.45,.39,.51,.88,.25,2.4,.38,3.99,.38h0Z"/><path class="cls-5" d="M41.21,32.17c-1.71,0-3.18-.14-4.04-.38-.44-.08-.5-.33-.5-.56-.19-.11-.24-.3-.27-.42,0-.03-.02-.07-.03-.09-.01,0-.03,0-.03,0-.08-.02-.13-.09-.12-.17,.01-.08,.08-.14,.16-.14,0,0,.02,0,.02,0,0,0,.01,0,.02,0h0s0,0,0,0c.03,0,.09-.08,.12-.12,.08-.1,.18-.23,.33-.26,.08-.37,.53-.53,1.01-.37,.61,.2,1.59,.24,2.63,.27l.69,.03c1.61,0,2.7-.1,3.31-.3,.49-.16,.94,0,1.02,.39,.17,.04,.26,.16,.33,.24,.03,.04,.09,.11,.11,.12,.02,0,.04,0,.05,0,.08,0,.15,.06,.16,.14,0,.08-.04,.15-.12,.17,0,0-.02,0-.03,0,0,0,0,0-.01,0h0s0,0,0,0c0,0,0,0,0,0,0,0,0,.06-.01,.09-.03,.12-.08,.31-.27,.42,0,.23-.06,.49-.51,.57-.85,.24-2.33,.38-4.03,.38h0Zm-4.53-1.56s.02,.08,.03,.12c.03,.14,.05,.21,.17,.25,.06,.02,.11,.08,.11,.15,0,.25,0,.31,.26,.36,.83,.24,2.31,.37,3.96,.37s3.13-.14,3.96-.37c.26-.05,.26-.11,.26-.36,0-.07,.04-.13,.11-.15,.11-.04,.14-.11,.17-.25,0-.04,.02-.08,.03-.12-.04-.04-.08-.09-.12-.13-.07-.09-.12-.15-.17-.15-.05,0-.11,0-.15-.03-.04-.03-.07-.07-.07-.12,0-.07,0-.28-.33-.28-.09,0-.19,.02-.29,.05-.64,.21-1.76,.32-3.41,.32l-.69-.03c-1.06-.04-2.07-.08-2.72-.29-.1-.03-.2-.05-.29-.05-.33,0-.33,.21-.33,.28,0,.05-.02,.09-.06,.12-.04,.03-.08,.04-.13,.03-.08,0-.12,.06-.19,.15-.03,.04-.07,.09-.12,.14h0Z"/><path class="cls-3" d="M37.6,30.43c-.13,0-.13,.07,0,.07,.06,0,.06-.07,0-.07h0Z"/><path class="cls-5" d="M37.6,30.58c-.17,0-.18-.1-.18-.12,0-.07,.11-.12,.18-.12,.05,0,.13,.07,.13,.12s-.08,.12-.13,.12h0Z"/><path class="cls-3" d="M37.6,30.18c-.07,0-.07,.13,0,.13,.12,0,.12-.13,0-.13h0Z"/><path class="cls-5" d="M37.6,30.39s-.14-.1-.14-.15,.09-.15,.14-.15c.12,0,.18,.07,.18,.15s-.06,.15-.18,.15h0Z"/><path class="cls-3" d="M37.6,31.12c-.07,0-.07,.13,0,.13,.06,0,.06-.13,0-.13h0Z"/><path class="cls-5" d="M37.6,31.34s-.14-.1-.14-.15,.09-.15,.14-.15,.13,.1,.13,.15-.08,.15-.13,.15h0Z"/><path class="cls-3" d="M37.85,31.19c-.12,0-.12,.13,0,.13,.07,0,.07-.13,0-.13h0Z"/><path class="cls-5" d="M37.85,31.4c-.12,0-.18-.07-.18-.15s.1-.15,.18-.15c.05,0,.14,.1,.14,.15,0,.07-.07,.15-.14,.15h0Z"/><path class="cls-3" d="M38.1,31.25c-.06,0-.06,.12,0,.12,.13,0,.13-.12,0-.12h0Z"/><path class="cls-5" d="M38.1,31.46s-.13-.1-.13-.15,.08-.15,.13-.15c.12,0,.18,.07,.18,.15s-.06,.15-.18,.15h0Z"/><path class="cls-3" d="M42.04,30.62c-.06,0-.06,.12,0,.12,.07,0,.07-.12,0-.12h0Z"/><path class="cls-5" d="M42.04,30.83s-.13-.1-.13-.15,.08-.15,.13-.15,.14,.1,.14,.15-.09,.15-.14,.15h0Z"/><path class="cls-3" d="M42.11,30.87c-.12,0-.12,.06,0,.06,.06,0,.06-.06,0-.06h0Z"/><path class="cls-1" d="M42.11,30.87c-.12,0-.12,.06,0,.06,.06,0,.06-.06,0-.06Z"/><path class="cls-3" d="M42.29,31.5c-.06,0-.06,.14,0,.14,.07,0,.07-.14,0-.14h0Z"/><path class="cls-5" d="M42.29,31.72s-.13-.11-.13-.15,.08-.15,.13-.15,.14,.11,.14,.15-.09,.15-.14,.15h0Z"/><path class="cls-3" d="M42.55,31.5c-.14,0-.14,.14,0,.14,.06,0,.06-.14,0-.14h0Z"/><path class="cls-5" d="M42.55,31.72c-.12,0-.19-.08-.19-.15s.06-.15,.19-.15c.05,0,.13,.11,.13,.15,0,.07-.06,.15-.13,.15h0Z"/><path class="cls-3" d="M45.15,31c-.13,0-.13,.07,0,.07,.07,0,.07-.07,0-.07h0Z"/><path class="cls-5" d="M45.15,31.15c-.17,0-.18-.1-.18-.12,0-.07,.11-.12,.18-.12,.05,0,.14,.07,.14,.12s-.09,.12-.14,.12h0Z"/><path class="cls-5" d="M38.28,31.23c-.05,0-.1-.02-.14-.03-.07-.01-.14-.04-.19-.08-.06,0-.11-.01-.2-.04-.06,0-.18-.1-.18-.27,.06-.13,.11-.31,.15-.49l.04-.16s.05-.07,.1-.06c.04,.01,.07,.06,.06,.1l-.04,.16c-.05,.2-.1,.38-.16,.49,.01,.03,.04,.07,.05,.07,.06,.02,.1,.03,.12,.04,0-.04,.02-.08,.04-.12,.01-.12,.04-.18,.09-.2,.01,.01,.03,.05,.05,.09l.05,.03s0,.03-.01,.06c0,.01,0,.02,0,.02-.02,.07-.03,.12-.05,.16,0,0,.04,.02,.11,.04,.05,.02,.1,.03,.12,.02,.03-.02,.06-.08,.09-.21l.03,.02-.09-.1s.09-.06,.13-.05c.04,0,.1,.12,.1,.16-.03,.15-.07,.28-.17,.34-.03,.02-.07,.03-.11,.03h0Z"/><path class="cls-5" d="M37.78,31.08s-.01,0-.02,0c-.19-.05-.31-.16-.31-.28,0-.07,.05-.16,.26-.21,.05,0,.09,.02,.1,.07,0,.05-.02,.09-.07,.1-.11,.02-.12,.05-.12,.05,0,.01,.06,.07,.19,.1,.04,.01,.07,.06,.06,.1-.01,.04-.04,.06-.08,.06h0Z"/><path class="cls-5" d="M39.61,31.6s-.09-.02-.11-.04c-.02,.03-.15,0-.15-.24-.03,0-.1-.02-.14-.05-.16,.07-.35,.08-.46,.04-.04,.06-.1,.11-.17,.14-.04,.02-.09,0-.11-.04-.02-.04,0-.09,.04-.11,.04-.02,.08-.05,.11-.09-.02-.04-.03-.08-.03-.14-.02-.03-.04-.12,0-.17,.15-.03,.19,.03,.23,.15,0,.04,0,.08,0,.11,.05,.02,.15,.02,.25-.01-.08-.08-.08-.2-.04-.28,.06-.12,.18-.17,.31-.13,.1,.06,.16,.15,.15,.25,0,.09-.04,.16-.11,.21,.03,.02,.06,.04,.1,.06,.04,.17,.06,.17,.09,.17h0s.1-.11,.1-.22v-.57c0-.09,.17-.09,.17,0v.57c0,.16-.08,.36-.2,.4,0,0-.01,0-.02,0h0Z"/><path class="cls-5" d="M39.94,31.4s-.08-.04-.08-.08c0-.1,.02-.24,.04-.37,.02-.12,.03-.24,.03-.33,0-.09,.17-.09,.17,0s-.02,.22-.03,.35c-.02,.12-.03,.25-.03,.35,0,.05-.04,.08-.08,.08h0Z"/><path class="cls-5" d="M40.14,31.78s-.05-.01-.07-.03c-.03-.04-.02-.09,.01-.12,.13-.1,.18-.17,.2-.24-.04-.03-.07-.06-.09-.09-.05-.08-.05-.15-.02-.2,.02-.03,.08-.05,.12-.05,.07,0,.13,.07,.17,.17,0,.02,0,.04,0,.07,.01,0,.03,0,.05,0,0,0,.03-.02,.04-.13-.03-.02-.05-.05-.05-.1s.07-.14,.11-.14c.04,0,.09,.06,.11,.11,.03,0,.07,0,.12,0,.14,.06,.39,.06,.44,.03,.15-.03,.21,.07,.21,.25,0,.01-.04,.12-.04,.13-.04,.11-.08,.2-.16,.21-.08,0-.15-.05-.2-.1-.02-.08-.02-.1-.12-.1h-.45s-.05,0-.07,0c-.03,.09-.1,.19-.25,.31-.02,.01-.03,.02-.05,.02h0Zm.56-.49h.26c.23,0,.27,.13,.27,.21,0,0,.07-.13,.07-.13,.01-.06,.02-.11,.01-.14-.15,.05-.41,.03-.52-.03-.02,0-.05,0-.08,0,0,.03,0,.06-.02,.09h0Z"/><path class="cls-5" d="M41.66,31.46s-.04,0-.05-.02c-.05-.01-.09,0-.12,0-.05,0-.13-.03-.13-.08s0-.08,.04-.08v.08l.05-.09s.06-.01,.09-.02c0-.09,.03-.15,.06-.17,.05-.05,.14-.07,.21-.04,.08,.03,.13,.11,.13,.19,0,.13-.19,.21-.28,.21h0Z"/><path class="cls-5" d="M42.17,31.45s-.05,0-.07-.01c-.03-.01-.08-.08-.08-.11,.07-.11,.15-.16,.23-.17,.02-.13,0-.33-.04-.5-.01-.04,.01-.09,.06-.1,.05-.01,.09,.02,.1,.06,.05,.17,.07,.41,.04,.59,.02,0,.13,.05,.14,.05,.06,0,.09-.03,.1-.14-.04-.05-.08-.14-.07-.16,.02-.04,.09-.07,.13-.06,.04,0,.11,.09,.11,.13,0,.02,0,.04,0,.06,0,0,0,.02,0,.03-.01,.25-.08,.32-.27,.32-.09,.04-.16,.02-.2,0h-.01c-.05,.03-.11,.05-.16,.05h0Z"/><path class="cls-5" d="M42.93,31.66s-.04,0-.06-.03c-.03-.03-.03-.09,0-.12,.06-.06,.11-.14,.14-.22-.14-.08-.17-.18-.17-.23,0-.04,0-.15,.09-.18,.09-.03,.17,.04,.24,.12,.1,.19-.04,.48-.18,.62-.02,.02-.04,.03-.06,.03h0Z"/><path class="cls-5" d="M43.38,31.53s-.07-.02-.08-.05c-.02-.04,0-.09,.05-.11,.06-.02,.09-.05,.11-.09-.13,0-.18-.06-.2-.12-.02-.08,.03-.18,.13-.24,.02-.01,.12-.04,.14-.03,.07,.03,.1,.1,.11,.21,.23-.03,.54-.11,.76-.25,.04-.03,.09-.01,.12,.03,.02,.04,.01,.09-.03,.12-.27,.16-.61,.24-.86,.26-.02,.1-.07,.2-.23,.26,0,0-.02,0-.03,0h0Z"/><path class="cls-5" d="M44.14,31.29s-.07,0-.1-.02c-.05-.07-.08-.15-.11-.24-.02,.04-.02,.07-.02,.1,0,.09-.17,.09-.17,0,0-.14,.05-.25,.14-.3,0-.02,0-.03-.01-.05l-.06-.26s.01-.09,.06-.1c.05-.01,.09,.02,.1,.06l.06,.26s0,.02,0,.03c.04,0,.09,0,.15,.02,.1,.04,.16,.12,.16,.22,.04,.05,.03,.15-.04,.22-.04,.05-.1,.07-.16,.07h0Z"/><path class="cls-5" d="M44.61,31.11c-.11,0-.2-.06-.23-.15,0-.02,0-.13,0-.15,.1-.17,.39-.18,.51-.07,.04,.1,.03,.17,0,.23-.06,.08-.17,.13-.27,.13h0Z"/><path class="cls-1" d="M44.83,30.87s.12-.07,.19-.13l-.19,.13Z"/><path class="cls-5" d="M45.13,30.9s-.08-.01-.1-.03c-.14-.07-.22-.27-.22-.57,0-.06-.02-.1-.05-.12-.05-.02-.13,0-.18,.05-.03,.03-.09,.03-.12,0-.03-.03-.03-.09,0-.12,.1-.1,.25-.14,.36-.09,.1,.04,.16,.14,.16,.27,0,.26,.07,.39,.13,.42,.02,.01,.05,.01,.08,0,0,0,0-.01,0-.02,.02-.03,.11-.13,.15-.11,.04,0,.08,.12,.08,.16-.13,.12-.22,.15-.29,.15h0Z"/><path class="cls-4" d="M41.28,24.73l5.46,5.07-.39-9.21c-.06-1.4-1.27-1.08-2.15-.57-.89,.57-1.91,.57-2.99,.19-1.07,.38-2.09,.38-2.98-.19-.88-.5-2.09-.82-2.15,.57l-.39,9.21,5.59-5.07Z"/><path class="cls-5" d="M35.69,29.88s-.02,0-.04,0c-.03-.01-.05-.05-.05-.08l.39-9.21c.04-.89,.53-1.08,.94-1.08,.49,0,1.05,.28,1.34,.44,.82,.52,1.79,.58,2.91,.19,1.26,.4,2.16,.33,2.97-.19,.29-.17,.85-.44,1.34-.44,.41,0,.9,.19,.94,1.08l.39,9.21s-.02,.07-.05,.08c-.03,.01-.07,0-.09-.02l-5.4-5.01-5.53,5.02s-.04,.02-.06,.02h0Zm1.24-10.21c-.49,0-.74,.3-.77,.92l-.38,9,5.44-4.93s.08-.03,.11,0l5.31,4.93-.38-9c-.04-1.04-.86-1.17-2.02-.5-.85,.54-1.88,.61-3.06,.2-1.04,.41-2.15,.34-3-.2-.47-.27-.91-.42-1.25-.42h0Z"/><path class="cls-4" d="M42.11,20.54c.31,.18,.63,.18,.82,.18-.64-.45-.82-1.65-.77-2.15,.13-1.02-.12-1.59-.75-1.72-.13,0-.2-.07-.45-.07-.19-.06-.34,.13-.41,.25-.19-.13-.36-.06-.54-.18-.19-.07-.51,0-.51,.45l.12-.05c.06,0,.16,.07,.29,.14,.17,.13,.41,.22,.48,.67,.13,.95,0,1.84-.89,2.66,.19,0,.51,0,.82-.18-.12,.18-.18,.25-.31,.38,.38-.07,.7-.19,.88-.5,.07,.13,.25,.31,.32,.43,.07-.13,.25-.31,.32-.43,.18,.31,.5,.43,.88,.5-.12-.12-.18-.19-.31-.38h0Z"/><path class="cls-5" d="M39.77,21.04l.18-.18s.09-.09,.12-.13c-.23,.07-.44,.07-.58,.07h-.2l.15-.14c.76-.7,1.02-1.48,.87-2.6-.05-.34-.21-.45-.36-.55l-.09-.06c-.13-.07-.22-.12-.25-.13l-.19,.09v-.12c0-.51,.37-.61,.62-.52,.1,.06,.17,.07,.25,.09,.07,.01,.15,.02,.23,.06,.07-.1,.19-.24,.36-.24,.23,.01,.32,.04,.4,.06,.05,.01,.08,.02,.12,.02,.69,.14,.96,.74,.83,1.8-.06,.52,.14,1.66,.73,2.07l.21,.14h-.25c-.14,0-.35,0-.58-.07,.04,.04,.07,.08,.12,.13l.18,.18-.25-.04c-.29-.05-.64-.15-.87-.44-.03,.04-.07,.08-.1,.13-.06,.07-.12,.15-.15,.21l-.07,.13-.07-.13c-.03-.06-.09-.13-.15-.21-.03-.04-.07-.09-.1-.13-.22,.29-.58,.39-.87,.44l-.25,.05h0Zm1.76-.79l.07,.12c.12,.2,.3,.33,.58,.41-.04-.05-.09-.11-.14-.2l.11-.11c.19,.11,.39,.15,.56,.17-.53-.54-.68-1.6-.62-2.07,.12-.98-.1-1.51-.69-1.63-.05,.03-.1-.01-.15-.03-.07-.02-.15-.03-.3-.04-.2,0-.29,.16-.32,.21l-.04,.08-.07-.05c-.08-.05-.16-.07-.24-.08-.09-.01-.19-.03-.3-.1-.05,0-.32-.09-.38,.26h0c.11,0,.19,.05,.31,.12l.14,.09c.16,.11,.36,.25,.42,.66,.1,.74,.1,1.7-.77,2.59,.17-.01,.38-.05,.58-.17l.11,.11c-.06,.08-.1,.14-.14,.2,.29-.08,.47-.21,.58-.41l.07-.12,.07,.12c.03,.06,.09,.13,.15,.21,.03,.04,.07,.08,.1,.12,.03-.04,.06-.08,.1-.12,.06-.07,.12-.15,.15-.21l.07-.12h0Z"/><path class="cls-5" d="M42.15,20.68s-.06-.02-.08-.05c-.19-.36-.37-.77-.37-1.31,0-.09,.17-.09,.17,0,0,.5,.16,.87,.35,1.23,.02,.04,0,.09-.04,.11-.01,0-.03,0-.04,0h0Z"/><path class="cls-5" d="M41.53,20.49s-.05-.01-.07-.04c-.13-.21-.21-.6-.21-1.13,0-.09,.17-.09,.17,0,0,.49,.06,.86,.18,1.04,.03,.04,.01,.09-.03,.12-.01,0-.03,.01-.05,.01h0Z"/><path class="cls-5" d="M40.28,20.68s-.03,0-.04,0c-.04-.02-.06-.07-.04-.11,.18-.34,.35-.72,.35-1.23,0-.09,.17-.09,.17,0,0,.55-.18,.95-.37,1.31-.01,.03-.04,.05-.08,.05h0Z"/><path class="cls-5" d="M40.89,20.49s-.03,0-.05-.01c-.04-.03-.05-.08-.03-.12,.12-.18,.18-.55,.18-1.04,0-.09,.17-.09,.17,0,0,.53-.07,.92-.21,1.13-.02,.03-.04,.04-.07,.04h0Z"/><path class="cls-5" d="M39.54,17.24c.13,0,.19,.05,.37,.15,.12,.07,.41,.22,.48,.61-.07-.19,.06-.39,.2-.32-.2-.45-.79-.56-1.04-.44h0Z"/><path class="cls-5" d="M40.39,18.04s-.03-.01-.04-.03c0,0,0,0,0,0h0s-.01-.06-.02-.07h0c-.09-.31-.32-.44-.44-.5l-.07-.08-.02,.04c-.12-.06-.17-.09-.27-.1,.05-.11,.14-.13,.24-.13,.3,0,.69,.16,.84,.51,0,.01-.02,.02-.03,.03,0,.01-.04,.01-.06,.01h0c-.1,.08-.12,.14-.12,.21,0,0,0,.02,0,.03,.01,.02,.02,.04,.02,.05,0,.02,0,.04-.03,.04,0,0,0,0,0,0h0Zm-.71-.8s.1,.03,.17,.07l.09,.05c.1,.06,.3,.17,.42,.4,.01-.03,.03-.05,.05-.08,.04-.04,.08-.06,.13-.06-.13-.28-.58-.43-.85-.38h0Z"/><polygon class="cls-5" points="41.47 25.74 42.23 29.23 41.98 29.48 41.72 29.28 41.28 26.17 41.47 29.28 41.21 29.6 40.96 29.28 41.15 26.17 40.71 29.28 40.45 29.48 40.2 29.23 40.96 25.74 41.47 25.74"/><path class="cls-5" d="M41.21,29.72l-.31-.39,.08-1.5-.21,1.46-.29,.24-.35-.26,.75-3.55,.57-.06,.84,3.54-.27,.32-.36-.19-.22-1.53,.09,1.47-.32,.44h0Zm0-3.49l-.18,3.06,.18,.2,.2-.25-.2-3.01h0Zm.18-.47l-.43,.06-.7,3.43,.23,.19,.17-.2,.41-3.06h.14s.14,0,.14,0l.44,3.11,.23,.15,.16-.25-.79-3.42h0Z"/><path class="cls-5" d="M36.71,20.27l-.38,8.95-.64,.57,.39-9.21c.18-.13,.5-.32,.63-.32h0Z"/><path class="cls-5" d="M37.47,20.91l-.32,7.49-.64,.66,.39-8.65c.13,.13,.5,.43,.57,.5h0Z"/><path class="cls-5" d="M38.17,21.48l-.25,6.25-.52,.5,.32-7.13c.12,.13,.38,.31,.45,.38h0Z"/><path class="cls-5" d="M38.93,21.8l-.25,5.32-.5,.41,.25-5.93c.13,.06,.38,.19,.5,.19h0Z"/><path class="cls-5" d="M39.62,21.8l-.18,4.44-.51,.5,.19-4.88c.13,0,.45,0,.5-.06h0Z"/><path class="cls-5" d="M45.72,20.27l.38,8.95,.64,.57-.39-9.21c-.18-.13-.5-.32-.63-.32h0Z"/><path class="cls-5" d="M44.95,20.91l.32,7.49,.64,.56-.39-8.55c-.13,.13-.5,.43-.57,.5h0Z"/><path class="cls-5" d="M44.26,21.48l.26,6.25,.5,.41-.32-7.03c-.12,.12-.38,.31-.45,.38h0Z"/><path class="cls-5" d="M43.5,21.8l.25,5.23,.5,.41-.25-5.83c-.12,.06-.38,.19-.5,.19h0Z"/><path class="cls-5" d="M42.8,21.8l.18,4.44,.51,.5-.19-4.88c-.13,0-.45,0-.5-.06h0Z"/><polygon class="cls-4" points="39.5 24.21 37.98 29.6 40.07 29.92 40.96 25.86 39.5 24.21"/><path class="cls-5" d="M40.07,30s0,0-.01,0l-2.09-.32s-.04-.02-.05-.04c-.01-.02-.02-.04,0-.06l1.52-5.4s.03-.05,.06-.06c.03,0,.06,0,.08,.02l1.46,1.66-.87,4.13s-.04,.06-.08,.06h0Zm-1.99-.46l1.93,.29,.87-3.99-1.35-1.48-1.46,5.17h0Z"/><polygon class="cls-4" points="42.93 24.21 44.45 29.6 42.36 29.92 41.47 25.86 42.93 24.21"/><path class="cls-5" d="M42.36,30s-.07-.03-.08-.06l-.89-4.06,1.48-1.73s.05-.03,.08-.02c.03,0,.05,.03,.06,.06l1.52,5.4s0,.04,0,.06c-.01,.02-.03,.03-.05,.04l-2.09,.32s0,0-.01,0h0Zm.54-5.64l-1.37,1.55,.89,3.92,1.93-.3-1.46-5.17h0Z"/><path class="cls-5" d="M39.18,26.58s0,0-.01,0c-.03,0-.05-.02-.06-.05l-.18-.45s0-.09,.05-.11c.04-.02,.09,0,.11,.05l.13,.32,.48-.53s.08-.04,.12,0c.04,.03,.04,.08,0,.12l-.57,.63s-.04,.03-.06,.03h0Z"/><path class="cls-5" d="M39.89,26.96s-.02,0-.02,0c-.03,0-.06-.04-.06-.07l-.2-1.77s.03-.09,.08-.09c.05,0,.09,.03,.09,.08l.17,1.56,.5-.66s.08-.04,.12-.02c.04,.03,.04,.08,.02,.12l-.63,.82s-.04,.03-.07,.03h0Z"/><path class="cls-5" d="M40.64,27.4s-.07-.02-.08-.05l-.38-.95s0-.09,.05-.11c.04-.02,.09,0,.11,.05l.38,.95s0,.09-.05,.11c-.01,0-.02,0-.03,0h0Z"/><path class="cls-5" d="M40.07,28.17s-.01,0-.02,0c-.03,0-.05-.03-.06-.06l-.26-.83-.22,.4s-.05,.06-.08,.04c-.03,0-.06-.02-.07-.05l-.22-.52-.47,.42s-.09,.03-.12,0c-.03-.04-.03-.09,0-.12l.56-.5s.05-.03,.08-.02c.03,0,.05,.02,.06,.05l.19,.47,.23-.42s.06-.04,.08-.04c.03,0,.06,.03,.07,.06l.28,.88,.42-.42s.09-.03,.12,0c.03,.03,.03,.09,0,.12l-.51,.51s-.04,.03-.06,.03h0Z"/><path class="cls-5" d="M40.26,29.31s-.08-.03-.08-.07l-.16-.78-.39,.5s-.05,.04-.08,.03c-.03,0-.06-.03-.07-.06l-.2-.62-.35,.45s-.05,.03-.08,.03c-.03,0-.05-.02-.07-.05l-.39-.95s0-.09,.05-.11c.04-.02,.09,0,.11,.05l.33,.81,.36-.46s.05-.03,.08-.03c.03,0,.06,.03,.07,.06l.2,.62,.41-.52s.05-.04,.09-.03c.03,0,.06,.03,.06,.07l.19,.96s-.02,.09-.07,.1c0,0-.01,0-.02,0h0Z"/><path class="cls-5" d="M39.75,30.01s-.02,0-.02,0c-.03,0-.05-.03-.06-.05l-.19-.59-.28,.48s-.05,.06-.08,.04c-.03,0-.06-.02-.07-.05l-.26-.69-.29,.39s-.08,.04-.12,.02c-.04-.03-.05-.08-.02-.12l.38-.51s.05-.04,.08-.03c.03,0,.06,.02,.07,.05l.26,.67,.29-.49s.04-.04,.08-.04c.03,0,.06,.03,.07,.06l.21,.65,.29-.24s.09-.02,.12,.01c.03,.04,.02,.09-.01,.12l-.39,.32s-.03,.02-.05,.02h0Z"/><path class="cls-5" d="M43.25,26.58s-.05-.01-.06-.03l-.57-.63s-.03-.09,0-.12c.03-.03,.09-.03,.12,0l.48,.53,.13-.32s.07-.07,.11-.05c.04,.02,.06,.07,.05,.11l-.18,.45s-.04,.05-.06,.05c0,0,0,0-.01,0h0Z"/><path class="cls-5" d="M42.55,26.96s-.05-.01-.07-.03l-.64-.82s-.02-.09,.01-.12c.04-.03,.09-.02,.12,.01l.51,.66,.16-1.56s.05-.08,.09-.08c.05,0,.08,.05,.08,.09l-.18,1.77s-.03,.06-.06,.07c0,0-.02,0-.02,0h0Z"/><path class="cls-5" d="M41.79,27.4s-.02,0-.03,0c-.04-.02-.06-.07-.05-.11l.38-.95s.07-.07,.11-.05c.04,.02,.06,.07,.05,.11l-.38,.95s-.04,.05-.08,.05h0Z"/><path class="cls-5" d="M42.36,28.17s-.04,0-.06-.03l-.5-.51s-.03-.09,0-.12c.03-.03,.09-.03,.12,0l.4,.41,.22-.87s.03-.06,.07-.06c.03,0,.07,0,.08,.04l.29,.44,.2-.48s.03-.04,.06-.05c.03,0,.05,0,.08,.02l.57,.5s.04,.08,0,.12c-.03,.04-.09,.04-.12,0l-.48-.42-.22,.52s-.04,.05-.07,.05c-.03,0-.06-.01-.08-.04l-.27-.41-.21,.83s-.03,.05-.06,.06c0,0-.01,0-.02,0h0Z"/><path class="cls-5" d="M42.16,29.31s-.01,0-.02,0c-.05,0-.08-.05-.07-.1l.2-.96s.03-.06,.06-.07c.03-.01,.07,0,.09,.03l.4,.52,.2-.62s.04-.05,.07-.06c.03,0,.06,0,.08,.03l.36,.46,.33-.81s.07-.07,.11-.05c.04,.02,.06,.07,.05,.11l-.39,.95s-.04,.05-.07,.05c-.03,0-.06,0-.08-.03l-.35-.45-.2,.62s-.04,.05-.07,.06c-.03,0-.06,0-.08-.03l-.39-.5-.16,.78s-.04,.07-.08,.07h0Z"/><path class="cls-5" d="M42.68,30.01s-.04,0-.05-.02l-.39-.32s-.04-.08-.01-.12c.03-.04,.08-.04,.12-.01l.29,.24,.21-.65s.04-.05,.07-.06c.03,0,.06,.01,.08,.04l.29,.49,.26-.67s.04-.05,.07-.05c.02,0,.06,0,.08,.03l.38,.51s.02,.09-.02,.12c-.04,.03-.09,.02-.12-.02l-.29-.39-.26,.69s-.04,.05-.07,.05c-.03,.02-.06-.01-.08-.04l-.28-.48-.19,.59s-.03,.05-.06,.05c0,0-.02,0-.02,0h0Z"/><path class="cls-4" d="M41.21,21.11c.64,.5,1.46,.75,2.41,.7-.07,2.22-.7,3.74-2.41,4.88-1.71-1.14-2.34-2.66-2.41-4.88,.95,.06,1.79-.19,2.41-.7h0Z"/><path class="cls-5" d="M41.21,26.75s-.02,0-.03,0c-1.64-1.09-2.37-2.57-2.44-4.93,.15-.06,.23-.06,.32-.05h0c.82,0,1.55-.24,2.12-.69,.72,.5,1.52,.75,2.45,.68,0,2.43-.74,3.9-2.38,4.99-.01,0-.02,0-.03,0h0Zm-2.42-4.88c.14,2.25,.84,3.69,2.42,4.75,1.58-1.07,2.28-2.51,2.35-4.81-.03,.07-.11,.07-.2,.07-.83,0-1.59-.25-2.19-.72-.51,.47-1.27,.72-2.12,.72h0c-.09,0-.18,0-.27,0h0Z"/><path class="cls-5" d="M41.21,26.44c1.34-.89,2.09-2.41,2.16-4.45-.82,0-1.66-.18-2.16-.63-.57,.45-1.33,.63-2.22,.63,.12,2.04,.89,3.56,2.22,4.45h0Z"/><path class="cls-5" d="M41.21,26.52s-.03,0-.04-.01c-1.35-.91-2.13-2.47-2.25-4.51,0-.02,0-.04,.02-.06,.01-.02,.04-.02,.06-.02,.93,0,1.64-.2,2.17-.61,.03-.02,.07-.02,.1,0,.44,.39,1.21,.61,2.11,.61,.02,0,.04,0,.06,.02,.01,.01,.02,.04,.02,.06-.07,2.04-.83,3.6-2.2,4.51-.01,0-.03,.01-.04,.01h0Zm-2.13-4.45c.14,1.93,.87,3.4,2.13,4.28,1.28-.88,2-2.35,2.08-4.28-.55,0-1.47-.1-2.08-.61-.53,.4-1.23,.59-2.13,.61h0Z"/><path class="cls-4" d="M39.05,29.6c.52,.07,1.09,.13,1.53,.07,.25,0,.43,.43-.07,.5-.45,.06-1.14,0-1.52-.07-.32-.06-1.02-.18-1.46-.31-.45-.19-.12-.57,.13-.51,.39,.13,.89,.25,1.39,.32h0Z"/><path class="cls-5" d="M40.08,30.28c-.41,0-.85-.05-1.1-.09-.3-.05-1.02-.18-1.47-.31-.3-.13-.29-.32-.28-.39,.03-.16,.2-.29,.37-.29,.33,.09,.86,.24,1.46,.33,.4,.05,1.05,.13,1.51,.07h0c.18,0,.33,.14,.34,.32,0,.14-.09,.31-.39,.36-.13,.02-.28,.02-.44,.02h0Zm-2.46-.92c-.12,0-.21,.08-.23,.16-.02,.1,.1,.17,.17,.2,.44,.12,1.14,.25,1.45,.3,.34,.06,1.04,.12,1.5,.07,.16-.02,.25-.09,.24-.18,0-.08-.08-.16-.17-.16-.44,.06-1.14-.02-1.54-.07-.62-.08-1.15-.24-1.41-.32h0Z"/><path class="cls-4" d="M43.38,29.6c-.52,.07-1.09,.13-1.52,.07-.26,0-.45,.43,.06,.5,.45,.06,1.14,0,1.52-.07,.32-.06,1.02-.18,1.46-.31,.45-.19,.12-.57-.13-.51-.39,.13-.89,.25-1.39,.32h0Z"/><path class="cls-5" d="M42.34,30.28c-.16,0-.31,0-.44-.02-.3-.04-.4-.21-.39-.35,.01-.17,.17-.32,.34-.32,.49,.06,1.11-.01,1.51-.07,.6-.08,1.12-.23,1.38-.32,.24-.03,.42,.12,.45,.28,.02,.08,.02,.26-.27,.39-.47,.13-1.18,.26-1.48,.32-.25,.05-.69,.09-1.1,.09h0Zm-.5-.53c-.08,0-.16,.09-.16,.16,0,.09,.08,.15,.24,.17,.45,.06,1.15,0,1.5-.07,.3-.05,1.01-.18,1.46-.31,.06-.03,.18-.1,.16-.2-.02-.08-.12-.16-.21-.16-.29,.09-.82,.24-1.44,.33-.45,.06-1.08,.13-1.54,.07h0Z"/><path class="cls-4" d="M37.47,29.35c-.39-.07-.57,.38-.45,.63,.06-.13,.32-.13,.38-.25,.07-.19-.06-.19,.07-.38h0Z"/><path class="cls-5" d="M37.03,30.07s-.06-.02-.08-.05c-.08-.15-.06-.36,.04-.53,.09-.15,.24-.23,.4-.23,.03,0,.1,.03,.11,.05,.01,.03,.05,.06,.04,.08-.05,.07-.05,.09-.04,.14,0,.05,.02,.11-.02,.22-.04,.1-.15,.14-.24,.18-.06,.02-.13,.05-.14,.08-.01,.03-.04,.06-.08,.05h0Zm.31-.62c-.12,.03-.17,.09-.2,.14-.04,.07-.07,.16-.06,.24,.04-.02,.07-.04,.11-.05,.06-.02,.13-.05,.14-.08,.02-.06,.02-.09,0-.13,0-.04,0-.08,0-.12h0Z"/><path class="cls-4" d="M39,30.52c0-.25,.25-.22,.25-.47,0-.13-.07-.32-.2-.32s-.25,.13-.25,.25c-.06,.25,.2,.29,.2,.54h0Z"/><path class="cls-5" d="M39,30.61s-.08-.04-.08-.08c0-.09-.04-.14-.09-.2-.06-.08-.14-.18-.1-.35,0-.15,.16-.32,.33-.32,.19,0,.28,.24,.28,.41s-.09,.24-.16,.3c-.06,.05-.1,.08-.1,.17,0,.05-.04,.08-.08,.08h0Zm.06-.79c-.08,0-.17,.09-.17,.17-.02,.11,.01,.16,.07,.23,.02,.02,.03,.04,.05,.07,.02-.02,.04-.04,.06-.06,.06-.05,.1-.08,.1-.17,0-.11-.06-.24-.11-.24h0Z"/><path class="cls-4" d="M40.81,29.8c.38,0,.34,.5,.16,.75,0-.18-.32-.25-.32-.38,0-.19,.29-.19,.16-.38h0Z"/><path class="cls-5" d="M40.96,30.64s-.02,0-.03,0c-.04-.01-.06-.04-.06-.08,0-.06-.07-.11-.15-.16-.09-.06-.17-.12-.17-.22,0-.13,.09-.2,.14-.25-.02-.03,0-.1,.01-.13,.01-.03,.06-.09,.09-.09,.15,0,.26,.07,.33,.19,.11,.21,.03,.52-.1,.7-.02,.02-.04,.04-.07,.04h0Zm-.04-.73c-.01,.07-.07,.12-.11,.15-.05,.04-.08,.07-.08,.11,0,.02,.07,.06,.1,.08,.05,.03,.1,.07,.14,.11,.05-.14,.06-.3,.01-.39-.02-.03-.04-.05-.06-.07h0Z"/><path class="cls-4" d="M44.95,29.35c.39-.07,.57,.38,.45,.63-.06-.13-.32-.13-.38-.25-.07-.19,.06-.19-.07-.38h0Z"/><path class="cls-5" d="M45.4,30.07s-.06-.02-.08-.05c-.01-.03-.08-.06-.14-.08-.09-.04-.19-.08-.23-.17-.04-.11-.03-.18-.02-.23,0-.04,.01-.06-.04-.14-.02-.02-.02-.05,0-.08,.01-.03,.04-.04,.06-.05,.27-.02,.41,.08,.5,.22,.1,.16,.12,.37,.04,.53-.01,.03-.04,.05-.08,.05h0Zm-.31-.63s0,.09,0,.13c0,.04-.01,.07,.01,.14,.01,.03,.08,.05,.14,.08,.04,.01,.08,.03,.11,.05,0-.08-.02-.17-.06-.24-.03-.05-.09-.13-.2-.15h0Z"/><path class="cls-4" d="M43.43,30.52c0-.25-.25-.22-.25-.47,0-.13,.07-.32,.2-.32s.25,.13,.25,.25c.06,.25-.2,.29-.2,.54h0Z"/><path class="cls-5" d="M43.43,30.61s-.08-.04-.08-.08c0-.09-.04-.12-.1-.17-.07-.06-.16-.14-.16-.3s.09-.41,.28-.41c.17,0,.34,.16,.34,.34,.04,.15-.04,.25-.11,.34-.05,.06-.09,.12-.09,.2,0,.05-.04,.08-.08,.08h0Zm-.06-.79c-.05,0-.11,.12-.11,.24,0,.09,.04,.12,.1,.17,.02,.02,.04,.04,.06,.06,.02-.02,.03-.05,.05-.07,.06-.07,.09-.12,.07-.21,0-.1-.09-.19-.17-.19h0Z"/><path class="cls-4" d="M41.62,29.8c-.38,0-.34,.5-.16,.75,0-.18,.32-.25,.32-.38,0-.19-.29-.19-.16-.38h0Z"/><path class="cls-5" d="M41.47,30.64s-.05-.01-.07-.04c-.13-.18-.21-.49-.1-.7,.06-.12,.18-.19,.33-.19,.03,0,.06,.02,.08,.05,.01,.03,.01,.06,0,.09,.09,.13,.18,.2,.18,.33,0,.1-.09,.16-.17,.22-.07,.05-.15,.1-.15,.16,0,.04-.02,.07-.06,.08,0,0-.02,0-.03,0h0Zm.04-.73s-.05,.04-.06,.07c-.05,.09-.04,.25,.01,.39,.04-.04,.09-.08,.14-.11,.04-.02,.09-.07,.1-.08,0-.04-.03-.07-.08-.11-.04-.03-.1-.08-.11-.15h0Z"/><path class="cls-4" d="M37.6,29.48c.12,0,.32,.06,.38,.12l-.38-.12Z"/><path class="cls-5" d="M37.98,29.66s-.01,0-.02,0l-.38-.12s-.04-.04-.04-.07c0-.03,.03-.05,.06-.05,.13,0,.35,.06,.42,.15,.02,.02,.02,.05,0,.07-.01,.02-.03,.03-.05,.03h0Z"/><path class="cls-4" d="M38.23,29.67c.07,0,.32,.06,.45,.12l-.45-.12Z"/><path class="cls-5" d="M38.67,29.86s-.01,0-.02,0l-.45-.12s-.05-.04-.04-.07c.01-.11,.35-.02,.53,.08,.03,.01,.04,.05,.03,.07,0,.02-.03,.04-.05,.04h0Z"/><path class="cls-4" d="M40.52,29.92c-.13,0-.38,0-.45,.06l.45-.06Z"/><path class="cls-5" d="M40.07,30.04s-.04-.01-.05-.04c0-.02,0-.05,.02-.07,.07-.06,.24-.07,.48-.07,.03,0,.06,.02,.06,.06,0,.03-.02,.06-.05,.06l-.45,.06s0,0,0,0h0Z"/><path class="cls-4" d="M39.82,29.92c-.07-.07-.32-.07-.45,0h.45Z"/><path class="cls-5" d="M39.82,29.98h-.45s-.05-.02-.06-.04c0-.03,0-.05,.03-.07,.11-.06,.37-.14,.52,.01,.02,.02,.02,.04,.01,.06,0,.02-.03,.04-.05,.04h0Z"/><path class="cls-4" d="M44.83,29.48c-.13,0-.31,.06-.38,.12l.38-.12Z"/><path class="cls-5" d="M44.45,29.66s-.04-.01-.05-.03c-.01-.02-.01-.05,0-.07,.09-.08,.29-.14,.42-.14,.03,0,.05,.02,.06,.05,0,.03-.01,.06-.04,.07l-.38,.12s-.01,0-.02,0h0Z"/><path class="cls-4" d="M44.2,29.67c-.07,0-.32,.06-.45,.12l.45-.12Z"/><path class="cls-5" d="M43.75,29.86s-.05-.01-.05-.04c-.01-.03,0-.06,.03-.08,.19-.1,.52-.19,.53-.08,0,.03-.01,.06-.04,.07l-.45,.12s-.01,0-.02,0h0Z"/><path class="cls-4" d="M41.91,29.92c.13,0,.38,0,.45,.06l-.45-.06Z"/><path class="cls-5" d="M42.36,30.04s0,0,0,0l-.45-.06s-.05-.03-.05-.06c0-.03,.03-.06,.06-.06,.25,0,.41,.01,.49,.07,.02,.02,.03,.04,.02,.07,0,.02-.03,.04-.05,.04h0Z"/><path class="cls-4" d="M42.61,29.92c.07-.07,.32-.07,.45,0h-.45Z"/><path class="cls-5" d="M43.06,29.98h-.45s-.05-.01-.05-.04c0-.02,0-.05,.01-.07,.16-.15,.41-.07,.52,0,.02,.01,.04,.04,.03,.07,0,.03-.03,.04-.06,.04h0Z"/><path class="cls-5" d="M42.11,17.42c-.13-.32-.35-.57-.66-.63-.16-.05-.32-.03-.51-.03-.2-.06-.35,.15-.42,.28,.19,.14,.24,.28,.34,.32,.19,.07,.29,0,.49-.18,.19-.19,.64-.14,.77,.25h0Z"/><path class="cls-5" d="M40.99,17.42s-.09,0-.15-.03c-.06-.02-.1-.07-.14-.13-.05-.06-.11-.13-.2-.2,.03-.12,.17-.36,.38-.36h.17c.2,0,.31,.01,.42,.04,.26,.05,.49,.24,.64,.54-.25-.17-.57-.26-.72-.1-.14,.13-.25,.22-.38,.22h0Zm-.07-.62c-.19,0-.3,.13-.37,.26,.09,.02,.16,.1,.21,.16,.04,.05,.07,.09,.11,.1,.16,.06,.24,.01,.44-.18,.14-.14,.42-.15,.61-.03-.15-.15-.31-.25-.48-.28-.1-.03-.21-.04-.31-.04h-.19s-.01,0-.02,0h0Z"/><path class="cls-4" d="M40.89,16.93c-.12,0-.12,.2,0,.2s.12-.2,0-.2h0Z"/><path class="cls-4" d="M40.89,17.21c-.1,0-.18-.08-.18-.18,0-.21,.36-.21,.36,0,0,.1-.08,.18-.18,.18h0Z"/><path class="cls-4" d="M41.99,21.78v3.99c-.23,.25-.49,.47-.78,.66-.29-.2-.55-.41-.78-.66v-4c.29-.1,.55-.24,.78-.41,.22,.18,.48,.32,.78,.42h0Z"/></g></g></g></svg>