<?xml version="1.0" encoding="UTF-8"?><svg id="Ebene_2" xmlns="http://www.w3.org/2000/svg" xmlns:xlink="http://www.w3.org/1999/xlink" viewBox="0 0 83.18 48.52"><defs><style>.cls-1{fill:none;}.cls-2{clip-path:url(#clippath);}.cls-3{fill:#fff;}.cls-4{fill:#f5d028;}.cls-5{fill:#d00428;}.cls-6{fill:#cacaca;}.cls-7{fill:#2b6a0c;}.cls-8{fill:#549b14;}.cls-9{fill:#3970ca;}.cls-10{fill:#3b9312;}.cls-11{fill:#612c0d;}.cls-12{clip-path:url(#clippath-1);}</style><clipPath id="clippath"><rect class="cls-1" width="83.18" height="48.52"/></clipPath><clipPath id="clippath-1"><rect class="cls-1" width="83.18" height="48.52"/></clipPath></defs><g id="Layer_1"><g class="cls-2"><rect class="cls-8" width="83.18" height="16.29"/><rect class="cls-3" y="16.29" width="83.18" height="15.94"/><rect class="cls-5" y="32.23" width="83.18" height="16.29"/><g class="cls-12"><path class="cls-6" d="M32.81,19.55v7.79c0,.62,.4,1.25,1.2,1.25h1.6c.4,0,.8,.62,.8,.62,0,0,.38-.62,.8-.62h1.6c.8,0,1.2-.62,1.2-1.25v-7.79h-7.21Z"/><path d="M36.42,29.28l-.04-.05s-.39-.6-.77-.6h-1.6c-.85,0-1.24-.67-1.24-1.29v-7.79l7.25-.04,.04,7.83c0,.62-.39,1.29-1.24,1.29h-1.6c-.39,0-.76,.6-.77,.6l-.03,.05h0Zm3.56-9.73l-7.16,.04,.04,7.75c0,.58,.36,1.21,1.16,1.21h1.6c.35,0,.69,.44,.8,.59,.1-.15,.43-.59,.8-.59h1.6c.8,0,1.16-.62,1.16-1.21v-7.79h0Z"/><path class="cls-6" d="M31.14,27.96c-.41,0-.81-.31-.81-.62v-1.56c.35,.27,2.01,1.25,1.61,1.56-.4,.31-.81,0-.8,0s0,.62,0,.62h0Z"/><path d="M31.18,28h-.04c-.43,0-.85-.33-.85-.66v-1.56c.14,.02,.26,.1,.4,.2,.68,.46,1.34,.93,1.35,1.23,0,.06-.02,.12-.08,.16-.28,.21-.68,.11-.81,.03,.03,.07,.03,.27,.03,.56v.04h0Zm-.88-2.19l.07,1.53c0,.28,.36,.56,.73,.58,0-.13,0-.54,0-.57,.09-.02,.25,.09,.46,.09,.13,0,.25-.04,.36-.13,.03-.03,.05-.05,.05-.09,0-.28-.82-.83-1.31-1.16-.15-.1-.27-.18-.34-.24h0Z"/><path class="cls-6" d="M31.13,27.34c.4-.31,.4,.31,.8,0l-.4,1.87c-.39-.06-.4,0-.63-.31,0-.31,0-1.31,.23-1.56h0Z"/><path class="cls-6" d="M41.65,27.96c.41,0,.81-.31,.81-.62v-1.56c-.35,.27-2.01,1.25-1.61,1.56,.4,.31,.81,0,.8,0s0,.62,0,.62h0Z"/><path d="M41.65,28l-.04-.04c0-.3,0-.49,0-.58-.08,.11-.51,.2-.79-.01-.05-.04-.08-.1-.08-.16,0-.3,.67-.77,1.35-1.23,.15-.1,.27-.18,.34-.24l.07,1.59c0,.33-.42,.66-.85,.66h0Zm-.02-.69c.05,.07,.06,.48,.06,.61,.37-.02,.73-.3,.73-.58v-1.56c0,.09-.13,.17-.28,.27-.49,.33-1.3,.88-1.31,1.16,0,.04,.01,.07,.05,.09,.28,.22,.71,.04,.75,0h0Z"/><path class="cls-6" d="M41.59,27.34c-.4-.31-.4,.31-.8,0l.4,1.87c.39-.06,.4,0,.63-.31,0-.31,0-1.31-.23-1.56h0Z"/><path class="cls-6" d="M37.97,30.14c0-.31-.8-.93-.8-1.25s.8,.31,2.41,.31,2.41-1.56,2.01-1.87c.4,.62,.4,1.25,.4,1.56,0,.62-.8,1.25-2.41,1.25h-1.61Z"/><path d="M39.58,30.18h-1.61c-.04-.18-.24-.41-.43-.64-.21-.25-.41-.48-.41-.65,0-.08,.1-.16,.53-.04,.39,.11,1.04,.31,1.92,.31,.98,0,1.55-.58,1.75-.82,.23-.29,.36-.63,.32-.84-.03-.05-.06-.1-.09-.15,.11-.02,.15,.05,.17,.12l-.07,.03c.38,.55,.38,1.09,.38,1.38,0,.62-.77,1.29-2.45,1.29h0Zm-2.32-1.33c-.06,.19,.14,.42,.34,.64,.21,.25,.41,.48,.41,.65l1.57-.04c1.63,0,2.37-.62,2.37-1.21,0-.28,0-.8-.29-1.35,.09,.21-.04,.54-.28,.85-.21,.26-.79,.86-1.81,.86-.9,0-1.55-.19-1.94-.31-.17-.05-.3-.09-.37-.09h0Z"/><path class="cls-6" d="M34.75,30.14c0-.31,.8-.93,.8-1.25s-.8,.31-2.41,.31-2.41-1.56-2.01-1.87c-.4,.62-.4,1.25-.4,1.56,0,.62,.8,1.25,2.41,1.25h1.61Z"/><path d="M34.79,30.18h-1.65c-1.69,0-2.45-.67-2.45-1.29,0-.29,0-.84,.31-1.42,.02-.07,.05-.13,.11-.17,.03,.11,0,.16-.03,.21l-.07-.03c.03,.23,.16,.57,.39,.86,.2,.25,.76,.82,1.74,.82,.88,0,1.53-.19,1.92-.31,.43-.13,.53-.05,.53,.04,0,.17-.2,.4-.41,.65-.19,.22-.39,.46-.39,.6v.04h0Zm-3.79-2.7c-.23,.59-.23,1.12-.23,1.41,0,.58,.74,1.21,2.37,1.21h1.57c.03-.17,.21-.38,.41-.61,.19-.22,.39-.46,.39-.6-.13-.05-.26,0-.43,.04-.39,.12-1.05,.31-1.94,.31-1.02,0-1.6-.6-1.81-.86-.26-.32-.39-.68-.33-.91h0Z"/><path class="cls-6" d="M34.75,29.83c0-.31,.8-.62,.8-.93v1.56h-.8v-.62Z"/><path class="cls-6" d="M37.97,29.83c0-.31-.8-.62-.8-.93v1.56h.8v-.62Z"/><path class="cls-6" d="M34.75,29.83c0,.31,3.22,.31,3.22,0v1.25c0,.31-3.22,.31-3.22,0v-1.25Z"/><path d="M36.36,31.35c-.39,0-1.65-.02-1.65-.27v-1.25c.08,.08,.64,.19,1.65,.19s1.57-.11,1.57-.19c0,.01,0,.03,0,.04l.08,1.21c0,.25-1.26,.27-1.65,.27h0Zm-1.65-1.51l.08,1.24c0,.08,.56,.19,1.57,.19s1.57-.11,1.57-.19v-1.2c-.07,.21-1.21,.23-1.57,.23-.38,0-1.62-.02-1.65-.26h0Z"/><path d="M36.36,30.1c-.42,0-.82-.02-1.11-.06-.48-.06-.54-.15-.54-.22,0-.18,.2-.33,.42-.5,.19-.15,.39-.3,.39-.43-.05-.07-.23-.02-.43,.04-.39,.12-1.05,.31-1.94,.31-1.19,0-1.92-.84-2.1-1.37-.09-.26-.07-.47,.06-.57,.23-.17,.35-.08,.45,0,.1,.08,.18,.14,.35,0l.05,.06c-.23,.17-.35,.08-.45,0-.1-.07-.17-.14-.35,0-.1,.08-.11,.26-.04,.48,.17,.51,.88,1.31,2.02,1.31,.88,0,1.53-.19,1.92-.31,.27-.08,.42-.12,.49-.07h.02s.03,.1,.03,.1c0,.18-.2,.33-.42,.5-.19,.15-.39,.3-.39,.44,0,.08,.56,.19,1.57,.19s1.57-.11,1.57-.19c0-.14-.2-.29-.39-.44-.21-.17-.42-.32-.42-.5l.04-.1c.07-.06,.22-.01,.49,.07,.39,.12,1.04,.31,1.92,.31,1.15,0,1.85-.8,2.02-1.31,.08-.22,.06-.41-.04-.48-.18-.14-.25-.07-.35,0-.1,.08-.23,.17-.45,0,.23,.07,.3,.01,.4-.06,.1-.08,.23-.17,.45,0,.13,.1,.16,.31,.06,.57-.18,.53-.91,1.37-2.1,1.37-.9,0-1.55-.19-1.94-.31-.2-.06-.38-.11-.42-.08-.01,.17,.18,.33,.37,.47,.21,.17,.42,.32,.42,.5,0,.25-1.26,.27-1.65,.27h0Z"/><polygon points="41.32 29.62 40.91 28.93 40.98 28.9 41.39 29.59 41.32 29.62"/><path d="M41.06,29.47h.09c.02,.08,.02,.15,0,.21-.02,.05-.06,.09-.12,.11-.06,.02-.12,.02-.17,0-.05-.02-.1-.05-.15-.11-.05-.05-.09-.11-.12-.18-.04-.07-.06-.14-.06-.21,0-.06,0-.12,.03-.16,.03-.04,.07-.07,.12-.09,.06-.02,.11-.02,.17,0,.06,.02,.11,.07,.16,.13l-.06,.05s-.08-.08-.11-.09c-.04-.02-.07-.02-.11,0-.04,.01-.07,.04-.09,.08-.02,.04-.02,.08,0,.13,.01,.05,.03,.1,.05,.14,.03,.06,.06,.11,.1,.15,.04,.04,.07,.07,.12,.08,.04,.01,.08,.01,.11,0,.04-.01,.07-.04,.08-.08,.01-.04,.01-.09,0-.16h0Z"/><polygon points="40.55 29.94 40.29 29.21 40.36 29.19 40.63 29.92 40.55 29.94"/><polygon points="40.05 30.02 39.97 29.35 39.77 29.36 39.76 29.27 40.25 29.24 40.25 29.33 40.05 29.34 40.12 30.02 40.05 30.02"/><path d="M39.27,29.82h.08s.01,.06,.02,.09c.01,.02,.03,.04,.06,.06,.03,.02,.06,.02,.09,.02,.03,0,.06,0,.08-.02,.02-.01,.04-.03,.05-.05,.01-.02,.02-.04,.02-.07s0-.04-.02-.06c-.01-.02-.03-.03-.05-.05-.02,0-.05-.02-.11-.04-.06-.02-.1-.03-.12-.05-.03-.02-.05-.04-.07-.07-.01-.03-.02-.06-.02-.1,0-.04,0-.08,.03-.11,.02-.03,.04-.06,.08-.08s.07-.03,.11-.03c.04,0,.08,0,.12,.03,.04,.02,.06,.05,.08,.08,.02,.04,.03,.08,.03,.12h-.08s-.02-.08-.04-.1c-.02-.03-.06-.04-.11-.04s-.08,.01-.11,.03c-.02,.02-.03,.05-.03,.08,0,.03,0,.05,.02,.07,.02,.02,.06,.04,.12,.05,.07,.02,.11,.04,.13,.05,.04,.02,.06,.05,.08,.08,.02,.03,.03,.07,.03,.11s0,.08-.03,.12c-.02,.04-.05,.06-.08,.08-.04,.02-.07,.03-.12,.03-.06,0-.1-.01-.14-.03-.04-.02-.07-.05-.09-.09-.02-.04-.03-.09-.03-.14h0Z"/><path d="M39.05,29.29h.08s-.02,.45-.02,.45c0,.08-.01,.14-.03,.18-.02,.05-.04,.08-.08,.11-.04,.03-.08,.04-.14,.04-.06,0-.1-.02-.14-.04-.03-.03-.06-.06-.07-.11-.01-.05-.02-.11-.01-.19l.03-.44h.08s-.02,.45-.02,.45c0,.07,0,.12,0,.15,0,.03,.02,.06,.05,.08,.02,.02,.05,.03,.09,.03,.06,0,.1-.01,.13-.05,.03-.03,.04-.1,.05-.19l.02-.44Z"/><path d="M38.06,29.8h.07s0,.09,.03,.11c.02,.02,.04,.03,.06,.03,.02,0,.04,0,.05-.02,.01-.01,.02-.03,.03-.05,0-.02,0-.05,0-.1v-.53h.08v.52c0,.06,0,.11-.02,.15-.01,.04-.03,.06-.06,.08-.03,.02-.06,.03-.09,.03-.05,0-.09-.02-.12-.06-.03-.04-.04-.1-.04-.17h0Z"/><path d="M36.69,31.09v-.11l.31-.56s.04-.07,.06-.1h-.34v-.1h.44v.1l-.34,.6-.04,.06h.39v.1h-.48Z"/><polygon points="32.26 30.02 32.45 29.17 32.53 29.18 32.34 30.03 32.26 30.02"/><polygon points="31.4 29.68 31.9 28.92 31.97 28.95 31.86 29.68 32.25 29.08 32.32 29.11 31.82 29.87 31.75 29.84 31.86 29.11 31.46 29.71 31.4 29.68"/><path d="M31.83,28.83l.06,.05-.43,.36c-.08,.06-.14,.11-.19,.13-.05,.03-.11,.04-.16,.05-.05,0-.1-.01-.14-.05-.04-.03-.06-.07-.06-.11,0-.04,.01-.08,.05-.13,.03-.05,.09-.1,.17-.17l.43-.36,.06,.05-.43,.36c-.07,.05-.11,.1-.13,.13-.02,.03-.04,.06-.04,.09,0,.03,.01,.05,.04,.07,.04,.03,.09,.04,.14,.03,.05-.01,.12-.06,.22-.13l.43-.35Z"/><path d="M32.69,30.09l.03-.87h.21s.08,.01,.11,.02c.04,.01,.06,.03,.09,.06,.03,.04,.05,.09,.07,.15,.01,.06,.02,.13,.02,.21,0,.07,0,.12-.02,.17-.01,.05-.03,.09-.05,.13-.02,.03-.04,.06-.06,.08-.02,.02-.04,.03-.07,.04-.03,0-.06,.01-.1,.01h-.22Zm.08-.11h.13s.07,0,.09-.01c.02,0,.04-.02,.06-.04,.02-.03,.04-.06,.05-.11,.01-.05,.02-.1,.02-.17,0-.09,0-.16-.02-.21-.02-.05-.04-.08-.07-.1-.02-.01-.06-.02-.1-.02h-.13s-.02,.66-.02,.66Z"/><path d="M33.25,30.09l.23-.87h.09l.25,.87h-.09l-.07-.26h-.25l-.07,.26h-.09Zm.18-.36h.21l-.06-.24c-.02-.07-.03-.13-.04-.18,0,.06-.02,.11-.03,.16l-.07,.25Z"/><path d="M33.88,30.09v-.87h.21s.08,0,.11,.01c.04,.01,.06,.03,.09,.06,.03,.04,.06,.09,.07,.15,.02,.06,.02,.13,.02,.21,0,.07,0,.12-.02,.18-.01,.05-.02,.09-.04,.13-.02,.03-.04,.06-.06,.08-.02,.02-.04,.03-.07,.04-.03,0-.06,.01-.1,.01h-.22Zm.08-.1h.13s.07,0,.09-.02c.02-.01,.04-.03,.05-.04,.02-.03,.03-.06,.04-.11,.01-.05,.02-.1,.02-.17,0-.09-.01-.16-.03-.21-.02-.05-.05-.08-.08-.1-.02-.01-.06-.02-.1-.02h-.13v.66Z"/><path d="M35.61,31.09v-.87h.23s.07,0,.09,0c.03,0,.05,.02,.08,.04,.02,.02,.04,.05,.05,.08,.01,.04,.02,.08,.02,.12,0,.07-.02,.14-.05,.19-.03,.05-.09,.08-.18,.08h-.16v.35h-.08Zm.08-.46h.16c.05,0,.09-.01,.11-.04,.02-.03,.03-.07,.03-.12,0-.04,0-.07-.02-.09-.01-.03-.03-.04-.05-.05-.01,0-.04,0-.08,0h-.16v.31Z"/><path d="M36.11,31.09l.23-.87h.09l.25,.87h-.09l-.07-.26h-.25l-.07,.26h-.09Zm.18-.36h.21l-.06-.24c-.02-.07-.03-.13-.04-.18,0,.06-.02,.11-.03,.17l-.07,.25Z"/><path d="M41.5,29.55l-.41-.74,.06-.04,.76,.53-.07,.04-.23-.16-.19,.11,.13,.22-.06,.04Zm-.11-.34l.15-.09-.21-.15c-.06-.04-.11-.08-.15-.11,.03,.04,.06,.09,.09,.14l.12,.22Z"/><path class="cls-11" d="M36.3,23.71c0,.46,.28,1.85-.53,4.01-.06,.16,.1,.23,.23,.27,.13,.03,.2-.13,.2-.17s.03,.27,.16,.23c.13-.03,.26-.23,.26-.23,0,0,.07,.3,.23,.3s.16-.37,.16-.37c0,.03,.11,.31,.25,.31s.33-.12,.22-.33c-.84-1.42-.79-3.76-.79-4.03s.39-.75,.77-.76l-.15-.24c-.1,.03-.21,.05-.41,.22-.2,.17-.31,.35-.31,.35v-1.13h-.33l.03,1.03s-.11-.13-.28-.28c-.16-.14-.45-.13-.62-.1l-.02,.22c.21,.04,.48-.04,.61,.16,.17,.16,.31,.3,.31,.53h0Z"/><path d="M36.86,28.16c-.15,0-.23-.19-.26-.28-.02,.07-.12,.18-.23,.21-.13,.02-.16-.09-.19-.17-.02,.06-.09,.11-.15,.11h0c-.13-.03-.25-.07-.3-.16-.03-.05-.03-.1,0-.16,.68-1.81,.58-3.09,.54-3.71,0-.12-.02-.21-.02-.29,0-.2-.12-.32-.27-.47-.11-.15-.25-.15-.4-.16-.07,0-.15,0-.22-.02v-.27c.31-.16,.54-.05,.68,.07,.17,.15,.28,.29,.28,.29l-.1-1,.37-.04,.04,1.07c.04-.08,.13-.18,.25-.28,.19-.16,.3-.19,.4-.22l.22,.25c-.39,.07-.77,.54-.77,.78,0,1.7,.28,3.15,.79,4.01,.06,.11,.04,.19,.01,.24-.05,.09-.17,.14-.26,.14-.1,0-.19-.12-.24-.22,0,.12-.04,.27-.17,.27h0Zm-.26-.36c.09,.09,.16,.28,.26,.28,.09,0,.12-.22,.12-.32,.09,.04,.19,.27,.29,.27,.07,0,.16-.04,.19-.1,.03-.05,.02-.1-.01-.16-.71-1.2-.8-3.03-.8-4.01,0-.32,.4-.82,.81-.84l-.18-.17c-.07,.05-.18,.08-.35,.23-.19,.16-.3,.33-.31,.34v-.03s-.02-.04,0-.07l-.07-1.05-.29,.04,.07,.99c-.07,.02-.18-.1-.35-.25-.17-.15-.44-.12-.59-.09l.02,.19s.1-.03,.17-.03c.16,0,.33,0,.43,.16,.18,.17,.32,.32,.32,.55,0,.07,0,.16,.02,.28,.04,.62,.14,1.91-.54,3.74,.03,.14,.1,.19,.2,.21,.11,0,.15-.11,.15-.13,.12,.18,.17,.2,.19,.2,.1-.03,.21-.16,.25-.22h0Z"/><path class="cls-10" d="M33.93,22.43h0s0,0,.02-.05c.01-.04,.05-.08,.08-.11,.06-.02,.14,0,.21-.01,.04-.05,.11,.06,.11-.01,.08,0,.08-.07,.11-.1,.08,0,.1-.08,.16-.04,.05,.02,0-.01,.1-.01,.05,0,.08,.03,.13,.01,.01-.04,.03-.09,.03-.14-.02-.03-.02-.1-.02-.16,.04-.04,.12,.04,.19,.02,.02-.05,.08-.05,.05-.1,0-.06-.02-.09,0-.16,.03-.05,.06-.05,.13-.08,.02-.05,0-.09,.02-.14,.08,0,.07-.02,.08-.07,.02-.04,.05-.08,.1-.11,.04-.03,.08-.03,.11-.08,.03-.05,.03-.07,.1-.08,.05-.02,.09-.02,.13-.05,.03-.04,.06-.08,.11-.13,.05-.03,.29,.02,.37,.02,.04-.04,.1-.1,.14-.12,.07-.03,.1-.04,.19-.04,.08,.02,.12,.04,.21,.02,.04-.04,.07-.06,.16-.04,.07,.03,.1,.03,.13,.08,.04,.07,.03,.09,.13,.1,.1,0,.11,.02,.18,.06,.1,.03,.1,.01,.1,.08,.07,0,.08,0,.08,.05,.04,.01,.09,.04,.13,.06,.04,.03,.05,.06,.14,.06,.07-.02,.09-.02,.1-.08,.05-.01,.06-.05,.08-.1,.04-.04,.07-.05,.16-.05,.08,.03,.08,.05,.06,.11,.05,0,.07,0,.08,.05,.03,.03,.02,.08-.02,.1,.04,.02,.06,.06,.08,.11-.03,.03-.01,.08,0,.12,.06,.02,.08,.04,.16,.06,.04,.02,.12,.05,.19,.06,.09,0,.12,0,.19,.02,.04,.04,.04,.1,.08,.12,.04,.03,.11,.04,.14,.07,.05,.03,.07,.06,.14,.07,.03,.03,.09,.09,.11,.12,.02,.04,.03,.11,.05,.16v.17c0,.06-.02,.1-.02,.17-.01,.03-.03,.05-.03,.1-.03,.05-.06,.09-.1,.13-.02,.06-.05,.09-.08,.14,0,.06,.02,.09,.02,.16-.04,.04-.08,.07-.14,.1-.05,.05-.08,.06-.1,.13-.03,.04-.03,.04-.1,.04-.08,0-.15,0-.22,.01-.07,0-.09,0-.13-.02-.08-.03-.14-.03-.22-.01-.05-.02-.06-.04-.14-.04-.06,0-.12,.01-.19,.01-.05-.04-.08-.05-.16-.05-.04,.02-.14,.01-.21,.01-.07-.02-.08-.04-.11-.08-.05-.02-.07-.04-.14-.05-.07,0-.16,0-.21-.01-.05,0-.11-.02-.15-.04-.03-.03-.07-.06-.11-.08-.07,0-.11,0-.14-.02-.05-.03-.09-.08-.16-.11-.06-.04-.1-.06-.13-.12,0-.06,.01-.07-.06-.07-.05,.04-.08,.05-.18,.05-.07,0-.13,0-.18-.01-.07-.03-.1-.04-.18-.05-.05,.02-.12,.05-.19,.06-.07,.03-.11,.04-.13,.08-.06,.04-.1,.06-.18,.08-.04,.03-.09,.04-.11,.1-.02,.05-.03,.08-.03,.14,.01,.06,0,.09-.03,.14-.03,.04-.09,.05-.14,.08-.08,0-.09,0-.14-.02-.06-.01-.12-.03-.19-.04-.09-.01-.12-.03-.16-.06l.16,.06c-.09-.01-.12-.03-.16-.06-.1-.05-.12-.08-.22-.08-.1,0-.14,0-.16,.07,.06,.01,.01,.04-.02,.05-.04,.03-.1,.05-.16,.06-.03,.02-.02-.02-.06-.02-.07-.03-.09-.05-.16-.06-.03-.04-.07-.08-.11-.12-.03-.04-.07-.06-.11-.1-.02-.03-.08-.03-.11-.05-.02-.04-.06-.12-.05-.17,.03-.02,.05-.1,.1-.12,.07-.04,.09,0,.18,0,.08,0-.11-.1-.03-.1,.08,0,.08-.04,.11-.07h.19Z"/><path d="M35.01,23.3l-.11-.03c-.05-.01-.12-.03-.19-.04l-.1-.04s-.06-.01-.08-.03c-.1-.06-.13-.07-.2-.08-.11,0-.11,0-.12,.04-.07,.1-.14,.12-.21,.14l-.15-.05s-.06-.03-.1-.03c-.05-.05-.07-.07-.1-.1l-.27-.2c-.02-.05-.06-.13-.04-.18,.06-.09,.08-.13,.12-.15h.13s.1-.14,.1-.14l.24-.03c0-.08,.04-.12,.07-.15h.01s.39-.08,.39-.08l.12-.08h.25s.06-.07,.07-.12c-.02-.01-.02-.07-.02-.12v-.04s.07-.04,.07-.04l.15,.04c.01-.13,0-.17,.02-.23,.03-.06,.06-.07,.1-.09h0s.04-.14,.04-.14l.08-.07c.04-.07,.07-.11,.11-.14l.14-.05-.04-.02c.03-.06,.05-.09,.12-.1h.14s-.03-.03-.03-.03c.03-.04,.06-.08,.12-.14,.13-.02,.21,0,.28,0,.05,0,.1,.01,.12,.01,.03-.04,.08-.09,.13-.12,.08-.03,.11-.04,.21-.04l.15,.03c.06-.02,.09-.05,.16-.05l.13,.03s.08,.03,.1,.08l.09,.11v-.04c.09,0,.12,.02,.17,.05,.13,.04,.14,.06,.14,.13,.09,.03,.13,.05,.19,.08,.05,.04,.06,.05,.12,.05v-.03s.15-.14,.15-.14c.05-.05,.09-.06,.19-.06,.12,.03,.12,.08,.1,.16l.1,.1s.03,.07,.05,.13v.12c.06,.01,.09,.03,.13,.04,.04,.03,.12,.05,.19,.06,.11,0,.14,0,.2,.03h.01s.05,.16,.05,.16h.08s.07,.02,.1,.04h.01s.13,.07,.13,.07c.07,.07,.1,.1,.12,.13l.05,.18-.05,.46c-.03,.06-.06,.1-.1,.14,0,.03-.03,.06-.05,.09h0s0,.18,0,.18c-.05,.07-.1,.1-.17,.13-.05,.04-.06,.06-.07,.1v.03s-.11,.04-.11,.04h0c-.1,0-.17,0-.24,.01-.08,0-.12,0-.16-.03-.03,0-.07-.01-.1-.01h-.11s-.06-.03-.13-.03c-.06,0-.11,.01-.19,.01-.06-.04-.08-.05-.16-.05-.02,.01-.08,.01-.13,.01-.17-.02-.19-.05-.22-.09l-.12-.08v.04c-.13,0-.19,0-.22-.01-.06,0-.11-.02-.15-.04-.04-.04-.07-.07-.11-.08-.08,0-.12,0-.15-.03-.09-.06-.11-.08-.15-.1-.07-.04-.12-.07-.15-.14-.07,0-.1,0-.2,0-.07,0-.14,0-.19-.01-.08-.03-.1-.04-.17-.05-.04,.02-.11,.05-.19,.06h0s-.11,.08-.11,.08c-.06,.04-.1,.06-.19,.09l-.12,.06h.04c-.02,.08-.03,.1-.03,.14,.01,.07,0,.11-.04,.17-.03,.03-.07,.05-.1,.07l-.12,.04h0Zm-.27-.14c.07,0,.13,.02,.19,.04l.08,.07,.05-.04,.15-.04-.03-.02s.04-.06,.03-.11c0-.07,.01-.1,.02-.14,.03-.09,.07-.11,.1-.12,.12-.05,.15-.07,.21-.11,.01-.04,.05-.05,.1-.07,.12-.03,.18-.05,.23-.07,.1,0,.13,.01,.19,.04,.05,.01,.12,.01,.18,.01,.09,0,.11,0,.15-.04l.03-.02,.08,.04c.03,.12,.06,.14,.12,.17,.05,.02,.08,.05,.11,.07l.13,.06c.11,.03,.16,.06,.19,.1,.02,0,.06,.02,.12,.02,.04,.01,.1,.01,.12,.01,.14,0,.18,.02,.2,.03l.14,.14v-.04c.1,0,.17,0,.19,0,.11,0,.14,0,.2,.06,.05,0,.1-.02,.16-.02,.04,.02,.11,.01,.15,.03,.06-.01,.15-.01,.23,.02l.12,.02c.07,0,.14-.01,.22-.01,.07-.08,.1-.1,.15-.14,.09-.05,.13-.08,.16-.11l-.02-.15c.05-.07,.07-.1,.08-.13,.05-.05,.07-.09,.1-.14l.07-.08-.03-.1v-.24s0-.16,0-.16l-.03,.02s-.04-.05-.07-.08c-.08-.04-.11-.06-.14-.08l-.24-.17c-.07-.06-.09-.07-.12-.07-.16,0-.24-.04-.29-.06-.04,0-.07-.02-.1-.04-.09-.09-.11-.16-.07-.21-.02,0-.04-.03-.07-.05l.05-.08-.13-.11c-.11-.06-.13-.05-.16-.02-.01,.04-.03,.09-.1,.11,.02,.05-.02,.06-.08,.08-.12,0-.15-.02-.19-.05-.06-.04-.1-.06-.13-.06h-.04l-.18-.16s-.06-.03-.13-.04c-.1,0-.12-.03-.15-.09l-.08-.08h0s-.18,.02-.18,.02c-.11,0-.14,0-.18-.01-.13,0-.15,0-.22,.02-.03,.01-.08,.07-.12,.1-.07,.02-.12,.01-.17,0-.06,0-.13-.02-.18-.02-.07,.05-.1,.08-.13,.12h0s-.2,.11-.2,.11c-.03,.07-.07,.08-.1,.09-.07,.05-.1,.08-.13,.12,0,.06-.02,.09-.11,.09h0s0,.14,0,.14l-.15,.05h.04s0,.15,0,.15l-.09,.14-.11-.02s-.04,.07-.03,.09c0,.08-.01,.13-.03,.17l-.43,.03,.03,.03c-.03,.05-.06,.1-.14,.11h0s-.21,.02-.21,.02c-.11,.03-.14,.06-.15,.09l-.09,.03h.03s-.19,.05-.19,.05c0,.03-.03,.06-.11,.07l.09,.06-.14,.02-.12,.06c-.04,.07-.01,.13,0,.16l.08,.08,.03-.03,.09,.13,.03-.03c.06,.06,.09,.09,.12,.12,.03,0,.06,0,.09,.03l.11,.05s.1-.04,.14-.06c.02-.13,.1-.13,.2-.13,.1,0,.13,.03,.19,.06,.1,.06,.12,.07,.2,.09h0s0,0,0,0h0s0,0,0,0h.01Z"/><path class="cls-7" d="M35.75,21.54c-.08,0-.11,0-.16-.03-.04-.08-.04-.09-.1-.1h0c-.07,0-.15-.03-.18-.05l.05-.06s.08,.04,.14,.04c.1,.02,.13,.06,.15,.13,.01,0,.03,0,.11,0,.08,.01,.1,.03,.13,.06l-.13-.02v.04h0Z"/><path class="cls-7" d="M35.07,22.2c-.09,0-.18,0-.21-.01v-.08s.16,.01,.25,.01c.02-.02,.05-.03,.08-.05,.15-.03,.18-.03,.23,0l.2,.07-.13,.03s-.08,0-.1-.02c-.04-.02-.06-.03-.13-.03-.05,.04-.08,.06-.13,.08-.02,0-.04,0-.06,0h0Z"/><path class="cls-7" d="M35.51,21.95l-.04-.07s.08-.04,.12-.05c.04-.03,.09-.04,.14-.06l.13-.02,.08,.07-.08-.03-.08,.05c-.08,.03-.12,.04-.16,.07-.04,.01-.09,.03-.12,.05h0Z"/><path class="cls-7" d="M36.96,22.32s-.08,0-.12,0c-.09-.03-.15-.06-.19-.1-.04,0-.08-.04-.12-.07-.11-.06-.14-.1-.19-.17-.03-.07-.05-.13-.07-.2l.05-.08h0c.05,.13,.07,.19,.09,.25,.04,.06,.07,.08,.13,.11,.08,.06,.12,.09,.15,.1,.05,.04,.1,.06,.16,.09,.03,0,.07,0,.11,0l.08,.04-.09,.04h0Z"/><path class="cls-7" d="M36.68,21.48c.06-.1,.07-.12,.12-.17l.13-.1-.04-.02c.03-.06,.06-.12,.15-.15,0-.02,.03-.07,.06-.11l.06-.1,.04,.06c-.05,.13-.07,.17-.1,.21-.08,.04-.1,.07-.12,.13l-.1,.14c-.05,.06-.08,.08-.18,.11h0Z"/><path class="cls-7" d="M37.8,21.72s-.04,0-.05-.01c-.02,0-.03-.02-.04-.04,0,0,0-.01,0-.02h0s0,0,0,0c-.04-.08-.04-.14-.04-.21,.01-.08,.02-.15,.06-.2l.12-.06v.04c-.08,.11-.09,.17-.1,.22,0,.07,0,.13,.01,.17,.05,.05,.06,.07,.12,.09,0,0,0,0,0,0h.02s-.07,.02-.09,.02h0Z"/><path class="cls-7" d="M38.6,21.94s-.04,0-.07,0h-.14l.14-.08c.09,0,.1,0,.18-.01,.02-.02,.06-.05,.09-.08l.14-.07-.03-.03,.08,.04-.1,.08c-.09,.07-.12,.1-.16,.13-.07,.02-.11,.03-.15,.03h0Z"/><path class="cls-7" d="M38.98,22.88s-.06,0-.09-.01c-.08-.04-.13-.07-.18-.11,.09-.02,.14,0,.19,.03,.07,.02,.14,.02,.21,0h.1s0,.05,0,.05v-.04s-.02,.04-.02,.04c-.08,.03-.15,.04-.2,.04h0Z"/><path class="cls-7" d="M38.59,23.26h0c-.1-.07-.12-.08-.16-.11-.12-.11-.13-.15-.15-.23-.02-.1-.03-.15,0-.2l.07,.13c.03,.11,.04,.13,.09,.2,.08,.05,.11,.08,.15,.12l.09,.07h-.08Z"/><path class="cls-7" d="M37.44,23.05v-.08s.16,0,.22-.01c.03-.02,.07-.04,.12-.06,.06-.08,.07-.11,.07-.17,.08,.08,.06,.12,.04,.16l-.08,.08s-.09,.04-.12,.06c-.08,.02-.21,.02-.25,.02h0Z"/><path class="cls-1" d="M36.46,22.57s-.07-.13-.1-.19c0-.06-.02-.11-.02-.18l.11,.37Z"/><path class="cls-7" d="M34.35,23.08s-.06,0-.06,0v-.08s.09,0,.13,0c.06-.03,.13-.04,.21-.04l.11-.04s.06-.05,.08-.09l.11-.09-.04,.12s-.04,.09-.11,.13l-.15,.05c-.07,0-.13,.01-.19,.04-.03,0-.06,0-.09,0h0Z"/><path class="cls-1" d="M35.35,22.82s-.17,0-.24-.01c-.04-.02-.06-.06-.1-.09,.02,0,.02,0,.02-.01l.32,.12Z"/><path class="cls-7" d="M35.56,22.43l-.03-.08v.04s0-.04,0-.04c.06-.02,.11-.03,.15-.03,0-.01,.06-.03,.1-.05l.14,.02-.11,.05s-.08,.03-.11,.04c-.04,0-.08,0-.15,.03h0Z"/><path class="cls-7" d="M33.68,23l-.09-.03v-.04s0,.04,0,.04l.02-.04c.13-.02,.18-.04,.24-.05,.09-.05,.17-.1,.21-.12,0,.09-.07,.13-.12,.17-.13,.04-.19,.06-.27,.07h0Z"/><path class="cls-7" d="M38.41,22.43c-.08,0-.11,0-.15-.03-.07-.05-.08-.06-.16-.09-.05,0-.08,0-.11-.02-.13-.03-.18-.04-.24-.06l-.11-.07,.06-.04c.13,.05,.18,.06,.23,.07,.11,.03,.14,.04,.19,.04,.1,.04,.12,.05,.18,.1,.03,.01,.06,.02,.14,.02,.03-.02,.11-.04,.15-.06-.02,.09-.09,.11-.13,.13-.02,0-.03,0-.04,0h0Z"/><path d="M36.26,27.8c-.08-.08-.08-.15-.1-.21,0-.15,0-.23-.02-.29-.02-.06-.02-.11-.01-.16,.05-.13,.1-.23,.14-.29,.02-.07,.03-.14,.04-.21l.02-.19c0-.07,.01-.15,.04-.21,0-.06,0-.12,.01-.19l.02-.11c.04-.05,.04-.14,.04-.25,.03-.09,.05-.18,.05-.29v-.33h.08v.33c0,.12-.01,.21-.05,.3,0,.11,0,.2-.05,.28,0,.14-.02,.2-.02,.27-.02,.07-.03,.14-.03,.2v.11c-.03,.16-.04,.24-.06,.29-.05,.11-.1,.2-.15,.25,0,.09,0,.12,0,.16,.03,.08,.03,.16,.03,.25,.02,.12,.02,.2,.02,.28h0Z"/><path d="M36.69,27.72c-.09,0-.1-.04-.1-.11,0-.03-.02-.06-.04-.09-.02-.03-.04-.07-.05-.13,0-.15,0-.24,.02-.31l.04-.28c.07-.11,.09-.15,.09-.26-.01-.1-.02-.2-.02-.31v-.46c0-.07-.02-.17-.04-.24l.07-.06h-.04s.05,.05,.05,.05c.01,.07,.03,.17,.04,.25v.46c0,.11,0,.21,.02,.31,0,.14-.03,.2-.1,.3l-.04,.27c-.03,.07-.02,.15-.02,.23,.01,.09,.03,.12,.04,.15,.02,.03,.04,.07,.05,.12,0,.07,0,.09,.02,.11h0Z"/><path d="M37.02,27.72l-.04-.05c0-.06-.03-.08-.05-.11l-.06-.09s-.05-.05-.08-.08c-.03-.04-.06-.07-.09-.09-.01-.15,.01-.22,.05-.3,.06-.05,.07-.1,.09-.19,0-.04,0-.09-.01-.13,0-.05-.01-.1-.01-.15-.02-.05-.02-.19-.02-.28h.08s0,0,0,0c0,.17,.01,.24,.02,.27,0,.07,0,.11,.01,.16s.01,.09,.01,.15c-.01,.1-.03,.18-.11,.24-.02,.06-.05,.12-.05,.22,.02-.02,.05,.03,.09,.07,.03,.03,.06,.07,.08,.08l.06,.09s.06,.07,.07,.15l-.04,.07h0Z"/><polygon class="cls-4" points="37.32 18.71 37.07 18.35 36.61 18.34 36.83 17.97 36.61 17.6 37.07 17.58 37.32 17.22 37.56 17.58 38.02 17.6 37.81 17.97 38.02 18.34 37.56 18.35 37.32 18.71"/><path d="M37.32,18.78l-.28-.41h-.43s.18-.43,.18-.43l-.22-.33,.49-.08,.21-.34,.31,.36h.43s-.18,.43-.18,.43l.22,.33-.49,.08-.25,.39h0Zm-.24-.47l.24,.33,.21-.31,.49-.03-.25-.31,.22-.41-.43,.05-.28-.37-.18,.36-.49,.03,.25,.31-.22,.41,.43-.05h0Z"/><polygon class="cls-4" points="35.43 18.71 35.19 18.35 34.73 18.34 34.95 17.97 34.73 17.6 35.19 17.58 35.43 17.22 35.68 17.58 36.14 17.6 35.92 17.97 36.14 18.34 35.68 18.35 35.43 18.71"/><path d="M35.43,18.78l-.28-.41h-.43s.18-.43,.18-.43l-.22-.33,.49-.08,.21-.34,.31,.36h.43s-.18,.43-.18,.43l.22,.33-.49,.08-.25,.39h0Zm-.24-.47l.24,.33,.21-.31,.49-.03-.25-.31,.22-.41-.43,.05-.28-.37-.18,.36-.49,.03,.25,.31-.22,.41,.43-.05h0Z"/><polygon class="cls-4" points="33.81 19.03 33.52 18.7 33.06 18.74 33.22 18.35 32.95 18.01 33.41 17.94 33.6 17.56 33.89 17.88 34.35 17.84 34.19 18.24 34.46 18.58 34 18.65 33.81 19.03"/><path d="M33.82,19.1l-.33-.37-.43,.05,.12-.45-.26-.3,.48-.13,.16-.36,.36,.32,.43-.05-.12,.45,.26,.3-.48,.13-.19,.41h0Zm-.31-.44l.29,.3,.17-.33,.49-.09-.29-.28,.16-.44-.42,.1-.33-.34-.12,.37-.49,.09,.29,.28-.16,.43,.42-.1h0Z"/><polygon class="cls-4" points="39.1 18.98 39.39 18.66 39.85 18.7 39.69 18.3 39.95 17.96 39.5 17.89 39.31 17.51 39.01 17.83 38.56 17.79 38.72 18.19 38.45 18.53 38.9 18.6 39.1 18.98"/><path d="M39.09,19.05l-.22-.44-.42-.05,.24-.41-.17-.35,.5-.02,.26-.31,.26,.39,.42,.05-.24,.41,.17,.35-.5,.02-.3,.36h0Zm-.53-1.22l.2,.34-.27,.38h.43s.19,.36,.19,.36l.25-.28,.49,.03-.2-.34,.27-.38h-.43s-.22-.41-.22-.41l-.23,.33-.49-.03h0Z"/><polygon class="cls-4" points="40.61 19.69 40.97 19.43 41.41 19.55 41.34 19.14 41.68 18.85 41.25 18.7 41.15 18.29 40.79 18.55 40.35 18.43 40.42 18.84 40.08 19.13 40.51 19.28 40.61 19.69"/><path d="M40.59,19.76l-.12-.47-.4-.12,.33-.35-.08-.38,.49,.08,.32-.26,.16,.43,.4,.12-.33,.35,.08,.38-.49-.08-.37,.29h0Zm-.25-1.29l.12,.37-.35,.32,.42,.08,.11,.38,.31-.23,.48,.12-.12-.37,.35-.32-.42-.08-.13-.44-.3,.29-.48-.12h0Z"/><polygon class="cls-4" points="32.24 19.6 31.88 19.33 31.44 19.46 31.51 19.04 31.17 18.76 31.6 18.61 31.7 18.2 32.06 18.46 32.5 18.33 32.43 18.75 32.77 19.03 32.34 19.19 32.24 19.6"/><path d="M32.27,19.67l-.41-.3-.41,.13,.02-.46-.33-.25,.44-.22,.07-.38,.42,.24,.41-.13-.02,.46,.33,.25-.44,.22-.09,.44h0Zm-.4-.37l.35,.24,.09-.35,.46-.18-.35-.22,.06-.45-.39,.17-.4-.27-.04,.39-.46,.18,.35,.22-.06,.45,.39-.17h0Z"/><polygon class="cls-9" points="0 0 0 48.52 24.26 24.26 0 0"/></g></g></g></svg>