<?xml version="1.0" encoding="UTF-8"?><svg id="Ebene_2" xmlns="http://www.w3.org/2000/svg" xmlns:xlink="http://www.w3.org/1999/xlink" viewBox="0 0 83.18 48.52"><defs><style>.cls-1{fill:none;}.cls-2{clip-path:url(#clippath);}.cls-3{fill:#f4c638;}.cls-4{fill:#d6003f;}.cls-5{fill:#49ae32;}.cls-6{fill:#5784d9;}.cls-7{clip-path:url(#clippath-1);}</style><clipPath id="clippath"><rect class="cls-1" width="83.18" height="48.52"/></clipPath><clipPath id="clippath-1"><rect class="cls-1" width="83.18" height="48.52"/></clipPath></defs><g id="Layer_1"><g class="cls-2"><rect class="cls-4" width="83.18" height="48.52"/><g class="cls-7"><path class="cls-3" d="M18.92,35.83c-1.05,.29-1.65,1.1-1.63,1.87l5.16-.02c.04-.83-.63-1.59-1.67-1.89,5.05-.1,9.45-2,10.25-3.21-.79-.34-1.7,.21-2.35,.08,1.54-.71,6.18-3.71,5.42-6.92-.58,1.79-2.36,3.26-3.11,3.66,1.73-2.63,4.09-5.36,2.04-7.48,.1,1.23-.78,2.58-1.17,2.68,1-2.78,1.96-6.26-.21-8.56,.29,.83,.17,3.17-.22,3.28-.12-1.89-.44-5.86-2.43-5.8,.63,.56,.91,2.1,.92,3.64-.45-1.06-.97-1.86-2.07-2.64-.89-1.71-2.47-3.12-4.06-4.14,.18,1.24,.32,2.22,2.06,3.51-.9-.06-1.81-1.77-2.78-1.82-.77-.04-1.37,.7-2.63,.27,.14,.41,.73,.6,.85,.91-.27,.19-.91-.03-1.44-.31,.73,1,1.87,1.58,2.83,1.38,1.14-.22,2.37-.1,3.54,.56-.3,.15-1.46,.15-2.21,.06,.68,.69,1.13,1.14,2.31,1.13,1.05,0,1.61-.56,1.88-.22,.66,.78,1.11,1.57,1.66,2.49-1.22,.13-.85-1.38-2.21-2.16-.76,1.58,.88,3.46,2,4.24,.02,1.19,.19,2.18,.69,3.09,.34,.64,.78,1.29,.61,2.73-.67-.49-1.32-2.13-1.08-3.44-.84,.23-1.17,1.7-.77,2.44,.29,.56,.49,1.65,.15,2.13-.33,.45-.37,.4-.36,1.37,.01,.58-.31,1.26-.84,1.74,.11-.41,.23-1.11,.11-1.55-.42,.7-1.46,1.44-1.79,2.19-.32,.76-.4,2.08-1.96,2.38-2.01,.4-2.7,.75-3.99,1.28-.14-.98,.29-3.03,1.11-2.91,.8,.14,3.23-.84,2.36-2.88-.17,.65-.74,1.27-1.36,1.3,.67-.87,1.86-1.77,1.28-3.22-.32,.62-.83,1.36-1.6,1.78,.83-1.58,.1-2.06-.88-.75-.37,.5-.59,1.51-.83,2.79-.39-1.04-.36-2.41-.82-3.52-.48-1.2,.63-1.52,1.15-1.42,1.28,.34,3.42,.34,3.26-1.77-.55,.71-1.52,.94-2.57,.68,1.17-.86,2.1-2.47,.79-3.31-.04,.89-.74,1.9-1.66,2.36-.22-.75-.22-1.55-.03-2.43-.52,.54-.89,1.67-1.19,2.95-.02-1.27,.22-2.18,.4-2.86,.27-1,.94-.35,1.96-.27,.99,.06,2.35-.49,2.09-1.83-.34,.53-1.03,.74-1.74,.68,.85-.52,2.34-1.43,1.52-2.84-.34,.53-.45,.99-1.44,1.16,.26-.6,.3-1.44,1.07-1.77-1.37-.27-2.15,.63-2.55,2.04-.16-.98-.36-1.34-.39-2.05,.74-.82,.82-2.43-.79-2.79-.09,.83-.07,1.03,.12,1.7-.75-.45-1.81-.69-2.52-.06,.48,.52,1.22,.97,2.36,.41-.27,.88-.97,.73-1.94,.39,.59,1.11,1.33,1.3,2.15,1.18,.43,1.13,.45,1.99-.81,3.64,.06-1.03-.02-1.79-.83-2.62-.7-.68-1.27,.03-.17,1.55-.66-.49-1.41-1.48-1.64-2.46-.22,1.22-.02,2.66,.65,3.47-.32,.34-.68-.04-1.22-.87,.2,2.68,1.34,3.19,2.88,2.6,.04,1.47,.04,2.83,.13,4.6-.89-1.29-2.03-2.25-2.66-2.49-.2,.72,.54,1.66,.96,2.18-.63-.13-2.01-1.18-2.01-1.18-.14,1.19,1.4,2.3,2.4,2.79-1.17-.05-1.69-.49-2.44-1.22,.01,3.31,3.58,2.73,4.25,2.22,.09,1.63,.21,3.51,.3,5.14-1.01-.18-.93-.48-1.79-.56-2.4-.09-4.3-2.88-4.93-4.93-.18,.34-.04,.69-.2,1.1-.39-1-.89-2.3-1.55-2.91,.17,.59,.19,1.18,.13,2.28-.23-.71-.44-.93-.46-1.76,.02-.64,.62-1.11,.58-2.01-.03-.66-.62-2.08-.71-3.18-.29,1.13-.47,2.33-.92,3.03,.22-1.21,.15-2.05,.52-2.86,.43-.86,.8-1.62,.51-2.49-.28,.33-.18,.64-.87,1.45-.15-.88,.89-2.3,1.91-2.87,.71-.38,1.62-1.73,1.03-2.65-.67,.48-.97,1.14-1.93,2.25,.68-2.65,2.44-3.34,4.55-3.35,.47,0,1.41-.17,1.67-.79-.59,.23-1.3,.26-1.92,.13,.46-.67,1.41-.58,2.31-.58,.7,0,1.79-.1,2.24-1.1-.85,.37-2.19,.45-3.03,.18,1.34-.69,3.43-.77,4.5-1.67-1.22-.91-4.28,.21-6.21,1.54,.54-.49,1.39-1.37,1.86-2.08-1.06-.51-3.73,2.45-4.65,4.21-.88,.49-1.22,1.27-1.56,1.81,.46-1.57,.51-2.72,.9-4.01-3,1.03-1.75,6.57-2.4,7.89,.08-1.46,.02-3.34-.59-4.31-.92,.7-1,4.85-.13,8.3-.31-.92-.9-1.79-1.09-2.91-1.37,2.49,.8,5.43,2.61,7.75-1.36-.71-2.71-2.24-3.6-3.52,.24,4.46,4.9,5.38,5.62,6.48-.98-.46-2.86-1.36-3.65-.41,1.29,.3,2.33,.65,3.16,1.19,1.21,1.51,3.5,2.17,7.48,2.33h0Z"/><polygon class="cls-6" points="0 48.52 83.18 48.49 83.18 24.26 0 48.52"/><polygon class="cls-5" points="0 0 83.18 .03 83.18 24.26 0 0"/></g></g></g></svg>