<?xml version="1.0" encoding="UTF-8"?><svg id="Ebene_2" xmlns="http://www.w3.org/2000/svg" xmlns:xlink="http://www.w3.org/1999/xlink" viewBox="0 0 83.18 48.52"><defs><style>.cls-1{fill:none;}.cls-2{clip-path:url(#clippath);}.cls-3{fill:#f2dd30;}.cls-4{fill:#d03633;}.cls-5{fill:#2d6c41;}.cls-6{fill:#4ba2d7;}.cls-7{clip-path:url(#clippath-1);}</style><clipPath id="clippath"><rect class="cls-1" width="83.18" height="48.52"/></clipPath><clipPath id="clippath-1"><rect class="cls-1" width="83.18" height="48.52"/></clipPath></defs><g id="Layer_1"><g class="cls-2"><rect class="cls-4" width="83.18" height="48.52"/><rect class="cls-3" width="83.18" height="32.35"/><rect class="cls-5" width="83.18" height="16.17"/><g class="cls-7"><path class="cls-6" d="M53.72,24.26c0,6.7-5.43,12.13-12.13,12.13s-12.13-5.43-12.13-12.13,5.43-12.13,12.13-12.13,12.13,5.43,12.13,12.13h0Z"/><path class="cls-3" d="M32.36,21.23h7.05l1.59-4.91,.43,1.31-2.32,7.13-.69-.5,.72-2.22h-5.67l-1.11-.81Zm3.53,10.85l2.18-6.71-4.17-3.03h1.38l6.06,4.41-.69,.5-1.89-1.37-1.75,5.4-1.11,.81h0Zm11.41,0l-5.7-4.14-4.17,3.03,.42-1.31,6.07-4.41,.26,.81-1.89,1.37,4.59,3.33,.43,1.31h0Zm3.53-10.85l-5.7,4.14,1.59,4.91-1.11-.81-2.32-7.13h.85l.72,2.22,4.59-3.34h1.37Zm-9.23-6.71l2.18,6.71h5.16l-1.11,.81h-7.5l.26-.81h2.34l-1.75-5.4,.43-1.31Z"/><path d="M41.59,28.71v0Zm-4.23-3.07l-5,1.62,5-1.62Zm1.62-4.97l-3.09-4.25,3.09,4.25Zm5.23,0l3.09-4.25-3.09,4.25Zm1.62,4.97l5,1.62-5-1.62Z"/><path class="cls-3" d="M41.79,33.97h-.4v-5.26h.4v5.26h0Zm8.96-6.51l-5-1.62,.12-.38,5,1.62-.12,.38h0Zm-18.33,0l-.12-.38,5-1.62,.12,.38-5,1.62h0Zm11.94-6.67l-.33-.24,3.09-4.25,.33,.24-3.09,4.25h0Zm-5.55,0l-3.09-4.25,.33-.24,3.09,4.25-.33,.24h0Z"/></g></g></g></svg>