<?xml version="1.0" encoding="UTF-8"?><svg id="Ebene_2" xmlns="http://www.w3.org/2000/svg" xmlns:xlink="http://www.w3.org/1999/xlink" viewBox="0 0 83.18 48.52"><defs><style>.cls-1{fill:none;}.cls-2{clip-path:url(#clippath);}.cls-3{fill:#f3edeb;}.cls-4{fill:#fff;}.cls-5{fill:#f5d028;}.cls-6{fill:#bc0030;}.cls-7{fill:#a87f36;}.cls-8{fill:#c0003b;}.cls-9{fill:#1d4805;}.cls-10{fill:#192967;}.cls-11{fill:#6cb2dd;}.cls-12{fill:#28620a;}.cls-13{fill:#30770e;}.cls-14{clip-path:url(#clippath-1);}</style><clipPath id="clippath"><rect class="cls-1" width="83.18" height="48.52"/></clipPath><clipPath id="clippath-1"><rect class="cls-1" width="83.18" height="48.52"/></clipPath></defs><g id="Layer_1"><g class="cls-2"><rect class="cls-11" width="83.18" height="48.52"/><g class="cls-14"><path class="cls-4" d="M54.73,15.43v10.33c.21,6.37,3.41,8.65,7.87,10.52,5.12-2.26,7.71-5.04,7.71-10.52V15.43h-15.59Z"/><path d="M62.6,36.37h-.03c-4.74-2-7.72-4.47-7.92-10.61V15.34h15.75v10.41c0,5.16-2.18,8.13-7.76,10.6h-.03Zm-7.79-20.84v10.25c.2,6.06,3.01,8.42,7.79,10.43,5.49-2.43,7.63-5.36,7.63-10.43V15.51h-15.42Z"/><path class="cls-8" d="M54.73,25.58s.02,1.33,.37,3h14.9c.33-1.5,.37-3,.37-3h-15.63Z"/><path class="cls-8" d="M61.02,20.4v15.1c.74,.37,1.68,.79,1.68,.79,0,0,.63-.41,1.32-.75v-15.13h-3Z"/><rect class="cls-10" width="41.68" height="20.84"/><polygon class="cls-4" points="0 0 0 2.33 37.02 20.84 41.68 20.84 41.68 18.51 4.66 0 0 0"/><polygon class="cls-4" points="41.68 0 41.68 2.33 4.66 20.84 0 20.84 0 18.51 37.02 0 41.68 0"/><rect class="cls-4" x="17.37" width="6.95" height="20.84"/><rect class="cls-4" y="6.95" width="41.68" height="6.95"/><rect class="cls-6" y="8.34" width="41.68" height="4.17"/><rect class="cls-6" x="18.76" width="4.17" height="20.84"/><polygon class="cls-8" points="0 20.84 13.89 13.89 17 13.89 3.11 20.84 0 20.84"/><polygon class="cls-8" points="0 0 13.89 6.95 10.79 6.95 0 1.55 0 0"/><polygon class="cls-8" points="24.68 6.95 38.57 0 41.68 0 27.79 6.95 24.68 6.95"/><polygon class="cls-8" points="41.68 20.84 27.79 13.89 30.89 13.89 41.68 19.29 41.68 20.84"/><rect class="cls-8" x="54.71" y="15.38" width="15.63" height="5.57"/><path class="cls-3" d="M55.56,18h0c.27,0,.5,.29,.5,.64h0c0,.37-.22,.66-.5,.66h0c-.27,0-.49-.29-.49-.64h0c0-.37,.22-.66,.49-.66h0Z"/><path d="M55.56,19.3h0c-.28,0-.5-.29-.5-.65s.23-.66,.5-.66,.51,.29,.51,.65-.23,.66-.5,.66h0Zm0-1.3c-.28,0-.49,.29-.49,.64s.22,.65,.49,.65h0c.27,0,.49-.29,.49-.64s-.22-.65-.49-.65h0Z"/><path class="cls-5" d="M67,17.65s.9-.06,1.21-.37c.32-.31-.21-.87,.12-.93,.13,0,.33,.03,.47,.18-.02-.12-.11-.18-.15-.25-.12-.1-.25-.09-.43-.09-.12,.02-.15-.02-.35-.22-.1-.1-.1-.34-.02-.5-.24,.15-.19,.37-.17,.41,.06,.21,.11,.27,.11,.37-.07-.03-.19-.28-.83-.32-.64-.04-2.26,.39-2.99,.39s-1.79-.26-1.79-.26c0,0,.27-.18-.06-.26-.33-.08-1.05,.27-1.25,.08-.15-.18-.09-.14-.11-.23-.06,.03-.09,.15-.01,.3,.08,.15,.12,.11,.11,.11-.01,0-.26,0-.28,.08-.02,.06-.06,.13,.07,.34,.04-.21-.12-.24,.25-.26,.37-.02,.63,.13,.95,.17,.31,.05,.31-.12,.33-.11,.01,0,.97,.23,1.84,.18,.88-.05,2.3-.46,2.95-.38,.65,.09,1.08,.49,1.09,.87-.01,.23-.29,.35-.52,.39-.27,.04-.9,.1-.9,.1l.35,.21Z"/><path d="M67,17.66h0s-.35-.21-.35-.21c0-.01,.63-.07,.9-.11,.12-.02,.5-.11,.51-.38-.01-.35-.42-.77-1.08-.86-.37-.05-1.01,.07-1.63,.18-.46,.08-.94,.17-1.32,.19-.87,.05-1.8-.17-1.85-.18,.12,.01,1.02,.21,1.85,.17,.37-.02,.85-.11,1.31-.19,.62-.11,1.26-.24,1.64-.18,.7,.09,1.09,.52,1.1,.88-.01,.28-.4,.37-.52,.39-.27,.04-.9,.1-.9,.1l.35,.2c.05,0,.91-.07,1.21-.37,.16-.16,.1-.37,.05-.57-.03-.13-.06-.24-.02-.3,.02-.03,.05-.05,.1-.06,.12,0,.32,.02,.48,.19-.03-.07-.07-.12-.11-.17-.15-.15-.25-.16-.39-.16h-.14s0,0,0,0c-.08,0-.12-.04-.25-.17-.16-.16-.15-.41-.08-.56-.21,.16-.18,.36-.15,.41,.03,.1,.05,.17,.07,.22,.02,.06,.04,.1,.04,.15-.15-.11-.33-.28-.84-.31-.41,.04-.99,.1-1.53,.19-.54,.1-1.11,.2-1.46,.2-.72,0-1.78-.26-1.79-.26,0-.02,.11-.09,.1-.16,0-.04-.06-.08-.15-.1-.13-.03-.36,.01-.58,.06-.28,.06-.57,.11-.67,.01-.11-.13-.11-.15-.11-.19-.05-.01-.08,.09,0,.25,.03,.07,.06,.09,.08,.1-.14,.02-.23,.05-.25,.08-.02,.06-.05,.13,.07,.33,0-.06,0-.11-.01-.14,0-.02,.01-.04,.02-.05,0,.09,0,.13,0,.2-.14-.21-.11-.28-.08-.34,.02-.07,.17-.08,.26-.09-.03,0-.06-.04-.09-.09-.08-.17-.04-.28,.02-.31,.02,.09,.02,.1,.12,.23,.09,.09,.38,.05,.66-.02,.22-.05,.45-.09,.59-.06,.1,.02,.16,.06,.17,.11,.01,.08-.1,.16-.11,.16,0,0,0,0,0,0,.05,0,1.08,.25,1.78,.25,.35,0,.91-.1,1.46-.2,.54-.09,1.1-.19,1.45-.19,.61,.03,.79,.2,.88,.28,.04,0,.02-.04,0-.1-.02-.05-.05-.12-.07-.22-.03-.06-.06-.27,.17-.42-.07,.18-.06,.41,.03,.5,.18,.18,.22,.22,.29,.22h.14c.14,0,.24,0,.35,.08,.09,.12,.13,.18,.15,.25-.17-.16-.37-.17-.44-.17-.08,0-.11,.03-.13,.05-.04,.06,0,.17,.02,.29,.05,.19,.11,.42-.05,.58-.31,.31-1.21,.37-1.22,.37h0Zm-5.03-1.25s-.07,0-.11,0c-.12-.02-.22-.05-.33-.08-.17-.05-.34-.1-.54-.1-.16,0-.23,.01-.27,.03,.04-.03,.1-.03,.2-.04,.26-.01,.45,.05,.62,.09,.11,.03,.22,.06,.33,.08,.25,.04,.3-.06,.31-.09,0,0,0,0,0,0,0,.04-.05,.12-.21,.12h0Z"/><path class="cls-5" d="M65.99,17.87s-.6,.01-.78,.33c-.17,.32-.25,.62-.24,.62,.01,0,.39-.26,.39-.26,0,0-.28,.52-.13,1,.15,.47-.4,.44-.72,.46-.14-.14-.6-.37-.76-.41-.1-.05-.3-.05-.51,.24-.12,.18,.18-.17,.48-.14,.03,.04,.05,.08,.06,.18-.16-.01-.33-.25-.52,.24,.2-.17,.22-.16,.32-.17,.13-.01,.12,.08,.11,.08-.02,0-.08,.01-.16,.11-.04,.07-.15,.22-.13,.22,.02,0,.09-.08,.19-.15,.06-.06,.12-.06,.32,.01,1.06,.32,1.63,.08,1.69-.04,.03-.05-.61-1.62,1.1-2.03-.02-.01-.72-.25-.72-.26h0Z"/><path d="M64.89,20.37h0c-.29,0-.62-.05-.97-.16-.2-.07-.24-.08-.31-.01-.05,.04-.1,.08-.13,.11-.01,0-.02,0-.03,0,.07-.06,.1-.09,.15-.12,.07-.06,.12-.06,.32,.01,.86,.26,1.61,.1,1.69-.04-.26-1.14,.12-1.8,1.11-2.03-.01,0-.14-.04-.26-.08-.44-.15-.46-.16-.46-.17,0,0-.59,.02-.77,.33-.17,.3-.25,.6-.24,.62,0,0,.24-.16,.39-.27,0,.01-.27,.54-.12,1,.04,.12,.03,.22-.02,.29-.11,.15-.39,.16-.62,.17,0,0-.01,0-.02,0,.28-.01,.53-.03,.63-.17,.05-.07,.05-.16,.01-.28-.15-.47,.13-.99,.13-1-.14,.11-.38,.27-.39,.27-.01-.02,.07-.32,.24-.63,.18-.32,.77-.33,.78-.33,.02,.01,.27,.1,.46,.17,.16,.06,.26,.09,.27,.1-.98,.25-1.36,.89-1.12,1.94,.02,.07,.02,.09,.02,.1-.04,.08-.28,.2-.73,.2h0Zm-1.62-.26c.11-.32,.27-.33,.41-.28,.04,.01,.07,.03,.11,.03,0-.06-.02-.1-.04-.14,.03,.04,.04,.08,.05,.14-.05,0-.08-.01-.12-.03-.1-.04-.22-.2-.4,.27,.18-.17,.21-.17,.31-.18,.08-.01,.13,.03,.13,.06,0,0,0,0-.01,0l-.08-.06c-.13,.01-.15,.01-.34,.17h0Zm.01-.25s.02-.03,.02-.04c.11-.05,.25-.13,.39-.13,0,0,.01,0,.02,.01-.19,0-.35,.11-.43,.16h0Zm.97-.04c-.2-.1-.4-.2-.5-.22-.05-.03-.17-.06-.33,.06,.15-.14,.28-.09,.33-.07,.1,.02,.31,.12,.49,.23h0Z"/><path class="cls-5" d="M58.64,19.6c.7,.64,5.45-.68,6.05-1.13,.34-.26,.95-.46,.95,.44,.15-.61,.15-.76,.15-.75,.01,.01,.24,.24,.45,.98,.05-.66-.09-1.05-.01-1,.05-.05,.05,.33,.46,.87-.09-.43-.12-.62-.12-.62,0,0,.77,.8,1.2,.91,.43,.11,1.06-.22,1.25-.03,.19,.19,.52,.54,.51,.82-.01,.28-.72,.04-.79,.26-.08,.22,.05,.22,.05,.22,0,0,.06,.17,.12,.3,.04-.1-.04-.3,.1-.32,.1,.01,.1,.19,.13,.29,.03-.11,0-.33,.09-.33,.1-.02,.11,.18,.19,.3v-.3c.29-.1,.55-.11,.59-.32,.04-.21-.45-.68-.56-.98-.12-.3,.09-.43-.13-.59-.22-.17-1.05,.26-1.43,.1-.38-.17-.23-1.35-1.68-1.62-1.44-.26-5.36,1.38-6.05,1.45-.69,.07-1.54-.24-1.54-.24v1.27Z"/><path d="M68.91,20.91l-.05-.14,.05,.1s0-.07,0-.11c0-.09,0-.19,.1-.2,.09,.01,.1,.12,.12,.22,.02-.16,.03-.26,.1-.26,0,0,0,0,0,0,.07,0,.1,.08,.13,.16,.02,.05,.04,.1,.06,.15v-.3s.18-.06,.18-.06c.2-.06,.36-.1,.39-.26,.02-.12-.13-.33-.28-.53-.11-.16-.23-.32-.28-.45-.05-.14-.04-.24-.03-.32,.01-.1,.02-.18-.1-.27-.09-.07-.34-.02-.61,.04-.31,.07-.64,.13-.82,.06-.13-.06-.2-.22-.28-.43-.18-.43-.42-1.01-1.39-1.19-.98-.18-3.1,.52-4.6,1.02-.69,.23-1.23,.41-1.45,.43-.69,.08-1.53-.23-1.54-.24l.02,1.26c.12,.11,.38,.16,.77,.16,1.58,0,4.8-.94,5.27-1.3,.09-.07,.31-.22,.54-.22,.19,0,.42,.12,.42,.67,.12-.53,.14-.71,.14-.75,.07,.06,.28,.31,.46,.98,.02-.38-.02-.67-.04-.84-.01-.11-.02-.15,0-.16,.05,0,.06,.03,.09,.1,.05,.14,.14,.43,.4,.77-.1-.42-.13-.62-.13-.62,.02,0,.78,.8,1.21,.9,.19,.04,.45,0,.68-.04,.26-.05,.48-.08,.57,.01,.17,.17,.53,.54,.51,.82,0,.15-.21,.16-.41,.16-.17,0-.35,0-.38,.1-.03,.08-.03,.12-.02,.15-.02-.05-.01-.1,0-.16,.04-.11,.22-.11,.39-.12,.19,0,.39,0,.4-.14,.01-.28-.34-.64-.51-.81-.08-.09-.3-.06-.56,0-.23,.04-.5,.09-.69,.04-.41-.11-1.14-.84-1.2-.91,.01,.03,.04,.23,.12,.61-.28-.34-.37-.63-.42-.77-.02-.05-.03-.1-.04-.1-.03,0-.02,.08-.01,.15,.02,.17,.05,.46,.02,.84-.2-.67-.4-.92-.46-.98,0,.03,0,.21-.14,.74-.02-.68-.46-.81-.95-.44-.47,.36-3.7,1.3-5.28,1.3h0c-.39,0-.65-.06-.78-.17l-.02-1.28h0s.86,.29,1.54,.23c.22-.02,.76-.2,1.45-.43,1.5-.5,3.62-1.2,4.6-1.02,.98,.18,1.22,.77,1.4,1.2,.08,.2,.15,.37,.27,.42,.18,.08,.5,.01,.81-.06,.28-.06,.53-.11,.62-.04,.12,.09,.11,.18,.1,.28-.01,.08-.02,.18,.03,.31,.05,.13,.17,.29,.28,.45,.16,.21,.31,.42,.28,.54-.03,.17-.2,.21-.4,.27l-.19,.05v.3s-.06-.09-.07-.14c-.07-.2-.18-.12-.19,.04,0,.05,0,.1-.02,.14-.04-.17-.06-.28-.14-.29-.08,0-.08,.09-.08,.18,0,.05,0,.09-.01,.13v.02h0Z"/><path class="cls-5" d="M57.74,19.14s-.75,.93-1.25,.92c-.5-.04-.91-.66-1.02-.61-.11,.04-.14-.05-.18-.22-.04-.17,.05-.25,.04-.24,.03,0,.05,.28,.08,.3,.02,.02-.08-.34,.07-.34,.05,0,.04,.26,.09,.38,.02-.01-.05-.39,.01-.39,.07,0,.09,.38,.19,.49,.14,.2,.37,.31,.68,.38,.32-.04,1.07-.89,1.13-.86l.16,.18Z"/><path d="M56.5,20.07h-.02c-.32-.02-.6-.28-.79-.45-.08-.07-.14-.13-.19-.15,.06,.02,.12,.08,.19,.14,.19,.17,.47,.43,.79,.45h.01s0,0,0,0c.49,0,1.22-.91,1.23-.91l-.16-.17s-.15,.11-.29,.25c-.27,.25-.63,.59-.83,.62-.34-.08-.55-.21-.68-.38-.05-.06-.08-.19-.11-.3-.02-.09-.05-.19-.07-.19-.03,.03-.02,.18-.01,.27,0,.09,0,.11,0,.11-.03-.06-.04-.14-.05-.21,0-.05-.01-.1-.02-.14,.02,.03,.03,.08,.04,.13,0,.07,.02,.14,.03,.19,0-.02,0-.05-.01-.09-.01-.13-.02-.25,0-.28,.04-.02,.07,.06,.1,.19,.03,.11,.06,.24,.11,.29,.13,.18,.34,.3,.67,.38,.19-.03,.56-.37,.82-.61,.17-.16,.27-.25,.3-.25l.17,.19s-.74,.93-1.24,.93h0Z"/><path class="cls-5" d="M57.76,18.62s-.61-.98-1.11-1.08c-.5-.08-.98,.38-1.09,.31-.1-.06-.14,.02-.2,.16-.06,.14,.01,.23,.01,.22,.03,0,.09-.23,.12-.25s-.13,.28,.03,.31c.05,.02,.08-.22,.14-.31,.01,.02-.1,.33-.04,.34,.06,.02,.14-.31,.26-.39,.17-.14,.41-.19,.72-.19,.31,.11,.93,1.01,1,1l.18-.12Z"/><path d="M57.58,18.75s-.11-.1-.26-.28c-.23-.27-.54-.65-.73-.72-.33,0-.56,.06-.71,.19-.06,.04-.11,.14-.15,.24-.04,.09-.07,.16-.11,.16-.04-.05-.01-.17,0-.26-.06,.17-.08,.23-.11,.23-.01-.01-.02-.03-.03-.04,.05,0,.08-.05,.09-.11,.02-.06,.04-.13,.07-.17-.03,.18-.06,.3-.04,.33,.03,0,.07-.07,.11-.14,.04-.09,.09-.2,.15-.24,.15-.13,.38-.19,.72-.19,.2,.07,.51,.45,.74,.72,.12,.14,.23,.27,.25,.28l.18-.12s-.62-.97-1.11-1.07c-.31-.05-.62,.11-.83,.22-.1,.05-.18,.09-.23,.09-.14-.02-.17,.04-.22,.15-.05,.12,0,.2,0,.21,.01,0,.04-.08,.06-.13,.03-.07,.04-.11,.06-.12-.01,.07-.03,.13-.03,.19,0-.06,.01-.11,.02-.14-.07,.18-.09,.22-.1,.22-.03-.03-.07-.11-.02-.23,.05-.11,.09-.18,.15-.18,.13,.03,.21-.01,.31-.07,.21-.11,.52-.28,.84-.22,.5,.09,1.11,1.07,1.12,1.08l-.19,.13h0Z"/><path class="cls-5" d="M57.45,18.31l-.68,.36,.5,.14-.36,.44,.51-.18-.04,.59,.29-.39,.19,.54,.2-.4,.24,.44,.1-.43,.29,.43,.1-.58,.36,.36-.05-.61,.43,.15-.27-.47s.47-.03,.45-.03-.36-.3-.65-.39h-1.64Z"/><path d="M58.72,19.88l-.3-.44-.09,.43-.25-.44-.19,.4-.2-.54-.28,.39,.03-.6-.5,.19,.35-.45-.5-.13,.68-.37h1.64c.22,.05,.45,.22,.57,.32l.07,.05c-.21-.14-.44-.31-.65-.37h-1.64s-.67,.37-.67,.37l.5,.13-.36,.45,.51-.19-.03,.6,.28-.39,.2,.54,.19-.4,.25,.44,.09-.43,.3,.42,.1-.57,.37,.36-.06-.6,.44,.15-.28-.46s.43-.03,.45-.04h0s0,.01-.45,.04l.27,.46-.44-.14,.06,.6-.37-.35-.09,.59h0Z"/><path class="cls-5" d="M57.81,18.16l-.37,.2,.27,.08-.2,.25,.28-.1-.02,.34,.16-.22,.11,.31,.11-.23,.13,.25,.06-.24,.16,.24,.06-.33,.2,.2-.03-.34,.24,.09-.15-.27s.26-.02,.25-.02c-.01,0-.2-.17-.36-.22h-.9Z"/><path d="M58.51,19.05l-.17-.25-.05,.24-.14-.25-.1,.23-.12-.31-.15,.22v-.34s-.26,.11-.26,.11l.19-.26-.27-.07,.37-.21h.9c.12,.03,.25,.13,.31,.18,0,0,.01,0,.02,.01-.11-.07-.22-.16-.33-.19h-.89s-.37,.21-.37,.21l.27,.07-.19,.26,.27-.11v.34s.14-.22,.14-.22l.11,.31,.1-.23,.14,.25,.05-.24,.16,.23,.05-.32,.21,.2-.04-.34,.24,.08-.15-.26s.17-.02,.23-.02c-.01,.01-.07,.02-.23,.02l.15,.26-.24-.08,.03,.34-.21-.2-.05,.34h0Z"/><path class="cls-5" d="M58,17.18s-.19-.16-.27,0c-.08,.17,.17,.1,.17,.12s-.17,.22-.17,.44,.13,.59,.13,.65,.05,.21,.23,.26c.18,.05,.24-.18,.28-.21,.04-.03,.28,.04,.37-.19,.09-.23,.09-.66,.09-.66,0,0,.15,.12,.15-.12s-.17,0-.17,0c0,0,.03-.26-.37-.39-.4-.12-.43,.12-.45,.1h0Z"/><path d="M58.14,18.67h-.05c-.18-.06-.23-.21-.23-.28,0-.02-.01-.07-.03-.14-.04-.14-.09-.36-.09-.51,0-.1,.03-.19,.07-.27-.03,.09-.06,.17-.06,.27,0,.15,.06,.36,.09,.5,.02,.07,.03,.13,.03,.15,0,.06,.06,.2,.23,.26h.05c.1,0,.15-.09,.19-.15l.1-.06c.09,0,.24,0,.3-.18,.09-.23,.09-.66,.09-.66,.14,.02,.15-.06,.15-.12,0-.05,0-.1-.04-.1-.04,0-.1,.08-.12,.11-.01,0,0-.26-.38-.38-.27-.09-.4,.03-.43,.08,0,0,0,0-.01,0,.04-.06,.17-.18,.44-.09,.36,.12,.38,.35,.37,.39,.01-.04,.17-.18,.17,0,0,.14-.05,.16-.09,.16-.06,0-.07,.41-.15,.63-.07,.18-.22,.19-.31,.19l-.09,.06c-.04,.07-.09,.17-.2,.17h0Z"/><path class="cls-5" d="M57.95,17.14c-.05-.16-.2-.76-.2-.76l.33,.22c-.11-.04-.21-.07-.2-.07s.15,.29,.15,.29c.13-.01,.26,.05,.42,.11,0,0,.13-.24,.12-.24-.01,0-.07-.04-.07-.04l.3-.23-.09,.3h-.06s-.12,.22-.12,.22c.14,.04,.2,.07,.34,.21,.12-.03,.21-.13,.28-.21-.11-.05-.16-.08-.14-.08,.01,0,.44,.03,.44,.03,0,0-.41,.43-.66,.59-.23-.1-.81-.29-.84-.35h0Z"/><path d="M58.79,17.49h0c-.09-.04-.22-.09-.36-.14-.29-.11-.46-.17-.48-.21-.05-.16-.2-.76-.2-.76l.34,.21-.17-.04s.05,.12,.09,.2c-.06-.09-.11-.19-.13-.21l.2,.05-.34-.21s.16,.6,.21,.75c.01,.03,.26,.12,.47,.2,.14,.05,.27,.1,.36,.14,.23-.16,.63-.56,.65-.59-.02,0-.39-.02-.43-.02,.01,0,.06,.03,.14,.07-.09,.13-.18,.2-.28,.22-.14-.14-.21-.17-.34-.21l.26-.54h0s0,0,0,0l-.08,.31-.18,.22c.13,.03,.2,.06,.34,.2,.08-.02,.17-.09,.26-.21,0,0-.15-.06-.15-.08,.02,0,.45,.02,.45,.02,0,.02-.41,.45-.65,.6h0Zm-.32-.56l-.12-.04c-.1-.04-.19-.07-.27-.07,0,0,0,0,0,0,.1-.01,.19,.03,.29,.07l.11,.04c.03-.07,.08-.17,.1-.22,0,.03-.03,.09-.1,.23h0Z"/><path d="M58.16,17.58h0c.07,.04,.1,.07,.07,.06h0s-.12-.04-.2-.08h0c-.07-.04-.1-.06-.07-.06h0s.12,.04,.2,.08h0Z"/><path d="M58.54,17.75h0c.07,.04,.1,.07,.07,.06h0s-.12-.04-.2-.08h0c-.07-.04-.1-.06-.07-.06h0s.12,.04,.2,.08h0Z"/><path d="M58.29,18.21h0c.14,.05,.2,.09,.13,.09h0c-.07,0-.24-.05-.38-.11h0c-.14-.05-.2-.09-.13-.08h0c.07,0,.24,.05,.38,.11h0Z"/><path d="M58.27,17.99h0c.06,.03,.09,.05,.06,.04h0s-.11-.03-.17-.05h0c-.06-.03-.09-.04-.06-.04h0s.11,.03,.17,.05h0Z"/><path d="M58.18,18.04h0c.02-.06,.04-.09,.04-.06h0s0,.1-.03,.16h0c-.02,.06-.04,.09-.04,.06h0s0-.1,.03-.16h0Z"/><polygon class="cls-13" points="55.89 29.38 55.58 28.84 56.02 29.37 56.04 29.58 55.89 29.38"/><path d="M56.05,29.6l-.16-.22-.31-.54,.45,.52,.02,.24h0Zm-.47-.76l.46,.72-.02-.19-.44-.53h0Z"/><polygon class="cls-13" points="55.98 29.44 56.03 29.05 56.16 29.52 56.04 29.6 55.98 29.44"/><polygon points="56.04 29.61 55.97 29.44 56.02 29.05 56.17 29.52 56.04 29.61 56.04 29.61"/><polygon class="cls-13" points="55.86 29.57 55.35 29.3 55.78 29.44 56.06 29.59 55.86 29.57"/><path d="M56.06,29.6l-.19-.02-.52-.27,.43,.12,.28,.16h0Zm-.71-.28l.52,.26,.16,.02-.26-.14-.43-.13h0Z"/><polygon class="cls-13" points="56.02 29.74 55.23 29.51 55.85 29.54 56.06 29.57 56.02 29.74"/><path d="M56.02,29.75h0s-.79-.23-.79-.23l.83,.05-.04,.18h0Zm-.79-.23l.78,.21,.04-.16-.2-.03-.62-.02h0Z"/><polygon class="cls-13" points="56.06 29.48 56.54 29.41 56.37 29.71 56.01 29.58 56.06 29.48"/><polygon points="56.38 29.72 56.01 29.58 56.06 29.48 56.54 29.4 56.38 29.72 56.38 29.72"/><polygon class="cls-13" points="56.33 29.64 56.95 29.89 56.43 29.82 56 29.56 56.33 29.64"/><path d="M56.95,29.9l-.51-.08-.44-.25,.34,.07,.61,.25h0Zm-.95-.32l.44,.24,.47,.07-.57-.24-.33-.08h0Z"/><polygon class="cls-13" points="56.42 29.78 57.07 30.15 56.49 29.93 56.01 29.56 56.42 29.78"/><path d="M57.07,30.15l-.58-.21-.48-.37,1.07,.58h0Zm-1.06-.58l.49,.36,.52,.19-1.01-.55h0Z"/><polygon class="cls-13" points="56.42 29.9 56.8 30.46 56.21 29.83 56.03 29.57 56.42 29.9"/><path d="M56.8,30.47l-.77-.9,.4,.33,.38,.56h0Zm-.77-.89l.19,.26,.54,.58-.34-.5-.39-.33h0Z"/><polygon class="cls-13" points="56.33 29.92 56.34 30.28 56.05 29.75 56.03 29.56 56.33 29.92"/><path d="M56.33,30.28l-.29-.53-.02-.19,.31,.35v.36s0,0,0,0h0Zm-.31-.71l.03,.18,.27,.51v-.34s-.31-.35-.31-.35h0Z"/><polygon class="cls-13" points="56.18 29.8 55.9 30.02 55.91 29.63 56.04 29.59 56.18 29.8"/><polygon points="55.89 30.03 55.91 29.63 56.04 29.59 56.18 29.8 55.89 30.03 55.89 30.03"/><polygon class="cls-13" points="55.82 29.37 55.61 29.07 55.9 29.37 56.03 29.58 55.82 29.37"/><polygon points="56.03 29.58 55.82 29.38 55.61 29.07 55.9 29.37 56.04 29.58 56.03 29.58 56.03 29.58"/><polygon class="cls-13" points="55.97 29.5 55.76 29.12 56.06 29.54 56.11 29.65 55.97 29.5"/><polygon points="56.1 29.66 55.97 29.51 55.76 29.12 56.11 29.65 56.1 29.66 56.1 29.66"/><polygon class="cls-13" points="55.99 29.62 55.44 29.38 55.9 29.52 56.1 29.63 55.99 29.62"/><polygon points="56.1 29.63 55.99 29.63 55.44 29.39 56.1 29.62 56.1 29.63 56.1 29.63"/><polygon class="cls-13" points="56.13 29.59 56.63 29.74 56.25 29.68 56.06 29.61 56.13 29.59"/><polygon points="56.63 29.74 56.05 29.61 56.58 29.73 56.54 29.72 56.63 29.74 56.63 29.74 56.63 29.74"/><polygon class="cls-13" points="56.15 29.72 56 29.82 56.08 29.67 56.07 29.6 56.15 29.72"/><polygon class="cls-1" points="56.15 29.72 56 29.82 56.08 29.67 56.07 29.6 56.15 29.72"/><polygon class="cls-13" points="56.36 29.81 56.68 30.21 56.41 29.93 56.08 29.61 56.36 29.81"/><path d="M56.68,30.22l-.6-.6,.29,.19,.32,.4h0Zm-.6-.59l.51,.5-.24-.29-.28-.2h0Z"/><polygon class="cls-13" points="56.28 29.67 56.37 29.57 56.4 29.77 56.1 29.63 56.28 29.67"/><polygon class="cls-1" points="56.28 29.67 56.37 29.57 56.4 29.77 56.1 29.63 56.28 29.67"/><polygon class="cls-13" points="55.94 29.44 55.8 29.04 56.02 29.46 56.04 29.58 55.94 29.44"/><polygon points="56.04 29.59 55.93 29.44 55.8 29.04 56.05 29.58 56.04 29.59 56.04 29.59"/><path class="cls-4" d="M57.46,30.35c.07-.05,.62-1.29,3.23-1.11-1.48,.62-2.4,1.93-2.62,1.99-.16,.05-.52-.67-.61-.88h0Z"/><path d="M58.05,31.24c-.21,0-.6-.88-.6-.89,.61-.88,1.62-1.25,3.25-1.13-1.02,.46-1.77,1.21-2.22,1.67-.2,.2-.33,.33-.4,.35h-.02Zm2.14-2.01c-1.28,0-2.18,.36-2.68,1.07,.09,.32,.39,.91,.54,.91h0s.01,0,.01,0c.07-.02,.2-.15,.39-.34,.45-.45,1.2-1.21,2.23-1.64-.17,.01-.34,0-.5,0h0Z"/><path class="cls-4" d="M60.95,29.74c-.4,.18-.6,.26-.81,.3,.1,.06,.34,.02,.6,.12-.24,0-.67,.25-.85,.25,.12,.1,.57,0,.65,.03-.24,.02-.62,.27-.86,.27-.11,.11,.56-.08,.83,.13-.28-.02-.81,.19-1.11,.14,.22,.17,.62-.02,.95,.17-.1,.01-.86,.13-1.13,.07,.16,.11,.65,.09,.77,.19-.2-.04-.74,.12-.93,.06,.17,.16,.68,.07,.77,.17-.33,.15-.83,.03-1.07,.07,.16,.1,.28,.19,.42,.28,.2,.19,.83,.71,1.2,.87-.41-.07-.56-.08-.83-.11l.61,.86c-.25-.18-.7-.52-1-.7-.66-.43-1.13-.35-1.59-.72-.64-.82-1-1.8-1.03-2.07-.03-.26-.06-.73-.64-.49,.56-.1,.16-.71,.75-.71,.35,0,.31,.34,.44,.57,.09,.16,.7,.74,.82,.77,1.12-.88,2.02-.99,3.03-.52h0Z"/><path d="M60.16,33.61l-.23-.17c-.25-.18-.55-.4-.77-.53-.33-.21-.61-.3-.87-.38s-.49-.15-.72-.34c-.65-.84-1-1.83-1.03-2.08-.03-.28-.1-.61-.46-.52,0,0,0,0,.01-.01,0,0,0,0,0,0,.1-.1,.13-.21,.16-.33,.04-.17,.09-.34,.41-.34,.26,0,.32,.18,.37,.36,.02,.07,.05,.15,.08,.22,.09,.16,.69,.73,.81,.76,1.07-.86,1.96-1.02,3.03-.51-.4,.21-.6,.29-.81,.33,.05,0,.12,0,.21,0,.11,.01,.25,.02,.39,.08-.13,.04-.31,.11-.48,.17-.14,.05-.27,.1-.36,.11,.05,0,.11,0,.21,0,.08,0,.16,0,.23-.01,.06,0,.11,0,.15,0,0,0-.01,0-.02,.01,.02,0,.04,0,.06,0-.04,.02-.07,.02-.1,.03-.07,.04-.19,.09-.3,.13-.15,.06-.31,.13-.44,.14l-.04-.03c.14,0,.3-.07,.46-.14,.08-.03,.16-.07,.23-.09,0,0,0,0,0,0-.19,.02-.4,.02-.48-.04,.09-.04,.23-.09,.38-.15,.18-.07,.36-.13,.48-.14-.15-.01-.28-.03-.39-.04-.1,0-.17-.02-.22-.05,.21-.07,.41-.16,.81-.33-1.06-.4-1.92-.31-3.01,.55-.15-.03-.76-.61-.85-.77-.04-.07-.06-.15-.09-.22-.05-.18-.1-.33-.34-.33-.29,0-.32,.15-.37,.31-.03,.1-.06,.21-.15,.29,.33-.08,.4,.31,.42,.53,.03,.29,.38,1.26,1.03,2.09,.22,.18,.45,.25,.71,.33,.26,.08,.54,.17,.88,.39,.22,.13,.53,.36,.77,.54l.13,.1-.54-.76,.13-.02c.2,.02,.36,.04,.71,.1-.38-.12-.99-.63-1.22-.84l-.16-.11c-.08-.06-.16-.11-.25-.17,.1-.09,.21-.04,.34-.04,.27,.01,.56,0,.72-.07-.04,0-.16-.01-.29-.02-.18,0-.39-.02-.49-.12,.05-.02,.09-.02,.13-.02,.1,0,.24-.02,.38-.04,.13-.02,.26-.04,.35-.04,0,0-.14-.02-.29-.04-.16-.02-.33-.04-.42-.1,.06-.02,.13-.02,.21-.02h0c.32,0,.81-.07,.92-.09-.13-.04-.28-.06-.42-.06h-.18c-.14,0-.26-.01-.35-.08l.11-.03c.15,0,.33-.04,.51-.08,.17-.04,.33-.07,.46-.07-.06-.03-.21-.07-.42-.07h-.31s-.04-.03-.04-.03h.35c.22,0,.37,.03,.47,.1-.17,.03-.33,.07-.5,.1-.23,.05-.46,.1-.62,.07,.1,.03,.2,.04,.34,.04h.18c.15,0,.3,0,.45,.09-.16,.07-.88,.16-1.15,.11,.09,.02,.26,.04,.42,.06,.16,.02,.31,.04,.37,.09-.18,.03-.31,.05-.44,.06-.21,.03-.41,.05-.51,.02,.11,.05,.31,.07,.48,.07,.15,0,.26,.01,.31,.06-.18,.12-.47,.11-.75,.1-.13,0-.25-.02-.33,0,.1,.02,.18,.08,.26,.14l.16,.11c.23,.21,.83,.71,1.2,.87-.36-.02-.52-.04-.72-.06h-.11s.62,.81,.62,.81l-.03,.03h0Z"/><path class="cls-12" d="M64.42,34.32c-.02-.13-.04-.2,.02-.38,.09-.12,.13-.24,.3-.36,.17-.06,.23,0,.46-.25,.07-.16,.19-.28,.25-.45,.15-.25,.2-.37,.32-.57,.16-.2,.29-.38,.38-.53,.1-.2,.19-.32,.33-.48,.06-.18,.18-.32,.33-.48,.11-.23,.33-.5,.43-.69,.17-.22,.23-.31,.38-.53,.13-.09,.34-.3,.52-.37,.24-.11,.37-.23,.53-.05,.1,.12,.29,.31,.16,.45-.07,.09-.18,.1-.31,.03-.13-.1-.2-.38-.38-.16-.13,.17-.2,.3-.38,.48-.09,.15-.16,.26-.24,.48-.11,.14-.2,.3-.29,.53-.11,.11-.21,.32-.28,.48-.11,.13-.2,.27-.28,.48-.18,.19-.25,.36-.38,.48-.09,.21-.23,.41-.33,.53-.08,.15-.17,.31-.24,.48-.15,.17-.16,.21-.38,.48-.18,.27-.12,.24-.41,.55-.16,.06-.32,.08-.51-.15h0Z"/><path d="M64.75,34.52c-.12,0-.23-.06-.34-.19-.03-.15-.04-.22,.02-.39l.06-.09c.06-.09,.12-.18,.24-.28,.05-.02,.09-.03,.13-.04,.1-.02,.17-.04,.33-.21,.03-.07,.07-.13,.11-.19,.05-.08,.1-.16,.14-.25,.07-.12,.12-.22,.17-.3,.05-.09,.09-.17,.15-.26,.16-.2,.29-.38,.38-.53,.09-.19,.18-.31,.33-.48,.06-.19,.2-.34,.33-.48,.06-.12,.15-.25,.23-.38,.08-.11,.15-.22,.19-.31,.17-.22,.23-.31,.38-.53l.13-.1c.12-.1,.27-.22,.4-.27l.1-.05c.19-.09,.31-.14,.44,0,.13,.14,.29,.33,.16,.46-.07,.09-.19,.1-.33,.03-.04-.03-.08-.08-.11-.12-.08-.1-.15-.17-.26-.04l-.11,.15c-.07,.1-.14,.21-.27,.33-.09,.15-.15,.26-.23,.48-.12,.15-.2,.31-.29,.53-.11,.11-.21,.31-.28,.48-.11,.14-.2,.27-.28,.48-.09,.1-.15,.19-.21,.27-.06,.08-.11,.16-.18,.22-.11,.26-.28,.47-.33,.53-.08,.15-.16,.31-.23,.48-.08,.09-.12,.14-.17,.21-.05,.06-.1,.14-.21,.27l-.11,.18c-.06,.1-.09,.15-.3,.37-.05,.02-.12,.04-.19,.04h0Zm3.74-5.43c-.07,0-.15,.04-.25,.09l-.1,.05c-.13,.05-.27,.17-.39,.27l-.13,.1c-.14,.22-.21,.31-.38,.53-.04,.09-.12,.2-.19,.31-.08,.13-.17,.26-.23,.38-.16,.18-.28,.3-.33,.48-.16,.18-.24,.3-.33,.48-.09,.15-.22,.33-.38,.54-.06,.1-.1,.17-.15,.26-.05,.09-.1,.18-.17,.3-.04,.09-.09,.18-.14,.25-.04,.06-.08,.12-.11,.19-.17,.18-.25,.2-.35,.22-.04,0-.07,.02-.12,.03-.12,.09-.17,.18-.23,.27l-.06,.09c-.06,.16-.04,.23-.02,.36,.17,.22,.37,.21,.5,.16,.2-.22,.23-.27,.29-.37l.12-.18c.11-.13,.17-.21,.21-.27,.05-.07,.09-.12,.16-.21,.07-.17,.15-.33,.23-.48,.05-.06,.22-.27,.33-.53,.07-.07,.12-.14,.18-.22,.06-.08,.12-.17,.21-.26,.09-.2,.17-.34,.28-.48,.07-.17,.17-.38,.28-.48,.08-.22,.17-.38,.28-.53,.08-.22,.14-.33,.24-.48,.12-.12,.19-.22,.27-.33l.11-.15c.12-.14,.21-.07,.29,.04,.03,.04,.06,.09,.1,.12,.12,.06,.23,.05,.3-.03,.12-.12-.04-.3-.14-.41-.08-.08-.13-.11-.19-.11h0Z"/><path class="cls-5" d="M66.71,32.26h0c.07,.07-.1,.36-.38,.65h0c-.28,.3-.57,.47-.64,.4h0c-.07-.07,.1-.36,.38-.65h0c.28-.29,.57-.47,.64-.4h0Z"/><path d="M65.72,33.33l-.05-.02s0-.04,0-.06h0s.05,.06,.05,.06c.11,0,.35-.17,.59-.4,.22-.22,.35-.42,.39-.54-.03,.15-.19,.36-.37,.54-.25,.25-.5,.42-.61,.42h0Zm-.05-.11c.03-.17,.18-.37,.38-.57,.25-.25,.5-.42,.61-.42,.01,0,.02,.02,.03,.04-.16,0-.39,.16-.62,.39-.22,.22-.37,.44-.4,.57h0Z"/><path class="cls-5" d="M65.16,31.21h0c.09,.04,.05,.37-.11,.75h0c-.15,.38-.35,.66-.45,.62h0c-.09-.04-.05-.37,.11-.75h0c.15-.38,.35-.66,.45-.62h0Z"/><path d="M64.62,32.59h-.02c-.11-.05-.04-.43,.1-.77,.15-.37,.33-.63,.44-.63,.14,.05,.06,.43-.08,.77-.15,.37-.33,.63-.44,.63h0Zm.53-1.37c-.1,0-.28,.23-.43,.6-.17,.41-.19,.71-.12,.74h.02c.08,0,.26-.22,.42-.6,.17-.41,.19-.71,.12-.74h0Z"/><path class="cls-5" d="M65.41,31.38h0c.09,.04,.03,.38-.13,.74h0c-.16,.38-.37,.64-.46,.6h0c-.09-.04-.03-.37,.13-.74h0c.16-.38,.37-.65,.46-.6h0Z"/><path d="M64.83,32.75h-.02c-.11-.06-.03-.43,.12-.76,.16-.36,.35-.62,.46-.62,.09,.03,.08,.16,.06,.27-.02,.14-.08,.32-.16,.5-.16,.36-.35,.61-.46,.61h0Zm.57-1.35c-.1,0-.29,.22-.45,.59-.18,.41-.22,.71-.14,.74h.02c.08,0,.27-.22,.43-.59,.08-.19,.14-.36,.17-.5,.02-.13,.01-.22-.02-.24h0Z"/><path class="cls-5" d="M65.98,31.8h0c.08,.06-.04,.37-.28,.7h0c-.24,.34-.5,.55-.58,.5h0c-.08-.06,.04-.37,.28-.7h0c.24-.34,.49-.55,.58-.5h0Z"/><path d="M65.15,33.01h-.04s0-.06,0-.08c0,0,0,0,0,.01l.05,.05c.1,0,.33-.21,.54-.49,.21-.29,.31-.53,.31-.64,.02,.14-.12,.41-.29,.64-.22,.3-.45,.51-.56,.51h0Zm-.05-.1c0-.17,.12-.4,.29-.63,.22-.3,.45-.51,.56-.51,.01,0,.02,.02,.03,.03,0,0,0,0,0,0-.13,0-.36,.21-.56,.48-.18,.25-.3,.5-.31,.63h0Z"/><path class="cls-5" d="M67.16,32.55h0c.07,.08-.13,.35-.44,.62h0c-.31,.27-.61,.42-.68,.34h0c-.07-.08,.13-.35,.44-.62h0c.31-.27,.61-.42,.67-.34h0Z"/><path d="M66.09,33.54l-.06-.02c-.08-.09,.16-.39,.44-.63,.26-.22,.51-.37,.64-.37,.01,.01,.02,.02,.03,.04-.17,0-.41,.14-.64,.34-.34,.29-.5,.54-.45,.61l.05,.02c.12,0,.37-.15,.61-.35,.22-.19,.36-.36,.42-.48-.05,.14-.22,.33-.4,.49-.26,.22-.51,.37-.64,.37h0Z"/><path class="cls-5" d="M66.95,32.42h0c.07,.07-.1,.36-.39,.65h0c-.29,.29-.58,.46-.65,.39h0c-.07-.07,.11-.36,.39-.64h0c.29-.29,.58-.46,.65-.39h0Z"/><path d="M65.95,33.48l-.06-.02s0-.04,0-.07c0,0,0,0,0,0l.06,.05c.11,0,.36-.17,.59-.4,.24-.24,.41-.49,.41-.6-.17-.05-.42,.11-.65,.34-.22,.22-.38,.44-.41,.57,.03-.16,.18-.37,.39-.57,.25-.25,.5-.41,.62-.41l.08,.08c0,.12-.17,.37-.41,.6-.25,.25-.5,.41-.62,.41h0Z"/><path class="cls-5" d="M66.35,32.11h0c.08,.06-.04,.37-.28,.7h0c-.24,.34-.49,.55-.58,.5h0c-.08-.06,.04-.37,.28-.7h0c.24-.34,.5-.55,.58-.5h0Z"/><path d="M65.52,33.33h-.04c-.1-.08,.06-.43,.27-.73,.22-.3,.45-.51,.56-.51,0,.02,.02,.04,.02,.06-.15-.02-.37,.19-.56,.45-.26,.36-.36,.65-.29,.69h.03c.1,0,.33-.2,.53-.48,.13-.18,.23-.36,.28-.49-.03,.15-.13,.32-.25,.49-.22,.3-.45,.51-.56,.51h0Z"/><path class="cls-5" d="M66.18,31.92h0c.08,.06-.04,.37-.28,.7h0c-.24,.34-.5,.55-.58,.5h0c-.08-.06,.04-.37,.28-.7h0c.24-.34,.49-.55,.58-.5h0Z"/><path d="M65.35,33.14h-.04s0-.05-.01-.08c0,0,0,0,0,0l.05,.05c.1,0,.33-.21,.54-.49,.13-.18,.23-.36,.28-.49-.03,.15-.13,.32-.25,.49-.22,.3-.45,.51-.56,.51h0Zm-.05-.1c0-.17,.12-.4,.29-.63,.22-.3,.45-.51,.56-.51,0,.02,.02,.04,.02,.06-.17-.03-.37,.19-.56,.45-.18,.25-.3,.5-.31,.62h0Z"/><path class="cls-5" d="M66.52,29.36h0c.08,.06-.04,.37-.28,.7h0c-.24,.34-.5,.55-.58,.5h0c-.08-.06,.04-.37,.28-.7h0c.24-.34,.5-.55,.58-.5h0Z"/><path d="M65.69,30.58h-.04s0-.05,0-.07h0l.05,.05c.1,0,.33-.21,.54-.49,.22-.3,.32-.55,.31-.65,.03,.14-.11,.42-.29,.65-.22,.3-.45,.51-.56,.51h0Zm-.05-.11c0-.17,.12-.39,.29-.62,.22-.3,.45-.51,.56-.51,.01,0,.03,.02,.03,.04,0,0,0,0-.01,0-.13,0-.36,.21-.56,.48-.18,.24-.3,.49-.31,.61h0Z"/><path class="cls-5" d="M66.75,29.51h0c.08,.06-.04,.37-.28,.7h0c-.24,.34-.49,.55-.58,.5h0c-.08-.06,.04-.38,.28-.7h0c.24-.34,.5-.55,.58-.5h0Z"/><path d="M65.92,30.73h-.04c-.1-.08,.06-.43,.27-.73,.22-.3,.45-.51,.56-.51,0,.02,.02,.04,.02,.06-.16,0-.37,.19-.56,.45-.26,.36-.36,.65-.29,.7h.03c.1,0,.33-.2,.53-.48,.13-.18,.23-.35,.28-.49-.03,.15-.13,.32-.25,.49-.22,.3-.45,.51-.56,.51h0Z"/><path class="cls-5" d="M66.98,29.68h0c.08,.06-.04,.37-.28,.7h0c-.24,.34-.49,.55-.58,.5h0c-.08-.06,.04-.37,.28-.7h0c.24-.34,.5-.55,.58-.5h0Z"/><path d="M66.15,30.9h-.04c-.1-.08,.06-.43,.27-.73,.22-.3,.45-.51,.56-.51,0,.02,.02,.04,.02,.06-.14,0-.37,.19-.56,.45-.26,.36-.36,.65-.29,.7h.03c.1,0,.33-.2,.53-.48,.13-.18,.23-.36,.28-.49-.03,.15-.13,.32-.25,.49-.22,.3-.45,.51-.56,.51h0Z"/><path class="cls-5" d="M67.23,29.85h0c.08,.06-.04,.37-.28,.7h0c-.24,.34-.49,.55-.58,.5h0c-.08-.06,.04-.37,.28-.7h0c.24-.34,.5-.55,.58-.5h0Z"/><path d="M66.4,31.07h-.04c-.1-.08,.06-.43,.28-.73,.22-.3,.45-.51,.56-.51,0,.02,.02,.04,.02,.06-.16-.03-.37,.19-.56,.45-.26,.36-.36,.65-.29,.7h.03c.1,0,.33-.2,.53-.48,.13-.18,.23-.35,.28-.49-.03,.15-.13,.32-.25,.49-.22,.3-.45,.51-.56,.51h0Z"/><path class="cls-5" d="M67.41,30.01h0c.08,.06-.04,.37-.28,.7h0c-.24,.34-.49,.55-.58,.5h0c-.08-.06,.04-.37,.28-.7h0c.24-.34,.5-.55,.58-.5h0Z"/><path d="M66.58,31.23h-.04c-.1-.08,.06-.43,.27-.73,.22-.3,.45-.51,.56-.51,.02,0,.03,.02,.04,.04,0,0,0,0-.01,0-.13,0-.36,.21-.56,.48-.26,.36-.36,.65-.29,.69h.03c.1,0,.33-.2,.53-.48,.22-.3,.32-.55,.31-.65,.03,.14-.11,.42-.29,.66-.22,.3-.45,.51-.56,.51h0Z"/><path class="cls-5" d="M68.66,30.71h0c.08,.06-.04,.37-.28,.7h0c-.24,.34-.49,.55-.58,.5h0c-.08-.06,.04-.37,.28-.7h0c.24-.34,.5-.55,.58-.5h0Z"/><path d="M67.83,31.93h-.04c-.1-.08,.06-.43,.28-.73,.22-.3,.45-.51,.56-.51,.01,0,.02,.02,.03,.03,0,0,0,0-.01,0-.13,0-.36,.21-.56,.48-.26,.36-.36,.65-.29,.7h.03c.1,0,.33-.2,.53-.48,.21-.29,.31-.53,.31-.64,.02,.14-.12,.41-.29,.64-.22,.3-.45,.51-.56,.51h0Z"/><path class="cls-5" d="M68.46,30.65h0c.08,.06-.04,.37-.28,.7h0c-.24,.34-.49,.55-.58,.5h0c-.08-.06,.04-.38,.28-.7h0c.24-.34,.5-.55,.58-.5h0Z"/><path d="M67.64,31.86h-.04c-.1-.09,.06-.43,.27-.73,.22-.3,.45-.51,.56-.51,0,.02,.02,.04,.02,.06-.15,0-.37,.19-.56,.45-.26,.36-.36,.65-.29,.7h.03c.1,0,.33-.2,.53-.48,.13-.18,.23-.36,.28-.49-.03,.15-.13,.32-.25,.49-.22,.3-.45,.51-.56,.51h0Z"/><path class="cls-5" d="M68.29,30.56h0c.08,.06-.04,.37-.28,.7h0c-.24,.34-.49,.55-.58,.5h0c-.08-.06,.04-.37,.28-.7h0c.24-.34,.5-.55,.58-.5h0Z"/><path d="M67.47,31.78h-.04c-.1-.08,.06-.43,.28-.73,.22-.3,.45-.51,.56-.51,0,.02,.02,.04,.02,.06-.17-.03-.37,.19-.56,.45-.26,.36-.36,.65-.29,.7h.03c.1,0,.33-.2,.53-.48,.13-.18,.23-.35,.28-.49-.03,.15-.13,.32-.25,.49-.22,.3-.45,.51-.56,.51h0Z"/><path class="cls-5" d="M68.06,30.4h0c.08,.06-.04,.37-.28,.7h0c-.24,.34-.5,.55-.58,.5h0c-.08-.06,.04-.37,.28-.7h0c.24-.34,.49-.55,.58-.5h0Z"/><path d="M67.23,31.62h-.04c-.1-.08,.06-.43,.28-.73,.22-.3,.45-.51,.56-.51,.01,0,.02,.02,.03,.03,0,0,0,0,0,0-.13,0-.36,.21-.56,.48-.26,.36-.36,.65-.29,.7h.03c.1,0,.33-.2,.54-.48,.21-.29,.31-.53,.31-.64,.02,.14-.12,.41-.29,.64-.22,.3-.45,.51-.56,.51h0Z"/><path class="cls-5" d="M67.81,30.28h0c.08,.06-.04,.37-.28,.7h0c-.24,.34-.49,.55-.58,.5h0c-.08-.06,.04-.37,.28-.7h0c.24-.34,.5-.55,.58-.5h0Z"/><path d="M66.98,31.5h-.04c-.1-.08,.06-.43,.28-.73,.22-.3,.45-.51,.56-.51,.01,0,.02,.02,.03,.03,0,0,0,0-.01,0-.13,0-.36,.21-.56,.48-.26,.36-.36,.65-.29,.69h.03c.1,0,.33-.2,.53-.48,.21-.29,.31-.53,.31-.64,.02,.14-.12,.41-.29,.64-.22,.3-.45,.51-.56,.51h0Z"/><path class="cls-5" d="M67.61,30.14h0c.08,.06-.04,.37-.28,.7h0c-.24,.34-.5,.55-.58,.5h0c-.08-.06,.04-.37,.28-.7h0c.24-.34,.49-.55,.58-.5h0Z"/><path d="M66.79,31.36h-.04c-.1-.08,.06-.43,.28-.73,.22-.3,.45-.51,.56-.51,0,.02,.02,.04,.02,.06-.15,0-.37,.19-.56,.45-.26,.36-.36,.65-.29,.7h.03c.1,0,.33-.2,.53-.48,.13-.18,.23-.35,.28-.49-.03,.15-.13,.32-.25,.49-.22,.3-.45,.51-.56,.51h0Z"/><path class="cls-5" d="M65.66,31.58h0c.09,.05,0,.38-.19,.73h0c-.19,.37-.42,.61-.51,.57h0c-.09-.05,0-.38,.19-.73h0c.19-.37,.42-.61,.51-.57h0Z"/><path d="M64.99,32.9h-.03s-.02-.05-.02-.08c0,0,0,.01,0,.02l.05,.04c.1,0,.3-.24,.48-.56,.11-.2,.19-.4,.22-.54-.01,.16-.09,.34-.19,.54-.18,.34-.39,.58-.5,.58h0Zm-.05-.09c-.02-.17,.06-.41,.2-.67,.18-.34,.39-.58,.5-.58,.01,.02,.02,.04,.03,.06-.14,0-.34,.22-.5,.52-.15,.28-.24,.54-.23,.67h0Z"/><path class="cls-5" d="M65.77,30.27h0c.08,.06-.04,.37-.28,.7h0c-.24,.34-.5,.55-.58,.5h0c-.08-.06,.04-.38,.28-.7h0c.24-.34,.49-.55,.58-.5h0Z"/><path d="M64.94,31.49h-.04c-.1-.08,.06-.43,.28-.73,.22-.3,.45-.51,.56-.51,.01,0,.03,.02,.03,.03,0,0,0,0-.01,0-.13,0-.36,.21-.56,.48-.26,.36-.36,.65-.29,.7h.03c.1,0,.33-.2,.54-.48,.21-.29,.31-.53,.31-.64,.02,.14-.12,.41-.29,.64-.22,.3-.45,.51-.56,.51h0Z"/><path class="cls-5" d="M66,30.42h0c.08,.06-.04,.37-.28,.7h0c-.24,.34-.5,.55-.58,.5h0c-.08-.06,.04-.37,.28-.7h0c.24-.34,.5-.55,.58-.5h0Z"/><path d="M65.17,31.64h-.04s0-.05,0-.07h0s.05,.05,.05,.05c.1,0,.33-.21,.53-.49,.21-.29,.31-.53,.31-.64,.02,.14-.12,.41-.29,.64-.22,.3-.45,.51-.56,.51h0Zm-.05-.11c0-.17,.12-.39,.29-.62,.22-.3,.45-.51,.56-.51,.01,0,.02,.02,.03,.03,0,0,0,0-.01,0-.13,0-.36,.21-.56,.48-.18,.25-.3,.49-.31,.61h0Z"/><path class="cls-5" d="M66.23,30.59h0c.08,.06-.04,.37-.28,.7h0c-.24,.34-.5,.55-.58,.5h0c-.08-.06,.04-.37,.28-.7h0c.24-.34,.5-.55,.58-.5h0Z"/><path d="M65.4,31.81h-.04c-.1-.08,.06-.43,.28-.73,.22-.3,.45-.51,.56-.51,.01,0,.02,.02,.03,.03,0,0,0,0-.01,0-.13,0-.36,.21-.56,.48-.26,.36-.36,.65-.29,.7h.03c.1,0,.33-.2,.53-.48,.21-.29,.31-.53,.31-.64,.02,.14-.12,.41-.29,.64-.22,.3-.45,.51-.56,.51h0Z"/><path class="cls-5" d="M66.48,30.77h0c.08,.06-.04,.37-.28,.7h0c-.24,.34-.5,.55-.58,.5h0c-.08-.06,.04-.37,.28-.7h0c.24-.34,.5-.55,.58-.5h0Z"/><path d="M65.65,31.98h-.04s0-.05,0-.07h0s.05,.05,.05,.05c.1,0,.33-.21,.53-.49,.21-.29,.31-.53,.31-.64,.02,.14-.12,.41-.29,.64-.22,.3-.45,.51-.56,.51h0Zm-.05-.11c0-.17,.12-.39,.29-.62,.22-.3,.45-.51,.56-.51,.01,0,.02,.02,.03,.03,0,0,0,0-.01,0-.13,0-.36,.21-.56,.48-.18,.25-.3,.49-.31,.61h0Z"/><path class="cls-5" d="M66.66,30.93h0c.08,.06-.04,.37-.28,.7h0c-.24,.34-.5,.55-.58,.5h0c-.08-.06,.04-.38,.28-.7h0c.24-.34,.5-.55,.58-.5h0Z"/><path d="M65.84,32.14h-.04c-.1-.08,.06-.43,.28-.73,.22-.3,.45-.51,.56-.51,0,.02,.02,.04,.02,.06-.15,0-.37,.19-.56,.45-.26,.36-.36,.65-.29,.7h.03c.1,0,.33-.2,.54-.48,.13-.18,.23-.35,.28-.49-.03,.15-.13,.32-.25,.49-.22,.3-.45,.51-.56,.51h0Z"/><path class="cls-5" d="M67.91,31.62h0c.08,.06-.04,.38-.28,.7h0c-.24,.34-.5,.55-.58,.5h0c-.08-.06,.04-.37,.28-.7h0c.24-.34,.5-.55,.58-.5h0Z"/><path d="M67.08,32.84h-.04s0-.05,0-.07h0s.05,.05,.05,.05c.1,0,.33-.21,.53-.49,.21-.29,.32-.54,.31-.65,.02,.14-.12,.41-.29,.65-.22,.3-.45,.51-.56,.51h0Zm-.05-.11c0-.17,.12-.39,.29-.62,.22-.3,.45-.51,.56-.51,.01,0,.03,.02,.03,.03,0,0,0,0-.01,0-.13,0-.36,.21-.56,.48-.18,.25-.3,.49-.31,.61h0Z"/><path class="cls-5" d="M67.72,31.56h0c.08,.06-.04,.37-.28,.7h0c-.24,.34-.5,.55-.58,.5h0c-.08-.06,.04-.37,.28-.7h0c.24-.34,.5-.55,.58-.5h0Z"/><path d="M66.89,32.78h-.04c-.1-.08,.06-.43,.28-.73,.22-.3,.45-.51,.56-.51,.01,0,.02,.02,.03,.03,0,0,0,0-.01,0-.13,0-.36,.21-.56,.48-.26,.36-.36,.65-.29,.7h.03c.1,0,.33-.2,.53-.48,.21-.29,.31-.53,.31-.64,.02,.14-.12,.41-.29,.64-.22,.3-.45,.51-.56,.51h0Z"/><path class="cls-5" d="M67.54,31.47h0c.08,.06-.04,.37-.28,.7h0c-.24,.34-.5,.55-.58,.5h0c-.08-.06,.04-.37,.28-.7h0c.24-.34,.5-.55,.58-.49h0Z"/><path d="M66.72,32.69h-.04s0-.05,0-.07h0s.05,.05,.05,.05c.1,0,.33-.21,.53-.49,.21-.29,.31-.53,.31-.64,.02,.14-.12,.41-.29,.64-.22,.3-.45,.51-.56,.51h0Zm-.05-.11c0-.17,.12-.39,.29-.62,.22-.3,.45-.51,.56-.51,.01,0,.02,.02,.03,.03,0,0,0,0-.01,0-.13,0-.36,.21-.56,.48-.18,.25-.3,.49-.31,.62h0Z"/><path class="cls-5" d="M67.31,31.32h0c.08,.06-.04,.37-.28,.7h0c-.24,.34-.5,.55-.58,.5h0c-.08-.06,.04-.37,.28-.7h0c.24-.34,.49-.55,.58-.5h0Z"/><path d="M66.48,32.53h-.04s0-.05-.01-.08c0,0,0,0,0,0l.05,.05c.1,0,.33-.21,.54-.49,.21-.29,.31-.54,.31-.64,.02,.14-.12,.41-.29,.64-.22,.3-.45,.51-.56,.51h0Zm-.05-.1c0-.17,.12-.4,.29-.63,.22-.3,.45-.51,.56-.51,.01,0,.02,.02,.03,.03,0,0,0,0-.01,0-.13,0-.36,.21-.56,.48-.18,.25-.3,.5-.31,.62h0Z"/><path class="cls-5" d="M67.06,31.19h0c.08,.06-.04,.37-.28,.7h0c-.24,.34-.5,.55-.58,.5h0c-.08-.06,.04-.37,.28-.7h0c.24-.34,.5-.55,.58-.5h0Z"/><path d="M66.24,32.41h-.04s0-.05,0-.07h0l.05,.05c.1,0,.33-.21,.54-.49,.21-.3,.32-.54,.31-.65,.03,.14-.12,.42-.29,.65-.22,.3-.45,.51-.56,.51h0Zm-.05-.11c0-.17,.12-.39,.29-.62,.22-.3,.45-.51,.56-.51,.01,0,.03,.02,.03,.03,0,0,0,0-.01,0-.13,0-.36,.21-.56,.48-.18,.24-.3,.49-.31,.61h0Z"/><path class="cls-5" d="M66.87,31.06h0c.08,.06-.04,.38-.28,.7h0c-.24,.34-.5,.55-.58,.5h0c-.08-.06,.04-.37,.28-.7h0c.24-.34,.49-.55,.58-.5h0Z"/><path d="M66.04,32.27h-.04s0-.05,0-.08c0,0,0,0,0,.01l.05,.05c.1,0,.33-.21,.54-.49,.21-.29,.31-.54,.31-.65,.02,.14-.11,.41-.29,.65-.22,.3-.45,.51-.56,.51h0Zm-.05-.1c0-.17,.12-.4,.29-.63,.22-.3,.45-.51,.56-.51,.01,0,.03,.02,.03,.04,0,0,0,0-.01,0-.13,0-.36,.21-.56,.48-.18,.25-.3,.5-.31,.63h0Z"/><path class="cls-7" d="M67.02,22.42h0c.14,0,.25,.04,.25,.09v2.95s-.11,.09-.25,.09h0c-.14,0-.25-.04-.25-.09v-2.95s.11-.09,.25-.09h0Z"/><path d="M67.03,25.55h0c-.15,0-.26-.04-.26-.09v-2.95c0-.11,.52-.1,.52,0v2.95c0,.05-.11,.09-.26,.09h0Zm0-3.12c-.15,0-.25,.04-.25,.08v2.95s.1,.08,.24,.08h0c.14,0,.24-.04,.24-.08v-2.95s-.1-.08-.24-.08h0Z"/><polygon class="cls-13" points="66.5 23.6 65.06 24.58 65.98 23.39 66.91 23.18 66.5 23.6"/><path d="M65.06,24.59l-.02-.02,.93-1.18,.94-.22-.4,.45-1.45,.98h0Zm1.84-1.42l-.91,.24-.86,1.1,1.37-.92,.41-.42h0Z"/><polygon class="cls-13" points="66.46 23.41 64.46 23.66 66.21 23.03 66.98 23.17 66.46 23.41"/><path d="M64.46,23.68v-.03s1.74-.63,1.74-.63l.78,.13-.51,.27-2.01,.26h0Zm1.74-.63l-1.62,.58,1.87-.24,.51-.24-.76-.11h0Z"/><polygon class="cls-13" points="67.48 23.48 68.03 24.57 67.15 23.74 66.91 23.15 67.48 23.48"/><path d="M68.02,24.58l-.88-.83-.25-.6,.59,.32,.56,1.09-.02,.02h0Zm-1.13-1.42l.27,.58,.82,.76-.52-1.01-.57-.33h0Z"/><polygon class="cls-13" points="67.72 23.08 69.43 24.58 67.37 23.54 66.8 23.16 67.72 23.08"/><path d="M69.42,24.59l-2.06-1.04-.57-.38,.92-.11,1.72,1.5-.02,.02h0Zm-1.71-1.5l-.91,.08,.58,.35,1.95,.99-1.62-1.42h0Z"/><polygon class="cls-13" points="66.35 23.23 64.31 22.5 66.32 22.52 67 23.23 66.35 23.23"/><path d="M67.03,23.25h-.68s-2.05-.74-2.05-.74h2.02s.71,.74,.71,.74h0Zm-2.72-.73l2.05,.7h.6s-.65-.69-.65-.69h-2Z"/><polygon class="cls-13" points="66.14 22.64 65.17 21.41 66.62 22.33 66.97 23.26 66.14 22.64"/><path d="M67,23.3l-.86-.65-.98-1.23,1.47,.89,.37,.99h0Zm-1.83-1.88l.99,1.21,.78,.59-.33-.89-1.44-.91h0Z"/><polygon class="cls-13" points="66.48 22.38 65.91 20.99 66.96 22.13 66.91 23.25 66.48 22.38"/><path d="M66.93,23.31l-.46-.91-.57-1.4,1.08,1.13-.04,1.18h0Zm-1.03-2.31l.59,1.38,.41,.81,.04-1.06-1.05-1.13h0Z"/><polygon class="cls-13" points="67.06 22.27 68.34 21.17 67.46 22.68 66.88 23.21 67.06 22.27"/><path d="M66.86,23.25l.19-.99,1.29-1.11-.85,1.53-.62,.56h0Zm1.47-2.09l-1.26,1.12-.17,.89,.55-.5,.87-1.51h0Z"/><polygon class="cls-13" points="67.45 22.42 69.1 22.09 67.64 23.02 66.87 23.22 67.45 22.42"/><path d="M66.83,23.24l.61-.83,1.66-.33-1.45,.95-.81,.21h0Zm2.26-1.16l-1.64,.35-.55,.76,.73-.19,1.46-.93h0Z"/><polygon class="cls-13" points="67.45 22.76 69.46 23.04 67.58 23.35 66.96 23.17 67.45 22.76"/><path d="M67.58,23.37l-.62-.18,.48-.44,2.03,.28-1.89,.34h0Zm-.13-.6l-.47,.41,.61,.16,1.88-.31-2.02-.25h0Z"/><polygon class="cls-13" points="66.71 23.72 66.01 24.33 66.42 23.6 66.92 23.19 66.71 23.72"/><path d="M66.02,24.34l-.02-.02,.41-.73,.5-.41-.19,.55-.7,.61h0Zm.89-1.15l-.48,.42-.37,.65,.63-.55,.21-.53h0Z"/><polygon class="cls-13" points="66.78 23.36 65.71 24.04 66.6 23.18 67 23.01 66.78 23.36"/><path d="M65.72,24.04h-.01s.89-.87,.89-.87l.4-.17-.21,.37-1.08,.68h0Zm1.28-1.04l-.39,.18-.82,.79,.99-.62,.22-.35h0Z"/><polygon class="cls-13" points="67.28 23.24 68.08 24.34 67.12 23.46 66.9 23.04 67.28 23.24"/><path d="M68.08,24.35l-.97-.88-.22-.43,.39,.18,.81,1.11h-.02Zm-1.18-1.29l.23,.41,.89,.81-.74-1.03-.38-.19h0Z"/><polygon class="cls-13" points="66.63 23.02 65.57 22.07 66.61 22.75 66.96 23.13 66.63 23.02"/><path d="M66.99,23.15l-.36-.12-1.06-.96,1.05,.66,.38,.41h0Zm-1.42-1.08l1.07,.94,.29,.1-.33-.36-1.03-.67h0Z"/><polygon class="cls-13" points="67.14 22.88 68.13 23.04 67.17 23.04 66.87 23.12 67.14 22.88"/><path d="M66.87,23.12v-.02s.27-.24,.27-.24l.99,.16h-.96s-.3,.09-.3,.09h0Zm.27-.24l-.24,.21,.27-.07h.96s-.99-.14-.99-.14h0Z"/><polygon class="cls-13" points="66.84 22.44 67.59 21.57 67.2 22.27 66.88 23.08 66.84 22.44"/><path d="M66.9,23.09h-.03s-.04-.64-.04-.64l.75-.88-.37,.71-.31,.81h0Zm.68-1.52l-.73,.89,.04,.56,.29-.75,.4-.7h0Z"/><polygon class="cls-13" points="66.48 22.7 65.67 22.65 66.51 22.42 66.95 23.04 66.48 22.7"/><path d="M66.94,23.06l-.47-.34-.81-.06,.84-.25,.45,.63-.02,.02h0Zm-.44-.62l-.83,.23,.81,.03,.41,.29-.39-.55h0Z"/><polygon class="cls-13" points="66.62 23.47 65.22 24.04 66.39 23.32 66.91 23.17 66.62 23.47"/><path d="M65.22,24.05v-.02s1.16-.73,1.16-.73l.52-.14-.28,.31-1.41,.57h0Zm1.68-.88l-.51,.16-1.06,.66,1.29-.53,.28-.3h0Z"/><path class="cls-7" d="M59.33,23.16h0c.07,.03,.11,.08,.1,.11l-.67,2.17s-.07,.04-.14,.02h0c-.07-.03-.11-.08-.1-.11l.67-2.17s.07-.04,.14-.02h0Z"/><path d="M58.7,25.48l-.08-.02c-.07-.03-.12-.08-.11-.12l.67-2.17,.15-.02c.07,.03,.12,.08,.11,.12l-.67,2.17-.07,.04h0Zm.63-2.32h-.14s-.67,2.19-.67,2.19c0,.03,.03,.08,.1,.1l.08,.02,.06-.03,.67-2.17s-.04-.08-.1-.1h0Z"/><path class="cls-7" d="M57.96,22.95h0c.07,0,.13,.03,.13,.07v2.3s-.06,.07-.13,.07h0c-.07,0-.13-.03-.13-.07v-2.3s.06-.07,.13-.07h0Z"/><path d="M57.96,25.39c-.08,0-.14-.03-.14-.07v-2.3c0-.08,.28-.08,.28,0v2.3s-.06,.07-.14,.07h0Zm0-2.43c-.07,0-.12,.03-.12,.06v2.3s.06,.06,.12,.06h0c.07,0,.12-.03,.12-.06v-2.3s-.06-.06-.12-.06h0Z"/><path class="cls-9" d="M57.16,21.71c.32-.1,.56,.1,.67,.53,0,.04,.08,.04,.07,.03-.05-.73,.67-1.32,1.12-.3,.04,.16-.22-.08-.39-.27-.21-.26-.5,.06-.51,.73-.02,.15-.04,.49-.04,.49,0,0-.24-.03-.24-.04,0,0-.2-.84-.54-.92-.26-.04-.19,.12-.5,.19-.29,.03-.28-.01-.06-.11,.19,0,.31-.29,.43-.33h0Z"/><path d="M58.08,22.93h0c-.24-.03-.25-.04-.25-.04-.08-.31-.18-.54-.28-.7,.14,.2,.23,.48,.29,.67,.02,.03,.15,.05,.24,.06,0-.05,.03-.34,.04-.48,.02-.72,.33-.98,.53-.73,.08,.09,.17,.18,.25,.24-.09-.05-.19-.16-.26-.24-.19-.23-.48,.02-.5,.72-.02,.15-.04,.49-.04,.49h0Zm-.18-.65s-.04-.08-.06-.12c.04-.21,.13-.43,.26-.57,.28-.3,.68-.15,.92,.39,0,0-.02,.01-.03,.01-.23-.57-.61-.68-.88-.4-.15,.16-.23,.42-.21,.68h0Zm-1.25-.1s-.03-.02-.04-.02c.09,0,.13,0,.18,0,.14-.03,.2-.08,.25-.12,.05-.04,.09-.07,.17-.07,.02,0,.04,.01,.07,.02-.15-.01-.19,.02-.23,.06-.05,.04-.11,.09-.26,.13-.06,0-.1,0-.14,0h0Zm-.06-.05s.04-.05,.13-.08c.11,0,.2-.11,.27-.19,.05-.06,.1-.12,.16-.14,.23-.07,.42,.01,.55,.22-.15-.2-.33-.27-.55-.21-.05,.02-.1,.07-.15,.13-.08,.09-.17,.19-.28,.2-.07,.03-.11,.06-.13,.07h0Z"/><path class="cls-9" d="M57.22,22.13c.33-.07,.56,.14,.64,.57,0,.04,.07,.05,.07,.04-.01-.73,1.01-.75,1.41,.31,.04,.16-.04,.15-.19-.05-.2-.27-.95-.75-1.01-.08-.03,.15-.07,.48-.07,.48,0,0-.23-.05-.24-.06,0,0-.15-.85-.49-.96-.26-.06-.33,.18-.65,.22-.29,0-.28-.03-.06-.11,.04,0,.46-.34,.58-.37h0Z"/><path d="M58.08,23.41h0c-.24-.05-.24-.06-.24-.06-.08-.36-.17-.62-.28-.78,.13,.16,.22,.42,.29,.75,.01,.03,.15,.06,.23,.08,0-.05,.05-.34,.07-.48,.02-.29,.18-.35,.3-.35,.25,0,.6,.25,.72,.42,.11,.14,.15,.16,.17,.16,.02-.01,.02-.04,0-.11-.34-.89-1-.95-1.26-.69-.09,.09-.14,.22-.13,.38-.01-.04-.03-.07-.04-.11,.04-.1,.09-.21,.17-.28,.27-.27,.94-.21,1.29,.69,.01,.06,.01,.1,0,.11-.06,0-.12-.05-.2-.15-.12-.17-.46-.42-.71-.42-.17,0-.27,.11-.28,.34-.03,.15-.07,.48-.07,.48h0Zm-1.4-.78c-.19,0-.21-.02-.21-.03,0-.02,.01-.04,.17-.1,.02,0,.1-.06,.18-.12,.14-.1,.33-.23,.4-.25,.23-.05,.42,.04,.53,.25-.14-.2-.31-.29-.53-.23-.07,.02-.26,.15-.4,.25-.11,.08-.17,.12-.19,.12-.15,.05-.16,.08-.16,.08,0,0,.01,.02,.15,.02,.2-.02,.29-.08,.38-.14,.08-.05,.15-.1,.25-.1,.02,0,.04,.01,.06,.02-.16,0-.23,.04-.31,.09-.08,.05-.18,.12-.32,.14h-.02Z"/><path class="cls-9" d="M57.31,22.63c.33-.04,.54,.19,.59,.63,0,.04,.07,.06,.07,.05,.04-.73,.7-.33,.96,.67,.04,.11-.21-.11-.35-.32-.17-.29-.31-.81-.41-.15-.04,.15-.11,.48-.11,.48,0,0-.23-.07-.23-.08,0,0-.09-.86-.42-1-.25-.08-.4,.59-.71,.61-.29-.02-.27-.06-.05-.12,.04,0,.54-.73,.66-.76h0Z"/><path d="M58.92,24.01c-.05,0-.24-.19-.35-.35-.04-.06-.08-.14-.11-.21-.12-.25-.22-.38-.29,.06-.04,.15-.11,.48-.11,.48-.24-.06-.25-.07-.25-.08-.07-.49-.19-.82-.34-.95,.17,.14,.29,.46,.35,.92,.01,.03,.15,.07,.23,.1,0,0,.06-.33,.1-.47,.08-.47,.19-.33,.32-.06,.03,.07,.07,.15,.11,.21,.12,.17,.3,.35,.33,.35h0s0,0,0,0c-.27-1.05-.91-1.33-.95-.69-.01-.04-.03-.09-.04-.13,.06-.15,.14-.25,.26-.25,.23,0,.57,.39,.74,1.04v.04h-.01Zm-2.23-.49c-.19-.01-.22-.03-.23-.05,0-.02,.02-.04,.17-.08,.02,0,.11-.12,.19-.23,.17-.23,.39-.51,.47-.52,.07,0,.12,0,.17,.02-.03,0-.06,0-.1,0-.15,.02-.38,.31-.54,.52-.13,.17-.18,.24-.2,.24-.15,.04-.16,.06-.16,.07,0,0,.02,.03,.21,.04,.15,0,.26-.18,.37-.34,.1-.14,.19-.28,.3-.28,.03,.01,.07,.03,.1,.05-.02-.01-.04-.03-.06-.03-.17-.05-.23,.13-.33,.27-.11,.16-.22,.33-.38,.34h0Z"/><path class="cls-7" d="M56.09,22.96h0c.07-.02,.13-.01,.14,.02l.75,2.17s-.03,.08-.1,.11h0c-.07,.02-.13,.01-.15-.02l-.75-2.17s.03-.08,.1-.11h0Z"/><path d="M56.81,25.28l-.08-.04-.75-2.17c.02-.07,.06-.1,.1-.11l.15,.03,.75,2.17s-.03,.09-.1,.12h-.08Zm-.72-2.31h0s-.08,.05-.1,.08l.74,2.2,.07,.04,.07-.02c.06-.02,.11-.07,.1-.1l-.75-2.17-.14-.02h0Z"/><path class="cls-9" d="M56.31,21.57c-.33,.03-.48,.31-.41,.74,.01,.04-.05,.07-.06,.06-.23-.69-.97-.67-1,.45,.02,.17,.17-.15,.25-.39,.09-.32,.33-.44,.6,.18,.08,.13,.23,.43,.23,.43,0,0,.21-.12,.21-.13,0-.01-.14-.85,.15-1.06,.22-.14,.23-.13,.54-.19,.28-.08,.25-.12,.02-.13-.04,0-.41,.02-.54,.03h0Z"/><path d="M55.92,23.05h0s-.15-.31-.23-.44c-.16-.36-.29-.44-.37-.44-.09,0-.17,.09-.22,.26-.04,.12-.17,.44-.24,.44,0-.02,0-.03,0-.05,.06,0,.15-.18,.22-.4,.11-.39,.38-.34,.62,.18,.07,.12,.2,.38,.23,.43,.08-.04,.19-.11,.2-.12-.07-.58-.02-.94,.15-1.06,.21-.13,.23-.13,.49-.18,.24-.07,.25-.09,.25-.1,0,0-.02-.02-.18-.03-.03,0-.29,.02-.45,.02-.22,.02-.33,.07-.4,.17-.1,.13-.13,.33-.09,.57-.02-.02-.03-.05-.05-.07,.01-.24,.05-.4,.13-.51,.07-.1,.18-.15,.33-.17,.25-.01,.5-.02,.54-.03,.16,0,.19,.02,.19,.04,0,.02-.02,.04-.2,.1-.31,.05-.33,.06-.54,.18-.16,.12-.22,.48-.15,1.02,0,.03,0,.04-.21,.17h0Zm-.98-.77c.16-.48,.51-.45,.72-.23-.23-.19-.54-.22-.72,.23h0Z"/><path class="cls-9" d="M56.41,21.98c-.33,.06-.46,.34-.37,.77,.02,.04-.05,.07-.05,.06-.27-.68-1-.61-.97,.52,.03,.17,.16-.17,.23-.41,.08-.33,.3-.46,.61,.14,.08,.13,.25,.42,.25,.42,0,0,.2-.13,.2-.14,0-.01-.19-.84,.09-1.07,.22-.15,.22-.15,.53-.22,.27-.1,.24-.14,.01-.13-.04,0-.4,.05-.53,.06h0Z"/><path d="M56.11,23.49h0s-.17-.3-.25-.42c-.18-.34-.31-.41-.39-.41-.09,0-.17,.1-.21,.27-.04,.13-.15,.46-.21,.46,0-.02,0-.03,0-.05,.06,0,.14-.19,.2-.41,.09-.39,.36-.37,.62,.14,.08,.12,.22,.37,.25,.41,.07-.05,.18-.13,.19-.14-.06-.33-.13-.89,.09-1.07,.2-.14,.23-.15,.48-.21,.23-.08,.24-.11,.24-.11,0,0,0-.02-.11-.02-.1,.01-.46,.05-.6,.06-.13,.02-.24,.08-.3,.18-.09,.13-.11,.34-.06,.58-.02-.02-.04-.04-.06-.06,0-.24,.02-.41,.1-.52,.07-.1,.17-.17,.31-.19,.13-.01,.49-.05,.53-.06,.16,0,.19,.01,.19,.03,0,.02-.02,.05-.2,.12-.31,.07-.33,.08-.53,.22-.21,.18-.15,.73-.09,1.04,0,.03,0,.04-.2,.17h0Zm-1.07-.45c.02-.25,.09-.43,.2-.54,.16-.16,.39-.15,.56,.01-.18-.14-.4-.16-.55,0-.11,.11-.18,.3-.21,.54h0Z"/><path class="cls-9" d="M56.52,22.48c-.32,.08-.43,.38-.31,.81,.02,.03-.04,.08-.05,.07-.31-.66-1.04-.52-.92,.6,.04,.16,.15-.18,.2-.43,.05-.33,.26-.49,.62,.08,.09,.12,.28,.4,.28,.4,0,0,.19-.15,.19-.16,0-.01-.25-.83,0-1.08,.2-.17,.21-.17,.51-.27,.26-.13,.23-.16,0-.13-.04,.01-.39,.08-.52,.11h0Z"/><path d="M56.34,24.02h0s-.19-.28-.28-.4c-.19-.31-.33-.38-.4-.38-.1,0-.17,.11-.2,.29,0,0-.1,.48-.18,.48,0-.02,0-.03,0-.05,.06,0,.12-.2,.17-.43,.06-.4,.33-.4,.63,.08,.08,.11,.25,.35,.28,.39,.07-.06,.17-.14,.18-.15-.09-.33-.2-.88,0-1.08,.19-.16,.21-.17,.46-.25,.14-.06,.2-.1,.22-.12,0,.03-.05,.06-.16,.11-.3,.1-.32,.11-.51,.27-.15,.15-.15,.53,0,1.05,0,.03,0,.04-.18,.19h0Zm-1.1-.36c0-.27,.06-.46,.17-.58,.15-.17,.39-.16,.57,0-.19-.13-.41-.15-.56,.01-.11,.12-.17,.32-.18,.57h0Zm.98-.38s-.04-.04-.06-.06c-.02-.24,0-.41,.06-.54,.06-.11,.16-.18,.29-.22,.13-.03,.48-.1,.52-.11,.05,0,.1-.01,.13-.01,.01,0,.02,.01,.03,.02-.07,0-.11,0-.15,0-.04,.01-.39,.08-.52,.11-.13,.03-.23,.1-.29,.21-.08,.14-.09,.35-.02,.59h0Z"/><path class="cls-9" d="M59.07,21.41c.33,.03,.5,.31,.46,.75-.01,.04,.06,.07,.06,.06,.17-.7,1.03-1,1.15,.14,0,.17-.18-.16-.28-.4-.12-.32-.48-.13-.71,.49-.07,.14-.19,.44-.19,.44,0,0-.21-.12-.22-.13,0-.01,.07-.86-.23-1.07-.23-.13-.22,.04-.53,0-.28-.08-.26-.12-.03-.13,.18,.06,.38-.16,.51-.15h0Z"/><path d="M59.57,22.91h0c-.22-.12-.22-.13-.22-.14,.02-.28,.02-.89-.22-1.07-.06-.03-.11-.05-.15-.05-.19,.05-.23,.07-.38,.04-.19-.05-.21-.08-.21-.1,0-.02,.03-.04,.18-.04,.15,.01,.24-.04,.32-.08,.07-.04,.13-.07,.19-.07,.23,.02,.38,.15,.44,.37-.09-.22-.23-.34-.44-.36h0c-.05,0-.12,.03-.18,.07-.08,.04-.17,.09-.26,.09h0c-.22,0-.23,.01-.24,.02,0,0,.01,.03,.2,.08,.14,.02,.21,0,.27-.02h0s.1-.02,.1-.02c.05,0,.09,.02,.16,.05,.24,.17,.25,.74,.23,1.06,0,.02,.13,.09,.2,.14,.02-.05,.13-.31,.19-.44,.25-.7,.61-.79,.72-.49,.05,.12,.11,.25,.17,.34-.07-.09-.15-.25-.18-.33-.11-.29-.45-.19-.7,.49-.07,.14-.19,.44-.19,.44h0Zm1.16-.54s0,0,0,0c-.04-.49-.23-.76-.5-.76s-.53,.26-.62,.62c0-.05,0-.1-.02-.15,.14-.26,.39-.48,.64-.48,.28,0,.48,.29,.53,.77,0,0-.01,0-.02,0h0Z"/><path class="cls-9" d="M59.01,21.83c.33,.05,.48,.34,.42,.78-.01,.04,.05,.08,.06,.06,.21-.69,1.18-.33,1.23,.81-.02,.17-.08,.13-.17-.11-.1-.33-.66-1.06-.92-.45-.07,.13-.22,.43-.22,.43,0,0-.21-.13-.21-.14,0-.01,.12-.85-.17-1.08-.22-.15-.37,.04-.68-.03-.27-.1-.25-.13-.02-.13,.04,0,.54-.14,.66-.13h0Z"/><path d="M60.68,23.59s-.08-.08-.13-.22c-.07-.24-.39-.68-.65-.68-.11,0-.2,.08-.26,.23-.07,.13-.22,.43-.22,.43-.22-.13-.22-.14-.22-.14,.04-.34,.06-.9-.17-1.08-.1-.07-.21-.06-.33-.04-.1,.02-.22,.04-.34,0-.19-.07-.21-.1-.2-.11,0-.02,.06-.02,.15-.03,.07,0,.15-.02,.25-.04,.15-.04,.35-.09,.43-.09,.23,.04,.38,.17,.44,.4-.07-.22-.21-.35-.42-.38h0c-.1,0-.29,.05-.45,.09-.1,.03-.19,.05-.21,.05h0c-.16,.02-.18,.01-.18,.02,0,0,.01,.03,.19,.1,.12,.03,.24,.01,.34,0,.12-.03,.23-.03,.34,.04,.23,.18,.21,.75,.17,1.07,0,.03,.13,.11,.2,.16,0-.01,.14-.3,.21-.43,.07-.16,.16-.24,.27-.24,.27,0,.59,.45,.66,.69,.07,.19,.1,.21,.12,.21,0,0,.03,0,.04-.1-.03-.71-.45-1.16-.81-1.16-.19,0-.34,.13-.41,.34,0-.05,0-.09,0-.13,.11-.13,.24-.23,.42-.23,.38,0,.79,.44,.82,1.17,0,.07-.02,.11-.05,.11h0Z"/><path class="cls-9" d="M58.93,22.33c.32,.08,.45,.38,.36,.81-.01,.04,.05,.08,.05,.07,.26-.67,.76-.05,.7,.99,0,.11-.16-.18-.23-.43-.08-.34-.04-.88-.34-.29-.08,.12-.25,.41-.25,.41,0,0-.2-.15-.2-.16,0-.01,.18-.84-.09-1.09-.21-.17-.56,.4-.86,.3-.26-.12-.24-.16,0-.13,.04,.01,.73-.49,.86-.47h0Z"/><path d="M60.03,24.23s-.17-.25-.22-.46c-.02-.08-.03-.16-.04-.24-.04-.28-.09-.44-.29-.05-.08,.13-.25,.41-.25,.41-.21-.15-.21-.16-.21-.16,.03-.18,.07-.43,.06-.65,.02,.22,0,.46-.04,.63,0,.03,.12,.12,.19,.17,0-.01,.16-.28,.24-.41,.22-.42,.28-.24,.32,.06,.01,.08,.02,.17,.04,.24,.06,.22,.18,.45,.21,.45h0s0-.02,0-.02c.03-.58-.11-1.01-.26-1.17-.15-.16-.31-.09-.42,.19,0-.05,0-.09,0-.14,.2-.22,.31-.18,.43-.06,.16,.17,.3,.6,.27,1.18l-.02,.03h0Zm-1.88-1.28s-.04-.02-.06-.02c.19,0,.32-.09,.45-.18,.11-.08,.22-.16,.31-.16,.02,.01,.03,.02,.04,.04-.15-.01-.25,.06-.35,.13-.13,.09-.26,.19-.39,.19h0Zm-.1-.04c-.16-.06-.17-.09-.17-.1,.1-.02,.14-.02,.19-.01h0s.13-.07,.26-.15c.22-.14,.5-.32,.59-.32,.23,.06,.36,.21,.4,.43-.06-.23-.18-.37-.39-.42h0c-.1,0-.39,.18-.6,.32-.16,.1-.24,.15-.26,.15-.05,0-.09,0-.12,0-.05,.02-.05,.04,.1,.11h0Z"/><path d="M62.6,36.37h-.03c-4.74-2-7.72-4.47-7.92-10.61V15.34h15.75v10.41c0,5.16-2.18,8.13-7.76,10.6h-.03Zm-7.79-20.84v10.25c.2,6.06,3.01,8.42,7.79,10.43,5.49-2.43,7.63-5.36,7.63-10.43V15.51h-15.42Z"/></g></g></g></svg>