<?xml version="1.0" encoding="UTF-8"?><svg id="Ebene_2" xmlns="http://www.w3.org/2000/svg" xmlns:xlink="http://www.w3.org/1999/xlink" viewBox="0 0 83.18 48.52"><defs><style>.cls-1{clip-path:url(#clippath);}.cls-2{fill:#fff;}.cls-3{fill:#d50037;}.cls-4{clip-path:url(#clippath-1);}</style><clipPath id="clippath"><rect class="cls-2" width="83.18" height="48.52"/></clipPath><clipPath id="clippath-1"><rect class="cls-2" width="83.18" height="48.52"/></clipPath></defs><g id="Layer_1"><g><rect class="cls-2" width="83.18" height="48.52"/><g class="cls-1"><g><rect class="cls-2" width="83.18" height="48.52"/><g class="cls-4"><path class="cls-3" d="M19.72,10.95c-.04,.89-.13,1.77-.27,2.64-.04,.28-.09,.55-.14,.83,.54-.07,1.09-.1,1.65-.1s1.11,.04,1.65,.1c-.05-.28-.1-.55-.14-.83-.13-.87-.22-1.75-.27-2.64,1.18,.06,2.34,.2,3.47,.41-.07-.54-.1-1.09-.1-1.65s.04-1.11,.1-1.65c-1.13,.21-2.29,.35-3.47,.41,.06-1.18,.2-2.34,.41-3.47-.54,.07-1.09,.1-1.65,.1s-1.11-.03-1.65-.1c.21,1.13,.35,2.29,.41,3.47-1.18-.06-2.34-.2-3.47-.41,.07,.54,.1,1.09,.1,1.65s-.04,1.11-.1,1.65c1.13-.21,2.29-.35,3.47-.41"/><path class="cls-3" d="M60.97,10.95c-.04,.89-.13,1.77-.27,2.64-.04,.28-.09,.55-.14,.83,.54-.07,1.09-.1,1.65-.1s1.11,.04,1.65,.1c-.05-.28-.1-.55-.14-.83-.13-.87-.22-1.75-.27-2.64,1.18,.06,2.34,.2,3.47,.41-.07-.54-.1-1.09-.1-1.65s.04-1.11,.1-1.65c-1.13,.21-2.29,.35-3.47,.41,.06-1.18,.2-2.34,.41-3.47-.54,.07-1.09,.1-1.65,.1s-1.11-.03-1.65-.1c.21,1.13,.35,2.29,.41,3.47-1.18-.06-2.34-.2-3.47-.41,.07,.54,.1,1.09,.1,1.65s-.04,1.11-.1,1.65c1.13-.21,2.29-.35,3.47-.41"/><path class="cls-3" d="M22.21,37.58c.04-.89,.13-1.77,.27-2.64,.04-.28,.09-.55,.14-.83-.54,.07-1.09,.1-1.65,.1s-1.11-.04-1.65-.1c.05,.28,.1,.55,.14,.83,.13,.87,.22,1.75,.27,2.64-1.18-.06-2.34-.2-3.47-.41,.07,.54,.1,1.09,.1,1.65s-.04,1.11-.1,1.65c1.13-.21,2.29-.35,3.47-.41-.06,1.18-.2,2.34-.41,3.47,.54-.07,1.09-.1,1.65-.1s1.11,.04,1.65,.1c-.21-1.13-.35-2.29-.41-3.47,1.18,.06,2.34,.2,3.47,.41-.07-.54-.1-1.09-.1-1.65s.04-1.11,.1-1.65c-1.13,.21-2.29,.35-3.47,.41"/><path class="cls-3" d="M63.46,37.58c.04-.89,.13-1.77,.27-2.64,.04-.28,.09-.55,.14-.83-.54,.07-1.09,.1-1.65,.1s-1.11-.04-1.65-.1c.05,.28,.1,.55,.14,.83,.13,.87,.22,1.75,.27,2.64-1.18-.06-2.34-.2-3.47-.41,.07,.54,.1,1.09,.1,1.65s-.03,1.11-.1,1.65c1.13-.21,2.29-.35,3.47-.41-.06,1.18-.2,2.34-.41,3.47,.54-.07,1.09-.1,1.65-.1s1.11,.04,1.65,.1c-.21-1.13-.35-2.29-.41-3.47,1.18,.06,2.34,.2,3.47,.41-.07-.54-.1-1.09-.1-1.65s.04-1.11,.1-1.65c-1.13,.21-2.29,.35-3.47,.41"/><rect class="cls-3" x="36.7" width="9.78" height="48.52"/><rect class="cls-3" y="19.37" width="83.18" height="9.78"/></g></g></g></g></g></svg>