<?xml version="1.0" encoding="UTF-8"?><svg id="Ebene_2" xmlns="http://www.w3.org/2000/svg" xmlns:xlink="http://www.w3.org/1999/xlink" viewBox="0 0 83.18 48.52"><defs><style>.cls-1{fill:none;}.cls-2{clip-path:url(#clippath);}.cls-3{fill:#f3d02f;}.cls-4{fill:#bc0030;}.cls-5{fill:#419e4b;}</style><clipPath id="clippath"><rect class="cls-1" width="83.18" height="48.52"/></clipPath></defs><g id="Layer_1"><g class="cls-2"><rect class="cls-4" width="28.82" height="48.52"/><rect class="cls-3" x="28.82" width="54.36" height="24.26"/><rect class="cls-5" x="28.82" y="24.26" width="54.36" height="24.26"/><polygon points="14.41 17.06 12.18 23.91 15.61 25.02 14.41 17.06"/><polygon points="14.41 17.06 16.64 23.91 13.21 25.02 14.41 17.06"/><polygon points="21.26 22.04 14.06 22.04 14.06 25.64 21.26 22.04"/><polygon points="21.26 22.04 15.43 26.27 13.32 23.36 21.26 22.04"/><polygon points="7.56 22.04 13.39 26.27 15.51 23.36 7.56 22.04"/><polygon points="7.56 22.04 14.76 22.04 14.76 25.64 7.56 22.04"/><polygon points="18.65 30.09 16.42 23.24 12.99 24.35 18.65 30.09"/><polygon points="18.65 30.09 12.82 25.86 14.93 22.94 18.65 30.09"/><polygon points="10.18 30.09 16.01 25.86 13.89 22.94 10.18 30.09"/><polygon points="10.18 30.09 12.4 23.24 15.83 24.35 10.18 30.09"/></g></g></svg>