<?xml version="1.0" encoding="UTF-8"?><svg id="Ebene_2" xmlns="http://www.w3.org/2000/svg" xmlns:xlink="http://www.w3.org/1999/xlink" viewBox="0 0 83.18 48.52"><defs><style>.cls-1{fill:none;}.cls-2{clip-path:url(#clippath);}.cls-3,.cls-4{fill:#fff;}.cls-5,.cls-6{fill:#e6b32d;}.cls-7{fill:#c0003b;}.cls-8,.cls-9{fill:#c00024;}.cls-10{fill:#1f189b;}.cls-11,.cls-12{fill:#233189;}.cls-13,.cls-14{fill:#2c6c1e;}.cls-15{clip-path:url(#clippath-1);}.cls-14,.cls-16,.cls-12,.cls-9,.cls-4,.cls-6{fill-rule:evenodd;}.cls-16{fill:#4d3509;}</style><clipPath id="clippath"><rect class="cls-1" width="83.18" height="48.52"/></clipPath><clipPath id="clippath-1"><rect class="cls-1" width="83.18" height="48.52"/></clipPath></defs><g id="Layer_1"><g class="cls-2"><rect class="cls-10" width="83.18" height="48.52"/><rect class="cls-7" y="24.26" width="83.18" height="24.26"/><rect class="cls-3" x="33.72" y="17.99" width="15.74" height="12.53"/><g class="cls-15"><path class="cls-14" d="M44.76,27.05l-3.21,.09-3.2,.04s-1.64,.61-2.31,.74c-.67,.14-.58,.36-1.1,.47-.42,.09-.46,.12-.71,.14-.15,0-.33,.12-.51,.25v1.74h15.74v-1.65c-.17-.09-.33-.16-.5-.21-.23-.08-.39-.16-.8-.26-.52-.12-.43-.33-1.1-.47-.67-.14-2.3-.87-2.3-.87h0Z"/><path class="cls-13" d="M49.48,30.54h-15.76v-1.75c.17-.14,.35-.25,.5-.26,.17-.01,.25-.03,.42-.07l.28-.07c.24-.05,.34-.13,.46-.21,.14-.09,.28-.19,.64-.27,.66-.13,2.3-.74,2.31-.74l3.2-.04,3.21-.09s1.64,.74,2.3,.87c.36,.07,.5,.17,.64,.27,.12,.08,.22,.15,.46,.21,.3,.07,.46,.13,.62,.19l.19,.07c.17,.06,.33,.12,.5,.21v1.68h0Zm-4.72-3.47l-3.21,.1-3.2,.04s-1.65,.61-2.31,.74c-.36,.07-.5,.17-.63,.26-.12,.08-.23,.16-.47,.21l-.28,.07c-.18,.04-.25,.06-.43,.07-.15,0-.33,.12-.5,.25v1.73s15.72-.02,15.72-.02v-1.64c-.16-.08-.32-.14-.49-.2l-.19-.07c-.15-.06-.32-.12-.61-.19-.24-.05-.35-.13-.47-.21-.13-.09-.27-.19-.63-.26-.67-.13-2.29-.87-2.3-.87h0Z"/><polygon class="cls-14" points="41.38 20.2 41.31 21.71 41.79 21.71 41.72 20.22 42.22 20.15 42.17 19.55 40.92 19.6 40.92 20.14 41.38 20.2"/><path class="cls-13" d="M41.8,21.73h-.5l.06-1.52-.45-.05-.02-.56,1.26-.06,.07,.61-.51,.09,.08,1.5h0Zm.35-2.18l-1.23,.06,.02,.53,.45,.05-.07,1.52,.45-.02-.07-1.48,.51-.09-.07-.58h0Z"/><polygon class="cls-6" points="40.24 24.35 39.82 23.45 40.01 23.41 40.77 24.91 40.24 24.35"/><path d="M40.83,25l-.6-.63-.42-.91,.19-.06,.83,1.6h0Zm-.84-1.58l-.16,.05,.43,.88,.45,.48-.72-1.41h0Z"/><polygon class="cls-4" points="39.28 22.39 39.74 23.66 39.98 23.66 39.28 22.39"/><path d="M40,23.68h-.26l-.48-1.28,.74,1.28h0Zm-.74-1.28l.49,1.26h.2s-.69-1.26-.69-1.26h0Z"/><polygon class="cls-6" points="40.68 23.18 40.91 23.18 41.34 24.96 41.25 25.53 40.68 23.18"/><path d="M41.25,25.6l-.59-2.42,.25-.02,.44,1.8-.1,.64h0Zm-.35-2.42l-.22,.02,.57,2.26,.08-.49-.43-1.78h0Z"/><polygon class="cls-6" points="40.88 25.03 40.16 23.11 40.43 23.09 41.26 25.44 40.88 25.03"/><path d="M41.3,25.5l-.43-.46-.72-1.92,.28-.04,.87,2.42h0Zm-.88-2.4l-.25,.03,.73,1.9,.33,.35-.81-2.28h0Z"/><polygon class="cls-4" points="39.83 22.01 40.12 23.35 40.36 23.35 39.83 22.01"/><path d="M40.39,23.36h-.26l-.31-1.35,.57,1.35h0Zm-.57-1.34l.32,1.33h.2s-.53-1.33-.53-1.33h0Z"/><polygon class="cls-4" points="40.44 21.99 40.6 23.37 40.77 23.36 40.44 21.99"/><path d="M40.58,23.38h0s-.16-1.39-.16-1.39l.36,1.36-.2,.03h0Zm-.16-1.39l.19,1.36h.16s-.34-1.36-.34-1.36h0Z"/><path class="cls-12" d="M40.3,24.49l-1.9-2.08c-.59,.47-.48,1.33-.48,1.33l2.16,1.69,.23-.95Z"/><path d="M40.08,25.46l-2.17-1.71s-.11-.89,.48-1.36l1.92,2.08-.23,.99h0Zm-1.69-3.04c-.56,.46-.46,1.31-.46,1.32l2.13,1.67,.22-.93-1.9-2.06h0Z"/><path class="cls-9" d="M41.4,25.63l-1.41-1.43c-.6,.02-.12,.91-.09,1.02l1.5,1.29v-.88Z"/><path d="M41.42,26.54l-1.57-1.41c-.08-.2-.26-.61-.12-.83,.05-.08,.14-.12,.26-.13l1.42,1.43v.92h0Zm-1.44-2.33c-.1,0-.18,.05-.23,.12-.13,.2,.04,.6,.12,.8,.02,.05,.03,.08,.04,.1l1.47,1.26v-.85l-1.41-1.42h0Z"/><polygon class="cls-6" points="41.28 25.39 38.36 22.26 38.25 22.34 41.34 25.77 41.28 25.39"/><path d="M41.36,25.82l-.03-.04-3.09-3.43,.12-.1,2.94,3.13,.07,.44h0Zm-3.01-3.55l-.09,.08,3.06,3.37-.05-.34-2.91-3.12h0Z"/><polygon class="cls-6" points="38.2 22.06 38.13 21.99 38.14 21.84 37.54 21.46 37.8 22.06 38.01 22.1 38.07 22.17 38.2 22.06"/><polygon points="38.07 22.19 38 22.11 37.8 22.08 37.52 21.46 38.14 21.83 38.15 21.92 38.12 21.84 37.53 21.47 37.82 22.06 38.02 22.08 38.07 22.15 38.19 22.05 38.18 22.04 38.21 22.07 38.07 22.19 38.07 22.19"/><path class="cls-6" d="M37.89,22.28c.1-.12,.22-.25,.44-.36l.17,.24-.36,.3-.25-.18Z"/><path d="M38.14,22.48l-.26-.19c.1-.14,.22-.27,.44-.39l.19,.25-.37,.33h0Zm.18-.55c-.2,.12-.32,.25-.42,.37l.24,.15,.35-.3-.17-.22h0Z"/><path class="cls-12" d="M39.47,25.04l-2.39-1.9c-.41,.42-.07,1.7-.07,1.7l2.34,1.27,.12-1.07Z"/><path d="M39.36,26.13l-2.36-1.28c-.02-.06-.35-1.31,.06-1.73l2.41,1.9-.12,1.1h0Zm-2.29-2.98c-.38,.4-.05,1.67-.04,1.69l2.31,1.25,.12-1.05-2.38-1.88h0Z"/><path class="cls-9" d="M41.45,26.58l-1.96-1.58c-.67,.09-.14,1.08-.1,1.19l2.08,1.13v-.74Z"/><path d="M41.47,27.34l-2.1-1.14c-.12-.25-.35-.75-.19-1.04,.06-.1,.16-.16,.3-.18l1.98,1.58v.78h.01Zm-2-2.33c-.12,.02-.21,.08-.27,.17-.15,.27,.08,.78,.16,.95l2.07,1.16v-.72s-1.97-1.56-1.97-1.56h0Z"/><polygon class="cls-6" points="41.37 26.26 37.12 23.07 37.03 23.17 41.49 26.65 41.37 26.26"/><path d="M41.52,26.69l-.04-.03-4.46-3.49,.1-.12,4.27,3.19,.14,.45h0Zm-4.4-3.61l-.08,.1,4.43,3.44-.1-.35-4.24-3.18h0Z"/><polygon class="cls-6" points="36.92 22.9 36.84 22.84 36.82 22.69 36.16 22.41 36.54 22.96 36.74 22.97 36.82 23.03 36.92 22.9"/><polygon points="36.82 23.05 36.73 22.98 36.54 22.98 36.15 22.42 36.83 22.68 36.85 22.76 36.81 22.69 36.16 22.43 36.55 22.96 36.75 22.95 36.82 23.01 36.91 22.89 36.9 22.88 36.93 22.91 36.82 23.05 36.82 23.05"/><path class="cls-6" d="M36.66,23.17c.08-.14,.18-.28,.37-.43l.21,.21-.3,.36-.28-.13Z"/><path d="M36.94,23.32l-.29-.14c.07-.15,.17-.3,.37-.46l.23,.21-.31,.39h0Zm.08-.58c-.18,.16-.27,.3-.35,.43l.26,.11,.29-.35-.21-.19h0Z"/><path class="cls-12" d="M39.3,26.2s-3.08-1.74-3.08-1.74c-.22,.37-.02,.92,.08,1,0,.25-.1,.38,.12,.91,.06,.34,.22,.65,.45,.84,.28,1.07,1.37,1.14,1.79,.27l.65-1.28Z"/><path d="M37.8,28.09h0c-.35,0-.78-.23-.95-.88-.22-.17-.38-.48-.45-.84-.16-.39-.15-.56-.13-.73,0-.06,.01-.11,.01-.17-.09-.07-.31-.62-.07-1.01,1.06,.59,3.05,1.71,3.1,1.73l-.64,1.3c-.18,.38-.51,.6-.86,.6h0Zm-1.59-3.61c-.2,.37,0,.9,.09,.98,0,.08,0,.13,0,.19-.02,.17-.04,.34,.13,.72,.07,.35,.23,.66,.45,.83,.17,.64,.59,.86,.93,.86h0c.35,0,.66-.22,.84-.59l.65-1.28h0s-2.57-1.43-3.07-1.72h0Z"/><path class="cls-9" d="M41.32,27.34l-2.09-1.22c-.67,.09,.02,1.34,.05,1.45l2.02,.72,.02-.94Z"/><path d="M41.31,28.3l-2.04-.72-.04-.09c-.12-.25-.43-.91-.26-1.22,.05-.09,.14-.15,.26-.16l2.1,1.23v.98h-.01Zm-2.09-2.17c-.1,.02-.18,.07-.22,.15-.16,.3,.15,.95,.26,1.2l2.03,.78,.02-.92-2.08-1.21h0Z"/><polygon class="cls-6" points="40.96 26.9 36.25 24.39 36.17 24.5 41.14 27.27 40.96 26.9"/><path d="M41.18,27.31l-5.02-2.79,.08-.13,4.73,2.51,.21,.42h0Zm-4.94-2.9l-.06,.11,4.93,2.72-.16-.33-4.71-2.5h0Z"/><polygon class="cls-6" points="36.02 24.25 35.94 24.2 35.89 24.06 35.19 23.89 35.65 24.37 35.86 24.34 35.95 24.39 36.02 24.25"/><polygon points="35.95 24.42 35.85 24.36 35.65 24.39 35.18 23.9 35.9 24.04 35.93 24.13 35.88 24.06 35.19 23.9 35.66 24.36 35.86 24.33 35.94 24.37 36.01 24.25 36 24.23 36.04 24.26 35.95 24.42 35.95 24.42"/><path class="cls-6" d="M35.81,24.56c.05-.15,.13-.3,.29-.48l.24,.17-.24,.4-.3-.09Z"/><path d="M36.11,24.67l-.31-.09c.04-.16,.12-.32,.29-.51l.26,.17-.24,.43h0Zm-.02-.58c-.15,.18-.22,.34-.27,.48l.28,.07,.23-.39-.23-.15h0Z"/><path class="cls-12" d="M37.57,22.81l.1,.17c.06-.02,.67-.58,.67-.58h.44s.12-.15,.12-.15c-.32-.35-.62,.05-.62,.05l-.71,.51Z"/><path class="cls-11" d="M37.66,23l-.1-.18,.71-.53s.37-.34,.64-.05l-.12,.16-.45,.02c-.05,.05-.61,.55-.67,.57h-.01Zm.96-.87c-.19,0-.33,.18-.33,.19l-.71,.51,.09,.14c.07-.05,.43-.36,.66-.57l.45-.02,.11-.13c-.08-.07-.18-.12-.27-.12h0Z"/><path class="cls-9" d="M37.92,23.1c.02-.15,.31-.53,.35-.55,.22,.06,.42,.19,.64-.31-.19,.24-.58,0-.58,0l-.17,.14v.07s-.5,.47-.5,.47l.26,.18Z"/><path class="cls-8" d="M37.93,23.12l-.28-.19,.2-.19-.18,.19,.24,.15c.04-.16,.31-.52,.36-.54,.14,.04,.2,.06,.27,.06,.09,0,.21-.04,.35-.33-.12,.2-.55,0-.56-.01l-.07,.07,.07-.09s.43,.19,.58,0c-.13,.4-.35,.42-.57,.35-.12-.01-.37,.36-.4,.52v.02h0Z"/><path class="cls-12" d="M36.42,23.7l.03,.18c.06-.03,.59-.62,.59-.62l.43-.08,.09-.14c-.3-.35-.62,.12-.62,.12l-.52,.54Z"/><path class="cls-11" d="M36.44,23.9l-.03-.2,.52-.56s.38-.42,.64-.12l-.08,.16-.44,.09c-.05,.06-.53,.59-.59,.62h-.02Zm.88-.97c-.2,0-.36,.24-.36,.24l-.52,.55,.03,.14c.08-.07,.38-.39,.57-.6l.44-.08,.08-.13c-.07-.07-.15-.11-.23-.11h0Z"/><path class="cls-9" d="M36.76,24.02c-.02-.16,.2-.64,.24-.66,.26,.08,.48,.19,.58-.34-.15,.27-.58,.06-.58,.06l-.14,.16,.02,.09-.43,.56,.31,.13Z"/><path class="cls-8" d="M36.78,24.04l-.34-.14,.11-.15-.09,.15,.29,.1c0-.18,.2-.63,.25-.65,.15,.04,.22,.06,.29,.06,.1,0,.22-.05,.28-.4-.06,.24-.56,.08-.57,.08l-.04,.05,.04-.08s.17,.07,.33,.07c.12,0,.2-.04,.25-.13-.04,.44-.25,.47-.51,.38-.08,0-.3,.47-.28,.63v.03h0Z"/><path class="cls-12" d="M35.62,25.12l.1,.19c.05-.04,.5-.76,.5-.76l.41-.14,.08-.17c-.33-.31-.58,.22-.58,.22l-.51,.65Z"/><path class="cls-11" d="M35.71,25.34l-.11-.21,.51-.67s.31-.5,.6-.23l-.07,.19-.42,.14c-.04,.07-.44,.72-.5,.76h-.01Zm.79-1.16c-.21,0-.36,.31-.36,.31l-.51,.65,.09,.16c.07-.08,.32-.48,.48-.74l.42-.14,.07-.16c-.06-.04-.13-.07-.2-.07h0Z"/><path class="cls-9" d="M36.06,25.4c-.03-.17,.08-.7,.12-.72,.26,.08,.48,.1,.54-.44-.15,.25-.55,.16-.55,.16l-.12,.18,.03,.06-.34,.66,.34,.1Z"/><path class="cls-8" d="M36.08,25.42l-.36-.11,.13-.28-.12,.27,.3,.07c-.02-.18,.08-.68,.13-.72,.22,.05,.46,.22,.53-.43-.11,.28-.53,.17-.54,.17l-.05,.09,.04-.11s.09,.01,.18,.01c.12,0,.29-.03,.37-.17-.01,.48-.26,.54-.53,.46-.01,.02-.13,.54-.1,.71v.02h0Z"/><polygon class="cls-6" points="40.93 28.05 39.76 27.69 39.24 26.81 37.43 26.73 37.5 27.38 39.04 27.68 39.19 27.94 40.96 28.43 40.93 28.05"/><path d="M40.98,28.45l-1.8-.5-.16-.27-1.53-.29-.08-.67,1.83,.07,.52,.88,1.17,.36,.04,.41h0Zm-3.55-1.71l.08,.64,1.53,.28,.16,.27,1.75,.48-.03-.36-1.17-.35-.52-.88-1.8-.08h0Z"/><polygon class="cls-16" points="39.71 28.3 37.85 25.57 37.76 25.64 39.6 28.38 39.71 28.3"/><path d="M39.6,28.4l-1.85-2.75,.1-.09,1.88,2.73-.12,.11h0Zm-1.76-2.82l-.07,.07,1.84,2.71,.09-.07-1.86-2.71h0Z"/><path class="cls-4" d="M38.02,25.68l-.2-.33c-.04-.06-.09-.08-.18-.04-.08,.04-.07,.13-.04,.19l.18,.31,.23-.13Z"/><path d="M37.79,25.82l-.19-.32c-.03-.07-.04-.16,.05-.21,.13-.03,.17,0,.2,.04l.2,.33-.25,.15h0Zm-.06-.54l-.07,.04c-.07,.04-.06,.11-.03,.17l.18,.3,.22-.12-.29-.38h0Z"/><polygon class="cls-6" points="39.92 26.61 36.18 26.23 36.09 26.78 39.82 27.15 39.92 26.61"/><path d="M39.83,27.17l-3.74-.38,.08-.56,3.76,.37-.1,.57h0Zm-3.65-.92l-.07,.53,3.7,.36,.1-.52-3.73-.36h0Z"/><polygon class="cls-6" points="36.12 26.09 36.02 26.85 36.18 26.85 36.29 26.16 36.12 26.09"/><path d="M36.19,26.86h-.17l.08-.77,.19,.05-.1,.72h0Zm-.08-.76l-.08,.74,.13-.02,.11-.68-.16-.05h0Z"/><polygon class="cls-6" points="36.74 26.21 36.7 26.89 36.79 26.9 36.87 26.3 36.74 26.21"/><path d="M36.81,26.92h-.11s.03-.71,.03-.71l.16,.08-.07,.63h0Zm-.08-.69l-.02,.67h.08s-.01,0-.01,0l.08-.6-.13-.07h0Z"/><polygon class="cls-6" points="39.28 26.51 39.19 27.14 39.37 27.14 39.44 26.51 39.28 26.51"/><polygon points="39.17 27.16 39.26 26.5 39.44 26.49 39.38 27.14 39.17 27.16 39.17 27.16"/><path class="cls-6" d="M39.83,26.52l-.13,.74,.21,.03,.06-.39c.02,.08,.09,.14,.17,.14,.1,0,.18-.08,.18-.17s-.08-.17-.18-.17c-.07,0-.13,.04-.16,.11l.04-.28h-.19Z"/><path d="M39.92,27.31l-.22-.03,.12-.75h.21s-.02,.26-.02,.26c.03-.17,.33-.09,.33,.08,0,.19-.34,.22-.38,.04l-.03,.4h0Zm.09-.77h-.18s-.12,.73-.12,.73h.18s.06-.36,.06-.36c.1,.16,.35,.13,.35-.03,0-.15-.25-.21-.31-.05v-.28h.01Z"/><polygon class="cls-6" points="38.48 26.64 37.97 27.22 38.03 27.29 38.69 26.84 38.48 26.64"/><path d="M38.02,27.31l-.07-.08,.51-.6,.23,.2-.67,.48h0Zm.45-.66l-.49,.58,.05,.06h0s.66-.46,.66-.46l-.21-.18h0Z"/><polygon class="cls-6" points="37.29 28.09 37.8 27.51 37.74 27.44 37.08 27.89 37.29 28.09"/><path d="M37.29,28.11l-.22-.21,.67-.48,.07,.08-.53,.61h0Zm.5-.61l-.7,.4,.19,.17,.51-.57h0Z"/><polygon class="cls-6" points="38.63 27.94 38.01 27.46 37.94 27.5 38.44 28.13 38.63 27.94"/><path d="M38.43,28.15l-.5-.64,.08-.07,.63,.48-.21,.22h0Zm-.44-.68l.44,.64,.19-.17-.63-.46h0Z"/><polygon class="cls-6" points="37.09 26.83 37.72 27.29 37.8 27.24 37.3 26.61 37.09 26.83"/><path d="M37.72,27.31l-.64-.47,.21-.24,.53,.64-.1,.07h0Zm-.43-.69l-.19,.22,.62,.44,.07-.05-.5-.6h0Z"/><polygon class="cls-6" points="37.78 26.44 37.84 27.2 37.93 27.2 38.13 26.46 37.78 26.44"/><path d="M37.83,27.22l-.06-.78h.36s-.19,.77-.19,.77h-.11Zm.29-.76h-.33s.08,.73,.08,.73h.07s.19-.73,.19-.73h0Z"/><polygon class="cls-6" points="37.99 28.29 37.93 27.53 37.83 27.52 37.72 28.29 37.99 28.29"/><path d="M38,28.3h-.29l.1-.8h.11s.08,.8,.08,.8h0Zm-.09-.77l-.18,.76,.24-.02-.06-.75h0Z"/><polygon class="cls-6" points="38.83 27.26 38.03 27.35 38.02 27.42 38.83 27.53 38.83 27.26"/><path d="M38.84,27.54l-.82-.11v-.11s.81-.08,.81-.08v.3h.01Zm-.03-.28l-.78,.1,.78,.15v-.25h0Z"/><polygon class="cls-6" points="36.93 27.52 37.71 27.4 37.73 27.34 36.92 27.25 36.93 27.52"/><polygon points="36.92 27.54 36.91 27.25 37.73 27.33 37.58 27.37 36.92 27.27 36.95 27.51 37.21 27.47 36.92 27.54 36.92 27.54"/><path class="cls-6" d="M38.09,27.35c0,.11-.1,.2-.21,.2s-.21-.09-.21-.2,.1-.2,.21-.2,.21,.09,.21,.2h0Z"/><path d="M37.88,27.57c-.12,0-.23-.1-.23-.22,0-.24,.45-.24,.45,0,0,.12-.1,.22-.23,.22h0Zm0-.41c-.11,0-.2,.08-.2,.19,0,.21,.39,.21,.39,0,0-.1-.09-.19-.2-.19h0Z"/><path class="cls-6" d="M39,27.35c0,.6-.5,1.08-1.12,1.08s-1.12-.49-1.12-1.08,.5-1.08,1.12-1.08,1.12,.48,1.12,1.08h0Zm-.22,0c0,.48-.4,.87-.9,.87s-.9-.39-.9-.87,.4-.87,.9-.87,.9,.39,.9,.87h0Z"/><path d="M37.88,28.45c-.63,0-1.14-.49-1.14-1.1s.51-1.1,1.14-1.1,1.14,.49,1.14,1.1-.51,1.1-1.14,1.1h0Zm0-2.17c-.61,0-1.11,.48-1.11,1.07s.5,1.07,1.11,1.07,1.11-.48,1.11-1.07-.5-1.07-1.11-1.07h0Zm0,1.95c-.5,0-.91-.4-.91-.88s.41-.88,.91-.88,.91,.4,.91,.88-.41,.88-.91,.88h0Zm0-1.73c-.49,0-.88,.38-.88,.85s.4,.85,.88,.85,.88-.38,.88-.85-.4-.85-.88-.85h0Z"/><path class="cls-1" d="M37.18,26.8l-.18-.13,.18,.13Zm1.26-.13l.15-.15-.15,.15Zm.32,1.37l-.19-.15,.19,.15Zm-1.58,.17l.16-.17-.16,.17Z"/><polygon class="cls-6" points="40.96 26.28 41.15 27.26 40.99 27.34 40.82 26.29 40.96 26.28"/><path d="M40.98,27.36l-.17-1.07,.15-.03,.21,.99-.18,.11h0Zm-.04-1.08l-.12,.03,.18,1.01,.14-.07-.2-.96h0Z"/><path class="cls-4" d="M40.86,26.15c-.09-.04-.21,.03-.39-.21-.31,.29-.02,.33,.03,.61,.09,.04,.14-.22,.38-.25,.03,0,.38-.03,.38-.03l-.09-.12s-.24,0-.31,0h0Z"/><path d="M40.51,26.57h-.02c-.02-.11-.07-.18-.11-.24-.08-.12-.14-.21,.08-.4,.16,.18,.25,.19,.33,.2l.15,.02h.23s.1,.12,.1,.12l-.39,.06c-.13,.01-.21,.1-.26,.17-.04,.04-.07,.08-.11,.08h0Zm-.06-.62c-.17,.18-.12,.26-.05,.37,.04,.06,.09,.13,.1,.23h0s.05-.04,.08-.08c.06-.07,.14-.16,.28-.18l.38-.03-.1-.1h-.22s-.15,0-.15,0c-.08,0-.18-.02-.33-.2h0Z"/><path class="cls-4" d="M40.98,26.34l-.04-.29c-.04-.1-.17-.01-.17,.05l.03,.27,.17-.02Z"/><path d="M40.8,26.38l-.04-.28c0-.05,.07-.11,.12-.11l.02,.06c-.07-.01-.11,.02-.11,.05l.03,.25,.15-.02-.02-.09,.03,.1-.2,.04h0Z"/><path class="cls-6" d="M38.81,28.76s-.02,.08-.06,.1c-.04,.02-.08,.02-.12,0-.04-.02-.06-.06-.06-.1s.02-.08,.06-.1c.04-.02,.09-.02,.12,0,.04,.02,.06,.06,.06,.1h0Z"/><path class="cls-1" d="M38.81,28.76s-.02,.08-.06,.1c-.04,.02-.08,.02-.12,0-.04-.02-.06-.06-.06-.1s.02-.08,.06-.1c.04-.02,.09-.02,.12,0,.04,.02,.06,.06,.06,.1Z"/><path class="cls-6" d="M38.49,28.54s-.02,.08-.06,.1c-.04,.02-.09,.02-.12,0-.04-.02-.06-.06-.06-.1s.02-.08,.06-.1c.04-.02,.08-.02,.12,0,.04,.02,.06,.06,.06,.1h0Z"/><path class="cls-1" d="M38.49,28.54s-.02,.08-.06,.1c-.04,.02-.09,.02-.12,0-.04-.02-.06-.06-.06-.1s.02-.08,.06-.1c.04-.02,.08-.02,.12,0,.04,.02,.06,.06,.06,.1Z"/><path class="cls-6" d="M38.07,28.69s-.02,.08-.06,.1c-.04,.02-.09,.02-.12,0-.04-.02-.06-.06-.06-.1s.02-.08,.06-.1c.04-.02,.08-.02,.12,0,.04,.02,.06,.06,.06,.1h0Z"/><path class="cls-1" d="M38.07,28.69s-.02,.08-.06,.1c-.04,.02-.09,.02-.12,0-.04-.02-.06-.06-.06-.1s.02-.08,.06-.1c.04-.02,.08-.02,.12,0,.04,.02,.06,.06,.06,.1Z"/><path class="cls-6" d="M37.41,28.83s-.02,.08-.06,.1c-.04,.02-.08,.02-.12,0-.04-.02-.06-.06-.06-.1s.02-.08,.06-.1c.04-.02,.09-.02,.12,0,.04,.02,.06,.06,.06,.1h0Z"/><path class="cls-1" d="M37.41,28.83s-.02,.08-.06,.1c-.04,.02-.08,.02-.12,0-.04-.02-.06-.06-.06-.1s.02-.08,.06-.1c.04-.02,.09-.02,.12,0,.04,.02,.06,.06,.06,.1Z"/><path class="cls-6" d="M37.14,28.86s-.02,.08-.06,.1c-.04,.02-.08,.02-.12,0-.04-.02-.06-.06-.06-.1s.02-.08,.06-.1c.04-.02,.09-.02,.12,0,.04,.02,.06,.06,.06,.1h0Z"/><path class="cls-1" d="M37.14,28.86s-.02,.08-.06,.1c-.04,.02-.08,.02-.12,0-.04-.02-.06-.06-.06-.1s.02-.08,.06-.1c.04-.02,.09-.02,.12,0,.04,.02,.06,.06,.06,.1Z"/><path class="cls-6" d="M36.86,28.86s-.02,.08-.06,.1c-.04,.02-.09,.02-.12,0-.04-.02-.06-.06-.06-.1s.02-.08,.06-.1c.04-.02,.08-.02,.12,0,.04,.02,.06,.06,.06,.1h0Z"/><path class="cls-1" d="M36.86,28.86s-.02,.08-.06,.1c-.04,.02-.09,.02-.12,0-.04-.02-.06-.06-.06-.1s.02-.08,.06-.1c.04-.02,.08-.02,.12,0,.04,.02,.06,.06,.06,.1Z"/><path class="cls-6" d="M36.59,28.85s-.02,.08-.06,.1c-.04,.02-.09,.02-.12,0-.04-.02-.06-.06-.06-.1s.02-.08,.06-.1c.04-.02,.08-.02,.12,0,.04,.02,.06,.06,.06,.1h0Z"/><path class="cls-1" d="M36.59,28.85s-.02,.08-.06,.1c-.04,.02-.09,.02-.12,0-.04-.02-.06-.06-.06-.1s.02-.08,.06-.1c.04-.02,.08-.02,.12,0,.04,.02,.06,.06,.06,.1Z"/><path class="cls-6" d="M36.72,28.64s-.02,.08-.06,.1c-.04,.02-.09,.02-.12,0-.04-.02-.06-.06-.06-.1s.02-.08,.06-.1c.04-.02,.08-.02,.12,0,.04,.02,.06,.06,.06,.1h0Z"/><path class="cls-1" d="M36.72,28.64s-.02,.08-.06,.1c-.04,.02-.09,.02-.12,0-.04-.02-.06-.06-.06-.1s.02-.08,.06-.1c.04-.02,.08-.02,.12,0,.04,.02,.06,.06,.06,.1Z"/><path class="cls-6" d="M36.99,28.65s-.02,.08-.06,.1c-.04,.02-.08,.02-.12,0-.04-.02-.06-.06-.06-.1s.02-.08,.06-.1c.04-.02,.09-.02,.12,0,.04,.02,.06,.06,.06,.1h0Z"/><path class="cls-1" d="M36.99,28.65s-.02,.08-.06,.1c-.04,.02-.08,.02-.12,0-.04-.02-.06-.06-.06-.1s.02-.08,.06-.1c.04-.02,.09-.02,.12,0,.04,.02,.06,.06,.06,.1Z"/><path class="cls-6" d="M37.25,28.62s-.02,.08-.06,.1c-.04,.02-.08,.02-.12,0-.04-.02-.06-.06-.06-.1s.02-.08,.06-.1c.04-.02,.09-.02,.12,0,.04,.02,.06,.06,.06,.1h0Z"/><path class="cls-1" d="M37.25,28.62s-.02,.08-.06,.1c-.04,.02-.08,.02-.12,0-.04-.02-.06-.06-.06-.1s.02-.08,.06-.1c.04-.02,.09-.02,.12,0,.04,.02,.06,.06,.06,.1Z"/><path class="cls-6" d="M37.12,28.41s-.02,.08-.06,.1c-.04,.02-.09,.02-.12,0-.04-.02-.06-.06-.06-.1s.02-.08,.06-.1c.04-.02,.08-.02,.12,0,.04,.02,.06,.06,.06,.1h0Z"/><path class="cls-1" d="M37.12,28.41s-.02,.08-.06,.1c-.04,.02-.09,.02-.12,0-.04-.02-.06-.06-.06-.1s.02-.08,.06-.1c.04-.02,.08-.02,.12,0,.04,.02,.06,.06,.06,.1Z"/><path class="cls-6" d="M36.86,28.41s-.02,.08-.06,.1c-.04,.02-.09,.02-.12,0-.04-.02-.06-.06-.06-.1s.02-.08,.06-.1c.04-.02,.08-.02,.12,0,.04,.02,.06,.06,.06,.1h0Z"/><path class="cls-1" d="M36.86,28.41s-.02,.08-.06,.1c-.04,.02-.09,.02-.12,0-.04-.02-.06-.06-.06-.1s.02-.08,.06-.1c.04-.02,.08-.02,.12,0,.04,.02,.06,.06,.06,.1Z"/><path class="cls-4" d="M38.97,27.98c-.11-.04-.11,.2-.11,.2h.17c.07,.03,.13,.14,.08,.19-.04,.04-.36-.07-.38,0,.06,.32,.48,.45,.64,.31,.15-.14,.19-.51-.3-.6l-.1-.09Z"/><path d="M39.2,28.74s-.1,0-.16-.03c-.17-.06-.29-.19-.32-.35,.01-.06,.11-.04,.23-.02,.05,.01,.15,.03,.16,.01,0-.1-.04-.15-.08-.17h-.16s-.01-.18,.05-.22h0s.07,0,.07,0l.1,.09c.21,.04,.36,.14,.4,.29,.04,.14-.02,.27-.09,.34-.04,.04-.11,.06-.19,.06h0Zm-.41-.39s-.04,0-.04,.01c.03,.14,.14,.26,.3,.32,.12,.04,.25,.03,.31-.03,.07-.06,.12-.18,.09-.3-.04-.13-.17-.23-.37-.27l-.04,.08c.05,.03,.09,.08,.1,.13-.04,.11-.1,.1-.21,.08-.04,0-.11-.02-.15-.02h0Zm-3.05-.25l-.16-.67h0s0,0,0,0h0s1.04,.42,1.04,.42v.03s-1.04-.45-1.04-.45l.19,.67h-.03Zm.2-.03l-.25-.52,.27,.51h-.03Zm.43-.12l-.55-.3,.57,.27v.03h-.01Z"/><path class="cls-9" d="M34.97,26.93s-.37,0-.44,.02c-.03,.01,.1,.14,.07,.19-.09,.18-.73,.16-.78,.12-.09-.07,.59-.12,.6-.17,0-.05-.1-.19-.08-.28,.02-.11,.3-.15,.3-.15l.34,.28Z"/><path class="cls-8" d="M34.07,27.29c-.11,0-.23,0-.26-.03,0-.07,.1-.09,.34-.13,.11-.02,.24-.04,.25-.06-.06-.15-.1-.22-.09-.27,.02-.12,.28-.16,.31-.16l.36,.28c-.19,.02-.31,.03-.38,.03,.07-.04,.19-.04,.28-.04l-.27-.25c-.06,.01-.26,.06-.27,.14,0,.04,.02,.11,.05,.16,.02,.04,.04,.08,.04,.11,0,.03-.06,.04-.28,.08-.12,.02-.32,.06-.33,.08,.04,.02,.68,.05,.76-.11,.01-.02-.02-.08-.04-.11,0-.01,0-.02,.01-.03,.05,.07,.07,.12,.06,.15-.07,.14-.43,.15-.54,.15h0Z"/><path class="cls-16" d="M35.47,27.26l-.85-.7s-.04-.04-.07,0c-.03,.03,.01,.07,.01,.07l.87,.72,.03-.09Z"/><path d="M35.45,27.38l-.89-.74h0s.02-.11,.02-.11l.91,.73-.04,.12h0Zm-.83-.8l.82,.75,.02-.07-.85-.69h0Z"/><path class="cls-6" d="M36.29,27.96s-.69-.6-.69-.6l-.04-.17s-.1,.07-.14,.11c-.04,.04-.1,.14-.1,.14h.19s.6,.56,.6,.56l.19-.03Z"/><path d="M36.1,28l-.6-.55h-.18s.05-.13,.09-.17c.04-.04,.14-.11,.14-.11l.07,.18h0s.67,.58,.69,.59l-.2,.06h0Zm-.59-.58l.6,.55,.18-.03s-.7-.57-.7-.57l-.05-.17s-.09,.08-.12,.11c-.04,.04-.09,.13-.09,.13h.18Z"/><path class="cls-6" d="M40.05,27.15v.27c-.09,.03-.07,.1-.07,.2v.79c-.03,.05-.12,.06-.17,.1-.05,.04-.04,.12,.17,.17h.16c.25-.05,.3-.13,.17-.18-.07-.02-.15-.05-.19-.09v-.19s.17,0,.17,0c.04,0,.12-.11,.13-.2v-.41c0-.23-.18-.26-.23-.26v-.21s-.14,0-.14,0Zm.27,.45c0-.07-.09-.13-.13-.13-.04,0-.12,.08-.12,.14v.17c0,.06,.05,.27,.15,.28,.04,0,.11-.07,.11-.13v-.34Z"/><path d="M40.15,28.7h-.16c-.16-.05-.2-.1-.21-.13l.11-.12s.07-.03,.09-.05v-.79c0-.11-.01-.18,.08-.21v-.26s.15-.02,.15-.02v.23c.09-.02,.24,.04,.24,.26v.41c0,.09-.09,.21-.14,.21h-.16s0,.17,0,.17c.03,.02,.1,.05,.16,.07,.08,.03,.09,.06,.09,.08,0,.05-.09,.1-.25,.14h0Zm.04-1.55l-.13,.02,.02,.26c-.08,.04-.08,.08-.07,.16v.83s-.06,.06-.1,.07l-.09,.08s.03,.07,.18,.1h.16c.16-.03,.22-.08,.23-.1-.14-.08-.21-.1-.25-.14v-.2s.18,0,.18,0c.03,0,.11-.1,.11-.18v-.41c0-.24-.19-.24-.21-.24l-.02-.23h0Zm.04,.94h0c-.12-.02-.17-.25-.17-.3v-.17c0-.07,.09-.16,.14-.16h0s.15,.07,.15,.14v.34c0,.06-.05,.14-.11,.14h0Zm-.03-.61h0s-.11,.09-.11,.14v.17c0,.07,.06,.26,.14,.27h0c.05,0,.09-.07,.09-.11v-.34c0-.06-.09-.11-.12-.11v-.02h0Z"/><path class="cls-14" d="M41.56,19.59c-1.29-1.29-2.31-.66-2.55-.48,.16,.03,.3-.07,.38-.08-.04,.06-.14,.21-.14,.21,0,0,.4-.19,.44-.17-.06,.05-.12,.16-.12,.16,.03,.01,.25-.18,.3-.18-.07,.08-.09,.25-.09,.25l.2-.09c.05,.04-.02,.11,.03,.1,.32-.03,.78,.29,.84,.39l.72-.11Z"/><path d="M40.85,19.69c-.08-.07-.52-.41-.85-.37v-.04s0,.01,0,.01c.34-.03,.79,.29,.85,.4h0Zm.7-.09c-1.25-1.25-2.25-.69-2.53-.48,.1,0,.2-.05,.28-.08h.05c-.13,.07-.23,.1-.34,.08,.28-.24,1.3-.81,2.56,.46l-.02,.02h0Zm-1.77-.3s0-.16,.05-.25c-.03,.03-.07,.06-.11,.08-.11,.08-.14,.1-.16,.09,0-.03,.06-.13,.12-.18-.02,.02-.24,.11-.43,.2-.02-.02,.06-.14,.11-.21h.04c-.04,.06-.14,.2-.14,.2,.08-.07,.39-.21,.44-.19-.04,.05-.09,.13-.11,.16,.02-.03,.08-.07,.12-.1,.08-.06,.13-.09,.16-.09-.05,.1-.07,.27-.07,.27l.17-.11v.03s-.18,.09-.18,.09h0Z"/><path class="cls-14" d="M41.24,19.82c-.13-.31-2.59-.83-3.09,.04,.19,.05,.38-.16,.38-.16l-.02,.2,.33-.25-.12,.26,.26-.21v.21s.31-.35,.31-.35l-.04,.2,.29-.12-.03,.17,1.73,.02Z"/><path d="M38.73,19.92l.09-.28-.31,.27v-.2s-.19,.22-.37,.17c.26-.5,1.07-.53,1.52-.5,.72,.04,1.5,.26,1.58,.44h-.03c-.07-.15-.8-.37-1.56-.41-.45-.02-1.24,0-1.5,.47,.17,.02,.35-.18,.36-.18v.21s.31-.27,.31-.27l-.09,.28,.24-.23v.22s.31-.36,.31-.36l-.02,.22,.26-.14v.19s0-.18,0-.18l-.26,.14,.02-.22-.29,.36-.02-.22-.24,.22h0Z"/><path class="cls-14" d="M41.13,19.87c-.63-.42-1.61-.14-1.61-.14-.62,.35-.95,.29-1.03,.93,.06-.02,.23-.23,.23-.23l.12,.25,.04-.36,.1,.28,.15-.46,.04,.31,.23-.31,.11,.09,.1-.24,.09,.15s.16-.1,.25-.04l.18-.2,.04,.15,.15-.18,.06,.13,.15-.14v.1s.51,0,.51,0l.08-.11Z"/><path d="M38.86,20.69l-.15-.25s-.15,.21-.21,.23c.04-.51,.25-.6,.6-.76,.12-.05,.26-.12,.42-.21,.01,0,.99-.28,1.62,.14l-.02,.02c-.62-.41-1.59-.14-1.6-.14-.16,.09-.3,.15-.42,.21-.35,.16-.55,.24-.6,.72,.02-.03,.15-.18,.2-.24l.15,.25v-.35s.14,.27,.14,.27l.12-.45,.06,.31,.21-.32,.13,.09,.08-.23,.12,.15s.15-.1,.25-.04l.16-.2,.07,.15,.13-.18,.08,.13,.16-.17v.14s.49,0,.49,0l-.52,.02h-.02s.01-.11,.01-.11l-.13,.15-.08-.13-.13,.18-.07-.15-.15,.21c-.1-.05-.25,.04-.25,.04l-.11-.16-.08,.23-.13-.08-.21,.31-.06-.32-.12,.46-.13-.28v.35h-.01Z"/><path class="cls-14" d="M40.99,19.95c-.44,0-1.7,.47-2.03,.97,.13-.07,.21-.11,.21-.11l.06,.2,.08-.2,.02,.15c.05-.12,.1-.13,.19,0l.04-.19,.05,.18,.09-.19s.05,.21,.08,.2c0,0,.14-.36,.2-.38l.02,.23,.08-.23,.07,.17,.02-.24,.08,.19s.04-.18,.11-.22l.13,.11,.56-.4-.06-.23Z"/><path d="M39.25,21.01l-.09-.2s-.08,.05-.19,.11c.32-.53,1.57-.99,2.01-.99h.01v.03s0,0-.01,0c-.44,0-1.69,.47-2,.96,.11-.09,.19-.13,.19-.13l.08,.21,.05-.2,.04,.16c0-.07,.03-.11,.06-.11,.04,0,.08,.02,.13,.09v-.18s.09,.18,.09,.18l.06-.2c.05,.09,.08,.18,.1,.19,0-.05,.13-.36,.2-.38l.04,.24,.06-.23,.1,.17v-.24s.1,.17,.1,.17c-.01-.04,.03-.18,.09-.22l.14,.12,.54-.4-.54,.43-.15-.11s-.07,.16-.08,.21l-.11-.18v.24s-.09-.16-.09-.16l-.06,.23-.05-.23s-.11,.21-.17,.39c-.06-.01-.1-.16-.11-.2l-.06,.2-.08-.18v.18c-.08-.05-.12-.07-.13-.08-.02,0-.05,.03-.07,.09l-.04-.16-.05,.2h0Z"/><path class="cls-14" d="M41.07,20.05c-.59,.22-1.11,1.03-1.07,1.37,.26-.32,.2-.28,.32,.09,0,0,.04-.33,.09-.36l.08,.24,.03-.31h.08s-.02-.19-.02-.19l.12,.09c-.03-.11-.06-.15,.06-.25,0,0-.15,.02-.03-.26l.11,.11s-.02-.12,.02-.17l.41-.14-.2-.21Z"/><path d="M40.34,21.51l-.08-.15c-.02-.08-.04-.14-.05-.14h0s-.08,.07-.16,.17c0,0,0,0,0-.01,.1-.15,.13-.19,.17-.18,.03,0,.05,.06,.08,.16l.04,.15c-.02-.07,.02-.32,.07-.36l.1,.25v-.31l.06-.19,.03,.02h-.03s.04,.18,.04,.18l-.11,.31-.11-.24s-.04,.24-.06,.36h0Zm-.29-.31c.07-.37,.52-.97,1.02-1.16v.03c-.47,.19-.9,.75-1.02,1.13h0Zm.65-.52c-.04-.05-.03-.12,0-.22l.12,.09s-.02-.11,.01-.15l.42-.15-.4,.17s-.01,.12,0,.15l-.14-.1c-.03,.12-.02,.17-.01,.2h0Z"/><path class="cls-14" d="M41.13,20.11l-.22,.42,.11,.03-.26,.19,.22-.02s-.33,.12-.37,.44l.33-.15s-.28,.29-.32,.46l.19-.17s-.19,.2-.16,.51l.14-.16c-.04,.37-.02,.41,.15,.69,0,0-.04-.44,0-.49l.37,.39-.21-.55s.23,.35,.37,.32l-.29-.45,.29,.24-.33-.49,.31,.09s-.22-.28-.21-.45l.21,.23s-.08-.26-.06-.34l.11,.02-.21-.24,.14-.03-.02-.16,.1-.03v-.17s-.41-.13-.41-.13Z"/><path d="M40.96,22.36c-.2-.28-.21-.31-.18-.69l-.12,.17c-.05-.3,.11-.49,.13-.53h0s-.16,.22-.14,.51l.12-.17c0,.38,0,.41,.17,.69-.04-.06-.07-.44-.02-.5l.4,.39-.23-.54c.09,.08,.27,.33,.38,.3l-.3-.43,.31,.22-.35-.47,.32,.07s-.23-.27-.22-.44l.23,.21s-.09-.25-.07-.32h.12s-.22-.2-.22-.2l.15-.05-.03-.14,.11-.05-.02-.16,.04,.17-.11,.05,.03,.14-.15,.04,.22,.22h-.12c0,.05,.05,.25,.07,.32l-.24-.21c0,.16,.23,.43,.23,.43l-.32-.07,.34,.47-.31-.22,.32,.43c-.17,.06-.39-.29-.4-.3l.24,.54-.4-.37s0,.31,.02,.48h0Zm0-.48c.07-.18,.08-.42,.1-.67,.03-.33,.05-.71,.26-.99l.02,.02c-.2,.28-.23,.65-.26,.98-.02,.25-.04,.5-.13,.67h0Zm-.34-.38c.02-.19,.29-.47,.3-.49l-.32,.17c.02-.34,.35-.47,.36-.47h0s-.31,.15-.35,.46l.31-.16s-.26,.31-.3,.48l.16-.18-.17,.18h0Zm.13-.73l.25-.22h-.11s.21-.45,.21-.45h.03s-.22,.44-.22,.44h.1s-.25,.23-.25,.23l.2-.05-.2,.05h0Z"/><path class="cls-6" d="M39.34,28.92c0-.05-.13-.03-.13-.09,0-.07,.2-.02,.22,.04,.11-.1,.16-.03,.22,0,.1-.14,.21-.14,.33-.03,.07-.07,.23-.05,.29,.03,.11-.11,.21-.08,.29,0,.03-.06,.08-.04,.11,0,.06-.1,.21-.07,.27,0,.05-.06,.11-.01,.19,.03,.05-.05,.13-.04,.13,0,0,.05-.1,.03-.1,.08,0,.04,.08,.02,.08,.08,0,.04-.11,.06-.13,0-.04,.07-.18,.04-.19-.02-.04,.06-.15,.07-.21,0-.05,.04-.1,.04-.13,0-.09,.09-.23,.07-.28-.03h-.05c-.08,.12-.22,.06-.25,0-.14,.1-.23,.07-.31,0-.09,.11-.23,.1-.26,0-.06,.04-.19,.05-.19,0,0-.05,.11-.03,.11-.08h0Zm.28,.02s-.03,.04-.07,.04-.07-.02-.07-.04,.03-.04,.07-.04,.07,.02,.07,.04h0Zm.3-.04s-.04,.05-.09,.05-.09-.02-.09-.05,.04-.05,.09-.05,.09,.02,.09,.05h0Zm.59,.03s-.04,.05-.08,.05-.08-.02-.08-.05,.04-.05,.08-.05,.08,.02,.08,.05h0Zm-.32-.01s-.03,.07-.08,.07-.08-.03-.08-.07,.04-.07,.08-.07,.08,.03,.08,.07h0Zm.68,0s-.03,.06-.07,.06c-.04,0-.07-.03-.07-.06s.03-.06,.07-.06,.07,.03,.07,.06h0Zm-.21,.01s-.02,.04-.04,.04c-.02,0-.04-.02-.04-.04s.02-.04,.04-.04c.03,0,.04,.02,.04,.04h0Zm.4,.02s-.02,.06-.05,.06-.05-.02-.05-.06,.02-.05,.05-.05,.05,.02,.05,.05h0Z"/><path d="M40.44,29.09c-.06,0-.12-.03-.15-.08,.13,.07,.21,.07,.28,0h.01s.14,0,.14,0c.02,.03,.06,.05,.09,.05l.02-.02h.1s.05,.04,.09,.04c-.07,.02-.11,0-.12-.05,0,.08-.15,.08-.2,0h-.12s.01,0,.01,0c-.04,.04-.09,.06-.14,.06h0Zm-.9,0c-.06,0-.11-.03-.13-.09,0,.03-.06,.05-.11,.05v-.04c.06,0,.09,0,.12-.02,.08,.1,.18,.09,.26,0,.15,.08,.2,.07,.31,0,.06,.05,.15,.14,.25,0,.01,0,.03,.01,.04,.02-.18,.17-.26,.05-.29,0-.1,.11-.24,.06-.3,0-.02,.05-.08,.08-.14,.08h0Zm-.25-.12v-.03c-.05-.06-.09-.07-.09-.11,.13-.05,.23-.01,.25,.04,.02-.04,.05-.06,.09-.06l.12,.07h-.01c.09-.15,.22-.16,.35-.04,.02-.07,.23-.05,.29,.04,.06-.11,.19-.1,.29,0,.21-.09,.28-.09,.37-.02-.12-.02-.2-.07-.26,.03v.02s-.13-.01-.13-.01c-.09-.09-.17-.09-.27,0-.09-.08-.23-.09-.29-.03-.16-.1-.24-.1-.33,.03l-.13-.05s-.06,.02-.09,.05c-.04-.04-.12-.07-.18-.07l.09,.11-.07,.05h0Z"/><polygon class="cls-6" points="42.91 24.35 43.33 23.45 43.15 23.41 42.39 24.91 42.91 24.35"/><path d="M42.33,25l.81-1.59,.2,.03-.41,.92-.6,.64h0Zm.82-1.57l-.7,1.4,.46-.48,.42-.9-.17-.02h0Z"/><polygon class="cls-4" points="43.88 22.39 43.42 23.66 43.18 23.66 43.88 22.39"/><path d="M43.43,23.68h-.25l.69-1.29-.44,1.29h0Zm.44-1.29l-.68,1.28,.21-.02,.46-1.26h0Z"/><polygon class="cls-6" points="42.48 23.18 42.24 23.18 41.82 24.96 41.91 25.53 42.48 23.18"/><path d="M41.91,25.6l-.1-.64,.42-1.79h.25s-.57,2.43-.57,2.43h0Zm.55-2.43h-.22s-.41,1.79-.41,1.79l.08,.48,.55-2.27h0Z"/><polygon class="cls-6" points="42.28 25.03 42.99 23.11 42.73 23.09 41.89 25.44 42.28 25.03"/><path d="M41.85,25.5l.86-2.41h.28s-.7,1.95-.7,1.95l-.44,.47h0Zm1.12-2.4h-.25s-.8,2.27-.8,2.27l.34-.36,.71-1.91h0Z"/><polygon class="cls-4" points="43.33 22.01 43.03 23.35 42.79 23.35 43.33 22.01"/><path d="M43.04,23.36h-.25l.52-1.36-.27,1.36h0Zm.27-1.35l-.5,1.34,.21-.02,.29-1.32h0Z"/><polygon class="cls-4" points="42.72 21.99 42.56 23.37 42.39 23.36 42.72 21.99"/><path d="M42.58,23.38h-.18s.31-1.4,.31-1.4l-.13,1.4h0Zm.13-1.39l-.3,1.37h.14s.16-1.37,.16-1.37h0Z"/><path class="cls-12" d="M42.86,24.49l1.9-2.08c.59,.47,.48,1.33,.48,1.33l-2.15,1.69-.23-.95Z"/><path d="M43.08,25.46l-.24-.97,1.91-2.09c.61,.47,.51,1.34,.51,1.35l-2.18,1.72h0Zm1.67-3.04l-1.88,2.07,.23,.91,2.14-1.68h0s.1-.85-.48-1.31h0Z"/><path class="cls-9" d="M41.76,25.63l1.41-1.43c.6,.02,.12,.91,.09,1.02l-1.51,1.29v-.88Z"/><path d="M41.74,26.54v-.91l1.42-1.44h0c.14,0,.22,.04,.27,.12,.14,.21-.04,.63-.12,.83l-.04,.1-1.53,1.31h0Zm1.43-2.33l-1.4,1.42v.84s1.49-1.27,1.49-1.27c0,0,.01-.04,.03-.09,.08-.19,.25-.6,.12-.8-.04-.07-.13-.11-.24-.11h0Z"/><polygon class="cls-6" points="41.88 25.39 44.79 22.26 44.91 22.34 41.82 25.77 41.88 25.39"/><path d="M41.8,25.82l.06-.44,2.92-3.13,.13,.08-3.12,3.49h0Zm2.99-3.55l-2.9,3.12-.05,.33,3.06-3.39-.11-.06h0Z"/><polygon class="cls-6" points="44.96 22.06 45.03 21.99 45.02 21.84 45.62 21.46 45.35 22.06 45.15 22.1 45.09 22.17 44.96 22.06"/><path d="M45.08,22.18l-.13-.12,.07-.09v-.14s.6-.4,.6-.4l-.25,.62-.29,.12h0Zm.53-.73l-.58,.4v.14s-.05,.08-.05,.08l.11,.08,.05-.06,.21-.04,.26-.6h0Z"/><path class="cls-6" d="M45.27,22.28c-.1-.12-.22-.25-.44-.36l-.17,.24,.36,.3,.25-.18Z"/><path d="M45.02,22.48l-.37-.31,.16-.26c.24,.12,.37,.24,.47,.36l-.26,.21h0Zm-.2-.55l-.15,.24,.35,.28,.24-.17c-.12-.11-.24-.23-.44-.34h0Z"/><path class="cls-12" d="M43.69,25.04l2.39-1.9c.41,.42,.07,1.7,.07,1.7l-2.34,1.27-.12-1.07Z"/><path d="M43.8,26.13l-.12-1.09,2.4-1.91c.43,.42,.11,1.66,.09,1.72l-2.36,1.29h0Zm2.27-2.98l-2.37,1.9,.12,1.03,2.32-1.26s.33-1.27-.07-1.68h0Z"/><path class="cls-9" d="M41.71,26.58l1.97-1.58c.67,.09,.14,1.08,.1,1.19l-2.08,1.13v-.74Z"/><path d="M41.68,27.34v-.77s1.98-1.59,1.98-1.59c.16,.02,.26,.08,.31,.18,.15,.28-.07,.78-.16,.97l-.04,.02c.1-.22,.32-.72,.17-.98-.05-.09-.14-.15-.28-.17l-1.96,1.57v.71s1.57-.85,1.57-.85l-1.6,.9h0Z"/><polygon class="cls-6" points="41.78 26.26 46.04 23.07 46.13 23.17 41.67 26.65 41.78 26.26"/><path d="M41.64,26.69l.13-.44,4.26-3.2,.12,.1-4.5,3.54h0Zm4.38-3.61l-4.23,3.19-.1,.34,4.43-3.46-.1-.08h0Z"/><polygon class="cls-6" points="46.24 22.9 46.31 22.84 46.33 22.69 47 22.41 46.62 22.96 46.41 22.97 46.34 23.03 46.24 22.9"/><path d="M46.33,23.04l-.11-.14,.09-.07v-.14s.68-.29,.68-.29l-.35,.57-.31,.07h0Zm.66-.63l-.64,.3v.14s-.09,.07-.09,.07l.09,.1,.07-.05h.22s.36-.55,.36-.55h0Z"/><path class="cls-6" d="M46.5,23.17c-.08-.14-.18-.28-.37-.43l-.21,.21,.3,.36,.28-.13Z"/><path d="M46.22,23.32l-.31-.37,.21-.23c.22,.16,.32,.3,.39,.44l-.29,.16h0Zm-.1-.58l-.19,.21,.29,.33,.27-.13c-.08-.11-.17-.25-.37-.41h0Z"/><path class="cls-12" d="M43.86,26.2s3.08-1.74,3.08-1.74c.22,.37,.02,.92-.08,1,0,.25,.1,.38-.12,.91-.06,.34-.22,.65-.45,.84-.28,1.07-1.37,1.14-1.79,.27l-.65-1.28Z"/><path d="M45.36,28.09c-.36,0-.68-.23-.87-.6l-.65-1.28c.06-.04,2.04-1.16,3.09-1.76,.25,.4,.04,.95-.06,1.03,0,.05,0,.11,.02,.16,.02,.17,.04,.34-.13,.74-.07,.35-.23,.66-.45,.84-.16,.64-.6,.87-.95,.87h0Zm1.57-3.62c-.49,.29-3.03,1.74-3.06,1.74l.66,1.26c.18,.37,.49,.59,.84,.59s.76-.22,.92-.86c.22-.18,.38-.48,.45-.83,.16-.39,.14-.56,.13-.72,0-.06-.01-.11,0-.18,.09-.09,.3-.62,.08-.99h0Z"/><path class="cls-9" d="M41.84,27.34l2.09-1.22c.67,.09-.02,1.34-.05,1.45l-2.02,.72-.02-.94Z"/><path d="M41.84,28.3l-.02-.96,2.09-1.24c.13,.02,.22,.07,.27,.16,.17,.31-.14,.98-.26,1.23l-.05,.09-2.04,.72h0Zm2.08-2.17l-2.08,1.22,.02,.91,2-.71c.15-.32,.45-.97,.29-1.27-.04-.08-.12-.13-.23-.15h0Z"/><polygon class="cls-6" points="42.19 26.9 46.91 24.39 46.99 24.5 42.01 27.27 42.19 26.9"/><path d="M41.98,27.31l.2-.41,4.72-2.52,.1,.12-5.02,2.81h0Zm4.92-2.91l-4.7,2.52-.15,.32,4.94-2.75-.09-.09h0Z"/><polygon class="cls-6" points="47.14 24.25 47.22 24.2 47.27 24.06 47.96 23.89 47.51 24.37 47.3 24.34 47.21 24.39 47.14 24.25"/><path d="M47.2,24.4l-.08-.15,.1-.06,.04-.13,.71-.18-.44,.51-.22-.02-.1,.04h0Zm.75-.53l-.68,.2-.04,.14-.09,.05,.07,.11,.07-.04,.22,.03,.45-.48h0Z"/><path class="cls-6" d="M47.35,24.56c-.05-.15-.13-.3-.29-.48l-.24,.17,.24,.4,.3-.09Z"/><path d="M47.05,24.67l-.24-.41,.24-.19c.19,.19,.27,.35,.32,.49l-.32,.11h0Zm0-.58l-.22,.18,.23,.37,.29-.09c-.06-.12-.13-.28-.3-.46h0Z"/><path class="cls-12" d="M45.59,22.81l-.1,.17c-.06-.02-.67-.58-.67-.58h-.44s-.12-.15-.12-.15c.32-.35,.62,.05,.62,.05l.71,.51Z"/><path class="cls-11" d="M45.5,23h-.01c-.06-.03-.61-.53-.68-.58h-.43s-.14-.15-.14-.15c.27-.34,.64,.02,.65,.03l.71,.5-.1,.2h0Zm-.96-.87c-.09,0-.18,.05-.27,.14l.12,.12h.43c.24,.22,.59,.53,.67,.58l.09-.16-.7-.49s-.15-.19-.33-.19h0Z"/><path class="cls-9" d="M45.24,23.1c-.02-.15-.31-.53-.35-.55-.22,.06-.42,.19-.64-.31,.19,.24,.58,0,.58,0l.17,.14v.07s.5,.47,.5,.47l-.26,.18Z"/><path class="cls-8" d="M45.23,23.12v-.02c-.02-.13-.21-.39-.3-.49,.13,.1,.29,.34,.33,.47l.24-.17-.67-.65s-.42,.2-.58,0c.28,.51,.42,.36,.58,.3,0,0,.03,0,.05,.01-.37,.13-.47,.06-.63-.32,.22,.14,.58-.02,.58-.02l.19,.14,.5,.54-.28,.22h0Z"/><path class="cls-12" d="M46.74,23.7l-.03,.18c-.06-.03-.59-.62-.59-.62l-.43-.08-.09-.14c.3-.35,.62,.12,.62,.12l.52,.54Z"/><path class="cls-11" d="M46.72,23.9h-.02c-.06-.04-.54-.57-.6-.63l-.42-.08-.1-.14c.26-.36,.63,.09,.64,.1l.52,.54-.02,.21h0Zm-.88-.98c-.08,0-.16,.04-.23,.13l.09,.12,.42,.07c.2,.22,.5,.53,.58,.61l.02-.15-.51-.53s-.17-.24-.37-.24h0Z"/><path class="cls-9" d="M46.4,24.02c.02-.16-.2-.64-.24-.66-.26,.08-.48,.19-.58-.34,.15,.27,.58,.06,.58,.06l.14,.16-.02,.09,.43,.56-.31,.13Z"/><path class="cls-8" d="M46.38,24.04v-.03c.02-.12-.11-.43-.18-.57,.11,.14,.22,.42,.22,.55l.29-.12-.44-.54,.02-.1-.14-.15s-.46,.15-.58-.06c.15,.56,.33,.4,.53,.34,.01,0,.03,0,.04,.02-.4,.14-.49,.06-.57-.36,.17,.17,.58,.05,.58,.04l.17,.17-.02,.1,.43,.55-.34,.17h0Z"/><path class="cls-12" d="M47.54,25.12l-.1,.19c-.05-.04-.5-.76-.5-.76l-.41-.14-.08-.17c.33-.31,.58,.22,.58,.22l.51,.65Z"/><path class="cls-11" d="M47.45,25.34h-.01c-.05-.05-.46-.7-.5-.78l-.41-.13-.09-.18c.31-.34,.6,.19,.61,.21l.51,.65-.1,.23h0Zm-.79-1.17c-.07,0-.13,.03-.2,.09l.08,.15,.41,.13c.17,.27,.42,.67,.49,.75l.09-.18-.51-.63s-.15-.31-.36-.31h0Z"/><path class="cls-9" d="M47.1,25.4c.03-.17-.08-.7-.12-.72-.26,.08-.48,.1-.54-.44,.15,.25,.55,.16,.55,.16l.12,.18-.02,.06,.34,.66-.34,.1Z"/><path class="cls-8" d="M47.08,25.42v-.02c.04-.17-.08-.68-.11-.71-.06,.02-.14,.04-.21,.04-.19,0-.3-.15-.33-.49,.19,.23,.56,.14,.56,.14l.13,.19,.32,.72-.37,.13h0Zm-.1-.76c.06,.03,.16,.53,.14,.72l.31-.09-.44-.88s-.41,.09-.55-.16c.11,.63,.35,.47,.54,.41h0Z"/><polygon class="cls-6" points="42.23 28.05 43.4 27.69 43.91 26.81 45.72 26.73 45.66 27.38 44.12 27.68 43.97 27.94 42.2 28.43 42.23 28.05"/><path d="M42.18,28.45l.03-.4,1.18-.38,.51-.87,1.82-.1-.05,.67-1.55,.31-.14,.26-1.8,.51h0Zm3.53-1.73l-1.79,.11-.5,.87-1.18,.37-.02,.35,1.76-.49,.14-.26,1.55-.3,.05-.64h0Z"/><polygon class="cls-16" points="43.45 28.3 45.31 25.57 45.4 25.64 43.56 28.38 43.45 28.3"/><path d="M43.56,28.4l-.12-.09,1.85-2.75,.11,.07-1.84,2.77h0Zm1.74-2.82l-1.83,2.73,.09,.05,1.83-2.73-.09-.05h0Z"/><path class="cls-4" d="M45.13,25.68l.2-.33c.04-.06,.09-.08,.18-.04,.08,.04,.07,.13,.04,.19l-.18,.31-.23-.13Z"/><path d="M45.37,25.82l-.25-.13,.19-.35s.06-.07,.11-.07c.12,.04,.14,.07,.15,.1,.01,.04,0,.09-.02,.13l-.19,.32h0Zm.06-.52l-.28,.39,.21,.1,.17-.3s.03-.08,.02-.11l-.12-.08h0Z"/><polygon class="cls-6" points="43.23 26.61 46.98 26.23 47.07 26.78 43.34 27.15 43.23 26.61"/><path d="M43.33,27.17l-.11-.55,3.76-.4,.11,.56-3.75,.39h0Zm3.63-.93l-3.73,.39,.12,.51,3.71-.37-.1-.53h0Z"/><polygon class="cls-6" points="47.04 26.09 47.14 26.85 46.98 26.85 46.87 26.16 47.04 26.09"/><polygon points="47.16 26.86 46.98 26.86 46.86 26.16 47.04 26.08 47.16 26.86 47.16 26.86"/><polygon class="cls-6" points="46.42 26.21 46.46 26.89 46.36 26.9 46.29 26.3 46.42 26.21"/><polygon points="46.35 26.92 46.27 26.3 46.41 26.2 46.48 26.91 46.35 26.92 46.35 26.92"/><polygon class="cls-6" points="43.88 26.51 43.97 27.14 43.79 27.14 43.72 26.51 43.88 26.51"/><polygon points="43.99 27.16 43.79 27.15 43.7 26.51 43.88 26.49 43.99 27.16 43.99 27.16"/><path class="cls-6" d="M43.32,26.52l.13,.74-.21,.03-.06-.39c-.02,.08-.09,.14-.17,.14-.1,0-.18-.08-.18-.17s.08-.17,.18-.17c.07,0,.13,.04,.16,.11l-.04-.28h.19Z"/><path d="M43.24,27.31l-.06-.4c.02,.19-.35,.15-.35-.04,0-.18,.3-.24,.36-.06l-.07-.27,.21-.03,.15,.75-.23,.05h0Zm-.06-.41l.08,.37,.19-.03-.14-.72-.18,.02,.05,.26c-.13-.14-.33-.09-.33,.06,0,.16,.29,.19,.32,.03h0Z"/><polygon class="cls-6" points="44.68 26.64 45.19 27.22 45.13 27.29 44.47 26.84 44.68 26.64"/><path d="M45.13,27.31l-.67-.46,.21-.22,.54,.59-.08,.09h0Zm-.47-.66l-.19,.2,.65,.42,.05-.06-.51-.56h0Z"/><polygon class="cls-6" points="45.87 28.09 45.36 27.51 45.42 27.44 46.08 27.89 45.87 28.09"/><path d="M45.87,28.11l-.53-.6,.07-.08,.68,.45-.22,.23h0Zm-.46-.66l.46,.61,.19-.19-.66-.43h0Z"/><polygon class="cls-6" points="44.53 27.94 45.15 27.46 45.22 27.5 44.72 28.13 44.53 27.94"/><path d="M44.72,28.15l-.21-.2,.63-.51,.08,.07-.5,.64h0Zm.48-.66l-.67,.46,.19,.15,.48-.61h0Z"/><polygon class="cls-6" points="46.07 26.83 45.43 27.29 45.36 27.24 45.86 26.61 46.07 26.83"/><path d="M45.43,27.31l-.08-.06,.5-.65,.24,.21-.65,.5h0Zm.41-.69l-.48,.62,.06,.05h0s.63-.48,.63-.48l-.21-.19h0Z"/><polygon class="cls-6" points="45.38 26.44 45.32 27.2 45.23 27.2 45.03 26.46 45.38 26.44"/><path d="M45.33,27.22h-.1s-.21-.76-.21-.76l.36-.04-.05,.79h0Zm.03-.78l-.33,.03,.21,.72h.06s.06-.75,.06-.75h0Z"/><polygon class="cls-6" points="45.17 28.29 45.23 27.53 45.32 27.52 45.44 28.29 45.17 28.29"/><path d="M45.46,28.3h-.29l.05-.79h.11s.13,.79,.13,.79h0Zm-.15-.78l-.12,.77h.24s-.11-.77-.11-.77h0Z"/><polygon class="cls-6" points="44.33 27.26 45.13 27.35 45.14 27.42 44.33 27.53 44.33 27.26"/><path d="M44.32,27.54v-.28s.81,.09,.81,.09v.09s-.81,.11-.81,.11h0Zm0-.27l.02,.24,.79-.1-.81-.13h0Z"/><polygon class="cls-6" points="46.23 27.52 45.45 27.4 45.43 27.34 46.24 27.25 46.23 27.52"/><polygon points="46.24 27.54 45.45 27.42 45.58 27.38 46.21 27.51 46.22 27.25 46.1 27.27 46.23 27.24 46.24 27.54 46.24 27.54"/><path class="cls-6" d="M45.07,27.35c0,.11,.1,.2,.21,.2s.21-.09,.21-.2-.1-.2-.21-.2-.21,.09-.21,.2h0Z"/><path d="M45.28,27.57c-.13,0-.23-.1-.23-.22,0-.24,.45-.24,.45,0,0,.12-.1,.22-.23,.22h0Zm0-.41c-.11,0-.2,.08-.2,.19,0,.21,.39,.21,.39,0,0-.1-.09-.19-.2-.19h0Z"/><path class="cls-6" d="M44.16,27.35c0,.6,.5,1.08,1.12,1.08s1.12-.49,1.12-1.08-.5-1.08-1.12-1.08-1.12,.48-1.12,1.08h0Zm.22,0c0,.48,.4,.87,.9,.87s.9-.39,.9-.87-.4-.87-.9-.87-.9,.39-.9,.87h0Z"/><path d="M45.28,28.45c-.63,0-1.14-.49-1.14-1.1s.51-1.1,1.14-1.1,1.14,.49,1.14,1.1-.51,1.1-1.14,1.1h0Zm0-2.17c-.61,0-1.11,.48-1.11,1.07s.5,1.07,1.11,1.07,1.11-.48,1.11-1.07-.5-1.07-1.11-1.07h0Zm0,1.95c-.5,0-.91-.4-.91-.88s.41-.88,.91-.88,.91,.4,.91,.88-.41,.88-.91,.88h0Zm0-1.73c-.49,0-.88,.38-.88,.85s.4,.85,.88,.85,.88-.38,.88-.85-.4-.85-.88-.85h0Z"/><path class="cls-1" d="M45.98,26.8l.18-.13-.18,.13Zm-1.26-.13l-.15-.15,.15,.15Zm-.32,1.37l.19-.15-.19,.15Zm1.58,.17l-.16-.17,.16,.17Z"/><polygon class="cls-6" points="42.2 26.28 42.01 27.26 42.16 27.34 42.33 26.29 42.2 26.28"/><path d="M42.18,27.36l-.17-.09,.19-1h.15s-.16,1.09-.16,1.09h0Zm.14-1.07h-.12s-.18,.97-.18,.97l.13,.06,.17-1.03h0Z"/><path class="cls-4" d="M42.3,26.15c.09-.04,.21,.03,.39-.21,.31,.29,.02,.33-.03,.61-.09,.04-.14-.22-.38-.25-.03,0-.38-.03-.38-.03l.09-.12s.25,0,.31,0h0Z"/><path d="M42.65,26.57s-.07-.04-.11-.08c-.05-.07-.13-.15-.26-.17l-.38-.03,.08-.14,.4-.02c.08,0,.17-.02,.31-.19,.24,.19,.17,.29,.1,.4-.04,.06-.08,.13-.1,.22l-.03,.02h0Zm-.66-.4l-.08,.11h.37c.14,.03,.22,.12,.28,.19,.03,.04,.06,.07,.08,.07h0s.01,0,.01,0c0-.09,.05-.16,.1-.22,.08-.11,.12-.19-.07-.37-.12,.18-.22,.19-.31,.2l-.15,.02h-.24Z"/><path class="cls-4" d="M42.17,26.34l.04-.29c.04-.1,.17-.01,.17,.05l-.03,.27-.17-.02Z"/><path d="M42.35,26.38l-.18-.02,.02-.31s.05-.02,.07-.02l-.08,.32h.14s.03-.25,.03-.25c0-.02-.03-.06-.07-.07h0c.06,0,.09,.04,.09,.07l-.04,.29h0Z"/><path class="cls-6" d="M44.35,28.76s.02,.08,.06,.1c.04,.02,.08,.02,.12,0,.04-.02,.06-.06,.06-.1s-.02-.08-.06-.1c-.04-.02-.09-.02-.12,0-.04,.02-.06,.06-.06,.1h0Z"/><path class="cls-1" d="M44.35,28.76s.02,.08,.06,.1c.04,.02,.08,.02,.12,0,.04-.02,.06-.06,.06-.1s-.02-.08-.06-.1c-.04-.02-.09-.02-.12,0-.04,.02-.06,.06-.06,.1Z"/><path class="cls-6" d="M44.66,28.54s.02,.08,.06,.1c.04,.02,.08,.02,.12,0,.04-.02,.06-.06,.06-.1s-.02-.08-.06-.1c-.04-.02-.09-.02-.12,0-.04,.02-.06,.06-.06,.1h0Z"/><path class="cls-1" d="M44.66,28.54s.02,.08,.06,.1c.04,.02,.08,.02,.12,0,.04-.02,.06-.06,.06-.1s-.02-.08-.06-.1c-.04-.02-.09-.02-.12,0-.04,.02-.06,.06-.06,.1Z"/><path class="cls-6" d="M45.09,28.69s.02,.08,.06,.1c.04,.02,.09,.02,.12,0,.04-.02,.06-.06,.06-.1s-.02-.08-.06-.1c-.04-.02-.08-.02-.12,0-.04,.02-.06,.06-.06,.1h0Z"/><path class="cls-1" d="M45.09,28.69s.02,.08,.06,.1c.04,.02,.09,.02,.12,0,.04-.02,.06-.06,.06-.1s-.02-.08-.06-.1c-.04-.02-.08-.02-.12,0-.04,.02-.06,.06-.06,.1Z"/><path class="cls-6" d="M45.74,28.83s.02,.08,.06,.1c.04,.02,.09,.02,.12,0,.04-.02,.06-.06,.06-.1s-.02-.08-.06-.1c-.04-.02-.09-.02-.12,0-.04,.02-.06,.06-.06,.1h0Z"/><path class="cls-1" d="M45.74,28.83s.02,.08,.06,.1c.04,.02,.09,.02,.12,0,.04-.02,.06-.06,.06-.1s-.02-.08-.06-.1c-.04-.02-.09-.02-.12,0-.04,.02-.06,.06-.06,.1Z"/><path class="cls-6" d="M46.02,28.86s.02,.08,.06,.1c.04,.02,.09,.02,.12,0,.04-.02,.06-.06,.06-.1s-.02-.08-.06-.1c-.04-.02-.08-.02-.12,0-.04,.02-.06,.06-.06,.1h0Z"/><path class="cls-1" d="M46.02,28.86s.02,.08,.06,.1c.04,.02,.09,.02,.12,0,.04-.02,.06-.06,.06-.1s-.02-.08-.06-.1c-.04-.02-.08-.02-.12,0-.04,.02-.06,.06-.06,.1Z"/><path class="cls-6" d="M46.29,28.86s.02,.08,.06,.1c.04,.02,.09,.02,.12,0,.04-.02,.06-.06,.06-.1s-.02-.08-.06-.1c-.04-.02-.08-.02-.12,0-.04,.02-.06,.06-.06,.1h0Z"/><path class="cls-1" d="M46.29,28.86s.02,.08,.06,.1c.04,.02,.09,.02,.12,0,.04-.02,.06-.06,.06-.1s-.02-.08-.06-.1c-.04-.02-.08-.02-.12,0-.04,.02-.06,.06-.06,.1Z"/><path class="cls-6" d="M46.57,28.85s.02,.08,.06,.1c.04,.02,.09,.02,.12,0,.04-.02,.06-.06,.06-.1s-.02-.08-.06-.1c-.04-.02-.08-.02-.12,0-.04,.02-.06,.06-.06,.1h0Z"/><path class="cls-1" d="M46.57,28.85s.02,.08,.06,.1c.04,.02,.09,.02,.12,0,.04-.02,.06-.06,.06-.1s-.02-.08-.06-.1c-.04-.02-.08-.02-.12,0-.04,.02-.06,.06-.06,.1Z"/><path class="cls-6" d="M46.44,28.64s.02,.08,.06,.1c.04,.02,.09,.02,.12,0,.04-.02,.06-.06,.06-.1s-.02-.08-.06-.1c-.04-.02-.08-.02-.12,0-.04,.02-.06,.06-.06,.1h0Z"/><path class="cls-1" d="M46.44,28.64s.02,.08,.06,.1c.04,.02,.09,.02,.12,0,.04-.02,.06-.06,.06-.1s-.02-.08-.06-.1c-.04-.02-.08-.02-.12,0-.04,.02-.06,.06-.06,.1Z"/><path class="cls-6" d="M46.17,28.65s.02,.08,.06,.1c.04,.02,.08,.02,.12,0,.04-.02,.06-.06,.06-.1s-.02-.08-.06-.1c-.04-.02-.09-.02-.12,0-.04,.02-.06,.06-.06,.1h0Z"/><path class="cls-1" d="M46.17,28.65s.02,.08,.06,.1c.04,.02,.08,.02,.12,0,.04-.02,.06-.06,.06-.1s-.02-.08-.06-.1c-.04-.02-.09-.02-.12,0-.04,.02-.06,.06-.06,.1Z"/><path class="cls-6" d="M45.91,28.62s.02,.08,.06,.1c.04,.02,.09,.02,.12,0,.04-.02,.06-.06,.06-.1s-.02-.08-.06-.1c-.04-.02-.09-.02-.12,0-.04,.02-.06,.06-.06,.1h0Z"/><path class="cls-1" d="M45.91,28.62s.02,.08,.06,.1c.04,.02,.09,.02,.12,0,.04-.02,.06-.06,.06-.1s-.02-.08-.06-.1c-.04-.02-.09-.02-.12,0-.04,.02-.06,.06-.06,.1Z"/><path class="cls-6" d="M46.04,28.41s.02,.08,.06,.1c.04,.02,.09,.02,.12,0,.04-.02,.06-.06,.06-.1s-.02-.08-.06-.1c-.04-.02-.08-.02-.12,0-.04,.02-.06,.06-.06,.1h0Z"/><path class="cls-1" d="M46.04,28.41s.02,.08,.06,.1c.04,.02,.09,.02,.12,0,.04-.02,.06-.06,.06-.1s-.02-.08-.06-.1c-.04-.02-.08-.02-.12,0-.04,.02-.06,.06-.06,.1Z"/><path class="cls-6" d="M46.29,28.41s.02,.08,.06,.1c.04,.02,.09,.02,.12,0,.04-.02,.06-.06,.06-.1s-.02-.08-.06-.1c-.04-.02-.08-.02-.12,0-.04,.02-.06,.06-.06,.1h0Z"/><path class="cls-1" d="M46.29,28.41s.02,.08,.06,.1c.04,.02,.09,.02,.12,0,.04-.02,.06-.06,.06-.1s-.02-.08-.06-.1c-.04-.02-.08-.02-.12,0-.04,.02-.06,.06-.06,.1Z"/><path class="cls-4" d="M44.18,27.98c.11-.04,.1,.2,.1,.2h-.17c-.07,.03-.13,.14-.09,.19,.04,.04,.36-.07,.38,0-.06,.32-.48,.45-.64,.31-.15-.14-.19-.51,.3-.6l.1-.09Z"/><path d="M43.96,28.74c-.08,0-.14-.02-.19-.06-.07-.07-.13-.2-.09-.34,.04-.15,.18-.25,.4-.29l.11-.09h.06c.06,.05,.06,.2,.06,.21l-.18,.02s-.07,.06-.08,.11c.02,.07,.11,.05,.17,.04,.11-.02,.21-.04,.23,.01-.03,.17-.15,.3-.32,.36-.05,.02-.11,.03-.16,.03h0Zm.12-.66c-.21,.05-.33,.14-.37,.27-.04,.12,.02,.25,.08,.31,.07,.06,.19,.07,.32,.03,.16-.06,.27-.18,.3-.33,0-.02-.13,0-.19,.02-.11,.02-.16,.03-.19,0,0-.14,.04-.19,.09-.22h.03s-.07-.08-.07-.08h0Zm2.47-.2v-.03s1.02-.45,1.02-.45l-1.02,.47h0Z"/><path class="cls-9" d="M48.19,26.93s.37,0,.44,.02c.03,.01-.09,.14-.07,.19,.09,.18,.73,.16,.78,.12,.09-.07-.59-.12-.6-.17,0-.05,.1-.19,.08-.28-.02-.11-.3-.15-.3-.15l-.34,.28Z"/><path class="cls-8" d="M49.09,27.29c-.11,0-.47-.01-.54-.15-.02-.03,.02-.09,.04-.14,0-.06-.13-.06-.32-.06h0c.17-.03,.31-.02,.35,0-.04,.12-.07,.17-.06,.19,.08,.16,.72,.14,.76,.11-.01-.02-.21-.06-.33-.08-.22-.04-.27-.05-.28-.08,0-.03,.01-.07,.04-.11,.03-.06,.06-.12,.05-.16-.02-.08-.21-.13-.28-.14l-.09,.07,.08-.1s.3,.04,.32,.16c0,.05-.02,.12-.05,.18-.02,.04-.04,.08-.03,.1,.01,.01,.15,.03,.25,.05,.24,.04,.34,.06,.35,.1-.04,.05-.17,.06-.27,.06h0Z"/><path class="cls-16" d="M47.68,27.26l.85-.7s.04-.04,.07,0c.03,.03-.01,.07-.01,.07l-.87,.72-.03-.09Z"/><path d="M47.71,27.38l-.04-.11,.85-.72,.1,.03-.92,.79h0Zm.87-.76l-.89,.66,.02,.06,.87-.72h0Z"/><path class="cls-6" d="M46.87,27.96s.69-.6,.69-.6l.04-.17s.1,.07,.14,.11c.04,.04,.1,.14,.1,.14h-.19s-.6,.56-.6,.56l-.19-.03Z"/><path d="M47.06,28l-.2-.03s.68-.63,.68-.63l.04-.16s.13,.06,.17,.1c.04,.04,.1,.14,.1,.14l-.2,.03-.59,.55h0Zm.53-.8l-.02,.16s-.68,.59-.7,.61h.17s.59-.54,.59-.54h.19s-.07-.1-.1-.12c-.04-.04-.14-.11-.14-.11h0Z"/><path class="cls-6" d="M43.1,27.15v.27c.09,.03,.07,.1,.07,.2v.79c.03,.05,.12,.06,.17,.1,.04,.04,.04,.12-.17,.17h-.16c-.25-.05-.3-.13-.17-.18,.06-.02,.15-.05,.19-.09v-.19s-.17,0-.17,0c-.04,0-.12-.11-.13-.2v-.41c0-.23,.18-.26,.23-.26v-.21s.14,0,.14,0Zm-.27,.45c0-.07,.09-.13,.13-.13,.04,0,.12,.08,.12,.14v.17c0,.06-.05,.27-.15,.28-.05,0-.11-.07-.11-.13v-.34Z"/><path d="M43.01,28.7h0c-.16-.04-.25-.08-.25-.14h0s.08-.08,.08-.08c.08-.03,.15-.06,.18-.09v-.18s-.15,.02-.15,.02c-.06,0-.14-.12-.14-.21v-.41c0-.21,.15-.27,.24-.27v-.2s.15-.01,.15-.01v.29c.09,.02,.09,.08,.09,.16v.82s.04,.03,.08,.04l.11,.12s-.05,.09-.2,.13h-.17Zm0-.49l.02,.2s-.11,.07-.17,.1c-.08,.08-.02,.13,.15,.16h.16c.15-.04,.17-.09,.18-.11l-.09-.08s-.08-.03-.1-.06v-.8c0-.11,0-.16-.06-.18v-.29s-.14,.01-.14,.01l.02,.2s-.22,.02-.23,.26v.41c0,.08,.08,.18,.11,.18h.16Zm-.08-.13c-.06,0-.12-.08-.12-.14v-.34c0-.08,.1-.14,.15-.14h0c.05,0,.14,.09,.14,.16v.17s-.05,.28-.17,.3h0Zm.03-.59s-.12,.06-.12,.11v.34c0,.05,.05,.11,.08,.11,.08-.01,.14-.2,.14-.27v-.16c0-.06-.08-.13-.11-.13h0Z"/><path class="cls-14" d="M41.6,19.59c1.29-1.29,2.31-.66,2.55-.48-.16,.03-.3-.07-.38-.08,.05,.06,.14,.21,.14,.21,0,0-.4-.19-.44-.17,.06,.05,.12,.16,.12,.16-.03,.01-.25-.18-.3-.18,.07,.08,.09,.25,.09,.25l-.2-.09c-.05,.04,.01,.11-.03,.1-.32-.03-.78,.29-.84,.39l-.72-.11Z"/><path d="M42.33,19.7c.04-.12,.52-.45,.83-.42h0s0,.03,0,.03c-.33-.02-.77,.3-.83,.39h0Zm-.72-.1l-.02-.02c1.27-1.27,2.29-.69,2.57-.48-.12,.05-.23,0-.31-.02-.02,0,.08,.15,.08,.15,0,0,0,0-.01,0,0,0,0,0,0,0-.2-.07-.38-.15-.43-.14,.06,.02,.13,.13,.13,.13-.03,.03-.06,0-.17-.07-.05-.04-.12-.09-.14-.09,.08,.06,.1,.23,.11,.24l-.21-.07v-.03s.19,.09,.19,.09c-.02-.03-.04-.16-.1-.23,.03-.02,.09,.01,.17,.07,.04,.03,.09,.06,.12,.08-.03-.03-.07-.09-.11-.12,.05-.04,.31,.08,.43,.13-.04-.04-.1-.12-.13-.17l-.03-.04,.14,.05c.08,.03,.18,.07,.28,.05-.28-.18-1.28-.75-2.54,.51h0Z"/><path class="cls-14" d="M41.92,19.82c.13-.31,2.59-.83,3.09,.04-.19,.05-.38-.16-.38-.16l.02,.2-.33-.25,.12,.26-.26-.21v.21s-.31-.35-.31-.35l.04,.2-.29-.12,.03,.17-1.73,.02Z"/><path d="M44.19,19.9l-.34-.34,.07,.19-.31-.11,.05,.15-.06-.16,.31,.11-.06-.19,.34,.34-.03-.2,.29,.2-.14-.24,.35,.23-.04-.18s.17,.15,.33,.15c.02,0,.04,0,.06,0-.27-.44-1.07-.47-1.52-.45-.75,.04-1.49,.27-1.55,.42h-.03c.08-.2,.86-.42,1.58-.45,.46-.02,1.26,0,1.53,.48-.2,.07-.4-.14-.4-.15l.04,.18-.35-.24,.14,.24-.29-.19,.03,.2h0Z"/><path class="cls-14" d="M42.03,19.87c.63-.42,1.61-.14,1.61-.14,.62,.35,.95,.29,1.04,.93-.06-.02-.23-.23-.23-.23l-.13,.25-.04-.36-.1,.28-.15-.46-.04,.31-.23-.31-.11,.09-.1-.24-.09,.15s-.16-.1-.25-.04l-.18-.2-.04,.15-.15-.18-.06,.13-.15-.14v.1s-.51,0-.51,0l-.08-.11Z"/><path d="M44.33,20.7l-.07-.36-.07,.28-.18-.46v.31s-.27-.3-.27-.3l-.09,.09-.12-.24-.07,.16s-.11-.05-.19-.05c-.02,0-.05,0-.06,.02l-.2-.21-.02,.14-.18-.17-.03,.13-.03-.03h.03s.04-.12,.04-.12l.18,.17,.02-.14,.2,.2c.08-.07,.24,.03,.25,.04l.07-.15,.13,.24,.09-.09,.26,.31v-.3s.19,.45,.19,.45l.07-.28,.07,.36,.1-.26c.07,.05,.2,.2,.25,.22-.08-.46-.27-.54-.63-.7-.12-.05-.26-.12-.42-.21,0,0-.97-.28-1.59,.14l-.02-.02c.63-.42,1.61-.14,1.62-.14,.16,.09,.3,.15,.42,.21,.35,.16,.56,.25,.62,.74-.08,0-.24-.19-.25-.22l-.1,.25h0Z"/><path class="cls-14" d="M42.17,19.95c.44,0,1.7,.47,2.03,.97-.13-.07-.21-.11-.21-.11l-.06,.2-.08-.2-.02,.15c-.05-.12-.1-.13-.19,0l-.03-.19-.05,.18-.08-.19s-.05,.21-.08,.2c0,0-.14-.36-.2-.38l-.02,.23-.08-.23-.08,.17-.02-.24-.08,.19s-.04-.18-.11-.22l-.13,.11-.56-.4,.07-.23Z"/><path d="M43.94,21.01l-.11-.2v.15c-.04-.05-.06-.08-.08-.08-.01,0-.06,.03-.1,.08l-.06-.19-.02,.18-.11-.19s-.02,.19-.06,.21c-.1-.18-.19-.37-.22-.38v.21s-.11-.22-.11-.22l-.05,.17-.04-.25-.06,.19c-.04-.05-.08-.19-.13-.21l-.11,.11-.58-.4,.58,.38,.11-.11c.08,.04,.13,.21,.13,.23l.06-.19,.04,.25,.05-.17,.11,.23v-.22c.07,0,.2,.31,.22,.38,0-.02,.03-.12,.06-.2l.11,.19,.02-.18,.06,.19c.02-.08,.06-.11,.1-.1,.04,0,.06,.04,.09,.11v-.15s.1,.2,.1,.2l.04-.2s.1,.02,.23,.1c-.34-.46-1.58-.94-2.02-.94,0,0,0,0-.01,0v-.03h.01c.44,0,1.69,.46,2.03,.97-.15-.05-.23-.08-.23-.08l-.04,.19h0Z"/><path class="cls-14" d="M42.09,20.05c.58,.22,1.11,1.03,1.07,1.37-.26-.32-.2-.28-.32,.09,0,0-.04-.33-.09-.36l-.08,.24-.03-.31h-.08s.02-.19,.02-.19l-.12,.09c.03-.11,.06-.15-.06-.25,0,0,.15,.02,.03-.26l-.11,.11s.02-.12-.02-.17l-.41-.14,.2-.21Z"/><path d="M42.85,21.52c-.05-.13-.08-.33-.11-.36l-.05,.23v-.02s0,.01,0,.01l.05-.24c.07,.03,.11,.31,.12,.37l.02-.16c.03-.11,.04-.16,.08-.16,.06,0,.08,.05,.19,.18,.05-.27-.47-1.08-1.05-1.3v-.03c.61,.23,1.13,1.04,1.09,1.39-.14-.14-.2-.2-.22-.2h0s-.03,.06-.05,.14l-.05,.16h0Zm-.37-.54c0-.14,.02-.17-.08-.25,.08-.07,.09-.12,.03-.26l-.09,.11s-.01-.13-.04-.17l-.41-.14,.42,.12c.05,.05,.03,.17,.03,.18l.09-.12c.08,.12,.08,.21,.05,.25,.05,.1,.04,.14,.01,.23l.08-.07v.01s-.1,.1-.1,.1h0Z"/><path class="cls-14" d="M42.03,20.11l.22,.42-.11,.03,.25,.19-.21-.02s.33,.12,.37,.44l-.34-.15s.29,.29,.32,.46l-.19-.17s.19,.2,.16,.51l-.14-.16c.03,.37,.02,.41-.15,.69,0,0,.05-.44,0-.49l-.38,.39,.21-.55s-.23,.35-.37,.32l.29-.45-.29,.24,.33-.49-.31,.09s.22-.28,.21-.45l-.21,.23s.08-.26,.06-.34l-.11,.02,.21-.24-.14-.03,.02-.16-.1-.03v-.17s.41-.13,.41-.13Z"/><path d="M42.22,22.37c0-.18,0-.45-.03-.49l-.35,.39,.17-.52c-.05,.1-.22,.32-.35,.29l.29-.47-.27,.26,.31-.51-.29,.12s.2-.3,.19-.47l-.19,.24c0-.09,.05-.29,.03-.34l-.09,.03,.19-.26h-.13s0-.18,0-.18l-.09-.02v-.19s.02,.18,.02,.18l.09,.02v.17s.12,.01,.12,.01l-.2,.26,.09-.05c.04,.09-.03,.33-.04,.36l.19-.24c.04,.19-.17,.46-.18,.47l.29-.12-.31,.51,.27-.26-.27,.47h0c.1,0,.28-.24,.35-.33h0s0,.02-.01,.04l-.17,.52,.35-.4c.07,.06,.04,.43,.03,.5,.14-.29,.15-.32,.12-.69l.17,.15c0-.29-.18-.49-.18-.49h0s.03,0,.05,.03l.16,.11c-.06-.15-.34-.44-.34-.44h0s0,0,0,0l.34,.12c-.06-.29-.38-.41-.38-.42h0s0,0,.02,0h.19s-.26-.17-.26-.17l.12-.06-.23-.4h.03s.22,.41,.22,.41l-.12,.05,.26,.17h-.2c.09,.02,.32,.16,.36,.43l-.34-.12c.07,.04,.29,.28,.33,.44l-.17-.12c.06,.07,.15,.24,.13,.46l-.17-.15c.06,.36,.05,.4-.12,.69h0Zm0-.5c-.12-.16-.14-.4-.16-.65-.03-.33-.05-.7-.26-.98l.02-.02c.21,.28,.24,.66,.26,.99,.02,.25,.04,.49,.13,.65h0Z"/><path class="cls-6" d="M43.82,28.92c0-.05,.13-.03,.13-.09,0-.07-.2-.02-.22,.04-.11-.1-.16-.03-.22,0-.1-.14-.21-.14-.33-.03-.07-.07-.23-.05-.29,.03-.11-.11-.21-.08-.29,0-.03-.06-.08-.04-.11,0-.06-.1-.21-.07-.27,0-.05-.06-.11-.01-.19,.03-.05-.05-.13-.04-.13,0,0,.05,.1,.03,.1,.08,0,.04-.08,.02-.08,.08,0,.04,.11,.06,.13,0,.04,.07,.18,.04,.19-.02,.04,.06,.15,.07,.21,0,.05,.04,.1,.04,.13,0,.09,.09,.23,.07,.28-.03h.05c.08,.12,.22,.06,.25,0,.14,.1,.23,.07,.31,0,.09,.11,.23,.1,.26,0,.06,.04,.19,.05,.19,0,0-.05-.11-.03-.11-.08h0Zm-.28,.02s.03,.04,.07,.04,.07-.02,.07-.04-.03-.04-.07-.04c-.04,0-.07,.02-.07,.04h0Zm-.3-.04s.04,.05,.09,.05,.09-.02,.09-.05-.04-.05-.09-.05-.09,.02-.09,.05h0Zm-.6,.03s.04,.05,.08,.05,.08-.02,.08-.05-.04-.05-.08-.05c-.04,0-.08,.02-.08,.05h0Zm.32-.01s.04,.07,.08,.07,.08-.03,.08-.07-.03-.07-.08-.07-.08,.03-.08,.07h0Zm-.67,0s.03,.06,.07,.06,.07-.03,.07-.06-.03-.06-.07-.06c-.04,0-.07,.03-.07,.06h0Zm.21,.01s.02,.04,.04,.04c.03,0,.04-.02,.04-.04s-.02-.04-.04-.04c-.02,0-.04,.02-.04,.04h0Zm-.4,.02s.02,.06,.05,.06,.05-.02,.05-.06-.02-.05-.05-.05-.05,.02-.05,.05h0Z"/><path d="M41.99,29.11h-.02l-.06-.05,.08-.08-.1-.08h.08s.06,.08,.06,.08l-.08,.08,.05,.04,.06-.06,.1,.04s.09-.02,.09-.05l.12,.03s.07-.02,.09-.05v-.02s.15,.02,.15,.02c.08,.08,.21,.06,.26-.02,.02,0,.03,.01,.05,.02-.09,.1-.24,.12-.33,.02l-.12-.02h.01c-.05,.09-.18,.09-.23,.02,.02,.04-.04,.07-.1,.07h0l-.09-.05s-.01,.05-.06,.05h0Zm1.64-.02c-.06,0-.12-.03-.16-.09-.03,.06-.16,.1-.3,0,0,.05-.13,.16-.25,0,.23,.09,.22,.02,.25-.02,.15,.07,.21,.08,.31,0,.12,.1,.23,.1,.26,0,.05,.01,.1,.03,.14,.03l-.06-.1,.08-.06v.03s.06,.1,.06,.1c-.12,.05-.18,.03-.21,.01,0,.05-.04,.08-.1,.08h0Zm-1.03-.15h-.12l.07-.05-.07-.02c-.07-.12-.19-.06-.25,0-.1-.03-.13,0-.16,.02h-.04s.02,0,.02,0c.05-.04,.08-.06,.12-.06,.17-.02,.29-.05,.34,.04,.27-.1,.29-.1,.39,0,.02-.08,.23-.11,.29-.03,.08-.12,.24-.11,.33,.03l.11-.06s.07,.02,.11,.05c0-.04,.09-.08,.16-.08v.04c-.08,0-.14,.03-.15,.05-.06-.03-.09-.04-.12-.04l-.13,.05c-.09-.13-.19-.13-.31-.03-.11-.07-.24-.04-.29,.03-.13-.08-.2-.09-.29,0v.02s-.05,0-.05,0l.04,.05h0Z"/><path class="cls-6" d="M41.75,27.01s.2-1.65,.2-2.37c0-.56-.13-1.8-.13-1.8h-.57s-.09,1.24-.07,1.8c.02,.71,.2,2.37,.2,2.37h.38Z"/><path d="M41.76,27.03h-.4s-.2-1.68-.21-2.39c-.01-.55,.07-1.78,.07-1.8h.58s.15,1.25,.15,1.8c0,.7-.2,2.35-.2,2.37h0Zm-.52-4.16s-.07,1.23-.06,1.78c.02,.7,.2,2.36,.2,2.37h.35c.02-.17,.2-1.69,.2-2.36,0-.55-.13-1.79-.13-1.8h-.55Z"/><polygon class="cls-6" points="41.2 22.92 41.86 22.92 41.79 22.48 41.31 22.48 41.2 22.92"/><path d="M41.88,22.94h-.68l.09-.46h.49s.1,.46,.1,.46h0Zm-.11-.46h-.46s-.09,.44-.09,.44l.63-.02-.08-.43h0Z"/><polygon class="cls-6" points="41.25 22.57 41.83 22.57 41.72 22.12 41.36 22.12 41.25 22.57"/><path d="M41.85,22.58h-.61l.1-.46h.38s.13,.46,.13,.46h0Zm-.15-.46h-.35s-.1,.44-.1,.44l.55-.02-.11-.43h0Z"/><polygon class="cls-6" points="41.28 22.21 41.78 22.21 41.69 21.76 41.38 21.76 41.28 22.21"/><path d="M41.79,22.22h-.51l.08-.46h.33s.1,.46,.1,.46h0Zm-.12-.46h-.3s-.08,.44-.08,.44l.46-.02-.08-.43h0Z"/><polygon class="cls-6" points="41.71 21.71 41.37 21.71 41.33 21.87 41.74 21.87 41.71 21.71"/><path d="M41.87,26.02h-.62l.62-.03v.03h0Zm.03-.36h-.65l.65-.03v.03h0Zm0-.36h-.68l.68-.03v.03h0Zm.03-.33h-.74l.74-.03v.03h0Zm0-.3h-.77l.77-.03v.03h0Zm0-.36h-.77l.77-.03v.03h0Zm-.03-.36h-.75l.75-.03v.03h0Zm-.04-.36h-.68l.68-.03v.03h0Zm-.03-.33h-.61l.61-.03v.03h0Z"/><path class="cls-12" d="M41.56,26.88c-.42,0-.76,.16-.76,.35,0,.03,0,.06,.03,.09,.09,.11,.38,.18,.73,.18,.33,0,.6-.07,.71-.16,.03-.04,.04-.08,.04-.12,0-.19-.34-.35-.76-.35h0Z"/><path class="cls-11" d="M41.57,27.52c-.35,0-.65-.08-.75-.19l-.03-.11c0-.2,.35-.37,.78-.37s.77,.17,.77,.37c0,.04-.01,.08-.05,.13-.12,.1-.4,.17-.73,.17h0Zm0-.63c-.4,0-.74,.15-.74,.33,.22,.36,1.22,.29,1.44,.1,.02-.03,.04-.07,.04-.1,0-.18-.34-.33-.74-.33h0Z"/><path class="cls-6" d="M42.33,27.25v1.17c0,.14-.34,.25-.76,.25s-.76-.11-.76-.25v-1.17c0,.14,.34,.25,.76,.25s.76-.11,.76-.25h0Z"/><path d="M41.57,28.69c-.43,0-.78-.12-.78-.26v-1.17c.03,.11,.33,.23,.78,.23s.75-.12,.75-.23c0,.01,0,.02,0,.03l.03,1.14c0,.15-.34,.26-.78,.26h0Zm-.78-1.43l.03,1.17c0,.11,.3,.23,.74,.23s.75-.12,.75-.23v-1.14c-.03,.13-.35,.23-.75,.23-.43,0-.77-.11-.78-.26h0Z"/><path class="cls-9" d="M40.81,27.25v.18l.37,1.14,.29-.88,.32,.91,.24-.86,.3,.58v-.32l-.28-.56s-.06,.02-.1,.02l-.17,.63-.24-.6s-.08,0-.12,0l-.24,.6-.28-.73c-.06-.04-.1-.08-.1-.12h0Z"/><path class="cls-8" d="M41.79,28.65l-.34-.95-.27,.88-.4-1.14v-.18h0s.08,.08,.12,.11l.28,.73,.21-.6h.13s.26,.6,.26,.6l.14-.63,.11-.03,.29,.57v.33s-.32-.57-.32-.57l-.22,.9h0Zm-1-1.37l.02,.15,.37,1.13,.27-.88,.33,.87,.23-.81,.33,.57-.03-.31-.27-.55-.08,.03-.16,.62-.27-.6h-.11s-.23,.6-.23,.6l-.3-.73s-.08-.06-.09-.1h0Z"/><path class="cls-12" d="M42.33,28.21v.22c0,.14-.34,.25-.76,.25s-.76-.11-.76-.25v-.22c0,.14,.34,.25,.76,.25s.76-.11,.76-.25h0Z"/><path class="cls-11" d="M41.57,28.69c-.43,0-.78-.12-.78-.26v-.22c.03,.11,.33,.23,.78,.23s.75-.12,.75-.23c0,0,0,0,0,.01l.03,.21c0,.15-.34,.26-.78,.26h0Zm-.77-.46l.03,.19c0,.11,.3,.23,.74,.23s.75-.12,.75-.23v-.18c-.03,.13-.35,.23-.75,.23s-.73-.1-.77-.24h0Z"/><path class="cls-6" d="M41.88,28.44c-.06,0-.13,.02-.2,.02v.22c.07,0,.14,0,.2-.02v-.22Z"/><path class="cls-1" d="M41.88,28.44c-.06,0-.13,.02-.2,.02v.22c.07,0,.14,0,.2-.02v-.22Z"/><path class="cls-6" d="M41.07,28.4v.22c.06,.02,.12,.03,.2,.04v-.22c-.07-.01-.14-.02-.2-.04h0Z"/><path class="cls-1" d="M41.07,28.4v.22c.06,.02,.12,.03,.2,.04v-.22c-.07-.01-.14-.02-.2-.04Z"/><path class="cls-6" d="M40.81,28.21v.22s.03,.08,.08,.11v-.22c-.05-.04-.08-.07-.08-.12h0Z"/><path class="cls-1" d="M40.81,28.21v.22s.03,.08,.08,.11v-.22c-.05-.04-.08-.07-.08-.12Z"/><path class="cls-6" d="M42.33,28.23h0s-.06,.09-.14,.12v.22c.09-.04,.14-.09,.14-.14v-.2Z"/><path d="M41.57,28.69c-.43,0-.78-.12-.78-.26v-1.17l.03,1.17c0,.11,.3,.23,.74,.23,.28,0,.49-.05,.62-.11l-.02-.2c.08-.05,.13-.09,.14-.13h0v-.97s.03-.02,.03,0v1.17h0s-.02,.07-.06,.1c-.12,.1-.39,.16-.72,.16h0Z"/><path class="cls-4" d="M42.15,27.18c0,.08-.26,.15-.59,.15s-.59-.07-.59-.15,.26-.15,.59-.15,.59,.07,.59,.15h0Z"/><path class="cls-3" d="M41.57,27.34c-.29,0-.6-.06-.6-.16,0-.2,1.2-.21,1.2,0,0,.11-.31,.16-.6,.16h0Zm0-.3c-.34,0-.58,.07-.58,.14s.24,.14,.58,.14,.58-.07,.58-.14-.24-.14-.58-.14h0Z"/><path class="cls-6" d="M41.37,27.29l.03,.21c.05,0,.1,0,.16,0l.04-.21h-.22Z"/><path class="cls-1" d="M41.37,27.29l.03,.21c.05,0,.1,0,.16,0l.04-.21h-.22Z"/><path class="cls-6" d="M42.06,27.24l-.15,.04v.2c.06,0,.11-.02,.15-.03v-.21Z"/><path class="cls-1" d="M42.06,27.24l-.15,.04v.2c.06,0,.11-.02,.15-.03v-.21Z"/><path class="cls-6" d="M41.16,26.92s-.08,.03-.12,.04l.02,.16,.1-.03v-.17Z"/><path class="cls-1" d="M41.16,26.92s-.08,.03-.12,.04l.02,.16,.1-.03v-.17Z"/><path class="cls-6" d="M41.56,26.86s-.04,0-.06,0l.03,.2h.1s.04-.19,.04-.19c-.04,0-.07,0-.11,0h0Z"/><path class="cls-1" d="M41.56,26.86s-.04,0-.06,0l.03,.2h.1s.04-.19,.04-.19c-.04,0-.07,0-.11,0Z"/><path class="cls-6" d="M42.01,26.93l-.02,.17,.12,.04v-.17s-.06-.03-.1-.04h0Z"/><path class="cls-1" d="M42.01,26.93l-.02,.17,.12,.04v-.17s-.06-.03-.1-.04Z"/><polygon class="cls-6" points="40.92 27.39 40.96 27.18 40.8 27.09 40.8 27.33 40.92 27.39"/><polygon class="cls-1" points="40.92 27.39 40.96 27.18 40.8 27.09 40.8 27.33 40.92 27.39"/><polygon class="cls-6" points="42.32 27.34 42.33 27.13 42.18 27.17 42.32 27.34"/><polygon class="cls-1" points="42.32 27.34 42.33 27.13 42.18 27.17 42.32 27.34"/><path class="cls-14" d="M39.68,25.97c-.04-.08-.18-.14-.33-.14s-.29,.06-.33,.14c0-.02-.02-.04-.02-.06,0-.11,.15-.2,.35-.2s.35,.09,.35,.2c0,.02,0,.04-.02,.06h0Z"/><path class="cls-3" d="M39.67,25.98c-.09-.16-.55-.15-.63,0,0-.03-.01-.05-.01-.07,.07-.08,.53-.13,.66,.03v-.02c0-.19-.58-.21-.65-.04,.05-.27,.69-.18,.69,.04l-.02,.04s0,0,0,.01h-.02s0,0,0,0h0s-.01,0-.01,0h.01s-.01,.02-.01,.02h0Z"/><path class="cls-14" d="M39.65,26.22c0,.22-.14,.39-.3,.39s-.3-.18-.3-.39v-.21h.61v.21Z"/><path class="cls-3" d="M39.35,26.63c-.18,0-.33-.19-.33-.42v-.21l.63-.02,.02,.24c0,.23-.15,.42-.33,.42h0Zm.28-.63l-.58,.02,.02,.19c0,.2,.12,.37,.28,.37s.28-.16,.28-.37v-.21h0Z"/><path class="cls-4" d="M39.65,25.94c0,.08-.13,.15-.3,.15s-.3-.07-.3-.15,.13-.15,.3-.15,.3,.07,.3,.15h0Z"/><polygon class="cls-14" points="39.28 26.1 39.23 25.56 39.46 25.56 39.42 26.1 39.28 26.1"/><polygon class="cls-5" points="39.44 26.12 39.28 26.12 39.22 25.56 39.46 25.54 39.44 26.12 39.44 26.12"/><path class="cls-14" d="M39.68,25.95c-.04,.08-.18,.14-.33,.14s-.29-.06-.33-.14c0,.02-.02,.04-.02,.06,0,.11,.15,.2,.35,.2s.35-.09,.35-.2c0-.02,0-.04-.02-.06h0Z"/><path class="cls-3" d="M39.35,26.23c-.21,0-.37-.1-.37-.22,.01,0,.02,0,.03,0,.09,.23,.6,.2,.66,.03-.02,.12-.16,.19-.32,.19h0Zm0-.12c-.12,0-.23-.03-.29-.09,.19,.04,.54,.05,.61-.08,0,.03,.01,.05,.01,.07-.03,.04-.17,.1-.33,.1h0Z"/><polygon class="cls-6" points="39.12 27.08 39.72 27.14 39.82 26.6 39.11 26.53 39.12 27.08"/><polygon points="39.74 27.14 39.12 27.09 39.12 27.07 39.73 27.13 39.81 26.6 39.1 26.54 39.82 26.59 39.74 27.14 39.74 27.14"/><polygon class="cls-6" points="39.28 26.51 39.19 27.14 39.37 27.14 39.44 26.51 39.28 26.51"/><polygon points="39.17 27.16 39.26 26.5 39.44 26.49 39.38 27.14 39.17 27.16 39.17 27.16"/><path class="cls-6" d="M43.87,25.93c.14-.02,.34,.17,.36,.4,0,.19-.28,.18-.28,.18-.01,.08-.18,.15-.31,.15-.12,0,.04-.24,.04-.24-.08-.21,.03-.46,.03-.46l.17-.04Z"/><path d="M43.64,26.68s-.02-.03-.03-.04c.19,.02,.31-.07,.32-.13,.02-.01,.18,0,.25-.08,.03-.24-.06-.36-.13-.42-.06-.05-.12-.07-.17-.07l-.17,.04s-.08,.22-.02,.42h.42s-.2,.03-.2,.03l-.1-.02-.11,.02c-.04,.06-.08,.15-.08,.19-.02-.08,.04-.18,.05-.2-.08-.2,.02-.44,.02-.45l.18-.05c.06,0,.13,.02,.2,.07,.1,.08,.17,.22,.18,.35,0,.05-.01,.08-.04,.12-.08,.08-.25,.08-.25,.08,0,.07-.17,.15-.3,.15h0Z"/><path class="cls-9" d="M43.94,26.07c.11-.08,.01-.25-.06-.25h-.18c-.09,0-.23,.1-.21,.18,.02,.07,.06,.1,.14,.09,.03,0,.1-.09,.14-.09,.04,0,.14,.1,.18,.07h0Z"/><path class="cls-5" d="M43.59,26.11c-.06,0-.11-.04-.12-.1,.07-.14,.16-.19,.23-.2h.18s.1,.05,.12,.11c.02,.06,0,.12-.05,.16-.05,0-.08-.01-.12-.03l-.24,.06h0Zm.29-.27h-.18c-.06,0-.14,.05-.18,.1,0,.12,.02,.14,.07,.14v.02l.17-.11,.17,.08c.06-.04,.05-.1,.05-.13-.02-.05-.06-.1-.09-.1h0Z"/><path class="cls-12" d="M41.58,19.11c-.12-.05-.37-.22-.3-.32l.12-.2c.17-.38,0-.23-.02-.35-.02-.11,.64-.03,.65,.23,0,.07-.05,.03-.04,.43l-.13,.24c-.09,0-.21,0-.29-.04h0Z"/><path class="cls-11" d="M41.8,19.17c-.09,0-.17-.02-.23-.04-.07-.04-.29-.16-.32-.27l.13-.27c.11-.24,.07-.25,.04-.27l-.05-.1c.12-.14,.66,.02,.67,.26-.02,.09-.05,.15-.04,.43l-.13,.25h-.08Zm-.3-.95c-.06,0-.1,.01-.1,.02,.1,.08,.13,.12,.02,.37l-.12,.2c.01,.14,.2,.25,.29,.3,.06,.03,.13,.04,.22,.04v.02l.06-.02,.11-.23c0-.28,.02-.35,.03-.39,0-.22-.33-.31-.51-.31h0Z"/><polygon class="cls-6" points="41.66 20.09 41.49 19.95 41.54 18.77 41.7 18.82 41.66 20.09"/><path d="M41.67,20.12l-.19-.16,.04-1.19,.18,.03-.03,1.32h0Zm-.14-1.34l-.03,1.17,.14,.11,.04-1.24-.15-.03h0Z"/><path class="cls-9" d="M41.87,19.15c.1-.06,.17-.24,.11-.35-.17-.21-.28-.13-.56-.22-.05,.06-.17,.18-.15,.26,.37,.18,.23,.03,.35,.05,.07,.01,.11,.09,.25,.26h0Z"/><path class="cls-8" d="M41.87,19.16l-.1-.13c-.07-.09-.1-.13-.15-.14l-.1,.04s-.12-.03-.25-.09c-.03-.09,.06-.2,.13-.27,.13,0,.21,.02,.28,.03,.12,.02,.21,.03,.33,.17,.03,.05,.04,.11,.02,.18-.02,.08-.07,.15-.13,.19h-.01Zm-.25-.29c.05,0,.09,.06,.17,.15l.09,.11s.09-.09,.1-.16c.02-.06,.01-.12-.01-.16-.1-.13-.18-.14-.31-.16-.07,0-.15-.02-.25-.06-.06,.08-.15,.18-.13,.24,.11,.05,.19,.08,.23,.08l.11-.04h0Z"/><path class="cls-6" d="M35.64,28.4c-.1,.01-.12,.13-.08,.24-.45,.13-.85,.29-1.24,.4-.02-.08,.2-.31,.2-.31,.06,.03,.1,.15,.1,.15,.01-.26,.27-.44,.27-.44-.15-.02-.62,.16-.68,.24,0,0,.18-.02,.21,0,0,0-.36,.38-.37,.5,.06,.12,.67,.22,.67,.22,0,.03-.18,.16-.18,.16,.24,.05,.61-.12,.72-.22,0,0-.29-.02-.51-.21,0,0,.05,.11,.02,.17,0,0-.35-.1-.39-.16,0,0,.83-.22,1.23-.33,.01,.07,.09,.21,.19,.17,.06-.02,.04-.14,.02-.23,.02,.02,.05,.03,.08,.03,.07,0,.13-.05,.13-.12s-.06-.12-.13-.12c-.06,0-.1,.04-.12,.08-.02-.08-.06-.22-.13-.22h0Zm.31,.25s-.03,.06-.06,.06-.06-.03-.06-.06,.03-.06,.06-.06,.06,.03,.06,.06h0Z"/><path d="M34.63,29.58s-.07,0-.1-.01c.07-.08,.16-.16,.17-.17-.06,0-.61-.08-.67-.21,.01-.08,.15-.26,.26-.38-.08,.14-.22,.31-.23,.38,.04,.09,.49,.18,.66,.2,0,.05-.12,.14-.17,.18l.09-.02c.22,0,.5-.13,.61-.23-.04,.02-.28-.02-.48-.17,.02,.03,.04,.1,.02,.14-.05,0-.37-.1-.41-.16t.37-.12c.27-.07,.64-.17,.86-.23,.03,.07,.09,.18,.16,.18,.06-.02,.07-.1,.03-.22,.17,.01,.21-.04,.21-.1,0-.11-.18-.14-.22-.03-.05-.13-.1-.21-.14-.21-.1,.09-.1,.15-.08,.22-.24,.08-.46,.16-.67,.23-.2,.07-.39,.13-.58,.19-.04-.1,.16-.31,.18-.33,.08,.02,.12,.15,.12,.16-.01-.23,.17-.39,.23-.43-.03,.06-.22,.22-.23,.44-.04-.03-.08-.12-.12-.14-.06,.08-.19,.24-.17,.29,.17-.06,.36-.13,.56-.2,.21-.07,.43-.15,.66-.21-.04-.06-.04-.13,0-.18l.09-.06h0c.08,0,.13,.12,.15,.23-.02-.13,.25-.09,.25,.04,0,.08-.06,.14-.14,.14l-.09-.03c.05,.08,.07,.21,0,.23h0c-.12,0-.19-.12-.2-.19-.21,.08-.57,.17-.85,.25-.2,.05-.35,.09-.36,.1,.03,.02,.25,.09,.38,.13,0-.03-.03-.12-.04-.15,0,0,0,0,0,0,0,0,0,0,.01,0,.24,.15,.5,.17,.51,.17-.09,.12-.39,.26-.62,.26h0Zm-.42-.88c.04-.1,.47-.27,.65-.27,0,0,0,0,0,0-.18,.03-.51,.16-.61,.23,.03,0,.07,0,.1,0,0,0,0,.01,0,.02-.08,.01-.14,.02-.14,.02h0Z"/><path class="cls-6" d="M48.76,28.9c.03-.06-.03-.37-.03-.37-.06,0-.15,.11-.15,.11,.08-.25-.14-.67-.14-.67,.15,.03,.66,.52,.68,.61,0,0-.22-.08-.26-.07,.04,.25,.21,.37,.28,.5,0,0-.29,.06-.26,.3h-.19c-.06-.08,.03-.21,.03-.21l-1.29-.54c-.08-.04-.27-.12-.24-.22,.03-.1,.34,.04,.41,.07l1.15,.49Z"/><path d="M48.69,29.33h0c-.07-.09,.02-.23,.02-.24l-1.28-.52c-.07-.03-.29-.12-.25-.24,.03,0,.06-.01,.08-.02-.07,.09,0,.15,.18,.23l1.29,.54s-.07,.14-.02,.21h.18c-.04-.24,.25-.3,.25-.31-.03-.02-.06-.06-.1-.11-.07-.09-.16-.2-.19-.37,.08-.01,.27,.05,.28,.05-.05-.07-.54-.54-.69-.58,.03,.02,.22,.37,.17,.62,.02-.04,.08-.08,.12-.09,.02,.04,.08,.33,.04,.39l-1.17-.48c-.13-.05-.26-.1-.33-.1,.12-.01,.22,.03,.29,.05l1.21,.51s-.02-.23-.05-.35c-.03,.02-.1,.09-.12,.12,0,0,0,0,0,0,0,0,0-.01,0-.02,.03-.26-.17-.64-.17-.64,.17,.01,.68,.5,.71,.6-.07,0-.22-.05-.26-.05,.03,.15,.11,.25,.19,.34,.04,.05,.07,.09,.09,.13-.02,.02-.28,.08-.26,.31l-.21,.02h0Z"/><path class="cls-6" d="M47.52,28.68l.15-.28c.05-.07-.06-.15-.14-.06l-.17,.25c-.07,.14,.08,.18,.16,.08h0Z"/><path d="M47.42,28.74l-.08-.04s-.02-.06,0-.12l.17-.26,.09-.04,.07,.13-.15,.28s-.07,.06-.11,.06h0Z"/><polygon class="cls-4" points="38.49 29.31 38.48 29.01 38.11 29.03 38.09 29.36 38.49 29.31"/><path d="M38.08,29.38l.02-.35,.38-.03,.03,.32-.43,.07h0Zm.39-.37l-.35,.04v.3s.37-.05,.37-.05l-.02-.29h0Z"/><path class="cls-4" d="M35.81,29.74l-.49-.28c2.03,.19,2.44-.52,2.93-.56,.3-.02,.35,.33-.24,.16l.15,.37s-1.44,.81-2.85,.47l.5-.18Z"/><path d="M36.03,30.01c-.25,0-.5-.03-.72-.08l.5-.21-.49-.25c.24,0,.46,0,.65,0,.98,0,1.47-.24,1.82-.42,.17-.09,.31-.16,.46-.17h0c.16,0,.23,.07,.23,.13,0,.08-.16,.15-.47,.06l.17,.35s-1.01,.58-2.14,.58h0Zm-.71-.53l.5,.25-.5,.2c.22,.02,.47,.05,.72,.05,1.13,0,2.11-.55,2.12-.55l-.16-.35c.33,.03,.45,0,.45-.05,0-.05-.07-.1-.17-.1-.17,.01-.31,.08-.48,.17-.43,.21-1.05,.53-2.48,.39h0Z"/><polygon class="cls-4" points="44.63 29.31 44.64 29.01 45.09 29.02 45.11 29.35 44.63 29.31"/><path d="M45.12,29.37l-.5-.04v-.32s.46,0,.46,0l.04,.36h0Zm-.05-.35h-.43s0,.29,0,.29l.45,.02-.02-.31h0Z"/><path class="cls-4" d="M47.4,29.66l.46-.25c-2.32,.07-1.79-.38-2.95-.51-.3-.03-.53,.35,.23,.16l-.15,.37h.37c.79,.52,1.86,.57,2.56,.4l-.52-.18Z"/><path d="M47.14,29.94h0c-.67,0-1.31-.17-1.79-.49h-.36s.14-.39,.14-.39c-.12,.06-.24,.07-.33,.07-.07,0-.19-.02-.19-.09s.12-.16,.26-.16c.48,.05,.68,.15,.88,.24,.33,.15,.67,.32,2.11,.27l-.45,.28,.52,.15c-.24,.09-.51,.12-.79,.12h0Zm-1.78-.52c.68,.44,1.74,.59,2.56,.4l-.52-.15,.46-.28c-.16,.03-.31,.04-.44,.04-1.08,0-1.38-.14-1.67-.28-.2-.1-.4-.19-.83-.23-.15,.02-.26,.08-.26,.12,0,.06,.1,.06,.16,.06,.09,0,.2-.02,.34-.05l-.13,.39,.35-.02h0Z"/><path class="cls-4" d="M38,29.07v.52s1.29,.48,3.58,.48,3.58-.48,3.58-.48v-.52s-.97,.45-3.58,.45-3.58-.45-3.58-.45h0Z"/><path d="M41.58,30.09c-2.27,0-3.57-.47-3.58-.48v-.54s1,.43,3.58,.43,3.56-.44,3.57-.45l.02,.54s-1.31,.49-3.59,.49h0Zm-3.56-.49s1.32,.46,3.56,.46,3.56-.47,3.58-.48v-.51s-1.02,.46-3.58,.46-3.58-.45-3.59-.45l.02,.51h0Z"/><path d="M38.19,29.6l.12-.38h.05s-.1,.35-.1,.35l.2,.05v.04s-.26-.07-.26-.07Zm.37-.17v-.08s.02-.06,.02-.06h.06s-.02,.08-.02,.08l-.03,.07h-.03Zm.55-.03h.05s-.05,.24-.05,.24c0,.04-.02,.07-.03,.09s-.04,.04-.06,.05c-.03,0-.06,.01-.1,0-.04,0-.07-.02-.09-.04-.02-.02-.04-.04-.04-.06,0-.03,0-.06,0-.1l.05-.23h.05s-.05,.24-.05,.24c0,.03,0,.06,0,.08,0,.02,.01,.03,.03,.04,.01,.01,.03,.02,.05,.03,.04,0,.07,0,.09,0,.02-.01,.04-.05,.05-.09l.05-.23Zm.06,.42l.07-.39h.06s.16,.35,.16,.35l.05-.31h.05s-.07,.4-.07,.4h-.05s-.16-.35-.16-.35l-.05,.31h-.05Zm.42,.06l.06-.4h.05s-.06,.4-.06,.4h-.05Zm.15-.18c0-.07,.03-.12,.07-.15,.04-.03,.09-.05,.15-.04,.04,0,.07,.02,.1,.04,.03,.02,.05,.05,.06,.08,.01,.03,.02,.07,.01,.11,0,.04-.02,.08-.04,.11-.02,.03-.05,.05-.08,.06-.03,.01-.07,.02-.1,.01-.04,0-.07-.02-.1-.04-.03-.02-.05-.05-.06-.08-.01-.03-.02-.07-.01-.1h0Zm.06,0s0,.09,.03,.12c.02,.03,.05,.05,.1,.05,.04,0,.08,0,.11-.03,.03-.03,.05-.06,.05-.11,0-.03,0-.06,0-.09,0-.02-.02-.04-.04-.06-.02-.02-.04-.03-.07-.03-.04,0-.07,0-.1,.03-.03,.02-.05,.06-.06,.12h0Zm.38,.24l.03-.4h.06s.19,.33,.19,.33l.03-.31h.05s-.04,.4-.04,.4h-.05s-.19-.33-.19-.33l-.03,.31h-.05Zm.58,.04l.02-.4h.28s0,.06,0,.06h-.22s0,.11,0,.11h.2s0,.06,0,.06h-.2s0,.17,0,.17h-.05Zm.3,.01l.17-.4h.06s.16,.4,.16,.4h-.06s-.05-.12-.05-.12h-.17s-.05,.12-.05,.12h-.06Zm.12-.16h.14s-.04-.11-.04-.11c-.01-.03-.02-.06-.03-.08,0,.03-.01,.05-.03,.08l-.05,.12Zm.32,.17v-.4h.05v.4h-.05Zm.26,0v-.35s-.14,0-.14,0v-.05s.33,0,.33,0v.05h-.14s0,.35,0,.35h-.05Zm.41,0l-.02-.4h.05s.02,.35,.02,.35h.21s0,.04,0,.04h-.26Zm.28,0l.13-.41h.06s.2,.38,.2,.38h-.06s-.06-.11-.06-.11h-.17s-.04,.14-.04,.14h-.06Zm.11-.17h.14s-.05-.12-.05-.12c-.02-.03-.03-.06-.04-.08,0,.03,0,.05-.02,.08l-.04,.12Zm.49,.13l-.05-.4,.28-.03v.05s-.22,.02-.22,.02v.12s.21-.02,.21-.02v.05s-.19,.02-.19,.02l.02,.18h-.05Zm.3-.22c0-.07,0-.12,.03-.16,.03-.04,.07-.07,.13-.08,.04,0,.07,0,.11,.01,.03,.01,.06,.03,.08,.06,.02,.03,.04,.06,.04,.1,0,.04,0,.08,0,.11-.01,.03-.03,.06-.06,.08-.03,.02-.06,.03-.1,.04-.04,0-.07,0-.11-.01-.03-.01-.06-.04-.08-.06-.02-.03-.03-.06-.04-.1h0Zm.06,0s.03,.08,.06,.11c.03,.02,.07,.03,.11,.03,.04,0,.07-.02,.1-.06,.02-.03,.03-.07,.02-.12,0-.03-.02-.06-.03-.08-.02-.02-.04-.04-.06-.05-.02-.01-.05-.01-.08,0-.04,0-.07,.02-.09,.05-.02,.03-.03,.07-.02,.13h0Zm.44,.13l-.07-.39,.18-.03s.06,0,.09,0c.02,0,.04,.01,.05,.03,.02,.02,.03,.03,.03,.06,0,.03,0,.05-.02,.08-.02,.02-.04,.04-.08,.05,.02,0,.03,0,.04,.01,.02,.01,.04,.03,.05,.04l.09,.09h-.07s-.07-.06-.07-.06c-.02-.02-.04-.04-.05-.05-.01-.01-.02-.02-.03-.02,0,0-.02,0-.03,0,0,0-.02,0-.03,0h-.06s.03,.19,.03,.19h-.05Zm.01-.22l.12-.02s.04-.01,.06-.02c.01,0,.02-.02,.03-.03,0-.01,0-.02,0-.04,0-.02-.01-.03-.03-.04-.02,0-.04-.01-.07,0l-.13,.02,.03,.13Zm.65-.04h.06s-.01,.08-.04,.11c-.02,.03-.06,.05-.1,.06-.04,0-.08,0-.11,0-.03-.01-.06-.03-.08-.06-.02-.03-.04-.06-.05-.1,0-.04,0-.08,0-.11,0-.03,.03-.06,.05-.08,.03-.02,.06-.04,.09-.04,.04,0,.08,0,.11,0,.03,.01,.06,.04,.08,.07l-.05,.02s-.04-.04-.06-.05c-.02,0-.04-.01-.07,0-.03,0-.06,.02-.07,.04-.02,.02-.03,.04-.03,.07,0,.03,0,.05,0,.08,0,.03,.02,.06,.04,.08,.02,.02,.04,.04,.06,.04,.02,0,.05,0,.07,0,.03,0,.05-.02,.07-.04,.02-.02,.03-.05,.03-.08h0Zm.15,.11l-.11-.38,.29-.08v.04s-.22,.06-.22,.06l.04,.12,.22-.06v.04s-.21,.06-.21,.06l.04,.13,.24-.07v.04s-.28,.08-.28,.08Z"/></g></g></g></svg>