<svg xmlns="http://www.w3.org/2000/svg" viewBox="0 0 13.12 13.12" xmlns:v="https://vecta.io/nano"><defs><clipPath id="A"><circle cx="6.56" cy="6.56" r="5.89" fill="none"/></clipPath><clipPath id="B"><circle cx="6.56" cy="6.56" r="5.89" fill="none"/></clipPath><clipPath id="C"><circle cx="6.56" cy="6.56" r="5.89" fill="none"/></clipPath></defs><circle cx="6.56" cy="6.56" r="6.56" fill="#fff"/><circle cx="6.56" cy="6.56" r="6.08" fill="#c6cde0"/><g clip-path="url(#A)"><path d="M-.5.42h13.3v4.09H-.5z" fill="#ff9a30"/></g><g clip-path="url(#B)"><path d="M-.5 4.52h13.3v4.09H-.5z" fill="#fff"/></g><g clip-path="url(#C)"><path d="M-.5 8.61h13.3v4.09H-.5z" fill="#098901"/></g><g fill="#000089"><path d="M6.56 5.02a1.54 1.54 0 1 0 0 3.08 1.54 1.54 0 1 0 0-3.08zm.88 2.57s-.06-.05-.1-.03-.06.06-.04.1c0 .01.01.02.01.02-.06.04-.11.07-.17.1h0c-.02-.05-.06-.07-.1-.05-.05.02-.07.07-.05.11h0c-.06.02-.12.04-.18.05q0 0-.01-.02s-.06-.06-.1-.04c-.03.01-.05.04-.05.08h-.19s0-.03-.01-.04c0-.04-.06-.06-.1-.05-.03.02-.04.04-.05.07-.06-.02-.12-.03-.18-.05.01-.02.01-.04 0-.06-.02-.05-.07-.07-.11-.05-.02 0-.03.03-.04.04-.06-.03-.11-.06-.17-.1.02-.01.03-.04.01-.07 0-.04-.06-.06-.1-.04-.01 0-.03.01-.03.02-.05-.04-.1-.09-.14-.14.02-.01.03-.04.03-.06 0-.04-.04-.08-.08-.08-.02 0-.03 0-.04.01-.04-.04-.07-.1-.1-.15.03-.01.04-.04.04-.07 0-.05-.03-.09-.08-.09h-.02c-.02-.05-.04-.11-.05-.18.04 0 .07-.04.07-.08s-.04-.08-.08-.08h-.02v-.19h.02s.08-.04.08-.08-.03-.08-.08-.08c.02-.07.03-.13.06-.19.02.02.05.02.08.01.04-.02.06-.06.04-.1 0-.04-.04-.05-.06-.06l.09-.16c.02.02.05.03.08.01.04-.02.06-.06.04-.1 0-.01 0-.03-.02-.04.04-.05.09-.1.14-.14.02.03.06.05.1.03s.06-.06.04-.1c0-.01-.01-.02-.02-.03.05-.04.11-.07.17-.1h0c.02.06.06.08.1.06s.06-.06.04-.1h0c.06-.03.12-.05.19-.06 0 .01 0 .02.01.03.02.04.06.06.1.04.04 0 .06-.06.05-.09h.2v.05s.06.06.1.04c.04 0 .05-.04.05-.07.06.01.12.03.18.05-.01.02-.01.04 0 .06.02.04.06.06.1.04.02-.01.04-.03.04-.05.06.03.12.06.17.1 0 .03-.02.06 0 .1s.06.06.1.04c.02-.01.03-.02.04-.04.05.04.1.09.14.14-.03.02-.04.06-.03.1.02.04.06.06.1.04.01 0 .02-.01.03-.02l.11.17h-.01s-.06.06-.04.1.06.06.1.04h.01c.02.06.04.12.05.19-.01 0-.02 0-.04.01-.04.02-.06.06-.04.1s.06.06.1.05v.21s-.04-.01-.06 0c-.04.02-.06.06-.04.1 0 .04.04.06.07.05a1.17 1.17 0 0 1-.05.2c-.02-.02-.05-.02-.07 0-.04.02-.06.06-.04.1.01.03.03.04.06.05-.03.06-.06.11-.1.16-.03-.02-.06-.02-.09-.01-.04.02-.06.06-.05.1.01.02.02.03.03.04-.04.05-.08.1-.13.14z"/><path d="M7.66 7.19s-.61-.43-.87-.51c0-.01.01-.02.01-.02.23.13 1 .23 1 .23s-.53-.2-.85-.26c.32.02.91-.07.91-.07s-.82-.07-1.05.02v-.04c.25.01.99-.31.99-.31s-.79.14-1 .28c0-.01-.01-.02-.01-.03.24-.04.89-.55.89-.55s-.75.34-.9.53c0-.04-.02-.05-.03-.07.22-.1.73-.76.73-.76s-.65.53-.75.74c.16-.17.48-.92.48-.92s-.48.65-.53.9c-.01-.01-.03-.01-.04-.02.13-.21.24-1.01.24-1.01s-.29.75-.28 1c-.01 0-.02 0-.03-.01.08-.22-.01-1.05-.01-1.05s-.1.83 0 1.05c-.02 0-.04 0-.05.01.01-.26-.27-.99-.27-.99s.1.78.23 1h-.01s-.01.01-.02.01c-.07-.26-.52-.87-.52-.87s.29.71.47.9c-.12-.21-.73-.72-.73-.72s.32.43.56.65c-.28-.17-.76-.37-.76-.37s.63.46.89.52c0 .01-.01.02-.01.02-.26-.13-.99-.22-.99-.22s.68.26.96.27v.02c-.27-.06-1.02.03-1.02.03s.75.08 1.01.02a.09.09 0 0 0 .01.05c-.27 0-.98.28-.98.28s.77-.1 1-.23c0 .01.01.01.01.02-.27.06-.88.51-.88.51s.7-.3.9-.49c0 0 0 .02.02.03-.23.12-.72.74-.72.74s.62-.49.74-.72c.02.01.03.02.04.03-.19.15-.52.9-.52.9s.5-.65.55-.89h.01c-.13.21-.23 1.02-.23 1.02s.28-.76.26-1.01h.03c-.07.26.04 1.04.04 1.04s.08-.78 0-1.03h.02c-.01.25.3 1 .3 1s-.13-.8-.26-1.01c.01 0 .02-.01.03-.01.07.25.55.87.55.87s-.32-.7-.51-.89c.01 0 .01-.01.02-.01.14.23.74.69.74.69S7 6.9 6.76 6.76c.01-.01.01-.02.02-.03.2.19.9.47.9.47zm-.82-.58h0z"/></g></svg>