<svg xmlns="http://www.w3.org/2000/svg" xmlns:xlink="http://www.w3.org/1999/xlink" viewBox="0 0 425.7 253.4" xmlns:v="https://vecta.io/nano"><defs><path id="A" d="M5.5 5.5h414.7v242.3H5.5z"/></defs><clipPath id="B"><use xlink:href="#A"/></clipPath><path d="M5.5 5.5h414.7v242.3H5.5z" clip-path="url(#B)" fill="#fff"/><path d="M5.5 5.5h414.7v80.8H5.5z" clip-path="url(#B)" fill="#f0953e"/><path d="M5.5 167.1h414.7v80.8H5.5z" clip-path="url(#B)" fill="#3b8916"/><g clip-path="url(#B)"><defs><path id="C" d="M5.5 5.5h414.7v242.3H5.5z"/></defs><clipPath id="D"><use xlink:href="#C"/></clipPath><path d="M213.2 90.5c-20.4 0-36.7 16.3-36.7 36.6 0 19.7 16.3 36 36.7 36 19.6 0 36-16.3 36-36 0-20.3-16.4-36.6-36-36.6m0 3.3l-1.4 18.4 1.4 10.8.7-10.8-.7-18.4c.7 0 1.4 0 2.6.7h0c0 .7.7 1.4.7 1.4 1.4 0 2.1-.7 2.1-1.4.7 0 2.1 0 2.6.7l-5.4 17-1.9 10.8 3.3-10.1 4.7-17.7s1.4.7 2.1.7v.7s.7 1.3 1.4 1.3c0 0 1.3 0 1.9-.7 0 0 .7.7 2.1 1.4l-10.1 15-4.2 9.5 6.1-8.2 8.2-16.3 2.1 1.4v.7l1.3 1.9s.7-.6 1.4-1.3c.7 1.3 1.4 1.3 1.4 1.9l-12.9 12.2-6.8 8.2 8.2-6.8 11.5-12.9c1.4 0 2.1.7 2.1.7v1.4c0 1.4.6 2.1 1.3 2.1h.7c.7.6 1.4 1.3 1.4 1.9l-16.3 8.9-8.2 5.4 9.6-4.2 14.9-9.5c.7.7 1.4 1.4 1.4 2.1l-.7 1.3c0 .7.7 2.1 2.1 2.1v-.7c0 .7.6 2.1.6 2.1l-17.7 4-10.1 4 10.8-1.9 17-5.4c.7.7.7 1.9.7 1.9l-1.3 2.1c0 .7.6 2.1 1.9 2.1h0v2.6l-18.4-1.4-10.1 1.4 10.1.7 18.4-.7v2.8h0c-1.4 0-1.9.7-1.9 1.4l1.3 1.3s0 2.1-.7 2.8l-6.1-2.1-10.8-3.3-10.8-2.1h0 0l10.1 3.5 17.7 4s-.6 1.9-.6 2.6h0 0 0c-1.4 0-2.1.7-2.1 1.4v.7h0l.7.7h0 0 0 0 0 0s-.7 1.4-1.4 2.6l-14.9-10.1h0l-9.6-4.7v.7l5.4 3.3 2.8 2.8h0l16.3 8.1c0 .7-.7 1.4-1.4 2.1h-.7c-.7 0-1.3.7-1.3 1.4 0 0 0 .7.6 1.4 0 0-1.2 1.3-2.6 1.9L224 136.6l-8.2-6.8 6.8 8.1 12.9 12.2c0 .7-.7 1.4-1.4 1.4h-1.4l-1.3 1.4v.7l-2.1 1.3-8.2-16.3-6.1-8.1h0l4.2 9.5 10.1 15.6c-1.4 0-2.1.7-2.1.7-.7-.7-1.3-.7-1.3-.7-1.4 0-2.1.7-2.1.7v1.4c-.7.7-2.1.7-2.1.7l-4.7-17.7-3.3-9.5v-.7l1.9 10.1 5.4 17.7c-.6 0-1.9.7-2.6.7 0-.7-.7-1.4-1.4-1.4 0 0-1.4.7-1.4 2.1h0-2.6l.7-18.4-.7-10.1-1.4 10.1 1.4 18.4h-2.8 0c0-1.4-1.4-2.1-1.4-2.1-1.2 0-1.9.7-1.9 1.4-.7 0-1.4-.7-2.8-.7l6.1-17.7 1.4-9.5-3.3 9.5-4.2 17.7c-1.3 0-1.3 0-2.6-.7l.7-.7-2.1-1.4s-.7 0-1.4.7c-.7 0-1.4-.7-1.9-1.4l9.5-14.9 4.7-9.5-6.1 8.1-8.1 16.3c-1.4 0-2.1-.6-2.8-1.3.7 0 .7-.7.7-.7 0-1.4-1.4-1.4-2.1-1.4h-.7s-1.9-.7-2.6-1.4l13.6-12.2 6.7-8.1h0l-7.4 6.8-12.9 13.5s-.7-1.4-1.4-1.9c0-.7.7-.7.7-.7 0-1.4-.7-2.1-2.1-2.1h-.7c-.6-.7-1.3-1.4-1.3-2.1l16.3-8.1 8.1-6.8-8.8 4.7-15.6 10.1c-.7-1.3-.7-1.9-.7-1.9v-2.1c0-.7 0-1.4-1.4-1.4h-.7c-.7-.7-.7-1.3-.7-2.6l17.7-4 9.6-3.5-9.6 2.1-17.7 5.4V133l.7-1.9c0-.7-.7-1.4-.7-1.4h-.7v-2.1H198l10.3-.7-10.3-1.4-17.7 1.4V125v-.7s1.4-1.4 1.4-2.1l-1.4-1.4s.7-1.9.7-2.6l17.7 5.4 9.6 1.9-9.6-4-17.7-3.3s0-2.1.7-2.8h.7c1.4 0 1.4-.7 1.4-1.4l-.7-1.3c.7-.7.7-1.4 1.4-2.1l15.6 9.5 8.8 4.2-7.9-5.3-16.3-8.9c0-.7.7-1.4 1.3-1.9h.7c1.4 0 2.1-.7 2.1-1.4 0 0-.7-.7-.7-1.4l1.4-1.4 12.9 12.9 7.4 6.8-6.7-8.2-13.6-12.2c.7-.7 2.1-.7 2.6-1.9v1.3c2.1 0 2.8-1.3 2.8-1.3s0-1.4-.7-1.4c.7-.7 1.4-1.4 2.8-1.4l8.1 16.3 6.1 8.2-4.7-9.5-9.5-15c.6-.7 1.3-1.4 1.9-1.4 0 .7 1.4.7 1.4.7l2.1-1.3-.7-.7c1.4 0 1.4-.7 2.6-.7l4.2 17.7 3.3 10.1-1.4-10.8-6.1-17c1.4-.7 2.1-.7 2.8-.7 0 .7.7 1.4 1.4 1.4 1.3 0 1.9-.7 1.9-1.4v-.7h2.8" clip-path="url(#D)" fill="#16007e"/><path d="M213.2 121.6c2.6 0 5.4 2.1 5.4 5.4 0 2.8-2.8 5.4-5.4 5.4-3.5 0-5.4-2.6-5.4-5.4 0-3.3 1.9-5.4 5.4-5.4" clip-path="url(#D)" fill="#fff"/><path d="M213.2 122.3c1.9 0 4 2.1 4 4.7 0 2.1-2.1 4.2-4 4.2-2.1 0-4.7-2.1-4.7-4.2 0-2.6 2.6-4.7 4.7-4.7" clip-path="url(#D)" fill="#16007e"/></g></svg>