<?xml version="1.0" encoding="UTF-8"?><svg id="Ebene_2" xmlns="http://www.w3.org/2000/svg" xmlns:xlink="http://www.w3.org/1999/xlink" viewBox="0 0 83.18 48.52"><defs><style>.cls-1{fill:none;}.cls-2{clip-path:url(#clippath);}.cls-3{fill:#050505;}.cls-4{fill:#fff;}.cls-5{fill:#bd1032;}.cls-6{fill:#439b4c;}.cls-7{clip-path:url(#clippath-1);}</style><clipPath id="clippath"><rect class="cls-1" width="83.18" height="48.52"/></clipPath><clipPath id="clippath-1"><rect class="cls-1" width="83.18" height="48.52"/></clipPath></defs><g id="Layer_1"><g class="cls-2"><rect class="cls-5" width="83.18" height="16.17"/><rect class="cls-4" y="16.17" width="83.18" height="16.18"/><rect class="cls-3" y="32.35" width="83.18" height="16.17"/><g class="cls-7"><path class="cls-6" d="M48.77,21.28c-.1-.05-.21-.13-.25-.19-.05-.08-.02-.08,.21-.02,.41,.11,.68,.07,.94-.16l.23-.2,.27,.14c.15,.07,.31,.13,.36,.12,.12-.03,.36-.35,.35-.45,0-.13,.11-.1,.16,.05,.11,.29-.05,.62-.33,.7-.14,.04-.26,.02-.47-.05-.25-.09-.3-.09-.43,0-.29,.22-.68,.24-1.04,.05"/><path class="cls-6" d="M49.78,20.35c-.1-.13-.22-.61-.18-.72,.04-.1,.07-.12,.16-.09,.16,.05,.2,.16,.18,.54-.02,.31-.06,.39-.16,.27"/><path class="cls-6" d="M37.83,20.01c-.03,.23,.41,.81,.61,.91-.14,.06-.31,.03-.43,.1-.7,.7-3.25,3.19-3.72,3.78,1.38,.03,2.91-.02,4.21-.08,0-.94,.89-.99,1.48-1.33,.31,.48,1.08,.45,1.17,1.17,0,.87,0,2.18,0,3.12h-11.8c-.21,.92-1.04,1.62-2.19,1.33,.36-.37,.96-.5,1.17-1.02,.18-1.13-.36-1.82-.71-2.46,.58-.21,.67-.26,1.26-.66-.41,1.26,1.08,1.12,2.19,1.09,.04-.43,.02-.93-.31-1,.42-.15,.5-.21,1.17-.78v1.7c2.64,0,5.48-.02,8.17-.02,0-.53,.14-1.38-.28-1.38s-.02,1.09-.33,1.09h-6.31c0-.23,0-.73,0-1.08,.27-.27,.24-.24,2.06-2.07,.18-.18,1.46-1.34,2.59-2.43"/><path class="cls-6" d="M53.6,19.97c.44,.24,.79,.56,1.33,.7-.06,.22-.26,.31-.31,.55v4.77c.6,.13,.73-.21,1.02-.39,.08,.76,.56,1.51,.55,2.11h-2.58v-7.73Z"/><path class="cls-6" d="M50.16,22.52s.94-.79,.94-.82v4.16h.68c0-1.59-.02-3.19-.02-4.67,.27-.27,.81-.67,.95-.95v7.45c-1.9,0-5.45,0-5.92,0-.09-1.54-.1-3.15,1.7-2.8v-.63c-.06-.11-.15,.03-.18-.11,.29-.29,.38-.36,1.16-1.04,0,.82,.01,2.75,.01,2.75h.68s0-3.23,0-3.33m-2.22,3.29c.13,.19,.56,.19,.54-.13-.07-.26-.64-.16-.54,.13"/><path class="cls-6" d="M30.79,28.22c.2,0,.36,.16,.36,.36s-.16,.36-.36,.36-.36-.16-.36-.36,.16-.36,.36-.36"/><path class="cls-6" d="M41.95,19.97c.44,.24,.79,.56,1.33,.7-.06,.22-.26,.31-.31,.55v4.77c.6,.13,.73-.21,1.02-.39,.08,.76,.56,1.51,.55,2.11h-2.58v-7.73Z"/></g></g></g></svg>