<?xml version="1.0" encoding="UTF-8"?><svg id="Ebene_2" xmlns="http://www.w3.org/2000/svg" xmlns:xlink="http://www.w3.org/1999/xlink" viewBox="0 0 83.18 48.52"><defs><style>.cls-1{fill:none;}.cls-2{clip-path:url(#clippath);}.cls-3{fill:#f5c832;}.cls-4{fill:#4eaec4;}.cls-5{clip-path:url(#clippath-1);}</style><clipPath id="clippath"><rect class="cls-1" width="83.18" height="48.52"/></clipPath><clipPath id="clippath-1"><rect class="cls-1" width="83.18" height="48.52"/></clipPath></defs><g id="Layer_1"><g class="cls-2"><rect class="cls-4" width="83.18" height="48.52"/><g class="cls-5"><path class="cls-3" d="M5.46,34.22c0-.97,.87-1.47,1.56-1.47,.92,0,1.42,.55,1.42,1.27,0,.41-.07,.67-.26,1.06,0,0-1.53,3.16-2.12,4.39-.07,.15-.1,.33-.1,.58,0,.39,.38,.71,.78,.73,.37,0,.76-.34,.76-.74,0-.48-.25-.7-.51-.7-.32,0-.45,.13-.45,.35,0,.16,.08,.22,.18,.22,.27,0,.2-.37,.2-.37,.13,.03,.25,.17,.18,.34,.1,.02,.19,.07,.26,.16-.07,.07-.16,.12-.26,.14,.06,.21-.02,.31-.21,.36,.04-.08,.04-.16,.03-.22-.29,.08-.73-.05-.73-.55s.34-.91,.99-.81c-.15-.07-.23-.22-.25-.39,.12,.05,.25,.05,.25,.05-.08-.13-.18-.25-.18-.51,.12,.05,.23,.16,.38,.09-.24-.47,.05-1.12,.81-1.28-.28,.32-.41,.67-.41,1.02,0,1.12,.31,1.31,.31,2.1,0,.33-.17,.68-.5,.92h0c.22,.05,.36,.15,.44,.3-.5,.14-1.24,.14-1.63-.01-.45-.05-.77-.4-.86-.57-.09-.18-.27-.81,0-1.38,.3-.63,1.71-3.62,2.15-4.56,.09-.2,.15-.41,.15-.64,0-.58-.53-.78-.83-.78-.36,0-.73,.27-.73,.61,0,.22,.12,.35,.29,.35,.4,0,.38-.34,.3-.56,.25,.11,.4,.32,.36,.53,.14,.02,.28,.09,.41,.23-.1,.12-.22,.22-.41,.22,.08,.33-.14,.47-.36,.55,.07-.24,.12-.52-.3-.52-.3,0-.54-.05-.68-.25,0,.26-.03,1.29-.03,1.29-.02,.39,.52,.38,.86,.26-.13,.45-.39,.69-1,.63,.15,.06,.31,.2,.31,.47,0,.36-.3,.77-.49,.89l-.1-3.79Z"/><path class="cls-3" d="M5.66,34.22c0-.97-.87-1.47-1.56-1.47-.92,0-1.42,.55-1.42,1.27,0,.41,.07,.67,.26,1.06,0,0,1.53,3.16,2.12,4.39,.07,.15,.1,.33,.1,.58,0,.39-.38,.71-.78,.73-.37,0-.76-.34-.76-.74,0-.48,.25-.7,.51-.7,.32,0,.45,.13,.45,.35,0,.16-.08,.22-.18,.22-.27,0-.2-.37-.2-.37-.13,.03-.25,.17-.18,.34-.1,.02-.19,.07-.26,.16,.07,.07,.16,.12,.26,.14-.06,.21,.02,.31,.21,.36-.04-.08-.04-.16-.03-.22,.29,.08,.73-.05,.73-.55s-.34-.91-.99-.81c.15-.07,.23-.22,.25-.39-.12,.05-.25,.05-.25,.05,.08-.13,.18-.25,.18-.51-.12,.05-.23,.16-.38,.09,.24-.47-.05-1.12-.81-1.28,.28,.32,.41,.67,.41,1.02,0,1.12-.31,1.31-.31,2.1,0,.33,.17,.68,.5,.92h0c-.22,.05-.36,.15-.44,.3,.5,.14,1.24,.14,1.63-.01,.45-.05,.77-.4,.86-.57,.09-.18,.27-.81,0-1.38-.3-.63-1.71-3.62-2.15-4.56-.09-.2-.15-.41-.15-.64,0-.58,.53-.78,.83-.78,.36,0,.73,.27,.73,.61,0,.22-.12,.35-.29,.35-.4,0-.38-.34-.3-.56-.25,.11-.4,.32-.36,.53-.14,.02-.28,.09-.41,.23,.1,.12,.22,.22,.41,.22-.08,.33,.14,.47,.36,.55-.07-.24-.12-.52,.3-.52,.3,0,.54-.05,.68-.25,0,.26,.03,1.29,.03,1.29,.02,.39-.52,.38-.86,.26,.13,.45,.39,.69,1,.63-.15,.06-.31,.2-.31,.47,0,.36,.3,.77,.49,.89l.1-3.79Z"/><path class="cls-3" d="M5.56,44.71s.46,.39,.62,.19c.25-.31-.77-1.87-.77-2.41,0-.9,.6-1.14,1.34-1.27,.5-.09,1.31,.04,1.31,.04-.15,.2-.25,.26-.51,.28,.29,.15,.58,.47,.58,.97,0,.77-.32,1.09-.32,1.96,0,.48,.4,1.1,.4,1.1-.7-.07-1.05-.72-.85-1.24-.11-.02-.21,0-.3,.09-.05-.14,.03-.31,.14-.45-.09-.05-.15-.02-.29,0,.01-.15,.1-.31,.32-.45-.63,.16-1.02-.28-1.02-.74,0-.35,.24-.6,.48-.6,.08,0,.19,.03,.26,.08,.04-.1,.02-.22-.03-.32,.17,.05,.29,.15,.21,.36,.13,.01,.24,.06,.31,.14-.07,.09-.19,.15-.31,.14,.1,.2-.01,.31-.17,.4,0,0,.1-.4-.16-.4-.12,0-.22,.04-.22,.21,0,.15,.13,.35,.43,.34,.3-.01,.54-.21,.54-.68,0-.44-.36-.66-.83-.67-.42-.01-.74,.22-.74,.65,0,.58,.84,1.9,.84,2.42,0,.39-.35,.6-.69,.6-.44,0-.82-.44-.82-.44l.26-.33Z"/><path class="cls-3" d="M5.56,44.71s-.46,.39-.62,.19c-.25-.31,.77-1.87,.77-2.41,0-.9-.6-1.14-1.34-1.27-.5-.09-1.31,.04-1.31,.04,.15,.2,.25,.26,.51,.28-.29,.15-.58,.47-.58,.97,0,.77,.32,1.09,.32,1.96,0,.48-.4,1.1-.4,1.1,.7-.07,1.05-.72,.85-1.24,.11-.02,.21,0,.3,.09,.05-.14-.03-.31-.14-.45,.09-.05,.15-.02,.29,0-.01-.15-.1-.31-.32-.45,.63,.16,1.02-.28,1.02-.74,0-.35-.24-.6-.48-.6-.08,0-.19,.03-.26,.08-.04-.1-.02-.22,.03-.32-.17,.05-.29,.15-.21,.36-.13,.01-.24,.06-.31,.14,.07,.09,.19,.15,.31,.14-.1,.2,.01,.31,.17,.4,0,0-.1-.4,.16-.4,.12,0,.22,.04,.22,.21,0,.15-.13,.35-.43,.34-.3-.01-.54-.21-.54-.68,0-.44,.36-.66,.83-.67,.42-.01,.74,.22,.74,.65,0,.58-.84,1.9-.84,2.42,0,.39,.35,.6,.69,.6,.44,0,.82-.44,.82-.44l-.26-.33Z"/><path class="cls-3" d="M5.46,17.22c0-.97,.87-1.47,1.56-1.47,.92,0,1.42,.55,1.42,1.27,0,.41-.07,.67-.26,1.06,0,0-1.53,3.16-2.12,4.39-.07,.15-.1,.33-.1,.58,0,.39,.38,.71,.78,.72,.37,0,.76-.34,.76-.74,0-.48-.25-.7-.51-.7-.32,0-.45,.13-.45,.35,0,.16,.08,.22,.18,.22,.27,0,.2-.37,.2-.37,.13,.03,.25,.17,.18,.34,.1,.02,.19,.07,.26,.16-.07,.07-.16,.12-.26,.14,.06,.21-.02,.31-.21,.36,.04-.08,.04-.15,.03-.22-.29,.08-.73-.05-.73-.55s.34-.91,.99-.81c-.15-.07-.23-.22-.25-.39,.12,.05,.25,.05,.25,.05-.08-.13-.18-.25-.18-.51,.12,.05,.23,.16,.38,.09-.24-.47,.05-1.13,.81-1.28-.28,.32-.41,.67-.41,1.02,0,1.12,.31,1.31,.31,2.1,0,.33-.17,.68-.5,.92h0c.22,.05,.36,.15,.44,.3-.5,.14-1.24,.14-1.63-.01-.45-.05-.77-.4-.86-.57-.09-.18-.27-.81,0-1.38,.3-.63,1.71-3.62,2.15-4.56,.09-.2,.15-.41,.15-.64,0-.58-.53-.78-.83-.78-.36,0-.73,.27-.73,.61,0,.22,.12,.35,.29,.35,.4,0,.38-.34,.3-.56,.25,.11,.4,.32,.36,.53,.14,.02,.28,.09,.41,.23-.1,.12-.22,.22-.41,.22,.08,.33-.14,.47-.36,.55,.07-.24,.12-.52-.3-.52-.3,0-.54-.05-.68-.25,0,.26-.03,1.29-.03,1.29-.02,.39,.52,.38,.86,.26-.13,.45-.39,.69-1,.63,.15,.06,.31,.2,.31,.47,0,.36-.3,.77-.49,.88l-.1-3.79Z"/><path class="cls-3" d="M5.66,17.22c0-.97-.87-1.47-1.56-1.47-.92,0-1.42,.55-1.42,1.27,0,.41,.07,.67,.26,1.06,0,0,1.53,3.16,2.12,4.39,.07,.15,.1,.33,.1,.58,0,.39-.38,.71-.78,.72-.37,0-.76-.34-.76-.74,0-.48,.25-.7,.51-.7,.32,0,.45,.13,.45,.35,0,.16-.08,.22-.18,.22-.27,0-.2-.37-.2-.37-.13,.03-.25,.17-.18,.34-.1,.02-.19,.07-.26,.16,.07,.07,.16,.12,.26,.14-.06,.21,.02,.31,.21,.36-.04-.08-.04-.15-.03-.22,.29,.08,.73-.05,.73-.55s-.34-.91-.99-.81c.15-.07,.23-.22,.25-.39-.12,.05-.25,.05-.25,.05,.08-.13,.18-.25,.18-.51-.12,.05-.23,.16-.38,.09,.24-.47-.05-1.13-.81-1.28,.28,.32,.41,.67,.41,1.02,0,1.12-.31,1.31-.31,2.1,0,.33,.17,.68,.5,.92h0c-.22,.05-.36,.15-.44,.3,.5,.14,1.24,.14,1.63-.01,.45-.05,.77-.4,.86-.57,.09-.18,.27-.81,0-1.38-.3-.63-1.71-3.62-2.15-4.56-.09-.2-.15-.41-.15-.64,0-.58,.53-.78,.83-.78,.36,0,.73,.27,.73,.61,0,.22-.12,.35-.29,.35-.4,0-.38-.34-.3-.56-.25,.11-.4,.32-.36,.53-.14,.02-.28,.09-.41,.23,.1,.12,.22,.22,.41,.22-.08,.33,.14,.47,.36,.55-.07-.24-.12-.52,.3-.52,.3,0,.54-.05,.68-.25,0,.26,.03,1.29,.03,1.29,.02,.39-.52,.38-.86,.26,.13,.45,.39,.69,1,.63-.15,.06-.31,.2-.31,.47,0,.36,.3,.77,.49,.88l.1-3.79Z"/><path class="cls-3" d="M5.66,14.31c0,.97-.87,1.47-1.56,1.47-.92,0-1.42-.55-1.42-1.27,0-.41,.07-.67,.26-1.06,0,0,1.53-3.16,2.12-4.39,.07-.15,.1-.33,.1-.58,0-.39-.38-.71-.78-.72-.37,0-.76,.34-.76,.74,0,.48,.25,.7,.51,.7,.32,0,.45-.13,.45-.35,0-.16-.08-.22-.18-.22-.27,0-.2,.37-.2,.37-.13-.03-.25-.17-.18-.34-.1-.02-.19-.07-.26-.16,.07-.07,.16-.13,.26-.14-.06-.21,.02-.31,.21-.36-.04,.08-.04,.16-.03,.23,.29-.08,.73,.05,.73,.55s-.34,.91-.99,.81c.15,.07,.23,.22,.25,.39-.12-.05-.25-.05-.25-.05,.08,.13,.18,.25,.18,.51-.12-.05-.23-.16-.38-.09,.24,.47-.05,1.13-.81,1.28,.28-.32,.41-.67,.41-1.02,0-1.12-.31-1.31-.31-2.1,0-.33,.17-.68,.5-.92h0c-.22-.05-.36-.15-.44-.3,.5-.14,1.24-.14,1.63,.01,.45,.05,.77,.4,.86,.58,.09,.18,.27,.81,0,1.38-.3,.63-1.71,3.62-2.15,4.56-.09,.2-.15,.41-.15,.64,0,.58,.53,.78,.83,.78,.36,0,.73-.27,.73-.61,0-.22-.12-.35-.29-.35-.4,0-.38,.34-.3,.56-.25-.11-.4-.32-.36-.53-.14-.02-.28-.09-.41-.23,.1-.12,.22-.22,.41-.22-.08-.33,.14-.47,.36-.55-.07,.24-.12,.52,.3,.52,.3,0,.54,.05,.68,.25,0-.26,.03-1.29,.03-1.29,.02-.39-.52-.38-.86-.26,.13-.45,.39-.69,1-.63-.15-.06-.31-.2-.31-.47,0-.36,.3-.77,.49-.88l.1,3.78Z"/><path class="cls-3" d="M5.46,14.31c0,.97,.87,1.47,1.56,1.47,.92,0,1.42-.55,1.42-1.27,0-.41-.07-.67-.26-1.06,0,0-1.53-3.16-2.12-4.39-.07-.15-.1-.33-.1-.58,0-.39,.38-.71,.78-.72,.37,0,.76,.34,.76,.74,0,.48-.25,.7-.51,.7-.32,0-.45-.13-.45-.35,0-.16,.08-.22,.18-.22,.27,0,.2,.37,.2,.37,.13-.03,.25-.17,.18-.34,.1-.02,.19-.07,.26-.16-.07-.07-.16-.13-.26-.14,.06-.21-.02-.31-.21-.36,.04,.08,.04,.16,.03,.23-.29-.08-.73,.05-.73,.55s.34,.91,.99,.81c-.15,.07-.23,.22-.25,.39,.12-.05,.25-.05,.25-.05-.08,.13-.18,.25-.18,.51,.12-.05,.23-.16,.38-.09-.24,.47,.05,1.13,.81,1.28-.28-.32-.41-.67-.41-1.02,0-1.12,.31-1.31,.31-2.1,0-.33-.17-.68-.5-.92h0c.22-.05,.36-.15,.44-.3-.5-.14-1.24-.14-1.63,.01-.45,.05-.77,.4-.86,.58-.09,.18-.27,.81,0,1.38,.3,.63,1.71,3.62,2.15,4.56,.09,.2,.15,.41,.15,.64,0,.58-.53,.78-.83,.78-.36,0-.73-.27-.73-.61,0-.22,.12-.35,.29-.35,.4,0,.38,.34,.3,.56,.25-.11,.4-.32,.36-.53,.14-.02,.28-.09,.41-.23-.1-.12-.22-.22-.41-.22,.08-.33-.14-.47-.36-.55,.07,.24,.12,.52-.3,.52-.3,0-.54,.05-.68,.25,0-.26-.03-1.29-.03-1.29-.02-.39,.52-.38,.86-.26-.13-.45-.39-.69-1-.63,.15-.06,.31-.2,.31-.47,0-.36-.3-.77-.49-.88l-.1,3.78Z"/><path class="cls-3" d="M5.66,31.3c0,.97-.87,1.47-1.56,1.47-.92,0-1.42-.55-1.42-1.27,0-.41,.07-.67,.26-1.06,0,0,1.53-3.16,2.12-4.39,.07-.15,.1-.33,.1-.58,0-.39-.38-.72-.78-.73-.37,0-.76,.34-.76,.74,0,.48,.25,.7,.51,.7,.32,0,.45-.13,.45-.35,0-.15-.08-.22-.18-.22-.27,0-.2,.37-.2,.37-.13-.03-.25-.17-.18-.34-.1-.02-.19-.07-.26-.16,.07-.07,.16-.13,.26-.14-.06-.21,.02-.31,.21-.36-.04,.08-.04,.16-.03,.23,.29-.08,.73,.05,.73,.55s-.34,.91-.99,.81c.15,.07,.23,.22,.25,.39-.12-.04-.25-.05-.25-.05,.08,.13,.18,.25,.18,.51-.12-.05-.23-.16-.38-.09,.24,.47-.05,1.13-.81,1.28,.28-.32,.41-.67,.41-1.02,0-1.12-.31-1.31-.31-2.1,0-.33,.17-.68,.5-.92h0c-.22-.05-.36-.15-.44-.3,.5-.14,1.24-.14,1.63,.01,.45,.05,.77,.4,.86,.58,.09,.18,.27,.81,0,1.38-.3,.63-1.71,3.62-2.15,4.56-.09,.2-.15,.41-.15,.64,0,.58,.53,.78,.83,.78,.36,0,.73-.27,.73-.61,0-.22-.12-.35-.29-.35-.4,0-.38,.34-.3,.56-.25-.11-.4-.32-.36-.53-.14-.02-.28-.09-.41-.23,.1-.12,.22-.22,.41-.22-.08-.33,.14-.47,.36-.55-.07,.24-.12,.52,.3,.52,.3,0,.54,.05,.68,.25,0-.26,.03-1.29,.03-1.29,.02-.39-.52-.38-.86-.26,.13-.45,.39-.69,1-.63-.15-.06-.31-.2-.31-.47,0-.36,.3-.77,.49-.89l.1,3.79Z"/><path class="cls-3" d="M5.46,31.3c0,.97,.87,1.47,1.56,1.47,.92,0,1.42-.55,1.42-1.27,0-.41-.07-.67-.26-1.06,0,0-1.53-3.16-2.12-4.39-.07-.15-.1-.33-.1-.58,0-.39,.38-.72,.78-.73,.37,0,.76,.34,.76,.74,0,.48-.25,.7-.51,.7-.32,0-.45-.13-.45-.35,0-.15,.08-.22,.18-.22,.27,0,.2,.37,.2,.37,.13-.03,.25-.17,.18-.34,.1-.02,.19-.07,.26-.16-.07-.07-.16-.13-.26-.14,.06-.21-.02-.31-.21-.36,.04,.08,.04,.16,.03,.23-.29-.08-.73,.05-.73,.55s.34,.91,.99,.81c-.15,.07-.23,.22-.25,.39,.12-.04,.25-.05,.25-.05-.08,.13-.18,.25-.18,.51,.12-.05,.23-.16,.38-.09-.24,.47,.05,1.13,.81,1.28-.28-.32-.41-.67-.41-1.02,0-1.12,.31-1.31,.31-2.1,0-.33-.17-.68-.5-.92h0c.22-.05,.36-.15,.44-.3-.5-.14-1.24-.14-1.63,.01-.45,.05-.77,.4-.86,.58-.09,.18-.27,.81,0,1.38,.3,.63,1.71,3.62,2.15,4.56,.09,.2,.15,.41,.15,.64,0,.58-.53,.78-.83,.78-.36,0-.73-.27-.73-.61,0-.22,.12-.35,.29-.35,.4,0,.38,.34,.3,.56,.25-.11,.4-.32,.36-.53,.14-.02,.28-.09,.41-.23-.1-.12-.22-.22-.41-.22,.08-.33-.14-.47-.36-.55,.07,.24,.12,.52-.3,.52-.3,0-.54,.05-.68,.25,0-.26-.03-1.29-.03-1.29-.02-.39,.52-.38,.86-.26-.13-.45-.39-.69-1-.63,.15-.06,.31-.2,.31-.47,0-.36-.3-.77-.49-.89l-.1,3.79Z"/><path class="cls-3" d="M5.56,3.82s.46-.39,.62-.19c.25,.31-.77,1.87-.77,2.41,0,.9,.6,1.14,1.34,1.27,.5,.09,1.31-.04,1.31-.04-.15-.21-.25-.27-.51-.28,.29-.15,.58-.47,.58-.97,0-.77-.32-1.09-.32-1.96,0-.48,.4-1.1,.4-1.1-.7,.07-1.05,.72-.85,1.24-.11,.02-.21,0-.3-.09-.05,.14,.03,.31,.14,.45-.09,.05-.15,.02-.29,0,.01,.15,.1,.3,.32,.45-.63-.16-1.02,.28-1.02,.73,0,.35,.24,.6,.48,.6,.08,0,.19-.03,.26-.08,.04,.1,.02,.22-.03,.32,.17-.05,.29-.15,.21-.37,.13-.01,.24-.06,.31-.14-.07-.09-.19-.15-.31-.14,.1-.2-.01-.31-.17-.41,0,0,.1,.41-.16,.41-.12,0-.22-.04-.22-.21,0-.15,.13-.35,.43-.34,.3,.01,.54,.21,.54,.68,0,.44-.36,.66-.83,.68-.42,.01-.74-.22-.74-.65,0-.58,.84-1.9,.84-2.42,0-.39-.35-.61-.69-.61-.44,0-.82,.44-.82,.44l.26,.33Z"/><path class="cls-3" d="M5.56,3.82s-.46-.39-.62-.19c-.25,.31,.77,1.87,.77,2.41,0,.9-.6,1.14-1.34,1.27-.5,.09-1.31-.04-1.31-.04,.15-.21,.25-.27,.51-.28-.29-.15-.58-.47-.58-.97,0-.77,.32-1.09,.32-1.96,0-.48-.4-1.1-.4-1.1,.7,.07,1.05,.72,.85,1.24,.11,.02,.21,0,.3-.09,.05,.14-.03,.31-.14,.45,.09,.05,.15,.02,.29,0-.01,.15-.1,.3-.32,.45,.63-.16,1.02,.28,1.02,.73,0,.35-.24,.6-.48,.6-.08,0-.19-.03-.26-.08-.04,.1-.02,.22,.03,.32-.17-.05-.29-.15-.21-.37-.13-.01-.24-.06-.31-.14,.07-.09,.19-.15,.31-.14-.1-.2,.01-.31,.17-.41,0,0-.1,.41,.16,.41,.12,0,.22-.04,.22-.21,0-.15-.13-.35-.43-.34-.3,.01-.54,.21-.54,.68,0,.44,.36,.66,.83,.68,.42,.01,.74-.22,.74-.65,0-.58-.84-1.9-.84-2.42,0-.39,.35-.61,.69-.61,.44,0,.82,.44,.82,.44l-.26,.33Z"/><path class="cls-4" d="M4.66,31.22c0-.08-.18-.03-.3,0-.13,.03-.21,.09-.2,.17,0,.08,.17,.04,.3,.01,.13-.03,.21-.1,.2-.18h0Z"/><path class="cls-4" d="M4.24,31.49h-.04l-.09-.09c0-.1,.08-.19,.24-.22,.1-.02,.18-.04,.24-.04h.04l.08,.09c0,.1-.09,.19-.24,.23-.09,.02-.17,.04-.23,.04h0Z"/><path class="cls-3" d="M43.43,32.97c-6.52,.02-11.1-5.2-11.51-10.42,0,0-.26-.1-.29,.13-.08,.55,.15,2.25,.06,2.13-.16-.21-1.35-3.4-1.56-3.06-.29,.46,1.33,4.09,1.24,4.2-.33,.39-2.19-3.54-2.34-3.25-.57,1.1,2.3,4.67,2.28,4.82-.06,.47-2.18-1.92-2.36-1.66-.4,.58,2.28,2.68,2.42,2.85,.41,.48-1.47-.85-1.53-.39-.05,.38,.91,1.13,1.49,1.46,.57,.33,.76,.23,.92,.51,.12,.21-1.08-.14-1.04,.13,.06,.52,1.32,.41,1.51,.65,.19,.24-.85,.06-.81,.25,.07,.34,1.13,.39,1.15,.54,.02,.15-.67,.05-.62,.33,.04,.24,1.08,.19,1.33,.36,.25,.17-.93,.02,0,.48,.92,.46,1.98,.98,3.42,1.26,1.45,.28,2.18-.03,2.23-.13,.05-.09-.68,.08-1.71-.11-1.03-.19-2.39-.83-2.95-1.16-.18-.1,.54-.31,.39-.51-.15-.2-.73,.03-.96-.26-.14-.18,.27-.19,.26-.3,0-.11-.8-.29-.94-.49-.14-.2,.36-.17,.37-.3,.01-.1-.5-.27-.53-.4-.04-.13,.57-.09,.29-.25-.3-.17-1.13-.38-1.28-.68-.15-.29,.63,.04,.42-.24-.14-.19-.89-.51-1.05-.95-.11-.3,.53-.04,.54-.23,.02-.3-.38-.11-.51-.97-.04-.28,.5-.09,.5-.09l.07-.15s.64,.36,1.47,1.32c.83,.96,1.06,1.87,1.84,2.52,.37,.31,.38-.13,1.23,.4,.85,.53,1.2,.9,2.08,1.65,.12,.11,.7-.1,2.4,.25,.91,.19,1.1,.67,1.1,.67,0,.02,.51-.31,.75-.68,.1-.15,.19,0,.22-.03,.1-.09-.01-.2-.01-.2h0Z"/><path class="cls-3" d="M38.28,34.44c-.34,0-.71-.04-1.11-.12-1.5-.29-2.62-.85-3.43-1.26-.29-.14-.4-.24-.38-.33,.01-.09,.15-.12,.28-.14,.05,0,.12-.02,.13-.03-.12-.05-.38-.08-.63-.11-.38-.05-.72-.09-.74-.26v-.02s.03-.11,.03-.11c.07-.1,.24-.12,.39-.14,.07-.01,.19-.03,.21-.05-.02-.03-.21-.07-.35-.11-.33-.08-.75-.19-.8-.42,.07-.15,.22-.16,.47-.17,.13,0,.34-.01,.37-.05-.08-.09-.32-.13-.55-.17-.44-.07-.94-.16-.98-.51,.12-.25,.37-.16,.67-.13,.11,.01,.22,.02,.3,.02,0-.14-.09-.17-.26-.24-.13-.05-.31-.11-.56-.25-.54-.31-1.56-1.09-1.51-1.51,0-.05,.04-.14,.19-.14,.23,0,.66,.22,1.01,.4,.18,.09,.38,.19,.42,.19-.1-.05-.2-.14-.35-.27-1.24-1.07-2.46-2.21-2.15-2.67,.24-.05,.61,.28,1.19,.81,.44,.4,.98,.89,1.14,.89,0-.06-.17-.31-.35-.58-.76-1.1-2.35-3.4-1.9-4.27,.19-.04,.41,.32,.97,1.29,.45,.78,1.14,1.96,1.35,1.96,.02-.06-.18-.58-.36-1.07-.58-1.54-1.05-2.83-.86-3.13,.25-.06,.64,.72,1.28,2.24,.14,.33,.26,.62,.33,.75-.03-.11-.05-.33-.07-.55-.04-.53-.09-1.18-.05-1.49,.02-.12,.1-.2,.22-.2,.07,0,.13,.02,.13,.02,.43,5.14,4.81,10.42,11.45,10.42,.08,.02,.15,.09,.15,.17v.02s-.06,.09-.06,.09l-.07-.05-.08,.02c-.3,.41-.79,.75-.85,.75-.07-.08-.28-.5-1.11-.67-.94-.19-1.52-.22-1.88-.22h-.31c-.12,0-.19,0-.24-.04l-.51-.44c-.55-.48-.91-.79-1.57-1.21-.39-.24-.6-.27-.73-.27h-.16c-.1,0-.2-.02-.33-.13-.44-.37-.71-.82-1-1.3-.24-.39-.48-.8-.85-1.23-.81-.94-1.45-1.3-1.46-1.31v.13c-.07,.02-.24-.03-.37-.03-.06,0-.1,.01-.12,.03,.06,.57,.23,.7,.35,.79,.08,.06,.16,.12,.15,.26,0,.12-.16,.12-.22,.12h-.19c-.1,0-.13,0-.14,.02,.1,.33,.46,.57,.72,.74,.16,.1,.28,.18,.33,.26l.02,.02,.02,.12s-.09,.06-.14,.06h-.24c.03,.23,.44,.39,.77,.52,.17,.07,.32,.13,.42,.18,.05,.03,.11,.07,.1,.12,0,.07-.09,.09-.2,.11-.05,.01-.15,.03-.16,.05,.01,.04,.17,.12,.27,.18,.17,.09,.28,.15,.27,.23-.01,.09-.12,.12-.23,.15-.06,.02-.16,.05-.17,.08,.08,.13,.35,.24,.56,.32,.27,.11,.4,.16,.4,.23,0,.08-.08,.12-.17,.15-.05,.02-.12,.05-.13,.08,.13,.18,.34,.18,.54,.19,.18,0,.35,0,.44,.11l.03,.11c-.02,.1-.15,.19-.28,.27-.06,.04-.15,.1-.16,.12,.51,.29,1.89,.96,2.94,1.15,.34,.06,.68,.09,1.06,.09,.15,0,.27,0,.37,0h.17c.08,0,.13,0,.15,.04-.05,.16-.45,.33-1.18,.33h0Zm-6.82-4.08c-.14,0-.18,.02-.19,.03,.03,.3,.51,.38,.9,.45,.29,.05,.51,.08,.6,.19l.02,.02v.09c-.03,.08-.19,.09-.44,.1-.12,0-.35,.01-.38,.05,.04,.17,.44,.27,.73,.34,.28,.07,.41,.11,.42,.19,.01,.11-.13,.13-.29,.16-.12,.02-.28,.04-.32,.11,0,.16,.38,.21,.65,.24,.27,.03,.53,.07,.65,.15l.06,.1c-.01,.06-.09,.08-.2,.1-.05,.01-.18,.04-.2,.06,0,0,0,.06,.33,.23,.81,.41,1.92,.96,3.41,1.25,.39,.08,.75,.11,1.09,.11,.71,0,1.06-.17,1.09-.22l-.22,.05c-.1,0-.23,0-.38,0-.38,0-.73-.03-1.07-.09-1.06-.19-2.46-.87-2.97-1.17-.05-.15,.03-.2,.15-.28,.09-.06,.23-.14,.24-.21-.07-.11-.21-.11-.37-.11-.21,0-.46,0-.59-.18l-.04-.13c.02-.07,.1-.11,.18-.14,.03-.01,.1-.04,.11-.06-.02-.03-.21-.1-.34-.15-.25-.1-.51-.2-.59-.31l-.03-.13c.03-.08,.13-.11,.23-.14,.05-.01,.16-.05,.16-.07-.01-.02-.13-.09-.22-.13-.18-.1-.29-.16-.32-.24,.04-.12,.13-.15,.23-.17,.05-.01,.12-.03,.13-.04-.15-.07-.3-.13-.47-.19-.37-.14-.78-.3-.89-.52v-.02s-.01-.11-.01-.11c.05-.09,.19-.06,.3-.05h.11c-.01-.1-.13-.18-.28-.27-.29-.19-.64-.43-.75-.73-.02-.06-.02-.11,0-.15,.04-.06,.14-.07,.22-.07h.19c.06,0,.12,0,.12-.03,0-.09-.03-.12-.11-.17-.13-.09-.32-.24-.4-.78,0-.06,0-.11,.03-.14,.11-.12,.52,0,.53,0v-.13h.02c.1,0,.73,.36,1.55,1.31,.37,.43,.62,.84,.86,1.24,.28,.47,.55,.92,.98,1.28,.11,.09,.19,.11,.27,.11h.16c.16,0,.37,.03,.79,.28,.67,.42,1.03,.73,1.58,1.22l.51,.44s.13,.02,.17,.02h.31c.36,0,.95,.02,1.9,.21,.93,.19,1.13,.68,1.14,.7,0-.05,.45-.36,.67-.69,.04-.06,.09-.09,.14-.09l.1,.03v-.15s-.04,.05-.04,.05c-6.68,0-11.09-5.3-11.51-10.44-.02,0-.04,0-.07,0-.08,0-.12,.03-.13,.11-.04,.3,0,.98,.05,1.47,.04,.57,.05,.66,.01,.69-.13-.07-.25-.35-.46-.84-.3-.72-.94-2.21-1.11-2.23-.17,.29,.48,2.01,.87,3.05,.37,.96,.41,1.11,.37,1.16l-.09,.04c-.25,0-.73-.79-1.43-2-.34-.59-.73-1.26-.83-1.29-.4,.8,1.17,3.07,1.92,4.16,.33,.48,.4,.58,.39,.63v.04s-.11,.06-.11,.06c-.18,0-.58-.35-1.21-.92-.43-.39-.91-.83-1.04-.83-.31,.44,1.53,2.02,2.13,2.54,.15,.13,.26,.22,.28,.25,.06,.07,.08,.11,.07,.15-.13,.03-.26-.03-.52-.17-.32-.16-.76-.39-.97-.39-.08,0-.09,.04-.09,.06-.04,.33,.84,1.06,1.46,1.41,.24,.14,.41,.2,.54,.25,.18,.06,.29,.1,.4,.28-.05,.29-.26,.15-.48,.12-.12-.01-.26-.03-.37-.03h0Z"/><path class="cls-3" d="M47.81,34.91c-.24-.04-.21,.14-.21,.14,.02,.24-.15,.49-.35,.54-.15,.04-.08,.15-.13,.25l-.63-.03c-1.01,.55-2.27,.74-3.78,.57,0,0-.32,.24-.6,.49-.29,.25-.48,.3-.54,.51-.06,.2,.15,.31,.41,.32,.26,0,.6-.24,.6-.24,0,0,.04,.2,.28,.22,.24,.02,.68-.14,.68-.14,0,0,.37,.17,.65,.13,.28-.04,.52-.21,.52-.21,0,0,.07,.32,.35,.34,.28,.01,.71-.35,.71-.35,0,0,.2,.24,.46,.21,.26-.03,.57-.33,.57-.33,0,0,.32,.13,.62,.05,.3-.09,.58-.4,.58-.4,0,0,.27,.22,.51,.14,.24-.08,.4-.41,.4-.41,0,0,.64,.25,1.07,.05,.3-.14,.22-.62,.22-.62,0,0,1.77,.26,1.69-.9,0-.12-2.84-.08-4.09-.32h0Z"/><path class="cls-3" d="M45.09,37.84h-.02c-.26-.01-.36-.26-.39-.34-.03,.06-.23,.19-.47,.22-.34-.01-.66-.13-.67-.13,.02,0-.37,.15-.62,.15-.24-.02-.34-.15-.37-.24-.02,.07-.31,.25-.55,.25-.21,0-.37-.07-.44-.16-.04-.06-.05-.13-.03-.21,.04-.15,.15-.22,.3-.33,.07-.05,.16-.12,.26-.2,.28-.25,.6-.49,.6-.49,.39,.03,.73,.05,1.05,.05,1.05,0,1.97-.21,2.73-.62l.66,.03c-.03-.13-.02-.22,.11-.25,.18-.05,.33-.28,.31-.49,0,0-.01-.08,.04-.14,.03-.04,.08-.06,.15-.06,.77,.14,1.93,.18,2.86,.22,1.26,.05,1.34,.06,1.35,.15,.02,.25-.05,.46-.2,.62-.28,.29-.77,.36-1.15,.36h0c-.19,0-.34-.02-.39-.02,.05,.04,.09,.47-.21,.61-.35,.17-1.01-.01-1.1-.05,.02,.04-.14,.33-.37,.41-.22,.07-.5-.11-.55-.15,.01,.04-.26,.32-.55,.4-.26,.07-.61-.04-.65-.05,.02,.02-.29,.3-.55,.33h0c-.28,0-.46-.18-.49-.22,.01,.04-.38,.36-.66,.36h0Zm-.39-.42c.08,.04,.15,.32,.38,.33v.05s.01-.05,.01-.05c.26,0,.66-.33,.67-.34,.07,0,.24,.2,.44,.2,.28-.03,.58-.32,.58-.32,.05,0,.23,.06,.43,.06,.07,0,.14,0,.2-.03,.28-.08,.56-.38,.56-.38,.04,.01,.25,.14,.43,.14,.31-.09,.46-.4,.46-.4,.07-.02,.39,.1,.72,.1,.15,0,.27-.02,.38-.07,.27-.13,.19-.56,.19-.56,.06-.06,.22-.03,.44-.03h0c.35,0,.82-.06,1.07-.33,.13-.14,.19-.32,.17-.55-.05-.01-.66-.04-1.25-.06-.94-.04-2.1-.08-2.8-.21l-.13,.02c0,.33-.18,.6-.4,.66-.06,.02-.07,.04-.07,.1,0,.04,0,.08-.03,.13h-.68c-.98,.54-2.26,.73-3.78,.56,0,.01-.3,.24-.56,.48-.1,.09-.19,.15-.26,.21-.14,.1-.23,.16-.26,.28-.02,.05-.01,.09,.02,.13,.05,.07,.18,.12,.35,.12h0c.25,0,.57-.22,.57-.23,.08,.04,.12,.2,.32,.21h0c.27,0,.65-.14,.66-.14,.04,0,.33,.13,.58,.13,.34-.04,.57-.21,.57-.21h0Z"/><path class="cls-3" d="M44.05,33.69s.51-.2,1.42-.38c1.71-.35,2.29-.24,2.42-.34,1.35-1.5,2.34-1.62,3.32-2.01,.78-.65,1.04-1.59,1.86-2.55,.83-.96,1.31-1.04,1.31-1.04l.11,.21s.44-.33,.42-.05c-.04,.42-.39,.83-.37,1.13,0,.19,.61-.08,.55,.09-.14,.45-.62,.72-.75,.91-.21,.28,.54-.1,.39,.19-.15,.29-.91,.59-1.2,.78-.18,.12,.2,.14,.16,.27-.04,.13-.82,.42-.81,.52,.02,.13,.21,.15,.12,.25-.16,.18-.81,.2-.82,.31-.01,.11,.13,.23,0,.41-.22,.28-.4,0-.5,.23-.05,.13,.37,.4,.08,.45-.39,.07-.69,.24-1.02,.45-.13,.08-.7,.19-1.03,.27-.22,.06-1.43,.21-1.37,.3,.05,.09,.81,.08,2.42-.19,.7-.12,1.1-.21,2.19-.55,1.24-.39-.32-.42-.06-.59,.26-.17,1.34-.09,1.37-.33,.04-.28-.6-.19-.58-.35,.02-.14,1.31-.14,1.39-.48,.04-.19-.74-.06-.55-.29,.19-.24,1.22-.29,1.26-.73,.02-.27-.84,.05-.73-.16,.04-.09,.39-.18,.74-.43,.54-.38,1.4-1.03,1.36-1.41-.06-.46-1.79,1.07-1.64,.49,.05-.21,2.83-2.4,2.37-2.94-.31-.36-2.29,2-2.35,1.53-.02-.15,3.09-3.66,2.52-4.76-.15-.29-2.48,4.19-2.81,3.8-.09-.11,1.99-4.42,1.66-4.86-.16-.21-.49,.51-.84,1.3-.36,.8-.75,1.67-.83,1.78-.08,.12,.09-1.69,.01-2.24-.03-.23-.29-.13-.29-.13-.36,5.62-5.76,9.79-10.07,10.41-1.12,.16-1.48,.69-2.7,1.37-.41,.23-1.04,.34-1.59,.65-.55,.31-.94,.77-1.12,1.06-.09,.14,.04,.55,.15,.59,.12,.05,.11-.3,.24-.37,.13-.06,.13,.13,.28,.12,.15,0,.32-.15,.32-.15,0,0,3.04,0,4.34-.04,.23,0,.62-.1,.79-.28-.05-.14-.4-.06-.62-.05-.92-.07-2.12,0-2.98-.06,0,0-.14,0-.13-.15,0-.06,.55-.64,.55-.64h-.43s-.26,.15-.39,.16c-.13,.01-.18-.07-.13-.11,.66-.5,2.61-1.38,2.61-1.38h0Z"/><path class="cls-3" d="M39.63,36.69h-.04c-.09-.04-.15-.2-.17-.26-.04-.13-.07-.31,0-.41,.21-.33,.62-.78,1.14-1.07,.29-.16,.6-.27,.9-.37,.26-.09,.5-.17,.69-.28,.39-.22,.69-.43,.96-.61,.57-.39,.98-.66,1.75-.77,4.56-.65,9.68-4.97,10.03-10.37,.09-.12,.36-.07,.39,.13,.04,.3,.01,.96-.01,1.49-.02,.34-.03,.69-.02,.74,0-.1,.32-.83,.64-1.53l.11-.25c.42-.93,.63-1.37,.82-1.37h.02l.08,.06c.22,.29-.4,1.82-1.17,3.65-.25,.59-.48,1.15-.48,1.22,.24-.01,1.05-1.34,1.65-2.3,.69-1.13,.97-1.55,1.1-1.55,.51,.91-1.21,3.17-2.04,4.26-.2,.27-.4,.52-.41,.57,.14-.03,.56-.37,.93-.7,.5-.45,1.03-.92,1.28-.92h.02l.11,.05c.33,.38-.71,1.4-1.79,2.41-.27,.25-.55,.51-.57,.57,.12,.07,.4-.09,.67-.25,.49-.29,.94-.5,.97-.25,.04,.3-.42,.79-1.38,1.45-.18,.13-.36,.21-.5,.28-.1,.05-.21,.1-.22,.13,.11,0,.18,0,.24,0,.2-.02,.39-.03,.46,.05l.03,.1c-.02,.31-.43,.43-.8,.55-.21,.07-.41,.13-.47,.21,0,.06,.14,.08,.22,.09,.15,.02,.28,.03,.32,.1-.04,.32-.52,.4-.94,.47-.18,.03-.4,.07-.43,.1,.01,.01,.13,.04,.2,.05,.18,.04,.42,.08,.39,.29-.03,.17-.37,.2-.76,.24-.26,.02-.53,.05-.63,.12,0,0,.13,.04,.2,.07,.19,.05,.37,.11,.37,.22,0,.08-.06,.17-.52,.31-1.1,.35-1.49,.43-2.19,.55-1.25,.22-1.85,.25-2.1,.25-.29,0-.35-.04-.37-.08,.03-.12,.24-.17,.99-.3,.19-.03,.35-.06,.42-.07,.1-.03,.23-.06,.36-.09,.27-.06,.58-.13,.65-.18,.32-.2,.62-.38,1.04-.46,.07-.05,.01-.13-.02-.17-.06-.08-.13-.17-.1-.25,.04-.09,.09-.13,.18-.13l.11,.05v-.05c.06,0,.13-.01,.21-.12,.08-.1,.05-.17,.03-.25-.02-.04-.03-.09-.03-.14,0-.09,.14-.12,.35-.16,.18-.04,.4-.09,.48-.18-.06-.09-.12-.13-.13-.21,0-.08,.09-.13,.4-.29,.15-.08,.39-.2,.41-.25,0-.02-.05-.05-.09-.08-.06-.03-.12-.06-.12-.12v-.03s.07-.07,.07-.07c.09-.06,.22-.12,.36-.19,.33-.16,.73-.37,.83-.57-.07-.05-.12-.04-.17-.03-.05,0-.11,.02-.15,.02l-.1-.05s0-.1,.04-.14c.05-.06,.12-.13,.21-.21,.2-.17,.44-.39,.53-.68-.07,0-.12,.01-.18,.02-.23,.04-.37-.02-.37-.09,0-.16,.08-.34,.17-.53,.09-.2,.19-.4,.2-.6-.11-.06-.26,.04-.34,.1l-.18-.23s-.47,.15-1.24,1.04c-.37,.42-.62,.84-.86,1.24-.29,.49-.57,.95-1.01,1.32-.19,.08-.36,.14-.54,.2-.83,.29-1.68,.58-2.78,1.81-.06,.06-.18,.06-.43,.08-.37,.02-.98,.06-2.02,.28-.9,.18-1.41,.38-1.41,.38-.02,0-1.95,.88-2.59,1.37,.19,0,.39-.09,.46-.13h.45c-.21,.34-.48,.65-.5,.7l.08,.14v-.05c.86,.05,2.06,0,2.98,.06h.15c.19-.04,.44-.1,.51,.09-.19,.24-.6,.33-.83,.34-1.28,.04-4.26,.04-4.34,.04,0,0-.16,.14-.32,.15h0c-.1,0-.15-.05-.18-.09-.11-.02-.15,.08-.17,.15-.03,.1-.06,.19-.14,.19h0Zm15.42-14.11c-.05,0-.1,.02-.1,.02-.32,5.4-5.48,9.75-10.08,10.41-.75,.11-1.15,.38-1.71,.76-.27,.18-.57,.39-.97,.61-.2,.11-.44,.2-.7,.28-.3,.1-.6,.21-.89,.36-.5,.28-.9,.72-1.1,1.04-.03,.05-.03,.19,.02,.33,.04,.11,.08,.19,.11,.2h0s.04-.08,.05-.12c.03-.09,.06-.2,.14-.24,.13-.02,.16,.02,.19,.05,.03,.04,.06,.06,.1,.06,.14,0,.3-.14,.3-.14,.03-.01,3.07-.02,4.37-.05,.21,0,.59-.09,.75-.26-.03,.01-.08,0-.18,0-.07,0-.16,0-.24,.02h-.17c-.93-.05-2.12,0-2.98-.04,0,0-.09,0-.14-.07-.03-.03-.04-.08-.04-.13,0-.05,.19-.28,.56-.67l-.39,.08h0s-.24,.15-.38,.16c-.11,0-.18-.03-.2-.09v-.03s.03-.07,.03-.07c.65-.5,2.54-1.35,2.62-1.38,0,0,.52-.2,1.43-.39,1.04-.22,1.66-.26,2.03-.28,.2-.01,.33-.02,.37-.05,1.12-1.24,1.98-1.54,2.82-1.83,.17-.06,.35-.12,.52-.19,.41-.35,.69-.8,.98-1.29,.24-.4,.5-.82,.87-1.25,.83-.96,1.32-1.05,1.34-1.05l.16,.23s.18-.18,.31-.18l.09,.04s.04,.07,.03,.13c-.02,.22-.12,.44-.21,.64-.08,.18-.17,.35-.16,.49,.13,.03,.2,.01,.26,0,.06,0,.12-.02,.17-.02l.11,.04c-.09,.4-.36,.64-.55,.81-.09,.08-.16,.14-.2,.19,.02,.03,.07,.03,.12,.02,.06,0,.12-.02,.16-.02h.03l.1,.05c.03,.05,0,.12-.01,.14-.12,.22-.52,.43-.87,.61-.14,.07-.26,.13-.35,.19,.11,.09,.21,.15,.18,.24-.02,.08-.17,.16-.46,.31-.14,.07-.32,.16-.34,.2,0,.03,.04,.05,.07,.08l.07,.1c-.14,.2-.37,.25-.57,.3-.11,.03-.26,.06-.28,.09,.05,.17,.1,.29-.02,.43-.11,.14-.21,.16-.29,.16h-.11s-.06,0-.09,.06c-.01,.03,.05,.11,.09,.16,.06,.08,.12,.17,.09,.24-.02,.04-.06,.07-.13,.08-.4,.07-.69,.24-1,.44-.09,.06-.38,.12-.69,.19-.13,.03-.26,.06-.36,.08-.07,.02-.23,.04-.42,.08-.26,.04-.73,.12-.88,.17,.11,0,.43,.09,2.33-.24,.69-.12,1.08-.2,2.18-.55,.45-.14,.45-.21,.45-.22,0-.04-.22-.1-.3-.13-.18-.05-.27-.08-.28-.15v-.03s.05-.06,.05-.06c.12-.08,.39-.11,.68-.13,.26-.03,.66-.06,.67-.16,.02-.11-.12-.14-.31-.18-.15-.03-.28-.06-.27-.16,.01-.09,.15-.12,.51-.17,.33-.05,.84-.14,.88-.31-.02-.04-.16-.06-.26-.07-.15-.02-.29-.03-.32-.11v-.03s.03-.1,.03-.1c.08-.1,.28-.17,.52-.24,.33-.11,.71-.22,.73-.46-.03-.07-.2-.06-.38-.04-.15,.02-.29,.05-.34-.04,.03-.16,.12-.2,.27-.27,.14-.07,.31-.15,.49-.27,1.2-.84,1.35-1.21,1.33-1.36-.21-.04-.53,.15-.82,.33-.3,.18-.57,.34-.71,.34l-.1-.04s-.03-.08-.01-.15c.02-.07,.17-.21,.6-.62,.73-.68,2.08-1.94,1.78-2.28-.26,0-.83,.48-1.27,.88-.5,.45-.82,.73-.98,.73h-.04l-.07-.11c0-.05,.06-.14,.43-.63,.82-1.07,2.51-3.31,2.09-4.12-.08,.04-.57,.83-.99,1.52-.87,1.41-1.46,2.34-1.73,2.34-.13-.09-.1-.19,.39-1.35,.52-1.23,1.39-3.29,1.19-3.55-.16,0-.51,.74-.76,1.29l-.11,.25c-.33,.74-.64,1.44-.72,1.54-.12-.03-.12-.13-.09-.79,.02-.53,.05-1.18,.01-1.47-.01-.08-.05-.11-.13-.11h0Z"/><path class="cls-4" d="M41.04,35.53c0-.07-.15-.03-.25,0-.11,.02-.17,.08-.16,.14,0,.07,.14,.03,.25,0,.11-.02,.18-.08,.17-.15h0Z"/><path class="cls-4" d="M40.69,35.76h-.04l-.07-.08c0-.09,.07-.16,.2-.19,.09-.02,.15-.04,.2-.04h.05l.07,.08c0,.09-.07,.17-.21,.2-.07,.02-.14,.03-.19,.03h0Z"/><path class="cls-3" d="M44.93,13.49c.37,.07,.55-.13,.6-.41,.07-.37-.08-2.21-.08-2.21,0,0-.85,1.64-.92,2.01-.05,.27,.04,.54,.4,.61h0Z"/><path class="cls-3" d="M46.27,13.9c.35,.14,.56-.02,.67-.28,.14-.34,.35-2.18,.35-2.18,0,0-1.15,1.45-1.3,1.79-.11,.26-.07,.53,.28,.67h0Z"/><path class="cls-3" d="M47.5,14.56c.31,.2,.56,.09,.71-.15,.21-.31,.77-2.07,.77-2.07,0,0-1.41,1.19-1.62,1.5-.15,.23-.17,.51,.14,.72h0Z"/><path class="cls-3" d="M48.58,15.44c.27,.26,.53,.19,.73,0,.26-.26,1.16-1.88,1.16-1.88,0,0-1.62,.89-1.88,1.16-.2,.2-.27,.46,0,.73h0Z"/><path class="cls-3" d="M49.47,16.52c.21,.31,.48,.29,.71,.14,.31-.21,1.5-1.62,1.5-1.62,0,0-1.76,.56-2.07,.77-.23,.16-.35,.4-.14,.71h0Z"/><path class="cls-3" d="M50.13,17.76c.15,.34,.42,.38,.68,.28,.34-.14,1.79-1.3,1.79-1.3,0,0-1.84,.21-2.18,.35-.26,.11-.43,.33-.28,.67h0Z"/><path class="cls-3" d="M50.54,19.09c.08,.37,.33,.46,.61,.4,.37-.07,2.01-.92,2.01-.92,0,0-1.84-.16-2.21-.08-.28,.05-.48,.24-.41,.6h0Z"/><path class="cls-3" d="M50.67,20.49c0,.37,.24,.51,.52,.51,.37,0,2.15-.51,2.15-.51,0,0-1.78-.51-2.15-.51-.28,0-.52,.14-.52,.51h0Z"/><path class="cls-3" d="M50.54,21.88c-.07,.37,.13,.55,.41,.6,.37,.07,2.21-.08,2.21-.08,0,0-1.64-.85-2.01-.92-.27-.05-.54,.04-.61,.4h0Z"/><path class="cls-3" d="M50.13,23.21c-.14,.35,.02,.57,.28,.67,.34,.14,2.18,.35,2.18,.35,0,0-1.45-1.15-1.79-1.3-.26-.11-.53-.07-.68,.28h0Z"/><path class="cls-3" d="M49.47,24.45c-.2,.31-.09,.56,.14,.71,.31,.21,2.07,.77,2.07,.77,0,0-1.19-1.41-1.5-1.62-.23-.15-.51-.17-.71,.14h0Z"/><path class="cls-3" d="M48.58,25.53c-.26,.27-.2,.53,0,.73,.26,.26,1.88,1.16,1.88,1.16,0,0-.89-1.62-1.16-1.88-.2-.2-.46-.27-.73,0h0Z"/><path class="cls-3" d="M47.5,26.42c-.31,.21-.29,.48-.14,.71,.21,.31,1.62,1.5,1.62,1.5,0,0-.56-1.76-.77-2.07-.16-.23-.4-.35-.71-.15h0Z"/><path class="cls-3" d="M46.27,27.08c-.34,.15-.38,.42-.28,.67,.14,.34,1.3,1.79,1.3,1.79,0,0-.21-1.84-.35-2.18-.11-.26-.33-.42-.67-.28h0Z"/><path class="cls-3" d="M39.58,26.42c-.31-.2-.56-.09-.71,.15-.21,.31-.77,2.07-.77,2.07,0,0,1.41-1.19,1.62-1.5,.16-.23,.17-.51-.14-.71h0Z"/><path class="cls-3" d="M38.5,25.53c-.27-.26-.53-.2-.73,0-.27,.26-1.16,1.88-1.16,1.88,0,0,1.62-.89,1.88-1.16,.2-.2,.27-.46,0-.73h0Z"/><path class="cls-3" d="M37.61,24.45c-.21-.31-.48-.29-.72-.14-.31,.21-1.5,1.62-1.5,1.62,0,0,1.76-.56,2.07-.77,.23-.16,.35-.4,.15-.71h0Z"/><path class="cls-3" d="M36.95,23.21c-.15-.34-.42-.38-.67-.28-.35,.14-1.79,1.3-1.79,1.3,0,0,1.84-.21,2.18-.35,.26-.11,.42-.33,.28-.67h0Z"/><path class="cls-3" d="M36.54,21.88c-.08-.37-.33-.46-.61-.4-.37,.07-2.01,.92-2.01,.92,0,0,1.84,.16,2.21,.08,.27-.05,.48-.24,.41-.6h0Z"/><path class="cls-3" d="M36.41,20.49c0-.37-.24-.51-.52-.51-.37,0-2.15,.51-2.15,.51,0,0,1.78,.51,2.15,.51,.28,0,.52-.14,.52-.51h0Z"/><path class="cls-3" d="M36.54,19.09c.07-.37-.13-.55-.41-.6-.37-.07-2.21,.08-2.21,.08,0,0,1.64,.85,2.01,.92,.28,.05,.54-.04,.61-.4h0Z"/><path class="cls-3" d="M36.95,17.76c.14-.35-.02-.57-.28-.67-.35-.14-2.18-.35-2.18-.35,0,0,1.45,1.15,1.79,1.3,.26,.11,.53,.07,.67-.28h0Z"/><path class="cls-3" d="M37.61,16.52c.2-.31,.09-.56-.15-.71-.31-.21-2.07-.77-2.07-.77,0,0,1.19,1.41,1.5,1.62,.23,.16,.51,.17,.72-.14h0Z"/><path class="cls-3" d="M38.5,15.44c.26-.27,.19-.53,0-.73-.26-.26-1.88-1.16-1.88-1.16,0,0,.89,1.62,1.16,1.88,.2,.2,.46,.27,.73,0h0Z"/><path class="cls-3" d="M43.53,14.21c3.47,0,6.28,2.81,6.28,6.28s-2.81,6.28-6.28,6.28-6.28-2.81-6.28-6.28,2.81-6.28,6.28-6.28h0Z"/><path class="cls-3" d="M43.54,13.35c.37,0,.51-.24,.51-.52,0-.37-.51-2.15-.51-2.15,0,0-.51,1.78-.51,2.15,0,.28,.14,.52,.51,.52h0Z"/><path class="cls-3" d="M44.93,27.48c-.37,.08-.46,.33-.4,.61,.07,.37,.92,2.01,.92,2.01,0,0,.16-1.84,.08-2.21-.05-.27-.24-.48-.6-.41h0Z"/><path class="cls-3" d="M43.54,27.62c-.37,0-.51,.24-.51,.52,0,.37,.51,2.15,.51,2.15,0,0,.51-1.78,.51-2.15,0-.28-.14-.52-.51-.52h0Z"/><path class="cls-3" d="M42.15,27.48c-.37-.07-.55,.13-.6,.41-.07,.37,.08,2.21,.08,2.21,0,0,.85-1.64,.92-2.01,.05-.27-.04-.54-.4-.61h0Z"/><path class="cls-3" d="M40.81,27.08c-.35-.14-.56,.02-.67,.28-.14,.34-.35,2.18-.35,2.18,0,0,1.15-1.45,1.3-1.79,.11-.26,.07-.53-.28-.67h0Z"/><path class="cls-3" d="M39.58,14.56c.31-.21,.29-.48,.14-.72-.21-.31-1.62-1.5-1.62-1.5,0,0,.56,1.76,.77,2.07,.16,.23,.4,.35,.71,.15h0Z"/><path class="cls-3" d="M40.81,13.9c.34-.15,.38-.42,.28-.67-.14-.34-1.3-1.79-1.3-1.79,0,0,.2,1.84,.35,2.18,.11,.26,.33,.42,.67,.28h0Z"/><path class="cls-3" d="M42.15,13.49c.37-.08,.46-.33,.4-.61-.07-.37-.92-2.01-.92-2.01,0,0-.16,1.84-.08,2.21,.05,.27,.24,.48,.6,.41h0Z"/></g></g></g></svg>