<?xml version="1.0" encoding="UTF-8"?><svg id="Ebene_2" xmlns="http://www.w3.org/2000/svg" xmlns:xlink="http://www.w3.org/1999/xlink" viewBox="0 0 83.18 48.52"><defs><style>.cls-1{fill:none;}.cls-2{clip-path:url(#clippath);}.cls-3{fill:#fff;}.cls-4{fill:#aa0017;}.cls-5{fill:#2a680b;}.cls-6{clip-path:url(#clippath-1);}</style><clipPath id="clippath"><rect class="cls-1" width="83.18" height="48.52"/></clipPath><clipPath id="clippath-1"><rect class="cls-1" width="83.18" height="48.52"/></clipPath></defs><g id="Layer_1"><g class="cls-2"><rect class="cls-3" width="83.18" height="48.52"/><rect width="83.18" height="14.56"/><rect class="cls-5" y="33.97" width="83.18" height="14.56"/><g class="cls-6"><path d="M32.57,38.67l.53,.3,14.15-24.54c.83-.22,1.28-1.01,1.74-1.8,.3-.52,1.51-2.63,2.04-5.36-2.1,1.82-3.31,3.92-3.61,4.45-.45,.79-.91,1.58-.69,2.4l-14.15,24.54Z"/><path d="M33.11,39.03l-.56-.32,14.14-24.59c-.23-.81,.24-1.62,.69-2.4,1.25-2.18,2.66-3.62,3.62-4.46-.17,1.29-.72,3.24-1.98,5.41-.45,.78-.92,1.59-1.76,1.82l-14.15,24.55h0ZM50.99,7.27c-.89,.87-2.29,2.31-3.54,4.47-.44,.77-.9,1.56-.68,2.37l-14.16,24.57,.47,.23,14.14-24.5c.84-.24,1.29-1.03,1.74-1.8,1.25-2.16,1.79-4.1,2.03-5.34h0Z"/><path class="cls-3" d="M32.57,38.67l.53,.3,14.15-24.54c.83-.22,1.28-1.01,1.74-1.8,.3-.52,1.51-2.63,2.04-5.36-2.1,1.82-3.31,3.92-3.61,4.45-.45,.79-.91,1.58-.69,2.4l-14.15,24.54Z"/><path d="M49.89,38.67l-.53,.3-14.15-24.54c-.83-.22-1.28-1.01-1.74-1.8-.3-.52-1.52-2.63-2.04-5.36,2.1,1.82,3.31,3.92,3.62,4.45,.45,.79,.91,1.58,.69,2.4l14.15,24.54Z"/><path d="M49.35,39.03l-.02-.04-14.15-24.54c-.82-.21-1.28-1.02-1.73-1.8-1.26-2.18-1.81-4.12-2.05-5.37,1.03,.8,2.44,2.25,3.69,4.42,.45,.78,.92,1.59,.69,2.44l14.15,24.51-.58,.38h0ZM31.41,7.31c.31,1.2,.85,3.14,2.1,5.3,.44,.77,.9,1.56,1.71,1.78l14.16,24.52,.49-.28-14.17-24.48c.21-.85-.25-1.64-.69-2.4-1.25-2.16-2.65-3.61-3.61-4.44h0Z"/><path class="cls-3" d="M49.89,38.67l-.53,.3-14.15-24.54c-.83-.22-1.28-1.01-1.74-1.8-.3-.52-1.52-2.63-2.04-5.36,2.1,1.82,3.31,3.92,3.62,4.45,.45,.79,.91,1.58,.69,2.4l14.15,24.54Z"/><path class="cls-4" d="M0,16.98v14.56H35.48c.91,2.43,3.94,7.28,5.76,7.28s4.85-4.85,5.76-7.28h36.19v-14.56H46.99c-.91-2.43-3.94-7.28-5.76-7.28s-4.85,4.85-5.76,7.28H0Z"/><path d="M46.99,31.54c.91-2.43,1.52-4.85,1.52-7.28s-.61-4.85-1.52-7.28c-.91,2.43-1.51,4.85-1.51,7.28s.61,4.85,1.51,7.28h0Z"/><path d="M35.48,31.54c-.91-2.43-1.51-4.85-1.51-7.28s.61-4.85,1.51-7.28c.91,2.43,1.52,4.85,1.52,7.28s-.61,4.85-1.52,7.28h0Z"/><path class="cls-3" d="M41.23,22.44c.67,0,1.21,.81,1.21,1.82s-.54,1.82-1.21,1.82-1.21-.82-1.21-1.82,.54-1.82,1.21-1.82h0Z"/><path class="cls-3" d="M41.54,26.04s1.21,2.43,1.21,6.37-1.21,6.37-1.21,6.37v-12.74Z"/><path class="cls-3" d="M40.93,22.49s-1.21-2.43-1.21-6.37,1.21-6.37,1.21-6.37v12.74Z"/><path class="cls-3" d="M40.93,26.04s-1.21,2.43-1.21,6.37,1.21,6.37,1.21,6.37v-12.74Z"/><path class="cls-3" d="M41.54,22.49s1.21-2.43,1.21-6.37-1.21-6.37-1.21-6.37v12.74Z"/></g></g></g></svg>