<?xml version="1.0" encoding="UTF-8"?><svg id="Ebene_2" xmlns="http://www.w3.org/2000/svg" xmlns:xlink="http://www.w3.org/1999/xlink" viewBox="0 0 83.18 48.52"><defs><style>.cls-1{fill:none;}.cls-2{clip-path:url(#clippath);}.cls-3{fill:#f9f02a;}.cls-4{fill:#d50037;}.cls-5{clip-path:url(#clippath-1);}</style><clipPath id="clippath"><rect class="cls-1" width="83.18" height="48.52"/></clipPath><clipPath id="clippath-1"><rect class="cls-1" width="83.18" height="48.52"/></clipPath></defs><g id="Layer_1"><g class="cls-2"><rect class="cls-4" width="83.18" height="48.52"/><g class="cls-5"><path class="cls-3" d="M56.2,24.31c-1.88,.47-3.91-1.03-5.66-.72,0-.02,0-.04,0-.07,1.68-.8,4.46,.09,5.48-1.5-1.78,.76-4.01-.4-5.68,.17,0-.02,0-.05-.02-.07,1.54-1.04,4.41-.6,5.16-2.32-1.63,1.02-4,.24-5.56,1.05,0-.02-.02-.05-.03-.07,1.36-1.25,4.25-1.28,4.72-3.09-1.45,1.26-3.9,.87-5.32,1.9-.01-.02-.03-.05-.04-.07,1.15-1.44,3.98-1.92,4.17-3.78-1.23,1.47-3.71,1.47-4.95,2.7-.02-.02-.04-.04-.05-.07,.92-1.59,3.63-2.51,3.52-4.37-.98,1.64-3.42,2.02-4.46,3.43-.02-.02-.05-.04-.07-.06,.67-1.71,3.18-3.04,2.79-4.85-.71,1.76-3.05,2.53-3.86,4.07-.03-.02-.05-.03-.08-.05,.4-1.79,2.67-3.49,1.99-5.21-.43,1.85-2.61,2.97-3.17,4.61-.03-.01-.06-.02-.09-.04,.12-1.83,2.08-3.86,1.15-5.45-.13,1.89-2.11,3.34-2.41,5.05-.03,0-.06-.02-.09-.02-.16-1.82,1.45-4.13,.28-5.56,.17,1.89-1.56,3.63-1.59,5.36-.03,0-.06,0-.1,0-.44-1.78,.79-4.31-.59-5.53,.46,1.84-.97,3.83-.73,5.54-.03,0-.06,0-.1,0-.72-1.68,.1-4.38-1.45-5.37,.74,1.75-.36,3.93,.14,5.59-.03,0-.06,.01-.09,.02-.97-1.55-.58-4.34-2.27-5.08,1.01,1.61,.26,3.95,1.02,5.51-.03,.01-.06,.02-.08,.04-1.21-1.38-1.26-4.21-3.05-4.67,1.25,1.44,.87,3.87,1.88,5.29-.03,.02-.05,.03-.08,.05-1.42-1.16-1.91-3.97-3.75-4.15,1.46,1.23,1.46,3.7,2.7,4.95-.02,.02-.04,.04-.06,.06-1.59-.92-2.51-3.63-4.37-3.52,1.64,.99,2.03,3.44,3.45,4.47-.02,.02-.04,.04-.05,.06-1.73-.65-3.06-3.2-4.88-2.8,1.78,.72,2.55,3.1,4.12,3.89-.01,.02-.03,.04-.04,.07-1.81-.36-3.53-2.69-5.27-2,1.88,.43,3.01,2.68,4.69,3.2,0,.02-.02,.04-.03,.07-1.85-.06-3.92-2.1-5.54-1.15,1.93,.13,3.4,2.19,5.16,2.43,0,.02,0,.04-.02,.06-1.84,.24-4.22-1.47-5.67-.27,1.94-.17,3.72,1.65,5.49,1.59,0,.02,0,.04,0,.06-1.78,.55-4.41-.79-5.67,.63,1.89-.47,3.94,1.05,5.7,.71,0,.02,0,.04,0,.05-1.67,.83-4.49-.08-5.52,1.52,1.8-.77,4.08,.43,5.75-.2,0,.02,0,.03,.01,.05-1.52,1.1-4.47,.63-5.23,2.37,1.67-1.04,4.11-.2,5.67-1.11,0,.01,.01,.03,.02,.04-1.32,1.34-4.33,1.33-4.81,3.18,1.49-1.3,4.05-.84,5.44-1.99,0,0,.01,.02,.02,.03-1.08,1.54-4.08,2-4.27,3.91,1.27-1.52,3.88-1.46,5.07-2.83,0,0,.02,.02,.02,.02-.81,1.7-3.72,2.62-3.61,4.55,1.02-1.7,3.62-2.05,4.57-3.6,0,0,.02,.01,.02,.02-.53,1.82-3.27,3.18-2.86,5.07,.74-1.84,3.26-2.6,3.96-4.28,0,0,.01,0,.02,.01-.23,1.88-2.74,3.66-2.03,5.46,.45-1.94,2.82-3.08,3.24-4.85,0,0,.02,0,.02,0,.07,1.9-2.13,4.05-1.15,5.72,.14-1.99,2.31-3.48,2.44-5.31,0,0,.02,0,.02,0,.37,1.86-1.47,4.33-.24,5.83-.18-1.99,1.73-3.8,1.58-5.62,0,0,.02,0,.02,0,.66,1.78-.78,4.51,.67,5.8-.48-1.93,1.12-4.03,.68-5.8,0,0,.02,0,.02,0,.93,1.66-.06,4.58,1.57,5.62-.78-1.83,.47-4.15-.23-5.83,0,0,.02,0,.02,0,1.17,1.49,.65,4.53,2.43,5.3-1.05-1.69-.19-4.16-1.14-5.72,0,0,.02,0,.02,0,1.39,1.29,1.35,4.37,3.22,4.85-1.3-1.5-.83-4.08-2.01-5.46,0,0,.02,0,.02-.01,1.56,1.06,2.01,4.1,3.94,4.29-1.52-1.27-1.46-3.88-2.83-5.07,0,0,.02-.01,.03-.02,1.7,.81,2.62,3.72,4.54,3.61-1.69-1.02-2.05-3.59-3.58-4.56,0,0,.02-.02,.03-.03,1.8,.55,3.16,3.26,5.04,2.85-1.82-.74-2.58-3.21-4.23-3.94,0-.01,.02-.02,.02-.04,1.86,.28,3.62,2.72,5.4,2.03-1.91-.44-3.04-2.75-4.78-3.22,0-.02,.01-.03,.02-.05,1.87,0,3.98,2.12,5.63,1.16-1.95-.14-3.42-2.22-5.2-2.43,0-.02,0-.04,.01-.05,1.85-.28,4.25,1.47,5.72,.26-1.94,.17-3.72-1.65-5.49-1.59,0-.02,0-.04,0-.06,1.78-.55,4.41,.79,5.67-.63m-6.68,.91c-.04,.39-.12,.78-.22,1.15,.05,.01,.1,.02,.16,.03-.06,.01-.12,.03-.18,.04-.11,.38-.24,.75-.4,1.1,.05,.02,.1,.04,.15,.05-.06,0-.12,0-.18,.01-.16,.36-.35,.7-.57,1.03,.04,.03,.09,.05,.15,.08-.06,0-.12-.01-.19-.02-.22,.33-.46,.64-.72,.93,.04,.03,.08,.07,.13,.1-.06-.02-.12-.03-.18-.04-.26,.29-.55,.56-.86,.8,.03,.04,.07,.08,.12,.12-.06-.03-.12-.05-.17-.07-.31,.24-.63,.46-.97,.66,.03,.04,.06,.09,.1,.13-.05-.04-.11-.07-.16-.1-.34,.19-.69,.36-1.06,.5,.02,.05,.04,.1,.07,.15-.05-.04-.09-.08-.14-.12-.36,.13-.74,.24-1.13,.33,.01,.05,.03,.1,.05,.16-.04-.05-.08-.1-.12-.14-.38,.08-.77,.12-1.16,.15,0,.05,.01,.1,.02,.16-.03-.06-.06-.11-.1-.16-.11,0-.22,0-.33,0-.29,0-.57-.01-.84-.04,0,.05,0,.1,0,.16-.02-.06-.04-.12-.07-.17-.39-.04-.78-.12-1.15-.22-.01,.05-.02,.1-.03,.16-.01-.06-.03-.12-.04-.18-.38-.11-.75-.24-1.11-.4-.02,.05-.04,.1-.05,.16,0-.06,0-.13-.01-.18-.36-.16-.7-.35-1.03-.57-.03,.04-.05,.09-.08,.15,0-.06,.01-.13,.02-.18-.33-.22-.63-.46-.93-.72-.03,.04-.07,.08-.1,.13,.02-.06,.03-.12,.04-.18-.29-.27-.56-.55-.8-.86-.04,.03-.08,.07-.12,.12,.03-.06,.05-.12,.07-.17-.24-.31-.46-.63-.66-.97-.04,.03-.09,.06-.13,.09,.04-.05,.07-.11,.1-.16-.19-.34-.36-.69-.5-1.06-.05,.02-.1,.04-.15,.07,.04-.05,.08-.09,.12-.14-.13-.36-.24-.74-.33-1.13-.05,.01-.1,.03-.16,.05,.05-.04,.1-.08,.14-.12-.08-.38-.12-.77-.15-1.17-.05,0-.1,.01-.16,.03,.06-.03,.11-.06,.16-.1,0-.11,0-.22,0-.33,0-.28,.02-.56,.04-.84-.05,0-.11,0-.16,0,.06-.02,.12-.04,.17-.07,.04-.39,.12-.78,.22-1.15-.05-.01-.1-.02-.16-.03,.06-.01,.12-.03,.18-.04,.11-.38,.24-.75,.4-1.1-.05-.02-.1-.04-.15-.05,.06,0,.12,0,.18-.01,.16-.36,.36-.7,.57-1.03-.04-.03-.09-.05-.15-.08,.06,0,.13,.01,.19,.02,.22-.33,.46-.64,.72-.93-.04-.03-.08-.07-.13-.1,.06,.02,.12,.03,.18,.04,.27-.29,.55-.56,.86-.8-.03-.04-.07-.08-.12-.12,.06,.03,.12,.05,.17,.07,.3-.24,.63-.46,.97-.66-.03-.04-.06-.09-.09-.13,.05,.04,.11,.07,.16,.1,.34-.19,.7-.36,1.06-.5-.02-.05-.04-.09-.07-.15,.04,.04,.09,.08,.14,.12,.36-.14,.74-.25,1.13-.33-.01-.05-.03-.1-.05-.16,.04,.05,.08,.1,.12,.14,.38-.08,.77-.12,1.17-.14,0-.05-.01-.1-.03-.16,.03,.06,.06,.11,.1,.16,.11,0,.22,0,.33,0,.28,0,.56,.01,.84,.04,0-.05,0-.11,0-.16,.02,.06,.04,.12,.07,.17,.39,.04,.78,.12,1.15,.22,.01-.05,.02-.1,.03-.16,.01,.06,.03,.12,.04,.18,.38,.11,.75,.24,1.1,.4,.02-.05,.04-.1,.05-.16,0,.06,0,.13,.01,.18,.36,.16,.7,.35,1.03,.57,.03-.04,.05-.09,.08-.15,0,.06-.01,.12-.02,.18,.33,.22,.64,.46,.93,.72,.03-.04,.07-.08,.1-.13-.02,.06-.03,.12-.04,.18,.29,.26,.56,.55,.8,.86,.04-.03,.08-.07,.12-.12-.03,.06-.05,.12-.07,.17,.24,.31,.46,.63,.66,.97,.04-.03,.09-.06,.13-.1-.04,.05-.07,.11-.1,.16,.19,.34,.36,.69,.5,1.06,.05-.02,.1-.04,.15-.07-.04,.05-.08,.09-.12,.14,.14,.36,.25,.74,.33,1.13,.05-.01,.1-.03,.16-.05-.05,.04-.1,.08-.14,.12,.08,.38,.12,.77,.14,1.16,.05,0,.11-.01,.16-.02-.06,.03-.11,.06-.16,.1,0,.11,0,.22,0,.33,0,.29-.02,.57-.04,.84,.05,0,.11,0,.16,0-.06,.02-.12,.04-.17,.07"/><path class="cls-3" d="M40.88,19.75c-1.11-.46-2.3-.74-3.56-.79-.1,.09-.2,.18-.29,.28,1.2,.06,2.34,.32,3.39,.76,.15-.09,.3-.17,.46-.25"/><path class="cls-3" d="M45.44,18.53c-1.07-.78-2.38-1.25-3.8-1.25s-2.73,.46-3.8,1.25c1.34,.05,2.62,.35,3.8,.85,1.17-.5,2.46-.8,3.8-.85"/><path class="cls-3" d="M39.8,20.4c-.98-.41-2.04-.67-3.14-.74-.07,.09-.14,.17-.21,.26,1.05,.08,2.05,.34,2.98,.74,.12-.09,.24-.18,.37-.27"/><path class="cls-3" d="M42.55,22.16c-.13,.1-.26,.21-.38,.31,1.82,1.71,2.97,4.14,3.03,6.84,.2-.13,.39-.28,.58-.43-.17-2.67-1.38-5.04-3.23-6.72"/><path class="cls-3" d="M42.87,20.01c1.05-.44,2.2-.7,3.39-.76-.09-.1-.19-.19-.29-.28-1.26,.05-2.46,.33-3.56,.79,.15,.08,.31,.17,.46,.25"/><path class="cls-3" d="M43.62,21.44c-.15,.09-.3,.18-.45,.27,1.82,1.58,3.08,3.81,3.44,6.32,.18-.22,.35-.45,.5-.7-.48-2.35-1.74-4.41-3.49-5.9"/><path class="cls-3" d="M38.93,21.06c-.85-.39-1.77-.65-2.74-.76-.64,1.02-1.02,2.23-1.02,3.53,0,.78,.14,1.53,.39,2.23,.64-1.97,1.83-3.7,3.37-5"/><path class="cls-3" d="M43.86,20.66c.93-.4,1.93-.66,2.98-.74-.07-.09-.13-.18-.21-.26-1.11,.07-2.17,.33-3.14,.74,.12,.09,.25,.17,.37,.27"/><path class="cls-3" d="M38.96,29.51c0,.1,0,.19,0,.29,.82,.38,1.72,.59,2.68,.59s1.86-.21,2.68-.59c0-.09,0-.19,0-.29,0-2.56-1.03-4.87-2.68-6.55-1.66,1.68-2.68,3.99-2.68,6.55"/><path class="cls-3" d="M41.65,20.11c-.16,.08-.31,.17-.46,.25,.16,.08,.31,.17,.46,.25,.15-.09,.3-.17,.46-.25-.15-.09-.3-.17-.46-.25"/><path class="cls-3" d="M44.37,21.06c1.54,1.3,2.73,3.03,3.37,5,.25-.7,.38-1.45,.38-2.23,0-1.3-.38-2.51-1.02-3.53-.96,.11-1.89,.37-2.74,.76"/><path class="cls-3" d="M41.12,22.47c-.12-.11-.25-.21-.38-.31-1.85,1.68-3.06,4.05-3.23,6.72,.18,.15,.38,.3,.58,.43,.05-2.7,1.21-5.12,3.03-6.84"/><path class="cls-3" d="M41.26,21.71c.13,.1,.26,.19,.38,.29,.12-.1,.25-.2,.38-.29-.12-.1-.25-.19-.38-.29-.13,.09-.26,.19-.38,.29"/><path class="cls-3" d="M40.12,21.72c-.15-.1-.3-.19-.45-.27-1.75,1.49-3.01,3.55-3.49,5.9,.15,.24,.32,.48,.5,.7,.36-2.52,1.62-4.74,3.44-6.33"/><path class="cls-3" d="M42.27,21.02c.13,.09,.26,.18,.38,.27,.15-.09,.3-.18,.46-.26-.12-.09-.25-.18-.38-.27-.15,.08-.31,.17-.46,.26"/><path class="cls-3" d="M40.18,21.03c.15,.08,.31,.17,.46,.26,.12-.09,.25-.19,.38-.27-.15-.09-.3-.18-.46-.26-.13,.09-.25,.18-.38,.27"/></g></g></g></svg>