<?xml version="1.0" encoding="UTF-8"?><svg id="Ebene_2" xmlns="http://www.w3.org/2000/svg" xmlns:xlink="http://www.w3.org/1999/xlink" viewBox="0 0 83.18 48.52"><defs><style>.cls-1{fill:none;}.cls-2{clip-path:url(#clippath);}.cls-3{fill:#fff;}.cls-4{fill:#1f189b;}.cls-5{fill:#3d9546;}.cls-6{clip-path:url(#clippath-1);}</style><clipPath id="clippath"><rect class="cls-1" width="83.18" height="48.52"/></clipPath><clipPath id="clippath-1"><rect class="cls-1" width="83.18" height="48.52"/></clipPath></defs><g id="Layer_1"><g class="cls-2"><rect class="cls-3" width="83.18" height="48.52"/><rect class="cls-5" y="33.97" width="83.18" height="14.56"/><rect class="cls-4" width="83.18" height="14.56"/><g class="cls-6"><path d="M41.55,15.46c-.28,0-.55,.31-.55,.31l.02,3.27-1.03,1.08h.84v1.88s-4.96,6.66-4.96,6.66l-.73-.25-1.28,2.73s3.16,1.98,7.75,1.93c5.04-.06,7.78-2.02,7.78-2.02l-1.32-2.69-.65,.28-5.01-6.63v-1.93s.83,0,.83,0l-1.14-1.07v-3.26s-.28-.29-.55-.29h0Z"/><path d="M41.43,33.1c-4.45,0-7.55-1.91-7.58-1.93l1.26-2.77,.78,.23,4.91-6.65v-1.86s-.8,.04-.8,.04l1.01-1.14-.03-3.25s.29-.34,.58-.35c.3,0,.58,.29,.59,.3v3.29s1.13,1.04,1.13,1.04l-.86,.06,.04,1.9,5,6.61,.6-.29,1.37,2.71c-.04,.06-2.81,2.01-7.81,2.07h-.19Zm-7.53-1.95c.06,0,3.14,1.88,7.53,1.88h.19c4.97-.06,7.73-1.99,7.75-2.01l-1.33-2.65-.6,.3-5.05-6.64v-1.95s.86-.04,.86-.04l-1.16-1.01v-3.29h0s-.27-.25-.52-.25c-.27,0-.53,.3-.53,.3l.03,3.25-1.04,1.11,.81-.06,.03,1.91-4.95,6.68-.77-.24-1.23,2.71s0,0,0,0h0Z"/><path d="M43.39,23.47h-3.65l-.05-.1c-.05-.11-1.26-2.68-1.05-4.54,.2-1.84,1.24-2.9,2.86-2.92h0c1.78,0,2.72,.9,2.99,2.84,.27,1.88-1,4.51-1.05,4.62l-.05,.1h0Zm-3.42-.36h3.19c.23-.5,1.2-2.74,.98-4.32-.25-1.75-1.05-2.53-2.59-2.53-1.49,.02-2.38,.94-2.56,2.6-.17,1.56,.76,3.75,.98,4.25h0Z"/><path class="cls-3" d="M35.57,29.53c-.06,.07-.47,.89-.47,.89l.71-.15-.24-.75Z"/><polygon class="cls-3" points="35.98 30.59 35.24 30.83 36.13 31.19 35.98 30.59"/><polygon class="cls-3" points="36.32 29.55 36.69 30.65 37.6 30.39 37.36 29.87 36.32 29.55"/><polygon class="cls-3" points="36.9 31.04 37.03 31.49 38.24 31.79 37.75 30.76 36.9 31.04"/><polygon class="cls-3" points="38.24 30.11 38.67 31.13 39.58 30.78 39.28 30.33 38.24 30.11"/><polygon class="cls-3" points="38.83 31.51 38.98 31.9 40.4 32.1 39.8 31.17 38.83 31.51"/><polygon class="cls-3" points="40.2 30.41 40.72 31.32 42.04 30.83 41.89 30.48 40.2 30.41"/><polygon class="cls-3" points="40.96 31.66 41.24 32.14 42.88 32.08 42.27 31.17 40.96 31.66"/><polygon class="cls-3" points="42.69 30.44 43.14 31.21 44.19 30.7 43.91 30.29 42.69 30.44"/><polygon class="cls-3" points="44.41 31.02 43.37 31.54 43.64 31.99 45.04 31.77 44.41 31.02"/><polygon class="cls-3" points="44.74 30.22 45.29 30.89 46.16 30.2 45.86 29.88 44.74 30.22"/><polygon class="cls-3" points="46.35 30.57 45.51 31.21 45.73 31.6 46.89 31.3 46.35 30.57"/><polygon class="cls-3" points="47.5 29.25 47.71 29.55 47.13 30.41 46.53 29.64 47.5 29.25"/><polygon class="cls-3" points="47.89 30 48.25 30.7 47.54 30.95 47.48 30.61 47.89 30"/></g></g></g></svg>