<?xml version="1.0" encoding="UTF-8"?><svg id="Ebene_2" xmlns="http://www.w3.org/2000/svg" xmlns:xlink="http://www.w3.org/1999/xlink" viewBox="0 0 83.18 48.52"><defs><style>.cls-1{fill:none;}.cls-2{clip-path:url(#clippath);}.cls-3{fill:#fff;}.cls-4{fill:#ae0037;}.cls-5{fill:#192967;}</style><clipPath id="clippath"><rect class="cls-1" width="83.18" height="48.52"/></clipPath></defs><g id="Layer_1"><g class="cls-2"><polygon class="cls-4" points="22.05 0 0 26.47 0 30.88 2.21 33.08 0 35.29 0 39.7 2.21 41.91 0 44.11 0 48.52 83.18 48.52 83.18 44.11 80.98 41.91 83.18 39.7 83.18 35.29 80.98 33.08 83.18 30.88 83.18 26.47 80.98 24.26 83.18 22.06 83.18 17.64 80.98 15.44 83.18 13.23 83.18 8.82 80.98 6.62 83.18 4.41 83.18 0 22.05 0"/><path class="cls-3" d="M0,44.11H83.18v-4.41H0v4.41Zm0-8.82H83.18v-4.41H0v4.41ZM22.05,4.41L0,22.06v4.41H83.18v-4.41H22.05l-4.41-4.41H83.18v-4.41H17.64v-4.41H83.18V4.41H22.05Z"/><rect class="cls-5" width="22.05" height="22.06"/><polygon class="cls-3" points="11.03 4.41 8.98 10.7 12.76 11.93 11.03 4.41"/><polygon class="cls-3" points="11.03 4.41 13.07 10.7 9.3 11.93 11.03 4.41"/><polygon class="cls-3" points="17.32 8.98 10.7 8.98 10.7 12.95 17.32 8.98"/><polygon class="cls-3" points="17.32 8.98 11.97 12.87 9.63 9.66 17.32 8.98"/><polygon class="cls-3" points="14.92 16.38 12.87 10.09 9.1 11.32 14.92 16.38"/><polygon class="cls-3" points="14.92 16.38 9.56 12.49 11.9 9.28 14.92 16.38"/><polygon class="cls-3" points="7.14 16.38 12.49 12.49 10.16 9.28 7.14 16.38"/><polygon class="cls-3" points="7.14 16.38 9.18 10.09 12.96 11.32 7.14 16.38"/><polygon class="cls-3" points="4.73 8.98 10.09 12.87 12.42 9.66 4.73 8.98"/><polygon class="cls-3" points="4.73 8.98 11.35 8.98 11.35 12.95 4.73 8.98"/></g></g></svg>