<?xml version="1.0" encoding="UTF-8"?><svg id="Ebene_2" xmlns="http://www.w3.org/2000/svg" xmlns:xlink="http://www.w3.org/1999/xlink" viewBox="0 0 83.18 48.52"><defs><style>.cls-1{fill:none;}.cls-2{clip-path:url(#clippath);}.cls-3{fill:#bc0030;}.cls-4{fill:#4f9f3a;}.cls-5{clip-path:url(#clippath-1);}</style><clipPath id="clippath"><rect class="cls-1" width="83.18" height="48.52"/></clipPath><clipPath id="clippath-1"><rect class="cls-1" width="83.18" height="48.52"/></clipPath></defs><g id="Layer_1"><g class="cls-2"><rect width="83.18" height="24.26"/><rect class="cls-4" y="24.26" width="83.18" height="24.26"/><rect class="cls-3" y="16.18" width="83.18" height="16.17"/><g class="cls-5"><path class="cls-3" d="M41.59,8.01c-4.54,0-8.4,2.9-9.84,6.96h19.67c-1.43-4.05-5.29-6.96-9.84-6.96"/><path class="cls-3" d="M41.59,1.94c-.35,0-.49,.53-.49,1.05,0,1.27,.15,1.93,.49,3.8,.33-1.87,.48-2.53,.48-3.8,0-.53-.13-1.05-.48-1.05m-1.44,.06c-.35,.03-.44,.57-.39,1.09,.11,1.26,.32,1.91,.81,3.75,.17-1.89,.26-2.57,.15-3.83-.04-.52-.22-1.04-.57-1.01m2.87,0c-.35-.03-.52,.48-.57,1.01-.11,1.26-.01,1.94,.15,3.83,.49-1.84,.7-2.48,.81-3.75,.05-.52-.04-1.06-.39-1.09m-4.23,.19s-.05,0-.07,0c-.35,.06-.38,.6-.29,1.12,.22,1.25,.49,1.87,1.14,3.66,0-1.9,.04-2.58-.18-3.83-.09-.48-.29-.95-.6-.96m5.6,0c-.31,0-.51,.47-.6,.96-.22,1.25-.18,1.93-.18,3.83,.65-1.79,.92-2.41,1.14-3.66,.09-.52,.05-1.05-.29-1.12-.02,0-.05,0-.07,0m-7.01,.3s-.04,0-.06,0c-.34,.09-.33,.63-.2,1.14,.33,1.22,.65,1.83,1.46,3.55-.17-1.89-.19-2.58-.52-3.8-.13-.48-.37-.92-.68-.9m8.41,0c-.31-.02-.55,.42-.68,.9-.33,1.22-.35,1.91-.52,3.8,.8-1.72,1.13-2.32,1.45-3.55,.14-.51,.14-1.05-.2-1.14-.02,0-.04,0-.06,0m-9.72,.43s-.08,0-.12,.02c-.33,.12-.28,.66-.1,1.15,.43,1.19,.8,1.76,1.75,3.41-.33-1.87-.41-2.55-.84-3.74-.16-.43-.41-.83-.69-.84m11.04,0c-.28,.01-.54,.41-.69,.84-.43,1.19-.51,1.87-.84,3.74,.95-1.64,1.32-2.21,1.75-3.41,.18-.49,.23-1.03-.1-1.15-.04-.02-.08-.02-.12-.02m-12.37,.54s-.08,.01-.12,.03c-.32,.15-.22,.68,0,1.16,.54,1.15,.96,1.68,2.05,3.24-.49-1.83-.63-2.5-1.17-3.65-.19-.42-.48-.79-.76-.78m13.71,0c-.28-.01-.57,.36-.76,.78-.54,1.15-.68,1.81-1.17,3.65,1.09-1.56,1.51-2.09,2.05-3.24,.22-.48,.32-1.01,0-1.16-.04-.02-.08-.03-.12-.03m-14.99,.65s-.08,.02-.12,.04c-.3,.18-.16,.7,.11,1.15,.63,1.1,1.1,1.6,2.32,3.05-.65-1.79-.85-2.44-1.48-3.54-.23-.4-.55-.75-.83-.71m16.2,0c-.26,.02-.55,.34-.77,.71-.63,1.1-.83,1.75-1.48,3.54,1.22-1.46,1.69-1.96,2.32-3.05,.26-.46,.41-.98,.11-1.15-.06-.03-.12-.04-.18-.04m-17.36,.76c-.06,0-.12,.02-.17,.06-.29,.2-.09,.71,.21,1.14,.73,1.04,1.23,1.49,2.57,2.84-.8-1.72-1.05-2.35-1.78-3.39-.24-.35-.56-.65-.83-.64m18.58,0c-.26,0-.58,.29-.83,.64-.73,1.04-.98,1.67-1.78,3.39,1.34-1.34,1.85-1.8,2.57-2.84,.3-.43,.49-.94,.21-1.14-.05-.04-.11-.05-.17-.06m-19.73,.86c-.06,0-.12,.04-.17,.08-.27,.23-.04,.71,.3,1.12,.81,.97,1.36,1.38,2.82,2.6-.95-1.64-1.26-2.25-2.07-3.22-.28-.33-.62-.6-.88-.57m20.82,0c-.25,.01-.57,.27-.82,.57-.81,.97-1.12,1.58-2.07,3.22,1.46-1.22,2-1.63,2.82-2.6,.34-.4,.57-.89,.3-1.12-.07-.06-.14-.08-.23-.08m-21.82,.95c-.08,0-.16,.03-.22,.1-.25,.25,.03,.71,.4,1.09,.9,.9,1.48,1.26,3.03,2.35-1.09-1.56-1.45-2.14-2.35-3.03-.28-.28-.61-.51-.87-.5m22.89,0c-.25,0-.59,.22-.87,.5-.9,.89-1.26,1.47-2.35,3.03,1.56-1.09,2.14-1.45,3.03-2.35,.37-.37,.65-.84,.4-1.09-.06-.06-.14-.09-.22-.1m-23.8,1.04c-.11,0-.21,.03-.28,.12-.23,.27,.09,.71,.49,1.04,.97,.81,1.58,1.12,3.22,2.07-1.22-1.46-1.63-2-2.6-2.81-.28-.23-.6-.41-.84-.42m24.72,0c-.24,0-.56,.19-.84,.42-.97,.81-1.37,1.36-2.6,2.81,1.65-.95,2.25-1.26,3.22-2.07,.4-.34,.72-.78,.49-1.04-.07-.08-.17-.12-.28-.12m-25.61,1.12c-.11,0-.21,.05-.27,.14-.2,.29,.16,.7,.59,1,1.04,.73,1.67,.98,3.39,1.78-1.34-1.34-1.8-1.85-2.84-2.57-.29-.21-.63-.37-.87-.35m26.42,0c-.23,.01-.53,.16-.8,.35-1.04,.73-1.49,1.23-2.84,2.57,1.72-.8,2.35-1.05,3.39-1.78,.43-.3,.79-.71,.59-1-.08-.11-.2-.15-.34-.14m-27.14,1.19c-.14,0-.26,.05-.32,.17-.17,.3,.21,.68,.67,.95,1.1,.63,1.75,.83,3.54,1.48-1.46-1.22-1.96-1.69-3.05-2.32-.29-.16-.59-.28-.83-.27m27.93,0c-.24,0-.54,.11-.83,.27-1.1,.63-1.6,1.1-3.05,2.32,1.79-.65,2.44-.85,3.54-1.48,.46-.26,.84-.64,.67-.95-.07-.12-.18-.16-.32-.17m-28.46,1.24c-.21-.01-.38,.04-.46,.2-.15,.32,.27,.66,.75,.88,1.15,.54,1.81,.68,3.65,1.17-1.56-1.09-2.09-1.51-3.24-2.05-.24-.11-.49-.19-.7-.2m28.99,0c-.21,.01-.46,.09-.7,.2-1.15,.54-1.68,.96-3.24,2.05,1.84-.49,2.5-.63,3.65-1.17,.47-.22,.89-.56,.75-.88-.07-.16-.24-.21-.46-.2m-29.56,1.29c-.21,0-.37,.08-.44,.24-.12,.33,.33,.63,.82,.81,1.19,.43,1.87,.51,3.74,.84-1.65-.95-2.22-1.32-3.41-1.75-.25-.09-.51-.15-.72-.15m30.13,0c-.21,0-.47,.06-.72,.15-1.19,.43-1.76,.8-3.41,1.75,1.87-.33,2.55-.41,3.74-.84,.49-.18,.94-.48,.82-.81-.06-.16-.22-.24-.44-.24m-30.42,1.33c-.29,0-.52,.07-.58,.28-.09,.34,.38,.61,.89,.74,.07,.02,.14,.03,.21,.05h2.6c-1.02-.48-1.6-.74-2.55-.99-.19-.05-.39-.08-.56-.09m30.71,0c-.18,0-.37,.04-.56,.09-.95,.26-1.54,.52-2.55,.99h2.6c.07-.02,.13-.03,.21-.05,.51-.14,.98-.4,.89-.74-.06-.21-.29-.29-.58-.28"/></g></g></g></svg>