<?xml version="1.0" encoding="UTF-8"?><svg id="Ebene_2" xmlns="http://www.w3.org/2000/svg" xmlns:xlink="http://www.w3.org/1999/xlink" viewBox="0 0 83.18 48.52"><defs><style>.cls-1{fill:none;}.cls-2{clip-path:url(#clippath);}.cls-3{fill:#f9f92b;}.cls-4{fill:#efd928;}.cls-5{fill:#7f6332;}.cls-6{fill:#d00524;}.cls-7{fill:#c11b2c;}.cls-8{fill:#1f00af;}.cls-9{fill:#285f37;}.cls-10{fill:#2e59a0;}.cls-11{clip-path:url(#clippath-1);}</style><clipPath id="clippath"><rect class="cls-1" width="83.18" height="48.52"/></clipPath><clipPath id="clippath-1"><rect class="cls-1" width="83.18" height="48.52"/></clipPath></defs><g id="Layer_1"><g class="cls-2"><rect class="cls-4" width="83.18" height="48.52"/><rect class="cls-8" width="27.73" height="48.52"/><rect class="cls-6" x="55.45" width="27.73" height="48.52"/><g class="cls-11"><path d="M38.81,10.86c-.17,0-.32,.04-.41,.11,.14,.04,.24,.17,.24,.32v.4h-.39c-.16,0-.28-.1-.32-.24-.07,.09-.11,.24-.11,.41s.04,.32,.11,.41c.04-.14,.17-.24,.32-.24h.39v1.9c0,.15-.09,.27-.22,.32,.19,.03,.35,.28,.39,.42,.04-.14,.21-.39,.39-.42-.13-.04-.23-.17-.23-.32v-1.9h.39c.16,0,.28,.1,.32,.24,.07-.09,.11-.24,.11-.41s-.04-.32-.11-.41c-.04,.14-.17,.24-.32,.24h-.39v-.4c0-.15,.1-.28,.24-.32-.09-.07-.24-.11-.41-.11"/><path class="cls-3" d="M38.81,10.94c-.09,0-.17,.02-.23,.04,.09,.08,.15,.19,.15,.32v.4s0,0,0,.02v.06h-.06s-.01,0-.01,0h-.4c-.13,0-.24-.06-.31-.14-.02,.07-.04,.14-.04,.23s.02,.17,.04,.23c.08-.09,.19-.15,.32-.15h.48s0,.02,0,.02v.04s0,.01,0,.02v1.9c0,.12-.06,.22-.15,.3,.06,.04,.11,.08,.16,.14,.04,.05,.05,.09,.08,.14,.03-.05,.04-.09,.08-.14,.04-.05,.09-.1,.15-.13-.08-.08-.15-.18-.15-.3v-1.98h.06s.01,0,.02,0h.39c.13,0,.24,.06,.31,.14,.02-.07,.04-.14,.04-.23s-.02-.17-.04-.23c-.08,.09-.19,.15-.32,.15h-.39s-.01,0-.02,0h-.06v-.06s0-.01,0-.02v-.4c0-.13,.06-.24,.14-.31-.07-.02-.14-.04-.23-.04"/><polygon class="cls-5" points="39.11 17.84 38.45 17.69 37.09 16.97 36.22 16.92 36.16 15.24 34.5 13.91 32.81 15.74 32.57 16.27 32.64 32.89 33.74 31.57 33.97 31.62 35.1 30.4 36.06 27.97 36.35 26.97 37.64 28.5 37.15 29.4 37.6 29.37 37.63 29.75 38.04 29.58 38.15 30.1 39.06 29.19 40.31 29.8 37.93 34.04 37.08 34.67 38.61 35.24 40.18 33.42 39.95 34.62 39.49 35.78 41.39 36.88 43.46 35.65 42.45 33.52 42.78 33.37 44.12 35.31 45.58 34.59 43.68 32.36 42.43 29.69 43.75 29.25 44.65 30.12 44.78 29.55 45.26 29.78 45.2 29.32 45.68 29.42 45.09 28.5 46.57 27.26 47.5 30.18 48.88 31.75 49.17 31.71 50.17 32.95 50.16 15.83 48.32 13.88 46.52 15.35 46.6 16.92 45.79 16.95 44.59 17.57 43.92 17.79 43.6 17.85 43.19 17.4 42.64 16.3 42.6 15.21 42.94 14.5 42.88 13.83 43.19 13.83 42.99 13.38 43.26 13.27 42.86 12.92 43 12.75 41.48 12.1 40.32 12.02 40 12.16 39.85 12.44 40.16 13.31 39.83 13.64 40.15 14.28 40.17 15.67 39.91 16.85 39.38 17.74 39.11 17.84"/><polygon class="cls-7" points="37.35 29.43 36.2 31.19 35.64 31.17 35.07 31.44 34.88 32.07 34.97 32.35 35.59 33.03 36.1 32.74 36.51 32.3 36.61 31.91 38.06 30.02 37.99 29.55 37.67 29.75 37.55 29.37 37.35 29.43"/><polygon class="cls-7" points="44.69 29.96 46.23 32.03 46.38 32.44 47.06 33.05 47.26 33 48 32.13 47.83 31.54 47.14 31.12 46.62 31.17 45.45 29.43 45.25 29.35 45.17 29.69 44.83 29.58 44.69 29.96"/><path d="M40.67,11.93c-.19,0-.47,0-.63,.11-.15,.1-.14,.23-.19,.27-.12,.11-.34,.1-.44,.1-.66,0-.69,.71-.69,.71,0,0,.17-.26,.47-.26,.5,0,.87,.27,.87,.37,0,.04-.05,.05-.05,.05-.33,0-.82-.19-1.08-.2v.1s0,0,.01,0c0,0,0,0-.01,0v.02c.58,.2,1.17,.49,1.17,1.75,0,.79-.09,1.6-.49,2.24-.14,.23-.34,.42-.58,.59-.11-.03-.61-.19-.97-.39-.62-.35-.95-.69-1.69-.73v-.56c0-.3,.11-.57,.11-.86-.31-.08-1.18-1.14-1.98-1.61-1.18,.76-2.09,2.01-2.09,2.59,0,0,.04,12.36,0,16.67,0,.25-.15,.6-.15,.6,.43-.18,1.22-1.26,1.38-1.67v.2c.65-.3,1.12-1.07,1.34-1.48,0,.06,.01,.2,.01,.2,.58-.51,1.32-3.51,1.32-3.51l-.04-.63s-.51,2.45-1.09,2.96v-10.56l.46,.43,.7-.65v-.5l-.62,.58v-1.49c.09-.14,.16-.25,.2-.33,.1,.17,.42,.71,.8,1.04,.06-.25,.47-.5,.47-.5,0,0,.15,.4,.37,.5,.08-.14,.55-.45,.55-.45,0,0-.41,.06-.57,.21-.14-.03-.18-.59-.18-.59,0,0-.6,.29-.7,.5-.11-.03-.29-.48-.36-.66,.1-.01,.25-.03,.44-.03,.17,0,.39,.08,.62,.19,.25,.12,.51,.27,.75,.37,.3,.14,.75,.16,.88,.17-.15,.11-.32,.2-.5,.29,0,0,.71,0,1.21-.26,.18-.11,.37-.23,.52-.36-.07,.19-.18,.42-.34,.61,.74-.06,1.1-.48,1.21-.62,.05,.13,.14,.33,.27,.5,.14-.17,.23-.38,.27-.5,.1,.14,.47,.56,1.21,.62-.17-.19-.27-.42-.34-.61,.16,.14,.34,.25,.52,.36,.5,.25,1.21,.26,1.21,.26-.18-.09-.35-.19-.5-.29,.13,0,.59-.03,.89-.17,.23-.11,.5-.25,.75-.37,.23-.11,.45-.19,.62-.19,.19,0,.34,.01,.44,.03-.07,.18-.25,.63-.36,.66-.1-.21-.7-.5-.7-.5,0,0-.04,.56-.18,.59-.16-.15-.57-.21-.57-.21,0,0,.47,.31,.55,.45,.23-.1,.37-.5,.37-.5,0,0,.41,.24,.48,.5,.38-.33,.7-.86,.8-1.04,.05,.09,.11,.2,.2,.33v1.49l-.62-.58v.5l.7,.65,.46-.43v10.56c-.58-.5-1.09-2.96-1.09-2.96l-.04,.63s.74,3,1.32,3.51c0,0,0-.15,.01-.2,.21,.4,.69,1.18,1.34,1.48v-.2c.17,.41,.95,1.49,1.38,1.67,0,0-.15-.35-.15-.6-.04-4.31,0-16.67,0-16.67,0-.58-.91-1.83-2.09-2.59-.8,.47-1.67,1.53-1.98,1.61,0,.29,.11,.56,.11,.86v.56c-.74,.03-1.06,.38-1.69,.73-.36,.2-.87,.36-.97,.39-.24-.17-.44-.36-.58-.59-.34-.54-.48-1.21-.48-1.89,0-.29,.32-.61,.32-.84,0-.35-.03-.56-.03-.56,.11,.02,.31,.22,.31,.22,0,0,0-.58-.19-.68,0,0,.08-.08,.34-.08-.08-.19-.45-.42-.45-.42,.02-.03,.05-.06,.1-.09,.09-.05,.23-.09,.33-.11-.11-.02-.23-.06-.37-.1-.31-.1-.68-.25-1.02-.41-.62-.3-1.1-.32-1.36-.32m.01,.17c.06,0,.11,0,.16,0,.61,0,1.04,.28,1.61,.53,.15,.07,.29,.12,.41,.16-.08,.07-.14,.14-.15,.2,0,0,.26,.05,.37,.26,0,0-.25,.03-.29,.17,.14,.01,.27,.18,.28,.35l-.35-.11s.08,.39,.08,.82c0,.22-.31,.47-.31,.84,0,1.16,.29,1.6,.5,1.96,.08,.14,.15,.3,.28,.42-.6-.32-1.04-.71-1.04-1.08v-1.4h-.16v1.4c0,.27,.07,.39,.07,.39,.09,.3,.28,.75,.4,.94-.55-.3-.83-.67-.83-.81v-1.92h-.16v1.95l.03,.13c-.07,.1-.15,.22-.21,.26-.06-.04-.14-.16-.21-.26l.03-.13v-1.95h-.16v1.92c0,.14-.28,.51-.83,.81,.12-.18,.31-.64,.4-.94,0,0,.06-.12,.06-.39v-1.4h-.15v1.4c0,.37-.44,.77-1.04,1.08,.13-.12,.2-.28,.28-.42,.23-.39,.51-.89,.51-2.3,0-.53-.08-.89-.21-1.14-.04-.08-.1-.3,.22-.3,.16,0,.54,.29,.54,.29,0,0-.01-.23-.21-.36-.03-.02-.09-.09-.09-.16,0-.05,.08-.17,.15-.2,.04-.02-.65-.14-.65-.46,0-.06,.04-.11,.19-.11,.19,0,.5,.23,.77,.23,.2,0,.28-.05,.49-.05,.25,0,.78,.48,.96,.46-.2-.13-.53-.61-1.02-.61-.17,0-.33,.04-.49,.04-.2,0-.41-.19-.63-.19-.15,0-.31,0-.34-.03-.04-.07,0-.11,.04-.16,.07-.1,.29-.13,.49-.14,.06,0,.12,0,.18,0m-6.18,2.1h0s1.09,1,1.46,1.13v.34s.01,.99,.01,.99c-.27-.09-.6-.53-.76-.76v-.14c0-.13,.08-.22,.13-.27l-.16-.06c-.06,.07-.13,.17-.13,.31v.08l-.05,.05-.03,.03-.4,.43-.47-.71v-.17c0-.12,.09-.25,.17-.34l-.16-.06c-.08,.1-.16,.24-.16,.37v.14c-.11,.11-.54,.56-.54,.56,0,0-.22-.46-.28-.59,.33-.46,.87-.97,1.37-1.34m13.77,0c.5,.37,1.04,.88,1.37,1.34-.06,.13-.27,.59-.27,.59,0,0-.43-.44-.54-.56v-.14c0-.13-.08-.27-.16-.37l-.16,.06c.08,.09,.17,.22,.17,.34v.17l-.47,.71-.4-.43-.03-.03-.05-.05v-.08c0-.13-.07-.24-.13-.31l-.16,.06c.06,.05,.13,.14,.13,.27v.14c-.16,.23-.5,.67-.77,.76v-1.33c.38-.13,1.48-1.13,1.48-1.13h0Zm-15.33,1.64l.25,.46v.82l-.38,.35v-1.22c0-.12,.05-.26,.13-.41m16.89,0c.08,.15,.13,.29,.13,.41v1.22l-.38-.35v-.82l.25-.46Zm-15.89,.1l.44,.67v.51l-.44,.41v-1.58Zm14.89,0v1.58l-.44-.41v-.51l.44-.67Zm-15.05,.12v1.46l-.44-.41v-.59l.44-.46Zm15.2,0l.44,.46v.59l-.44,.41v-1.46Zm-13.86,.11c.07,.11,.37,.6,.66,.74-.1,.14-.37,.5-.66,.65v-1.39Zm12.51,0v1.39c-.29-.16-.55-.51-.66-.65,.29-.14,.59-.63,.66-.74m-12.67,.07v1.29l-.44-.41v-.46l.44-.42Zm12.82,0l.44,.42v.46l-.44,.41v-1.29Zm-14.61,1.37v1.28l-.38-.36v-.57l.38-.36Zm16.39,0l.38,.36v.57l-.38,.36v-1.28Zm-16.23,0l.25,.23,.19,.17v.46l-.19,.17-.25,.23v-1.28Zm1.03,0v1.28l-.25-.23-.19-.18v-.45l.19-.18,.25-.23Zm.16,0l.44,.41v.45l-.19,.18-.25,.23v-1.28Zm1.03,0v1.28l-.25-.23-.19-.18v-.43c.15-.09,.3-.26,.44-.44m11.64,0c.14,.18,.29,.35,.44,.44v.43l-.19,.18-.25,.23v-1.28h0Zm1.03,0v1.28l-.25-.23-.19-.18v-.45l.44-.41Zm.16,0l.25,.23,.19,.18v.45l-.19,.18-.25,.23v-1.28Zm1.03,0v1.28l-.25-.23-.19-.17v-.46l.19-.17,.25-.23Zm-15.43,1.41l.46,.43,.46-.43v10.56s.03,.52,.05,.87c-.21,.21-.98,.99-.98,.99v-12.42Zm14.78,0v12.42s-.77-.78-.98-.99c.02-.34,.05-.87,.05-.87v-10.56l.46,.43,.46-.43Zm-15.05,0v12.02c0,.34-.62,1.13-.92,1.31v-13.33l.46,.43,.46-.43Zm15.31,0l.46,.43,.46-.43v13.33c-.3-.18-.92-.97-.92-1.31v-12.02Zm-11.5,9.45s-.44,.9-.62,1.06c0,0,.12,.01,.25,.01-.08,.12-.7,1.01-.89,1.34-.18,.31-.31,.17-.59,.17-.23,0-.75,.37-.84,.52-.09,.16-.16,.35-.16,.5,0,.17,.18,.41,.18,.41,.02-.08,.05-.11,.05-.11,0,0,.48,.6,.55,.67,.05,.06,.3,.1,.39,.02,.22-.2,.43-.33,.62-.62,.1-.15,.11-.31,.22-.47,.38-.53,1.14-1.53,1.31-1.76,.01,.06,.02,.12,.03,.18,.2-.4,1.14-1.15,1.14-1.15l-.26-.17s-.57,.66-.75,.79c0,0-.08-.33-.13-.45,0,0-.22,.16-.34,.17,0,0-.04-.22-.06-.37-.15,.1-.4,.08-.4,.08,.22-.1,.48-.74,.48-.74l-.18-.09h0Zm7.68,0l-.19,.09s.26,.64,.48,.74c0,0-.25,.02-.4-.08-.03,.15-.06,.37-.06,.37-.12,0-.34-.17-.34-.17-.05,.12-.12,.45-.12,.45-.18-.12-.75-.79-.75-.79l-.26,.17s.94,.76,1.14,1.15c.01-.07,.02-.12,.03-.18,.17,.23,.93,1.24,1.31,1.76,.11,.16,.12,.32,.22,.47,.19,.28,.4,.42,.62,.62,.09,.08,.33,.04,.39-.02,.07-.08,.55-.67,.55-.67,0,0,.04,.03,.05,.11,0,0,.18-.24,.18-.41,0-.16-.07-.35-.16-.5-.09-.15-.61-.52-.84-.52-.28,0-.41,.14-.59-.17-.19-.34-.81-1.23-.89-1.34,.13,0,.25-.01,.25-.01-.17-.16-.62-1.06-.62-1.06m-7.75,1.02s0,.31,.09,.41l.34-.23s.02,.11,.05,.26c-.14,.2-.97,1.33-1.39,1.88-.1,.14-.19,.49-.19,.49,0,0-.15-.07-.15-.2s.02-.28,.02-.28c0,0-.11,.13-.3,.13,0-.15,.3-.32,.31-.54-.23,.17-.43,.08-.69,.16-.29,.09-.37,.21-.46,.2-.05,0-.1-.09-.08-.15,.04-.09,.39-.36,.64-.41,.06-.01,.53,.1,.62-.04,.39-.6,1.02-1.57,1.08-1.66,.04,0,.08-.02,.11-.04m7.81,0s.07,.03,.11,.04c.06,.09,.69,1.07,1.08,1.66,.09,.15,.56,.03,.62,.04,.25,.05,.6,.31,.64,.41,.02,.05-.03,.14-.08,.15-.09,0-.17-.12-.45-.2-.26-.08-.46,0-.69-.16,.01,.22,.31,.39,.31,.54-.19,0-.3-.13-.3-.13,0,0,.02,.15,.02,.28s-.15,.2-.15,.2c0,0-.09-.35-.19-.49-.41-.55-1.24-1.69-1.39-1.88,.03-.15,.05-.26,.05-.26l.34,.23c.1-.11,.09-.41,.09-.41m-5.11,.22s-1.84,4.24-3.48,4.89c0,0,.71,.3,1.59,.76,.13,.07,.26,.14,.39,.21,.11-.13,.23-.28,.34-.43,.52-.7,1.03-1.51,1.03-1.51,.04,.21-.24,.86-.71,1.66-.09,.16-.19,.32-.29,.49,.12,.07,.24,.14,.35,.21,.87,.52,1.68,1.12,1.98,1.67,.3-.55,1.12-1.15,1.98-1.67,.12-.07,.24-.14,.35-.21-.11-.17-.2-.33-.29-.49-.47-.8-.74-1.45-.71-1.66,0,0,.51,.81,1.03,1.51,.11,.15,.23,.3,.34,.43,.13-.07,.26-.14,.39-.21,.87-.45,1.59-.76,1.59-.76-1.64-.65-3.48-4.89-3.48-4.89l-.27,.08s1.47,3.66,2.91,4.77c-.33,.1-.71,.24-1.11,.41-.48-.56-.98-1.32-1.38-2-.44-.73-.79-2.01-.79-2.01-.2,.49,.23,2.95,1.1,4.51-.72,.37-1.36,.78-1.66,1.11-.31-.33-.95-.74-1.66-1.11,.87-1.56,1.3-4.02,1.1-4.51,0,0-.36,1.28-.79,2.01-.4,.67-.9,1.43-1.38,2-.4-.17-.78-.31-1.11-.41,1.44-1.11,2.91-4.77,2.91-4.77l-.27-.08Zm-4.82,2.04s.03,0,.04,.02c.02,.02,.02,.05,0,.07l-.15,.13s-.05,.01-.07,0c-.02-.02-.02-.05,0-.07l.15-.13s.02-.01,.04-.01m12.05,0s.03,0,.04,.01l.15,.13s.02,.05,0,.07c-.02,.02-.05,.03-.07,0l-.15-.13s-.02-.05,0-.07c0-.01,.02-.02,.04-.02m-11.89,.13s.08,.01,.11,.05c.05,.05,.04,.13,0,.17l-.37,.32s-.13,.03-.17-.02c-.05-.05-.04-.13,0-.17l.37-.32s.04-.03,.07-.03m11.7,0s.02,0,.03,0c.02,0,.05,.01,.07,.03l.37,.32s.05,.12,0,.17c-.04,.05-.12,.06-.17,.02l-.37-.32s-.05-.12,0-.17c.02-.03,.05-.04,.08-.05m-11.49,.25s.08,.01,.11,.05c.05,.05,.04,.13,0,.17l-.37,.32s-.12,.03-.17-.02c-.05-.05-.04-.13,0-.17l.37-.32s.04-.03,.06-.03m11.28,0s.02,0,.03,0c.02,0,.04,.01,.06,.03l.37,.32s.05,.12,0,.17c-.05,.05-.12,.06-.17,.02l-.37-.32s-.05-.12,0-.17c.02-.02,.05-.04,.08-.05m-11.04,.25s.08,.01,.11,.04c.04,.05,.04,.13,0,.17l-.37,.32s-.12,.03-.17-.02c-.05-.05-.04-.13,0-.17l.37-.32s.04-.02,.06-.02m10.81,0s.02,0,.03,0c.02,0,.04,0,.06,.02l.37,.32s.05,.12,0,.17c-.04,.05-.12,.06-.17,.02l-.37-.32s-.05-.12,0-.17c.02-.02,.05-.04,.08-.04"/><polygon points="36.34 32.58 37.2 33.05 37 34.01 36.13 33.54 36.34 32.58"/><path d="M32.33,23.38l-.31,.14,3.51,7.68h.37l-3.57-7.82Zm4.13,9.06l-.25,.26,.16,.35,.31-.14-.21-.47Z"/><polygon class="cls-3" points="36.47 32.85 37 33.14 36.87 33.74 36.34 33.44 36.47 32.85"/><path d="M33.42,29.44s.3,.61,.52,.69c-.12-.03-.49,.11-.49,.11,0,0,.66,.59,1.23,.63,.48,.03,.71-.21,.71-.21l-.1-.51s-.29-.35-.76-.52c-.47-.16-1.11-.2-1.11-.2"/><path d="M35.65,28.35s-.41,.35-.52,.75c-.11,.4,.07,.86,.07,.86l.34,.64s.47-.25,.68-.63c.2-.38,.13-.89,.13-.89,0,0-.38,.14-.42,.2,.08-.42-.28-.94-.28-.94"/><path d="M34.34,28.18s-.46,.16-.91,.13c-.43-.03-.79-.39-.79-.39,0,0,.36-.24,.53-.21-.19-.07-.47-.55-.47-.55,0,0,.4-.12,.75,.01,.35,.13,.66,.52,.66,.52l.23,.49Z"/><path d="M34.5,25.92s.23,.48,.18,.65c.07-.11,.34-.28,.34-.28,0,0,.16,.78,0,1.26-.16,.48-.64,.66-.64,.66l-.53-1.03s-.08-.38,.09-.68c.17-.3,.55-.57,.55-.57h0Z"/><path d="M31.48,24.65s.5-.05,.96,.14c.38,.16,.5,.45,.5,.45l.19,.51s-.55,.21-.98,.05c-.43-.16-.75-.67-.75-.67,0,0,.3-.11,.42-.07-.17-.07-.34-.39-.34-.39"/><path d="M33.06,23.71s.22,.28,.23,.61c.06-.17,.33-.36,.33-.36,0,0,.28,.68,.22,1.17-.06,.49-.47,.77-.47,.77l-.51-.96s-.17-.39-.12-.7c.05-.31,.31-.52,.31-.52"/><path d="M31.32,21.87s-.09,.52,.06,.83c.14,.27,.23,.33,.23,.33-.26-.17-.66-.19-.66-.19,0,0,.14,.57,.48,.83,.34,.26,.86,.2,.86,.2,0,0,.34-.46,.32-.95-.02-.49-.41-1.02-.41-1.02,0,0-.16,.32-.17,.56-.1-.25-.71-.58-.71-.58Z"/><path class="cls-9" d="M31.48,22.19s-.01,.38,.11,.6c.13,.22,.41,.3,.41,.3,0,0,.01-.38-.11-.6-.13-.22-.41-.3-.41-.3"/><path class="cls-9" d="M31.21,23.05s.33,.02,.52,.17c.19,.15,.27,.45,.27,.45,0,0-.22,.02-.41-.12-.19-.15-.38-.5-.38-.5"/><path class="cls-9" d="M32.25,22.28s-.11,.25-.1,.53c.01,.27,.17,.58,.17,.58,0,0,.14-.33,.13-.6-.01-.27-.17-.43-.21-.51"/><path class="cls-9" d="M31.69,24.74s.16,.23,.41,.35c.25,.12,.63,.13,.63,.13,0,0-.19-.24-.44-.37-.25-.12-.6-.11-.6-.11"/><path class="cls-9" d="M31.78,25.27s.12,.24,.34,.34c.22,.1,.67,.09,.67,.09,0,0-.17-.22-.39-.32-.22-.1-.62-.11-.62-.11"/><path class="cls-9" d="M33.04,24.02s-.13,.22-.12,.46c.01,.24,.17,.51,.17,.51,0,0,.11-.3,.1-.54-.01-.24-.15-.42-.15-.42"/><path class="cls-9" d="M33.53,24.33s-.23,.3-.26,.62c-.03,.31,.13,.63,.13,.63,0,0,.27-.28,.31-.59,.03-.31-.18-.67-.18-.67"/><path class="cls-9" d="M32.9,27.22s.03,.11,.12,.23,.26,.25,.26,.25c0,0,.16-.05,.35,0,.2,.04,.45,.22,.45,.22,0,0-.28-.42-.57-.58-.29-.16-.62-.11-.62-.11"/><path class="cls-9" d="M32.87,27.94s.36-.15,.66-.11c.3,.04,.57,.27,.57,.27,0,0-.4,.14-.7,.1-.3-.04-.53-.26-.53-.26"/><path class="cls-9" d="M34.4,26.26s-.32,.34-.35,.63c-.03,.29,.26,.57,.26,.57,0,0-.01-.19,.04-.31,.05-.12,.15-.26,.15-.26,0,0,.04-.15,.03-.27-.02-.17-.13-.36-.13-.36"/><path class="cls-9" d="M34.86,26.65s-.3,.3-.38,.63c-.08,.33,.06,.67,.06,.67,0,0,.27-.22,.35-.54,.08-.33-.04-.76-.04-.76"/><path class="cls-9" d="M35.61,28.62s.14,.28,.17,.52c.04,.24,0,.32,0,.32,0,0-.14,.14-.2,.22-.08,.11-.09,.3-.09,.3,0,0-.28-.42-.24-.73,.04-.31,.36-.63,.36-.63"/><path class="cls-9" d="M36.21,29.28s-.36,.24-.51,.49c-.14,.25-.07,.5-.07,.5,0,0,.26-.02,.4-.27,.14-.25,.17-.71,.17-.71"/><path class="cls-9" d="M33.83,30.29s.52-.01,.84,.06c.32,.08,.44,.25,.44,.25,0,0-.36,.17-.68,.09-.32-.08-.6-.4-.6-.4"/><path class="cls-9" d="M33.74,29.67s.24,.37,.54,.5c.42,.18,.91,.09,.91,.09,0,0-.26-.32-.63-.47-.36-.14-.82-.12-.82-.12"/><path d="M35.42,30.64v.19c.33,0,.37-.03,.45,.07,.05,.07,.18,.12,.31,.06,.13-.06,.18-.21,.13-.34-.06-.13-.18-.16-.29-.13-.07,.01-.12,.07-.18,.1-.11,.06-.42,.05-.42,.05"/><path class="cls-3" d="M36.2,30.68h0c.03,.07,0,.15-.07,.18-.07,.03-.15,0-.18-.07h0c-.03-.07,0-.15,.07-.18,.07-.03,.15,0,.18,.07h0Z"/><path d="M35.39,30.5l.15,.11c-.16,.27-.21,.29-.17,.41,.03,.08,0,.22-.11,.29-.12,.08-.28,.04-.35-.07-.08-.12-.04-.23,.04-.32,.05-.05,.12-.06,.18-.1,.11-.07,.26-.33,.26-.33"/><path class="cls-3" d="M35,31.18h0c.04,.06,.13,.08,.19,.04,.06-.04,.08-.13,.04-.19h0c-.04-.06-.13-.08-.19-.04-.06,.04-.08,.13-.04,.19h0Z"/><path d="M34.33,28.27v.19c.33,0,.37-.03,.45,.07,.05,.07,.18,.12,.31,.06,.13-.06,.18-.21,.13-.34-.06-.13-.18-.16-.29-.13-.07,.01-.12,.07-.18,.1-.11,.06-.42,.05-.42,.05"/><path class="cls-3" d="M35.11,28.3h0c.03,.07,0,.15-.07,.18-.07,.03-.15,0-.18-.07h0c-.03-.07,0-.15,.07-.18,.07-.03,.15,0,.18,.07h0Z"/><path d="M34.39,28.33l.13,.13c-.2,.24-.26,.25-.23,.38,.01,.08-.03,.22-.15,.27s-.28,0-.34-.13c-.06-.13,0-.24,.09-.31,.06-.04,.13-.04,.19-.07,.12-.05,.31-.29,.31-.29"/><path class="cls-3" d="M33.91,28.95h0c.03,.07,.11,.1,.18,.07,.07-.03,.1-.11,.07-.18h0c-.03-.07-.11-.1-.18-.07-.07,.03-.1,.11-.07,.18h0Z"/><path d="M33.28,26.04v.19c.33,0,.37-.03,.45,.07,.05,.07,.18,.12,.31,.06,.13-.06,.18-.21,.13-.34-.06-.13-.18-.16-.29-.13-.07,.01-.12,.07-.18,.1-.11,.06-.42,.05-.42,.05"/><path class="cls-3" d="M34.06,26.08h0c.03,.07,0,.15-.07,.18-.07,.03-.15,0-.18-.07h0c-.03-.07,0-.15,.07-.18,.07-.03,.15,0,.18,.07h0Z"/><path d="M33.37,26l.13,.13c-.2,.24-.26,.25-.23,.38,.02,.08-.03,.22-.15,.28-.13,.06-.28,0-.34-.13-.06-.13,0-.23,.09-.31,.06-.04,.13-.04,.19-.07,.12-.05,.31-.29,.31-.29"/><path class="cls-3" d="M32.88,26.62h0c.03,.07,.11,.1,.18,.07,.07-.03,.1-.11,.07-.18h0c-.03-.07-.11-.1-.18-.07-.07,.03-.1,.11-.07,.18h0Z"/><path d="M32.16,23.69v.19c.33,0,.37-.03,.45,.07,.05,.07,.18,.12,.31,.06,.13-.06,.18-.21,.13-.34-.06-.13-.18-.16-.29-.13-.07,.01-.12,.07-.18,.1-.11,.06-.42,.05-.42,.05"/><path class="cls-3" d="M32.94,23.73h0c.03,.07,0,.15-.07,.18-.07,.03-.15,0-.18-.07h0c-.03-.07,0-.15,.07-.18,.07-.03,.15,0,.18,.07h0Z"/><path d="M32.25,23.65l.13,.13c-.2,.24-.26,.25-.23,.38,.01,.08-.03,.22-.15,.27-.13,.06-.28,0-.34-.13-.06-.13,0-.24,.09-.31,.06-.04,.13-.04,.19-.07,.12-.05,.31-.29,.31-.29"/><path class="cls-3" d="M31.76,24.27h0c.03,.07,.11,.1,.18,.07,.07-.03,.1-.11,.07-.18h0c-.03-.07-.11-.1-.18-.07-.07,.03-.1,.11-.07,.18h0"/><path class="cls-3" d="M34.13,27.71c-.11,.05-.28-.44-.4-.71-.12-.27-.38-.7-.31-.73,.08-.04,.18,.19,.31,.47,.13,.28,.5,.93,.4,.97"/><path class="cls-3" d="M32.98,25.14c-.11,.05-.23-.27-.36-.54-.12-.27-.25-.47-.17-.5,.08-.04,.2,.2,.3,.43,.1,.22,.34,.57,.23,.61"/><path class="cls-3" d="M35.64,30.96c-.09,.02-.47-.78-.78-1.46s-.54-1.23-.47-1.26c.08-.04,.33,.61,.64,1.29,.31,.68,.68,1.42,.61,1.44"/><polygon class="cls-10" points="36.32 23.27 36.34 27.41 36.64 27.9 38.57 28.96 41.03 30.09 41.35 30.43 43.48 29.26 45.98 28.08 46.45 27.36 46.45 23.29 36.32 23.27"/><path class="cls-7" d="M36.2,18.29l.13,.37-.03,4.75,.18,.2,1.46,.17,1.58-.23s.92,.14,1.55,.24c0,0,.02,.09,.02,.09,0,0,.23-.04,.3-.05,.07,.01,.3,.05,.3,.05,0,0,.02-.09,.02-.09,.63-.1,1.55-.24,1.55-.24l1.58,.23,1.46-.17,.18-.2-.03-4.75,.13-.37h-1.75s-2,.03-3.44,.05c-1.44-.02-3.44-.04-3.44-.04h-1.75Z"/><polygon class="cls-3" points="36.71 23.58 37.5 23.27 38.05 22.84 38.43 23.25 39.19 23.56 38.57 23.92 38.02 24.4 37.54 24.04 36.71 23.58"/><polygon class="cls-3" points="44.73 22.87 44.37 23.25 43.61 23.56 44.33 24.01 44.78 24.42 45.28 24.01 46.09 23.61 45.26 23.27 44.73 22.87"/><polygon class="cls-3" points="41.39 18.95 41.15 19.67 40.46 19.33 40.77 20.03 40.1 20.29 40.77 20.53 40.48 21.22 41.13 20.89 41.39 21.6 41.65 20.89 42.3 21.17 42.01 20.53 42.68 20.29 42.03 20 42.32 19.31 41.65 19.64 41.39 18.95"/><polygon class="cls-3" points="43.23 18.83 43.44 19.6 43.78 20.58 43.83 21.51 43.44 22.18 42.75 22.46 42.37 22.58 41.91 22.34 41.41 22.65 40.86 22.32 40.41 22.63 40.12 22.44 39.62 22.37 39.05 21.77 38.93 20.7 39.62 18.79 38.76 19.48 38.02 20.48 38.02 21.79 38.55 22.68 39.5 23.3 39.77 23.37 39.31 24.21 40.1 24.44 40.51 24.85 40.72 25.66 40.67 27.41 40.43 27.81 39.91 28.17 39.88 28.5 40.46 28.86 40.96 29.27 41.7 29.29 42.34 28.84 42.89 28.53 42.75 28.05 42.18 27.6 42.06 26.21 42.22 24.83 43.06 24.3 43.49 24.16 43.04 23.3 43.73 23.06 44.49 22.39 44.85 21.05 44.64 20.24 44.11 19.57 43.23 18.83"/><polygon class="cls-3" points="39.96 24.81 40.29 25.15 39.98 25.46 39.66 25.14 39.96 24.81"/><polygon class="cls-3" points="42.83 24.78 42.5 25.12 42.8 25.45 43.16 25.14 42.83 24.78"/><polygon class="cls-3" points="43.07 25.66 42.48 25.8 42.32 26.15 42.31 27.11 42.56 27.64 42.89 27.79 42.85 26.53 43.07 25.66"/><polygon class="cls-3" points="39.72 25.67 39.93 26.74 39.93 27.76 40.23 27.55 40.43 27.08 40.47 26.27 40.32 25.78 39.72 25.67"/><polygon class="cls-3" points="45.2 26.52 44.5 26.19 43.84 26.33 43.49 26.74 43.45 27.39 43.94 27.97 44.06 28 44.05 27.38 44.58 26.66 45.2 26.52"/><polygon class="cls-3" points="38.61 26.29 38.54 26.01 38.17 25.79 37.86 25.91 37.7 26.24 37.78 26.52 37.46 26.49 37.2 26.74 37.16 27.07 37.34 27.29 37.59 27.37 37.74 27.36 37.62 27.66 37.71 27.95 38.01 28.12 38.34 28.04 38.52 27.7 38.81 27.89 39.16 27.82 39.38 27.48 39.23 27.15 39.06 27.02 39.3 26.89 39.4 26.5 39.07 26.13 38.76 26.18 38.61 26.29"/><path d="M39.65,18.56c-.05,.35-1.81,1.08-1.81,2.54,0,1.88,1.76,2.32,1.76,2.32l-.07,.13-.43,.78s.73,.04,1.11,.37c.46,.4,.42,1.24,.42,1.84,0,.48-.06,.99-.31,1.2-.33,.28-.56,.3-.56,.63,0,.28,.21,.33,.56,.51,.44,.23,.42,.54,1.08,.54s.64-.31,1.08-.54c.34-.18,.55-.24,.55-.51,0-.33-.22-.35-.55-.63-.25-.21-.31-.72-.31-1.2,0-.61-.05-1.45,.42-1.84,.39-.33,1.11-.37,1.11-.37l-.43-.78-.07-.13s1.75-.44,1.75-2.32c0-1.47-1.76-2.19-1.81-2.54-.17,.61,.59,1.44,.59,2.43,0,1.28-.94,1.34-.94,1.34-.22,0-.31,.16-.4,.16-.19-.02-.27-.26-.46-.26-.17,0-.3,.27-.53,.27s-.36-.27-.53-.27c-.18,0-.27,.24-.46,.26-.09,0-.18-.16-.4-.16,0,0-.94-.06-.94-1.34,0-.99,.76-1.83,.59-2.43m3.62,5s1.18,.52,1.49,.96c.67-.51,1.55-.91,1.55-.91,0,0-.85-.22-1.55-.86-.41,.54-1.49,.8-1.49,.8m-3.74,0s-1.08-.26-1.49-.8c-.71,.64-1.55,.86-1.55,.86,0,0,.88,.4,1.55,.91,.31-.44,1.49-.96,1.49-.96m1.87-4.86l-.3,.87-.83-.4,.39,.83-.87,.31,.87,.31-.39,.83,.83-.4,.3,.87,.31-.87,.83,.4-.39-.83,.87-.31-.87-.31,.39-.83-.83,.4-.31-.87Zm-2,.4c.07,.16-.59,1.11-.59,1.9,0,.96,.51,1.53,1.2,1.53,.13,0,.27,.18,.4,.18,.2,0,.33-.22,.46-.22,.16,0,.26,.25,.53,.25s.38-.25,.53-.25c.12,0,.26,.22,.46,.22,.12,0,.27-.18,.4-.18,.69,0,1.2-.57,1.2-1.53,0-.79-.66-1.74-.59-1.9,0,0,1.29,.92,1.29,2.01,0,1.75-1.78,2.19-1.78,2.19l.4,.9s-.55,.08-.89,.35c-.45,.36-.45,1.34-.45,2,0,.78,.03,1.11,.31,1.32,.3,.22,.52,.27,.52,.5,0,.2-.23,.28-.53,.41-.34,.15-.37,.41-.87,.41s-.52-.26-.87-.41c-.3-.13-.53-.21-.53-.41,0-.23,.22-.28,.52-.5,.28-.21,.31-.54,.31-1.32,0-.66,0-1.64-.45-2-.34-.27-.89-.35-.89-.35l.4-.9s-1.78-.43-1.78-2.19c0-1.09,1.29-2.01,1.29-2.01m2,.18l.2,.55,.53-.25-.25,.53,.55,.2-.55,.2,.25,.53-.53-.25-.2,.55-.2-.55-.53,.25,.25-.53-.55-.2,.55-.2-.25-.53,.53,.25,.2-.55Zm-3.38,3.75c.36,.41,.92,.57,.92,.57,0,0-.59,.31-.91,.67v.02s0,0-.01,0c0,0-.01,.01-.02,.02v-.04c-.34-.3-1.01-.63-1.01-.63,0,0,.64-.22,1.02-.61m6.75,0c.38,.38,1.02,.61,1.02,.61,0,0-.67,.33-1.01,.63v.04s-.01-.01-.02-.02c0,0,0,0-.01,0v-.02c-.32-.37-.91-.67-.91-.67,0,0,.57-.16,.92-.57m-4.8,1.69l-.42,.42,.42,.42,.42-.42-.42-.42Zm2.85,0l-.42,.42,.42,.42,.42-.42-.42-.42Zm-2.85,.2l.22,.22-.22,.22-.22-.22,.22-.22Zm2.85,0l.22,.22-.22,.22-.22-.22,.22-.22Zm-3.24,.64c.08,.21,.28,.85,.28,1.62,0,.53-.05,.81-.05,.81,0,0,.59-.17,.71-.78,.06-.28,.12-1.33-.17-1.5l-.78-.15Zm3.63,0l-.78,.15c-.29,.18-.22,1.22-.17,1.5,.12,.6,.71,.78,.71,.78,0,0-.05-.28-.05-.81,0-.77,.2-1.41,.28-1.62m-5.08,.17s-.07,0-.1,.01c-.27,.07-.43,.34-.36,.61,0,.04,.03,.08,.05,.12-.04-.01-.08-.02-.12-.03-.02,0-.04,0-.05,0-.25,0-.46,.21-.48,.47-.02,.28,.19,.51,.47,.53,.04,0,.08,0,.12,0-.02,.03-.04,.07-.06,.11-.1,.26,.02,.55,.28,.65,.26,.1,.55-.02,.65-.28,.02-.04,.02-.08,.03-.12,.02,.03,.05,.06,.08,.09,.21,.18,.53,.15,.7-.06,.18-.21,.15-.53-.06-.7-.03-.03-.07-.05-.1-.06,.04-.01,.08-.03,.11-.05,.23-.15,.3-.46,.16-.69-.1-.16-.28-.24-.46-.23-.08,0-.16,.03-.23,.08-.04,.02-.07,.05-.1,.08,0-.04,0-.08-.01-.12-.06-.23-.27-.39-.51-.38m1.72,.07l.42,.09c.15,.21,.13,.56,.13,1.03s-.36,.67-.36,.67c0-1.16-.12-1.44-.18-1.79m3.09,0c-.06,.35-.18,.63-.18,1.79,0,0-.36-.18-.36-.67s-.03-.82,.13-1.03l.42-.09Zm-4.78,.14c.18,0,.35,.11,.39,.29,.01,.04,.01,.09,0,.13,0,.03-.01,.07-.02,.1-.06-.02-.12-.03-.19-.03-.17,0-.32,.07-.42,.19-.03-.02-.05-.05-.07-.08-.02-.03-.04-.07-.05-.11-.05-.21,.08-.42,.28-.47,.03,0,.05,0,.08-.01m6.22,.16c-.64,0-1.11,.49-1.04,1.1,.05,.51,.47,.94,.98,1.06-.09-.14-.14-.3-.16-.47-.06-.61,.4-1.09,1.04-1.09,.1,0,.2,.01,.29,.04-.23-.37-.65-.63-1.11-.63m-5.44,.14c.12,0,.24,.07,.32,.18,.11,.18,.06,.42-.12,.54-.04,.02-.08,.04-.12,.05-.03,0-.07,0-.1,0v-.02c0-.23-.14-.43-.34-.52,.01-.03,.03-.07,.05-.1,.03-.03,.06-.06,.09-.08,.07-.04,.15-.06,.22-.06m5.44,.09c.2,0,.39,.06,.56,.16-.62,.12-1.07,.67-1.01,1.32-.2-.17-.34-.39-.37-.63-.05-.48,.3-.85,.82-.85m-6.7,.23s.09,.02,.13,.03c.03,.01,.06,.03,.09,.05-.08,.1-.12,.22-.12,.35,0,.1,.03,.2,.08,.28-.03,.02-.07,.04-.11,.05-.04,0-.08,.01-.12,.01-.21-.02-.38-.2-.36-.41,.01-.21,.2-.38,.42-.36m.66,.06c.21,0,.38,.17,.38,.38s-.17,.38-.38,.38-.37-.17-.37-.38,.17-.38,.37-.38m.56,.43s.07,.01,.11,.03c.04,.01,.07,.03,.11,.06,.16,.14,.18,.38,.05,.55-.14,.17-.38,.19-.55,.05-.03-.03-.06-.06-.08-.1-.02-.03-.03-.06-.04-.09,.22-.06,.38-.26,.41-.49m-1.03,.26c.1,.15,.28,.25,.47,.25,.04,0,.08,0,.12-.01,0,.04,.01,.07,.01,.11,0,.04,0,.08-.02,.12-.08,.2-.31,.29-.51,.21-.2-.08-.3-.31-.22-.51,.02-.04,.04-.08,.07-.11,.02-.03,.05-.05,.08-.07m2.85,.93c-.35,0-.57,.07-.57,.18s.22,.18,.57,.18c.09,0,.2-.05,.2-.18s-.11-.18-.2-.18m1.35,0c-.09,0-.2,.06-.2,.18s.11,.18,.2,.18c.35,0,.57-.07,.57-.18s-.22-.18-.57-.18"/><path class="cls-3" d="M35.75,18.16s.46,.35,.46,.7v8.4c0,.22,.07,.37,.18,.51,.11,.15,.34,.36,.58,.52,.74,.48,1.98,.99,2.92,1.42,.78,.36,1.1,.5,1.51,1,.41-.5,.73-.65,1.51-1,.94-.43,2.18-.93,2.92-1.42,.24-.16,.47-.37,.58-.52,.11-.14,.17-.29,.17-.51v-8.4c0-.35,.46-.7,.46-.7h-11.29Zm.59,.27h10.1s-.14,.16-.14,.43v8.4c0,.18-.19,.61-1.29,1.16-1.81,.9-3.21,1.33-3.63,1.84-.42-.51-1.81-.94-3.63-1.84-1.1-.55-1.29-.98-1.29-1.16v-8.4c0-.27-.14-.43-.14-.43"/><path d="M41.14,13.03c0,.16-.18,.3-.39,.3s-.39-.13-.39-.3,.18-.3,.39-.3,.39,.13,.39,.3h0Z"/><path class="cls-7" d="M38.87,12.85s.13-.24,.45-.24c.14,0,.58,0,.58,0,.06,.16,.33,.41,.33,.68,0,0-.28-.5-1.05-.5-.19,0-.32,.07-.32,.07"/><path d="M39.86,12.92s-.19-.06-.19-.12c0-.08,.09-.08,.15-.02,.04,.04,.04,.14,.04,.14"/><path class="cls-7" d="M40.12,13.38s-.17,.17-.2,.27c-.16-.06-.45-.35-.45-.35,0,0,.24,.14,.65,.09"/><path d="M52.23,22.05l-.6,.44,.07,.14s-.11,.04-.16,.14c-.05,.1,.03,.24,.03,.24,0,0-.57-.05-.66,0-.08,.05,.03,.45-.02,.79-.07,.47-.26,.43-.27,.52,0,.09,.07,.23,.07,.23,0,0-.11,.03-.13,.08-.04,.07,.03,.21-.02,.29-.25,.49-.62,1.21-.86,1.69-.03,.07-.13,.09-.17,.18-.04,.08,0,.2,0,.2,0,0-.16,0-.22,.12-.06,.12-.02,.28-.02,.28,0,0-.1,.01-.15,.11-.05,.11,.04,.16,.01,.21-.33,.64-.71,1.4-.95,1.87-.09,.17-.39,.2-.57,.55-.17,.34,.07,.58,.07,.58,0,0-.25,.02-.32,.16-.07,.13-.01,.34,.17,.43,.18,.09,.38,.02,.45-.12,.07-.13-.07-.35-.07-.35,0,0,.34,.05,.51-.29,.18-.35,.03-.61,.11-.78,.24-.46,.62-1.22,.95-1.87,.02-.05,.12,0,.17-.11,.05-.1,0-.19,0-.19,0,0,.15-.07,.21-.18,.06-.11-.03-.25-.03-.25,0,0,.12-.04,.16-.13,.05-.09,.01-.18,.05-.25,.24-.48,.61-1.2,.86-1.69,.04-.09,.19-.12,.23-.19,.02-.04-.01-.15-.01-.15,0,0,.16-.02,.23-.07,.07-.06-.07-.19,.26-.52,.24-.24,.63-.38,.62-.48,0-.11-.38-.54-.38-.54,0,0,.16-.01,.21-.11,.05-.1,.02-.21,.02-.21l.16-.03v-.75Zm-5.68,10.78c-.08,0-.13,.05-.14,.08-.02,.05-.03,.11,0,.17,0,0-.19-.06-.26-.03-.06,.03,0,.93,0,.93,0,0,.76-.48,.75-.55-.01-.07-.17-.19-.17-.19,.06-.01,.11-.05,.13-.1,.03-.05,.03-.19-.14-.28-.07-.03-.12-.04-.17-.04"/><path class="cls-3" d="M52.12,22.27l-.35,.25,.18,.09,.18,.09v-.43Zm-.35,.42c-.06,0-.12,.04-.15,.09-.05,.09,0,.21,.1,.26,.1,.05,.22,.02,.27-.07,.05-.09,0-.21-.1-.26-.04-.02-.08-.03-.12-.02m-.67,.42c-.05,0-.09,0-.1,0-.04,.03,.01,.35,0,.62-.01,.26-.09,.33-.14,.42-.04,.08-.19,.18-.19,.18l.13,.12s.08-.13,.21-.38c.15-.3,.15-.83,.19-.86,.04-.02,.35-.1,.35-.1,0,0-.29-.02-.45-.01m.55,.07s-.33,.06-.38,.11c-.05,.04-.03,.49-.2,.84-.15,.29-.22,.39-.22,.39l.09,.05,.09,.04s.04-.12,.19-.4c.18-.35,.55-.6,.56-.66,0-.06-.13-.37-.13-.37m.11,.04s.12,.3,.12,.35c0,.05-.43,.36-.58,.66-.13,.25-.18,.39-.18,.39l.17,.03s-.01-.18,.03-.26c.05-.09,.06-.2,.26-.36,.22-.17,.51-.32,.51-.37,0-.04-.33-.44-.33-.44m-.99,1.43c-.06,0-.09,.04-.12,.08-.03,.07-.02,.15-.28,.67-.12,.23-.16,.32-.29,.56-.13,.25-.31,.61-.31,.61,0,0-.06,.11,.05,.17,.12,.06,.17-.06,.17-.06,0,0,.18-.36,.31-.61,.12-.24,.17-.34,.29-.56,.26-.51,.34-.55,.38-.62,.04-.07,.03-.16-.09-.22-.04-.02-.08-.03-.11-.02m-1.13,2.15s-.08,.02-.1,.05c-.03,.06,.02,.16,.12,.21,.1,.05,.21,.04,.25-.02,.03-.06-.03-.16-.13-.21-.05-.03-.1-.04-.15-.03m-.15,.31c-.07,0-.14,.02-.16,.07-.04,.08,.02,.2,.15,.26,.12,.06,.26,.05,.3-.04,.04-.08-.02-.2-.15-.26-.05-.02-.09-.04-.14-.04m-.21,.39s-.08,.02-.1,.05c-.03,.06,.02,.16,.12,.21,.1,.05,.21,.04,.25-.02,.03-.06-.02-.16-.12-.21-.05-.03-.11-.04-.15-.03m-.09,.33c-.06,0-.1,.07-.1,.07,0,0-.66,1.3-.9,1.76-.07,.15-.39,.24-.51,.48-.12,.24-.04,.47,.13,.55,.16,.08,.4,.02,.52-.22,.12-.24,.01-.55,.09-.7,.23-.46,.9-1.76,.9-1.76,0,0,.07-.11-.05-.17-.03-.01-.05-.02-.08-.01m-1.6,3c-.07,0-.14,.04-.17,.1-.05,.1,0,.23,.13,.29,.12,.06,.26,.03,.31-.07,.05-.1,0-.23-.13-.29-.04-.02-.09-.03-.14-.03m-1.05,2.09s-.07,.01-.08,.04c-.02,.05,.03,.13,.12,.17,.09,.05,.18,.04,.21,0,.03-.05-.03-.13-.12-.17-.04-.02-.09-.03-.13-.03m-.31,.24v.64l.52-.37s-.07-.12-.23-.21c-.16-.08-.3-.06-.3-.06"/><path class="cls-3" d="M41.02,13.03c0,.15-.12,.27-.27,.27s-.27-.12-.27-.27,.12-.27,.27-.27,.27,.12,.27,.27h0Z"/><path d="M40.87,13.03c0,.07-.06,.12-.12,.12s-.12-.06-.12-.12,.06-.12,.12-.12,.12,.06,.12,.12"/></g></g></g></svg>