<?xml version="1.0" encoding="UTF-8"?><svg id="Ebene_2" xmlns="http://www.w3.org/2000/svg" xmlns:xlink="http://www.w3.org/1999/xlink" viewBox="0 0 83.18 48.52"><defs><style>.cls-1{fill:none;}.cls-2{clip-path:url(#clippath);}.cls-3{fill:#f5eb2e;}.cls-4{fill:#c9002a;}.cls-5{fill:#63accc;}.cls-6{clip-path:url(#clippath-1);}.cls-7{clip-path:url(#clippath-3);}.cls-8{clip-path:url(#clippath-2);}</style><clipPath id="clippath"><rect class="cls-1" width="83.18" height="48.52"/></clipPath><clipPath id="clippath-1"><rect class="cls-1" width="83.18" height="48.52"/></clipPath><clipPath id="clippath-2"><path class="cls-1" d="M10.4,30.5c0,1.91,1.55,3.47,3.46,3.47v-6.93c-1.91,0-3.46,1.55-3.46,3.47"/></clipPath><clipPath id="clippath-3"><rect class="cls-1" x="13.86" y="3.47" width="13.87" height="41.59"/></clipPath></defs><g id="Layer_1"><g class="cls-2"><rect class="cls-4" width="83.18" height="48.52"/><rect class="cls-5" x="27.73" width="27.73" height="48.52"/><g class="cls-6"><path class="cls-3" d="M13.86,13.86c2.11,0,3.81,1.71,3.81,3.81s-1.71,3.81-3.81,3.81-3.81-1.71-3.81-3.81,1.71-3.81,3.81-3.81"/><path class="cls-4" d="M13.86,11.79c2.3,0,4.16,1.86,4.16,4.16s-1.86,4.16-4.16,4.16-4.16-1.86-4.16-4.16,1.86-4.16,4.16-4.16"/><path class="cls-3" d="M13.86,13.86c1.53,0,2.77,1.24,2.77,2.77s-1.24,2.77-2.77,2.77-2.77-1.24-2.77-2.77,1.24-2.77,2.77-2.77"/><path class="cls-3" d="M13.8,7.66c-.53,.38-.13,1-.17,1.33-.04,.35-.22,.43-.3,.72-.1,.37-.05,.75,.02,.9,.07,.14,.12,.26,.14,.36,0,0,0,.02,0,.02h0s0,.02,0,.02c0,0,0,0,0,.02h0s0,.05,0,.07c0,.19-.16,.35-.35,.35s-.35-.16-.35-.35h0v-.02s0,0,0,0h0v-.02h0s0-.02,0-.03h0s0-.01,0-.02h0s0-.01,0-.02h0s0,0,0-.01c0,0,0,0,0-.01,.06-.18,.22-.34,.22-.58,0-.31-.21-.47-.26-.56-.03-.07-.09-.26,0-.45-.15,.18-.31,.32-.31,.52,0,.15,.08,.3,.08,.51,0,.25-.41,.41-.43,1.04,0,.96,.78,1.73,1.73,1.73s1.73-.78,1.73-1.73c-.02-.63-.42-.79-.43-1.04,0-.22,.07-.36,.08-.51,0-.2-.16-.34-.31-.52,.08,.19,.03,.38,0,.45-.05,.1-.26,.25-.26,.56,0,.24,.16,.4,.22,.58,0,0,0,0,0,0,0,0,0,0,0,0,0,0,0,0,0,0,0,0,0,0,0,0,0,0,0,.01,0,.02,0,0,0,.01,0,.02,0,0,0,0,0,.01,0,0,0,.01,0,.02,0,0,0,0,0,.01,0,0,0,0,0,0h0v.02c0,.19-.15,.35-.35,.35-.15,0-.28-.1-.32-.23,0,0,0,0,0,0-.01-.04-.03-.07-.03-.12,0-.02,0-.04,0-.06,0,0,0,0,0,0,0,0,0,0,0-.01,0,0,0,0,0-.01,0,0,0,0,0-.01,0,0,0,0,0,0,0,0,0,0,0-.01,0,0,0,0,0,0,.03-.12,.1-.24,.13-.32,.06-.15,.17-.4,.17-.71,0-.24-.06-.77-.35-1.19-.23-.33-.38-.47-.46-.69-.04-.11,0-.25,.07-.39"/><rect class="cls-3" x="6.24" y="22.18" width="3.47" height="16.64"/><rect class="cls-3" x="18.02" y="22.18" width="3.46" height="16.64"/><polyline class="cls-3" points="10.4 22.18 17.33 22.18 13.86 24.26"/><rect class="cls-3" x="10.4" y="24.96" width="6.93" height="1.39"/><rect class="cls-3" x="10.4" y="34.66" width="6.93" height="1.39"/><polyline class="cls-3" points="10.4 36.74 17.33 36.74 13.86 38.82"/><path class="cls-3" d="M13.86,27.04c1.91,0,3.47,1.55,3.47,3.47s-1.55,3.47-3.47,3.47-3.46-1.55-3.46-3.47,1.55-3.47,3.46-3.47"/></g><g class="cls-8"><g class="cls-7"><path class="cls-4" d="M13.86,26.69c1.09,0,1.98,.88,1.98,1.98s-.88,1.98-1.98,1.98-1.97-.88-1.97-1.98,.88-1.98,1.97-1.98"/><path class="cls-3" d="M13.86,26.97c.94,0,1.7,.76,1.7,1.7s-.76,1.7-1.7,1.7-1.7-.76-1.7-1.7,.76-1.7,1.7-1.7"/><path class="cls-4" d="M13.86,27.97c.38,0,.69,.31,.69,.69s-.31,.69-.69,.69-.69-.31-.69-.69,.31-.69,.69-.69"/><path class="cls-4" d="M13.86,30.36c1.09,0,1.98,.88,1.98,1.98s-.88,1.98-1.98,1.98-1.97-.88-1.97-1.98,.88-1.98,1.97-1.98"/><path class="cls-3" d="M13.86,30.64c.94,0,1.7,.76,1.7,1.7s-.76,1.7-1.7,1.7-1.7-.76-1.7-1.7,.76-1.7,1.7-1.7"/><path class="cls-4" d="M13.86,31.64c.38,0,.69,.31,.69,.69s-.31,.69-.69,.69-.69-.31-.69-.69,.31-.69,.69-.69"/></g></g></g></g></svg>