<?xml version="1.0" encoding="UTF-8"?><svg id="Ebene_2" xmlns="http://www.w3.org/2000/svg" xmlns:xlink="http://www.w3.org/1999/xlink" viewBox="0 0 83.18 48.52"><defs><style>.cls-1{fill:none;}.cls-2{clip-path:url(#clippath);}.cls-3{fill:#b41630;}.cls-4{fill:#ac6a32;}.cls-5{fill:#cbae43;}.cls-6{fill:#355d8e;}.cls-7{fill:#718c42;}.cls-8{clip-path:url(#clippath-1);}</style><clipPath id="clippath"><rect class="cls-1" width="83.18" height="48.52"/></clipPath><clipPath id="clippath-1"><rect class="cls-1" width="83.18" height="48.52"/></clipPath></defs><g id="Layer_1"><g class="cls-2"><rect class="cls-5" width="83.18" height="48.52"/><rect class="cls-3" x="2.43" y="2.43" width="78.33" height="43.67"/><g class="cls-8"><path class="cls-4" d="M52.13,23.87c.29-.08,1.27-.37,1.97-.93,.7-.57,.83-1.02,.89-1.26,.05-.25,.08-.44-.1-.3-.18,.14-.72,.56-1.09,.77-.37,.2-.71,.3-.91,.36-.2,.06-.36,.09-.17,.02,.19-.08,.82-.3,1.31-.78,.48-.48,.87-1.21,.87-1.66,0-.45-.03-.41-.17-.3-.14,.11-.65,.74-.94,.98-.29,.24-.75,.56-.98,.69-.23,.14-.56,.29-.1-.02,.45-.31,1.31-1.04,1.66-1.99,.35-.95,.29-1.51,.28-1.6,0-.1-.09-.29-.17-.11-.08,.17-.65,1.32-1.12,1.82-.46,.49-.35,.4-.45,.48s-.28,.22-.06-.06c.22-.28,.69-.92,.93-1.56,.24-.64,.3-1.27,.31-1.64,0-.37-.15-.88-.22-1.03-.07-.15-.14-.26-.17-.09-.02,.17-.39,1.31-.59,1.86-.2,.55-.6,1.17-.68,1.29-.08,.12-.29,.37-.06-.05,.22-.41,.65-1.63,.71-2.79,.06-1.16-.1-1.79-.26-2.11-.16-.32-.3-.43-.3-.43,0,0,.03,.79-.21,1.92-.24,1.13-.58,1.73-.58,1.73,0,0-.14,.16-.04-.11,.07-.18,.2-.58,.27-1.27,.07-.71,.08-1.53-.13-2.22-.23-.75-.62-1.14-.62-1.14-.11,1.08-.09,2.48-.49,3.61-.07-.07-.17-.19-.21,.06-.07,.37-.22,1.07-.71,1.96-.49,.89-.69,1.01-.69,1.01,0,0-.09-.22-.15-.33-.06-.12-.1-.18-.18-.02-.08,.16-.35,.79-.95,1.48-.6,.69-.93,1.02-.92,1.54,.02,.52,.29,.78,.65,1.02,.36,.24,.43,.36,.37,.64-.05,.28-.38,.38-.66,.39-.28,0-.63-.02-.76,.05-.13,.07-.13,.25-.26,.38s-.18,.2-.3,.22c-.04,0-.08,0-.1,.01-.03-1.36,.5-1.97,.5-1.97l-1.48-1.73c-.08,.04-.15,.07-.23,.11,0-.02-.02-.04-.04-.07-.2-.25-.26-.46-.26-.78,.07,0,.22,.06,.35,.03,.13-.03,.03-.16,0-.29-.04-.13-.08-.57-.05-.74,.03-.17,.04-.23,.04-.23,0,0,.21,.23,.35,.23s.12-.13,.14-.28c.03-.22,.13-.5,.31-.66,0,0,.23,.16,.5,.16s.63-.07,.92-.35c.29-.28,.28-.34,.28-.34,0,0,.53,.19,.94,.21,.41,.02,.84-.05,1.05-.48,.21-.43-.06-.83-.11-.89-.05-.07-.18-.12-.18,0s0,.44-.24,.6c-.25,.16-.44,.15-.68,.08-.23-.07-.56-.17-.94-.11-.34,.05-.38,.07-.39,.08,.02-.02,.32-.33,.62-.42,.31-.09,.49,.03,.59,.15,.1,.12,.19,.31,.27,.03,.08-.28,.03-.6-.1-.81-.13-.21-.42-.34-.72-.31-.3,.03-.41,.08-.41,.08,0,0-.15-.44-.54-.52-.47-.1-1,.08-1.41,.31,0,0-.32,.07-.65-.02-.21-.06-.43-.19-.55-.27,.04-.13,.11-.36,.11-.36,0,0,.09-.03,.19-.07,.1-.04,.08-.07,.09-.15,.01-.08-.18-.22-.18-.22,0,0-.03-.24,.29-.41,.32-.17,.29-.14,.29-.14,0,0,.19,.04,.27-.02,.08-.06,.08-.09,.08-.09,0,0,.14-.05,.2-.13,.05-.09,.06-.21,.02-.31-.04-.1-.09-.12-.03-.17,.05-.05,.1-.16,.11-.24,0-.08,0-.1,0-.1,0,0,.11-.04,.11-.21,0-.17-.1-.23-.15-.25-.05-.01-.09-.01-.09-.01,0,0,0-.1-.1-.23-.09-.13-.14-.19-.14-.19,0,0,.06-.05,.03-.16-.03-.11-.11-.18-.19-.2-.08-.02-.16,0-.16,0,0,0-.25-.15-.37-.21-.12-.06-.15-.08-.15-.08,0,0,0-.1-.05-.16-.04-.06-.14-.08-.2-.08s-.11,.03-.11,.03c0,0-.43-.11-.61-.14-.18-.03-.19-.04-.19-.04,0,0-.38-.18-.53-.21-.15-.03-.19-.04-.19-.04,0,0,.15-.19,.16-.4,0-.21-.13-.42-.29-.51-.09-.05-.13-.06-.16-.08v-.15s.28,.03,.28,.03l.02-.46-.28,.04,.04-.28h-.59s.04,.27,.04,.27l-.28-.02,.02,.45,.3-.04-.03,.17s-.11,.02-.2,.09c-.15,.09-.28,.27-.27,.48,0,.22,.14,.41,.14,.41,0,0-.04,0-.19,.04-.15,.03-.53,.21-.53,.21,0,0,0,.01-.19,.04-.18,.03-.61,.14-.61,.14,0,0-.06-.03-.11-.03s-.15,.02-.2,.08c-.04,.06-.05,.16-.05,.16,0,0-.03,.01-.15,.08-.12,.06-.37,.22-.37,.22,0,0-.08-.02-.16,0-.08,.02-.15,.09-.19,.2-.03,.11,.03,.16,.03,.16,0,0-.06,.06-.14,.19-.09,.13-.1,.23-.1,.23,0,0-.03,0-.09,.01-.05,.01-.14,.08-.15,.25,0,.17,.1,.21,.1,.21,0,0,0,.02,0,.1,0,.08,.05,.2,.11,.24,.05,.05,0,.07-.04,.17-.04,.1-.03,.23,.03,.31,.05,.09,.2,.13,.2,.13,0,0,0,.04,.08,.09,.08,.06,.27,.02,.27,.02,0,0-.04-.03,.29,.14,.32,.17,.29,.41,.29,.41,0,0-.2,.14-.18,.22,.01,.08,0,.11,.09,.15,.1,.04,.19,.07,.19,.07,0,0,.07,.23,.11,.36-.12,.08-.34,.21-.55,.28-.33,.09-.65,.02-.65,.02-.41-.23-.93-.41-1.4-.31-.39,.08-.54,.52-.54,.52,0,0-.11-.05-.41-.08-.3-.03-.59,.1-.72,.31-.13,.21-.18,.53-.1,.81,.08,.28,.17,.09,.27-.03,.1-.12,.28-.25,.59-.15,.3,.09,.61,.4,.62,.42,0,0-.05-.03-.39-.08-.37-.05-.7,.04-.94,.11-.23,.07-.43,.08-.68-.08-.25-.16-.24-.48-.24-.6s-.13-.07-.18,0c-.05,.07-.31,.46-.11,.89,.21,.43,.64,.5,1.05,.48,.41-.02,.94-.21,.94-.21,0,0,0,.07,.28,.34,.29,.27,.65,.35,.92,.35s.5-.16,.5-.16c.17,.15,.28,.43,.31,.66,.02,.15,0,.28,.14,.28s.35-.23,.35-.23c0,0,.01,.07,.04,.23,.03,.17-.01,.61-.05,.74-.04,.13-.14,.26,0,.29,.13,.03,.28-.03,.35-.03,0,.32-.06,.53-.26,.78-.02,.02-.03,.04-.04,.06-.07-.03-.15-.07-.22-.1l-1.48,1.73s.53,.61,.5,1.98h0s-.06-.02-.11-.02c-.12-.02-.17-.09-.3-.22s-.13-.31-.26-.38c-.13-.07-.48-.04-.76-.05-.28,0-.61-.11-.66-.39-.05-.28,0-.41,.37-.64,.36-.24,.63-.5,.65-1.02,.02-.52-.32-.85-.91-1.54-.6-.69-.87-1.31-.95-1.48-.08-.16-.12-.1-.18,.02-.06,.12-.15,.33-.15,.33,0,0-.2-.12-.69-1.01-.49-.89-.63-1.59-.71-1.96-.04-.25-.14-.13-.21-.06-.4-1.13-.38-2.53-.49-3.61,0,0-.39,.39-.62,1.14-.21,.69-.2,1.51-.13,2.22,.06,.68,.2,1.08,.27,1.27,.1,.27-.04,.11-.04,.11,0,0-.34-.6-.58-1.73-.23-1.13-.21-1.92-.21-1.92,0,0-.14,.11-.3,.43-.16,.32-.32,.96-.26,2.11,.05,1.16,.49,2.37,.71,2.79,.22,.41,.02,.17-.06,.05-.08-.12-.48-.74-.68-1.29-.2-.55-.57-1.68-.59-1.86-.02-.17-.09-.06-.17,.09-.07,.15-.23,.66-.22,1.03,0,.37,.07,1,.31,1.64,.24,.64,.7,1.28,.92,1.56,.22,.28,.05,.13-.06,.06-.1-.08,0,.02-.45-.48-.46-.49-1.04-1.64-1.12-1.82-.08-.18-.16,.02-.17,.11,0,.1-.07,.65,.28,1.6,.35,.95,1.21,1.68,1.67,1.99,.45,.31,.13,.16-.11,.02-.23-.14-.69-.45-.98-.69-.29-.24-.8-.87-.94-.98-.14-.11-.18-.14-.17,.3,0,.45,.39,1.17,.87,1.66,.48,.48,1.11,.7,1.31,.78,.19,.08,.03,.04-.17-.02-.2-.06-.54-.15-.91-.36-.37-.2-.91-.63-1.09-.77-.18-.14-.16,.05-.1,.3,.05,.24,.19,.7,.89,1.26,.7,.56,1.69,.85,1.97,.93,.28,.08,.08,.08,.08,.08,0,0-.11-.02-.69-.14-.58-.13-1.45-.58-1.69-.73-.24-.15-.27-.2-.24,.11,.03,.31,.36,.98,.9,1.29,.53,.31,1.49,.47,1.74,.49,.25,.01,.19,.05,.07,.06-.11,0-.39,0-.84-.04-.37-.04-.92-.22-1.11-.29-.02-.08-.04-.16-.05-.21-.02-.12-.08-.1-.12-.07-.04,.03-.06,.05-.19,.11-.13,.07-.14-.01-.14-.05,0-.04-.03-.21-.04-.3,0-.09-.05-.09-.12-.07-.06,.03-.36,.15-.47,.2-.11,.05,0,.14,.05,.24,.06,.11,.14,.26,.14,.26,0,0-.28,.07-.37,.1-.09,.02-.06,.08-.04,.15s.16,.37,.19,.46c.04,.09,.12,.04,.12,.04l.28-.16,.1,.37s-.13,.03-.27,.13c-.14,.1-.11,.22,.06,.27,.17,.05,.37,.13,.58,.53,.22,.39,.27,1.1,.41,2.22,.13,1.12,.85,1.69,.95,1.76,.1,.07,.04,.13,.04,.13,0,0-.1,.14-.05,.36,.04,.22,.23,.34,.33,.38,.1,.03,.07,.13,.07,.13,0,0-.05,.24,0,.67,.05,.44,.41,.93,.5,1.01,.1,.08,.11,.13,.09,.16-.01,.04-.08,0-.2,.1-.12,.09-.25,.22-.34,.37-.08,.16-.05,.25-.03,.46,.03,.21,.34,.4,.34,.4,0,0-.06,.01-.07,.17-.02,.16,.1,.33,.24,.44,.14,.11,.41,.17,.41,.17,0,0,.02,.13,.04,.22,.01,.09,.19,.18,.3,.25,.11,.06,.33,.03,.42-.01,.09-.04,.15,0,.21,.1,.06,.09,.04,.44,.04,.58s-.08,.29-.04,.36c.05,.07,.18,.02,.31-.06,.13-.08,.17-.02,.29,.06,.12,.08,.31,.15,.36,.14,.05,0,.03-.13,.03-.24s.02-.34,.07-.38c.02-.02,.23-.03,.39-.1,.07-.03,.17-.06,.17-.13,0-.07-.1-.07-.33-.19-.23-.12-.27-.19-.42-.29-.15-.1-.08-.13-.08-.18s.07-.09,.1-.15c.03-.06,.01-.18,.01-.18,0,0,.12-.12,.18-.18,.06-.06,.12-.16,.2-.23,.08-.06,.2-.37,.27-.46,.08-.1,.25-.2,.36-.34,.11-.13,.38-.35,.55-.46,.16-.11,.6-.31,.6-.31,0,0,0,.26,.11,.39,.11,.13,.26-.1,.76-.45,.5-.35,.88-.48,.88-.48,0,0,.11,.16,.24,.33,.13,.17,.25,0,.86-.85,.48-.66,1.12-1.27,1.36-1.5,.05,.02,.09,.04,.14,.06-.01,.03-.03,.07-.04,.11-.06,.17-.15,.29-.27,.53-.12,.24-.3,.3-.51,.63-.21,.33-.24,.55-.26,.89-.02,.33,.17,.41,.17,.41,0,0-.31,.3-.4,.52-.09,.22-.14,.68-.14,.68,0,0-.05,.02-.16,.25-.11,.23-.31,.26-.61,.56-.29,.29-.62,.42-.78,.51-.15,.09-.11,.18-.07,.3,.04,.12,.25,.24,.5,.33,.25,.09,.33,.06,.5,.05,.17,0,.04,.13-.03,.2-.07,.07-.16,.31-.15,.59,.02,.27,.22,.21,.47,.17,.25-.04,.54-.17,.54-.17l-.03,.08c-.03,.08-.04,.13-.04,.35s.04,.32,.1,.38c.06,.06,.19-.06,.28-.09,.09-.03,.24-.12,.47-.17,.22-.05,.31-.15,.31-.15,0,0-.05,.07-.07,.22-.01,.15,0,.38,.03,.52,.04,.13,.13,.29,.29,.43,.15,.14,.19,.08,.3-.1,.11-.17,.34-.4,.34-.4,0,0,.01,.06,.17,.55,.15,.5,.66,.91,.66,.91,0,0,.5-.41,.66-.91,.15-.5,.17-.55,.17-.55,0,0,.23,.22,.34,.4,.11,.17,.15,.24,.3,.1,.15-.14,.25-.3,.29-.43,.03-.13,.04-.36,.03-.52-.01-.15-.07-.22-.07-.22,0,0,.08,.1,.31,.15,.22,.05,.38,.14,.47,.17,.09,.03,.22,.15,.28,.09,.06-.06,.1-.16,.1-.38s-.01-.27-.04-.35l-.03-.08s.29,.13,.54,.17c.25,.04,.45,.11,.47-.17,.01-.27-.08-.52-.15-.59-.07-.07-.2-.2-.04-.2,.17,0,.25,.04,.5-.05s.46-.21,.5-.33c.04-.12,.08-.21-.07-.3-.15-.09-.48-.22-.78-.51-.29-.29-.5-.33-.61-.56-.11-.23-.16-.25-.16-.25,0,0-.05-.45-.14-.68-.09-.22-.4-.52-.4-.52,0,0,.19-.07,.17-.41-.02-.33-.05-.56-.26-.89-.21-.33-.39-.38-.51-.63-.12-.24-.21-.36-.27-.53-.01-.04-.02-.07-.04-.11,.06-.03,.12-.05,.18-.08,.24,.23,.88,.84,1.36,1.5,.61,.84,.73,1.02,.86,.85,.13-.17,.24-.33,.24-.33,0,0,.38,.13,.87,.48,.5,.35,.65,.58,.76,.45,.06-.07,.07-.18,.08-.26,0,0,.29,.08,.61,.2,.2,.07,.41,.16,.58,.22,.43,.18,.48,.28,.82,.55,.34,.27,.83,.25,1.3,.1,.46-.14,1.69-.55,2.19-.76,.49-.21,.85-.4,.9-.5,.05-.1,.11-.38,.11-.47s-.11-.25-.14-.27c-.04-.03-.02-.1,0-.17,0-.06-.02-.25-.1-.33-.08-.08-.07-.11-.06-.35,.02-.51-.34-1.15-.86-1.35,0,0-.01-.06-.05-.09-.04-.03-.11-.07-.11-.07,0,0,0-.29,0-.36,0-.06,.03-.05,.06-.04,.03,.02,.09,.09,.17,.11,.08,.02,.14-.04,.15-.13,.02-.09,.09-.28,.12-.37,.03-.09,0-.11-.04-.12-.04,0-.16-.02-.22-.04-.06-.01-.06-.02-.04-.05,.01-.03,.04-.08,.11-.2,.08-.12,0-.12-.07-.15-.07-.02-.4-.12-.49-.14-.09-.01-.11,.06-.11,.1s0,.21,0,.27c0,.06-.06,.04-.09,.03-.03-.02-.11-.07-.18-.11-.06-.05-.11,0-.13,.07-.02,.07-.1,.35-.12,.44-.02,.08-.02,.15,.02,.16,.04,.01,.2,0,.29,0s.04,.06,.04,.06c0,0-.1,.17-.14,.24-.03,.07-.09,.08-.17,.08h-.21s-.53,.02-.93,.31c-.39,.29-.5,.53-.56,.67-.06,.14-.13,.11-.19,.16-.06,.05-.23,.23-.23,.34s.04,.17-.13,.28c-.17,.11-.31,.59-.08,.84,.23,.25,.32,.5,.39,.62,.07,.12,0,.17-.06,.17s-.19-.1-.29-.18c-.11-.08-.64-.49-.87-.66-.23-.17-.06-.15-.06-.15,0,0,.06,0,.19-.05,.13-.06,.15-.13,.02-.17-.13-.04-.39-.19-.46-.26-.07-.07-.11-.15,.03-.22,.13-.07,.43-.26,.2-.32-.23-.06-.5-.11-.73-.17-.22-.06-.25-.13-.25-.13l.15-.21s.12-.17-.02-.19c-.14-.02-.48-.06-.79-.2-.62-.27-1-.72-1.15-1.27h0c.12,.21,.38,.64,.79,.65,.55,.02,.62-.15,.49-.34-.13-.18-.27-.34-.31-.4-.04-.05-.04-.13,.1,0,.14,.14,.42,.6,1.25,.54,.83-.05,.83-.22,.83-.26,0-.16-.17-.19-.27-.29-.05-.05-.08-.13,.08-.06,.17,.06,.58,.14,1.14,.02,.22-.05,.81-.3,.86-.6,0,0-.37-.02-.63-.13-.26-.11-.42-.21-.14-.15,.28,.06,.81,.17,1.29,0,.28-.09,.63-.32,.63-.72,0,0-.51-.11-.7-.18-.19-.07-.25-.12-.25-.12,0,0,.73,.23,1.4-.1s.69-.8,.69-.91-.02-.14-.02-.14c0,0-.61,.15-1.06,.14-.45,0-.59-.04-.59-.04,0,0,1.27-.04,1.9-.42,.64-.39,.67-1.15,.67-1.15,0,0-.72,.26-1.17,.31-.45,.05-.73,.05-.84,.04-.11,0-.18-.04,.07-.06,.25-.01,1.21-.17,1.74-.48,.53-.31,.86-.98,.9-1.29,.03-.31,0-.26-.24-.11-.24,.15-1.11,.6-1.69,.73-.58,.13-.69,.14-.69,.14,0,0-.2,0,.08-.08m-22.77,1.45c-.06,.04-.26,.15-.26,.15,0,0-.1-.21-.13-.27-.03-.06-.01-.09,.02-.09s.14-.03,.22-.04c.01,0,.02,0,.03,0,.03,.08,.06,.17,.11,.25,0,0,0,0,0,0m7.77,4.54c-.16,.29-.58,.59-.88,.72-.31,.13-.64,.18-.79,.2-.14,.02-.02,.19-.02,.19l.15,.21s-.02,.06-.25,.13c-.22,.06-.5,.11-.73,.18-.23,.06,.06,.25,.2,.32,.13,.07,.1,.15,.03,.22-.07,.07-.33,.22-.46,.26-.13,.04-.11,.11,.02,.17,.13,.06,.5,.13,.5,.13,0,0,0,.01-.23,.18-.22,.17-.62,.28-.87,.29-.26,.01-.67,.03-1.19,0-.52-.02-.58-.04-.58-.04,0,0-.02-.17-.05-.43-.04-.26-.19-.62-.31-.79-.12-.17-.37-.5-.37-.5,0,0,0-.07,.02-.16,.02-.08,0-.17-.05-.33-.06-.16-.36-.39-.36-.39,0,0-.01-.17-.01-.33s-.11-.78-.21-1.07c-.1-.29-.57-1.06-.79-1.42-.22-.36-.35-.9-.41-1.32-.07-.42-.04-.56-.02-.67,0-.05,.03-.09,.05-.13,.09,.12,.21,.23,.35,.32,.64,.39,1.9,.42,1.9,.42,0,0-.14,.04-.59,.04-.45,0-1.06-.14-1.06-.14,0,0-.02,.03-.02,.14s.03,.57,.69,.91c.66,.34,1.4,.1,1.4,.1,0,0-.06,.05-.25,.12-.19,.07-.7,.18-.7,.18,0,.41,.36,.63,.63,.72,.47,.16,1.01,.05,1.29,0,.28-.06,.12,.04-.14,.15-.26,.11-.63,.13-.63,.13,.06,.3,.64,.55,.86,.6,.56,.12,.97,.04,1.14-.02,.17-.06,.13,.01,.08,.06-.1,.1-.27,.12-.27,.29,0,.04,0,.21,.83,.26,.83,.05,1.11-.41,1.25-.54,.14-.14,.13-.06,.1,0-.04,.05-.18,.22-.31,.4-.13,.18-.06,.35,.49,.33,.41-.01,.68-.44,.79-.67h0s.02,.03,.02,.04c-.05,.13-.14,.35-.24,.54m6.72-18.01c-.07-.14-.12-.21-.12-.21,0,0,.31,.15,.5,.36,.19,.21,.18,.32,.21,.43,.03,.1,0,.29-.03,.47-.03,.18-.03,.29,0,.35,.04,.06,.07,.1,.07,.1,0,0-.14,.04-.27,.09-.13,.05-.3,.1-.4,.02-.1-.08-.12-.14-.06-.19,.06-.05,.28-.12,.31-.5,.03-.38-.15-.77-.23-.92m-1.71,1.04c.07-.18,.1-.35,.05-.73-.04-.31-.11-.58-.12-.92,0,0,.23,.05,.57,.36,.33,.3,.41,.62,.41,.77s-.08,.34-.09,.49c-.01,.15,.04,.28,.04,.28,0,0-.12,.05-.23,.13-.11,.08-.19,.12-.35,.11-.17,0-.27-.08-.37-.14-.1-.05-.16-.06-.16-.06,0,0,.19-.11,.26-.29m-1.62-1.29c.33-.3,.56-.36,.56-.36-.01,.34-.07,.6-.12,.92-.05,.37-.03,.55,.05,.73,.07,.18,.27,.29,.27,.29,0,0-.06,0-.16,.06-.1,.05-.2,.13-.37,.14-.17,0-.24-.04-.35-.11-.11-.08-.23-.13-.23-.13,0,0,.05-.13,.04-.28-.01-.15-.09-.33-.09-.49s.08-.47,.41-.77m-1.2,1.85c-.1,.08-.27,.03-.4-.02-.13-.05-.27-.09-.27-.09,0,0,.03-.03,.07-.1,.04-.06,.04-.17,0-.35-.03-.18-.06-.37-.03-.47,.03-.1,.03-.21,.21-.43,.19-.21,.5-.36,.5-.36,0,0-.04,.07-.12,.21-.07,.14-.25,.53-.22,.92,.03,.38,.25,.45,.31,.5,.06,.05,.04,.11-.06,.19m4.44,3.2c-.33,.18-.52,.14-.5,.28,.01,.13,.31,.23,.31,.23,0,0-.3,.32-.54,.47-.23,.15-.51,.24-.51,.24,0,0-.09,.01-.04,.16,.05,.15,.15,.25,.22,.29,.07,.04,.12,.05,.12,.05,0,0-.41,.44-.59,.58-.18,.14-.28,.19-.43,.25-.15,.06-.07,.3-.04,.41,.04,.11,.16,.25,.23,.27,.07,.02,.1,.07,0,.22-.07,.11-.3,.4-.42,.56h0c-.11-.16-.35-.45-.42-.56-.09-.15-.07-.2,0-.22,.07-.02,.2-.17,.23-.27,.03-.11,.11-.35-.04-.41-.15-.06-.25-.11-.43-.25-.18-.14-.59-.58-.59-.58,0,0,.04-.01,.11-.05,.07-.04,.17-.14,.22-.29,.05-.15-.04-.16-.04-.16,0,0-.28-.09-.51-.24-.23-.15-.54-.47-.54-.47,0,0,.29-.1,.31-.23,.01-.13-.17-.09-.5-.28-.33-.18-.44-.41-.44-.41,0,0,.38-.13,.57-.51,.07-.14,.08-.26,.08-.36h.01c.61,.2,1.32,.28,1.96,.28s1.35-.08,1.95-.28h.02c0,.1,0,.22,.07,.36,.19,.38,.57,.51,.57,.51,0,0-.11,.23-.43,.41"/><path class="cls-3" d="M37.01,17.18c-.13-.08-.47-.22-.84-.25-.37-.03-.65,.02-.96,.11-.22,.06-.4,.07-.57,.02-.26-.07-.47-.31-.54-.6,0,0-.24,.31,0,.65,.12,.16,.28,.26,.43,.3,.52,.1,1.02-.21,1.45-.24,.41-.03,.74,.24,.74,.24,0,0,.1,.08,.23,0,.14-.08,.18-.14,.05-.22"/><path class="cls-3" d="M49.03,16.45c-.07,.29-.28,.53-.54,.6-.18,.05-.35,.04-.57-.02-.31-.08-.59-.14-.96-.11-.37,.03-.71,.18-.84,.25-.13,.08-.09,.14,.05,.22,.14,.08,.24,0,.24,0,0,0,.32-.26,.74-.23,.43,.03,.94,.34,1.45,.24,.16-.03,.31-.13,.43-.3,.25-.34,0-.65,0-.65"/><path class="cls-5" d="M45.74,24.04c0-1.03,.47-1.68,.47-1.68l-1.29-1.47c-1.23,.47-2.35,.5-3.35,0-1,.51-2.12,.48-3.35,0l-1.29,1.47s.47,.65,.47,1.68-.2,1.79-.32,2.29c-.12,.5-.21,1.43,.05,2.09,.27,.66,.55,1.25,1.69,1.73,1.14,.48,1.74,.73,2.14,1.06,.4,.33,.6,.6,.6,.6,0,0,.2-.27,.6-.6,.4-.33,1-.58,2.14-1.06,1.15-.48,1.43-1.06,1.69-1.73,.27-.66,.17-1.59,.05-2.09-.12-.5-.31-1.26-.31-2.29"/><path class="cls-5" d="M35.85,32.25s-.42,.2-.55,.23c-.13,.04-.16,.04-.16,.04,0,0-.29,.26-.49,.38-.22,.13-.47,.22-.72,.25-.32,.04-1.22,.03-1.62,.01-.4-.02-.65,.08-.82,.27-.17,.19-.21,.47,0,.69,.22,.21,.46,.11,.54-.03,.08-.13,.04-.3,0-.38-.04-.08,.07-.1,.18-.11,.11,0,.3,0,.47,.04,.17,.03,.48,.13,.61,.2,.13,.07,.05,.08-.04,.07-.09-.02-.19-.05-.35-.11-.16-.06-.3-.09-.4-.1-.1,0-.07,.05-.04,.09,.02,.04,.08,.12,.09,.16,.02,.04-.03,.19-.03,.19l.05,.1s.06-.1,.08-.15c.02-.05,0-.15,.01-.19,.02-.05,.11-.05,.17,.03,.07,.08,.14,.17,.18,.36,.04,.19-.03,.33-.03,.33,0,0,.08,.07,.1,.11,.01,.05-.02,.23-.02,.23,0,0,.06,.04,.11-.07,.05-.11,.11-.29,.12-.36,.02-.07,.06-.19,.14-.1,.08,.09,.14,.2,.15,.26,.02,.06,.02,.1,.02,.1,0,0,.18-.18,.24-.28,.06-.1,.19-.25,.36-.4s.47-.43,.62-.52c.15-.1,.52-.3,.64-.37,.12-.07,.14-.08,.16-.27,.02-.2,.12-.38,.16-.51,.04-.14,.06-.19,.06-.19"/><path class="cls-5" d="M35.53,32.1s-.05,0-.12-.01c-.07-.01-.22-.06-.27-.08-.04-.02-.12-.03-.16,.03-.04,.05-.42,.27-.42,.27h.61c.21,0,.36-.2,.36-.2"/><path class="cls-5" d="M37.26,31.99v-.06l-.08-.18s-.1,.06-.19,.16c-.12,.12-.25,.3-.3,.37-.1,.13-.25,.25-.12,.04,.12-.21,.16-.3,.26-.44,.1-.14,.17-.2,.16-.21-.01,0-.09-.02-.35-.05-.26-.03-.42-.13-.54-.2-.12-.07-.33-.18-.33-.18,0,0-.44,.18-.6,.23-.16,.04-.26,.07-.1,.14,.16,.08,.29,.1,.37,.15,.08,.05,.32,.13,.47,.13s.4,0,.3,.11c-.1,.1-.21,.3-.32,.6-.11,.3-.11,.57-.11,.7s.02,.26,.02,.26c0,0,.18-.2,.66-.5,.48-.3,.66-.4,.75-.45,.09-.04,.13-.04,.12-.16-.02-.12-.06-.4-.06-.46"/><path class="cls-5" d="M39.1,30.53s-.06-.03-.09-.04c0,0-.02,0-.02,0-.05,.03-.35,.23-.47,.42-.12,.19-.24,.21-.11,0,.13-.21,.23-.33,.33-.42,.04-.04,.07-.06,.1-.09-.24-.11-.49-.25-.74-.43-.03,.06-.09,.18-.16,.25-.1,.11-.33,.2-.33,.2,0,0,.18-.19,.24-.33,.04-.09,.07-.19,.08-.25-.17-.13-.34-.29-.49-.46-.03,.12-.13,.42-.42,.74-.38,.42-1.14,.64-1.14,.64,0,0-.27,.03-.05,.08,.21,.06,.37,.15,.79,.08,.42-.07,.45-.09,.5-.11,.06-.02,.21,0,0,.07-.21,.08-.7,.15-.88,.14-.19-.02-.44-.06-.17,.08,.27,.14,.38,.2,.54,.2s.23,.05,.39,.05,.2-.03,.32-.05c.11-.02,.19,.02,.19,.06s-.15,.17-.15,.48c0,.31,.03,.51,.06,.6,.03,.09,.1,.24,.14,.32,.04,.08,.06,.17,.11-.01,.04-.18,.15-.44,.19-.62,.04-.17,.06-.18,.08-.27,.02-.09,.11-.16,.07,0-.05,.16-.1,.37-.13,.52-.04,.15-.11,.42,.02,.2,.14-.21,.65-.79,.73-.89,.08-.1,.15-.2,.21-.28,.06-.08,.24-.2,.32-.32,.08-.11,.3-.33,.4-.41-.14-.06-.29-.12-.45-.2"/><path class="cls-5" d="M29.2,24.8s-.07-.15-.09-.21c-.02-.06-.08-.02-.08-.02,0,0-.13,.08-.23,.1-.1,.03-.11-.01-.12-.06,0-.05-.03-.21-.05-.32-.02-.11-.04-.1-.08-.09-.04,.02-.16,.06-.25,.1-.09,.04-.06,.08-.03,.12,.03,.05,.12,.25,.17,.32,.04,.07,0,.1-.05,.12-.05,.02-.12,.03-.23,.07-.1,.03-.09,.06-.08,.09,0,.03,.08,.17,.12,.24,.04,.06,.07,.02,.07,.02,0,0,.11-.1,.2-.14,.09-.04,.1-.03,.12,.04,.03,.07,.13,.42,.15,.49,.02,.07,.05,.06,.1,.04,.05-.02,.11-.03,.16-.05,.05-.02,.08-.12,.08-.12,0,0-.2-.36-.25-.45-.05-.09,0-.11,.04-.12,.04,0,.16-.02,.26-.05,.1-.02,.07-.08,.07-.12"/><path class="cls-5" d="M31.45,34.56c-.02-.09,0-.17-.07-.24-.07-.07-.15-.2-.18-.3-.03-.11,.03-.16,.01-.22,0-.06-.09-.06-.17,0-.08,.07-.19,.13-.19,.32s.07,.42,.34,.5c.27,.08,.26,.02,.25-.07"/><path class="cls-5" d="M31.73,34.47s-.06-.04-.08,.02c-.03,.05-.02,.08,.05,.19,.07,.11,.12,.14,.2,.19,.08,.05,.03-.05,.02-.08s0-.07-.02-.1c-.02-.03-.03-.06-.03-.14s-.13-.08-.13-.08"/><path class="cls-5" d="M32.06,35.38c.05-.08,.1-.1,.22-.15,.12-.06,.35-.09,.42-.09,.08,0,.25-.15,.22-.3-.03-.15-.14-.21-.23-.23-.1-.02-.18-.02-.21,.03-.03,.05-.09,.11-.19,.14-.11,.04-.12,.07-.19,.09-.07,.02-.02,.06-.07,.11-.05,.05-.13,0-.22-.03-.09-.03-.09-.04-.19-.05-.1,0-.35-.02-.35-.02,0,0,0,0-.06,0s-.06,.01-.09,.07c-.02,.06,0,.21,.07,.29,.06,.08,.26,.11,.39,.15,.13,.04,.2,.06,.31,.08,.11,.02,.13,0,.18-.08"/><path class="cls-5" d="M33.29,35.5c.11-.07,.04-.19,.02-.27-.03-.08-.17-.09-.25-.09s-.12,0-.16,.04c-.04,.04-.1,.09-.21,.12s-.2,.08-.35,.14c-.15,.06-.2,.16-.26,.2-.07,.04-.19,0-.19,0,0,0-.09-.03-.12,0-.03,.03,0,.08,.06,.14,.06,.07,.18,.06,.31,.1,.13,.04,.16,0,.21-.03,.05-.04,.09-.11,.18-.17,.09-.06,.29-.07,.39-.08,.1,0,.27-.04,.38-.11"/><path class="cls-5" d="M33.29,35.04s.1,.1,.14,.03c.04-.07,.11-.2,.06-.29-.04-.08-.1-.15-.1-.15,0,0-.08,.23-.11,.29-.04,.06-.03,.07,.02,.11"/><path class="cls-5" d="M32.88,34.34c0-.13-.09-.29-.09-.29,0,0-.03,.12-.09,.23-.06,.11-.11,.16-.11,.16,0,0,.13,.04,.18,.04s.11,0,.11-.13"/><path class="cls-5" d="M32.12,34.62c.14-.03,.22-.09,.28-.14,.06-.05,.1-.19,.05-.26s-.14-.15-.18-.15h-.08s-.04,.13-.1,.2c-.05,.07-.12,.11-.12,.2,0,.09,0,.18,.14,.15"/><path class="cls-5" d="M32.41,33.97c0-.07-.02-.14-.07-.18-.04-.04-.08-.08-.08-.08,0,0,0,.1-.02,.16,0,.06-.02,.07-.02,.07,0,0,.04,.04,.08,.06,.04,.01,.1,.05,.1-.02"/><path class="cls-5" d="M30.65,30.37s.17,0,.1-.6c-.07-.6-.38-1.17-.63-1.56-.25-.39-.5-1.01-.62-1.33-.11-.33-.19-.78-.19-1.01s.1-.36,.1-.36c0,0,.04-.06,0-.1-.04-.04-.1,0-.17,.06-.06,.06-.13,.18-.16,.27-.03,.08-.03,.11-.03,.11,0,0-.13-.03-.33-.01s-.3,.03-.31,.08c0,.04,.03,.08,.17,.14,.15,.06,.24,.09,.31,.18,.07,.09,.26,.53,.32,.74,.06,.21,.18,.79,.23,1.24,.05,.45,.2,1,.41,1.45,.07,.15,.45,.86,.77,.72"/><path class="cls-5" d="M31.03,31.42c-.14,.08-.13,.64-.07,.94,.06,.29,.35,.66,.44,.76,.09,.1,.11,.1,.16,.07,.04-.03,.07-.03,.07-.03,0,0,.12-.04,.21-.11,.09-.07,.06-.25,.04-.41-.01-.16-.14-.48-.37-.85-.22-.37-.34-.44-.48-.37"/><path class="cls-5" d="M31.18,30.96c0-.18-.16-.33-.35-.33-.09,0-.16,.02-.21,.07-.19,.17-.07,.59,.2,.59,.1,0,.21-.02,.28-.08,.06-.06,.08-.16,.08-.25"/><path class="cls-5" d="M33.86,36.29c-.07-.01-.12-.04-.23-.12-.11-.07-.28-.23-.31-.3-.03-.07-.03-.08-.14-.04-.1,.03-.25,.03-.37,.03-.11,0,.01,.13,.09,.25,.08,.12,.05,.51,.05,.51,0,0,0,.03-.02,.09-.02,.06,0,.1,.03,.11,.03,.01,.05-.01,.13-.1,.08-.09,.22-.33,.22-.33,0,0,.02,0,.14,.04,.12,.03,.32,.01,.42-.02,.1-.03,.05-.1-.02-.12"/><path class="cls-5" d="M33.4,36.6c-.05,0-.07-.01-.1,.02-.03,.03-.05,.1-.06,.13-.01,.04,0,.07,.02,.09,.03,.03,.07,.06,.07,.06,0,0,.04,.05,.09,.07,.04,.02,.05-.04,.05-.09s.03-.13,.03-.19-.05-.08-.1-.09"/><path class="cls-5" d="M32.06,17.47c.01,.31,.36,.91,.55,1.23,.2,.32,.25,.45,.22,.47-.04,.02-.12-.14-.22-.28-.11-.14-.32-.47-.49-.73-.18-.25-.43-.85-.47-.9-.03-.05-.05-.09-.13-.02-.09,.07-.26,.72-.05,1.17,.2,.45,.51,.77,.64,.93,.13,.16,.3,.4,.27,.42-.03,.02-.07-.04-.23-.2-.16-.16-.41-.44-.58-.64-.14-.16-.32-.5-.39-.62-.03-.04-.06-.03-.08,0-.06,.06-.15,.19-.11,.54,.05,.5,.31,.78,.54,1.03,.23,.25,.46,.46,.43,.49-.03,.03-.27-.18-.43-.33-.16-.16-.56-.54-.65-.65-.09-.11-.21-.05-.21,.37,0,.43,.48,.86,.68,1.1,.2,.24,.44,.38,.42,.43-.02,.05-.22-.07-.34-.16-.13-.09-.61-.4-.71-.47-.09-.07-.14,.06-.02,.47,.12,.41,.47,.73,.68,.88,.21,.15,.55,.33,.53,.38-.02,.05-.16-.01-.36-.11-.2-.09-.43-.18-.6-.23-.17-.05-.17,.07-.17,.07,0,0-.04,.35,.21,.62,.25,.28,.54,.39,.81,.43,.27,.05,.31,.06,.3,.1,0,.04-.04,.05-.1,.05s-.31,.03-.54,.03-.35,.05-.35,.16,0,.24,.34,.47c.35,.23,.73,.26,.89,.3,.16,.03,.17,.05,.14,.09-.04,.05-.11,.04-.37,.07-.26,.03-.41,.13-.45,.2-.04,.07,.02,.27,.23,.41,.21,.14,.48,.19,.89,.16,.41-.03,.51-.03,.52,.03,.01,.07-.12,.09-.32,.12-.2,.03-.36,.03-.47,.13-.12,.09-.03,.29,.17,.43,.2,.14,.68,.14,.89,.13,.2-.01,.52-.09,.54-.04,.02,.05-.15,.14-.36,.21-.21,.07-.27,.12-.31,.21-.04,.09,0,.17,.24,.26,.25,.1,.62,.1,.8,0,.19-.09,.29-.12,.32-.09,.04,.03,0,.07-.04,.12-.04,.05-.2,.18-.41,.23-.21,.05-.23,.05-.3,.22-.07,.17,.12,.31,.49,.32,.38,.01,.89-.14,1.05-.23,.16-.09,.22-.11,.25-.08,.03,.03,.02,.05-.06,.12-.08,.06-.34,.24-.47,.28-.13,.03-.14,.13-.14,.22s-.03,.26,.3,.35c.34,.08,.74,.02,1.1-.24,.12-.08,.19-.15,.22-.21-.03-.35-.01-.58,.03-.8-.07,0-.21-.03-.35-.08-.2-.08-.29-.27-.33-.37-.05-.1-.12-.1-.2-.07-.08,.03-.16,.06-.28,.05-.12,0-.36-.07-.54-.28-.18-.21-.14-.41-.15-.51,0-.1-.17-.03-.25-.03s-.32-.03-.54-.18c-.22-.15-.22-.35-.24-.43-.02-.08-.11-.13-.18-.16-.07-.03-.18-.05-.33-.18-.15-.12-.2-.36-.21-.44,0-.08-.1-.09-.4-.24-.3-.16-.28-.48-.27-.61,.01-.13,.16-.24,.16-.28s-.1-.06-.2-.12c-.1-.06-.36-.16-.37-.54,0-.38,.24-.42,.24-.42,0,0-.05-.02-.15-.08-.1-.06-.38-.25-.38-.47s.1-.33,.18-.38c.07-.05,.28-.11,.28-.11,0,0-.13-.08-.18-.26-.05-.18-.07-.39,.05-.55,.13-.16,.34-.16,.46-.16s.21,.06,.26,.03c.04-.03,.05-.06,0-.15-.04-.09-.05-.3-.01-.38,.03-.07,.04-.22,.33-.32,.29-.09,.59,.1,.69,.16,.1,.05,.05-.08,.05-.17s-.2-.33-.42-.67c-.22-.34-.32-.52-.58-1.03-.25-.51-.41-1.18-.45-1.35-.03-.17-.1-.09-.1-.09,0,0-.07,.03-.22,.42-.15,.39-.18,.75-.17,1.06"/><path class="cls-5" d="M37.17,24.4c-.17,0-.4-.1-.57-.36-.18-.25-.44-.31-.89-.31-.45,0-.66-.21-.78-.52-.11-.31,.02-.67,.48-.9,.46-.23,.67-.48,.69-.87,.02-.39-.46-.88-.94-1.43s-.85-1.33-.85-1.33c0,0-.14,.18-.14,.37s.07,.37,0,.43c-.07,.05-.1-.08-.37-.2-.28-.12-.51-.14-.68,.06-.17,.2,0,.55,.16,.72,.16,.16,.29,.29,.25,.35-.04,.06-.28-.1-.36-.15-.08-.05-.26-.25-.53-.23-.27,.03-.37,.1-.39,.33-.03,.23,.24,.43,.42,.51,.17,.09,.24,.16,.2,.2-.04,.04-.09,0-.17-.03-.08-.03-.29-.05-.44,0-.14,.05-.37,.24-.16,.48,.21,.24,.64,.32,.73,.34,.09,.02,.13,0,.14,.06,0,.07-.18,.07-.42,.08-.23,0-.3,.24-.27,.41,.04,.17,.43,.37,.64,.4,.22,.04,.3,0,.31,.06,.02,.06-.03,.09-.15,.12-.12,.03-.36,.06-.4,.25-.04,.19-.05,.28,.13,.45,.18,.17,.48,.14,.57,.12,.09-.02,.19-.11,.28-.03,.09,.09-.08,.16-.23,.26-.15,.11-.14,.31,.11,.45,.25,.14,.51,.09,.61,.05,.1-.04,.24-.2,.31-.1,.07,.1-.22,.14-.34,.29-.12,.15-.08,.39,.17,.54,.24,.15,.64,.04,.71-.02,.07-.06,.16-.09,.21-.04,.05,.05-.03,.19-.08,.31-.05,.12-.15,.48,.22,.62,.37,.14,.7-.17,.76-.24,.06-.06,.12-.07,.17-.04,.05,.03,.03,.08-.02,.14-.04,.06-.14,.32,.12,.51,.18,.12,.37,.12,.48,.1,.05-.2,.12-.42,.2-.73h-.05s-.04,.05-.04,.07,0,.04-.02,.04-.04,.02-.08,.05c-.04,.03-.09,.07-.11,.05-.03-.02,.09-.08,.12-.12,.03-.04,.09-.1,.1-.14s.03-.07,.09-.12c.02-.02,.04-.04,.05-.05,.04-.2,.08-.44,.12-.73,.03-.2,.04-.38,.04-.55h-.12Z"/><path class="cls-5" d="M29.72,18.96c.39,.79,.94,1.23,.94,1.23,0,0-.07-.2-.1-.33-.03-.13,0-.29,0-.29,0,0-.14-.18-.39-.57-.26-.39-.39-.97-.39-.97,0,0,.24,.58,.42,.89,.18,.31,.4,.56,.4,.56,0,0,.07-.27,.13-.29,.05-.01,.09,.03,.14,.09,.05,.06,.09,.05,.09,.05,0,0-.06-.13-.16-.29-.04-.07-.11-.15-.15-.22-.15-.23-.46-.66-.62-1.1-.16-.44-.51-1.53-.57-1.85-.06-.32-.12-.15-.18,.09-.06,.24-.15,.57-.09,1.08,.05,.5,.17,1.12,.56,1.91"/><path class="cls-5" d="M30.22,21.09c.14,.11,.36,.25,.36,.25,0,0-.04-.08-.05-.17-.02-.09-.03-.29-.03-.29,0,0-.17-.15-.29-.25-.12-.1-.27-.24-.56-.61-.3-.37-.06-.15,.18,.12,.24,.26,.7,.64,.7,.64,0,0,0,0,0-.08,0-.08,.03-.14,.07-.19,.04-.06,.02-.06-.24-.26-.26-.2-.93-.96-1.21-1.41-.27-.45-.57-1.06-.57-1.06,0,0-.14,.9,.4,1.9,.55,.99,1.09,1.31,1.24,1.42"/><path class="cls-5" d="M33.11,26.78c.3-.12,.22-.41,.22-.42,0,0-.19,.06-.36,.12-.17,.06-.59,.18-.75,.19-.16,0-.16-.02-.17-.04,0-.02,.13,0,.37-.04,.24-.04,.66-.26,.73-.31,.07-.05,.06-.06-.04-.07-.11,0-.2-.06-.24-.09-.04-.03-.15,.01-.42,.08-.27,.06-.84,.16-1.27,.16s-.84-.07-.9-.09c-.07-.01-.14,.02,.07,.37,.21,.35,.94,.54,1.45,.54,.51,0,1.02-.28,1.32-.39"/><path class="cls-5" d="M31.75,26.06c.53,0,.72-.15,.72-.15,0,0,0-.03-.07-.13-.07-.11-.06-.29-.06-.29,0,0-.12,.02-.34,.05-.22,.03-.47,.06-.75,.01-.28-.05-.16-.08,.06-.05,.22,.03,.65-.05,.79-.1,.14-.05,.08-.09-.01-.12-.09-.03-.35-.19-.35-.19,0,0-.64,.08-1.23,.01-.59-.07-.97-.22-1.09-.24-.12-.02-.12,.03-.12,.03,0,0-.03,.05,.17,.37,.21,.32,.61,.53,.95,.63,.34,.1,.8,.17,1.33,.17"/><path class="cls-5" d="M31.62,24.82s-.02-.03-.05-.14c-.03-.11,.06-.19,.06-.19,0,0-.12-.04-.51-.08-.39-.05-.42-.08-.66-.13-.24-.05-.4-.12-.4-.15,0-.03,.08,.01,.22,.07,.14,.05,.74,.12,1,.15,.26,.04,.4,.06,.44,.04,.04-.03,.2-.07,.2-.07,0,0-.11-.03-.24-.05-.13-.02-.25-.08-.33-.13-.07-.05-.09-.06-.41-.1-.32-.04-.58-.14-1.16-.35-.57-.21-1.01-.46-1.12-.55-.12-.09-.11-.03-.08,.09,.03,.12,.03,.27,.32,.61,.29,.34,.43,.49,1.16,.75,.73,.27,1.55,.23,1.55,.23"/><path class="cls-5" d="M29.45,23.04c.65,.46,1.41,.62,1.57,.64,.04-.04-.04-.19,0-.29,.04-.11,.11-.11,.27-.12,.16,0,.05-.04,.02-.04s-.04,0-.3-.07c-.26-.07-.52-.11-.88-.24s-.46-.23-.46-.26c0-.03,.16,.08,.49,.21,.33,.12,.71,.17,.92,.22,.21,.04,.03-.04-.07-.1-.1-.06-.24-.27-.24-.27,0,0-.23-.04-.61-.16-.38-.12-.7-.25-1.01-.42-.11-.06-.21-.14-.33-.22-.22-.16-.44-.32-.52-.38-.13-.09-.09-.02-.08,.04,.01,.06,.1,.33,.31,.62,.21,.29,.27,.38,.92,.84"/><path class="cls-5" d="M29.35,21.76c.64,.5,1.19,.66,1.28,.7,.09,.04,.08-.01,.07-.07-.02-.05-.03-.23-.03-.23,0,0-.23-.13-.48-.28-.25-.15-.54-.35-.72-.48-.19-.13-.07-.12-.02-.07,.06,.05,.32,.2,.58,.36,.26,.16,.65,.39,.65,.39,0,0,0-.08,.06-.14,.05-.05,.19-.04,.19-.04,0,0-.07-.07-.11-.13-.04-.06-.25-.13-.48-.24-.24-.11-.66-.42-.97-.69-.31-.26-.92-.92-.96-.98-.04-.05-.07-.04-.07,.02,0,.07-.03,.11,.04,.41,.07,.3,.35,.94,.99,1.44"/><path class="cls-5" d="M31.61,16.99c.07,.15,.15,.26,.21,.36,.09,.15,.13,.24,.13,.24,0,0,.02-.05,0-.14-.01-.09-.03-.21,0-.36,.01-.08,.03-.16,.03-.23,0-.08-.03-.15-.04-.19-.02-.09-.11-.46-.16-.72-.04-.26-.09-.64-.09-.97,0-.33,.05-.16,.05,0s.02,.41,.07,.78c.05,.38,.21,.96,.21,.96,0,0,0-.09,.06-.21,.05-.13,.13-.27,.19-.43,.06-.16,.04-.18,.04-.18,0,0-.22-1.07-.28-1.58-.06-.51-.15-1.84-.15-1.84-.33,.33-.57,1.2-.61,2.02-.03,.62,.07,1.19,.1,1.42,.06,.46,.14,.82,.26,1.07"/><path class="cls-5" d="M30.88,18.68c.01-.24,.07-.43,.22-.48,0,0-.14-.24-.26-.59-.08-.24-.15-.54-.19-.77-.08-.57-.15-1.17,.02-.2,.17,.97,.38,1.31,.38,1.31l.25,.4c-.04-.18-.04-.3-.03-.5,0-.19,.04-.46,.09-.66,0,0-.3-.6-.49-1.32-.19-.72-.3-1.37-.3-1.77-.02-.38-.03-.52-.03-.52,0,0-.31,.23-.41,1.41-.1,1.17,.2,2.3,.36,2.73,.15,.43,.38,.96,.38,.96"/><path class="cls-5" d="M34.24,27.63s-.05-.03-.19-.13c-.15-.09-.1-.37-.1-.37,0,0-.04,.03-.15,.1-.11,.07-.23,.16-.37,.21-.14,.06-.22,.1-.31,.13-.09,.03-.07,0,0-.05,.08-.04,.1-.07,.3-.15,.19-.08,.58-.42,.58-.42,0,0-.09,0-.25-.01-.16,0-.37-.09-.37-.09,0,0-.16,.15-.81,.42-.65,.28-1.2,.35-1.2,.35,0,0,.07,.33,.38,.44,.26,.11,.61,.18,1.31,.01,.69-.16,1.17-.46,1.17-.46"/><path class="cls-5" d="M35.09,28.3c.05-.27-.1-.46-.1-.46,0,0-.04,.02-.13,.11-.1,.09-.24,.25-.51,.39-.27,.14-.37,.13-.11-.01,.26-.14,.65-.54,.65-.54l-.1-.04c-.1-.04-.28,.03-1.01,.47-.73,.44-1.16,.45-1.16,.45,0,0,.32,.39,1.21,.36,.88-.03,1.21-.45,1.26-.72"/><path class="cls-5" d="M36.76,27.98s-.1,.14-.23,.22c-.13,.09-.48,.14-.48,.14,0,0-.02,.04-.08,.13-.07,.09-.22,.3-.37,.41-.16,.11-.4,.18-.41,.16-.01-.03,.14-.09,.29-.18,.15-.09,.29-.26,.39-.38,.1-.12-.04-.1-.04-.1,0,0-.18,0-.35,0-.17-.01-.14,0-.19,.08-.05,.08-.12,.16-.24,.3-.15,.18-.3,.34-.45,.52-.1,.12-.03,.15-.03,.15,0,0,.04,.07,.44,.12,.24,.03,.51,0,.78-.16,.17-.1,.35-.26,.53-.45,.47-.52,.45-.94,.45-.94"/><path class="cls-5" d="M36.97,29.04c-.1,.13-.15,.18-.15,.18,0,0,.07-.21,.13-.31,.03-.05,.06-.1,.09-.14-.07-.15-.12-.3-.16-.47-.04,.14-.18,.55-.35,.82-.2,.33-.38,.44-.27,.53,.12,.09,.35,.11,.6-.02,.25-.12,.32-.33,.36-.51-.04-.07-.08-.14-.12-.21-.03,.02-.08,.06-.13,.12"/><path class="cls-5" d="M51.77,21.98c.21-.15,.56-.47,.68-.88,.12-.41,.07-.54-.02-.47-.09,.07-.57,.38-.7,.47s-.32,.21-.35,.16c-.02-.05,.22-.19,.42-.43,.2-.24,.67-.67,.68-1.1,0-.43-.12-.48-.21-.37-.09,.11-.49,.5-.65,.65-.16,.16-.4,.37-.43,.33-.04-.03,.2-.24,.43-.49,.23-.25,.49-.54,.54-1.03,.04-.35-.05-.49-.11-.54-.02-.02-.05-.04-.08,0-.06,.12-.25,.46-.39,.62-.17,.2-.43,.48-.58,.64-.16,.16-.2,.22-.23,.2-.03-.02,.14-.26,.27-.42,.13-.16,.43-.48,.63-.93,.2-.45,.04-1.1-.05-1.17-.09-.07-.1-.03-.14,.02-.03,.05-.29,.65-.47,.9-.18,.25-.38,.58-.49,.72-.11,.14-.19,.3-.22,.28-.03-.02,.02-.15,.22-.47,.2-.32,.54-.91,.55-1.23,.01-.31-.01-.67-.17-1.06-.15-.39-.22-.42-.22-.42,0,0-.07-.08-.1,.09-.03,.17-.2,.83-.45,1.35-.25,.52-.35,.69-.57,1.03-.22,.34-.42,.58-.42,.67s-.04,.22,.05,.17c.09-.05,.4-.25,.69-.16,.29,.09,.3,.24,.33,.32,.03,.07,.03,.29-.01,.38s-.03,.12,0,.15c.04,.03,.14-.03,.26-.03s.33,0,.46,.16c.13,.16,.11,.37,.05,.55-.05,.18-.18,.26-.18,.26,0,0,.2,.05,.28,.11,.07,.05,.18,.16,.18,.38s-.28,.41-.38,.47c-.1,.06-.15,.08-.15,.08,0,0,.25,.04,.24,.42,0,.38-.26,.48-.37,.54-.1,.06-.2,.07-.2,.12s.14,.16,.16,.28,.04,.45-.26,.61c-.3,.16-.39,.16-.4,.24,0,.08-.06,.32-.21,.44-.15,.12-.26,.15-.32,.18-.07,.03-.16,.08-.18,.16-.02,.08-.02,.29-.24,.43-.22,.15-.45,.18-.54,.18s-.24-.07-.25,.03c0,.1,.03,.3-.15,.51-.18,.21-.42,.27-.54,.28-.12,0-.2-.03-.28-.05-.08-.03-.15-.03-.2,.07-.05,.1-.13,.29-.33,.37-.14,.06-.28,.08-.35,.08,.04,.22,.06,.46,.03,.8,.04,.06,.11,.13,.22,.21,.37,.26,.77,.32,1.1,.24,.34-.08,.3-.26,.3-.35s-.01-.18-.14-.22c-.13-.03-.38-.22-.47-.28-.08-.06-.09-.08-.06-.12,.03-.03,.09-.01,.25,.08,.16,.09,.67,.24,1.05,.23,.38-.01,.57-.15,.49-.32-.07-.17-.09-.17-.3-.22-.21-.05-.37-.18-.41-.23-.04-.05-.07-.08-.04-.12,.04-.03,.14,0,.33,.09,.19,.09,.55,.09,.8,0,.25-.1,.28-.18,.24-.26-.04-.09-.1-.14-.31-.21-.21-.07-.38-.16-.36-.21,.02-.05,.33,.02,.53,.03,.2,.01,.69,.01,.89-.13,.2-.14,.29-.34,.17-.43-.12-.09-.27-.09-.47-.13-.2-.03-.34-.05-.32-.12,.01-.07,.12-.06,.52-.03,.41,.03,.68-.02,.89-.16,.21-.14,.26-.35,.23-.41-.04-.07-.19-.17-.45-.2-.26-.03-.33-.02-.37-.07-.03-.05-.03-.06,.13-.09,.16-.03,.55-.07,.89-.3,.34-.23,.34-.37,.34-.47s-.12-.16-.35-.16-.48-.03-.54-.03-.09,0-.1-.05c0-.04,.03-.05,.3-.1,.27-.05,.55-.16,.8-.43,.25-.28,.22-.62,.22-.62,0,0,0-.12-.17-.07-.17,.05-.41,.14-.6,.23-.2,.09-.34,.16-.36,.11-.02-.05,.32-.23,.53-.38"/><path class="cls-5" d="M50.89,21.05c-.14-.05-.36-.03-.44,0-.08,.03-.12,.06-.17,.03-.04-.04,.03-.11,.2-.2,.17-.09,.45-.29,.42-.51-.03-.23-.12-.31-.39-.33-.27-.03-.45,.17-.53,.23-.08,.05-.31,.21-.36,.15-.04-.06,.09-.18,.24-.35,.16-.17,.33-.52,.16-.72-.17-.2-.4-.18-.68-.06-.28,.12-.3,.25-.37,.2-.07-.05,0-.25,0-.43s-.14-.37-.14-.37c0,0-.38,.78-.85,1.33-.48,.55-.96,1.04-.94,1.43,.02,.39,.22,.64,.69,.87,.46,.23,.59,.58,.48,.9-.11,.31-.32,.53-.78,.52-.45,0-.71,.05-.89,.31-.17,.25-.4,.35-.58,.36h-.11c0,.18,.02,.36,.04,.56,.04,.29,.08,.53,.12,.73,.01,.02,.03,.04,.05,.05,.06,.05,.08,.08,.09,.12,0,.04,.07,.1,.1,.14,.03,.04,.15,.1,.12,.12-.03,.02-.07-.02-.11-.05-.04-.03-.05-.05-.08-.05-.03,0-.02-.02-.02-.04s0-.07-.04-.07h-.05c.07,.31,.14,.52,.2,.73,.11,.02,.3,.03,.48-.1,.26-.18,.17-.45,.12-.51-.04-.06-.07-.11-.02-.14,.05-.03,.12-.02,.18,.04,.06,.06,.39,.37,.76,.24,.37-.14,.27-.5,.22-.62-.05-.12-.13-.26-.08-.31,.05-.05,.14-.03,.21,.04,.07,.06,.47,.17,.71,.02,.24-.15,.29-.39,.16-.54-.12-.15-.41-.18-.34-.29,.07-.1,.21,.06,.31,.1,.11,.03,.36,.09,.61-.05,.25-.14,.26-.34,.11-.45-.15-.1-.31-.17-.23-.26,.09-.09,.19,0,.28,.03,.09,.02,.38,.04,.57-.12,.18-.17,.18-.25,.13-.45-.04-.19-.28-.22-.4-.25-.12-.04-.17-.06-.15-.12,.02-.06,.1-.03,.31-.06,.22-.04,.61-.23,.64-.4,.04-.17-.04-.4-.27-.41-.24,0-.43,0-.42-.08,0-.07,.05-.04,.14-.06,.09-.02,.52-.1,.73-.34,.21-.24-.02-.43-.16-.48"/><path class="cls-5" d="M52.48,20.19s.55-.44,.94-1.23c.39-.79,.51-1.41,.56-1.91,.05-.5-.03-.84-.09-1.08-.06-.24-.12-.41-.18-.09-.06,.32-.41,1.41-.57,1.85-.16,.44-.47,.87-.62,1.1-.04,.07-.11,.15-.15,.22-.1,.16-.16,.29-.16,.29,0,0,.04,0,.08-.05,.05-.06,.09-.1,.14-.09,.05,.01,.13,.29,.13,.29,0,0,.21-.25,.4-.56,.18-.31,.42-.89,.42-.89,0,0-.13,.58-.39,.97-.26,.39-.39,.57-.39,.57,0,0,.02,.15,0,.29-.03,.13-.1,.33-.1,.33"/><path class="cls-5" d="M54.55,17.77s-.3,.61-.57,1.06c-.28,.45-.95,1.21-1.21,1.41-.26,.2-.28,.21-.24,.26,.04,.05,.07,.11,.07,.19,0,.08,0,.08,0,.08,0,0,.46-.38,.7-.64,.24-.26,.48-.48,.18-.12-.29,.37-.45,.5-.56,.61-.12,.1-.29,.25-.29,.25,0,0,0,.2-.03,.29-.02,.09-.05,.17-.05,.17,0,0,.21-.14,.36-.25,.14-.11,.69-.43,1.24-1.42,.55-.99,.4-1.9,.4-1.9"/><path class="cls-5" d="M51.88,14.5c-.04-.82-.29-1.69-.62-2.02,0,0-.09,1.33-.15,1.84-.06,.51-.28,1.58-.28,1.58,0,0-.02,.03,.04,.18,.06,.16,.14,.3,.19,.43,.05,.13,.06,.21,.06,.21,0,0,.16-.58,.21-.96,.05-.38,.07-.62,.07-.78s.05-.33,.05,0c0,.33-.04,.71-.09,.97-.04,.26-.14,.63-.16,.72-.01,.04-.04,.11-.04,.19,0,.07,.01,.15,.03,.23,.02,.15,0,.27,0,.36-.01,.09,0,.14,0,.14,0,0,.05-.1,.13-.24,.06-.1,.14-.21,.21-.36,.12-.25,.2-.61,.26-1.07,.03-.23,.13-.8,.1-1.42"/><path class="cls-5" d="M52.64,17.72c.15-.43,.46-1.55,.36-2.73-.1-1.17-.41-1.41-.41-1.41,0,0,0,.15-.03,.52,0,.39-.11,1.05-.3,1.77-.19,.72-.49,1.32-.49,1.32,.06,.21,.08,.47,.09,.66s0,.32-.03,.5l.25-.4s.21-.34,.38-1.31c.17-.97,.1-.38,.02,.2-.04,.23-.1,.54-.19,.77-.12,.35-.26,.59-.26,.59,.16,.05,.21,.24,.22,.48,0,0,.23-.53,.39-.96"/><path class="cls-5" d="M52.87,26.26c-.07,.01-.47,.09-.9,.09s-1-.1-1.27-.16c-.27-.06-.38-.11-.42-.08-.04,.03-.13,.08-.24,.09-.11,0-.12,.02-.04,.07,.07,.05,.49,.27,.73,.31,.24,.04,.37,.02,.37,.04,0,.02,0,.05-.17,.04-.17,0-.58-.13-.75-.19-.17-.06-.36-.13-.36-.12s-.08,.3,.22,.42c.3,.12,.81,.39,1.32,.39,.51,0,1.24-.18,1.45-.54,.21-.35,.14-.39,.07-.37"/><path class="cls-5" d="M53.72,24.85c-.12,.02-.5,.17-1.09,.24-.59,.07-1.23-.01-1.23-.01,0,0-.26,.16-.35,.19-.09,.03-.15,.08-.01,.12,.14,.05,.57,.13,.79,.1,.22-.03,.34,0,.06,.05-.28,.05-.54,.02-.75-.01-.22-.03-.34-.05-.34-.05,0,0,.01,.18-.06,.29-.07,.11-.07,.13-.07,.13,0,0,.2,.16,.72,.15,.53,0,.99-.07,1.33-.17,.34-.1,.74-.31,.95-.63,.2-.32,.17-.37,.17-.37,0,0,0-.05-.12-.03"/><path class="cls-5" d="M54.47,23.13c-.12,.09-.55,.34-1.12,.55-.57,.21-.83,.31-1.15,.35-.32,.04-.34,.05-.42,.1-.07,.05-.19,.11-.32,.13-.13,.02-.24,.05-.24,.05,0,0,.16,.04,.2,.07,.04,.03,.19,0,.44-.04,.25-.04,.86-.1,1-.15,.14-.05,.22-.09,.22-.07,0,.03-.16,.1-.4,.15-.24,.05-.26,.08-.66,.13-.39,.05-.51,.08-.51,.08,0,0,.09,.08,.06,.19-.03,.11-.05,.14-.05,.14,0,0,.82,.04,1.55-.23,.73-.27,.87-.42,1.17-.76,.29-.34,.29-.49,.32-.61,.03-.12,.04-.19-.08-.09"/><path class="cls-5" d="M54.83,21.54c-.09,.06-.3,.22-.52,.38-.11,.08-.22,.16-.33,.22-.32,.18-.63,.31-1.01,.42-.38,.12-.61,.16-.61,.16,0,0-.14,.21-.24,.27-.1,.06-.28,.15-.07,.1,.21-.04,.59-.09,.92-.22,.33-.12,.49-.24,.5-.21,0,.03-.1,.12-.46,.26-.36,.13-.62,.17-.88,.24-.26,.07-.27,.07-.3,.07-.04,0-.14,.03,.02,.04,.16,0,.22,0,.27,.12,.04,.09-.04,.24,0,.29,.16-.02,.92-.19,1.56-.64,.65-.46,.71-.54,.92-.84,.2-.29,.29-.56,.31-.62,.01-.06,.05-.13-.07-.04"/><path class="cls-5" d="M52.4,21.96c.05,.05,.06,.14,.06,.14,0,0,.39-.23,.65-.39,.26-.16,.52-.31,.58-.36,.06-.05,.17-.06-.02,.07-.19,.13-.47,.33-.72,.48-.25,.15-.48,.28-.48,.28,0,0-.01,.17-.03,.23-.02,.05-.03,.11,.07,.07,.09-.04,.64-.2,1.28-.7,.64-.5,.92-1.14,.99-1.44,.07-.3,.04-.35,.04-.41,0-.07-.03-.08-.07-.02-.04,.05-.65,.71-.96,.98-.31,.26-.74,.58-.97,.69-.24,.11-.45,.18-.49,.24-.04,.06-.11,.13-.11,.13,0,0,.13-.01,.19,.04"/><path class="cls-5" d="M49.75,26.86s-.2,.08-.36,.09c-.16,0-.25,.01-.25,.01,0,0,.39,.34,.58,.42,.19,.08,.22,.1,.3,.15,.08,.04,.1,.08,0,.05-.09-.03-.17-.07-.31-.13-.14-.06-.27-.14-.37-.21-.11-.07-.15-.1-.15-.1,0,0,.04,.28-.1,.37-.15,.09-.2,.13-.2,.13,0,0,.48,.29,1.17,.46,.7,.17,1.05,.1,1.31-.01,.31-.11,.38-.44,.38-.44,0,0-.55-.07-1.2-.35-.65-.28-.81-.42-.81-.42"/><path class="cls-5" d="M48.35,27.74l-.1,.04s.38,.4,.65,.54c.26,.14,.17,.15-.11,.01-.27-.14-.41-.3-.51-.39-.1-.09-.13-.11-.13-.11,0,0-.15,.19-.1,.46,.05,.27,.37,.7,1.26,.72,.88,.03,1.21-.37,1.21-.37,0,0-.43-.01-1.16-.45-.73-.44-.9-.51-1.01-.47"/><path class="cls-5" d="M48.1,28.75c-.13-.15-.19-.22-.24-.3-.05-.08-.02-.1-.19-.08-.17,.01-.36,0-.36,0,0,0-.14-.02-.04,.1,.1,.12,.24,.29,.39,.38,.15,.09,.31,.15,.29,.18-.01,.03-.26-.04-.41-.16-.16-.11-.31-.32-.37-.41-.07-.09-.08-.13-.08-.13,0,0-.35-.05-.48-.14-.13-.09-.23-.22-.23-.22,0,0-.03,.42,.45,.94,.18,.2,.36,.35,.53,.45,.28,.16,.54,.19,.78,.16,.39-.04,.44-.12,.44-.12,0,0,.07-.03-.02-.15-.15-.18-.29-.34-.45-.52"/><path class="cls-5" d="M46.25,28.31c-.04,.17-.09,.33-.16,.47,.03,.03,.06,.08,.09,.14,.06,.1,.13,.31,.13,.31,0,0-.05-.05-.15-.18-.05-.07-.1-.11-.13-.12-.04,.07-.08,.14-.12,.21,.04,.17,.11,.38,.36,.51,.26,.13,.49,.11,.6,.02,.12-.09-.06-.2-.27-.53-.17-.27-.3-.68-.35-.82"/><path class="cls-5" d="M46.21,15.87c.1,0,.18,.07,.18,.17s-.08,.17-.18,.17-.18-.07-.18-.17,.08-.17,.18-.17"/><path class="cls-5" d="M44.02,15.95c.09,.05,.19,.11,.29,.13,.35,.1,.72,.04,.99-.09,.35-.19,.64-.31,.86-.33,.18-.02,.27,.06,.44,.07,.05,0,.1-.01,.12-.05,.04-.07,.02-.24-.23-.38-.25-.14-.62-.13-.96-.04-.33,.1-.53,.23-.66,.33-.13,.1-.29,.25-.33,.22-.04-.03,.08-.1,.14-.17,.06-.06,.09-.08,.09-.08-.37,.03-.76-.1-1.07-.33,0,0-.11,.48,.33,.72"/><path class="cls-5" d="M47.72,15.72c-.24-.11-.49-.1-.79,.01-.3,.11-.44,.2-.44,.2,0,0,.04,.26-.14,.38-.18,.12-.36,.05-.41-.07-.05-.12-.06-.18-.06-.18,0,0-.28,.16-.67,.23-.22,.04-.63,.08-.89-.02,0,0-.24,.23-.41,.37-.17,.14-.36,.26-.36,.26,0,0,.02,.06,.1,.08,.08,.03,.11,.04,.05,.13-.05,.09-.46,.45-.63,.58s-.43,.22-.43,.22c0,0,.08,.15,.2,.2,.12,.05,.14,.12,.09,.21-.05,.08-.46,.54-.64,.7-.17,.16-.3,.18-.38,.2-.08,.02-.21,.1-.06,.27,.15,.17,.51,.24,.87,.13,.36-.1,.71-.53,.71-.53,0,0-.08,.61-.08,.9s.04,.61,.08,.78c.05,.17,.1,.25,.1,.25,0,0,.24-.14,.41-.56,.17-.42,.21-.66,.21-.79s0-.2,.12-.13c.11,.06,.19,.11,.24,.12,.04,0,.07,0,.07,0,0,0-.07-.31-.07-.54s.08-.73,.17-.82c.1-.09,.12,.03,.12,.09,.02,.12,.12,.26,.26,.31,.05-.34,.12-.62,.4-.91,.05-.05,.08-.12,.26-.06,.26,.1,.58,.17,.84,.07,.26-.1,.44-.37,.38-.39-.01,0-.39,.19-.69,.09-.3-.1-.44-.2-.26-.38,.17-.18,.25-.2,.6-.49,.35-.28,.62-.43,.93-.38,.3,.05,.36,.23,.39,.26,.03,.03,.16,.14,.16-.11s-.12-.58-.36-.7"/><path class="cls-5" d="M44.46,20.65c-.06-.09-.17-.33-.17-.33,0,0,0,.06-.07,.23-.06,.17-.24,.42-.24,.42,0,0,.14-.03,.3-.08,.16-.05,.27-.14,.27-.14,0,0-.03-.01-.09-.1"/><path class="cls-5" d="M43.23,19.71s-.1,.25-.32,.47c-.22,.22-.39,.19-.39,.19,0,0,.02,0,.19-.12,.17-.12,.33-.46,.33-.46-.18,.11-.6,.21-.82,.17,0,0-.03,.08-.09,.21-.05,.14-.21,.39-.29,.5-.08,.11-.02,.13-.02,.13,0,0,.04,.05,.56,.19,.53,.15,1,.06,1,.06,0,0-.02-.05-.11-.41-.09-.36-.04-.94-.04-.94"/><path class="cls-5" d="M36.92,15.87c.1,0,.18,.07,.18,.17s-.08,.17-.18,.17-.18-.07-.18-.17,.08-.17,.18-.17"/><path class="cls-5" d="M36.53,15.72c.17,0,.26-.08,.44-.06,.21,.02,.51,.15,.86,.33,.28,.12,.64,.19,.99,.09,.1-.03,.2-.08,.29-.14,.43-.24,.33-.72,.33-.72-.32,.23-.71,.35-1.07,.33,0,0,.03,.02,.09,.08,.06,.06,.18,.14,.14,.17-.04,.03-.19-.12-.33-.22-.13-.1-.33-.23-.66-.33-.33-.1-.71-.1-.96,.03-.25,.14-.27,.31-.23,.38,.02,.04,.06,.05,.12,.05"/><path class="cls-5" d="M41.21,19.23c-.08-.02-.21-.04-.38-.2s-.59-.62-.64-.7c-.05-.08-.03-.16,.09-.21,.12-.05,.2-.2,.2-.2,0,0-.26-.1-.43-.22-.17-.12-.58-.49-.63-.58-.06-.09-.03-.1,.05-.13,.08-.03,.1-.08,.1-.08,0,0-.19-.12-.36-.26-.17-.14-.41-.37-.41-.37-.26,.1-.67,.06-.89,.02-.39-.07-.67-.23-.67-.23,0,0-.01,.06-.06,.18-.05,.12-.23,.19-.41,.07-.18-.12-.14-.37-.14-.37,0,0-.14-.09-.44-.2-.3-.11-.54-.13-.78-.01-.24,.11-.36,.45-.36,.7s.13,.15,.16,.11c.03-.03,.08-.22,.39-.26,.3-.05,.58,.1,.93,.38,.35,.29,.42,.31,.6,.49,.17,.18,.04,.28-.26,.37-.3,.1-.68-.1-.69-.09-.06,.03,.13,.29,.38,.39,.26,.1,.59,.03,.84-.07,.17-.07,.21,0,.26,.05,.28,.3,.36,.57,.4,.91,.14-.04,.24-.19,.26-.31,0-.06,.03-.18,.12-.09,.1,.09,.17,.59,.17,.82s-.07,.54-.07,.54c0,0,.03,0,.07,0,.04,0,.12-.06,.23-.12,.11-.06,.12,0,.12,.13s.04,.36,.21,.79c.17,.42,.41,.56,.41,.56,0,0,.05-.08,.1-.25,.05-.17,.08-.49,.08-.78s-.08-.9-.08-.9c0,0,.35,.42,.71,.53,.36,.1,.72,.04,.87-.13,.15-.17,.01-.25-.06-.27"/><path class="cls-5" d="M38.84,20.33s-.11,.24-.17,.33c-.06,.09-.09,.1-.09,.1,0,0,.11,.09,.27,.14,.16,.05,.3,.08,.3,.08,0,0-.18-.25-.24-.42-.06-.17-.07-.23-.07-.23"/><path class="cls-5" d="M41,20.18c-.05-.14-.09-.21-.09-.21-.22,.04-.64-.06-.82-.17,0,0,.17,.34,.33,.45s.19,.12,.19,.12c0,0-.17,.03-.39-.19-.22-.22-.32-.47-.32-.47,0,0,.05,.58-.04,.94-.09,.36-.11,.41-.11,.41,0,0,.47,.08,1-.06,.52-.15,.56-.19,.56-.19,0,0,.06-.02-.02-.13-.08-.11-.24-.36-.29-.5"/><path class="cls-5" d="M39.16,33.32c.11,.04,.32-.04,.42-.17,.1-.13,.14-.32,.21-.43,.07-.11,.13-.19,.13-.19,0,0-.02,.18-.11,.43-.09,.23-.11,.55-.09,.69,.04,.27,.22,.32,.32,.28,.08-.03,.2-.15,.31-.33,.04-.06,.06-.14,.09-.2,.07-.13,.13-.35,.16-.34,.07,.01,.03,.17,0,.27-.05,.21-.16,.51-.16,.69,0,.18,.02,.52,.2,.53,.19,.01,.28-.15,.38-.52,.1-.38,.12-.49,.17-.49s.04,.26,.04,.37c0,.04,0,.14,.02,.25,.03,.2,.09,.44,.14,.5,.09,.08,.16,.07,.16,.07,0,0,.07,.01,.16-.07,.09-.08,.16-.63,.16-.74s0-.37,.04-.37,.07,.12,.17,.49c.1,.38,.2,.54,.38,.52,.18-.01,.21-.35,.2-.53,0-.18-.11-.49-.16-.69-.05-.21,.02-.19,.16,.07,.04,.08,.09,.18,.13,.25,.1,.16,.19,.25,.27,.28,.1,.04,.28,0,.32-.28,.04-.27-.16-1.05-.16-1.05,0,0,.02,.02,.09,.13,.07,.11,.11,.3,.21,.43,.1,.12,.31,.21,.42,.17,.11-.04,.12-.24,.04-.61-.08-.37-.41-.58-.65-.87-.22-.27-.38-.75-.41-.82-.3,.15-.56,.31-.79,.56-.49,.51-.59,.64-.59,.64,0,0-.11-.13-.59-.64-.24-.25-.5-.41-.8-.56-.03,.06-.23,.52-.45,.79-.11,.14-.26,.24-.37,.37-.12,.15-.2,.33-.24,.53-.08,.37-.07,.58,.04,.61"/><path class="cls-5" d="M39.15,34.57c.14-.13,.22-.2,.22-.2,0,0,.1-.09,.08,.08-.03,.17-.08,.5-.05,.65,.03,.15,.05,.27,.23,.16,.18-.11,.23-.17,.31-.26,.09-.09,.18-.13,.16,.01-.02,.14-.09,.36-.06,.65,.03,.29,.17,.33,.36,.09,.19-.25,.3-.47,.36-.59,.05-.12,.17-.22,.17,0,0,.48,.11,1.19,.64,1.38,.54-.19,.65-.89,.65-1.38,0-.22,.11-.12,.17,0,.06,.12,.17,.35,.36,.59,.19,.25,.33,.2,.36-.09,.03-.29-.04-.51-.06-.65-.02-.14,.07-.1,.16-.01,.09,.09,.13,.16,.31,.26,.18,.11,.2-.02,.23-.16,.04-.15-.02-.48-.05-.65-.03-.16,.08-.08,.08-.08,0,0,.07,.07,.22,.2,.14,.12,.34,.13,.34,.13,0,0,.09-.51-.12-.81-.21-.3-.29-.4-.29-.4,0,0-.12,0-.21-.04-.09-.04-.18-.1-.18-.1v.28s.26,.25,.32,.32c.06,.07,.18,.2,0,.08-.18-.12-.33-.24-.33-.24,0,0-.04,.25-.11,.32-.07,.07-.18,.07-.22,.06l-.04-.02v.1s.15,.3,.17,.42c.02,.12-.01,.11-.09-.05-.07-.16-.22-.35-.28-.46-.07-.11-.16-.18-.15-.04,0,.14-.05,.39-.1,.48-.05,.09-.08,.12-.08,.12,0,0,.1,.35,.11,.41,.01,.07,0,.14-.05,.06-.05-.08-.22-.43-.22-.43,0,0-.21,0-.27-.07s-.16-.29-.16-.29c0,0-.09,.3-.16,.39-.07,.1-.24,.19-.24,.19,0,0-.01,.52-.02,.61-.01,.09-.02,.13-.05,.13s-.04-.04-.05-.13c-.01-.09-.02-.61-.02-.61,0,0-.17-.09-.24-.19-.07-.1-.16-.39-.16-.39,0,0-.09,.23-.15,.29-.06,.06-.27,.07-.27,.07,0,0-.16,.35-.22,.43-.06,.08-.06,0-.05-.06,.01-.06,.11-.41,.11-.41,0,0-.03-.03-.08-.12-.05-.09-.1-.34-.09-.48,0-.14-.09-.06-.15,.04-.06,.11-.21,.31-.28,.46-.07,.16-.11,.17-.09,.05,.02-.12,.18-.42,.18-.42v-.1s-.06,.02-.06,.02c-.04,.02-.15,0-.22-.06-.07-.06-.11-.32-.11-.32,0,0-.15,.12-.33,.24-.18,.12-.06,0,0-.08,.06-.07,.32-.32,.32-.32v-.28s-.09,.07-.18,.1c-.09,.04-.21,.04-.21,.04,0,0-.08,.1-.29,.4-.21,.3-.12,.81-.12,.81,0,0,.2,0,.34-.13"/><path class="cls-5" d="M38.58,36.3c.13-.08,.24-.17,.53-.36,.29-.19,.4-.41,.4-.41h-.1c-.05,0-.1-.08-.11-.15,0-.08,0-.23,.02-.42,.02-.18-.03-.33-.03-.33,0,0-.12,.11-.31,.21-.19,.1-.27,.05-.27,.05l-.05-.19s-.08,.17-.2,.37c-.12,.2-.43,.42-.65,.59-.22,.17-.46,.34-.65,.41-.18,.06-.08,.15-.08,.15,0,0,.18,.18,.65,.27,.47,.09,.7-.11,.83-.19"/><path class="cls-5" d="M40.23,36.12c-.17-.02-.27-.08-.3-.26-.02-.12,0-.58,0-.58,0,0-.06,.05-.12,.12-.06,.08-.21,.09-.21,.09,0,0-.02,.06-.09,.17-.06,.1-.14,.23-.3,.33-.16,.1-.35,.22-.47,.32-.12,.1-.27,.22-.43,.31-.16,.09-.31,.23-.36,.47-.05,.24-.01,.32,.18,.3,.19-.01,.21,0,.51-.07,.3-.08,.73-.41,1.05-.61,.32-.2,.54-.6,.54-.6"/><path class="cls-5" d="M41.06,36.4s-.13-.16-.17-.35-.14-.55-.14-.55c0,0-.04,.12-.14,.33-.1,.22-.28,.27-.28,.27,0,0,0,.09-.15,.28-.14,.18-.36,.35-.57,.48-.22,.13-.5,.3-.65,.52-.15,.22-.17,.44-.09,.54,.07,.1,.17-.01,.32-.08,.14-.07,.56-.14,1.13-.44,.57-.31,.76-1,.76-1"/><path class="cls-5" d="M41.31,37.67c.16-.23,.18-.81,.18-.81,0,0-.06-.04-.13-.1-.08-.06-.23-.29-.23-.29,0,0-.09,.2-.2,.38-.1,.18-.15,.25-.37,.44-.21,.2-.5,.39-.62,.6-.12,.21-.06,.63,.03,.77,.08,.14,.2,.09,.31-.02,.12-.12,.16-.14,.37-.32s.5-.41,.66-.64"/><path class="cls-5" d="M45.97,36.07c-.18-.06-.43-.24-.65-.41-.22-.17-.53-.39-.65-.59-.12-.2-.2-.37-.2-.37l-.05,.19s-.08,.05-.26-.05c-.19-.1-.31-.21-.31-.21,0,0-.05,.15-.03,.33,.02,.18,.03,.34,.02,.42,0,.08-.05,.15-.11,.15h-.1s.11,.21,.39,.41c.29,.19,.4,.28,.53,.36,.13,.08,.35,.27,.82,.19,.47-.08,.66-.27,.66-.27,0,0,.11-.08-.08-.15"/><path class="cls-5" d="M44.83,36.63c-.16-.09-.31-.21-.43-.31-.12-.1-.31-.22-.47-.32-.16-.1-.24-.23-.31-.33-.06-.1-.09-.17-.09-.17,0,0-.14-.02-.21-.09-.06-.08-.12-.12-.12-.12,0,0,.03,.46,0,.58-.03,.18-.13,.25-.3,.26,0,0,.23,.4,.54,.6,.32,.2,.75,.54,1.05,.61,.3,.08,.32,.06,.51,.07,.19,.01,.23-.06,.17-.3-.05-.24-.2-.38-.36-.47"/><path class="cls-5" d="M43.53,36.87c-.22-.13-.43-.3-.57-.48-.14-.18-.15-.28-.15-.28,0,0-.17-.05-.28-.27-.1-.22-.14-.33-.14-.33,0,0-.09,.36-.13,.54-.05,.18-.18,.35-.18,.35,0,0,.19,.7,.76,1,.57,.31,.98,.37,1.13,.44,.15,.07,.25,.18,.32,.08,.07-.1,.06-.32-.09-.54-.15-.22-.43-.39-.65-.52"/><path class="cls-5" d="M42.56,37.3c-.21-.2-.26-.26-.37-.44-.1-.18-.2-.38-.2-.38,0,0-.15,.23-.22,.29-.08,.06-.13,.1-.13,.1,0,0,.03,.57,.18,.81,.16,.24,.45,.46,.65,.64,.21,.18,.25,.21,.37,.32,.12,.12,.23,.16,.31,.02,.08-.14,.15-.56,.03-.77-.12-.21-.41-.4-.62-.6"/><path class="cls-5" d="M41.75,37.96c-.14-.16-.18-.24-.18-.24,0,0-.04,.08-.18,.24-.14,.16-.46,.41-.46,.41,0,0,.03,.42,.18,.65,.13,.19,.25,.37,.46,.5,.2-.13,.33-.31,.46-.5,.15-.23,.18-.65,.18-.65,0,0-.32-.25-.46-.41"/><path class="cls-6" d="M53.19,32.77c-.13-.03-.18-.08-.18-.08,0,0-.05,0-.1,.07-.04,.08-.21,.18-.21,.18,0,0-.23,.06-.26,.22-.03,.16,.08,.21,.19,.19,.11-.02,.37-.07,.49-.21,.12-.14,.13-.22,.16-.27,.03-.05,.04-.07-.09-.1"/><path class="cls-6" d="M53.55,31.52c-.08-.35-.31-.78-.74-1,0,0-.16,.57-.21,.76-.05,.18-.05,.17,.09,.21,.14,.04,.59,.13,.68,.16,.09,.03,.24,.1,.19-.13"/><path class="cls-6" d="M51.47,31.19c.1,.02,.09-.02,.13-.16,.04-.14,.22-.83,.22-.83,0,0-.46-.02-.86,.18-.4,.19-.57,.55-.57,.55,0,0,.1,.04,.37,.1,.27,.06,.61,.15,.71,.16"/><path class="cls-6" d="M50.41,32.14c-.16-.03-.22-.05-.22-.05,0,0,.1,.39,.27,.61,.17,.22,.36,.33,.71,.33,.35,0,.62-.19,.66-.34,.04-.15,.12-.27,.12-.27,0,0-.64-.08-.9-.15-.26-.06-.47-.12-.63-.15"/><path class="cls-4" d="M45.33,24.46c-.16-.98,.41-1.85,.41-1.85l-1.1-1.29c-.85,.48-2.03,.41-3.06-.06-1.03,.47-2.21,.54-3.06,.06l-1.1,1.29s.57,.87,.4,1.85c-.16,.98-.51,2.54-.42,3.17,.09,.63,.54,1.37,1,1.75,.46,.39,1.15,.71,1.63,.88,.49,.17,.96,.51,1.18,.68,.22,.17,.37,.32,.37,.32,0,0,.15-.15,.37-.32,.22-.17,.7-.51,1.18-.68,.49-.17,1.17-.5,1.63-.88,.46-.39,.91-1.12,1-1.75,.09-.63-.26-2.19-.42-3.17"/><path class="cls-4" d="M43.08,18.9c-.16,.19-.56,.36-.56,.36v.03s.15-.03,.31-.12c.16-.09,.39-.29,.44-.37,.05-.08,0-.14,0-.14,0,0-.02,.04-.18,.23"/><path class="cls-4" d="M43.76,19.28c0,.11-.04,.84-.04,.84,0,.03-.01,.26-.07,.29,.03,0,.09,.02,.1-.1,.02-.14,.16-1.07,.16-1.07l-.08-.04s-.07-.03-.07,.08"/><path class="cls-4" d="M44.99,17.41c-.07,.02-.24,.15-.33,.22-.09,.07-.15,.07-.23,.11-.08,.04-.05-.14,0-.29,.05-.15,.22-.33,.35-.47,.13-.14,0-.1-.07-.04-.06,.06-.2,.21-.36,.47-.16,.26-.26,.86-.26,.86,0,0,.1-.06,.2-.13,.1-.07,.21-.13,.4-.27,.19-.14,.3-.24,.4-.35,.1-.11-.03-.13-.1-.11"/><path class="cls-4" d="M40.05,18.9c-.16-.19-.18-.23-.18-.23,0,0-.06,.06,0,.14,.05,.08,.28,.28,.44,.37,.16,.09,.31,.12,.31,.12v-.03s-.4-.18-.56-.36"/><path class="cls-4" d="M39.41,20.12s-.04-.73-.04-.84-.07-.08-.07-.08l-.08,.04s.14,.94,.16,1.07c.02,.12,.07,.11,.1,.1-.06-.03-.07-.25-.07-.29"/><path class="cls-4" d="M38.42,16.94c-.06-.06-.2-.1-.07,.04,.13,.14,.3,.32,.35,.47,.05,.15,.08,.33,0,.29-.09-.04-.14-.04-.23-.11-.09-.08-.26-.2-.33-.22-.07-.02-.2,0-.1,.11,.1,.11,.21,.21,.4,.35,.19,.14,.3,.2,.4,.27,.1,.07,.2,.13,.2,.13,0,0-.09-.6-.26-.86-.16-.26-.3-.41-.36-.47"/><path class="cls-4" d="M41.56,33.97s.02-.04,.02-.13c0-.08,.02-.29,.04-.41,.02-.12-.03-.11-.06-.11-.03,0-.05,.1-.05,.15s.01,.36,.01,.42,.02,.07,.04,.07"/><path class="cls-4" d="M43.7,32.89c.08,.17,.1,.15,.06,0-.04-.14-.09-.27-.17-.4-.08-.13-.28-.32-.28-.32,0,0,.05,.12,.13,.23,.08,.1,.17,.31,.26,.48"/><path class="cls-4" d="M42.89,33.03c.03,.11,.2,.43,.22,.41,.02-.01-.07-.28-.13-.47-.06-.19-.15-.33-.17-.32-.02,0,.02,.12,.02,.12,0,0,.03,.14,.06,.25"/><path class="cls-4" d="M42.25,33.55c.04,.08,.08,.18,.1,.16,.02-.01-.04-.18-.05-.23-.01-.05-.02-.15-.07-.26-.05-.11-.08-.06-.08-.01s.07,.25,.07,.25c0,0,0,0,.04,.08"/><path class="cls-4" d="M39.44,32.89c.08-.17,.18-.38,.25-.48,.08-.11,.13-.23,.13-.23,0,0-.2,.19-.28,.32-.08,.13-.13,.26-.17,.4-.04,.14-.02,.16,.07,0"/><path class="cls-4" d="M40.25,33.03c.03-.11,.05-.19,.05-.19,0,0,.03-.11,.01-.12-.02,0-.1,.07-.16,.25-.06,.19-.15,.45-.13,.47,.02,.01,.19-.3,.22-.41"/><path class="cls-4" d="M40.89,33.55c.04-.08,.04-.08,.04-.08,0,0,.07-.21,.07-.25s-.02-.09-.08,.01c-.05,.11-.06,.21-.07,.26,0,.05-.07,.21-.05,.23,.02,.01,.06-.08,.1-.16"/><path class="cls-4" d="M38.91,35.49l-.09-.05s-.05,.07-.12,.15c-.07,.08-.15,.11-.21,.18-.05,.07-.14,.16-.27,.23-.13,.07-.18,.09-.16,.11,.03,.02,.12-.03,.12-.03,0,0,.04,0,.2-.1,.16-.09,.2-.14,.3-.23,.1-.09,.24-.25,.24-.25"/><path class="cls-4" d="M39.6,36.3c.06-.06,.12-.11,.09-.14-.04-.03-.08-.03-.13,.02-.05,.05-.21,.2-.29,.26-.07,.06-.13,.1-.21,.16-.07,.05-.23,.14-.3,.18-.08,.04,0,.05,0,.05,0,0,.06-.03,.12-.05,.06-.02,.25-.1,.25-.1,0,0,.07-.03,.17-.1,.1-.07,.24-.2,.3-.27"/><path class="cls-4" d="M40.39,36.85c.05-.1,0-.07-.09-.04-.08,.03-.28,.24-.39,.32-.11,.08-.2,.11-.3,.15-.09,.05-.09,.07-.09,.09,0,.02,.04,.02,.08,0,.04-.02,.17-.09,.17-.09,0,0,.05-.02,.11-.02,.05,0,.12-.06,.24-.16,.12-.1,.22-.16,.27-.26"/><path class="cls-4" d="M40.76,37.58c-.14,.08-.38,.28-.45,.41-.06,.13-.11,.22-.09,.24,.02,.02,.09-.02,.12-.07,.03-.05,.09-.13,.09-.13,0,0,.24-.24,.33-.29,.09-.06,.23-.21,.27-.31,.03-.09,0-.14,0-.14,0,0-.15,.22-.29,.3"/><path class="cls-4" d="M44.92,35.99c-.13-.07-.22-.16-.27-.23-.05-.07-.13-.1-.21-.18-.07-.08-.12-.15-.12-.15l-.08,.05s.13,.16,.24,.25c.1,.09,.14,.14,.3,.23,.16,.09,.2,.1,.2,.1,0,0,.09,.05,.12,.03,.03-.02-.03-.04-.16-.11"/><path class="cls-4" d="M44.38,36.78c-.08-.04-.23-.13-.31-.18-.07-.06-.13-.09-.21-.16-.07-.06-.23-.21-.29-.26-.05-.05-.1-.05-.13-.02-.04,.03,.03,.08,.09,.14,.06,.06,.2,.2,.3,.27,.1,.07,.17,.1,.17,.1,0,0,.18,.08,.25,.1,.06,.02,.12,.05,.12,.05,0,0,.07,0,0-.05"/><path class="cls-4" d="M43.52,37.29c-.09-.05-.19-.08-.3-.15-.11-.08-.3-.29-.39-.32-.09-.03-.14-.06-.09,.04,.05,.1,.15,.16,.27,.26,.11,.1,.19,.15,.24,.16,.05,0,.11,.02,.11,.02,0,0,.13,.08,.17,.09,.04,.02,.08,.02,.08,0,0-.02,0-.05-.09-.09"/><path class="cls-4" d="M42.38,37.58c-.14-.09-.29-.3-.29-.3,0,0-.03,.05,0,.15,.04,.09,.18,.25,.27,.31,.09,.05,.33,.29,.33,.29,0,0,.06,.08,.09,.13,.03,.05,.1,.09,.12,.07s-.02-.11-.08-.24c-.06-.13-.31-.32-.45-.41"/><path class="cls-4" d="M41.5,38.47c.01,.1,0,.35,.06,.35s.05-.25,.06-.35c.01-.1,.02-.33,.02-.33h-.16s0,.23,.02,.33"/><path class="cls-6" d="M45.22,24.58c-.16-1.06,.32-1.92,.32-1.92l-1-1.11c-.84,.43-1.87,.32-2.98-.07-1.12,.39-2.14,.5-2.98,.07l-1,1.11s.48,.85,.32,1.92c-.16,1.06-.4,2.26-.36,2.97,0,.05,0,.1,.01,.15h.91s.05-.06,.15-.1c.1-.04,.13-.07,.13-.07,0,0,.02-.18,.13-.22,.11-.04,.16-.04,.2-.04s.08,0,.13-.06c.05-.05,.2-.18,.26-.37s.1-.25,.1-.38,.04-.31,.04-.31c0,0-.03-.06-.12-.02-.09,.03-.11-.06-.12-.15-.01-.09,0-.28,.05-.37,.05-.09,.07-.12,.07-.12l-.04-.14s-.58,.12-.68-.33c-.1-.45-.12-.66-.13-.71-.02-.05-.03-.07-.11-.07-.08,0-.24-.05-.36-.28-.12-.23-.12-.33-.09-.42,.03-.09,.1-.06,.12-.03,.02,.03,.17,.25,.23,.19s.03-.06-.06-.24c-.09-.17-.06-.23-.05-.32,0-.09-.03-.2-.03-.25s.05-.09,.11-.06c.05,.02,.1,.06,.12,.09,.03,.03,.04,.07,.08,.04,.05-.03,.02-.19,.02-.24s.06-.09,.14-.05c.08,.04,.12,.13,.12,.18s0,.11,.03,.11,.06-.09,.07-.15c0-.06,.04-.14,.09-.07,.05,.07,.07,.18,.05,.29-.02,.11,.02,.05-.02,.25-.04,.19-.06,.28-.05,.42,0,.14,0,.23,.08,.4,.07,.18,.13,.38,.26,.39,.13,0,.17,0,.17,0,0,0,.15-.29,.26-.36,.12-.07,.28-.08,.39-.09,.12-.01,.16-.05,.16-.08s-.04-.04-.18-.06c-.14-.02-.25-.05-.26-.16,0-.11,.02-.2-.07-.2-.09,0-.32-.08-.4-.23-.08-.15-.06-.18-.05-.26,0-.08,.12-.25,.18-.09,.07,.15,.11,.17,.17,.21,.06,.03,.13,.04,.1-.06-.04-.11-.06-.17-.05-.25,0-.08,.06-.11,.12-.13,.06-.01,.25-.07,.35-.09,.1-.02,.1-.03,.1-.03,0,0,0-.07,.13-.11,.12-.04,.21-.04,.3-.04s.16,.01,.28-.04c.12-.06,.22-.07,.29-.06,.08,0,.13,.03,.19,.07,.06,.04,.04,.09,.04,.14s0,.08,.09,.08,.15,0,.23,.03c.08,.03,.18,.07,.12,.15-.07,.08-.07,.17-.12,.17-.04,0-.04,.04-.06,.07-.02,.03-.03,.05,.01,.08,.05,.03,.05,.06,.12,.12,.07,.06,.17,.13,.07,.23-.1,.1-.28,.18-.28,.18,0,0-.1,.05,.01,.12,.12,.07,.17,.21,.21,.23s.09,.06,.12,.08c.03,.01,.02,.11,.02,.11,0,0-.06,.04-.15,.08-.09,.03-.18,.07-.26,.07s-.12,0-.09,.08c.03,.08,.09,.16,.11,.2,.01,.04,.03,.12,.03,.12,0,0,.13,.03,.25,.03s.17,0,.44-.02c.26-.03,.34-.04,.6,0,.26,.03,.29,.02,.36,.04,.07,.02,.13,.06,.13,.06,0,0,.36,0,.56-.05,.2-.04,.24-.17,.22-.24-.03-.07-.03-.17-.37-.22-.35-.05-.48-.03-.76-.08-.28-.05-.7-.19-.78-.53-.08-.34,.2-.49,.34-.55,.14-.07,.44-.17,.58-.23,.14-.06,.39-.12,.66-.08,.27,.04,.42,.11,.53,.05,.11-.06,.19-.01,.17,.08-.02,.1-.12,.29-.43,.39-.3,.09-.67,.1-.87,.05-.2-.05-.35-.13-.46-.09-.12,.04-.26,.19-.12,.37,.13,.18,.79,.23,.97,.25,.18,.02,.84-.03,1.02,.3,.19,.33,.04,.69-.18,.78-.22,.08-.41,.14-.58,.16l-.17,.02s.08,.17,.08,.25,0,.21,.07,.26c.08,.05,.2,.09,.34,.08,.14-.01,.31,.08,.32,.21,0,.13,.05,.3,.06,.55,.01,.25,0,.46,0,.46,0,0,0,.1-.04,.19-.03,.09-.2,.45-.2,.45h.97s.01-.1,.02-.15c.04-.7-.2-1.91-.36-2.97"/><path class="cls-7" d="M37.69,28.16c.19,.54,.58,1.09,1.18,1.45,.83,.5,1.19,.43,1.96,.94,.78,.51,.73,.59,.74,.59s-.04-.09,.74-.59c.78-.51,1.14-.44,1.96-.94,.6-.36,.99-.91,1.18-1.45h-7.76Z"/><path class="cls-5" d="M38.36,23.98c.09,.09,.16,.12,.29,.11,.13-.01,.17,.08,.19,.19,.02,.11,.02,.36,.12,.59s.43,.25,.43,.25c0-.11,.05-.26,.1-.39,0-.02,.05-.13-.06-.13s-.11-.05-.18-.16c-.07-.11-.21-.41-.24-.6-.03-.19,.03-.48,.06-.58,.03-.1,.04-.17,0-.19-.04-.02-.11,0-.11,0,0,0,.03,.09,0,.1-.03,.01-.06-.05-.08-.11-.02-.07-.05-.06-.1-.05-.05,0-.05,.05-.01,.09,.03,.05,.01,.13,.01,.13,0,0-.1-.08-.14-.09-.04-.02-.14,.02-.15,.08,0,.06,.04,.2,.12,.28,.09,.08,.09,.23,.06,.3-.03,.07-.16,.06-.19,.03-.03-.03-.08-.04-.12,0-.04,.04-.07,.07,.01,.16"/><path class="cls-5" d="M38.31,23.73s-.05-.04-.07-.07c-.02-.02-.05-.08-.05-.08,0,0,0,.02,0,.08s.06,.12,.06,.12l.07-.06Z"/><path class="cls-5" d="M38.51,23.08s.07-.03,.04-.07c-.03-.05-.06-.1-.09-.11-.03,0-.06,0-.06,0,0,0,.04,.08,.05,.14,0,.05,.02,.07,.07,.05"/><path class="cls-5" d="M38.75,22.89s0,.06,.04,.04c.04-.02,.05-.07,.03-.11-.02-.04-.06-.07-.06-.07l-.03-.02s.02,.11,.01,.15"/><path class="cls-5" d="M39.1,22.94s-.02-.1-.02-.1c0,0,0,.06-.02,.09-.02,.03-.02,.02,0,.05,.02,.03,.03,0,.03-.04"/><path class="cls-5" d="M39.65,25.32c.07,.16,.24-.09,.4-.29,.16-.2,.15-.05,.13,.12-.02,.17,.04,.34,.11,.45,.06,.11,.12,.05,.14-.03,.03-.08,.05-.24,.1-.32,.05-.08,.11,0,.11,.06,0,.07,.09,.22,.17,.31,.08,.09,.12-.03,.14-.14,.03-.11,.06-.28,.08-.35,.02-.07,.1-.01,.1-.01,0,0,.05,.05,.16,.15,.11,.1,.12-.06,.13-.14,.01-.08-.02-.25,.02-.28,.03-.03,.12,.04,.26,.11,.14,.07,.13-.06,.12-.14-.02-.07-.1-.24-.21-.34s-.13-.21-.09-.25c.04-.05,.17,0,.25-.02,.08-.01,.13-.02,.19-.03,.06-.01,.06-.07,.06-.07,0,0-.05-.08-.14-.16-.09-.08-.14-.14-.25-.17-.11-.03-.27,0-.27,0l-.02-.03s-.05-.03-.07,0c-.02,.03-.07,.07-.12,.11-.04,.04-.07,.06-.09,.04-.03-.02,.02-.05,.02-.05,0,0,.06-.04,.11-.15,.05-.11,.07-.21,.03-.25-.04-.05-.16,0-.22,0s-.1,.01-.11-.02c0-.03,.06-.02,.14-.03,.08,0,.13-.11,.15-.19,.03-.08,.05-.07,.09-.02,.05,.05,.09,.04,.1,0,0-.03,.05-.11,.11-.19,.05-.08,.08-.19,.03-.26-.06-.07-.2-.06-.26-.02-.06,.05-.1,.1-.11,.21-.02,.12-.05,.05-.05,.02s-.05-.1-.03-.14c.02-.05,0-.1,0-.1,0,0,0-.1-.12-.12-.11-.02-.24,0-.35,.03-.11,.03-.09,.12-.09,.12,0,0-.08,0-.17,.02-.09,.01-.2,.05-.28,.07-.08,.02-.12,.03-.12,.07s.02,.11,.02,.11c0,0,.07,0,.11,.02,.04,.02,.02,.06-.03,.07-.04,.02-.06,.02-.06,.07s.02,.06,.06,.06,.13,0,.24,.05c.11,.05,.13,.14,.12,.2,0,.05-.16,.12-.23,.12s-.1,.02-.1,.06,.09,.04,.09,.04c0,0,.09,0,.27,.03,.17,.02,.2,.06,.28,.13,.08,.07,.02,.08-.02,.11s-.1,.07-.15,.09c-.06,.02-.09,.06-.15,.07-.05,.01-.19,0-.43,.1-.24,.1-.33,.41-.33,.41,0,0,.03-.01,.14-.07,.11-.06,.25-.12,.38-.2,.13-.08,.13,.04,.06,.15-.06,.11,.06,.09,.1,.06,.04-.03,.08-.06,.21-.13,.12-.06,.08,.04,.08,.04,0,0-.04,.07-.05,.25-.01,.17,.17,.01,.26-.1,.09-.11,.12,0,.06,.13-.06,.13-.19,.23-.25,.23s-.12-.07-.13-.12c0-.04,.02-.17-.02-.2-.04-.03-.17,0-.26,.06-.09,.05-.11,.01-.13-.04-.02-.05,.03-.06,0-.09-.02-.03-.07,0-.11,.02-.04,.02-.12,.06-.29,.15-.16,.08-.15,.13-.15,.25s.03,.14,.1,.3"/><path class="cls-5" d="M41.24,22.66s.1-.05,.1-.05c0,0,.08-.02,.15-.03,.07,0,.06-.05,.04-.08-.02-.03-.04-.05-.14-.05s-.15,.05-.21,.07c-.05,.02-.12,.04-.12,.04,0,0,.01,.02,.05,.07,.04,.05,.09,.06,.12,.03"/><path class="cls-5" d="M41.62,23.04s.08-.02,.08-.02c0,0,.07-.04,.13-.06,.06-.02,.09-.03,.12-.11,.04-.08-.04-.08-.15-.1-.11-.03-.16,0-.18,.05-.01,.04,0,.09-.05,.17-.04,.08,0,.07,.04,.07"/><path class="cls-5" d="M41.58,23.14c-.11,0-.22,.16-.27,.19-.04,.03-.02,.06-.02,.06,0,0,.03,.07,.04,.13,.01,.06,.02,.17,.02,.17,0,0,.02,0,.08,0s.1-.03,.16-.08c.06-.04,.11-.06,.19-.08,.08-.02,.12-.03,.22-.08,.09-.05-.05-.14-.15-.22-.1-.08-.16-.1-.27-.1"/><path class="cls-5" d="M40.17,23.5c.08,0,.12-.05,.12-.1s-.04-.1-.15-.09c-.26,.02-.52-.07-.56-.33,0,0-.09,.16,.07,.35,.16,.18,.43,.18,.52,.17"/><path class="cls-5" d="M39.27,27.64s.03,.04,.05,.05h.4c.07-.02,.07-.08,.07-.13,0-.05,.04-.2,.1-.47,.05-.27,.15-.46,.19-.57,.04-.11-.04-.14-.07-.21-.03-.07-.07-.19-.08-.25-.01-.06-.11-.05-.16-.05-.05,0-.06,.09-.07,.17,0,.08-.04,.32-.08,.52-.04,.2-.27,.48-.33,.54-.06,.06-.12,.08-.16,.08s-.14,0-.19,.03c-.05,.03-.1,.1-.1,.16s.09,.09,.09,.09c0,0,.08-.04,.1-.08,.03-.04,.09-.04,.16-.06,.06-.01,.07,.01,.05,.04-.02,.03-.02,.04,.03,.12"/><path class="cls-5" d="M38.66,27.62s-.05,.04-.07,.07h.26s0-.05-.03-.07c-.03-.04-.12-.02-.17,0"/><path class="cls-5" d="M39.02,27.62s-.07,.05-.09,.07h.29s.01-.06-.02-.09c-.06-.05-.13,0-.17,.02"/><path class="cls-5" d="M41.48,27.5s-.06,.03-.1,.06c-.04,.03-.06,.08-.06,.12,0,0,0,.01,0,.02h.12s0,0,0-.02c0-.03,.01-.07,.06-.11,.05-.04,0-.07-.03-.07"/><path class="cls-5" d="M41.71,27.63s-.01-.07-.04-.07c-.03,0-.07,.05-.11,.08-.02,.02-.04,.04-.05,.05h.18s.02-.04,.02-.06"/><path class="cls-5" d="M42.81,26.32c.09-.06,.07-.08,.08-.14,0-.07,0-.09-.03-.11-.04-.02-.16-.08-.28-.08s-.35,.03-.43,.09c-.09,.06-.13,.27-.13,.38s.02,.13,.05,.13c.03,0,.08-.08,.08-.08,0,0,.11,.15,.18,.25,.07,.1,.04,.14,0,.22-.03,.08-.14,.29-.23,.33-.09,.04-.16,0-.26-.01-.11-.02-.16,.01-.23,.08-.06,.06,0,.11,.04,.11s.09,0,.13,.05c.03,.04,0,.12,0,.16h.53c.09-.04,.15-.16,.17-.23,.03-.08,.14-.17,.2-.23,.05-.05,.06-.09,.06-.2s-.03-.18-.07-.26c-.04-.08-.07-.19-.06-.26,.01-.07,.13-.14,.21-.2"/><path class="cls-5" d="M41.95,25.01c.05,.08,.03,.1-.05,.12-.07,.02-.16,.03-.27,.02-.12-.01-.12,0-.12,.06,0,.06-.01,.18-.08,.28-.07,.09-.15,.06-.21,.02-.05-.04-.08-.03-.1,.04-.02,.07-.05,.11-.11,.21-.05,.1-.09,.1-.13,.09-.04,0-.07-.07-.11-.07-.04,0-.1-.08-.16-.18-.06-.09-.09,.01-.13,.09-.04,.08-.08,.14-.15,.13-.07,0-.16-.15-.2-.24-.04-.08-.07-.17-.13-.16-.06,0-.17,.14-.25,.18-.07,.04-.09,.02-.12-.02-.03-.05-.08,.02-.12,.12-.04,.11,0,.2,.06,.23,.06,.03,.18-.06,.26-.11,.08-.05,.11-.04,.2-.04s.08,.13,.11,.33c.04,.2,.15,.22,.15,.22,0,0,.04,.03,.13-.12s.1-.3,.18-.3,.09,.02,.18,.14c.09,.12,.16,.21,.2,.12,.05-.09,.09-.22,.15-.26,.05-.05,.11-.06,.05,.03s-.09,.18,.04,.14c.12-.04,.58-.22,.77-.26,0,0,.22-.04,.47-.05,.25-.01,.31-.03,.41-.03s.1,0,.11-.08c0-.07-.05-.05-.23-.05s-.31,.02-.44,.04c-.13,.02-.19,.02-.16-.02,.02-.03,.06-.06,.21-.08,.15-.02,.45-.04,.6-.04,.16,0,.11,.05,.1,.15-.01,.1,.01,.26,.02,.36,0,.1,.01,.13,.1,.26,.09,.14,.38,.22,.46,.27,.08,.05,.07,0,.07-.08,0-.08,.07-.08,.14-.04,.08,.04,.2,.08,.29,.1,.09,.02,.1,.04,.1,.08s0,.15,.02,.24c0,.09,0,.12-.03,.18-.04,.06-.21,.23-.21,.23,0,0-.07,0-.23,.04-.16,.04-.21,.11-.23,.18s.03,.08,.04,.11c0,.01,0,.05,0,.08h.04s.03-.05,.06-.09c.05-.07,.2-.09,.29-.05,.06,.03,.06,.09,.05,.13h.37c.05-.09,.17-.32,.2-.39,.04-.09,.06-.14,.06-.27,0-.12,.02-.59,0-.61-.02-.03,0-.1,0-.24,0-.13,0-.23-.24-.25-.24-.02-.32-.12-.4-.21-.08-.08-.06-.27-.13-.5-.06-.23-.22-.26-.51-.32-.29-.05-.49-.06-.71-.04-.21,.02-.48,.05-.62,.04-.15-.01-.12,.03-.07,.11"/><path class="cls-5" d="M43.32,27.64s-.04,.04-.05,.05h.25s0-.04-.02-.07c-.04-.04-.11-.02-.17,.02"/><path class="cls-5" d="M43.76,27.62s-.07,.05-.08,.07h.25s0-.02,0-.03c0-.04-.08-.08-.17-.04"/><path class="cls-5" d="M37.58,27.78c.02,.08,.03,.16,.06,.24h7.86c.02-.08,.04-.16,.05-.24h-7.97Z"/><path class="cls-5" d="M42.88,24.03c.25,.16,1.04,.17,1.41,.25,.37,.07,.34,.36,.23,.5-.11,.15-.63,.17-.73,.18,.05,.04,.13,.14,.13,.14,0,0,.06,0,.21-.02,.16-.01,.43-.05,.62-.21,.19-.16,.18-.41,0-.58-.17-.17-.44-.19-.72-.22-.28-.03-.5-.05-.81-.1-.31-.05-.46-.18-.46-.36s.17-.28,.29-.31c.12-.03,.32-.09,.49-.02,.17,.07,.38,.07,.72,.03,.34-.04,.42-.28,.42-.28,0,0-.04,.02-.22,.03-.17,0-.3-.07-.62-.08-.32,0-.43,.11-.58,.16-.15,.05-.54,.09-.66,.35-.12,.26,.02,.38,.27,.54"/><path class="cls-4" d="M40.81,22.7c.08,0,.15,.07,.15,.15s-.07,.15-.15,.15-.15-.07-.15-.15,.07-.15,.15-.15"/><path class="cls-4" d="M44,23.09c-.2-.02-.45,.04-.45,.04,0,0,.05,.04,.11,.04,.06,0,.18,0,.37,.03,.19,.04,.33-.06,.33-.06,0,0-.17-.02-.37-.04"/><path class="cls-5" d="M50.3,31.89c.16,.04,1.45,.29,1.56,.31,.11,.02,.2,.05,.23,.02,.03-.03,.05-.05,.16-.09,.12-.04,.11-.16,.11-.16,0,0,.03-.11,.04-.22,.01-.11,.07-.15,.2-.01,.13,.13,.15,.33,.17,.51,.03,.19,.32,.24,.44,.25,.12,.02,.17-.02,.24-.13,.07-.11,.1-.33,.12-.47,.02-.14,0-.13-.14-.16-.14-.04-.82-.19-.94-.22-.12-.03-.1-.11-.08-.19,.02-.08,.28-.94,.28-.94-.19-.12-.46-.19-.77-.22,0,0-.19,.87-.23,1-.04,.13-.12,.13-.26,.11-.14-.02-1.14-.26-1.14-.26l-.08,.19c-.08,.19-.12,.41-.12,.53s.04,.11,.2,.14"/><path class="cls-5" d="M53.74,32.68c-.13-.09-.23-.11-.3,.05-.07,.16-.07,.4-.25,.57s-.42,.34-.66,.32c-.24-.02-.38-.08-.33-.35,.06-.28,.43-.37,.52-.51,.09-.14,.06-.31-.06-.42-.13-.11-.31-.13-.37-.1-.05,.04-.2,.16-.28,.37-.08,.21-.12,.38-.29,.51-.16,.13-.58,.27-.9,.19-.33-.08-.44-.17-.56-.49-.12-.32-.27-.85-.33-.91-.06-.06-.14-.1-.29,0-.14,.1-.15,.24-.17,.36-.02,.12,0,.25,.14,.42,.14,.17,.28,.34,.34,.51,.05,.17,.21,.44-.01,.45-.22,.01-.32,.02-.49-.15-.17-.16-.82-.61-1-.75-.18-.14-.26-.19-.26-.19-.3,0-.61-.13-.91-.34,0,0,.17,.45,.21,.61,.04,.17,.03,.26,.03,.26,0,0,.66,.34,.92,.46,.26,.13,.79,.43,1.04,.58,.26,.16,.47,.4,.92,.31,.45-.09,1.37-.37,1.66-.46,.3-.09,1.11-.29,1.41-.5,.3-.21,.33-.2,.38-.41,.05-.21,0-.33-.13-.41"/><path class="cls-5" d="M51.99,29.56c.05,0,.07-.01,.22-.03,.15-.02,.1,.13,.07,.18-.03,.06-.07,.17-.14,.28-.06,.11,.02,.12,.06,.14,.04,.02,.11,.02,.23,.06,.12,.03,.1-.06,.11-.1,0-.05,0-.29,.02-.38,.01-.09,.09-.06,.12-.05,.03,.02,.11,.06,.17,.09,.06,.03,.09,0,.11-.04s.04-.1,.07-.2c.03-.1-.03-.08-.09-.08s-.15,0-.25,0c-.1,0-.04-.1-.04-.1,0,0,.07-.12,.13-.21,.06-.09,.04-.1-.02-.12-.06-.02-.23-.06-.29-.07-.05-.01-.07,0-.07,.03s0,.21,0,.27,0,.11-.09,.11c-.09,0-.14-.05-.21-.12-.07-.08-.1-.05-.11-.02,0,.03-.06,.25-.08,.31-.01,.06,.02,.06,.07,.05"/><path class="cls-5" d="M46.96,32.01c-.1-.1,.15-.11,.3-.11s.39-.08,.46-.13c.08-.05,.21-.07,.37-.15,.16-.08,.06-.1-.1-.14-.16-.04-.6-.23-.6-.23,0,0-.21,.12-.33,.18-.12,.07-.28,.17-.54,.2-.26,.03-.34,.05-.35,.05-.01,0,.06,.07,.16,.21,.1,.14,.14,.23,.26,.44,.12,.21-.02,.09-.12-.04-.06-.07-.19-.25-.3-.37-.09-.1-.19-.16-.19-.16l-.08,.18v.06c0,.06-.05,.34-.06,.46-.02,.11,.03,.11,.12,.16,.09,.04,.27,.14,.75,.45,.48,.3,.66,.5,.66,.5,0,0,.02-.13,.02-.26s0-.4-.11-.7c-.11-.3-.21-.5-.31-.6"/><path class="cls-5" d="M45.84,31.34c.11,.02,.16,.05,.32,.05s.23-.05,.39-.05,.28-.06,.54-.2c.27-.14,.01-.1-.18-.08-.19,.02-.67-.06-.88-.14-.21-.08-.06-.09,0-.07,.06,.02,.08,.04,.5,.11,.42,.07,.57-.02,.79-.08,.21-.06-.05-.08-.05-.08,0,0-.76-.21-1.14-.64-.29-.32-.39-.62-.42-.74-.15,.18-.31,.33-.49,.46,.01,.06,.04,.16,.08,.25,.06,.14,.24,.33,.24,.33,0,0-.23-.09-.33-.2-.07-.07-.13-.19-.16-.25-.25,.17-.51,.31-.74,.42,.03,.02,.06,.05,.1,.09,.1,.09,.2,.21,.33,.42,.13,.21,.01,.19-.11,0-.12-.19-.41-.39-.47-.42,0,0-.01,0-.02,0-.03,.01-.06,.03-.09,.04-.16,.07-.31,.14-.46,.2,.1,.08,.32,.3,.4,.41,.08,.12,.26,.24,.32,.32,.06,.08,.13,.18,.21,.28,.08,.1,.59,.67,.73,.89,.13,.21,.05-.06,.02-.2-.03-.15-.08-.36-.13-.52-.04-.16,.05-.1,.07,0,.02,.09,.04,.1,.08,.27s.14,.44,.19,.62c.05,.18,.06,.1,.11,.01,.05-.08,.11-.23,.14-.32,.03-.09,.05-.29,.06-.6,0-.31-.15-.44-.15-.48s.07-.08,.19-.06"/><path class="cls-5" d="M48.02,32.02s-.2,.07-.27,.08c-.07,.01-.12,.02-.12,.02,0,0,.14,.2,.36,.2h.61s-.37-.22-.42-.27c-.05-.05-.12-.05-.16-.03"/><path class="cls-5" d="M52.48,31.75s0,.18-.03,.24c-.02,.06-.06,.15,.01,.17,.07,.02,.14,.05,.18,.04,.04-.01,.03-.1,0-.17-.02-.07-.06-.16-.12-.22l-.05-.06Z"/><path class="cls-5" d="M53.54,32.46c.02,.05,.07,.07,.11,.08,.04,.01,.08,.01,.08-.05s.01-.15-.04-.22c-.05-.07-.08-.12-.11-.02-.03,.11-.06,.16-.04,.22"/><path class="cls-5" d="M49.83,31.75s.14,.04,.14,.04c0,0,0-.17,.02-.28,.03-.11,.07-.19,.03-.19s-.07,.04-.1,.08c-.03,.05-.12,.06-.14,.2-.03,.14,.01,.15,.04,.15"/><path class="cls-4" d="M35.18,26.97c-.12,.09-.28,.13-.28,.13,0,0-.08,0-.08,.02s.09,0,.18-.02c.09-.02,.22-.11,.27-.14,.04-.03,.11-.08,.09-.13-.02-.06-.06,.05-.18,.14"/><path class="cls-4" d="M36.22,27.53s-.23,.18-.23,.18c0,0-.06,.04-.13,.07-.07,.03-.08,.06-.08,.06,0,0,.01,.02,.08,0,.07-.02,.28-.17,.35-.23,.07-.06,.1-.08,.07-.1-.03-.03-.04,0-.06,.02"/><path class="cls-4" d="M31.99,20s.08,.11,.1,.09c.02-.02,0-.04-.05-.1-.05-.06-.08-.09-.08-.09,0,0-.07-.11-.11-.15-.04-.04-.1-.06-.03,.03,.08,.1,.13,.18,.17,.22"/><path class="cls-4" d="M31.67,20.71s.09,.08,.14,.13c.05,.05,.09,.11,.12,.08s-.08-.09-.12-.15c-.05-.06-.08-.1-.14-.14s-.13-.08-.13-.08c0,0,.09,.12,.14,.16"/><path class="cls-4" d="M31.79,21.85c.08,.08,.2,.11,.21,.08,.02-.03,0-.06-.07-.09-.07-.03-.18-.1-.23-.14-.05-.04-.11-.08-.15-.12-.04-.04-.08-.07-.09-.06-.02,.01,.11,.15,.15,.17,.04,.02,.11,.08,.19,.17"/><path class="cls-4" d="M32.02,22.76s0-.05-.06-.05c-.07,0-.16-.02-.16-.02,0,0-.13-.05-.14-.03,0,.03,.11,.08,.16,.08,.05,0,.11,.03,.14,.04,.03,.02,.05,0,.05-.03"/><path class="cls-4" d="M32.12,23.75c-.14,0-.27-.03-.27-.01,0,.02,.07,.05,.14,.08,.07,.03,.21,.03,.3,.04,.09,0,.11-.02,.11-.06,0-.05-.12-.04-.27-.04"/><path class="cls-4" d="M33.23,24.83s-.07,0-.15,.01c-.08,.02-.21,.04-.28,.04-.08,0-.24,0-.24,0,0,0-.09,0-.09,.02s.12,.02,.3,.04c.18,.02,.29-.02,.38-.03,.08-.01,.11-.05,.09-.07"/><path class="cls-4" d="M33.7,25.61c-.09,.03-.15,.04-.22,.04s-.23,.03-.23,.03c0,0-.08,0-.06,.04,.01,.03,.04,0,.11,0s.12,0,.23,0c.12,0,.19-.03,.26-.05,.07-.01,.15-.05,.11-.1-.04-.04-.11,.01-.2,.05"/><path class="cls-4" d="M34.59,26.19c-.05,.05-.24,.18-.24,.18,0,0-.04,.03-.11,.07-.07,.04-.07,.05-.06,.08,.01,.02,.06-.03,.1-.05,.04-.02,.18-.11,.25-.17,.07-.06,.16-.11,.15-.15-.02-.04-.03-.01-.08,.04"/><path class="cls-4" d="M33.1,18.63s.02,.04,.17,.23c.15,.19,.07,.01,.03-.04-.04-.05-.27-.37-.34-.46-.08-.09-.09-.04-.05,.01,.04,.05,.19,.25,.19,.25"/><path class="cls-4" d="M32.77,19.63s-.03-.04-.12-.15c-.09-.11-.27-.34-.27-.34,0,0-.05-.11-.07-.09-.02,.01,.06,.18,.13,.25,.07,.07,.17,.21,.22,.27,.05,.06,.08,.09,.1,.07"/><path class="cls-4" d="M33.2,21.49c0-.05-.18-.05-.26-.06-.08-.02-.22-.05-.22-.05,0,0-.17-.03-.17,0,0,.02,.03,.04,.12,.06s.23,.06,.33,.08c.1,.02,.19,.04,.19-.02"/><path class="cls-4" d="M32.77,20.48c.12,.09,.19,.14,.25,.17,.06,.03,.11,.08,.14,.04,.03-.04-.03-.07-.13-.11-.1-.04-.15-.08-.15-.08,0,0-.05-.03-.11-.05-.05-.03-.13-.06-.02,.03"/><path class="cls-4" d="M33.78,19.82c-.07-.06-.13-.09-.13-.09,0,0-.09-.08-.11-.06-.02,.03,.1,.11,.15,.16,.06,.05,.16,.19,.2,.17,.05-.03-.05-.12-.12-.18"/><path class="cls-4" d="M33.12,22.42s-.1,.03-.16,.04c-.06,.02-.07,.05,.05,.05s.16-.03,.27-.05c.11-.02,.15-.03,.13-.07-.02-.04-.07-.03-.12-.01-.05,.01-.17,.05-.17,.05"/><path class="cls-4" d="M33.3,23.36s.08,0,.14-.02c.06-.02,.18-.08,.25-.11,.07-.02,.07-.03,.07-.08s-.07,0-.17,.02c-.09,.03-.21,.12-.21,.12,0,0-.08,.04-.08,.06"/><path class="cls-4" d="M34.51,23.93c.08-.05,.1-.09,.07-.11-.03-.03-.05-.02-.12,.03-.07,.05-.2,.15-.2,.15,0,0-.07,.03-.12,.05-.05,.03-.11,.07-.1,.09,.02,.03,.12,0,.18-.05,.05-.05,.2-.11,.29-.16"/><path class="cls-4" d="M35.08,24.69s.13-.06,.18-.1c.04-.03,.07-.13,.04-.15-.04-.01-.06,.04-.14,.1-.08,.06-.35,.24-.35,.24,0,0,0,0-.07,.03s-.04,.05,.02,.04c.06,0,.1,0,.18-.07,.08-.06,.11-.07,.14-.1"/><path class="cls-4" d="M35.93,25.41c.07-.03,.18-.12,.23-.17,.05-.05,.11-.11,.08-.13-.04-.03-.08,0-.14,.06-.06,.05-.21,.22-.21,.22,0,0-.02,0-.1,.07-.08,.07,0,.05,.03,.03s.05-.05,.12-.08"/><path class="cls-4" d="M48.23,27.1s-.16-.04-.28-.13c-.12-.09-.16-.2-.18-.14-.02,.06,.04,.1,.09,.13,.04,.03,.17,.13,.26,.14,.09,.02,.18,.05,.18,.02s-.07-.02-.07-.02"/><path class="cls-4" d="M47.27,27.78c-.07-.03-.13-.07-.13-.07,0,0-.2-.15-.23-.18-.03-.03-.04-.05-.06-.02-.03,.03,0,.04,.07,.1,.07,.06,.28,.21,.35,.23,.07,.02,.08,0,.08,0,0,0-.02-.04-.08-.06"/><path class="cls-4" d="M51.15,20s.09-.12,.17-.22c.08-.1,.02-.07-.03-.03-.04,.04-.11,.15-.11,.15,0,0-.03,.03-.08,.09-.05,.06-.07,.08-.05,.1,.02,.02,.07-.04,.11-.09"/><path class="cls-4" d="M51.21,20.93s.07-.03,.12-.08c.05-.05,.09-.09,.14-.13,.05-.04,.14-.16,.14-.16,0,0-.07,.04-.13,.08-.06,.05-.1,.08-.14,.14-.05,.06-.15,.12-.12,.15"/><path class="cls-4" d="M51.68,21.51s-.06,.02-.1,.06c-.04,.04-.09,.08-.15,.12-.05,.04-.16,.11-.23,.14-.07,.03-.09,.06-.08,.09,.02,.03,.13,0,.21-.08,.08-.08,.15-.15,.18-.17,.04-.02,.16-.16,.15-.17"/><path class="cls-4" d="M51.33,22.69s-.09,.01-.16,.02c-.07,0-.06,.02-.06,.05s.03,.05,.05,.03c.03-.02,.09-.03,.14-.04,.05,0,.17-.06,.16-.08,0-.02-.14,.03-.14,.03"/><path class="cls-4" d="M51.02,23.75c-.14,0-.26,0-.27,.04,0,.05,.01,.07,.1,.06,.09,0,.23-.01,.3-.04,.07-.03,.15-.06,.14-.08,0-.02-.13,.01-.27,.01"/><path class="cls-4" d="M50.58,24.88s-.16,0-.24,0-.21-.02-.29-.04c-.08-.02-.13-.03-.15-.01-.02,.02,0,.06,.09,.07,.08,.01,.2,.05,.38,.03,.18-.02,.3-.02,.3-.04s-.09-.02-.09-.02"/><path class="cls-4" d="M49.88,25.68s-.16-.03-.23-.03-.13,0-.22-.04c-.09-.03-.16-.09-.2-.05-.04,.05,.04,.08,.11,.1,.07,.01,.14,.04,.26,.05,.12,0,.17,0,.24,0,.07,0,.09,.04,.1,0,.01-.03-.06-.04-.06-.04"/><path class="cls-4" d="M48.9,26.44c-.07-.04-.11-.07-.11-.07,0,0-.19-.13-.24-.18-.05-.05-.07-.08-.08-.04-.02,.04,.07,.09,.15,.15,.07,.06,.21,.15,.25,.17,.04,.02,.09,.07,.1,.05,.01-.02,.02-.04-.06-.08"/><path class="cls-4" d="M49.86,18.86c.15-.19,.17-.23,.17-.23,0,0,.15-.2,.19-.25,.04-.06,.03-.1-.05-.01-.08,.09-.3,.41-.34,.46-.04,.05-.12,.23,.03,.04"/><path class="cls-4" d="M50.81,19.04s-.07,.09-.07,.09c0,0-.18,.23-.27,.34-.09,.11-.14,.13-.12,.16,.02,.02,.05,0,.1-.07,.05-.06,.14-.2,.21-.27,.07-.07,.15-.24,.13-.25"/><path class="cls-4" d="M49.93,21.49c0,.05,.08,.03,.19,.02s.24-.06,.33-.08,.13-.04,.12-.06c0-.02-.17,0-.17,0,0,0-.14,.03-.22,.05-.08,.02-.25,0-.25,.06"/><path class="cls-4" d="M50.35,20.45c-.05,.03-.11,.05-.11,.05,0,0-.05,.04-.15,.08-.1,.04-.16,.07-.13,.11,.03,.04,.08-.01,.14-.04,.06-.03,.14-.08,.25-.17,.12-.09,.03-.06-.02-.03"/><path class="cls-4" d="M49.24,20s.15-.12,.21-.17c.05-.05,.17-.13,.15-.16-.02-.03-.11,.06-.11,.06,0,0-.06,.03-.13,.09-.07,.06-.17,.15-.12,.18"/><path class="cls-4" d="M49.85,22.46c.11,.02,.16,.05,.27,.05s.11-.03,.04-.05c-.06-.02-.16-.04-.16-.04,0,0-.13-.03-.17-.05-.05-.01-.11-.03-.12,.01-.02,.04,.02,.05,.13,.07"/><path class="cls-4" d="M49.75,23.3s-.12-.09-.21-.12-.17-.06-.17-.02,0,.05,.07,.08c.07,.02,.19,.08,.25,.11,.06,.02,.15,.04,.14,.02,0-.02-.08-.06-.08-.06"/><path class="cls-4" d="M48.99,24.05s-.12-.05-.12-.05c0,0-.13-.09-.2-.15-.07-.05-.09-.06-.12-.03-.03,.03-.01,.06,.07,.11,.08,.05,.23,.12,.29,.16,.05,.05,.16,.07,.18,.05,.02-.03-.05-.07-.1-.09"/><path class="cls-4" d="M48.4,24.81c-.08-.03-.07-.03-.07-.03,0,0-.27-.18-.35-.24-.08-.06-.1-.11-.14-.1-.04,.01,0,.11,.04,.15,.05,.03,.15,.07,.18,.1,.04,.03,.07,.04,.14,.1,.07,.06,.12,.06,.18,.07,.06,0,.1-.01,.02-.04"/><path class="cls-4" d="M47.36,25.46c-.08-.07-.11-.07-.11-.07,0,0-.15-.16-.21-.22-.06-.05-.1-.09-.14-.06-.04,.03,.03,.09,.08,.13,.05,.05,.15,.14,.23,.17,.07,.03,.09,.05,.12,.08s.12,.04,.03-.03"/><path class="cls-5" d="M41.56,15.29c-.57,0-1.24-.07-1.61-.21-.13,.03-.26,.06-.39,.09,.61,.23,1.12,.32,2,.33,.89,0,1.4-.1,2-.33-.13-.03-.26-.06-.39-.09-.37,.14-1.04,.22-1.61,.21"/><path class="cls-5" d="M43.64,14.82s-.3-.22-.37-.26c-.07-.03-.02-.12,0-.16,.01-.04,.3-.12,.47-.16,.16-.04,.13-.08,.13-.08,0,0-.09-.11-.68-.17-.59-.06-1.62-.05-1.62-.05,0,0-1.03-.01-1.62,.05-.59,.06-.68,.17-.68,.17,0,0-.03,.03,.13,.08s.46,.12,.47,.16c0,.04,.06,.13,0,.16-.07,.03-.33,.22-.37,.26-.04,.04-.05,.1,.02,.1,.07,0,.07,0,.28-.04,.61-.12,1.18-.15,1.78-.16,.61,0,1.17,.04,1.78,.16,.2,.04,.2,.04,.28,.04,.07,0,.07-.06,.02-.1"/><polygon class="cls-5" points="39.32 14.3 39.06 14.51 39.38 14.65 39.72 14.4 39.32 14.3"/><polygon class="cls-5" points="43.81 14.3 43.41 14.4 43.75 14.65 44.07 14.51 43.81 14.3"/><path class="cls-5" d="M42.97,15.07c-.4-.05-.66-.1-1.41-.09-.75,0-1,.05-1.41,.09,.25,.1,.67,.15,1.41,.15s1.15-.05,1.41-.15"/><path class="cls-6" d="M42.13,26.75c-.05-.08-.06-.07-.12-.02-.05,.05-.11-.12-.12-.22,0-.1,.04-.42,.04-.42,0,0-.27,.05-.41,.1-.14,.05-.28,.06-.4,.09-.12,.03-.18,.05-.24,.04-.06-.01-.19-.02-.29-.02s-.1,.02-.2,.12c-.1,.1-.13,.16-.21,.35-.08,.19-.11,.37-.14,.6-.02,.15-.05,.26-.07,.31h1.23s.03-.09,.05-.13c.03-.07,.1-.12,.15-.14,.05-.02,.09-.02,.11-.08,.02-.05,.08-.1,.15-.13,.06-.03,.18-.01,.28,.02,.1,.03,.14-.04,.17-.08,.03-.04,.04-.09,.1-.16,.05-.07,.01-.14,.01-.14,0,0-.05-.03-.1-.11"/><path class="cls-6" d="M44.11,26.78c-.02-.07,0-.08-.05-.09-.04,0-.11-.02-.17-.05-.06-.03-.05,.14-.05,.14,0,0-.14,.02-.31,0-.16-.02-.36-.17-.43-.21-.07-.05-.14-.16-.14-.16,0,0-.05,.05-.1,.08-.05,.03-.08,.13-.09,.24,0,.1,.12,.23,.13,.33,0,.1-.11,.31-.17,.39-.04,.06-.1,.18-.12,.25h.59s.03-.07,.06-.1c.06-.06,.16-.07,.16-.07,0,0,0-.03,.02-.08,.02-.05,.08-.12,.23-.18,.15-.06,.33-.07,.33-.07,0,0,.07-.06,.12-.14,.05-.08,.01-.2,0-.27"/><polygon class="cls-5" points="41.44 9.54 41.75 9.51 41.72 9.24 42.05 9.29 42.07 9.02 41.72 9.05 41.78 8.77 41.4 8.76 41.46 9.05 41.13 9.02 41.13 9.29 41.46 9.25 41.44 9.54"/><path class="cls-5" d="M42.12,9.97h-.41v-.35s-.08-.01-.12-.01c-.04,0-.07,0-.11,0v.35h-.43s-.02,.09-.02,.14c0,.02,0,.04,0,.06h1.11s0-.04,0-.06c0-.05,0-.1-.02-.14"/><path class="cls-6" d="M41.58,10.62c.25,0,.46-.14,.53-.34h-1.06c.07,.2,.28,.34,.53,.34"/><path class="cls-6" d="M41.81,9.65v.24h.28c-.06-.11-.15-.19-.28-.24"/><path class="cls-6" d="M41.35,9.65c-.12,.05-.22,.14-.27,.24h.27v-.24Z"/><path class="cls-4" d="M41.9,14.15c-.11-.05-.33-.15-.33-.15,0,0-.22,.11-.33,.17-.12,.06-.1,.04-.14,.13-.04,.09,0,.12,.05,.14,.05,.02,.42,.21,.42,.21,0,0,.37-.17,.46-.21,.09-.04,.07-.08,.05-.15-.03-.06-.07-.09-.18-.14"/><path class="cls-4" d="M42.65,14.05c.18,0,.33,.14,.33,.31s-.15,.31-.33,.31-.32-.14-.32-.31,.14-.31,.32-.31"/><path class="cls-4" d="M40.47,14.05c.18,0,.32,.14,.32,.31s-.14,.31-.32,.31-.33-.14-.33-.31,.14-.31,.33-.31"/><polygon class="cls-5" points="41.21 14.26 41.57 14.44 41.93 14.26 41.56 14.09 41.21 14.26"/><path class="cls-5" d="M42.65,14.11c.11,0,.2,.08,.2,.19s-.09,.19-.2,.19-.2-.08-.2-.19,.09-.19,.2-.19"/><path class="cls-5" d="M40.47,14.11c.11,0,.2,.08,.2,.19s-.09,.19-.2,.19-.2-.08-.2-.19,.09-.19,.2-.19"/><path class="cls-5" d="M39.79,13.29c.08,.03,.19,.02,.19,.02,0,0,.03-.14-.05-.21-.08-.07-.15-.12-.2-.17-.05-.05-.06-.06-.06-.06,0,0,0,.12,0,.2,0,.08,.03,.19,.12,.22"/><path class="cls-5" d="M39.96,13.39s.06,.03,.06,.06c0,.03-.03,.06-.06,.06s-.06-.03-.06-.06c0-.03,.03-.06,.06-.06"/><path class="cls-5" d="M39.52,13.38s-.08,.09-.08,.09c0,0,.07,0,.12,.04,.05,.04,.12,.07,.19,.06,.06,0,.09-.07,.08-.11s-.04-.09-.15-.13c-.11-.04-.13,0-.16,.04"/><path class="cls-5" d="M39.75,13.76c-.21,.02-.47-.21-.47-.21-.03,.18-.14,.28-.31,.31h.02s.16,.09,.35,.12c.09,.01,.16,0,.25-.02,.11-.02,.23-.05,.3-.1,.12-.08,.09-.27,.09-.27,0,0-.02,.15-.22,.17"/><path class="cls-5" d="M38.95,13.56c-.08-.03-.21-.09-.26-.09-.05,0-.13-.02-.12,.08,.01,.1,.11,.14,.21,.15,.1,0,.15-.03,.2-.06,.06-.03,.05-.04-.04-.07"/><path class="cls-5" d="M38.31,13.21c-.09-.07-.17-.08-.17-.08,0,0-.06,.16-.03,.25,.04,.1,.11,.12,.19,.12,.09,0,.21-.05,.18-.11-.04-.07-.08-.11-.17-.18"/><path class="cls-5" d="M38.39,13.6s.07,.02,.07,.05-.03,.05-.07,.05-.07-.02-.07-.05,.03-.05,.07-.05"/><path class="cls-5" d="M38.59,12.87c-.06-.27-.05-.56,.21-.93,.25-.37,.7-.52,.7-.52,0,0,.01-.03,.15-.18,.14-.15,.43-.34,.43-.34,0,0-.33,.08-.52,.14h0c0,.14-.1,.24-.23,.24-.05,0-.09-.02-.13-.04-.1,.02-.45,.23-.54,.3,.02,.04,.04,.08,.04,.12,0,.13-.1,.23-.23,.23-.04,0-.07,0-.11-.03,0,.02-.02,.03-.03,.05-.07,.13-.12,.26-.16,.38,.06,.04,.1,.12,.1,.2,0,.13-.09,.23-.2,.23,0,.08,0,.13,0,.15,0,.08,.04,.12,.17,.16,.13,.04,.31,.27,.31,.27,.01,0,.11-.17,.04-.44"/><path class="cls-5" d="M39.4,11.15s.06-.1,.02-.13c-.04-.04-.11-.03-.16,0-.05,.04-.06,.1-.02,.13,.04,.03,.11,.03,.16,0"/><path class="cls-5" d="M38.55,11.72c.05-.05,.06-.12,.02-.17-.04-.04-.12-.04-.18,.01-.05,.05-.06,.12-.02,.17,.04,.04,.12,.04,.18-.01"/><path class="cls-5" d="M38.04,12.32c.07,0,.13,.06,.13,.13s-.06,.13-.13,.13-.13-.06-.13-.13,.06-.13,.13-.13"/><path class="cls-5" d="M40.89,10.62c-.07,.02-.2,.06-.38,.16h0c.13,0,.24,.08,.24,.19s-.12,.23-.25,.23-.22-.11-.22-.22c0-.03,0-.05,.02-.07-.06,.04-.12,.07-.18,.12-.42,.28-.52,.42-.73,.81-.21,.39-.28,.81-.19,1.06s.42,.3,.43,.3c0,0-.04-.04-.04-.08,0-.05,0-.07,.02-.16,.01-.09,0-.21,0-.21,0,0,.08,0,.12,.04,.04,.05,.1,.11,.15,.17,.04,.05,.16,.15,.16,.15,0,0,.06-.09,.06-.21s-.07-.24-.09-.43c-.01-.2,.09-.55,.28-.81,.2-.26,.56-.5,.67-.55,.11-.05,.13-.13,.13-.18,0-.05,.01-.08,.02-.2,0-.12-.1-.11-.21-.09"/><path class="cls-5" d="M40.47,11.07c.07,0,.14-.07,.14-.13s-.06-.11-.13-.11-.13,.05-.13,.11,.05,.13,.12,.13"/><path class="cls-5" d="M41.1,13.53c.1,.04,.22,.02,.27-.02,.05-.04,.07-.13,0-.18-.06-.05-.16-.05-.22-.02s-.19,.13-.19,.13c0,0,.03,.05,.13,.09"/><path class="cls-5" d="M41.42,13.65c-.04,.06-.06,.09-.18,.1-.11,0-.23,0-.31-.08-.07-.07-.12-.18-.12-.18h-.13s-.04,.17-.1,.22c-.05,.05-.25,.06-.34,0-.09-.06-.16-.14-.18-.13-.01,0,0,.07,.09,.15,.09,.08,.15,.12,.29,.12h.81s.16,0,.21-.09c.05-.1,.05-.16,.03-.18-.02-.03-.04,.02-.07,.07"/><path class="cls-5" d="M40.2,13.51c.12,.07,.19,.03,.23-.03,.04-.05,.05-.08,.05-.08,0,0-.12-.04-.17-.07-.05-.03-.09-.06-.15-.06-.06,0-.06,.01-.06,.01,0,0-.02,.16,.1,.22"/><path class="cls-5" d="M41.75,13.33c-.06,.05-.04,.14,0,.18,.05,.04,.17,.06,.27,.02s.13-.09,.13-.09c0,0-.13-.09-.19-.13-.06-.03-.15-.03-.22,.02"/><path class="cls-5" d="M42.88,13.71c-.09,.06-.28,.06-.34,0-.06-.05-.1-.22-.1-.22h-.13s-.05,.11-.12,.18c-.07,.07-.2,.08-.31,.08-.11,0-.14-.04-.18-.1-.04-.06-.05-.1-.07-.07-.02,.02-.02,.09,.03,.18,.05,.1,.21,.09,.21,.09h.81c.14,0,.2-.05,.29-.12,.09-.08,.1-.14,.09-.15-.02-.01-.09,.07-.18,.13"/><path class="cls-5" d="M42.82,13.33c-.05,.03-.17,.07-.17,.07,0,0,0,.02,.05,.08,.04,.05,.11,.1,.23,.03,.12-.07,.1-.22,.1-.22,0,0,0,0-.06-.01-.05,0-.09,.02-.15,.06"/><path class="cls-5" d="M43.45,13.06c0-.08,0-.2,0-.2,0,0-.01,.02-.06,.06-.05,.05-.12,.1-.2,.17-.08,.07-.05,.21-.05,.21,0,0,.11,.01,.19-.02,.08-.03,.12-.15,.12-.22"/><path class="cls-5" d="M43.22,13.44s-.03-.06-.06-.06-.06,.03-.06,.06,.03,.06,.06,.06,.06-.03,.06-.06"/><path class="cls-5" d="M43.38,13.58c.06,0,.13-.03,.19-.06,.05-.04,.12-.04,.12-.04,0,0-.05-.06-.08-.09-.03-.04-.05-.08-.16-.04-.11,.04-.14,.08-.15,.13-.01,.04,.01,.1,.08,.11"/><path class="cls-5" d="M43.86,13.55s-.27,.23-.47,.21c-.21-.02-.22-.17-.22-.17,0,0-.04,.2,.09,.27,.07,.04,.19,.07,.3,.1,.09,.02,.17,.03,.25,.02,.19-.03,.35-.11,.35-.11h.02c-.17-.04-.28-.14-.31-.32"/><path class="cls-5" d="M44.44,13.46c-.05,0-.18,.06-.26,.09-.08,.03-.09,.04-.04,.07,.06,.03,.11,.07,.21,.06,.1,0,.2-.05,.21-.15,.01-.1-.06-.08-.12-.08"/><path class="cls-5" d="M44.82,13.21c-.09,.07-.13,.11-.17,.18-.04,.07,.09,.11,.18,.11,.09,0,.16-.02,.19-.12,.03-.1-.03-.25-.03-.25,0,0-.08,.02-.17,.08"/><path class="cls-5" d="M44.73,13.6s.07,.02,.07,.05-.03,.05-.07,.05-.07-.02-.07-.05,.03-.05,.07-.05"/><path class="cls-5" d="M44.86,12.49c0-.09,.04-.16,.1-.2-.04-.12-.09-.24-.16-.38,0-.02-.02-.03-.03-.05-.03,.02-.07,.03-.11,.03-.13,0-.23-.1-.23-.23,0-.04,.01-.09,.04-.12-.09-.07-.43-.28-.54-.3-.04,.03-.08,.04-.13,.04-.12,0-.23-.1-.23-.23h0c-.19-.07-.52-.15-.52-.15,0,0,.29,.19,.43,.34,.14,.15,.16,.18,.16,.18,0,0,.44,.15,.7,.52,.26,.37,.27,.66,.21,.93-.07,.27,.03,.44,.04,.44,0,0,.18-.23,.31-.27,.13-.04,.16-.08,.17-.16,0-.02,0-.08,0-.15-.11,0-.2-.11-.2-.23"/><path class="cls-5" d="M43.73,11.15s.12,.04,.16,0c.04-.04,.03-.09-.02-.13-.05-.04-.12-.04-.16,0-.04,.03-.03,.09,.02,.13"/><path class="cls-5" d="M44.58,11.72c.05,.05,.13,.05,.18,.01,.04-.04,.03-.12-.02-.17-.05-.05-.13-.05-.18-.01-.04,.04-.03,.12,.02,.17"/><path class="cls-5" d="M45.09,12.32c.07,0,.13,.06,.13,.13s-.06,.13-.13,.13-.13-.06-.13-.13,.06-.13,.13-.13"/><path class="cls-5" d="M42.05,10.91s.02,.13,.13,.18c.11,.05,.47,.29,.67,.55,.19,.26,.3,.61,.28,.81-.02,.2-.09,.32-.09,.43s.07,.21,.07,.21c0,0,.11-.1,.15-.15,.04-.05,.11-.11,.15-.17,.04-.05,.12-.04,.12-.04,0,0,0,.11,0,.21,.01,.09,.03,.12,.02,.17,0,.05-.05,.08-.04,.08,0,0,.34-.05,.43-.3,.09-.25,.01-.67-.19-1.06-.21-.39-.31-.52-.73-.81-.06-.04-.12-.08-.18-.12,.01,.02,.02,.05,.02,.07,0,.11-.09,.22-.22,.22s-.25-.12-.25-.23,.1-.19,.24-.19h0c-.19-.1-.32-.14-.38-.16-.11-.02-.22-.03-.21,.09,0,.12,.02,.15,.02,.2"/><path class="cls-5" d="M41.56,12.84s-.03,.13-.07,.18c-.04,.05-.07,.1-.06,.17s.09,.11,.13,.11,.12-.04,.13-.11-.02-.12-.06-.17c-.04-.05-.07-.18-.07-.18"/><path class="cls-5" d="M41.57,13.36s.07,.03,.07,.07-.03,.07-.07,.07-.07-.03-.07-.07,.03-.07,.07-.07"/><path class="cls-5" d="M41.32,13.08s.12-.13,.16-.21c.04-.08,.08-.16,.08-.16,0,0,.04,.07,.08,.16,.04,.08,.16,.21,.16,.21,0,0,.17-.09,.26-.41,.1-.32-.02-.66-.07-1.02-.04-.36-.08-.99-.08-.99-.13,.07-.25,.1-.36,.1-.12,0-.23-.03-.36-.1,0,0-.04,.62-.08,.99-.04,.36-.16,.7-.06,1.02,.1,.32,.26,.41,.26,.41"/><path class="cls-5" d="M42.51,10.94c0,.06,.07,.13,.14,.13s.12-.06,.12-.13-.06-.11-.13-.11-.13,.05-.13,.11"/><path class="cls-4" d="M39.61,12.05c.15,0,.27,.12,.27,.27s-.12,.27-.27,.27-.27-.12-.27-.27,.12-.27,.27-.27"/><path class="cls-4" d="M40.08,11.39c-.11-.07-.27-.04-.35,.06-.09,.11-.07,.26,.04,.33,.11,.07,.27,.04,.35-.06,.09-.11,.07-.25-.04-.33"/><path class="cls-5" d="M39.6,12.14c.09,0,.16,.07,.16,.15s-.07,.15-.16,.15-.16-.07-.16-.15,.07-.15,.16-.15"/><path class="cls-5" d="M39.97,11.42c-.07-.02-.16,.02-.19,.08-.04,.06,0,.13,.09,.15,.17,.03,.25-.18,.1-.22"/><path class="cls-4" d="M41.56,12.08c.16,0,.29,.12,.29,.28s-.13,.28-.29,.28-.29-.12-.29-.28,.13-.28,.29-.28"/><path class="cls-4" d="M41.56,11.44c.15,0,.28,.12,.28,.27s-.12,.27-.28,.27-.28-.12-.28-.27,.12-.27,.28-.27"/><path class="cls-4" d="M41.56,10.83c.14,0,.26,.11,.26,.25s-.12,.25-.26,.25-.27-.11-.27-.25,.12-.25,.27-.25"/><path class="cls-4" d="M43.52,12.05c-.15,0-.27,.12-.27,.27s.12,.27,.27,.27,.27-.12,.27-.27-.12-.27-.27-.27"/><path class="cls-4" d="M43.4,11.46c-.09-.11-.25-.14-.35-.06-.11,.07-.12,.22-.04,.33,.09,.11,.25,.14,.35,.06,.11-.07,.12-.22,.04-.33"/><path class="cls-5" d="M43.53,12.14c.09,0,.16,.07,.16,.15s-.07,.15-.16,.15-.16-.07-.16-.15,.07-.15,.16-.15"/><path class="cls-5" d="M43.16,11.42c-.15,.04-.07,.26,.1,.22,.09-.02,.13-.08,.09-.15-.04-.06-.12-.09-.19-.08"/><path class="cls-5" d="M41.56,12.16c.08,0,.15,.07,.15,.15s-.07,.15-.15,.15-.15-.07-.15-.15,.07-.15,.15-.15"/><path class="cls-5" d="M41.56,11.52c.08,0,.15,.06,.15,.14s-.07,.14-.15,.14-.15-.06-.15-.14,.07-.14,.15-.14"/><path class="cls-5" d="M41.56,10.92c.07,0,.13,.06,.13,.12s-.06,.12-.13,.12-.13-.05-.13-.12,.06-.12,.13-.12"/><path class="cls-4" d="M50.56,31.22c.13,0,.24,.11,.24,.24s-.11,.24-.24,.24-.24-.11-.24-.24,.11-.24,.24-.24"/><path class="cls-4" d="M51.22,31.38c.13,0,.24,.11,.24,.24s-.11,.24-.24,.24-.24-.11-.24-.24,.11-.24,.24-.24"/><path class="cls-4" d="M53.16,31.79c.13,0,.24,.11,.24,.24s-.11,.24-.24,.24-.24-.11-.24-.24,.11-.24,.24-.24"/><path class="cls-4" d="M51.89,31.54c.13,0,.24,.11,.24,.24s-.11,.24-.24,.24-.24-.11-.24-.24,.11-.24,.24-.24"/><path class="cls-4" d="M52.07,30.96c.13,0,.24,.11,.24,.24s-.11,.24-.24,.24-.24-.11-.24-.24,.11-.24,.24-.24"/><path class="cls-4" d="M52.24,30.37c.13,0,.24,.11,.24,.24s-.11,.24-.24,.24-.24-.11-.24-.24,.11-.24,.24-.24"/><path class="cls-5" d="M50.58,31.32c.07,0,.12,.05,.12,.12s-.05,.12-.12,.12-.12-.05-.12-.12,.05-.12,.12-.12"/><path class="cls-5" d="M51.24,31.48c.07,0,.12,.05,.12,.12s-.05,.12-.12,.12-.12-.05-.12-.12,.05-.12,.12-.12"/><path class="cls-5" d="M53.18,31.89c.07,0,.12,.05,.12,.12s-.05,.12-.12,.12-.12-.05-.12-.12,.05-.12,.12-.12"/><path class="cls-5" d="M51.91,31.63c.07,0,.12,.05,.12,.12s-.05,.12-.12,.12-.12-.05-.12-.12,.05-.12,.12-.12"/><path class="cls-5" d="M52.08,31.05c.07,0,.12,.05,.12,.12s-.05,.12-.12,.12-.12-.05-.12-.12,.05-.12,.12-.12"/><path class="cls-5" d="M52.25,30.47c.07,0,.12,.05,.12,.12s-.05,.12-.12,.12-.12-.05-.12-.12,.05-.12,.12-.12"/></g></g></g></svg>