<?xml version="1.0" encoding="UTF-8"?><svg id="Ebene_2" xmlns="http://www.w3.org/2000/svg" xmlns:xlink="http://www.w3.org/1999/xlink" viewBox="0 0 83.18 48.52"><defs><style>.cls-1{fill:none;}.cls-2{clip-path:url(#clippath);}.cls-3{fill:#f5e129;}.cls-4{fill:#fff;}.cls-5{fill:#317267;}.cls-6{fill:#c0003b;}.cls-7{clip-path:url(#clippath-1);}</style><clipPath id="clippath"><rect class="cls-1" width="83.18" height="48.52"/></clipPath><clipPath id="clippath-1"><rect class="cls-1" width="83.18" height="48.52"/></clipPath></defs><g id="Layer_1"><g class="cls-2"><rect width="83.18" height="48.52"/><rect class="cls-4" width="83.18" height="16.68"/><rect class="cls-5" width="83.18" height="15.16"/><rect class="cls-4" y="31.82" width="83.18" height="16.7"/><rect class="cls-3" y="33.36" width="83.18" height="15.16"/><polygon class="cls-6" points="0 0 0 48.52 31.84 24.26 0 0"/><polygon class="cls-3" points="16.53 33.36 10.61 29.03 4.7 33.36 6.99 26.39 1.05 22.12 8.38 22.14 10.61 15.16 12.85 22.15 20.18 22.11 14.23 26.4 16.53 33.36"/><g class="cls-7"><path class="cls-4" d="M5.48,28.5h4.26c.34,.38,1.11,.54,1.84,0,1.34-.73,3.92,0,3.92,0l.51-.54-1.24-4.07-.45-.48s-.95-.57-2.77-.38c-1.81,.19-2.45-.06-2.45-.06,0,0-1.59,.19-2.04,.41-.05,.04-.51,.51-.51,.51l-1.08,4.61Z"/><path d="M10.59,28.9h0c-.35,0-.69-.14-.89-.37l-4.22,.02,1.03-4.67s.48-.5,.53-.54c.46-.23,2-.41,2.06-.42,.04,0,.68,.25,2.45,.06,1.81-.19,2.76,.37,2.8,.39l.46,.49,1.25,4.09-.52,.59c-.05,.04-1.21-.31-2.35-.31-.66,0-1.19,.11-1.58,.32-.31,.23-.66,.36-1.01,.36h0Zm-.85-.45c.22,.22,.53,.35,.85,.35h0c.32,0,.65-.12,.95-.34,.41-.22,.95-.33,1.63-.33,1.16,0,2.32,.33,2.33,.33l.46-.53-1.25-4.02-.43-.46h0s-.96-.55-2.72-.37c-1.81,.19-2.45-.06-2.47-.07,0,0-1.56,.19-2,.41-.04,.03-.5,.5-.5,.5l-1.07,4.59,4.21-.06h0Z"/><path d="M10.56,28.9c-.3,0-.59-.11-.89-.33,.08-.17,.38-.48,.94-.75-1.62-.64-4.24-.32-4.28-.32-.03,.02-.05-.02-.06-.04,0-.03,.02-.05,.04-.06,.14-.02,2.75-.33,4.37,.38,.8-.37,2.09-.67,3.95-.41,.03,0,.05,.03,.04,.06,0,.03-.03,.05-.06,.04-1.83-.25-3.06,.03-3.82,.37,.33,.16,.61,.37,.82,.64-.37,.29-.72,.43-1.06,.43h0Zm.17-1.03c-.69,.32-.98,.68-.98,.69,.58,.36,1.14,.36,1.8-.1-.2-.25-.49-.44-.82-.59h0Z"/><polygon points="10.7 27.87 10.65 23.38 10.73 23.38 10.7 27.87 10.7 27.87"/><polygon points="15.12 27 14.28 23.45 14.36 23.44 15.12 27 15.12 27"/><path d="M6.69,25.28s0,0-.01,0c-.03,0-.04-.03-.04-.06l.42-1.84s.03-.05,.06-.04c.03,0,.04,.03,.04,.06l-.42,1.84s-.03,.04-.05,.04h0Z"/><path d="M2.71,28.99l1,1.18c.12,.07,.22,.06,.33,0l1.49-1.78,.62-.77c.1-.12,.13-.24,.12-.36l1.19-1.06c.1,0,.16,.02,.25,.02-.12-.03-.2-.09-.11-.21l.27-.21,.21,.27s-.3,.38-.33,.38h-.33l-.62,.57,.27,.24,.41,1.12,.5-.36-.33-1.16,.71-.77-.27-.42,.18-.24s2.47,1.55,3.42,1.14c.03,0,.06-1.11,.06-1.11,0,0-2.55-.27-2.61-.77-.06-.51,.56-.56,.56-.56l-.27-.39,.06-.21,.45,.56,1.01-.86,5.94,6.77c.32-.13,.39-.21,.42-.54,0,0-5.82-6.68-5.82-6.68l.45-.48c.09-.1,.12-.14,.12-.3l.68-.59c.21,.07,.34,.19,.45,.36l1.88-1.59c.05,.05,.2,.1,.3,.04l3.11-2.98-3.38,2.39-.12-.09c0-.1,.12-.12,0-.3-.13-.16-.33,.15-.36,.15s-.49-.16-.59-.37l-.03,.55-.86,.8-.65-.03-.95,.92-.12,.36,.15,.3s-.5,.45-.5,.41c0-.03-.1-.13-.11-.14l.43-.39,.06-.27-.15-.23s-.6,.61-.63,.55c-.05-.05-1.6-1.81-1.6-1.81l.09-.33-1.01-1.1c-.37-.13-.95-.15-1.07,.65-.09,.19-.86,.03-.86,.03l-.42,.09-2.35,3.33,1.31,1.57,2.67-3.39,.08-.96,.56,.63c.19,.03,.37,.03,.54-.06l1.58,1.77-.26,.26c.09,.1,.15,.16,.24,.26,.09-.06,.17-.13,.26-.19,.03,.04,.08,.12,.11,.15-.13,.07-.23,.17-.36,.24-.21-.14-.42-.31-.4-.59l-.89,.74-.03,.15-2.64,2.2-.24,.03-.06,.68,1.72-1.43v-.21l.18,.15,1.34-1.07s.09,.12,.06,.12-1.19,1.07-1.19,1.07l-.03,.12-.21,.18-.12-.09-1.6,1.43h-.24l-.89,.89c-.23,.02-.43,.05-.62,.18l-1.6,1.41Z"/><path d="M3.88,30.27c-.06,0-.13-.02-.19-.06l-1.01-1.19,1.6-1.48c.2-.14,.4-.17,.65-.19l.86-.88h.27s1.57-1.43,1.57-1.43l.18,.08,.16-.27c.9-.84,1.13-1.04,1.2-1.09h0s-.05-.03-.06-.05l-1.26,1.08-.24-.15,.08,.17-1.74,1.46-.02-.73,.28-.08,2.62-2.19v-.12s.92-.77,.92-.77c.07,.29,.26,.45,.46,.58,.01-.04,.07-.08,.12-.12,.06-.04,.12-.09,.19-.12h-.08s-.24,.12-.24,.12l-.31-.27,.27-.33-1.59-1.7c-.07,.1-.29,.1-.5,.07l-.59-.64v.93s-2.68,3.41-2.68,3.41l-1.39-1.57,2.34-3.39,.45-.11s.32,.06,.56,.06c.22,0,.26-.05,.26-.06,.13-.94,.86-.77,1.13-.68l1.03,1.11-.08,.37h0s1.54,1.71,1.59,1.77c.02-.03,.31-.31,.43-.43,.07-.07,.12-.12,.13-.13l.15,.17,.06-.19,.96-.94,.69,.02,.83-.79,.02-.51c.18,.16,.6,.31,.65,.32,.07-.09,.16-.19,.26-.19,.01,0,.12,.05,.13,.06,.09,.13,.07,.2,.03,.27l.08,.11,3.33-2.39s.05-.01,.07,0c.02,.02,.02,.05,0,.07l-3.11,2.98c-.14,.08-.3,.03-.37-.04l-1.81,1.59c-.19-.18-.32-.29-.49-.35l-.63,.58c.02,.13-.02,.19-.11,.29l-.45,.48h0c.06,0,5.77,6.56,5.82,6.62-.01,.39-.1,.48-.43,.62l-6-6.79-.94,.87-.52-.57,.03,.19,.26,.34c-.04,.08-.33,.11-.48,.29-.06,.08-.09,.18-.08,.3,.04,.34,1.6,.63,2.57,.73,.01,1.21,0,1.21-.06,1.21-.09,.04-.23,.07-.39,.07-1.11,0-2.97-1.17-3.05-1.22l-.11,.23,.27,.36-.72,.83,.34,1.11-.52,.41-.49-1.15-.26-.22,.62-.64h.36s.16-.21,.29-.38l-.21-.21-.2,.22c-.01,.08,0,.1,.09,.12,.02,0,.04,.03,.04,.06,0,.03-.03,.04-.05,.04l-.25-.02-1.16,1.05c.02,.06,0,.21-.11,.35l-2.11,2.55c-.08,.05-.14,.07-.2,.07h0Zm3.76-5.14l-1.54,1.42h-.27s-.86,.89-.86,.89c-.27,.04-.45,.06-.63,.18l-1.59,1.41,1.01,1.1c.07,.04,.17,.05,.26,0l2.1-2.54c.1-.12,.11-.24,.11-.32l1.21-1.1h.1s0,0,0-.01c-.02-.05,0-.11,.04-.17l.28-.22,.28,.28c-.31,.47-.34,.47-.37,.47h-.33l-.59,.55,.27,.16,.42,1.15,.43-.38-.35-1.11,.72-.82-.27-.35,.18-.3h0c.09,0,1.99,1.19,3.07,1.19,.15,0,.27-.02,.37-.07,0-.04,.02-.67,.03-1.06-.21,.03-2.55-.24-2.61-.77-.02-.15,.02-.27,.1-.37,.17-.21,.5-.25,.51-.25l-.3-.31,.05-.25,.53,.55,.94-.87,6.01,6.78c.25-.14,.31-.21,.33-.5-.03-.01-.47-.52-5.81-6.65l.45-.54c.08-.09,.11-.12,.11-.26l.7-.63c.25,.06,.39,.17,.52,.37l1.8-1.6c.09,.03,.16,.06,.23,.06l2.65-2.5-2.8,1.98-.18-.09s0-.13,.01-.15c.02-.04,.04-.07-.02-.16-.11-.03-.19,.06-.23,.11,0,.01-.07,.06-.08,.06-.05,0-.53-.17-.64-.4l.06,.53-.88,.84-.69-.02-.91,.91-.1,.34,.14,.25c-.5,.49-.53,.49-.55,.49-.06-.06-.1-.1-.12-.12,0-.02-.04-.1-.03-.11l.43-.39,.02-.14-.1-.24s-.04,.05-.07,.08c-.36,.35-.47,.45-.53,.45-.09-.08-1.65-1.83-1.65-1.83l.08-.37-1-1.05c-.06-.02-.19-.05-.33-.05-.37,0-.58,.23-.65,.68-.04,.09-.16,.13-.36,.13-.25,0-.55-.06-.56-.06l-.4,.09-2.32,3.31,1.31,1.51,2.6-3.39,.07-.93,.65,.6s.1,0,.16,0c.12,0,.22-.02,.31-.07l1.64,1.78-.27,.33,.12,.06,.12,.13,.07-.11,.13-.09s.1,.06,.12,.08l.06,.08c-.08,.11-.13,.15-.19,.19-.06,.04-.12,.09-.19,.12-.27-.15-.49-.33-.48-.63l-.81,.78v.12s-2.67,2.23-2.67,2.23l-.26,.04-.02,.64,1.64-1.47-.02-.17,.26,.11,1.27-1.07c.16,.13,.15,.16,.14,.18-.09,.06-.76,.68-1.2,1.09l-.02,.09-.22,.2-.18-.08h0Zm3.8-3.35v.06s-.46,.42-.46,.42c.08,.03,.11,.06,.12,.09,0-.08,.23-.26,.42-.44l-.09-.13h0Z"/></g></g></g></svg>