<?xml version="1.0" encoding="UTF-8"?><svg id="Ebene_2" xmlns="http://www.w3.org/2000/svg" viewBox="0 0 83.18 48.52"><defs><style>.cls-1{fill:#f5cd28;}.cls-2{fill:#fff;}.cls-3{fill:#c0003b;}.cls-4{fill:#1f357e;}.cls-5{fill:#3d9546;}</style></defs><g id="Layer_1"><g><path class="cls-4" d="M0,0V38.51L66.03,0H0ZM21.6,20.35l-2.79-2.32-1.26,3.4-1.26-3.4-2.79,2.32,.61-3.57s0,0,0,0l-3.57,.61,2.32-2.79-3.4-1.26,3.4-1.26-2.32-2.79,3.57,.61h0s-.61-3.57-.61-3.57l2.79,2.32,1.26-3.4,1.26,3.4,2.79-2.32-.61,3.57s0,0,0,0l3.57-.61-2.32,2.79,3.4,1.26-3.4,1.26,2.32,2.79-3.57-.61,.61,3.57Z"/><polygon class="cls-5" points="17.16 48.52 83.18 48.52 83.18 10.01 17.16 48.52"/><polygon class="cls-2" points="66.03 0 0 38.51 0 41.02 70.32 0 66.03 0"/><polygon class="cls-2" points="83.18 7.51 12.87 48.52 17.16 48.52 83.18 10.01 83.18 7.51"/><polygon class="cls-3" points="70.32 0 0 41.02 0 48.52 83.18 0 70.32 0"/><polygon class="cls-3" points="83.18 0 0 48.52 12.87 48.52 83.18 7.51 83.18 0"/><path class="cls-1" d="M22.24,14.6l3.4-1.26-3.4-1.26,2.32-2.79-3.57,.61c.88,.88,1.42,2.09,1.42,3.43,0,2.68-2.17,4.85-4.85,4.85-1.34,0-2.55-.54-3.43-1.42l-.61,3.57,2.79-2.32,1.26,3.4,1.26-3.4,2.79,2.32-.61-3.57,3.57,.61-2.32-2.79Z"/><path class="cls-1" d="M20.99,9.91l.61-3.57-2.79,2.32-1.26-3.4-1.26,3.4-2.79-2.32,.61,3.57c.88-.88,2.09-1.42,3.43-1.42s2.55,.54,3.43,1.42Z"/><path class="cls-1" d="M12.7,13.34c0-1.34,.54-2.55,1.42-3.43l-3.57-.61,2.32,2.79-3.4,1.26,3.4,1.26-2.32,2.79,3.57-.61c-.88-.88-1.42-2.09-1.42-3.43Z"/><polygon class="cls-4" points="14.12 9.91 14.12 9.91 14.12 9.91 14.12 9.91"/><polygon class="cls-4" points="20.99 9.91 20.99 9.91 20.99 9.91 20.99 9.91"/><polygon class="cls-4" points="14.12 16.78 14.12 16.78 14.12 16.78 14.12 16.78"/><path class="cls-4" d="M22.41,13.34c0-1.34-.54-2.55-1.42-3.43h0s0,0,0,0c-.88-.88-2.09-1.42-3.43-1.42s-2.55,.54-3.43,1.42h0s0,0,0,0c-.88,.88-1.42,2.09-1.42,3.43s.54,2.55,1.42,3.43h0s0,0,0,0c.88,.88,2.09,1.42,3.43,1.42,2.68,0,4.85-2.17,4.85-4.85Zm-8.9,0c0-2.23,1.81-4.04,4.04-4.04s4.04,1.81,4.04,4.04-1.81,4.04-4.04,4.04-4.04-1.81-4.04-4.04Z"/><path class="cls-1" d="M21.6,13.34c0-2.23-1.81-4.04-4.04-4.04s-4.04,1.81-4.04,4.04,1.81,4.04,4.04,4.04,4.04-1.81,4.04-4.04Z"/></g></g></svg>