<?xml version="1.0" encoding="UTF-8"?><svg id="Ebene_2" xmlns="http://www.w3.org/2000/svg" xmlns:xlink="http://www.w3.org/1999/xlink" viewBox="0 0 83.18 48.52"><defs><style>.cls-1{fill:none;}.cls-2{clip-path:url(#clippath);}.cls-3{fill:#fff;}.cls-4{fill:#bc0030;}.cls-5{fill:#22368f;}.cls-6{clip-path:url(#clippath-1);}</style><clipPath id="clippath"><rect class="cls-1" x="22.1" y="0" width="38.98" height="48.52"/></clipPath><clipPath id="clippath-1"><rect class="cls-1" x="22.1" y="0" width="38.98" height="48.52"/></clipPath></defs><g id="Layer_1"><g><rect class="cls-1" width="83.18" height="48.52"/><g class="cls-2"><path class="cls-5" d="M23.94,3.32l30.34,19H30.89l24.37,24.37H23.94V3.32ZM22.1,0V48.52H59.7l-24.37-24.37h25.35L22.1,0Z"/><polygon class="cls-4" points="23.02 1.66 23.02 47.61 57.48 47.61 33.11 23.24 57.48 23.24 23.02 1.66"/><g class="cls-6"><path class="cls-3" d="M31.63,22.01c3.79,0,6.86-3.07,6.86-6.86-.6,1.52-1.69,2.8-3.08,3.63l-.59-.44,1.16-.87-1.4-.36h0s.74-1.24,.74-1.24l-1.43,.2,.21-1.43-1.24,.74h0l-.36-1.4-.87,1.16-.87-1.16-.36,1.4h0l-1.24-.74,.21,1.43-1.43-.2,.74,1.24h0s-1.4,.36-1.4,.36l1.16,.87-.59,.44c-1.39-.83-2.48-2.11-3.08-3.63,0,3.79,3.07,6.86,6.86,6.86"/><polygon class="cls-3" points="36.15 36.63 36.15 36.63 39.01 35.42 36.15 34.21 36.15 34.21 38.02 31.73 34.94 32.12 35.32 29.04 32.85 30.9 32.84 30.9 31.63 28.05 30.42 30.9 30.42 30.9 27.95 29.04 28.33 32.12 25.25 31.73 27.12 34.21 27.12 34.21 24.26 35.42 27.12 36.63 27.12 36.63 25.25 39.11 28.33 38.73 28.33 38.73 28.33 38.73 27.95 41.81 30.42 39.94 30.42 39.94 31.63 42.8 32.84 39.94 32.85 39.94 35.32 41.81 34.94 38.73 38.02 39.11 36.15 36.63"/></g></g></g></g></svg>