<?xml version="1.0" encoding="UTF-8"?><svg id="Ebene_2" xmlns="http://www.w3.org/2000/svg" viewBox="0 0 83.18 48.52"><defs><style>.cls-1{fill:#f8e92e;}.cls-2{fill:#d82126;}</style></defs><g id="Layer_1"><g><path class="cls-2" d="M0,0H83.18V48.52H0V0Z"/><path class="cls-1" d="M0,29.11v-9.7l83.18,9.7v-9.7L0,29.11ZM37.43,0h8.32l-4.16,19.06L37.43,0Zm8.32,48.52h-8.32l4.16-19.06,4.16,19.06ZM0,0H12.48L45.41,26.94,0,0ZM0,48.52H12.48L45.41,21.59,0,48.52ZM83.18,0h-12.48L37.77,26.94,83.18,0Zm0,48.52h-12.48L37.77,21.59l45.41,26.94Z"/><ellipse class="cls-2" cx="41.59" cy="24.26" rx="7.43" ry="8.66"/><ellipse class="cls-1" cx="41.59" cy="24.26" rx="5.94" ry="6.93"/></g></g></svg>