<?xml version="1.0" encoding="UTF-8"?><svg id="Ebene_2" xmlns="http://www.w3.org/2000/svg" xmlns:xlink="http://www.w3.org/1999/xlink" viewBox="0 0 83.18 48.52"><defs><style>.cls-1{fill:none;}.cls-2{clip-path:url(#clippath);}.cls-3{fill:#fff;}.cls-4{fill:#2a680b;}.cls-5{clip-path:url(#clippath-1);}</style><clipPath id="clippath"><rect class="cls-1" width="83.18" height="48.52"/></clipPath><clipPath id="clippath-1"><rect class="cls-1" width="83.18" height="48.52"/></clipPath></defs><g id="Layer_1"><g class="cls-2"><rect class="cls-3" width="83.18" height="48.52"/><rect class="cls-4" x="20.8" width="62.39" height="48.52"/><g class="cls-5"><path class="cls-3" d="M50.68,9.71c8.02,0,14.53,6.52,14.53,14.56s-6.51,14.56-14.53,14.56-14.53-6.52-14.53-14.56,6.51-14.56,14.53-14.56"/><path class="cls-4" d="M45.55,10.98c5.5-4.9,13.92-4.4,18.8,1.11,4.89,5.51,4.39,13.94-1.11,18.84-5.5,4.9-13.92,4.4-18.8-1.11-4.89-5.51-4.39-13.94,1.11-18.84"/><polygon class="cls-3" points="61.54 14.59 57.1 16.54 58.07 18.76 61.54 14.59"/><polygon class="cls-3" points="61.54 14.59 59.09 18.78 57 17.55 61.54 14.59"/><polygon class="cls-3" points="62.1 20.27 58.88 16.64 57.07 18.25 62.1 20.27"/><polygon class="cls-3" points="62.1 20.27 57.37 19.23 57.88 16.86 62.1 20.27"/><polygon class="cls-3" points="55.98 13.37 56.45 18.2 58.86 17.96 55.98 13.37"/><polygon class="cls-3" points="55.98 13.37 59.2 17 57.38 18.61 55.98 13.37"/><polygon class="cls-3" points="56.88 22.55 59.33 18.37 57.24 17.14 56.88 22.55"/><polygon class="cls-3" points="56.88 22.55 56.41 17.72 58.82 17.49 56.88 22.55"/><polygon class="cls-3" points="53.1 18.29 57.83 19.33 58.35 16.96 53.1 18.29"/><polygon class="cls-3" points="53.1 18.29 57.54 16.35 58.51 18.57 53.1 18.29"/></g></g></g></svg>