<?xml version="1.0" encoding="UTF-8"?><svg id="Ebene_2" xmlns="http://www.w3.org/2000/svg" xmlns:xlink="http://www.w3.org/1999/xlink" viewBox="0 0 83.18 48.52"><defs><style>.cls-1{fill:none;}.cls-2{clip-path:url(#clippath);}.cls-3{fill:#fff;}.cls-4{fill:#c0003b;}.cls-5{fill:#3564c2;}</style><clipPath id="clippath"><rect class="cls-1" width="83.18" height="48.52"/></clipPath></defs><g id="Layer_1"><g class="cls-2"><rect class="cls-3" width="83.18" height="48.52"/><polygon class="cls-5" points="23.39 6.07 21.52 11.83 24.4 12.77 23.39 6.07"/><polygon class="cls-5" points="23.39 6.07 25.27 11.83 22.38 12.77 23.39 6.07"/><polygon class="cls-5" points="29.16 10.26 23.1 10.26 23.1 13.29 29.16 10.26"/><polygon class="cls-5" points="29.16 10.26 24.26 13.82 22.47 11.37 29.16 10.26"/><polygon class="cls-5" points="17.62 10.26 22.53 13.82 24.31 11.37 17.62 10.26"/><polygon class="cls-5" points="17.62 10.26 23.69 10.26 23.69 13.29 17.62 10.26"/><polygon class="cls-5" points="26.96 17.04 25.09 11.27 22.2 12.21 26.96 17.04"/><polygon class="cls-5" points="26.96 17.04 22.05 13.47 23.84 11.02 26.96 17.04"/><polygon class="cls-5" points="19.83 17.04 24.74 13.47 22.95 11.02 19.83 17.04"/><polygon class="cls-5" points="19.83 17.04 21.7 11.27 24.59 12.21 19.83 17.04"/><rect class="cls-5" y="24.26" width="41.59" height="24.26"/><rect class="cls-4" x="41.59" width="41.59" height="24.26"/><polygon class="cls-4" points="59.79 30.33 57.91 36.1 60.8 37.03 59.79 30.33"/><polygon class="cls-4" points="59.79 30.33 61.66 36.1 58.78 37.03 59.79 30.33"/><polygon class="cls-4" points="65.55 34.52 59.49 34.52 59.49 37.55 65.55 34.52"/><polygon class="cls-4" points="65.55 34.52 60.65 38.08 58.87 35.63 65.55 34.52"/><polygon class="cls-4" points="54.02 34.52 58.93 38.08 60.71 35.63 54.02 34.52"/><polygon class="cls-4" points="54.02 34.52 60.08 34.52 60.08 37.55 54.02 34.52"/><polygon class="cls-4" points="63.35 41.3 61.48 35.53 58.59 36.47 63.35 41.3"/><polygon class="cls-4" points="63.35 41.3 58.45 37.73 60.23 35.28 63.35 41.3"/><polygon class="cls-4" points="56.22 41.3 61.13 37.73 59.35 35.28 56.22 41.3"/><polygon class="cls-4" points="56.22 41.3 58.1 35.53 60.98 36.47 56.22 41.3"/></g></g></svg>