<?xml version="1.0" encoding="UTF-8"?><svg id="Ebene_2" xmlns="http://www.w3.org/2000/svg" xmlns:xlink="http://www.w3.org/1999/xlink" viewBox="0 0 83.18 48.52"><defs><style>.cls-1{fill:none;}.cls-2{clip-path:url(#clippath);}.cls-3{fill:#f3d02f;}.cls-4{fill:#fff;}.cls-5{fill:#bc0030;}.cls-6{clip-path:url(#clippath-1);}</style><clipPath id="clippath"><rect class="cls-1" width="83.18" height="48.52"/></clipPath><clipPath id="clippath-1"><rect class="cls-1" width="83.18" height="48.52"/></clipPath></defs><g id="Layer_1"><g class="cls-2"><rect width="83.18" height="48.52"/><polygon class="cls-5" points="0 0 83.18 48.52 83.18 0 0 0"/><g class="cls-6"><path class="cls-3" d="M53.94,14.1c-.48,.62-1.61-.62-2.96-.65-1.36-.03-2.31,1.3-2.71,1.75-.39,.45-1.67,2.82-1.64,3.08,.03,.25,.79-.71,1.07-.87,.03,.34-.31,.73-.23,.85,.09,.11,.99-.68,1.3-.71,.08,.23-.17,.45-.08,.79,.11,.11,.62-.56,.96-.71,.06,.25-.31,.73-.11,1.04,.14,.03,.99-.96,1.27-1.07,.28-.11-.14,.93,0,1.02,.25-.17,1.04-1.07,1.3-1.18,.25-.11-.03,1.16,.08,1.16,.31-.23,1.1-1.3,1.19-1.47,.08-.17-.08,1.64,.79,2.6,.87,.96,2.2,2.06,2.34,2.06,.17-.31-.06-.96,.08-.93,.4,.42,1.13,1.04,1.3,1.04s-.11-.68,.11-.68c.45,.42,1.75,2.09,4.29,2.85-.17-.48-.54-.9-.56-1.13,.17,.03,.76,.31,.87,.28,.11-.03-1.24-1.69-1.16-1.92,.31-.03,.45,.17,.56,.03-.14-.23-1.33-1.55-1.33-1.86s.37,.06,.48,0c.11-.06-.45-1.24-.34-1.38,.11-.14,1.35,.76,1.66,.76s.09-1.1,.23-1.16c.14-.06,1.19,.59,1.41,.59s.2-.48,.28-.42c.08,.06,2.54,2.51,1.69,5.39-.85,2.06-2.54,3.16-5.02,2.26,.14,.23,1.47,1.33,2.91,.93,1.44-.4,3.19-1.52,2.99-4.35-.2-2.82-1.13-3.22-1.27-3.64-.14-.42,.23,.11,.54,.23,.31,.11-.06-.59-.14-.9-.09-.31,.93,.65,1.19,.73,.25,.08-.59-2.31-.85-2.48-.25-.17,.25,.06,.42,.11,.17,.06-1.55-2.62-1.92-2.62s.31-.14,.51-.14-1.97-1.75-2.34-1.75,.79-.45,.9-.48c.2,.03-2.51-1.44-4.94,.03-.14-.11,1.14-1,1.19-1.38,.01-.1-.42-.31-.45-.42-.03-.11,.68-.45,.7-.71-.17-.23-.48-.14-.65-.2-.04-.21,.59-.73,.54-.96-.04-.13-.51-.17-.62-.08-.11,.08,.3-.59,.23-.79-.06-.08-.28-.03-.51,.03-.14-.03,.73-1.24,.56-1.41-.17-.17-2.54,1.24-3.42,2.82-.87,1.58-.2,2.85-.31,3.39-.11,.54-.25,1.07-.62,1.07s-1.21-.56-1.49-.85-.34-.48-.73-.59c-.39-.11-1.3,.23-1.64,.25s-1.67-.25-1.75-.17c-.08,.08,1.3,.59,1.61,.76,.31,.17,.34,.39,.56,.54,.22,.14,2.34,.76,1.66,1.64"/><path class="cls-3" d="M62.21,18.08c.68,.68,5.25,3.72,5.25,7.45s-3.33,3.61-4.29,3.5c1.07,.9,5.14,.73,5.14-3.5,0-3.72-5.25-7.45-5.93-7.79-.68-.34-.85-.34-.17,.34"/><polygon class="cls-4" points="21.42 15.04 22.12 17.47 24.57 17.47 22.64 18.95 23.35 21.31 21.42 19.83 19.49 21.25 20.2 18.95 18.26 17.47 20.64 17.47 21.42 15.04"/><polygon class="cls-4" points="14 24.51 14.71 26.94 17.16 26.94 15.22 28.43 15.93 30.79 14 29.31 12.07 30.72 12.78 28.43 10.85 26.94 13.23 26.94 14 24.51"/><polygon class="cls-4" points="28.79 23.84 29.5 26.27 31.95 26.27 30.02 27.75 30.72 30.12 28.79 28.63 26.87 30.05 27.57 27.75 25.64 26.27 28.02 26.27 28.79 23.84"/><polygon class="cls-4" points="21.42 37.32 22.12 39.75 24.57 39.75 22.64 41.23 23.35 43.6 21.42 42.11 19.49 43.53 20.2 41.23 18.26 39.75 20.64 39.75 21.42 37.32"/><polygon class="cls-4" points="24.73 32.16 25.08 33.37 26.3 33.37 25.34 34.12 25.69 35.3 24.73 34.55 23.76 35.26 24.12 34.12 23.15 33.37 24.34 33.37 24.73 32.16"/></g></g></g></svg>