<?xml version="1.0" encoding="UTF-8"?><svg id="Ebene_2" xmlns="http://www.w3.org/2000/svg" xmlns:xlink="http://www.w3.org/1999/xlink" viewBox="0 0 83.18 48.52"><defs><style>.cls-1{fill:none;}.cls-2{clip-path:url(#clippath);}.cls-3{fill:#f3d02f;}.cls-4{fill:#fff;}.cls-5{fill:#bc0030;}.cls-6{fill:#2534a4;}.cls-7{clip-path:url(#clippath-1);}</style><clipPath id="clippath"><rect class="cls-1" width="83.18" height="48.52"/></clipPath><clipPath id="clippath-1"><rect class="cls-1" width="83.18" height="48.52"/></clipPath></defs><g id="Layer_1"><g class="cls-2"><rect class="cls-6" width="83.18" height="24.26"/><rect class="cls-5" y="24.26" width="83.18" height="24.26"/><polygon class="cls-4" points="0 0 0 48.52 42.23 24.26 0 0"/><polygon class="cls-3" points="5.7 43.86 3.83 42.76 2.22 44.22 2.68 42.1 .79 41.03 2.96 40.81 3.39 38.68 4.27 40.67 6.43 40.43 4.81 41.87 5.7 43.86"/><path class="cls-3" d="M11.4,19.87l-1.58-2.71-.91-.1,2.16,3.07,.33-.26Zm-1.23,1.24l-3.32-2.56-.12-1.49,1.34-.05,2.75,3.36-.65,.73Zm-.5,.59l-2.74-1.54-.12-.91,3.1,2.12-.25,.33Z"/><path class="cls-3" d="M15.31,19.31l.83-3.03-.56-.72-.67,3.7,.41,.05Zm-1.75,0l-.51-4.16,.98-1.13,.98,.93-.47,4.32-.98,.05Zm-.77,.05l-.82-3.03,.57-.72,.66,3.7-.41,.05Z"/><path class="cls-3" d="M18.48,21.76l2.76-1.51,.13-.9-3.13,2.08,.25,.33Zm-1.21-1.26l2.64-3.25,1.49-.08v1.34s-3.42,2.66-3.42,2.66l-.71-.67Zm-.57-.52l1.62-2.69,.91-.09-2.2,3.05-.32-.26Z"/><path class="cls-3" d="M18.97,25.55l3.03,.83,.72-.56-3.7-.67-.05,.41Zm0-1.75l4.16-.51,1.13,.98-.93,.97-4.32-.47-.05-.98Zm-.05-.77l3.03-.82,.72,.57-3.7,.66-.05-.41Z"/><path class="cls-3" d="M16.66,28.64l1.59,2.71,.91,.1-2.18-3.06-.32,.26Zm1.22-1.25l3.34,2.54,.12,1.49-1.34,.05-2.76-3.35,.64-.73Zm.5-.59l2.74,1.53,.12,.91-3.11-2.11,.25-.33Z"/><path class="cls-3" d="M12.76,29.22l-.8,3.04,.57,.72,.65-3.71-.41-.05Zm1.75,0l.54,4.16-.97,1.14-.98-.92,.44-4.32,.98-.06Zm.77-.06l.84,3.03-.56,.72-.69-3.7,.41-.05Z"/><path class="cls-3" d="M9.6,26.84l-2.73,1.55-.11,.91,3.1-2.13-.25-.33Zm1.23,1.24l-2.59,3.3-1.49,.1-.03-1.34,3.39-2.71,.72,.66Zm.58,.51l-1.57,2.72-.91,.11,2.15-3.08,.33,.26Z"/><path class="cls-3" d="M9.06,23.01l-3.04-.8-.72,.57,3.7,.65,.05-.41Zm0,1.75l-4.16,.54-1.14-.97,.92-.98,4.32,.44,.06,.97Zm.06,.77l-3.03,.84-.72-.56,3.7-.69,.05,.41Z"/><g class="cls-7"><path class="cls-3" d="M14.02,19.14c2.83,0,5.12,2.29,5.12,5.12s-2.29,5.12-5.12,5.12-5.12-2.29-5.12-5.12,2.29-5.12,5.12-5.12"/><polygon class="cls-3" points="31.63 26.02 32.91 24.26 31.62 22.51 33.69 23.2 34.95 21.43 34.95 23.6 37.02 24.26 34.95 24.92 34.96 27.1 33.69 25.33 31.63 26.02"/><polygon class="cls-3" points="5.7 4.14 3.83 5.23 2.22 3.77 2.68 5.89 .79 6.97 2.96 7.18 3.39 9.31 4.27 7.32 6.43 7.56 4.81 6.12 5.7 4.14"/></g></g></g></svg>