<svg xmlns="http://www.w3.org/2000/svg" viewBox="0 0 13.12 13.12" xmlns:v="https://vecta.io/nano"><defs><clipPath id="A"><circle cx="6.54" cy="6.56" r="5.92" fill="none"/></clipPath><clipPath id="B"><circle cx="6.54" cy="6.56" r="5.92" fill="none"/></clipPath><clipPath id="C"><circle cx="6.54" cy="6.56" r="5.92" fill="none"/></clipPath><clipPath id="D"><circle cx="6.54" cy="6.56" r="5.92" fill="none"/></clipPath><clipPath id="E"><circle cx="6.54" cy="6.56" r="5.92" fill="none"/></clipPath><clipPath id="F"><circle cx="6.54" cy="6.56" r="5.92" fill="none"/></clipPath><clipPath id="G"><circle cx="6.54" cy="6.56" r="5.92" fill="none"/></clipPath><clipPath id="H"><circle cx="6.54" cy="6.56" r="5.92" fill="none"/></clipPath></defs><circle cx="6.56" cy="6.56" r="6.56" fill="#fff"/><circle cx="6.56" cy="6.56" r="6.08" fill="#c6cde0"/><g clip-path="url(#A)"><path d="M.53.39h24.11v12.06H.53z" fill="#fff"/></g><g clip-path="url(#B)"><path d="M24.64 6.43v6.03H.53l.04-.04 9.45-5.45.93-.54h13.69z" fill="#cd1126"/></g><g clip-path="url(#C)"><path d="M24.64 6.43H10.95s-.02-.02-.04-.02L.84.58A3.37 3.37 0 0 1 .52.39h24.12v6.04z" fill="#0038a7"/></g><g clip-path="url(#D)"><path d="M3.35 7.22s-.03-.04-.05-.06l-.85.65c-.04-.1-.02-.16.07-.22l.68-.46c.02-.01.03-.02.04-.03l-.18-.44-.29.06-.62.13c-.02 0-.04 0-.06-.01-.04-.03-.07-.07-.1-.1q0 0 0-.02l1.06-.14V6.5l-.59.04-.56.04c-.02 0-.05-.01-.07-.03l-.14-.13.15-.14c0-.01.04-.01.06-.01l1.1.07h.05v-.08l-1.09-.14.12-.11h.06l.88.17h.02l.18-.43c0-.01-.02-.02-.04-.03l-.69-.46c-.06-.04-.08-.08-.07-.14v-.09l.87.66c0-.02.02-.04.04-.06l-.37-.33-.47-.41c-.04-.03-.06-.07-.05-.12v-.15h.21a.39.39 0 0 0 .05.04l.7.8c0 .02.03.04.05.06 0-.02.03-.03.06-.05l-.66-.85c.11-.04.17-.02.23.06l.45.68c0 .02.03.04.03.05L4 5.23l-.11-.58-.06-.3c-.02-.06 0-.09.03-.13.03-.02.05-.04.08-.08l.14 1.09c.03 0 .05-.01.08-.01 0-.11 0-.21-.02-.32l-.05-.82c0-.02.01-.05.02-.06.04-.05.08-.09.13-.14l.15.15c.01.01.01.04.01.07l-.07 1.05v.08a.54.54 0 0 0 .08.01l.14-1.07c.1.04.13.1.11.2l-.17.82v.04l.43.18s.02-.03.03-.04l.46-.69c.03-.06.07-.09.14-.08h.09l-.66.87.05.05.06-.06.67-.77c.04-.05.09-.08.16-.07h.13v.21s-.02.03-.04.05l-.81.7-.05.05c.02.02.03.04.05.06l.87-.66v.16s-.02.04-.04.05l-.73.47c-.01.02-.03.03-.04.04l.18.44.35-.07.54-.11c.05-.01.08 0 .11.04.02.02.05.03.08.05 0 .01 0 .02-.02.03l-1.06.14c-.02.06 0 .08.06.07l1.05-.07c.05 0 .09.01.12.05s.07.06.11.1l-.15.14c0 .02-.03.02-.05.02L5.5 6.51h-.05s0 .05-.01.07l1.07.14c.01.01.01.02.02.02-.05.04-.08.07-.13.1h-.05l-.88-.17h-.03l-.18.43c.01.01.03.02.05.03l.68.46c.06.04.09.08.08.15v.08l-.87-.66c-.02.02-.03.04-.05.06l.43.38.41.36c.04.03.06.06.05.11v.15h-.21s-.04-.02-.05-.04l-.68-.77c-.02-.03-.04-.05-.06-.08-.02.02-.04.03-.06.05l.66.86h-.17s-.03-.03-.05-.04l-.47-.71c0-.02-.02-.04-.03-.05l-.44.18.07.37.11.53c.01.04 0 .07-.03.1-.03.02-.05.05-.07.08-.01 0-.02-.01-.02-.01L4.4 7.62c-.03 0-.05.01-.08.01 0 .16.02.31.03.46l.05.66c0 .05-.01.08-.05.11-.04.04-.07.07-.11.13l-.14-.16c-.02-.02-.01-.05-.01-.07l.07-1.07v-.06s-.04-.01-.07-.01l-.15 1.07c-.1-.05-.13-.11-.11-.21L4 7.62l-.44-.18-.03.05-.45.68c-.04.06-.08.09-.15.08h-.09l.66-.86c-.01-.02-.03-.04-.07-.07 0 .02 0 .04-.03.06l-.69.79c-.03.04-.07.06-.12.06h-.15v-.21s.02-.03.04-.05l.78-.69.07-.06z" fill="#fbd118"/></g><g clip-path="url(#E)"><path d="M9.73 6.43l-.37.13c-.05.02-.07.04-.07.09v.41l-.25-.32c-.03-.05-.06-.06-.12-.04l-.38.12.19-.28q.08-.12 0-.24l-.19-.27.18.05.23.07c.04.01.06.01.08-.03l.25-.33c0 .03.01.05.01.07v.34c0 .05.01.07.06.09l.37.13z" fill="#fbd119"/></g><g clip-path="url(#F)"><path d="M2.46 2.22l-.04.14-.09.21c-.03.06-.02.1.03.14l.28.26h-.08c-.11 0-.23-.02-.34-.03-.04 0-.06 0-.07.04l-.19.39L1.88 3q-.03-.1-.13-.11l-.37-.05.19-.11.18-.11c.03-.02.04-.04.03-.07l-.08-.43.13.12.19.16c.03.03.06.03.09 0l.35-.19h0z" fill="#fbd119"/></g><g clip-path="url(#G)"><path d="M2.48 10.68l-.34-.18c-.04-.03-.07-.03-.11.01l-.31.27.08-.42c0-.04 0-.06-.03-.08l-.36-.22.25-.03c.06-.01.12-.02.18-.02.03 0 .04-.02.05-.05l.09-.37c0-.01 0-.03.02-.05l.16.36c.02.05.05.06.1.06l.4-.04-.27.26q-.07.07-.03.17l.11.27v.06h0z" fill="#fbd119"/></g><g clip-path="url(#H)"><path d="M1.88 11.31h.01l-.01.01v-.01z" fill="#fbd119"/></g></svg>