<?xml version="1.0" encoding="utf-8"?>
<!-- Generator: Adobe Illustrator 26.5.0, SVG Export Plug-In . SVG Version: 6.00 Build 0)  -->
<svg version="1.1" id="Layer_1" xmlns="http://www.w3.org/2000/svg" xmlns:xlink="http://www.w3.org/1999/xlink" x="0px" y="0px"
	 viewBox="0 0 425.7 253.4" style="enable-background:new 0 0 425.7 253.4;" xml:space="preserve">
<style type="text/css">
	.st0{clip-path:url(#SVGID_00000103251824564701786230000007539458049222358667_);fill:#681840;}
	.st1{clip-path:url(#SVGID_00000103251824564701786230000007539458049222358667_);fill:#FFFFFF;}
</style>
<g>
	<g>
		<defs>
			<rect id="SVGID_1_" x="5.5" y="5.5" width="414.2" height="242.2"/>
		</defs>
		<clipPath id="SVGID_00000112617467293421007870000003762438529641736601_">
			<use xlink:href="#SVGID_1_"  style="overflow:visible;"/>
		</clipPath>
		<polygon style="clip-path:url(#SVGID_00000112617467293421007870000003762438529641736601_);fill:#681840;" points="129.4,5.5 
			173.3,19 129.4,32.5 173.3,46.1 129.4,59.6 173.3,73.1 129.4,86.7 173.3,98.8 129.4,112.4 173.3,125.9 129.4,139.4 173.3,153 
			129.4,166.5 173.3,180 129.4,193.6 173.3,207.1 129.4,220.6 173.3,234.2 129.4,247.7 419.7,247.7 419.7,5.5 		"/>
		<polygon style="clip-path:url(#SVGID_00000112617467293421007870000003762438529641736601_);fill:#FFFFFF;" points="5.5,5.5 
			5.5,247.7 129.4,247.7 173.3,234.2 129.4,220.6 173.3,207.1 129.4,193.6 173.3,180 129.4,166.5 173.3,153 129.4,139.4 
			173.3,125.9 129.4,112.4 173.3,98.8 129.4,86.7 173.3,73.1 129.4,59.6 173.3,46.1 129.4,32.5 173.3,19 129.4,5.5 		"/>
	</g>
</g>
</svg>
