<?xml version="1.0" encoding="UTF-8"?><svg id="Ebene_2" xmlns="http://www.w3.org/2000/svg" xmlns:xlink="http://www.w3.org/1999/xlink" viewBox="0 0 83.18 48.52"><defs><style>.cls-1{fill:none;}.cls-2{clip-path:url(#clippath);}.cls-3{fill:#f1d62f;}.cls-4{fill:#dfad29;}.cls-5{fill:#3e81c5;}.cls-6{fill:#347d59;}.cls-7{clip-path:url(#clippath-1);}</style><clipPath id="clippath"><rect class="cls-1" width="83.18" height="48.52"/></clipPath><clipPath id="clippath-1"><rect class="cls-1" width="83.18" height="48.52"/></clipPath></defs><g id="Layer_1"><g class="cls-2"><rect class="cls-5" width="83.18" height="24.26"/><rect class="cls-3" y="24.26" width="83.18" height="12.13"/><rect class="cls-6" y="36.39" width="83.18" height="12.13"/><polygon class="cls-4" points="78.26 17.67 74.49 14.78 76.31 19.16 73.42 15.4 74.04 20.1 72.22 15.72 71.6 20.42 70.98 15.72 69.16 20.1 69.78 15.4 66.89 19.16 68.7 14.78 64.94 17.67 67.83 13.9 63.44 15.72 67.21 12.83 62.5 13.45 66.88 11.63 62.18 11.01 66.88 10.39 62.5 8.57 67.21 9.19 63.44 6.3 67.83 8.12 64.94 4.35 68.7 7.24 66.89 2.85 69.78 6.62 69.16 1.91 70.98 6.29 71.6 1.59 72.22 6.29 74.04 1.91 73.42 6.62 76.31 2.85 74.49 7.24 78.26 4.35 75.37 8.12 79.75 6.3 75.99 9.19 80.69 8.57 76.31 10.39 81.01 11.01 76.31 11.63 80.69 13.45 75.99 12.83 79.75 15.72 75.37 13.9 78.26 17.67"/><g class="cls-7"><path class="cls-4" d="M75.03,11.01c0,1.89-1.54,3.43-3.43,3.43s-3.43-1.53-3.43-3.43,1.53-3.43,3.43-3.43,3.43,1.53,3.43,3.43h0Z"/><path class="cls-5" d="M71.6,14.61c-1.98,0-3.6-1.61-3.6-3.6s1.61-3.6,3.6-3.6,3.6,1.61,3.6,3.6-1.61,3.6-3.6,3.6h0Zm0-6.85c-1.8,0-3.26,1.46-3.26,3.26s1.46,3.26,3.26,3.26,3.26-1.46,3.26-3.26-1.46-3.26-3.26-3.26h0Z"/></g></g></g></svg>