<?xml version="1.0" encoding="UTF-8"?><svg id="Ebene_2" xmlns="http://www.w3.org/2000/svg" xmlns:xlink="http://www.w3.org/1999/xlink" viewBox="0 0 83.18 48.52"><defs><style>.cls-1{fill:none;}.cls-2{clip-path:url(#clippath);}.cls-3{fill:#fff;}.cls-4{fill:#bc0030;}.cls-5{fill:#1c2a7d;}</style><clipPath id="clippath"><rect class="cls-1" width="83.18" height="48.52"/></clipPath></defs><g id="Layer_1"><g class="cls-2"><rect class="cls-4" width="83.18" height="48.52"/><rect class="cls-5" width="44.44" height="22.22"/><polygon class="cls-3" points="22.22 15.43 24.13 21.3 19.13 17.67 25.31 17.67 20.31 21.3 22.22 15.43"/><polygon class="cls-3" points="15.43 6.48 16.96 11.18 12.96 8.28 17.9 8.28 13.9 11.18 15.43 6.48"/><polygon class="cls-3" points="29.16 5.56 30.6 9.96 26.85 7.24 31.48 7.24 27.73 9.96 29.16 5.56"/><polygon class="cls-3" points="22.22 .93 23.75 5.62 19.75 2.72 24.69 2.72 20.7 5.62 22.22 .93"/><polygon class="cls-3" points="25.62 11.26 26.57 14.2 24.07 12.38 27.16 12.38 24.66 14.2 25.62 11.26"/></g></g></svg>