<?xml version="1.0" encoding="UTF-8"?><svg id="Ebene_2" xmlns="http://www.w3.org/2000/svg" xmlns:xlink="http://www.w3.org/1999/xlink" viewBox="0 0 83.18 48.52"><defs><style>.cls-1{fill:none;}.cls-2{clip-path:url(#clippath);}.cls-3{fill:#fff;}.cls-4{fill:#f2b126;}.cls-5{fill:#32784c;}.cls-6{fill:#d03033;}.cls-7{fill:#1f189b;}</style><clipPath id="clippath"><rect class="cls-1" width="83.18" height="48.52"/></clipPath></defs><g id="Layer_1"><rect class="cls-3" width="49.56" height="48.52"/><g class="cls-2"><polygon class="cls-6" points="14.58 0 38.84 16.17 83.18 16.17 83.18 0 14.58 0"/><polygon class="cls-3" points="43.69 19.41 83.18 19.41 83.18 16.17 38.84 16.17 43.69 19.41"/><polygon class="cls-3" points="38.84 32.35 83.18 32.35 83.18 29.11 43.69 29.11 38.84 32.35"/><polygon class="cls-7" points="38.84 32.35 14.58 48.52 83.18 48.52 83.18 32.35 38.84 32.35"/><polygon points="0 16.17 9.68 16.17 0 9.72 0 16.17"/><polygon points="0 16.17 0 32.35 9.68 32.35 21.81 24.26 9.68 16.17 0 16.17"/><polygon points="0 32.35 0 38.8 9.68 32.35 0 32.35"/><polygon class="cls-4" points="0 9.72 21.81 24.26 0 38.8 0 42.69 27.64 24.26 0 5.83 0 9.72"/><polygon class="cls-5" points="0 0 0 5.83 27.64 24.26 0 42.69 0 48.52 8.75 48.52 37.86 29.11 83.18 29.11 83.18 19.41 37.86 19.41 8.75 0 0 0"/></g></g></svg>