<svg xmlns="http://www.w3.org/2000/svg" xmlns:xlink="http://www.w3.org/1999/xlink" viewBox="0 0 425.7 253.4" xmlns:v="https://vecta.io/nano"><defs><path id="A" d="M5.6 5.8H420v241.7H5.6z"/></defs><clipPath id="B"><use xlink:href="#A"/></clipPath><path d="M5.6 5.8H420v241.7H5.6z" clip-path="url(#B)" fill="#fff"/><path d="M279.8 45.8l15.6 23-8.8 6.1-15.5-23zm18.3 27.7l14.9 23-8.1 5.4-15.6-23zM292 37.6l33.9 50.1-8.8 5.4L283.9 43zm12.9-8.7l15.6 23-8.8 6.1-14.9-23.2zm18.4 27.7l14.8 23-8.2 5.4-15.5-23zM120.8 152l33.1 50.2-8.2 5.4-33.1-50.2zm-12.9 8.2l15.5 23-8 6.1-15.7-23.7zm18.3 27l15.5 23.1-8.7 6.1-15-23.1zm-30.5-18.3l33.1 50.2-8 5.5-33.9-50.3zm16.9-72.4l33.1-50.7 8.2 6.1-33.1 50zm-12.9-8.8L133 37.6l8.7 5.4-33.8 50.1zm-12.8-8.1l33.9-50.7 8 5.9L95.7 85zm184.2 122.6l15.5-23 8.8 5.4-15.6 23zm18.2-27.2l15.6-23 8.1 5.4-14.9 23zm-5.4 35.3l15.6-23.1 8.1 6.1-15.6 23.1zm18.3-27.1l14.9-23 8.8 5.4-15.5 23.7zm-5.4 35.9l14.9-23 8.8 5.4-15.6 23.1zm17.6-27.1l15.5-23.1 8.2 5.4-14.8 23.1z" clip-path="url(#B)"/><g clip-path="url(#B)"><defs><path id="C" d="M5.6 5.8H420v241.7H5.6z"/></defs><clipPath id="D"><use xlink:href="#C"/></clipPath><g fill="#b50037"><path d="M162.6 93.1s-.6.7-.6 1.4v-.7" clip-path="url(#D)"/><path d="M246 76.8c-27.7-18.9-65-11.5-83.4 16.2-9.4 14.3-5.4 33.3 8.2 42 13.6 9.6 32.4 5.4 42-8 9.4-14.3 27.7-17.6 41.9-8.9 13.6 9.4 17.6 28.4 8.2 42 18.3-27.6 10.8-64.9-16.9-83.3" clip-path="url(#D)"/></g><path d="M162.6 93.1c-9.4 14.3-5.4 33.3 8.2 42 13.6 9.6 32.4 5.4 42-8 9.4-14.3 27.7-17.6 41.9-8.9 13.6 9.4 17.6 28.4 8.2 42-18.3 27.7-55.5 35.2-83.9 16.9-27.9-18.3-35.2-56.2-16.4-84" clip-path="url(#D)" fill="#1e3476"/></g></svg>