<?xml version="1.0" encoding="UTF-8"?><svg id="Ebene_2" xmlns="http://www.w3.org/2000/svg" xmlns:xlink="http://www.w3.org/1999/xlink" viewBox="0 0 83.18 48.52"><defs><style>.cls-1{fill:none;}.cls-2{clip-path:url(#clippath);}.cls-3{fill:#ed6f22;}.cls-4{fill:#f5cd28;}.cls-5{fill:#8e1841;}.cls-6{fill:#2f742e;}.cls-7{clip-path:url(#clippath-1);}</style><clipPath id="clippath"><rect class="cls-1" width="83.18" height="48.52"/></clipPath><clipPath id="clippath-1"><rect class="cls-1" width="83.18" height="48.52"/></clipPath></defs><g id="Layer_1"><g class="cls-2"><rect class="cls-4" width="83.18" height="48.52"/><rect class="cls-3" x="17.59" y="5.09" width="14.12" height="38.35"/><rect class="cls-6" x="3.68" y="5.09" width="13.92" height="38.36"/><rect class="cls-5" x="35.39" y="5.09" width="44.11" height="38.36"/><g class="cls-7"><path class="cls-4" d="M52.21,22.9l.73,.02s-.82,.69-.63,1.62c.86-1.27,1.17-1.03,1.17-1.03-.26,.28-.76,.67-.37,1.53,.34-.87,1.03-1.55,1.03-1.55,0,0-.19,.97,.22,1.87,.3-.9,.8-1.66,.8-1.66,0,0-.07,.97,.35,1.32,.34-.3,.56-1.06,.56-1.06,0,0,.63,1.12,1.03,1.29,.32-.76,.32-1.36,.32-1.36,0,0,1.31,.93,2.35,.39-.93-.34-1.25-1.12-1.25-1.12,0,0,1.7,.75,2.42,.41-.71-.54-2.37-1.34-2.37-1.34,0,0,1.23,.45,1.58,.34-.17-.24-.71-.54-.71-.54l-7.23,.88Z"/><path class="cls-5" d="M54.4,25.37c-.43-.79-.34-1.64-.32-1.84-.09,.17-.65,.78-.93,1.53-.45-.81-.04-1.22,.23-1.5l.06-.06c-.07,.02-.39,.04-1.09,1.06-.27-.96,.56-1.67,.57-1.68l-.7,.06s-.04-.02-.04-.04c0-.02,.02-.05,.04-.04l.73,.02c.02,.08-.77,.76-.59,1.66,.48-.84,.82-1.04,1-1.08,.1-.01,.15,.02,.15,.02l-.07,.14c-.27,.27-.63,.65-.29,1.4,.25-.87,.95-1.55,.96-1.56,.07,.05-.11,1.01,.29,1.88,.22-.89,.72-1.66,.72-1.67,.08,.04,.01,.98,.42,1.31,.27-.29,.49-1.03,.49-1.04,.09,0,.71,1.1,1.09,1.26,.25-.72,.25-1.31,.25-1.32,.04-.02,.85,.51,1.67,.51,.24,0,.48-.05,.71-.16-.93-.26-1.26-1.03-1.27-1.06,.06-.03,1.19,.44,1.98,.44,.18,0,.34-.02,.47-.08-.7-.46-2.35-1.25-2.37-1.26,.04-.07,1,.27,1.45,.27,.05,0,.1,0,.14-.02-.18-.16-.71-.46-.72-.46,.07-.06,.6,.23,.77,.48-.26,.12-.87-.03-1.27-.15,.54,.24,1.54,.76,2.04,1.14-.7,.39-2.19-.22-2.43-.32,.11,.11,.45,.74,1.25,1.02-1,.6-2.21-.19-2.37-.3,.05,.09,.02,.64-.27,1.33-.43-.14-1-1.1-1.09-1.26,.02,.13-.19,.77-.5,1.05-.43-.31-.44-1.06-.43-1.29-.07,.21-.46,.87-.71,1.61h0Z"/><path class="cls-4" d="M62.39,13.8c2.25-.2,5.72,1.63,7.56,2.86,0-.41,0-.82,.41-1.02,.41-.21,1.02,.21,.82,.82-.61,1.43-3.07-.21-3.88-.61l.41,.82c-1.23-.21-1.43-.41-2.25-1.43-.2,.82-.2,1.02-1.23,1.02,.38-.61,.51-.81,0-1.43l-.2,1.22-1.02-1.43v1.43c-.21-.2-1.02-.82-1.43-.82-.61-.21-1.02,1.02-1.22,1.63,.61-.61,.82-1.02,1.84-.61-.55,.52-.39,1.15,.2,1.63,0,0,.11-.85,.17-1.04,.33,.24,1.01,1.16,1.87,1.25,.61,0,1.23-.21,1.84-.41,2.04-.2,6.54,.2,5.52,3.27-.2,.61-.41,1.02-.82,1.43,2.86,1.02,.41,4.7-.2,6.53-.41,1.63-.12,2.93,1.89,2.72-.41,.82-1.07,.95-1.89,.95,0,0,.1,.49,.63,.72-.87,.78,.3,1.96-.22,2.54-.88,.42-2.04-.21-2.04-.21l-.06,.58s-1.54-.11-1.58-.17c0,0,.44-.82,.41-.84-.41,.61-.8,.97-1.63,.84,0,0,.07-.38,.52-.87-.62,.62-.69,.89-1.34,.87,0-1.02,.61-2.24,1.84-1.84,.2,0,.85,.51,1.15,.18,.25-.35,.1-1.54,.1-1.95,.13-1.8-.23-1.7-1.25-2.72-.82-.61-1.42-1.55-2.44-1.75-1.02-.21-2.67,.94-3.49,1.35-2.04,1.22-3.88,2.04-6.13,2.45,0,0,.04-.1,.04-.31,0-.14,2.21-1.85,2.59-4.87-.6,2.97-2.75,4.55-2.83,5.1-.08,.55-.52,1.5-.57,1.56,.27-.16,1.12-.58,2.2-.67-.23,1.28-1.43,1.02-1.63,1.63,0,.61,.82,1.43,0,1.84h-3.27s.5-.7,.53-.89c-.44,.27-.72,.97-1.68,.89,.04-.26,.5-.68,.42-.84-.55,.51-.81,.94-1.51,.83,.2-.61,.2-1.43,1.02-1.43,.61-.2,1.23,.21,1.63-.41,.82-1.02-.15-3.25-.35-4.48,0-1.02,0-1.21-.26-2.46l.2,3.67c-.82-.61-1.64-1.02-2.25-1.84-1.43-1.84-1.02-3.88,.82-5.1,.82-.61,1.26-.93,2.28-1.34-.21-.61,.29-1.07-.43-1.26-.22,.38-.43,.79-.84,.76l.22-1.02s-.74,.04-.59,1.36c-.85-.41-.43-1.36-.43-1.36h-.41s0,1.21-.67,1.46c.18-.57,.26-1.46,.26-1.46,0,0-1.09,1.3-1.73,.88,.37-.42,.66-.49,.61-1-.05-.51-.31-1.17-.36-1.27,.23,.11,1.77,.57,2.74,.09-.06,.32-.03,.69-.03,.69,1.02-.21,1.22-.21,2.25,.2-.21-1.43-1.02-1.63-1.84-2.65v.82c-.82-.2-1.02-.41-1.43-1.22l-.61,.41c-1.08-.64-1.87-2.15-.34-2.06,.91,.12,.14,.83,.14,.83,0,0,2.34-.74,3.27-.82,0,0-.27-.57-1.13-.67,.72-.54,1.44-.71,1.95,.42,.51,.03,.99-.59,.69-1.39,.76-.01,1.13,.47,1.48,.97,.28,.05,.57-.24,.5-1.26,.72,.61,1.07,.8,1.12,1.31,.61,.14,1.02,0,1.94-.41-.2,.82-.2,1.02-1.02,1.43,.58,.71,.64,1.57,.52,1.89-.2-.06-.25-.07-.39-.11,.04,.32,.11,1.18,.08,1.69h-.41l.61,1.84-.41,.61c1.43-.61,2.86-.41,4.29-.82,1.63-.21,3.27-.82,5.11-.82,1.23,0,1.23,.61,2.86,.61v-1.02c0-.82-.61-1.63-1.64-1.84-.61,0-1.63,.41-2.25,.61-.82,.21-2.04,.21-2.86,.21-2.65-.41-2.23-.67-3.16-1.16-.55,.15-.87,.62-1.14,1.45-.51-.75-.4-1.71,.21-2.12-.61-2.25,1.02-3.27,3.07-3.67h0Z"/><path class="cls-4" d="M63.01,32.17c-.41-.61-1.84-1.63-1.43-2.66,.61-1.02,4.09-2.65,4.7-.41,.2,.61-.43,2.23-.63,2.85,.31-.08,.65-.56,1.66-.38-.19,.8-1.41,1.42-1.41,1.42,.12,.54-.84,3.05-.84,3.05h-2.66l.41-.81-.61,.81h-1.02l.82-1.02s-.97,1.13-1.79,1.09c.2-1.63,1.18-1.9,2.61-1.29,.21-.82,.61-1.84,.21-2.65h0Z"/><path class="cls-5" d="M60.24,36.16s-.05,0-.05,0c.13-1.62,1.05-2.05,2.63-1.38-.03-.1,.01-.24,.05-.38,.2-.72,.43-1.54,.1-2.21-.1-.15-.27-.34-.46-.54-.57-.61-1.28-1.37-.97-2.15,.42-.69,2-1.56,3.19-1.56,.84,0,1.39,.4,1.6,1.16,.18,.54-.26,1.82-.53,2.58l-.1,.28c.03-.07,.11-.12,.2-.17,.27-.16,.67-.39,1.42-.26-.15,.87-1.35,1.48-1.4,1.5,.15,.5-.78,2.92-.82,3.03l-2.7,.03,.37-.88-.54,.86-1.06,.02,.53-.74c-.32,.34-.91,.81-1.45,.81h0Zm1.48-.84l-.52,.75,.99-.07,.58-.8-.33,.86,2.62-.06s.92-2.47,.8-3c.04-.06,1.23-.67,1.41-1.44-.12,.03-.25,.02-.37,.02-.46,0-.74,.16-.96,.29-.1,.06-.19,.11-.28,.13l.05-.35c.25-.7,.7-2.01,.53-2.53-.25-.91-.96-1.1-1.51-1.1-1.25,0-2.75,.92-3.11,1.51-.29,.73,.4,1.46,.96,2.05,.19,.21,.37,.4,.48,.56,.35,.71,.12,1.54-.09,2.28-.04,.14-.08,.28-.11,.41-.52-.17-.93-.27-1.26-.27-.76,0-1.2,.49-1.34,1.51,.78,0,1.7-1.06,1.71-1.07h0s-.08,.16-.22,.32h0Z"/><path class="cls-4" d="M52.06,16.8c-.28,.17-.05,1.29,.37,1.1,.53-.24-.16-1.23-.37-1.1h0Z"/><path class="cls-5" d="M52.34,17.97c-.16,0-.31-.17-.39-.45-.08-.29-.08-.65,.09-.75,.27-.01,.55,.36,.62,.68,.05,.24-.02,.41-.2,.49l-.11,.03h0Zm-.24-1.13c-.13,.07-.15,.37-.07,.66,.05,.19,.16,.39,.31,.39v.04l.08-.06c.18-.08,.18-.26,.15-.39-.07-.31-.35-.63-.47-.63h0Z"/><path class="cls-4" d="M52.32,16.45c.5,.35,1.3,1.3,2.29,1.25-.75-.62-.6-1.06-.6-1.06,.39,.47,1.7,.9,2.12,.71-.5-.37-.6-.41-.71-.76,.6,.07,1.34,.21,1.94-.06l-5.05-.07Z"/><path class="cls-5" d="M54.42,17.68c-.71,0-1.3-.5-1.74-.88-.14-.12-.27-.23-.38-.31-.02-.01-.02-.04-.01-.06,.02-.02,.04-.02,.06-.01,.12,.08,.25,.19,.39,.32,.48,.41,1.12,.97,1.87,.92-.79-.55-.64-1.01-.64-1.03,.45,.43,1.73,.87,2.15,.68l-.15-.03c-.38-.28-.47-.35-.58-.68l.21-.04c.57,.07,1.22,.16,1.75-.07-.52,.32-1.18,.24-1.76,.16l-.17-.02c.14,.25,.22,.3,.59,.58l.14,.11c-.45,.27-1.73-.15-2.16-.62,.03,.1,.04,.48,.63,.97-.08,.01-.15,.02-.22,.02h0Z"/><path class="cls-4" d="M53.29,22.67l.06-.86s.56,1.3,.97,1.32c-.26-.95-.15-1.71-.15-1.71l-.88,1.25Z"/><path class="cls-5" d="M54.34,23.13c-.46,0-.97-1.16-1.03-1.3l.03,.84s-.03,.04-.05,.04c-.02,0-.04-.02-.04-.05l.06-.86c.24,.34,.7,1.27,1.01,1.28-.3-.89-.2-1.67-.19-1.68,.09,.02-.02,.78,.23,1.71,0,0-.01,0-.02,0h0Z"/><path class="cls-4" d="M54.6,21.63s1.12,2.05,1.66,1.71c-.82-.73-.73-1.68-.73-1.68,0,0,.37,1.27,1.47,1.66,.07-.71-.43-1.86-.43-1.86,0,0,.91,1.6,1.38,1.64,.3-.37,.19-.77,.19-.77l-3.54-.71Z"/><path class="cls-5" d="M56.11,23.42s-.05,0-.08-.01c-.59-.16-1.43-1.7-1.47-1.76-.01-.02,0-.05,.02-.06,.02-.01,.05,0,.06,.02,0,.02,.86,1.57,1.42,1.72,.07,.02,.13,.01,.18-.02-.83-.66-.75-1.63-.75-1.64,.09,0,.47,1.24,1.53,1.62,.01-.65-.48-1.79-.48-1.8,0,0,0,0,0,0,.02,0,.05,.05,.09,.12,.36,.47,1,1.43,1.33,1.46,.24-.33,.14-.71,.14-.71,0,0,0,0,0,0,.09,0,.19,.4-.11,.78-.38-.02-.97-.86-1.26-1.33,.17,.39,.37,1.05,.32,1.53-.95-.29-1.39-1.2-1.52-1.53,.05,.27,.14,.96,.76,1.51-.06,.08-.12,.11-.18,.11h0Z"/><path class="cls-4" d="M53.72,20.21l.82,1.04,.13-1.4s.8,.63,.95,.62c.15-.02-.22-1.49-.22-1.49,0,0,1.08,1.64,1.16,1.6,.08-.04,.11-1.62,.11-1.62,0,0,.82,2.26,1.1,2.24,.28-.02,.21-.32,.21-.32l-4.25-.67Z"/><path class="cls-5" d="M54.59,21.26l-.9-1.02s-.01-.05,0-.06c.02-.02,.05-.01,.06,0l.82,1.04,.05-1.37c.46,.27,.91,.56,.99,.58,.04-.07-.1-.79-.26-1.44,.47,.55,1.11,1.5,1.21,1.55,0-.06,.04-.87,.06-1.58,.48,1.06,1.01,2.21,1.14,2.19,.06,0,.11-.03,.14-.06,.06-.08,.03-.2,.03-.2,.08-.02,.12,.14,.05,.25-.04,.06-.11,.09-.2,.1,0,0,0,0,0,0-.29,0-.95-1.73-1.14-2.27,.05,1.6-.02,1.63-.05,1.65-.04,.02-.11,.06-1.21-1.62,.16,.28,.42,1.33,.31,1.48-.21,.05-.84-.44-1.03-.59l-.06,1.37h0Z"/><path class="cls-4" d="M53.11,18.39s1.27,1.15,1.4,1.08c.13-.07-.52-1.34-.52-1.34,0,0,.73,.69,1.01,.75,.28,.05,.09-.89,.09-.89,0,0,.86,.73,1.01,.69,.15-.04,.07-.69,.07-.69,0,0,.56,.56,.6,.56s-.11-1.6-.11-1.6c0,0,1.25,1.32,1.34,1.3l-4.88,.15Z"/><path class="cls-5" d="M54.5,19.51c-.18,0-.87-.58-1.42-1.09-.02-.02-.02-.04,0-.06,.02-.02,.04-.02,.06,0,.58,.53,1.24,1.07,1.35,1.07h0c.02-.08-.26-.73-.55-1.28,.27,.14,.83,.64,1.05,.68,.14-.11,.09-.57,.04-.84,.47,.3,.93,.65,1.04,.64,.06-.01,.08-.32,.04-.64,.33,.21,.61,.49,.66,.51-.04-.05-.12-.99-.17-1.56,.53,.45,1.29,1.22,1.39,1.26-.02,.1-.11,.11-1.38-1.23,.22,1.55,.19,1.58,.18,1.6-.06,.01-.09,.01-.66-.56,.1,.17,.14,.66-.03,.7-.14,.05-.8-.49-1.03-.68,.08,.11,.19,.7,.04,.85-.01,.01-.11,.04-.13,.04-.29-.06-1-.73-1.03-.76,.52,.81,.68,1.28,.57,1.35,0,0-.02,0-.03,0h0Z"/><path class="cls-4" d="M48.04,18.8c.05,.09,.26,1.74,2.82,1.07,.24-.13,.14,.46,.12,.63,.11-.02,1.33-.45,2.17,.16-.1-.68-.28-1.14-1.01-1.53-.35-.07-.61,.11-.61,.11,0,0-3.08,.02-3.49-.44h0Z"/><path class="cls-5" d="M53.15,20.71s-.02,0-.03,0c-.29-.21-.66-.32-1.1-.32s-.8,.1-.96,.14c-.01,0-.07,0-.08,0-.01,0-.06-.01-.05-.03v-.11c.03-.14,.06-.42,0-.49-.48,.12-.85,.17-1.18,.17-.92,0-1.5-.4-1.74-1.2,0,0,0-.02,0-.04,.44,1.05,1.35,1.38,2.84,.99l.16,.02c.08,.09,.06,.31,.03,.56v.11c.17-.11,.55-.21,.99-.21s.77,.09,1.07,.28c-.1-.62-.3-1.04-.97-1.4-.04,0-.1-.01-.15-.01-.25,0-.41,.12-.42,.12-.81,0-3.16-.02-3.54-.45,0-.02,0-.03,.01-.04,.02-.01,.04-.04,.05-.02,.28,.31,1.99,.43,3.38,.43,.04,0,.24-.13,.52-.13,.06,0,.12,0,.18,.02,.75,.4,.94,.86,1.04,1.57,0,.02,0,.04-.02,.04,0,0-.02,0-.02,0h0Z"/><path class="cls-4" d="M46.64,29.29c-.04,.19-.18,.25-.56,.8,.17,.23,.95,.6,1.16,.41,.19-.11,.21-.61,.21-.61,.41,.61,1.13,1.58,1.95,1.78,.61,.21,1.22-.21,1.22-.82s-.92-1.6-1.33-2.01c-1.02-1.23-.93-3.54-2.87-3.22,0,.02-.09,.28-.27,.33,.16,.3,.24,.55-.13,.64,.29,.28,.33,.49-.04,.63,.22,.3,.49,.41-.03,.67,.54,.53,.66,1.3,.68,1.39h0Z"/><path class="cls-5" d="M49.72,31.76c-.11,0-.23-.02-.34-.06-.61-.15-1.25-.73-1.94-1.75,.04,.13,0,.48-.18,.58-.04,.04-.11,.06-.2,.06h0c-.32,0-.87-.28-1.02-.48,.17-.29,.29-.44,.37-.55,.11-.13,.16-.19,.18-.29-.06-.25-.2-.89-.67-1.35,.18-.16,.27-.23,.28-.29,.01-.06-.05-.14-.14-.23-.04-.05-.08-.09-.12-.15,.16-.12,.24-.19,.25-.26,.02-.09-.05-.21-.21-.37,.14-.1,.2-.15,.23-.21,.05-.1-.01-.25-.11-.44,.12-.09,.2-.18,.26-.35,.17-.06,.28-.08,.4-.08,1.04,0,1.41,.88,1.79,1.82,.21,.51,.43,1.04,.76,1.44,.4,.4,1.34,1.41,1.34,2.03,0,.51-.42,.91-.95,.91h0Zm-2.31-1.88c.77,1.01,1.4,1.59,2,1.74,.59,.2,1.17-.21,1.17-.77,0-.6-.92-1.58-1.32-1.97-.35-.42-.57-.95-.78-1.47-.41-1.01-.8-1.94-2.05-1.74-.05,.18-.15,.3-.27,.33,.12,.11,.21,.31,.14,.46-.04,.09-.13,.15-.27,.19,.21,.11,.28,.25,.26,.37-.02,.11-.12,.19-.29,.26,.06-.01,.1,.03,.14,.08,.1,.11,.18,.2,.16,.31-.02,.1-.11,.18-.32,.28,.5,.41,.65,1.07,.7,1.29-.01,.19-.07,.26-.18,.4-.08,.1-.2,.25-.37,.49,.16,.16,.93,.49,1.1,.35,.15-.08,.19-.45,.19-.58h0Z"/><path class="cls-4" d="M46.14,11.99c-.61,.89-.68,10.68-.49,12.66-.62,.4-1.76,.23-2.08,.11,.15-.7,.68-12.06,2.57-12.76h0Z"/><path class="cls-5" d="M44.57,24.95c-.42,0-.83-.08-1.02-.15,0-.17,.04-.67,.1-1.36,.27-3.26,.9-10.9,2.47-11.48-.55,.94-.63,10.61-.43,12.69-.35,.26-.8,.3-1.12,.3h0Zm1.53-12.98c-1.47,.63-2.12,8.51-2.36,11.48-.06,.72-.1,1.19-.13,1.32,.15,.02,.55,.09,.96,.09,.31,0,.75-.04,1.05-.24-.19-1.74-.16-11.72,.48-12.64h0Z"/><path class="cls-4" d="M44.4,32.07s-2.71,.38-1.57-1.23c.98-.43,.95,.57,.59,.91,.45,.05,.74-.24,.81-.68-.55-.74,.23-1.23,.19-1.23-1.89,.42-2.14-.87-1.44-1.08,.88,.05,.6,.33,.95,.59,.64-.59,1.02-.64,1.4-.04,.38-.59,.93-.53,.95-.47,.62,1.04-.74,1.1-1.29,.97,.47,.51,.28,1,.13,1.36,.01,.35,.28,.41,.72,.55-.93-2.57,3.29,.69-.95,.36,0,.11,.01,.23,.02,.34,.35,.06,.59,.15,.7,.51-.15,.2-.38,.23-.74,.08,0,0,.21,.59-.17,.76-.32-.19-.36-.66-.36-.66-.18,.22-.44,.08-.66-.11,.2-.49,.76-.25,.72-.95h0Z"/><path class="cls-4" d="M42.07,24.23c.16-.74,1.87-.64,1.06,.15,.54,.87,2.21,.74,2.84,.25-.53-1.01,.91-.79,.85-.02-.18,1.36-4.93,1.18-4.75-.38h0Z"/><path class="cls-4" d="M73.41,37.24c.51,.95,1.41,3.21,1.91,3.75,.47,.42,1.64,.37,2-.11,0,0,.75,.77,1.05,1.01,.18-.06,.29-.23,.29-.23-.3-.33-.72-.52-.92-1.13,.3-.41,.47-1.2,.27-1.81-.89-1.5-3.87-.91-4.6-1.47h0Z"/><path class="cls-5" d="M78.37,41.94h-.02c-.3-.25-1.03-.99-1.06-1.02-.23,.45-1.53,.52-2,.11-.34-.36-.84-1.46-1.29-2.43-.24-.52-.46-1-.64-1.33,.33,.15,.91,.2,1.58,.26,1.13,.1,2.53,.22,3.1,1.18,.22,.65,.03,1.46-.27,1.86,.15,.39,.4,.6,.64,.81,.1,.08,.19,.17,.28,.26,0,.06-.12,.24-.31,.31h-.02Zm-1.08-1.07c.07,0,.79,.74,1.09,.98,.15-.06,.24-.21,.25-.21-.08-.04-.17-.12-.27-.2-.25-.22-.51-.44-.66-.89,.3-.43,.47-1.2,.27-1.81-.54-.91-1.92-1.03-3.03-1.12-.68-.06-1.27-.11-1.56-.33,.24,.27,.47,.76,.7,1.28,.44,.96,.95,2.06,1.27,2.41,.42,.37,1.62,.31,1.93-.1h0Z"/><path class="cls-4" d="M41.48,11.23c-.51-.95-1.41-3.21-1.91-3.75-.47-.42-1.64-.37-2,.1,0,0-.75-.77-1.05-1-.18,.06-.29,.23-.29,.23,.31,.33,.72,.52,.92,1.13-.3,.41-.47,1.2-.27,1.81,.89,1.5,3.87,.91,4.6,1.47h0Z"/><path class="cls-5" d="M41.46,11.26c-.26-.2-.84-.25-1.51-.31-1.13-.1-2.53-.22-3.1-1.17-.22-.65-.03-1.46,.27-1.86-.15-.39-.4-.6-.64-.81-.1-.08-.19-.17-.28-.26,0-.06,.12-.24,.31-.3,.34,.24,1.07,.98,1.1,1.02,.22-.45,1.54-.52,2-.11,.33,.36,.84,1.46,1.29,2.43,.24,.52,.46,1.01,.64,1.34l-.07,.06h0Zm-4.96-4.65c-.12,.06-.23,.22-.23,.22,.08,.04,.17,.12,.27,.2,.25,.22,.51,.44,.66,.89-.3,.43-.47,1.2-.27,1.81,.54,.91,1.92,1.03,3.03,1.12,.59,.05,1.1,.1,1.42,.25-.16-.32-.36-.75-.57-1.2-.44-.96-.94-2.06-1.27-2.4-.42-.37-1.62-.32-1.93,.1-.07,0-.82-.77-1.11-1h0Z"/><path class="cls-4" d="M41.18,37.09c-.95,.51-3.21,1.41-3.75,1.91-.42,.47-.37,1.64,.1,2,0,0-.77,.75-1,1.05,.06,.18,.23,.29,.23,.29,.33-.3,.52-.72,1.13-.93,.41,.3,1.2,.47,1.81,.27,1.5-.89,.91-3.87,1.48-4.6h0Z"/><path class="cls-5" d="M36.77,42.4l-.03-.02s-.19-.12-.25-.31c.24-.34,.98-1.07,1.02-1.1-.21-.1-.35-.42-.39-.83-.05-.47,.06-.92,.29-1.17,.36-.33,1.46-.84,2.43-1.28,.52-.24,1.01-.46,1.34-.64-.15,.33-.2,.91-.26,1.58-.1,1.13-.22,2.53-1.18,3.1-.19,.07-.4,.1-.62,.1h0c-.46,0-.95-.14-1.24-.37-.39,.15-.6,.4-.81,.64-.08,.1-.17,.2-.26,.28l-.02,.02h0Zm4.38-5.34c-.28,.24-.77,.47-1.29,.71-.96,.44-2.05,.94-2.4,1.26-.2,.23-.3,.66-.26,1.1,.04,.37,.17,.68,.36,.83,0,.07-.77,.82-1,1.11,.05,.09,.15,.17,.19,.21,.08-.08,.16-.16,.23-.25,.22-.25,.44-.51,.89-.66,.48,.32,1.27,.45,1.81,.27,.91-.54,1.03-1.92,1.12-3.03,.06-.68,.11-1.27,.33-1.56h0Z"/><path class="cls-4" d="M73.49,11.23c.51-.95,1.41-3.21,1.92-3.75,.47-.42,1.64-.37,2,.1,0,0,.75-.77,1.05-1,.18,.06,.29,.23,.29,.23-.31,.33-.72,.52-.92,1.13,.3,.41,.47,1.2,.27,1.81-.89,1.5-3.87,.9-4.6,1.47h0Z"/><path class="cls-5" d="M73.51,11.26l-.07-.06c.18-.33,.4-.82,.64-1.34,.45-.97,.95-2.07,1.28-2.43,.47-.42,1.72-.35,2.06,.11-.03-.05,.69-.78,.99-1.01,.23,.06,.35,.24,.35,.24-.09,.15-.19,.23-.29,.32-.24,.21-.49,.42-.63,.85,.3,.36,.48,1.17,.27,1.81-.57,.96-1.98,1.08-3.1,1.18-.67,.06-1.25,.11-1.51,.31h0Zm2.83-4.03c-.38,0-.72,.1-.91,.27-.32,.34-.82,1.44-1.26,2.4-.21,.45-.4,.88-.57,1.2,.31-.15,.83-.2,1.42-.25,1.11-.1,2.48-.21,3.03-1.13,.2-.61,.02-1.38-.26-1.76,.14-.49,.4-.72,.65-.93,.09-.08,.18-.16,.27-.25-.03,0-.13-.12-.26-.17-.26,.22-1,.98-1.01,.99-.24-.23-.64-.38-1.09-.38h0Z"/><path class="cls-4" d="M42.84,25.9c-.04,.31,.7,.45,1.46,.45,.76,0,1.54-.12,1.57-.34,0-.38-.66-.06-1.43-.06-.77,0-1.4-.31-1.6-.05h0Z"/><path class="cls-4" d="M44.33,26.4h-.03c-.28,0-1.19-.03-1.44-.31-.05-.06-.07-.12-.06-.19,.14-.19,.42-.15,.83-.08,.24,.04,.52,.09,.82,.09h0c.29,0,.55-.04,.77-.08,.33-.05,.56-.07,.65,.02,.04,.04,.06,.09,.05,.16-.05,.3-1.06,.38-1.58,.38h0Zm-1.2-.56c-.13,0-.21,.03-.26,.09,0,.02,.02,.06,.05,.1,.15,.17,.68,.28,1.38,.28l.03,.04v-.04c.87,0,1.47-.16,1.5-.3,0-.04,0-.07-.03-.09-.06-.07-.29-.04-.57,0-.22,.04-.49,.08-.76,.08-.32,0-.61-.05-.85-.09-.19-.03-.35-.06-.48-.06h0Z"/><path class="cls-4" d="M42.89,26.76c0,.29,.75,.36,1.4,.38,.65,.02,1.31-.11,1.43-.32-.12-.33-.84-.06-1.43-.04-.59,.02-1.24-.29-1.4-.02h0Z"/><path class="cls-4" d="M44.42,27.19h-.13c-.66-.02-1.43-.09-1.44-.43,.07-.14,.21-.16,.31-.16,.13,0,.28,.03,.45,.06,.2,.04,.42,.07,.63,.07,.23,0,.43-.04,.62-.07,.19-.03,.37-.06,.51-.06,.14,0,.33,.02,.38,.19-.14,.27-.79,.38-1.34,.38h0Zm-1.26-.5c-.12,0-.2,.03-.23,.09,.01,.17,.47,.29,1.36,.31h.13c.61,0,1.16-.13,1.26-.3-.06-.1-.39-.1-.8-.04-.19,.03-.4,.06-.58,.07-.23,.03-.49-.04-.69-.08-.16-.03-.31-.06-.44-.06h0Z"/><path class="cls-4" d="M43.11,27.54c-.05,.22,.6,.38,1.2,.38,.6,0,1.44-.23,1.45-.46-.04-.19-.87,.06-1.43,.08-.56,.02-1.21-.2-1.21,0h0Z"/><path class="cls-4" d="M44.32,27.96s-.02,0-.02,0c-.47,0-1.05-.11-1.2-.3-.03-.04-.05-.09-.04-.14,0-.12,.16-.12,.21-.12,.1,0,.22,.02,.37,.04,.18,.02,.39,.05,.6,.05,.28,0,.53-.05,.77-.08,.22-.03,.42-.07,.56-.07,.06,0,.2,0,.22,.1,0,.3-.9,.51-1.48,.51h0Zm-1.04-.47c-.08,0-.13,.01-.13,.04,.13,.22,.64,.33,1.15,.34v.04s.01-.04,.01-.04c.61,0,1.39-.23,1.39-.42,0-.01-.32-.02-.68,.04-.24,.04-.49,.08-.71,.08-.31-.01-.5-.03-.68-.05-.14-.02-.26-.04-.36-.04h0Z"/><path class="cls-4" d="M43.04,28.33c.05,.21,.79,.29,1.43,.24,.65-.05,1.3-.25,1.36-.48-.03-.15-.77,.11-1.39,.14-.62,.03-1.41-.07-1.4,.1h0Z"/><path class="cls-4" d="M44.08,28.62c-.24,0-1.03-.02-1.09-.29,.08-.13,.21-.16,.49-.16h.68c.09,.01,.19,0,.28,0,.26-.01,.55-.07,.79-.12,.2-.04,.38-.07,.49-.07,.03,0,.14,0,.16,.08-.07,.29-.77,.48-1.4,.53-.13,0-.26,.01-.39,.01h0Zm-.6-.35c-.23,0-.37,.02-.4,.05,.02,.11,.37,.22,1,.22,.13,0,.26,0,.39-.01,.67-.05,1.27-.25,1.32-.44-.17,0-.34,.04-.54,.08-.25,.05-.54,.1-.81,.12-.09,0-.19,0-.28,0h-.68Z"/></g></g></g></svg>