<?xml version="1.0" encoding="UTF-8"?><svg id="Ebene_2" xmlns="http://www.w3.org/2000/svg" xmlns:xlink="http://www.w3.org/1999/xlink" viewBox="0 0 83.18 48.52"><defs><style>.cls-1{fill:none;}.cls-2{clip-path:url(#clippath);}.cls-3{fill:#ea0042;}.cls-4{fill:#fff;}.cls-5{fill:#cfb428;}.cls-6{fill:#58b44d;}.cls-7{clip-path:url(#clippath-1);}</style><clipPath id="clippath"><rect class="cls-1" width="83.18" height="48.52"/></clipPath><clipPath id="clippath-1"><rect class="cls-1" width="83.18" height="48.52"/></clipPath></defs><g id="Layer_1"><g class="cls-2"><rect class="cls-6" y="34.67" width="83.18" height="13.86"/><rect class="cls-4" y="13.86" width="83.18" height="20.81"/><rect class="cls-3" width="83.18" height="13.86"/><g class="cls-7"><path class="cls-5" d="M41.53,29.19c.4,.49,1.87,.99,3.13,.37,.19,.58,1.76,1.54,3.16,.52-1.53-.22-2.35-.72-3.2-1.85-.84,.68-2.23,.07-2.53-.25l.02-3.94,2.01-1.98c0-.43-1.29-1.63-2.59-1.63-1.29,0-2.59,1.21-2.59,1.63l2.01,1.98,.02,3.94c-.31,.32-1.69,.93-2.53,.25-.84,1.13-1.67,1.63-3.2,1.85,1.4,1.02,2.97,.06,3.16-.52,1.26,.63,2.72,.12,3.12-.37h0Zm0-5.83c-.51-.86-1.52-1.19-1.52-1.19,0,0,.53-.85,1.53-.85s1.53,.85,1.53,.85c0,0-1.03,.32-1.53,1.19"/><path class="cls-5" d="M41.53,31.22c-1.85,0-3.02,.65-3.63,1.33l-.52-.56c.47-.57,1.1-.77,1.26-1.49,.16-.5-.2-.9-.2-.9,0,0,.52,.72,1.81,.72,.79,0,1.28-.88,1.28-.88m0,0s.49,.88,1.28,.88c1.29,0,1.81-.72,1.81-.72,0,0-.36,.4-.2,.9,.16,.72,.79,.92,1.26,1.49l-.52,.56c-.61-.68-1.78-1.33-3.63-1.33"/><polygon class="cls-5" points="50.44 24.8 50.79 25.88 51.92 25.88 51 26.55 51.35 27.62 50.44 26.96 49.52 27.62 49.87 26.55 48.95 25.88 50.09 25.88 50.44 24.8"/><polygon class="cls-5" points="49.25 20.38 49.6 21.46 50.73 21.46 49.82 22.12 50.17 23.2 49.25 22.54 48.33 23.2 48.68 22.12 47.77 21.46 48.9 21.46 49.25 20.38"/><polygon class="cls-5" points="46.01 17.14 46.36 18.22 47.5 18.22 46.58 18.89 46.93 19.97 46.01 19.3 45.1 19.97 45.45 18.89 44.53 18.22 45.66 18.22 46.01 17.14"/><polygon class="cls-5" points="41.59 15.96 41.94 17.04 43.08 17.04 42.16 17.7 42.51 18.78 41.59 18.12 40.67 18.78 41.02 17.7 40.11 17.04 41.24 17.04 41.59 15.96"/><polygon class="cls-5" points="37.17 17.14 37.52 18.22 38.65 18.22 37.74 18.89 38.09 19.97 37.17 19.3 36.25 19.97 36.6 18.89 35.68 18.22 36.82 18.22 37.17 17.14"/><polygon class="cls-5" points="33.93 20.38 34.28 21.46 35.42 21.46 34.5 22.12 34.85 23.2 33.93 22.54 33.01 23.2 33.37 22.12 32.45 21.46 33.58 21.46 33.93 20.38"/><polygon class="cls-5" points="32.75 24.8 33.1 25.88 34.23 25.88 33.31 26.55 33.66 27.62 32.75 26.96 31.83 27.62 32.18 26.55 31.26 25.88 32.4 25.88 32.75 24.8"/></g></g></g></svg>