<?xml version="1.0" encoding="UTF-8"?><svg id="Ebene_2" xmlns="http://www.w3.org/2000/svg" xmlns:xlink="http://www.w3.org/1999/xlink" viewBox="0 0 83.18 48.52"><defs><style>.cls-1{fill:none;}.cls-2{clip-path:url(#clippath);}.cls-3{fill:#eac126;}.cls-4{fill:#42a04b;}.cls-5{fill:#4694d2;}</style><clipPath id="clippath"><rect class="cls-1" width="83.18" height="48.52"/></clipPath></defs><g id="Layer_1"><g class="cls-2"><polygon class="cls-4" points="0 0 0 36.84 63.42 0 0 0"/><polygon class="cls-5" points="19.77 48.52 83.18 48.52 83.18 11.68 19.77 48.52"/><polygon class="cls-3" points="63.42 0 0 36.84 0 40.59 69.75 0 63.42 0"/><polygon class="cls-3" points="13.43 48.52 19.77 48.52 83.18 11.68 83.18 7.93 13.43 48.52"/><polygon points="69.75 0 0 40.59 0 48.46 .03 48.51 .04 48.52 13.43 48.52 83.18 7.93 83.18 .06 83.15 .02 83.14 0 69.75 0"/></g></g></svg>