<?xml version="1.0" encoding="UTF-8"?><svg id="Ebene_2" xmlns="http://www.w3.org/2000/svg" xmlns:xlink="http://www.w3.org/1999/xlink" viewBox="0 0 13.12 13.12"><defs><style>.cls-1{fill:none;}.cls-2{clip-path:url(#clippath);}.cls-3{fill:#fff;}.cls-4{fill:#fcd20f;}.cls-5{fill:#00a4de;}.cls-6{fill:#c6cde0;}.cls-7{fill:#18b835;}.cls-8{clip-path:url(#clippath-1);}.cls-9{clip-path:url(#clippath-3);}.cls-10{clip-path:url(#clippath-2);}</style><clipPath id="clippath"><circle class="cls-1" cx="6.56" cy="6.6" r="5.85"/></clipPath><clipPath id="clippath-1"><circle class="cls-1" cx="6.56" cy="6.6" r="5.85"/></clipPath><clipPath id="clippath-2"><circle class="cls-1" cx="6.56" cy="6.6" r="5.85"/></clipPath><clipPath id="clippath-3"><circle class="cls-1" cx="6.56" cy="6.6" r="5.85"/></clipPath></defs><g id="Camada_1"><g><g><circle class="cls-3" cx="6.56" cy="6.56" r="6.56"/><circle class="cls-6" cx="6.56" cy="6.56" r="6.08"/></g><g><g class="cls-2"><polygon class="cls-7" points=".44 -.57 .44 7.21 .56 7.21 .56 12.43 12.47 12.43 12.47 -.57 .44 -.57"/></g><g class="cls-8"><polygon class="cls-5" points="12.67 2.97 .07 10.76 .23 13.17 12.67 12.88 12.67 2.97"/></g><g class="cls-10"><polygon class="cls-4" points=".83 7.89 .56 9.27 .56 11.22 12.47 4.03 12.47 .95 .83 7.89"/></g><g class="cls-9"><polygon points=".56 8.63 .56 10.37 .58 10.76 .78 10.36 .94 10.43 12.47 3.52 12.47 1.44 .56 8.63"/></g></g></g></g></svg>