<?xml version="1.0" encoding="UTF-8"?><svg id="Ebene_2" xmlns="http://www.w3.org/2000/svg" xmlns:xlink="http://www.w3.org/1999/xlink" viewBox="0 0 83.18 48.52"><defs><style>.cls-1{fill:none;}.cls-2{clip-path:url(#clippath);}.cls-3{fill:#f5cd28;}.cls-4{fill:#fff;}.cls-5{fill:#c0003b;}.cls-6{fill:#2d6b4f;}</style><clipPath id="clippath"><rect class="cls-1" width="83.18" height="48.52"/></clipPath></defs><g id="Layer_1"><g class="cls-2"><rect class="cls-6" width="83.18" height="48.52"/><rect class="cls-3" y="9.71" width="83.18" height="9.7"/><rect class="cls-3" y="29.11" width="83.18" height="9.7"/><rect class="cls-5" width="29.11" height="29.11"/><polygon class="cls-4" points="14.56 5.34 11.71 14.11 16.09 15.53 14.56 5.34"/><polygon class="cls-4" points="14.56 5.34 17.41 14.11 13.02 15.53 14.56 5.34"/><polygon class="cls-4" points="23.32 11.71 14.11 11.71 14.11 16.32 23.32 11.71"/><polygon class="cls-4" points="23.32 11.71 15.87 17.13 13.16 13.4 23.32 11.71"/><polygon class="cls-4" points="5.79 11.71 13.25 17.13 15.96 13.4 5.79 11.71"/><polygon class="cls-4" points="5.79 11.71 15.01 11.71 15.01 16.32 5.79 11.71"/><polygon class="cls-4" points="19.97 22.02 17.13 13.25 12.74 14.67 19.97 22.02"/><polygon class="cls-4" points="19.97 22.02 12.52 16.6 15.23 12.87 19.97 22.02"/><polygon class="cls-4" points="9.14 22.02 16.6 16.6 13.89 12.87 9.14 22.02"/><polygon class="cls-4" points="9.14 22.02 11.99 13.25 16.37 14.67 9.14 22.02"/></g></g></svg>