<?xml version="1.0" encoding="UTF-8"?><svg id="Ebene_2" xmlns="http://www.w3.org/2000/svg" xmlns:xlink="http://www.w3.org/1999/xlink" viewBox="0 0 83.18 48.52"><defs><style>.cls-1,.cls-2{fill:none;}.cls-2{stroke:#292c2f;stroke-linecap:square;stroke-miterlimit:10;stroke-width:0px;}.cls-3{clip-path:url(#clippath);}.cls-4,.cls-5{fill:#cf3b1d;}.cls-6{fill:#ad3b2b;}.cls-7{fill:#bf0236;}.cls-8,.cls-9{fill:#c03f2a;}.cls-10,.cls-11{fill:#e0852a;}.cls-12,.cls-13{fill:#307359;}.cls-14{clip-path:url(#clippath-1);}.cls-13,.cls-11,.cls-9,.cls-15,.cls-5,.cls-16,.cls-17{fill-rule:evenodd;}.cls-15{fill:#ab3b2c;}.cls-16{fill:#fff;}.cls-17{fill:#fbfcfc;}</style><clipPath id="clippath"><rect class="cls-1" width="83.18" height="48.52"/></clipPath><clipPath id="clippath-1"><rect class="cls-1" width="83.18" height="48.52"/></clipPath></defs><g id="Layer_1"><g class="cls-3"><rect class="cls-12" width="83.18" height="48.52"/><rect class="cls-7" x="8.73" width="13.1" height="48.52"/><polygon class="cls-11" points="8.73 13.55 8.73 13.17 9.3 12.24 9.16 12.05 9.49 11.53 9.39 11.35 9.16 11.72 9.06 11.53 9.81 10.22 9.96 10.41 9.81 10.6 10.05 10.97 10.61 10.03 10.05 9.14 9.81 9.47 9.96 9.66 9.81 9.85 9.06 8.53 9.16 8.35 9.39 8.72 9.49 8.53 9.16 8.02 9.3 7.83 8.73 6.89 8.73 6.52 9.49 7.83 9.39 8.02 9.72 8.53 9.49 8.91 9.72 9.28 10.05 8.72 10.8 10.03 10.05 11.35 9.72 10.78 9.49 11.16 9.72 11.53 9.39 12.05 9.49 12.24 8.73 13.55"/><polygon class="cls-11" points="8.73 8.91 8.88 9.28 8.88 9.85 9.2 9.85 9.39 10.03 9.2 10.22 8.88 10.22 8.88 10.78 8.73 11.16 8.73 8.91"/><polygon class="cls-11" points="8.73 22.46 8.73 22.08 9.3 21.14 9.16 20.96 9.49 20.39 9.39 20.21 9.16 20.58 9.06 20.39 9.81 19.13 9.96 19.32 9.81 19.5 10.05 19.88 10.61 18.94 10.05 18.05 9.81 18.38 9.96 18.57 9.81 18.75 9.06 17.44 9.16 17.25 9.39 17.63 9.49 17.44 9.16 16.88 9.3 16.69 8.73 15.8 8.73 15.42 9.49 16.69 9.39 16.88 9.72 17.44 9.49 17.82 9.72 18.19 10.05 17.63 10.8 18.94 10.05 20.21 9.72 19.69 9.49 20.07 9.72 20.39 9.39 20.96 9.49 21.14 8.73 22.46"/><polygon class="cls-11" points="8.73 17.82 8.88 18.19 8.88 18.75 9.2 18.75 9.39 18.94 9.2 19.13 8.88 19.13 8.88 19.69 8.73 20.07 8.73 17.82"/><polygon class="cls-11" points="8.73 31.36 8.73 30.99 9.3 30.05 9.16 29.86 9.49 29.3 9.39 29.11 9.16 29.49 9.06 29.3 9.81 28.04 9.96 28.18 9.81 28.36 10.05 28.74 10.61 27.85 10.05 26.91 9.81 27.29 9.96 27.47 9.81 27.66 9.06 26.35 9.16 26.16 9.39 26.54 9.49 26.35 9.16 25.79 9.3 25.6 8.73 24.66 8.73 24.29 9.49 25.6 9.39 25.79 9.72 26.35 9.49 26.72 9.72 27.1 10.05 26.54 10.8 27.85 10.05 29.11 9.72 28.55 9.49 28.93 9.72 29.3 9.39 29.86 9.49 30.05 8.73 31.36"/><polygon class="cls-11" points="8.73 26.72 8.88 27.1 8.88 27.66 9.2 27.66 9.39 27.85 9.2 28.04 8.88 28.04 8.88 28.55 8.73 28.93 8.73 26.72"/><polygon class="cls-11" points="8.73 39.71 8.73 39.33 9.3 38.4 9.16 38.21 9.49 37.65 9.39 37.46 9.16 37.83 9.06 37.65 9.81 36.33 9.96 36.52 9.81 36.71 10.05 37.08 10.61 36.15 10.05 35.26 9.81 35.63 9.96 35.82 9.81 36.01 9.06 34.69 9.16 34.51 9.39 34.88 9.49 34.69 9.16 34.13 9.3 33.94 8.73 33.01 8.73 32.63 9.49 33.94 9.39 34.13 9.72 34.69 9.49 35.07 9.72 35.44 10.05 34.88 10.8 36.19 10.05 37.46 9.72 36.9 9.49 37.27 9.72 37.65 9.39 38.21 9.49 38.4 8.73 39.71"/><polygon class="cls-11" points="8.73 35.07 8.88 35.44 8.88 36.01 9.2 36.01 9.39 36.15 9.2 36.33 8.88 36.33 8.88 36.9 8.73 37.27 8.73 35.07"/><polygon class="cls-11" points="21.84 13.55 21.84 13.17 21.27 12.24 21.41 12.05 21.08 11.53 21.18 11.35 21.41 11.72 21.51 11.53 20.76 10.22 20.62 10.41 20.76 10.6 20.52 10.97 20 10.03 20.52 9.14 20.76 9.47 20.62 9.66 20.76 9.85 21.51 8.53 21.41 8.35 21.18 8.72 21.08 8.53 21.41 8.02 21.27 7.83 21.84 6.89 21.84 6.52 21.08 7.83 21.18 8.02 20.85 8.53 21.08 8.91 20.85 9.28 20.52 8.72 19.77 10.03 20.52 11.35 20.85 10.78 21.08 11.16 20.85 11.53 21.18 12.05 21.08 12.24 21.84 13.55"/><polygon class="cls-11" points="21.84 8.91 21.74 9.28 21.74 9.85 21.41 9.85 21.18 10.03 21.41 10.22 21.74 10.22 21.74 10.78 21.84 11.16 21.84 8.91"/><polygon class="cls-11" points="21.84 22.46 21.84 22.08 21.27 21.14 21.41 20.96 21.08 20.39 21.18 20.21 21.41 20.58 21.51 20.39 20.76 19.13 20.62 19.32 20.76 19.5 20.52 19.88 20 18.94 20.52 18.05 20.76 18.38 20.62 18.57 20.76 18.75 21.51 17.44 21.41 17.25 21.18 17.63 21.08 17.44 21.41 16.88 21.27 16.69 21.84 15.8 21.84 15.42 21.08 16.69 21.18 16.88 20.85 17.44 21.08 17.82 20.85 18.19 20.52 17.63 19.77 18.94 20.52 20.21 20.85 19.69 21.08 20.07 20.85 20.39 21.18 20.96 21.08 21.14 21.84 22.46"/><polygon class="cls-11" points="21.84 17.82 21.74 18.19 21.74 18.75 21.41 18.75 21.18 18.94 21.41 19.13 21.74 19.13 21.74 19.69 21.84 20.07 21.84 17.82"/><polygon class="cls-11" points="21.84 31.36 21.84 30.99 21.27 30.05 21.41 29.86 21.08 29.3 21.18 29.11 21.41 29.49 21.51 29.3 20.76 28.04 20.62 28.18 20.76 28.36 20.52 28.74 20 27.85 20.52 26.91 20.76 27.29 20.62 27.47 20.76 27.66 21.51 26.35 21.41 26.16 21.18 26.54 21.08 26.35 21.41 25.79 21.27 25.6 21.84 24.66 21.84 24.29 21.08 25.6 21.18 25.79 20.85 26.35 21.08 26.72 20.85 27.1 20.52 26.54 19.77 27.85 20.52 29.11 20.85 28.55 21.08 28.93 20.85 29.3 21.18 29.86 21.08 30.05 21.84 31.36"/><polygon class="cls-11" points="21.84 26.72 21.74 27.1 21.74 27.66 21.41 27.66 21.18 27.85 21.41 28.04 21.74 28.04 21.74 28.55 21.84 28.93 21.84 26.72"/><polygon class="cls-11" points="21.84 39.71 21.84 39.33 21.27 38.4 21.41 38.21 21.08 37.65 21.18 37.46 21.41 37.83 21.51 37.65 20.76 36.33 20.62 36.52 20.76 36.71 20.52 37.08 20 36.15 20.52 35.26 20.76 35.63 20.62 35.82 20.76 36.01 21.51 34.69 21.41 34.51 21.18 34.88 21.08 34.69 21.41 34.13 21.27 33.94 21.84 33.01 21.84 32.63 21.08 33.94 21.18 34.13 20.85 34.69 21.08 35.07 20.85 35.44 20.52 34.88 19.77 36.19 20.52 37.46 20.85 36.9 21.08 37.27 20.85 37.65 21.18 38.21 21.08 38.4 21.84 39.71"/><polygon class="cls-11" points="21.84 35.07 21.74 35.44 21.74 36.01 21.41 36.01 21.18 36.15 21.41 36.33 21.74 36.33 21.74 36.9 21.84 37.27 21.84 35.07"/><polygon class="cls-11" points="8.73 3.56 8.73 3.19 9.3 2.25 9.16 2.06 9.49 1.5 9.39 1.31 9.16 1.69 9.06 1.5 9.81 .19 9.96 .37 9.81 .56 10.05 .94 10.61 0 10.8 0 10.05 1.31 9.72 .75 9.49 1.12 9.72 1.5 9.39 2.06 9.49 2.25 8.73 3.56"/><polygon class="cls-11" points="21.84 3.56 21.84 3.19 21.27 2.25 21.41 2.06 21.08 1.5 21.18 1.31 21.41 1.69 21.51 1.5 20.76 .19 20.62 .37 20.76 .56 20.52 .94 20 0 19.77 0 20.52 1.31 20.85 .75 21.08 1.12 20.85 1.5 21.18 2.06 21.08 2.25 21.84 3.56"/><g class="cls-14"><path class="cls-11" d="M14.18,48.1s.47-.7,1.69-.94c1.17-.19,1.36,.52,2.06,.52,.66,0,1.74-.52,1.74-.52,0,0-1.08,.94-1.93,.89-.8,0-1.08-.47-1.92-.37-.85,.05-1.64,.47-1.64,.42h0Z"/><path class="cls-11" d="M16.48,48.1s-.47-.7-1.64-.94c-1.17-.19-1.41,.52-2.07,.52-.7,0-1.74-.52-1.74-.52,0,0,1.03,.94,1.88,.89,.84,0,1.13-.47,1.97-.37,.84,.05,1.6,.47,1.6,.42h0Z"/><path class="cls-11" d="M12.63,46.93c-.14-.19-.38-1.03-.24-1.12,.19-.05,.75,.8,.71,1.55-.38,.14-1.6-.09-1.6-.28,.09-.33,.8-.23,1.13-.14h0Z"/><path class="cls-11" d="M11.88,46.23c-.09-.23-.19-1.12-.05-1.17,.24,0,.61,.94,.42,1.69-.38,.05-1.55-.47-1.46-.7,.14-.28,.8,0,1.08,.19h0Z"/><path class="cls-11" d="M11.27,45.38c-.05-.19-.05-1.08,.09-1.13,.24,0,.52,1.03,.24,1.69-.38,.05-1.5-.66-1.41-.84,.19-.28,.8,.09,1.08,.28h0Z"/><path class="cls-11" d="M10.8,44.54c-.05-.23,.09-1.12,.23-1.12,.23,.05,.38,1.12,0,1.74-.38-.05-1.36-.89-1.27-1.08,.19-.23,.8,.24,1.03,.47h0Z"/><path class="cls-11" d="M10.47,43.65c0-.23,.19-1.08,.38-1.08,.19,.09,.23,1.12-.19,1.74-.42-.14-1.27-1.17-1.17-1.31,.24-.19,.75,.37,.99,.66h0Z"/><path class="cls-11" d="M10.57,42.62c-.05,.89-.23,.89-.56,.23-.19-.23-.19-1.31-.05-1.31,.19-.05,.61,.7,.61,1.08h0Z"/><path class="cls-11" d="M18.03,47.02c.09-.19,.33-1.03,.19-1.12-.19-.05-.75,.8-.7,1.55,.38,.14,1.6-.09,1.6-.28-.09-.33-.8-.23-1.08-.14h0Z"/><path class="cls-11" d="M18.74,46.32c.09-.23,.19-1.12,.05-1.17-.23,0-.61,.94-.42,1.69,.38,.05,1.55-.47,1.5-.7-.14-.28-.8,0-1.13,.19h0Z"/><path class="cls-11" d="M19.35,45.48c.05-.19,.09-1.08-.09-1.13-.19,0-.52,1.03-.24,1.69,.38,.05,1.5-.66,1.41-.84-.19-.28-.8,.09-1.08,.28h0Z"/><path class="cls-11" d="M19.82,44.63c.05-.23-.05-1.13-.23-1.13-.19,.05-.38,1.13,0,1.74,.38-.05,1.36-.89,1.27-1.08-.19-.23-.75,.24-1.03,.47h0Z"/><path class="cls-11" d="M20.14,43.74c0-.23-.19-1.08-.38-1.08-.19,.09-.23,1.12,.23,1.74,.38-.09,1.22-1.17,1.13-1.31-.23-.19-.75,.37-.99,.66h0Z"/><path class="cls-11" d="M20.1,42.71c0,.89,.19,.89,.52,.23,.19-.23,.19-1.31,.05-1.31-.19-.05-.56,.7-.56,1.08h0Z"/><polygon class="cls-9" points="19.82 33.38 19.16 33.38 19.16 33.94 18.55 33.94 18.55 34.51 16.01 34.51 15.59 35.07 15.83 35.35 16.86 35.35 17.09 35.07 16.01 35.07 16.25 34.79 17.7 34.79 17.09 35.63 15.59 35.63 15.17 35.35 14.75 35.63 13.29 35.63 12.68 34.79 14.13 34.79 14.32 35.07 13.29 35.07 13.52 35.35 14.56 35.35 14.75 35.07 14.32 34.51 12.02 34.51 12.02 33.94 11.41 33.94 11.41 33.38 10.8 33.38 10.8 30.8 11.41 30.8 11.41 30.24 12.02 30.24 12.02 29.68 14.32 29.68 14.75 29.11 14.56 28.83 13.52 28.83 13.29 29.11 14.32 29.11 14.13 29.4 12.68 29.4 13.29 28.55 14.75 28.55 15.17 28.83 15.59 28.55 17.09 28.55 17.7 29.4 16.25 29.4 16.01 29.11 17.09 29.11 16.86 28.83 15.83 28.83 15.59 29.11 16.01 29.68 18.55 29.68 18.55 30.24 19.16 30.24 19.16 30.8 19.82 30.8 19.82 33.38"/><polygon class="cls-2" points="19.82 33.38 19.16 33.38 19.16 33.94 18.55 33.94 18.55 34.51 16.01 34.51 15.59 35.07 15.83 35.35 16.86 35.35 17.09 35.07 16.01 35.07 16.25 34.79 17.7 34.79 17.09 35.63 15.59 35.63 15.17 35.35 14.75 35.63 13.29 35.63 12.68 34.79 14.13 34.79 14.32 35.07 13.29 35.07 13.52 35.35 14.56 35.35 14.75 35.07 14.32 34.51 12.02 34.51 12.02 33.94 11.41 33.94 11.41 33.38 10.8 33.38 10.8 30.8 11.41 30.8 11.41 30.24 12.02 30.24 12.02 29.68 14.32 29.68 14.75 29.11 14.56 28.83 13.52 28.83 13.29 29.11 14.32 29.11 14.13 29.4 12.68 29.4 13.29 28.55 14.75 28.55 15.17 28.83 15.59 28.55 17.09 28.55 17.7 29.4 16.25 29.4 16.01 29.11 17.09 29.11 16.86 28.83 15.83 28.83 15.59 29.11 16.01 29.68 18.55 29.68 18.55 30.24 19.16 30.24 19.16 30.8 19.82 30.8 19.82 33.38"/><polygon class="cls-13" points="10.99 31.13 10.99 33.1 11.6 33.1 11.6 33.66 12.26 33.66 12.26 34.22 14.32 34.22 15.17 35.07 16.01 34.22 18.31 34.22 18.31 33.66 18.97 33.66 18.97 33.1 19.58 33.1 19.58 31.08 18.97 31.08 18.97 30.52 18.31 30.57 18.31 29.96 16.01 29.96 15.17 29.11 14.32 29.96 12.26 29.96 12.26 30.57 11.6 30.57 11.6 31.13 10.99 31.13"/><path class="cls-10" d="M11.13,33.1h-.28v-1.97h.28v1.97Zm-.14,.14h-.14v-.14h.14v.14Zm0-.28h.61v.28h-.61v-.28Zm.61,0h.14v.14h-.14v-.14Zm.14,.7h-.28v-.56h.28v.56Zm-.14,.14h-.14v-.14h.14v.14Zm0-.28h.66v.28h-.66v-.28Zm.66,0h.14v.14h-.14v-.14Zm.14,.7h-.28v-.56h.28v.56Zm-.14,.14h-.14v-.14h.14v.14Zm0-.28h2.07v.28h-2.07v-.28Zm2.07,0h.14l-.14,.14v-.14Zm.14,0l.8,.84-.19,.23-.84-.84,.23-.23Zm.8,1.08l-.09,.09-.09-.09,.09-.09,.09,.09Zm-.19-.23l.85-.84,.19,.23-.84,.84-.19-.23Zm.85-.84h.09v.14l-.09-.14Zm.09,0h2.3v.28h-2.3v-.28Zm2.44,.28h-.14v-.14h.14v.14Zm-.28-.7h.28v.56h-.28v-.56Zm0-.14h.14v.14h-.14v-.14Zm.14,0h.66v.28h-.66v-.28Zm.8,.28h-.14v-.14h.14v.14Zm-.28-.7h.28v.56h-.28v-.56Zm0-.14h.14v.14h-.14v-.14Zm.14,0h.61v.28h-.61v-.28Zm.75,.28h-.14v-.14h.14v.14Zm-.28-2.16h.28v2.02h-.28v-2.02Zm.14-.14h.14v.14h-.14v-.14Zm0,.28h-.61v-.28h.61v.28Zm-.61,0h-.14v-.14h.14v.14Zm-.14-.7h.28v.56h-.28v-.56Zm.14-.14h.14v.14h-.14v-.14Zm0,.28l-.66,.05v-.28l.66-.05v.28Zm-.66,.05h-.14v-.14h.14v.14Zm-.14-.75h.28v.61h-.28v-.61Zm.14-.14h.14v.14h-.14v-.14Zm0,.28h-2.3v-.28h2.3v.28Zm-2.3,0h-.09l.09-.14v.14Zm-.09,0l-.85-.84,.19-.23,.84,.84-.19,.23Zm-.85-1.08l.09-.09,.09,.09-.09,.09-.09-.09Zm.19,.23l-.8,.84-.23-.23,.84-.84,.19,.23Zm-.8,.84h-.14v-.14l.14,.14Zm-.14,0h-2.07v-.28h2.07v.28Zm-2.21-.28h.14v.14h-.14v-.14Zm.28,.75h-.28v-.61h.28v.61Zm0,.14h-.14v-.14h.14v.14Zm-.14,0h-.66v-.28h.66v.28Zm-.8-.28h.14v.14h-.14v-.14Zm.28,.7h-.28v-.56h.28v.56Zm0,.14h-.14v-.14h.14v.14Zm-.14,0h-.61v-.28h.61v.28Zm-.75-.28h.14v.14h-.14v-.14Z"/><polygon class="cls-9" points="13.95 30.24 12.68 31.65 12.68 30.24 13.95 30.24"/><polygon class="cls-9" points="16.44 30.24 17.7 31.65 17.7 30.24 16.44 30.24"/><polygon class="cls-9" points="13.95 33.94 12.68 32.54 12.68 33.94 13.95 33.94"/><polygon class="cls-9" points="16.44 33.94 17.7 32.54 17.7 33.94 16.44 33.94"/><polygon class="cls-9" points="16.86 31.08 16.44 31.65 17.28 31.65 16.86 31.08"/><polygon class="cls-9" points="13.52 31.08 13.1 31.65 13.95 31.65 13.52 31.08"/><polygon class="cls-9" points="13.52 33.1 13.1 32.54 13.95 32.54 13.52 33.1"/><polygon class="cls-9" points="16.86 33.1 16.44 32.54 17.28 32.54 16.86 33.1"/><polygon class="cls-11" points="15.17 34.51 14.75 33.94 15.59 33.94 15.17 34.51"/><polygon class="cls-11" points="15.17 31.65 14.75 31.08 15.59 31.08 15.17 31.65"/><polygon class="cls-11" points="15.17 29.68 14.75 30.24 15.59 30.24 15.17 29.68"/><polygon class="cls-11" points="15.17 32.54 14.75 33.1 15.59 33.1 15.17 32.54"/><rect class="cls-10" x="16.44" y="31.65" width=".84" height=".28"/><rect class="cls-2" x="16.44" y="31.65" width=".84" height=".28"/><rect class="cls-4" x="13.29" y="31.93" width=".42" height=".33"/><rect class="cls-2" x="13.29" y="31.93" width=".42" height=".33"/><rect class="cls-4" x="16.67" y="31.93" width=".42" height=".33"/><rect class="cls-2" x="16.67" y="31.93" width=".42" height=".33"/><rect class="cls-6" x="14.75" y="30.24" width=".84" height=".28"/><rect class="cls-2" x="14.75" y="30.24" width=".84" height=".28"/><rect class="cls-6" x="14.75" y="30.8" width=".84" height=".28"/><rect class="cls-2" x="14.75" y="30.8" width=".84" height=".28"/><rect class="cls-6" x="14.56" y="30.52" width="1.27" height=".28"/><rect class="cls-2" x="14.56" y="30.52" width="1.27" height=".28"/><rect class="cls-6" x="14.75" y="33.1" width=".84" height=".28"/><rect class="cls-2" x="14.75" y="33.1" width=".84" height=".28"/><rect class="cls-6" x="14.75" y="33.66" width=".84" height=".28"/><rect class="cls-2" x="14.75" y="33.66" width=".84" height=".28"/><rect class="cls-6" x="14.56" y="33.38" width="1.27" height=".28"/><rect class="cls-2" x="14.56" y="33.38" width="1.27" height=".28"/><rect class="cls-10" x="16.44" y="32.26" width=".84" height=".28"/><rect class="cls-2" x="16.44" y="32.26" width=".84" height=".28"/><rect class="cls-10" x="13.1" y="31.65" width=".84" height=".28"/><rect class="cls-2" x="13.1" y="31.65" width=".84" height=".28"/><rect class="cls-10" x="13.1" y="32.26" width=".84" height=".28"/><rect class="cls-2" x="13.1" y="32.26" width=".84" height=".28"/><rect class="cls-10" x="12.87" y="31.93" width=".42" height=".33"/><rect class="cls-2" x="12.87" y="31.93" width=".42" height=".33"/><rect class="cls-10" x="13.71" y="31.93" width=".42" height=".33"/><rect class="cls-2" x="13.71" y="31.93" width=".42" height=".33"/><rect class="cls-10" x="16.25" y="31.93" width=".42" height=".33"/><rect class="cls-2" x="16.25" y="31.93" width=".42" height=".33"/><rect class="cls-10" x="17.09" y="31.93" width=".38" height=".33"/><rect class="cls-2" x="17.09" y="31.93" width=".38" height=".33"/><path class="cls-16" d="M14.7,33.52s0,.05-.05,.05l-.05-.05s.05-.09,.05-.09c.05,0,.05,.05,.05,.09h0Z"/><path class="cls-16" d="M15.26,33.52s-.05,.05-.09,.05l-.05-.05s.05-.09,.05-.09c.05,0,.09,.05,.09,.09h0Z"/><path class="cls-16" d="M15.78,33.47s-.05,.09-.05,.09c-.05,0-.09-.05-.09-.09,0,0,.05-.05,.09-.05l.05,.05Z"/><path class="cls-16" d="M14.93,33.24l-.05,.05s-.05-.05-.05-.05c0-.05,0-.09,.05-.09,0,0,.05,.05,.05,.09h0Z"/><path class="cls-16" d="M15.54,33.19s0,.09-.05,.09-.05-.05-.05-.09c0,0,0-.05,.05-.05s.05,.05,.05,.05h0Z"/><path class="cls-16" d="M14.93,33.76s-.05,.09-.05,.09c-.05,0-.05-.05-.05-.09,0,0,0-.05,.05-.05l.05,.05Z"/><path class="cls-16" d="M15.54,33.8s0,.05-.05,.05-.05,0-.05-.05,0-.09,.05-.09,.05,.05,.05,.09h0Z"/><path class="cls-16" d="M16.39,32.07s-.05,.09-.05,.09c-.05,0-.05-.05-.05-.09s0-.05,.05-.05c0,0,.05,0,.05,.05h0Z"/><path class="cls-16" d="M16.91,32.07s0,.09-.05,.09-.05-.05-.05-.09,0-.05,.05-.05,.05,0,.05,.05h0Z"/><path class="cls-16" d="M17.42,32.07s0,.09-.05,.09-.05-.05-.05-.09,0-.05,.05-.05,.05,0,.05,.05h0Z"/><path class="cls-16" d="M16.58,31.79s0,.09-.05,.09c0,0-.05-.05-.05-.09s.05-.05,.05-.05t.05,.05h0Z"/><path class="cls-16" d="M17.23,31.79s-.05,.09-.05,.09c-.05,0-.09-.05-.09-.09s.05-.05,.09-.05c0,0,.05,0,.05,.05h0Z"/><path class="cls-16" d="M16.58,32.35s0,.09-.05,.09c0,0-.05-.05-.05-.09s.05-.05,.05-.05t.05,.05h0Z"/><path class="cls-16" d="M17.23,32.35s-.05,.09-.05,.09c-.05,0-.09-.05-.09-.09,0,0,.05-.05,.09-.05l.05,.05Z"/><path class="cls-16" d="M14.7,30.66s0,.09-.05,.09c0,0-.05-.05-.05-.09l.05-.05s.05,.05,.05,.05h0Z"/><path class="cls-16" d="M15.21,30.66s0,.09-.05,.09c0,0-.05-.05-.05-.09l.05-.05s.05,.05,.05,.05h0Z"/><path class="cls-16" d="M15.78,30.66s-.05,.09-.09,.09c0,0-.05-.05-.05-.09s.05-.05,.05-.05c.05,0,.09,0,.09,.05h0Z"/><path class="cls-16" d="M14.93,30.38s-.05,.09-.05,.09c-.05,0-.05-.05-.05-.09,0,0,0-.05,.05-.05l.05,.05Z"/><path class="cls-16" d="M15.54,30.38s0,.09-.05,.09-.05-.05-.05-.09,0-.05,.05-.05,.05,0,.05,.05h0Z"/><path class="cls-16" d="M14.93,30.94s-.05,.09-.05,.09c-.05,0-.09-.05-.09-.09s.05-.05,.09-.05c0,0,.05,0,.05,.05h0Z"/><path class="cls-16" d="M15.54,30.99s0,.05-.05,.05-.05-.05-.05-.05c0-.05,0-.09,.05-.09s.05,.05,.05,.09h0Z"/><path class="cls-16" d="M13.05,32.11s-.05,.05-.05,.05c-.05,0-.09,0-.09-.05s.05-.09,.09-.09c0,0,.05,.05,.05,.09h0Z"/><path class="cls-16" d="M13.57,32.11s-.05,.05-.05,.05t-.05-.05s0-.09,.05-.09c0,0,.05,.05,.05,.09h0Z"/><path class="cls-16" d="M14.09,32.11l-.05,.05s-.05-.05-.05-.05c0-.05,0-.09,.05-.09,0,0,.05,.05,.05,.09h0Z"/><path class="cls-16" d="M13.24,31.83s0,.05-.05,.05-.05,0-.05-.05,0-.09,.05-.09,.05,.05,.05,.09h0Z"/><path class="cls-16" d="M13.85,31.83s0,.05-.05,.05l-.05-.05s.05-.09,.05-.09c.05,0,.05,.05,.05,.09h0Z"/><path class="cls-16" d="M13.24,32.4s0,.05-.05,.05-.05-.05-.05-.05c0-.05,0-.09,.05-.09s.05,.05,.05,.09h0Z"/><path class="cls-16" d="M13.85,32.4s0,.05-.05,.05c0,0-.05,0-.05-.05s.05-.09,.05-.09c.05,0,.05,.05,.05,.09h0Z"/><polygon class="cls-16" points="16.01 25.93 16.39 25.74 16.72 25.93 16.01 25.93"/><polygon class="cls-16" points="14.93 25.93 15.31 25.74 15.64 25.93 14.93 25.93"/><polygon class="cls-16" points="13.85 25.93 14.23 25.74 14.56 25.93 13.85 25.93"/><polygon class="cls-16" points="16.01 21 16.39 21.19 16.72 21 16.01 21"/><polygon class="cls-16" points="14.93 21 15.31 21.19 15.64 21 14.93 21"/><polygon class="cls-16" points="13.85 21 14.23 21.19 14.56 21 13.85 21"/><polygon class="cls-13" points="15.73 25.83 15.31 26.21 14.89 25.83 14.46 26.21 14.04 25.83 14.04 26.02 14.32 26.21 14.18 26.35 14.18 26.54 14.32 26.54 14.46 26.35 14.6 26.54 14.75 26.54 14.75 26.35 14.6 26.21 14.89 26.02 15.17 26.21 15.03 26.35 15.03 26.54 15.17 26.54 15.31 26.35 15.45 26.54 15.59 26.54 15.59 26.35 15.45 26.21 15.73 26.02 16.01 26.21 15.87 26.35 15.87 26.54 16.01 26.54 16.11 26.35 16.25 26.54 16.39 26.54 16.39 26.35 16.25 26.21 16.53 26.02 16.53 25.83 16.11 26.21 15.73 25.83"/><polygon class="cls-13" points="15.73 20.96 15.31 20.63 14.89 20.96 14.46 20.63 14.04 20.96 14.04 20.82 14.32 20.63 14.18 20.49 14.18 20.3 14.32 20.3 14.46 20.49 14.6 20.3 14.75 20.3 14.75 20.49 14.6 20.63 14.89 20.82 15.17 20.63 15.03 20.49 15.03 20.3 15.17 20.3 15.31 20.49 15.45 20.3 15.59 20.3 15.59 20.49 15.45 20.63 15.73 20.82 16.01 20.63 15.87 20.49 15.87 20.3 16.01 20.3 16.11 20.49 16.25 20.3 16.39 20.3 16.39 20.49 16.25 20.63 16.53 20.82 16.53 20.96 16.11 20.63 15.73 20.96"/><polygon class="cls-13" points="18.88 23.77 19.35 23.39 18.88 23.07 19.35 22.69 18.88 22.32 19.11 22.32 19.35 22.55 19.58 22.46 19.82 22.46 19.82 22.55 19.58 22.69 19.82 22.79 19.82 22.93 19.58 22.93 19.35 22.79 19.11 23.07 19.35 23.3 19.58 23.16 19.82 23.16 19.82 23.3 19.58 23.39 19.82 23.54 19.82 23.68 19.58 23.68 19.35 23.54 19.11 23.77 19.35 24 19.58 23.91 19.82 23.91 19.82 24 19.58 24.14 19.82 24.29 19.82 24.38 19.58 24.38 19.35 24.29 19.11 24.52 18.88 24.52 19.35 24.14 18.88 23.77"/><polygon class="cls-13" points="11.69 23.77 11.22 23.39 11.69 23.07 11.22 22.69 11.69 22.32 11.46 22.32 11.22 22.55 10.99 22.46 10.8 22.46 10.8 22.55 10.99 22.69 10.8 22.79 10.8 22.93 10.99 22.93 11.22 22.79 11.46 23.07 11.22 23.3 10.99 23.16 10.8 23.16 10.8 23.3 10.99 23.39 10.8 23.54 10.8 23.68 10.99 23.68 11.22 23.54 11.46 23.77 11.22 24 10.99 23.91 10.8 23.91 10.8 24 10.99 24.14 10.8 24.29 10.8 24.38 10.99 24.38 11.22 24.29 11.46 24.52 11.69 24.52 11.22 24.14 11.69 23.77"/><rect class="cls-12" x="19.06" y="24.99" width=".19" height=".19"/><rect class="cls-2" x="19.06" y="24.99" width=".19" height=".19"/><rect class="cls-12" x="18.88" y="25.18" width=".19" height=".19"/><rect class="cls-2" x="18.88" y="25.18" width=".19" height=".19"/><rect class="cls-12" x="17.98" y="26.02" width=".19" height=".19"/><rect class="cls-2" x="17.98" y="26.02" width=".19" height=".19"/><rect class="cls-12" x="18.17" y="25.83" width=".19" height=".19"/><rect class="cls-2" x="18.17" y="25.83" width=".19" height=".19"/><rect class="cls-12" x="12.21" y="25.83" width=".19" height=".19"/><rect class="cls-2" x="12.21" y="25.83" width=".19" height=".19"/><rect class="cls-12" x="11.32" y="24.99" width=".19" height=".19"/><rect class="cls-2" x="11.32" y="24.99" width=".19" height=".19"/><rect class="cls-12" x="11.5" y="25.18" width=".19" height=".19"/><rect class="cls-2" x="11.5" y="25.18" width=".19" height=".19"/><rect class="cls-12" x="11.5" y="21.47" width=".19" height=".19"/><rect class="cls-2" x="11.5" y="21.47" width=".19" height=".19"/><rect class="cls-12" x="11.32" y="21.66" width=".19" height=".14"/><rect class="cls-2" x="11.32" y="21.66" width=".19" height=".14"/><rect class="cls-12" x="12.4" y="20.63" width=".19" height=".19"/><rect class="cls-2" x="12.4" y="20.63" width=".19" height=".19"/><rect class="cls-12" x="12.21" y="20.82" width=".19" height=".14"/><rect class="cls-2" x="12.21" y="20.82" width=".19" height=".14"/><rect class="cls-12" x="17.98" y="20.63" width=".19" height=".19"/><rect class="cls-2" x="17.98" y="20.63" width=".19" height=".19"/><rect class="cls-12" x="18.17" y="20.82" width=".19" height=".14"/><rect class="cls-2" x="18.17" y="20.82" width=".19" height=".14"/><rect class="cls-12" x="18.88" y="21.47" width=".19" height=".19"/><rect class="cls-2" x="18.88" y="21.47" width=".19" height=".19"/><rect class="cls-12" x="19.06" y="21.66" width=".19" height=".14"/><rect class="cls-2" x="19.06" y="21.66" width=".19" height=".14"/><rect class="cls-12" x="12.4" y="26.02" width=".19" height=".19"/><rect class="cls-2" x="12.4" y="26.02" width=".19" height=".19"/><path class="cls-16" d="M14.75,23.39h-.52v-.33h.33v-.28h.38v-.28h.33v.33c-.28,0-.52,.23-.52,.56h0Z"/><path class="cls-11" d="M15.78,23.39h.56v-.33h-.38v-.28h-.33v-.28h-.38v.33c.28,0,.52,.23,.52,.56h0Z"/><path class="cls-16" d="M15.78,23.39h.56v.33h-.38v.33h-.33v.28h-.38v-.33c.28,0,.52-.28,.52-.61h0Z"/><path class="cls-11" d="M14.75,23.39h-.52v.33h.33v.33h.38v.28h.33v-.33c-.28,0-.52-.28-.52-.61h0Z"/><path class="cls-13" d="M15.78,23.39h-.52v-.56c.28,0,.52,.28,.52,.56h0Z"/><path class="cls-9" d="M15.78,23.39h-.52v.61c.28,0,.52-.28,.52-.61h0Z"/><path class="cls-13" d="M14.75,23.39h.52v.61c-.28,0-.52-.28-.52-.61h0Z"/><path class="cls-9" d="M14.75,23.39h.52v-.56c-.28,0-.52,.28-.52,.56h0Z"/><polygon class="cls-13" points="15.83 25.5 15.31 25.18 14.75 25.5 14.23 25.18 13.66 25.5 13.66 25.36 14.04 25.18 13.85 24.99 13.85 24.85 14.04 24.85 14.23 24.99 14.37 24.85 14.56 24.85 14.56 24.99 14.37 25.18 14.75 25.36 15.12 25.18 14.93 24.99 14.93 24.85 15.12 24.85 15.31 24.99 15.45 24.85 15.64 24.85 15.64 24.99 15.45 25.18 15.83 25.36 16.2 25.18 16.01 24.99 16.01 24.85 16.2 24.85 16.39 24.99 16.53 24.85 16.72 24.85 16.72 24.99 16.53 25.18 16.9 25.36 16.9 25.5 16.39 25.18 15.83 25.5"/><polygon class="cls-13" points="15.83 21.33 15.31 21.66 14.75 21.33 14.23 21.66 13.66 21.33 13.66 21.47 14.04 21.66 13.85 21.8 13.85 21.99 14.04 21.99 14.23 21.8 14.37 21.99 14.56 21.99 14.56 21.8 14.37 21.66 14.75 21.47 15.12 21.66 14.93 21.8 14.93 21.99 15.12 21.99 15.31 21.8 15.45 21.99 15.64 21.99 15.64 21.8 15.45 21.66 15.83 21.47 16.2 21.66 16.01 21.8 16.01 21.99 16.2 21.99 16.39 21.8 16.53 21.99 16.72 21.99 16.72 21.8 16.53 21.66 16.9 21.47 16.9 21.33 16.39 21.66 15.83 21.33"/><polygon class="cls-13" points="17.8 23.82 17.56 23.39 17.8 22.97 17.56 22.55 17.8 22.18 17.66 22.18 17.56 22.46 17.42 22.32 17.28 22.32 17.28 22.46 17.42 22.55 17.28 22.69 17.28 22.83 17.42 22.83 17.56 22.69 17.66 22.97 17.56 23.25 17.42 23.11 17.28 23.11 17.28 23.25 17.42 23.39 17.28 23.54 17.28 23.68 17.42 23.68 17.56 23.54 17.66 23.82 17.56 24.1 17.42 23.96 17.28 23.96 17.28 24.1 17.42 24.24 17.28 24.38 17.28 24.52 17.42 24.52 17.56 24.38 17.66 24.66 17.8 24.66 17.56 24.24 17.8 23.82"/><path class="cls-13" d="M13.66,21.47l-.7,.7v2.48l.7,.7h3.24l.7-.7v-2.48l-.7-.7h-3.24Zm-.19-.52l-1.78,1.69v1.55l1.78,1.64h3.62l1.78-1.64v-1.55l-1.78-1.69h-3.62Z"/><path class="cls-2" d="M13.66,21.47l-.7,.7v2.48l.7,.7h3.24l.7-.7v-2.48l-.7-.7h-3.24Zm-.19-.52l-1.78,1.69v1.55l1.78,1.64h3.62l1.78-1.64v-1.55l-1.78-1.69h-3.62Z"/><polygon class="cls-11" points="14.42 25.5 14.7 25.83 14.98 25.5 14.42 25.5"/><polygon class="cls-2" points="14.42 25.5 14.7 25.83 14.98 25.5 14.42 25.5"/><polygon class="cls-11" points="14.42 21.33 14.7 20.96 14.98 21.33 14.42 21.33"/><polygon class="cls-2" points="14.42 21.33 14.7 20.96 14.98 21.33 14.42 21.33"/><polygon class="cls-11" points="15.59 21.33 15.87 20.96 16.15 21.33 15.59 21.33"/><polygon class="cls-2" points="15.59 21.33 15.87 20.96 16.15 21.33 15.59 21.33"/><polygon class="cls-11" points="15.59 25.5 15.87 25.83 16.15 25.5 15.59 25.5"/><polygon class="cls-2" points="15.59 25.5 15.87 25.83 16.15 25.5 15.59 25.5"/><polygon class="cls-9" points="13.85 21.33 14.13 20.96 14.42 21.33 13.85 21.33"/><polygon class="cls-2" points="13.85 21.33 14.13 20.96 14.42 21.33 13.85 21.33"/><polygon class="cls-9" points="14.98 21.33 15.31 20.96 15.59 21.33 14.98 21.33"/><polygon class="cls-2" points="14.98 21.33 15.31 20.96 15.59 21.33 14.98 21.33"/><polygon class="cls-9" points="16.15 21.33 16.44 20.96 16.72 21.33 16.15 21.33"/><polygon class="cls-2" points="16.15 21.33 16.44 20.96 16.72 21.33 16.15 21.33"/><polygon class="cls-9" points="13.15 24.99 13.66 25.5 13.15 25.5 13.15 24.99"/><polygon class="cls-2" points="13.15 24.99 13.66 25.5 13.15 25.5 13.15 24.99"/><polygon class="cls-13" points="12.77 23.82 13.05 23.39 12.77 22.97 13.05 22.55 12.77 22.18 12.91 22.18 13.05 22.46 13.15 22.32 13.29 22.32 13.29 22.46 13.15 22.55 13.29 22.69 13.29 22.83 13.15 22.83 13.05 22.69 12.91 22.97 13.05 23.25 13.15 23.11 13.29 23.11 13.29 23.25 13.15 23.39 13.29 23.54 13.29 23.68 13.15 23.68 13.05 23.54 12.91 23.82 13.05 24.1 13.15 23.96 13.29 23.96 13.29 24.1 13.15 24.24 13.29 24.38 13.29 24.52 13.15 24.52 13.05 24.38 12.91 24.66 12.77 24.66 13.05 24.24 12.77 23.82"/><polygon class="cls-9" points="17.98 22.97 18.74 22.97 18.88 23.11 18.74 23.25 17.98 23.25 17.98 22.97"/><polygon class="cls-2" points="17.98 22.97 18.74 22.97 18.88 23.11 18.74 23.25 17.98 23.25 17.98 22.97"/><polygon class="cls-9" points="13.15 21.8 12.77 22.18 12.77 24.66 13.15 24.99 12.59 24.99 12.59 21.8 13.15 21.8"/><polygon class="cls-2" points="13.15 21.8 12.77 22.18 12.77 24.66 13.15 24.99 12.59 24.99 12.59 21.8 13.15 21.8"/><polygon class="cls-9" points="13.85 25.5 14.13 25.83 14.42 25.5 13.85 25.5"/><polygon class="cls-2" points="13.85 25.5 14.13 25.83 14.42 25.5 13.85 25.5"/><polygon class="cls-9" points="14.98 25.5 15.31 25.83 15.59 25.5 14.98 25.5"/><polygon class="cls-2" points="14.98 25.5 15.31 25.83 15.59 25.5 14.98 25.5"/><polygon class="cls-9" points="16.15 25.5 16.44 25.83 16.72 25.5 16.15 25.5"/><polygon class="cls-2" points="16.15 25.5 16.44 25.83 16.72 25.5 16.15 25.5"/><polygon class="cls-9" points="17.47 21.8 17.8 22.18 17.8 24.66 17.47 24.99 17.98 24.99 17.98 21.8 17.47 21.8"/><polygon class="cls-2" points="17.47 21.8 17.8 22.18 17.8 24.66 17.47 24.99 17.98 24.99 17.98 21.8 17.47 21.8"/><polygon class="cls-9" points="17.47 24.99 16.9 25.5 17.47 25.5 17.47 24.99"/><polygon class="cls-2" points="17.47 24.99 16.9 25.5 17.47 25.5 17.47 24.99"/><polygon class="cls-9" points="17.47 21.8 16.9 21.33 17.47 21.33 17.47 21.8"/><polygon class="cls-2" points="17.47 21.8 16.9 21.33 17.47 21.33 17.47 21.8"/><polygon class="cls-9" points="13.15 21.8 13.66 21.33 13.15 21.33 13.15 21.8"/><polygon class="cls-2" points="13.15 21.8 13.66 21.33 13.15 21.33 13.15 21.8"/><path class="cls-13" d="M13.66,21.47l-.7,.7v2.48l.7,.7h3.24l.7-.7v-2.48l-.7-.7h-3.24Zm0-.14l-.89,.84v2.48l.89,.84h3.24l.89-.84v-2.48l-.89-.84h-3.24Z"/><path class="cls-2" d="M13.66,21.47l-.7,.7v2.48l.7,.7h3.24l.7-.7v-2.48l-.7-.7h-3.24Zm0-.14l-.89,.84v2.48l.89,.84h3.24l.89-.84v-2.48l-.89-.84h-3.24Z"/><polygon class="cls-11" points="17.98 23.25 18.74 23.25 18.88 23.39 18.74 23.58 17.98 23.58 17.98 23.25"/><polygon class="cls-2" points="17.98 23.25 18.74 23.25 18.88 23.39 18.74 23.58 17.98 23.58 17.98 23.25"/><polygon class="cls-9" points="17.98 23.58 18.74 23.58 18.88 23.72 18.74 23.86 17.98 23.86 17.98 23.58"/><polygon class="cls-2" points="17.98 23.58 18.74 23.58 18.88 23.72 18.74 23.86 17.98 23.86 17.98 23.58"/><polygon class="cls-11" points="17.98 23.86 18.74 23.86 18.88 24 18.74 24.19 17.98 24.19 17.98 23.86"/><polygon class="cls-2" points="17.98 23.86 18.74 23.86 18.88 24 18.74 24.19 17.98 24.19 17.98 23.86"/><polygon class="cls-11" points="17.98 22.64 18.74 22.64 18.88 22.83 18.74 22.97 17.98 22.97 17.98 22.64"/><polygon class="cls-2" points="17.98 22.64 18.74 22.64 18.88 22.83 18.74 22.97 17.98 22.97 17.98 22.64"/><polygon class="cls-9" points="12.59 22.97 11.88 22.97 11.69 23.11 11.88 23.25 12.59 23.25 12.59 22.97"/><polygon class="cls-2" points="12.59 22.97 11.88 22.97 11.69 23.11 11.88 23.25 12.59 23.25 12.59 22.97"/><polygon class="cls-11" points="12.59 23.25 11.88 23.25 11.69 23.39 11.88 23.58 12.59 23.58 12.59 23.25"/><polygon class="cls-2" points="12.59 23.25 11.88 23.25 11.69 23.39 11.88 23.58 12.59 23.58 12.59 23.25"/><polygon class="cls-9" points="12.59 23.58 11.88 23.58 11.69 23.72 11.88 23.86 12.59 23.86 12.59 23.58"/><polygon class="cls-2" points="12.59 23.58 11.88 23.58 11.69 23.72 11.88 23.86 12.59 23.86 12.59 23.58"/><polygon class="cls-11" points="12.59 23.86 11.88 23.86 11.69 24 11.88 24.19 12.59 24.19 12.59 23.86"/><polygon class="cls-2" points="12.59 23.86 11.88 23.86 11.69 24 11.88 24.19 12.59 24.19 12.59 23.86"/><polygon class="cls-11" points="12.59 22.64 11.88 22.64 11.69 22.83 11.88 22.97 12.59 22.97 12.59 22.64"/><polygon class="cls-2" points="12.59 22.64 11.88 22.64 11.69 22.83 11.88 22.97 12.59 22.97 12.59 22.64"/><path class="cls-15" d="M11.5,21.66v3.52h.89v.84h5.78v-.84h.89v-3.52h-.89v-.84h-5.78v.84h-.89Zm.19,.14v3.19h.89v.84h5.4v-.84h.89v-3.19h-.89v-.84h-5.4v.84h-.89Z"/><path class="cls-2" d="M11.5,21.66v3.52h.89v.84h5.78v-.84h.89v-3.52h-.89v-.84h-5.78v.84h-.89Zm.19,.14v3.19h.89v.84h5.4v-.84h.89v-3.19h-.89v-.84h-5.4v.84h-.89Z"/><polygon class="cls-9" points="19.82 4.41 19.25 3.56 19.25 2.95 18.74 2.3 17.61 2.3 16.72 1.69 13.85 1.69 12.96 2.3 11.88 2.3 11.32 2.95 11.32 3.56 10.8 4.41 10.8 6.05 11.32 6.89 11.32 7.5 11.88 8.11 12.96 8.11 13.85 8.72 16.72 8.72 17.61 8.11 18.74 8.11 19.25 7.5 19.25 6.89 19.82 6.05 19.82 4.41"/><polygon class="cls-2" points="19.82 4.41 19.25 3.56 19.25 2.95 18.74 2.3 17.61 2.3 16.72 1.69 13.85 1.69 12.96 2.3 11.88 2.3 11.32 2.95 11.32 3.56 10.8 4.41 10.8 6.05 11.32 6.89 11.32 7.5 11.88 8.11 12.96 8.11 13.85 8.72 16.72 8.72 17.61 8.11 18.74 8.11 19.25 7.5 19.25 6.89 19.82 6.05 19.82 4.41"/><polygon class="cls-11" points="10.94 5.2 10.94 5.81 11.5 6.66 11.5 7.27 12.02 7.92 13.15 7.92 14.04 8.53 15.31 8.53 15.31 5.2 10.94 5.2"/><polygon class="cls-9" points="13.76 6.66 13.1 7.17 12.73 7.17 12.87 7.36 12.59 7.74 12.73 7.92 13.1 7.74 13.24 7.92 13.29 7.45 14.04 6.89 13.76 6.66"/><polygon class="cls-9" points="13.05 6.24 12.4 6.8 11.97 6.8 12.12 6.94 11.88 7.31 11.97 7.5 12.4 7.31 12.54 7.5 12.59 7.03 13.29 6.47 13.05 6.24"/><polygon class="cls-9" points="12.68 5.44 12.02 5.95 11.65 5.95 11.79 6.14 11.5 6.47 11.65 6.66 12.02 6.47 12.16 6.66 12.21 6.19 12.96 5.62 12.68 5.44"/><polygon class="cls-11" points="19.63 5.2 19.63 4.59 19.06 3.75 19.06 3.14 18.55 2.53 17.47 2.53 16.53 1.87 15.31 1.87 15.31 5.2 19.63 5.2"/><polygon class="cls-9" points="15.31 8.53 14.93 8.53 14.56 8.11 13.95 8.11 13.62 7.92 13.81 7.69 14.13 7.92 14.46 7.92 14.79 7.27 15.31 7.5 15.31 7.92 14.79 7.92 15.31 8.53"/><polygon class="cls-16" points="10.94 5.2 10.94 4.59 11.5 3.75 11.5 3.14 12.02 2.53 13.15 2.53 14.04 1.87 15.31 1.87 15.31 5.2 10.94 5.2"/><polygon class="cls-9" points="15.31 1.87 14.93 1.87 14.56 2.3 13.95 2.3 13.62 2.53 13.81 2.72 14.13 2.53 14.46 2.53 14.79 3.14 15.31 2.95 15.31 2.53 14.79 2.53 15.31 1.87"/><polygon class="cls-9" points="15.31 1.87 15.64 1.87 16.01 2.3 16.62 2.3 16.95 2.53 16.81 2.72 16.44 2.53 16.11 2.53 15.78 3.14 15.31 2.95 15.31 2.53 15.78 2.53 15.31 1.87"/><polygon class="cls-16" points="19.63 5.2 19.63 5.81 19.06 6.66 19.06 7.27 18.55 7.92 17.47 7.92 16.53 8.53 15.31 8.53 15.31 5.2 19.63 5.2"/><polygon class="cls-9" points="15.31 8.53 15.64 8.53 16.01 8.11 16.62 8.11 16.95 7.92 16.81 7.69 16.44 7.92 16.11 7.92 15.78 7.27 15.31 7.5 15.31 7.92 15.78 7.92 15.31 8.53"/><polygon class="cls-9" points="13.05 4.17 12.4 3.66 11.97 3.66 12.12 3.47 11.88 3.09 11.97 2.95 12.4 3.09 12.54 2.95 12.59 3.42 13.29 3.98 13.05 4.17"/><polygon class="cls-9" points="16.81 3.75 17.47 3.23 17.84 3.23 17.75 3.05 17.98 2.72 17.84 2.53 17.47 2.72 17.33 2.53 17.28 3 16.53 3.56 16.81 3.75"/><polygon class="cls-9" points="13.76 3.75 13.1 3.23 12.73 3.23 12.87 3.05 12.59 2.72 12.73 2.53 13.1 2.72 13.24 2.53 13.29 3 14.04 3.56 13.76 3.75"/><polygon class="cls-9" points="12.68 5.02 12.02 4.45 11.65 4.45 11.79 4.31 11.5 3.94 11.65 3.75 12.02 3.94 12.16 3.75 12.21 4.22 12.96 4.78 12.68 5.02"/><polygon class="cls-16" points="11.27 5.2 11.46 5.2 11.6 5.44 11.79 5.2 15.31 5.2 15.31 8.11 15.12 8.11 15.31 8.3 15.31 8.53 14.79 7.92 14.79 7.69 14.93 7.69 14.93 7.92 15.12 7.92 15.12 7.69 13.76 6.8 12.63 6.8 12.63 5.91 12.12 5.44 11.79 5.44 11.6 5.62 11.79 5.81 11.6 5.81 11.27 5.2"/><polygon class="cls-11" points="11.27 5.2 11.46 5.2 11.6 5.02 11.79 5.2 15.31 5.2 15.31 2.3 15.12 2.3 15.31 2.11 15.31 1.87 14.79 2.53 14.79 2.72 14.93 2.72 14.93 2.53 15.12 2.53 15.12 2.72 13.76 3.66 12.63 3.66 12.63 4.55 12.12 5.02 11.79 5.02 11.6 4.78 11.79 4.59 11.6 4.59 11.27 5.2"/><polygon class="cls-13" points="12.02 5.2 15.31 5.2 15.31 7.69 13.85 6.66 12.77 6.66 12.77 5.81 12.02 5.2"/><polygon class="cls-9" points="17.52 4.17 18.17 3.66 18.6 3.66 18.45 3.47 18.74 3.09 18.6 2.95 18.17 3.09 18.08 2.95 17.98 3.42 17.28 3.98 17.52 4.17"/><polygon class="cls-9" points="17.89 5.02 18.55 4.45 18.92 4.45 18.83 4.31 19.06 3.94 18.92 3.75 18.55 3.94 18.41 3.75 18.36 4.22 17.61 4.78 17.89 5.02"/><polygon class="cls-16" points="19.3 5.2 19.11 5.2 18.97 5.02 18.78 5.2 15.31 5.2 15.31 2.3 15.45 2.3 15.31 2.11 15.31 1.87 15.78 2.53 15.78 2.72 15.64 2.72 15.64 2.53 15.45 2.53 15.45 2.72 16.81 3.66 17.94 3.66 17.94 4.55 18.45 5.02 18.78 5.02 18.97 4.78 18.78 4.59 18.97 4.59 19.3 5.2"/><polygon class="cls-13" points="18.55 5.2 15.31 5.2 15.31 2.72 16.72 3.75 17.8 3.75 17.8 4.59 18.55 5.2"/><polygon class="cls-9" points="16.81 6.66 17.47 7.17 17.84 7.17 17.75 7.36 17.98 7.74 17.84 7.92 17.47 7.74 17.33 7.92 17.28 7.45 16.53 6.89 16.81 6.66"/><polygon class="cls-9" points="17.52 6.24 18.17 6.8 18.6 6.8 18.45 6.94 18.74 7.31 18.6 7.5 18.17 7.31 18.08 7.5 17.98 7.03 17.28 6.47 17.52 6.24"/><polygon class="cls-9" points="17.89 5.44 18.55 5.95 18.92 5.95 18.83 6.14 19.06 6.47 18.92 6.66 18.55 6.47 18.41 6.66 18.36 6.19 17.61 5.62 17.89 5.44"/><polygon class="cls-11" points="19.3 5.2 19.11 5.2 18.97 5.44 18.78 5.2 15.31 5.2 15.31 8.11 15.45 8.11 15.31 8.3 15.31 8.53 15.78 7.92 15.78 7.69 15.64 7.69 15.64 7.92 15.45 7.92 15.45 7.69 16.81 6.8 17.94 6.8 17.94 5.91 18.45 5.44 18.78 5.44 18.97 5.62 18.78 5.81 18.97 5.81 19.3 5.2"/><polygon class="cls-9" points="18.55 5.2 15.31 5.2 15.31 7.69 16.72 6.66 17.8 6.66 17.8 5.81 18.55 5.2"/><polygon class="cls-9" points="12.02 5.2 15.31 5.2 15.31 2.72 13.85 3.75 12.77 3.75 12.77 4.59 12.02 5.2"/><polygon class="cls-9" points="15.64 5.2 16.53 4.59 17.09 4.59 16.9 4.41 17.28 3.98 17.09 3.75 16.53 3.98 16.39 3.75 16.29 4.31 15.31 4.97 15.64 5.2"/><polygon class="cls-9" points="14.93 5.2 14.04 5.81 13.48 5.81 13.66 6.05 13.29 6.47 13.48 6.66 14.04 6.47 14.23 6.66 14.28 6.09 15.31 5.44 14.93 5.2"/><polygon class="cls-13" points="14.93 5.2 14.04 4.59 13.48 4.59 13.66 4.41 13.29 3.98 13.48 3.75 14.04 3.98 14.23 3.75 14.28 4.31 15.31 4.97 14.93 5.2"/><polygon class="cls-13" points="15.64 5.2 16.53 5.81 17.09 5.81 16.9 6.05 17.28 6.47 17.09 6.66 16.53 6.47 16.39 6.66 16.29 6.09 15.31 5.44 15.64 5.2"/><polygon class="cls-16" points="14.23 5.2 15.31 4.17 16.39 5.2 15.31 6.24 14.23 5.2"/><polygon class="cls-9" points="11.79 5.62 11.93 5.81 11.79 6.05 11.6 6.05 11.13 5.2 11.27 5.2 11.6 5.81 11.79 5.81 11.6 5.62 11.79 5.44 12.12 5.44 12.12 5.62 11.79 5.62"/><polygon class="cls-9" points="11.79 4.78 11.93 4.59 11.79 4.41 11.6 4.41 11.13 5.2 11.27 5.2 11.6 4.59 11.79 4.59 11.6 4.78 11.79 5.02 12.12 5.02 12.12 4.78 11.79 4.78"/><polygon class="cls-9" points="18.78 5.62 18.64 5.81 18.78 6.05 18.97 6.05 19.44 5.2 19.3 5.2 18.97 5.81 18.78 5.81 18.97 5.62 18.78 5.44 18.45 5.44 18.45 5.62 18.78 5.62"/><polygon class="cls-9" points="18.78 4.78 18.64 4.59 18.78 4.41 18.97 4.41 19.44 5.2 19.3 5.2 18.97 4.59 18.78 4.59 18.97 4.78 18.78 5.02 18.45 5.02 18.45 4.78 18.78 4.78"/><rect class="cls-8" x="15.12" y="4.41" width=".33" height="1.64"/><rect class="cls-8" x="14.6" y="4.78" width="1.36" height=".84"/><polygon class="cls-13" points="13.81 37.65 10.8 39.38 10.8 42.33 13.81 44.07 16.81 44.07 19.82 42.33 19.82 39.38 16.81 37.65 13.81 37.65"/><polygon class="cls-2" points="13.81 37.65 10.8 39.38 10.8 42.33 13.81 44.07 16.81 44.07 19.82 42.33 19.82 39.38 16.81 37.65 13.81 37.65"/><polygon class="cls-5" points="11.88 40.18 12.07 40.18 12.07 39.76 12.44 39.76 12.44 40.18 12.63 40.18 12.63 39.19 12.44 39.19 12.44 39.62 12.07 39.62 12.07 39.19 11.88 39.19 11.88 40.18"/><polygon class="cls-5" points="16.48 43.51 16.67 43.51 16.67 43.08 17.05 43.08 17.05 43.51 17.23 43.51 17.23 42.52 17.05 42.52 17.05 42.94 16.67 42.94 16.67 42.52 16.48 42.52 16.48 43.51"/><polygon class="cls-5" points="17.94 40.18 18.13 40.18 18.13 39.76 18.5 39.76 18.5 40.18 18.69 40.18 18.69 39.19 18.5 39.19 18.5 39.62 18.13 39.62 18.13 39.19 17.94 39.19 17.94 40.18"/><polygon class="cls-5" points="17.94 41.87 18.13 41.87 18.13 41.44 18.5 41.44 18.5 41.87 18.69 41.87 18.69 40.83 18.5 40.83 18.5 41.3 18.13 41.3 18.13 40.83 17.94 40.83 17.94 41.87"/><polygon class="cls-11" points="15.31 43.93 15.31 40.83 19.63 40.83 19.63 42.24 16.76 43.93 15.31 43.93"/><polygon class="cls-11" points="15.31 37.79 15.31 40.83 10.94 40.83 10.94 39.47 13.85 37.79 15.31 37.79"/><polygon class="cls-16" points="15.31 37.79 15.31 40.83 19.63 40.83 19.63 39.47 16.76 37.79 15.31 37.79"/><polygon class="cls-16" points="15.31 43.93 15.31 40.83 10.94 40.83 10.94 42.24 13.85 43.93 15.31 43.93"/><path class="cls-11" d="M17.61,39.62h1.74l-1.74-.84v.84Zm2.02-.14v1.36h-2.72v-1.08h-.61l-.71-.42v-.98l.42-.42h-.56v1.41h-.14v-1.55h1.46l2.87,1.69Z"/><path class="cls-2" d="M17.61,39.62h1.74l-1.74-.84v.84Zm2.02-.14v1.36h-2.72v-1.08h-.61l-.71-.42v-.98l.42-.42h-.56v1.41h-.14v-1.55h1.46l2.87,1.69Z"/><polygon class="cls-9" points="13.85 39.9 13.85 41.82 14.28 41.82 15.31 42.38 16.29 41.82 16.76 41.82 16.76 39.9 16.29 39.9 15.31 39.33 14.28 39.9 13.85 39.9"/><path class="cls-11" d="M12.96,42.1h-1.74l1.74,.84v-.84Zm-2.02,.14v-1.41h2.77v1.13h.56l.7,.42v.98l-.42,.42h.56v-1.41h.19v1.55h-1.46l-2.91-1.69Z"/><path class="cls-2" d="M12.96,42.1h-1.74l1.74,.84v-.84Zm-2.02,.14v-1.41h2.77v1.13h.56l.7,.42v.98l-.42,.42h.56v-1.41h.19v1.55h-1.46l-2.91-1.69Z"/><path class="cls-16" d="M12.96,39.62h-1.74l1.74-.84v.84Zm-2.02-.14v1.36h2.77v-1.08h.56l.7-.42v-.98l-.42-.42h.56v1.41h.19v-1.55h-1.46l-2.91,1.69Z"/><path class="cls-2" d="M12.96,39.62h-1.74l1.74-.84v.84Zm-2.02-.14v1.36h2.77v-1.08h.56l.7-.42v-.98l-.42-.42h.56v1.41h.19v-1.55h-1.46l-2.91,1.69Z"/><path class="cls-16" d="M17.61,42.1h1.74l-1.74,.84v-.84Zm2.02,.14v-1.41h-2.72v1.13h-.61l-.71,.42v.98l.42,.42h-.56v-1.41h-.14v1.55h1.46l2.87-1.69Z"/><path class="cls-2" d="M17.61,42.1h1.74l-1.74,.84v-.84Zm2.02,.14v-1.41h-2.72v1.13h-.61l-.71,.42v.98l.42,.42h-.56v-1.41h-.14v1.55h1.46l2.87-1.69Z"/><polygon class="cls-9" points="11.79 41.96 11.97 41.96 11.97 41.54 12.35 41.54 12.35 41.96 12.54 41.96 12.54 40.97 12.35 40.97 12.35 41.4 11.97 41.4 11.97 40.97 11.79 40.97 11.79 41.96"/><polygon class="cls-9" points="13.52 43.37 13.71 43.37 13.71 42.94 14.09 42.94 14.09 43.37 14.28 43.37 14.28 42.38 14.09 42.38 14.09 42.8 13.71 42.8 13.71 42.38 13.52 42.38 13.52 43.37"/><polygon class="cls-9" points="11.79 39.76 11.97 39.76 11.97 40.18 12.35 40.18 12.35 39.76 12.54 39.76 12.54 40.74 12.35 40.74 12.35 40.32 11.97 40.32 11.97 40.74 11.79 40.74 11.79 39.76"/><polygon class="cls-9" points="13.52 38.35 13.71 38.35 13.71 38.77 14.09 38.77 14.09 38.35 14.28 38.35 14.28 39.33 14.09 39.33 14.09 38.91 13.71 38.91 13.71 39.33 13.52 39.33 13.52 38.35"/><polygon class="cls-9" points="18.03 40.74 18.22 40.74 18.22 40.32 18.6 40.32 18.6 40.74 18.78 40.74 18.78 39.76 18.6 39.76 18.6 40.18 18.22 40.18 18.22 39.76 18.03 39.76 18.03 40.74"/><polygon class="cls-9" points="16.29 43.37 16.48 43.37 16.48 42.94 16.86 42.94 16.86 43.37 17.05 43.37 17.05 42.38 16.86 42.38 16.86 42.8 16.48 42.8 16.48 42.38 16.29 42.38 16.29 43.37"/><polygon class="cls-9" points="18.03 41.96 18.22 41.96 18.22 41.54 18.6 41.54 18.6 41.96 18.78 41.96 18.78 40.97 18.6 40.97 18.6 41.4 18.22 41.4 18.22 40.97 18.03 40.97 18.03 41.96"/><polygon class="cls-9" points="16.29 39.33 16.48 39.33 16.48 38.91 16.86 38.91 16.86 39.33 17.05 39.33 17.05 38.35 16.86 38.35 16.86 38.77 16.48 38.77 16.48 38.35 16.29 38.35 16.29 39.33"/><polygon class="cls-13" points="15.45 40.83 16.01 40.37 16.29 40.37 16.29 40.6 16.01 40.6 16.01 40.74 16.44 40.74 16.44 40.22 16.01 40.22 16.01 39.85 15.45 39.85 15.45 40.22 15.59 40.22 15.59 39.94 15.87 39.94 15.87 40.22 15.31 40.74 14.7 40.22 14.7 39.94 14.98 39.94 14.98 40.22 15.12 40.22 15.12 39.85 14.56 39.85 14.56 40.22 14.13 40.22 14.13 40.74 14.56 40.74 14.56 40.6 14.28 40.6 14.28 40.37 14.56 40.37 15.12 40.83 14.56 41.35 14.28 41.35 14.28 41.12 14.56 41.12 14.56 40.97 14.13 40.97 14.13 41.49 14.56 41.49 14.56 41.87 15.12 41.87 15.12 41.49 14.98 41.49 14.98 41.77 14.7 41.77 14.7 41.49 15.31 40.97 15.87 41.49 15.87 41.77 15.59 41.77 15.59 41.49 15.45 41.49 15.45 41.87 16.01 41.87 16.01 41.49 16.44 41.49 16.44 40.97 16.01 40.97 16.01 41.12 16.29 41.12 16.29 41.35 16.01 41.35 15.45 40.83"/><polygon class="cls-9" points="11.22 14.91 11.5 14.53 13.2 14.53 14.46 12.94 16.15 12.94 17.42 14.53 19.06 14.53 19.35 14.91 19.06 15.28 17.42 15.28 16.15 16.92 14.46 16.92 13.2 15.28 11.5 15.28 11.22 14.91"/><polygon class="cls-9" points="11.36 14.49 11.5 14.35 13.24 14.35 14.56 12.8 16.01 12.8 17.33 14.35 19.07 14.35 19.21 14.49 19.07 14.63 17.33 14.63 16.15 15.99 14.42 15.99 13.24 14.63 11.5 14.63 11.36 14.49"/><polygon class="cls-2" points="11.36 14.49 11.5 14.35 13.24 14.35 14.56 12.8 16.01 12.8 17.33 14.35 19.07 14.35 19.21 14.49 19.07 14.63 17.33 14.63 16.15 15.99 14.42 15.99 13.24 14.63 11.5 14.63 11.36 14.49"/><path class="cls-11" d="M16.01,14.63l.56,.61-.28,.33-.14-.14h-.14v.14l.14,.19h.28l.28-.33v-.33l-.56-.66,.56-.66v-.28l-.28-.33h-.28l-.14,.14v.19h.14l.14-.19,.28,.33-.56,.66-.56-.66,.56-.66v-.14h-.14l-.56,.66-.56-.66h-.14v.14l.56,.66-.56,.66-.56-.66,.28-.33,.14,.19h.14v-.19l-.14-.14h-.28l-.28,.33v.28l.56,.66-.56,.66v.33l.28,.33h.28l.14-.19v-.14h-.14l-.14,.14-.28-.33,.56-.61,.56,.61-.56,.66v.19h.14l.56-.66,.56,.66h.14v-.19l-.56-.66,.56-.61Zm-.7-.84l-.56,.66,.56,.66,.56-.66-.56-.66Z"/><path class="cls-2" d="M16.01,14.63l.56,.61-.28,.33-.14-.14h-.14v.14l.14,.19h.28l.28-.33v-.33l-.56-.66,.56-.66v-.28l-.28-.33h-.28l-.14,.14v.19h.14l.14-.19,.28,.33-.56,.66-.56-.66,.56-.66v-.14h-.14l-.56,.66-.56-.66h-.14v.14l.56,.66-.56,.66-.56-.66,.28-.33,.14,.19h.14v-.19l-.14-.14h-.28l-.28,.33v.28l.56,.66-.56,.66v.33l.28,.33h.28l.14-.19v-.14h-.14l-.14,.14-.28-.33,.56-.61,.56,.61-.56,.66v.19h.14l.56-.66,.56,.66h.14v-.19l-.56-.66,.56-.61Zm-.7-.84l-.56,.66,.56,.66,.56-.66-.56-.66Z"/><polygon class="cls-11" points="14.46 16.22 14.46 17.49 14.6 17.35 14.75 17.49 14.89 17.35 15.03 17.49 15.17 17.35 15.31 17.49 15.45 17.35 15.59 17.49 15.73 17.35 15.87 17.49 16.01 17.35 16.15 17.49 16.15 16.22 14.46 16.22"/><polygon class="cls-11" points="16.15 12.66 16.15 11.39 16.01 11.53 15.87 11.39 15.73 11.53 15.59 11.39 15.45 11.53 15.31 11.39 15.17 11.53 15.03 11.39 14.89 11.53 14.75 11.39 14.6 11.53 14.46 11.39 14.46 12.66 16.15 12.66"/><polygon class="cls-11" points="18.5 14.11 18.5 12.85 18.36 12.99 18.22 12.85 18.08 12.99 17.94 12.85 17.84 12.99 17.7 12.85 17.56 12.99 17.42 12.85 17.42 14.11 18.5 14.11"/><polygon class="cls-11" points="13.2 14.11 13.2 12.85 13.05 12.99 12.91 12.85 12.77 12.99 12.63 12.85 12.49 12.99 12.35 12.85 12.21 12.99 12.07 12.85 12.07 14.11 13.2 14.11"/><polygon class="cls-11" points="18.5 14.77 18.5 16.08 18.36 15.89 18.22 16.08 18.08 15.89 17.94 16.08 17.84 15.89 17.7 16.08 17.56 15.89 17.42 16.08 17.42 14.77 18.5 14.77"/><polygon class="cls-11" points="13.2 14.77 13.2 16.08 13.05 15.89 12.91 16.08 12.77 15.89 12.63 16.08 12.49 15.89 12.35 16.08 12.21 15.89 12.07 16.08 12.07 14.77 13.2 14.77"/><polygon class="cls-13" points="16.15 16.22 16.15 17.02 16.29 16.88 16.44 17.02 16.58 16.88 16.72 17.02 16.86 16.88 17 17.02 17.14 16.88 17.28 17.02 17.42 16.88 17.42 14.77 16.15 16.22"/><polygon class="cls-13" points="14.46 16.22 14.46 17.02 14.32 16.88 14.18 17.02 14.04 16.88 13.9 17.02 13.76 16.88 13.62 17.02 13.48 16.88 13.34 17.02 13.2 16.88 13.2 14.77 14.46 16.22"/><polygon class="cls-13" points="14.46 12.66 14.46 11.86 14.32 12.05 14.18 11.86 14.04 12.05 13.9 11.86 13.76 12.05 13.62 11.86 13.48 12.05 13.34 11.86 13.2 12.05 13.2 14.11 14.46 12.66"/><polygon class="cls-13" points="16.15 12.66 16.15 11.86 16.29 12.05 16.44 11.86 16.58 12.05 16.72 11.86 16.86 12.05 17 11.86 17.14 12.05 17.28 11.86 17.42 12.05 17.42 14.11 16.15 12.66"/><polygon class="cls-13" points="12.07 15.75 11.93 15.56 11.79 15.75 11.65 15.56 11.5 15.75 11.36 15.56 11.22 15.75 11.08 15.56 10.94 15.75 10.94 13.17 11.08 13.31 11.22 13.17 11.36 13.31 11.5 13.17 11.65 13.31 11.79 13.17 11.93 13.31 12.07 13.17 12.07 14.11 11.5 14.11 11.22 14.44 11.5 14.77 12.07 14.77 12.07 15.75"/><polygon class="cls-13" points="18.5 15.75 18.64 15.56 18.78 15.75 18.92 15.56 19.06 15.75 19.21 15.56 19.35 15.75 19.49 15.56 19.63 15.75 19.63 13.17 19.49 13.31 19.35 13.17 19.21 13.31 19.06 13.17 18.92 13.31 18.78 13.17 18.64 13.31 18.5 13.17 18.5 14.11 19.06 14.11 19.35 14.44 19.06 14.77 18.5 14.77 18.5 15.75"/><path class="cls-16" d="M13.76,16.31s-.14,.14-.14,.19,.14,.19,.19,.19c.09,0,.19-.09,.19-.19,0-.05-.14-.19-.14-.19v-.23s.28,.42,.28,.23c0-.14-.28-.37-.28-.37h-.09s-.28,.28-.28,.37c0,.19,.28-.23,.28-.23v.23Z"/><path class="cls-9" d="M15.21,16.83s-.14,.14-.14,.23,.14,.28,.24,.28c.05,0,.19-.19,.19-.28s-.14-.23-.14-.23v-.37s.23,.56,.23,.33c0-.19-.23-.52-.23-.52h-.14s-.28,.42-.24,.52c0,.23,.24-.33,.24-.33v.37Z"/><path class="cls-13" d="M14.04,14.44c0,.09-.14,.19-.28,.19-.19,0-.28-.09-.28-.19s.09-.14,.28-.14c.14,0,.28,.05,.28,.14h0Z"/><path class="cls-13" d="M15.59,14.44c0,.09-.14,.19-.28,.19-.19,0-.28-.09-.28-.19s.09-.14,.28-.14c.14,0,.28,.05,.28,.14h0Z"/><path class="cls-13" d="M17.14,14.44c0,.09-.14,.19-.28,.19-.19,0-.28-.09-.28-.19s.09-.14,.28-.14c.14,0,.28,.05,.28,.14h0Z"/><path class="cls-16" d="M13.71,12.61s-.09-.14-.09-.23c0-.05,.09-.19,.14-.19,.09,0,.19,.14,.19,.19,0,.09-.09,.23-.09,.23v.23s.23-.42,.23-.23c0,.14-.23,.38-.23,.38h-.14s-.24-.28-.24-.38c0-.19,.24,.23,.24,.23v-.23Z"/><path class="cls-9" d="M15.17,12.1s-.14-.19-.14-.28c0-.05,.19-.23,.24-.23,.09,0,.19,.14,.19,.23s-.14,.28-.14,.28v.37s.28-.61,.28-.33c0,.19-.28,.47-.28,.47h-.14s-.28-.38-.23-.47c0-.28,.23,.33,.23,.33v-.37Z"/><path class="cls-16" d="M16.76,16.31s-.14,.14-.14,.19,.14,.19,.19,.19,.19-.09,.19-.19c0-.05-.14-.19-.14-.19v-.23s.28,.42,.28,.23c0-.14-.28-.37-.28-.37h-.09s-.28,.28-.28,.37c0,.19,.28-.23,.28-.23v.23Z"/><path class="cls-16" d="M16.72,12.61s-.09-.14-.09-.23c-.05-.05,.09-.19,.14-.19,.09,0,.19,.14,.19,.19,0,.09-.09,.23-.09,.23v.23s.23-.42,.23-.23c0,.14-.23,.38-.23,.38h-.14s-.23-.28-.23-.38c0-.19,.23,.23,.23,.23v-.23Z"/><path class="cls-9" d="M12.54,15.42s-.19,.14-.19,.19,.19,.19,.24,.19c.09,0,.23-.14,.23-.19s-.14-.19-.14-.19v-.23s.28,.37,.28,.19c0-.09-.28-.33-.28-.33h-.14s-.33,.28-.28,.33c0,.19,.28-.19,.28-.19v.23Z"/><path class="cls-9" d="M12.49,13.6s-.14-.09-.14-.19c0-.05,.14-.19,.24-.19s.23,.14,.23,.19c0,.09-.19,.19-.19,.19v.23s.28-.37,.28-.19c0,.09-.28,.33-.28,.33h-.14s-.33-.28-.28-.33c0-.19,.28,.19,.28,.19v-.23Z"/><path class="cls-9" d="M17.94,15.38s-.14,.14-.14,.19c-.05,.05,.14,.19,.24,.19,.05,0,.23-.14,.23-.19s-.19-.19-.19-.19v-.23s.28,.37,.28,.23-.28-.33-.28-.33h-.14s-.33,.23-.28,.33c0,.14,.28-.23,.28-.23v.23Z"/><path class="cls-9" d="M17.89,13.55s-.14-.09-.14-.19c0-.05,.14-.14,.23-.14s.24,.09,.24,.14c0,.09-.19,.19-.19,.19v.23s.28-.37,.28-.19c0,.09-.28,.33-.28,.33h-.14s-.33-.28-.28-.33c0-.19,.28,.19,.28,.19v-.23Z"/><path class="cls-16" d="M11.36,15.42c-.05-.14,0-.19,0-.23-.05-.05,.14-.19,.19-.19s.14,.14,.14,.19v.23l-.09-.19q-.09,.28-.14,0l-.09,.19Z"/><path class="cls-16" d="M11.36,13.55c-.05,.09,0,.19,0,.23s.14,.19,.19,.19,.14-.14,.14-.23v-.19l-.09,.19q-.09-.28-.14,0l-.09-.19Z"/><path class="cls-16" d="M18.97,15.38c-.05-.09-.05-.14-.05-.23,0-.05,.14-.14,.19-.14,.09,0,.19,.09,.19,.19,0,.05,0,.09-.05,.23l-.05-.19q-.09,.23-.14-.05l-.09,.19Z"/><path class="cls-16" d="M18.97,13.55c-.05,.09-.05,.14-.05,.19,0,.09,.14,.19,.19,.19,.09,0,.19-.14,.19-.19v-.23l-.09,.19q-.09-.28-.14,0l-.09-.14Z"/><path class="cls-9" d="M14.42,17.53v-.47h-1.31v-.89h-1.17v-.33h-.99v-2.77h.99v-.28h1.17v-.94h1.31v-.42h1.74v.42h1.32v.94h1.17v.28h.99v2.77h-.99v.33h-1.17v.89h-1.32v.47h-1.74Zm-.14,.14v-.42h-1.32v-.94h-1.17v-.33h-.99v-3.05h.99v-.28h1.17v-.94h1.32v-.47h2.02v.47h1.31v.94h1.17v.28h1.03v3.05h-1.03v.33h-1.17v.94h-1.31v.42h-2.02Z"/><path class="cls-2" d="M14.42,17.53v-.47h-1.31v-.89h-1.17v-.33h-.99v-2.77h.99v-.28h1.17v-.94h1.31v-.42h1.74v.42h1.32v.94h1.17v.28h.99v2.77h-.99v.33h-1.17v.89h-1.32v.47h-1.74Zm-.14,.14v-.42h-1.32v-.94h-1.17v-.33h-.99v-3.05h.99v-.28h1.17v-.94h1.32v-.47h2.02v.47h1.31v.94h1.17v.28h1.03v3.05h-1.03v.33h-1.17v.94h-1.31v.42h-2.02Z"/><path class="cls-16" d="M39.82,10.88c0-3.33-2.72-6.05-6.06-6.05s-6.01,2.72-6.01,6.05,2.68,6.05,6.01,6.05,6.06-2.67,6.06-6.05h0Z"/><path class="cls-13" d="M38.18,9.94c0-3.28-2.68-5.96-5.96-5.96s-5.96,2.67-5.96,5.96,2.68,6,5.96,6,5.96-2.67,5.96-6h0Z"/><polygon class="cls-17" points="34.56 7.5 33.72 7.5 33.48 8.35 33.2 7.5 32.35 7.5 33.01 6.99 32.73 6.19 33.43 6.66 34.14 6.19 33.9 6.99 34.56 7.5"/><polygon class="cls-17" points="31.51 5.95 30.66 6 30.43 6.8 30.15 6 29.3 5.95 29.96 5.44 29.68 4.64 30.38 5.11 31.04 4.64 30.85 5.44 31.51 5.95"/><polygon class="cls-17" points="31.51 9.05 30.66 9.05 30.43 9.85 30.15 9.05 29.3 9.05 29.96 8.53 29.68 7.69 30.38 8.2 31.04 7.69 30.85 8.53 31.51 9.05"/><polygon class="cls-17" points="31.51 12.14 30.66 12.14 30.43 12.94 30.15 12.14 29.3 12.14 29.96 11.63 29.68 10.78 30.38 11.3 31.04 10.78 30.85 11.63 31.51 12.14"/><polygon class="cls-17" points="28.46 10.55 27.61 10.55 27.38 11.39 27.09 10.55 26.25 10.55 26.91 10.03 26.62 9.24 27.33 9.71 28.03 9.24 27.8 10.03 28.46 10.55"/><polygon class="cls-9" points="16.29 43.37 16.48 43.37 16.48 42.94 16.86 42.94 16.86 43.37 17.05 43.37 17.05 42.38 16.86 42.38 16.86 42.8 16.48 42.8 16.48 42.38 16.29 42.38 16.29 43.37"/></g></g></g></svg>