<?xml version="1.0" encoding="UTF-8"?><svg id="Ebene_2" xmlns="http://www.w3.org/2000/svg" xmlns:xlink="http://www.w3.org/1999/xlink" viewBox="0 0 83.18 48.52"><defs><style>.cls-1{fill:none;}.cls-2{clip-path:url(#clippath);}.cls-3{fill:#f8e82a;}.cls-4{fill:#fffcff;}.cls-5{fill:#fff;}.cls-6{fill:#cc2920;}.cls-7{fill:#cc3220;}.cls-8{fill:#9ba49a;}.cls-9{clip-path:url(#clippath-1);}</style><clipPath id="clippath"><rect class="cls-1" width="83.18" height="48.52"/></clipPath><clipPath id="clippath-1"><rect class="cls-1" width="83.18" height="48.52"/></clipPath></defs><g id="Layer_1"><g class="cls-2"><rect width="83.18" height="48.52"/><rect class="cls-3" y="8.09" width="83.18" height="8.09"/><rect class="cls-7" y="16.17" width="83.18" height="8.09"/><rect class="cls-3" y="32.35" width="83.18" height="8.09"/><rect class="cls-7" y="40.44" width="83.18" height="8.09"/><g class="cls-9"><path class="cls-4" d="M49.14,24.26c0,4.17-3.38,7.55-7.55,7.55s-7.55-3.38-7.55-7.55,3.38-7.55,7.55-7.55,7.55,3.38,7.55,7.55h0Z"/><path d="M41.59,31.86c-4.19,0-7.59-3.41-7.59-7.59s3.41-7.59,7.59-7.59,7.59,3.41,7.59,7.59-3.41,7.59-7.59,7.59h0Zm0-15.11c-4.14,0-7.51,3.37-7.51,7.51s3.37,7.51,7.51,7.51,7.51-3.37,7.51-7.51-3.37-7.51-7.51-7.51h0Z"/><path class="cls-6" d="M40.26,18.47l-.49-.9c.19-.19,.51-.33,1.02-.33,0,.03-.05,.99-.05,.99l-.47,.25Z"/><path d="M40.24,18.53l-.51-.94c.23-.28,.6-.39,1.05-.39,.04,.07-.01,1.03-.01,1.03l-.53,.3h0Zm.5-1.29c-.39,.04-.73,.15-.95,.36l.48,.82,.44-.23s.03-.92,.03-.95h0Z"/><path class="cls-3" d="M40.73,18.23l.07-1s1.01-.06,1.56,.6c0,0-.54,.77-.54,.77l-1.09-.38Z"/><path d="M41.84,18.66l-1.12-.39,.05-1.08h.1c.24,0,1.05,.04,1.53,.62t-.54,.82l-.02,.02h0Zm-.97-1.38l-.1,.96,1.04,.33c.09-.13,.5-.71,.52-.75-.45-.5-1.23-.54-1.46-.54h0Z"/><path class="cls-6" d="M41.84,18.6l.5-.77c.34,.35,.47,.6,.53,.98,0,0-.79,.2-.79,.19s-.22-.39-.23-.4h0Z"/><path d="M42.08,19.04l-.04-.03s-.21-.36-.23-.39l.5-.82c.41,.36,.55,.61,.6,1-.02,.07-.82,.24-.83,.24h0Zm-.2-.42s.16,.23,.22,.33c.13-.02,.71-.16,.75-.18-.07-.33-.2-.57-.54-.92l-.43,.76h0Z"/><path d="M40.51,31.38s.94-1.08,2.76-.84c-.28-.45-1.16-.4-1.16-.4,0,0-.28-2.09-.06-2.19,.21-.1,1.13,0,1.13,0,.12,0,.33-.33,.16-.53-.16-.21-.64-1-.45-1.15,.2-.15,1.27,.09,1.27,.09l-3.04-3.89s-.31-1.46,.31-2.17c.75-.62,.67-1.29,.64-1.28-.1-.68-1.13-1.17-1.83-.54-.41,.5-.14,.88-.14,.88,0,0-1.08,.29-1.13,.48-.04,.19,1.22-.03,1.22-.03l-.12,.87s-2.46,2.24-.58,4.17c.02,0,.06-.09,.06-.09,0,0,.66,.82,1.36,1,.65,.67,.59,.57,.59,.57,0,0,.13,1.06,0,1.26-.16-.05-1.83-.11-2.08-.02-.22,.07-1.08,.03-.87,1.43,.16-.38,.31-.71,.31-.71,0,0-.03,.51,.18,.69-.03-.53,.2-.9,.2-.9,0,0,.04,.59,.17,.67,.13,.09,.13-.95,.84-.86,.71,.09,1.23,.06,1.23,.06,0,0,.24,2.02,.16,2.21-.52-.12-1.75,.05-1.82,.36,.72-.04,1.06,.04,1.06,.04,0,0-.59,.52-.4,.82h0Z"/><path d="M40.5,31.45l-.03-.05c-.17-.28,.25-.72,.38-.84-.07,0-.28-.02-.61-.02-.11,0-.24,0-.39,.01,.04-.43,1.36-.55,1.83-.44,0-.11-.11-1.33-.21-2.14-.08,.04-.58,.02-1.2-.05h0c-.47,0-.6,.41-.68,.65-.05,.14-.07,.22-.13,.22-.15-.09-.2-.46-.22-.64-.03,.13-.15,.43-.13,.81-.28-.16-.26-.67-.26-.69l-.23,.73c-.27-1.28,.4-1.4,.72-1.46,.04,0,.08-.01,.1-.02,.11-.04,.47-.05,.75-.05,.56,0,1.24,.04,1.35,.07,.04-.13-.01-.84-.06-1.2h0s-.13-.09-.58-.56c-.64-.16-1.26-.88-1.35-.99l.05-.06s.66,.81,1.34,.98c.5,.5,.58,.57,.6,.57,.05,.21,.15,1.11,.03,1.32-.23-.02-1.91-.07-2.1,0-.03,0-.07,.02-.12,.03-.32,.06-.91,.17-.73,1.36l.23-.72c.08,.02,.06,.51,.24,.67-.1-.51,.13-.87,.14-.89,.09,.25,.15,.61,.23,.66,0-.01,.03-.1,.05-.16,.09-.27,.24-.71,.69-.71,.84,.09,1.31,.07,1.31,.07,.07,.24,.28,2.07,.2,2.27-.15,0-.29-.01-.46-.01-.59,0-1.31,.16-1.37,.37,.1-.06,.23-.06,.35-.06,.46,0,.67,.05,.68,.06-.13,.19-.46,.56-.4,.79,.21-.2,1.14-1.01,2.75-.81-.25-.29-.89-.32-1.08-.32l-.12-.03c-.07-.5-.26-2.13-.04-2.24,.19-.09,1.15,0,1.15,0,.03,0,.09-.06,.14-.15,.02-.04,.08-.2-.01-.32-.11-.14-.54-.79-.5-1.09,0-.05,.03-.09,.06-.12,.19-.15,1.27,.07,1.31,.08l-3.08-3.83c-.02-.08-.31-1.51,.31-2.22,.68-.56,.67-1.17,.64-1.23-.11-.69-1.18-1.07-1.77-.53-.38,.46-.14,.81-.13,.82-.54,.2-1.1,.41-1.12,.51h0s.03,.03,.2,.03c.35,0,.97-.11,.97-.11l-.07,.91s-1.25,1.16-1.29,2.48c-.02,.61,.22,1.17,.7,1.66h0c0,.05,0,.06-.01,.06-.54-.52-.79-1.1-.77-1.73,.04-1.35,1.29-2.5,1.3-2.51l.11-.84c-.03,.05-.6,.15-.94,.15-.19,0-.25-.03-.27-.06,.03-.26,.91-.51,1.13-.57-.06-.03-.25-.4,.13-.87,.65-.59,1.79-.16,1.9,.56,.04,.09,.06,.73-.66,1.32-.59,.68-.3,2.11-.3,2.13l3.03,3.87c-.05,.06-.66-.07-1.03-.07-.17,0-.23,.03-.25,.04-.06,.3,.3,.9,.45,1.1,.08,.11,.09,.26,.02,.41-.05,.1-.13,.19-.22,.19,0,0-.43-.05-.77-.05-.22,0-.31,.02-.34,.04-.12,.06-.05,1.16,.08,2.15,.3-.04,.93,0,1.16,.38-.22,.04-.38,.03-.54,.03-1.45,0-2.22,.85-2.22,.86l-.04,.04h0Z"/><path class="cls-8" d="M40.8,20.35s-1.79,1.97-1.02,3.48c.04-.21,.02-.34,.05-.33-.04-.03,.22,.18,.2,.14,0-.11-.08-.34-.08-.34,.08,.02,.16,.04,.24,.06-.05-.09-.09-.17-.14-.26,.11,.01,.23,.03,.34,.04,0,0-.12-.32-.08-.32,.04,0,.28,.02,.28,.02-.51-.91-.03-1.67,.2-2.48h0Z"/><path class="cls-8" d="M39.8,23.96l-.05-.1c-.78-1.52,1.01-3.51,1.02-3.53,.02,.21-.04,.37-.09,.53-.23,.64-.44,1.25-.04,1.96-.04,.06-.28,.04-.32,.04,.03,0,.08,.15,.12,.27h-.39s.18,.22,.18,.22l-.21,.02s0-.01,0-.01c0,0,.06,.19,.06,.3-.08,.04-.27-.11-.28-.11,.05,.12,.04,.21,.02,.31l-.02,.12h0Zm.95-3.59c-.13,.24-1.56,1.96-.99,3.33,0-.05,0-.08,0-.12l.05-.12c.06,.03,.2,.14,.22,.15-.04-.05-.1-.23-.13-.29l-.03-.07,.32,.08-.19-.21,.38-.02c-.16-.26-.14-.29-.12-.3,.08-.02,.33,0,.33,0-.45-.68-.22-1.34,0-1.97,.05-.15,.11-.31,.15-.46h0Z"/><path class="cls-8" d="M41.42,18.66s.09,.68-.28,.88c-.06,.04-.29,.12-.26,.26,.04,.19,.15,.16,.29,.12,.39-.07,.84-.89,.24-1.26h0Z"/><path class="cls-8" d="M41.03,19.98c-.1,0-.15-.06-.18-.18-.04-.14,.12-.22,.22-.27,.4-.21,.31-.86,.31-.87,.3,.11,.41,.35,.36,.63-.06,.31-.31,.62-.55,.66-.07,.02-.11,.03-.16,.03h0Zm.39-1.28c.06,.08,.11,.68-.25,.87-.16,.08-.26,.14-.24,.21,.02,.11,.06,.12,.1,.12h0s.07,0,.12-.02c.23-.04,.45-.32,.51-.6,.03-.14,.03-.4-.24-.58h0Z"/><path class="cls-5" d="M40.76,19.24c0,.08-.07,.15-.15,.15s-.15-.06-.15-.15,.06-.15,.15-.15,.15,.07,.15,.15h0Z"/><path class="cls-6" d="M40.18,19.81c-.09,.08-.59,.59-.1,.78,.51-.14,.37-.23,.48-.34,0-.23-.25-.29-.38-.44h0Z"/><path d="M40.08,20.64h-.01c-.14-.06-.22-.14-.23-.25-.04-.25,.25-.54,.32-.61,.1,.05,.15,.09,.2,.12,.12,.08,.24,.17,.24,.35l-.06,.1c-.04,.1-.09,.18-.45,.28h-.01Zm.07-.8c-.03,.08-.27,.34-.24,.54,.01,.08,.07,.14,.17,.18,.34-.09,.36-.16,.39-.23,.01-.03,.03-.07,.06-.1,0-.11-.11-.17-.22-.25-.06-.04-.12-.08-.16-.13h0Z"/><path class="cls-8" d="M41.26,24.69c-.03,.11-.14,.52,.02,.84,.43-.18,.63-.13,.78-.03-.35-.28-.49-.4-.79-.81h0Z"/><path class="cls-8" d="M41.26,25.58l-.02-.03c-.15-.31-.06-.7-.03-.85,0,0,0,0,.01,.01,.03,.14-.05,.48,.07,.77,.3-.12,.51-.15,.69-.06-.34-.19-.48-.32-.76-.7,.37,.36,.51,.48,.85,.75-.13,0-.21-.01-.32-.01-.13,0-.28,.04-.47,.12h-.04Z"/><path class="cls-5" d="M42,26.64l.03,.96s.33,.06,.49,0c.15-.06,0-.67-.52-.96h0Z"/><path class="cls-5" d="M42.33,27.67c-.15,0-.3-.03-.3-.03l-.06-1c.47,.2,.67,.64,.65,.86,0,.1-.05,.13-.08,.14-.05,.02-.12,.03-.21,.03h0Zm-.21-.09c.1,0,.31,.02,.39-.02,.04-.27-.14-.67-.52-.89l.09,.91s.02,0,.04,0h0Z"/><path class="cls-8" d="M44.44,26.76s-.62-1.5-2.2-1.87c-1.58-.38-1.38-2.06-1.25-2.17,.07-.15,.12-.37,.58-.15,.45,.21,2.55,1.27,2.86,1.32,.3,.05,.04,2.91,.02,2.87h0Z"/><path d="M44.44,26.8l-.04-.03c-.03-.06-.65-1.49-2.18-1.85-.9-.21-1.21-.83-1.32-1.3-.1-.43-.03-.87,.05-.93,.07-.18,.21-.36,.62-.16l.53,.25c.78,.38,2.09,1.03,2.32,1.07,.28,.05,.17,1.73,.1,2.45-.04,.5-.05,.5-.09,.5h0Zm-3.19-4.29c-.13,0-.17,.09-.21,.18-.07,.09-.16,.49-.04,.95,.11,.44,.41,1,1.25,1.2,1.32,.32,1.99,1.42,2.17,1.78,.06-.5,.19-2.39,.02-2.68-.24-.06-1.3-.57-2.36-1.09l-.52-.26c-.12-.06-.22-.08-.29-.08h0Z"/><path class="cls-6" d="M42.93,24.88s2.12,1.26,1.47,2.34c.61-.4,.41-1.11,.41-1.11,0,0,.5,1.3-.71,1.94,.13,.11,.21,.08,.21,.08l-.21,.21s-.1,.16,.72-.24c-.22,.18-.24,.31-.24,.31,0,0,.06,.17,.59-.29-.43,.46-.53,.71-.53,.7,1.16-.1,3.69-3.88-.8-5,.24,.25,.21,.22,.21,.22l-1.14,.85Z"/><path d="M44.59,28.86l.04-.07,.03,.02-.03-.03c.06-.13,.17-.28,.31-.45-.11,.1-.21,.14-.28,.14h-.03l-.07-.06s.02-.17,.25-.36c-.33,.25-.57,.34-.67,.34l-.06-.09,.18-.18s-.11,0-.18-.06c.75-.43,.83-1.1,.79-1.54-.02,.23-.13,.51-.44,.71,.19-.47,.15-1.19-1.42-2.27-.11-.07-.11-.08-.11-.1l1.15-.88-.21-.16c2.42,.53,2.68,1.84,2.63,2.57-.1,1.25-1.17,2.39-1.8,2.44h-.08Zm.57-.77c-.16,.28-.33,.5-.42,.67,.61-.13,1.55-1.2,1.64-2.36,.09-1.22-.8-2.12-2.53-2.55q.27,.17,.26,.19l-1.11,.84s.03,.02,.05,.03c1.31,.9,1.78,1.69,1.39,2.33,.52-.44,.34-1.11,.34-1.12h0s0,0,.01,0c.01,0,.03,.03,.04,.06,.13,.28,.35,1.34-.71,1.89,.09,0,.14,.01,.17,.01h0s0,0,0,0c0,0,0,0,0,.01l-.14,.25s.2-.07,.68-.31c-.16,.23-.18,.35-.18,.35,.08-.02,.21-.06,.53-.33h0Z"/><path class="cls-5" d="M43.03,24.51c.29,.21,.39,.28,.43,.38-.27-.06-.51-.04-.51-.04,0,0-.58-.55-.68-.59-.08,0-.53-.28-.53-.28-.22-.11-.43-.89,.4-.66,.85,.4,.97,.44,.97,.44,.34,.11,.68,.21,1.01,.32,.2,.22,.39,.44,.59,.65,0,0-1.04-.52-1.17-.53,.28,.23,.45,.55,.45,.55-.33-.09-.62-.18-.96-.23h0Z"/><path d="M43.52,24.94l-.07-.02c-.16-.04-.31-.04-.41-.04h-.12c-.22-.22-.6-.57-.67-.59h0c-.07,0-.42-.22-.53-.29-.13-.07-.25-.33-.21-.54,.03-.12,.2-.32,.64-.2,.83,.4,.97,.44,.97,.44l1.01,.32,.6,.67c-.45-.13-1.12-.45-1.2-.46,.32,.16,.48,.48,.49,.49l.04,.08-.15-.04c-.29-.08-.56-.16-.86-.21l-.02-.08c.32,.05,.59,.12,.89,.21-.05-.06-.19-.28-.4-.46,.16-.06,1.11,.4,1.21,.46l-.34-.26-.29-.33-.99-.3s-.14-.04-.99-.44c-.28-.07-.49-.03-.53,.14-.04,.16,.06,.39,.17,.45,.21,.13,.46,.28,.51,.28,.12,.05,.65,.55,.71,.6,.13-.01,.26,0,.4,.02-.05-.06-.15-.13-.32-.25v-.02c.31,.14,.4,.21,.44,.31l.02,.07h0Z"/><path d="M38.98,19.89s1-.24,1.12-.21l-1.12,.21Z"/><path class="cls-5" d="M38.99,19.93l-.02-.08c.17-.04,1-.24,1.14-.21-.1,.06-.71,.19-1.12,.29h0Z"/></g></g></g></svg>