<svg xmlns="http://www.w3.org/2000/svg" xmlns:xlink="http://www.w3.org/1999/xlink" viewBox="0 0 204.3 119.2" xmlns:v="https://vecta.io/nano"><style><![CDATA[.B{fill:#fff}.C{fill:#bf0a30}]]></style><defs><path id="A" d="M0 0h204.3v119.2H0z"/></defs><clipPath id="B"><use xlink:href="#A"/></clipPath><path d="M0 110h204.3v9.2H0z" clip-path="url(#B)" class="C"/><defs><path id="C" d="M0 0h204.3v119.2H0z"/></defs><clipPath id="D"><use xlink:href="#C"/></clipPath><path d="M0 100.8h204.3v9.2H0z" clip-path="url(#D)" class="B"/><defs><path id="E" d="M0 0h204.3v119.2H0z"/></defs><clipPath id="F"><use xlink:href="#E"/></clipPath><path d="M0 91.7h204.3v9.2H0z" clip-path="url(#F)" class="C"/><defs><path id="G" d="M0 0h204.3v119.2H0z"/></defs><clipPath id="H"><use xlink:href="#G"/></clipPath><path d="M0 82.5h204.3v9.2H0z" clip-path="url(#H)" class="B"/><defs><path id="I" d="M0 0h204.3v119.2H0z"/></defs><clipPath id="J"><use xlink:href="#I"/></clipPath><path d="M0 73.3h204.3v9.2H0z" clip-path="url(#J)" class="C"/><defs><path id="K" d="M0 0h204.3v119.2H0z"/></defs><clipPath id="L"><use xlink:href="#K"/></clipPath><path d="M0 64.2h204.3v9.2H0z" clip-path="url(#L)" class="B"/><defs><path id="M" d="M0 0h204.3v119.2H0z"/></defs><clipPath id="N"><use xlink:href="#M"/></clipPath><path d="M0 55h204.3v9.2H0z" clip-path="url(#N)" class="C"/><defs><path id="O" d="M0 0h204.3v119.2H0z"/></defs><clipPath id="P"><use xlink:href="#O"/></clipPath><path d="M0 45.8h204.3V55H0z" clip-path="url(#P)" class="B"/><defs><path id="Q" d="M0 0h204.3v119.2H0z"/></defs><clipPath id="R"><use xlink:href="#Q"/></clipPath><path d="M0 36.7h204.3v9.2H0z" clip-path="url(#R)" class="C"/><defs><path id="S" d="M0 0h204.3v119.2H0z"/></defs><clipPath id="T"><use xlink:href="#S"/></clipPath><path d="M0 27.5h204.3v9.2H0z" clip-path="url(#T)" class="B"/><defs><path id="U" d="M0 0h204.3v119.2H0z"/></defs><clipPath id="V"><use xlink:href="#U"/></clipPath><path d="M0 18.3h204.3v9.2H0z" clip-path="url(#V)" class="C"/><defs><path id="W" d="M0 0h204.3v119.2H0z"/></defs><clipPath id="X"><use xlink:href="#W"/></clipPath><path d="M0 9.2h204.3v9.2H0z" clip-path="url(#X)" class="B"/><defs><path id="Y" d="M0 0h204.3v119.2H0z"/></defs><clipPath id="Z"><use xlink:href="#Y"/></clipPath><path d="M0 0h204.3v9.2H0z" clip-path="url(#Z)" class="C"/><defs><path id="a" d="M0 0h204.3v119.2H0z"/></defs><clipPath id="b"><use xlink:href="#a"/></clipPath><path d="M0 0h93.3v64.2H0z" clip-path="url(#b)" fill="#002868"/><defs><path id="c" d="M0 0h204.3v119.2H0z"/></defs><clipPath id="d"><use xlink:href="#c"/></clipPath><path d="M8.4 7.1l.8 2.4h2.6L9.7 11l.8 2.4-2.1-1.5-2 1.5.8-2.4-2.1-1.5h2.5z" clip-path="url(#d)" class="B"/><defs><path id="e" d="M0 0h204.3v119.2H0z"/></defs><clipPath id="f"><use xlink:href="#e"/></clipPath><path d="M8.4 17.8l.8 2.4h2.6l-2.1 1.5.8 2.4-2.1-1.5-2 1.5.8-2.4-2.1-1.5h2.5z" clip-path="url(#f)" class="B"/><defs><path id="g" d="M0 0h204.3v119.2H0z"/></defs><clipPath id="h"><use xlink:href="#g"/></clipPath><path d="M8.4 28.5l.8 2.4h2.6l-2.1 1.5.8 2.5-2.1-1.6-2 1.6.8-2.5-2.1-1.5h2.5z" clip-path="url(#h)" class="B"/><defs><path id="i" d="M0 0h204.3v119.2H0z"/></defs><clipPath id="j"><use xlink:href="#i"/></clipPath><path d="M8.4 39.2l.8 2.4h2.6l-2.1 1.5.8 2.5-2.1-1.5-2 1.5.8-2.5-2.1-1.5h2.5z" clip-path="url(#j)" class="B"/><defs><path id="k" d="M0 0h204.3v119.2H0z"/></defs><clipPath id="l"><use xlink:href="#k"/></clipPath><path d="M8.4 49.9l.8 2.5h2.6l-2.1 1.4.8 2.5-2.1-1.5-2 1.5.8-2.5-2.1-1.4h2.5z" clip-path="url(#l)" class="B"/><defs><path id="m" d="M0 0h204.3v119.2H0z"/></defs><clipPath id="n"><use xlink:href="#m"/></clipPath><path d="M15.9 12.7l.8 2.4h2.5l-2 1.5.7 2.5-2-1.5-2.1 1.5.8-2.5-2-1.5h2.5z" clip-path="url(#n)" class="B"/><defs><path id="o" d="M0 0h204.3v119.2H0z"/></defs><clipPath id="p"><use xlink:href="#o"/></clipPath><path d="M15.9 23.4l.8 2.5h2.5l-2 1.5.7 2.4-2-1.5-2.1 1.5.8-2.4-2-1.5h2.5z" clip-path="url(#p)" class="B"/><defs><path id="q" d="M0 0h204.3v119.2H0z"/></defs><clipPath id="r"><use xlink:href="#q"/></clipPath><path d="M15.9 34.1l.8 2.5h2.5l-2 1.5.7 2.4-2-1.5-2.1 1.5.8-2.4-2-1.5h2.5z" clip-path="url(#r)" class="B"/><defs><path id="s" d="M0 0h204.3v119.2H0z"/></defs><clipPath id="t"><use xlink:href="#s"/></clipPath><path d="M15.9 44.9l.8 2.4h2.5l-2 1.5.7 2.4-2-1.5-2.1 1.5.8-2.4-2-1.5h2.5z" clip-path="url(#t)" class="B"/><defs><path id="u" d="M0 0h204.3v119.2H0z"/></defs><clipPath id="v"><use xlink:href="#u"/></clipPath><path d="M23.4 7.1l.8 2.4h2.6L24.7 11l.8 2.4-2.1-1.5-2 1.5.8-2.4-2.1-1.5h2.5z" clip-path="url(#v)" class="B"/><defs><path id="w" d="M0 0h204.3v119.2H0z"/></defs><clipPath id="x"><use xlink:href="#w"/></clipPath><path d="M23.4 17.8l.8 2.4h2.6l-2.1 1.5.8 2.4-2.1-1.5-2 1.5.8-2.4-2.1-1.5h2.5z" clip-path="url(#x)" class="B"/><defs><path id="y" d="M0 0h204.3v119.2H0z"/></defs><clipPath id="z"><use xlink:href="#y"/></clipPath><path d="M23.4 28.5l.8 2.4h2.6l-2.1 1.5.8 2.5-2.1-1.6-2 1.6.8-2.5-2.1-1.5h2.5z" clip-path="url(#z)" class="B"/><defs><path id="AA" d="M0 0h204.3v119.2H0z"/></defs><clipPath id="AB"><use xlink:href="#AA"/></clipPath><path d="M23.4 39.2l.8 2.4h2.6l-2.1 1.5.8 2.5-2.1-1.5-2 1.5.8-2.5-2.1-1.5h2.5z" clip-path="url(#AB)" class="B"/><defs><path id="AC" d="M0 0h204.3v119.2H0z"/></defs><clipPath id="AD"><use xlink:href="#AC"/></clipPath><path d="M23.4 49.9l.8 2.5h2.6l-2.1 1.4.8 2.5-2.1-1.5-2 1.5.8-2.5-2.1-1.4h2.5z" clip-path="url(#AD)" class="B"/><defs><path id="AE" d="M0 0h204.3v119.2H0z"/></defs><clipPath id="AF"><use xlink:href="#AE"/></clipPath><path d="M30.9 12.7l.8 2.4h2.6l-2.1 1.5.8 2.5-2.1-1.5-2.1 1.5.8-2.5-2-1.5h2.5z" clip-path="url(#AF)" class="B"/><defs><path id="AG" d="M0 0h204.3v119.2H0z"/></defs><clipPath id="AH"><use xlink:href="#AG"/></clipPath><path d="M30.9 23.4l.8 2.5h2.6l-2.1 1.5.8 2.4-2.1-1.5-2.1 1.5.8-2.4-2-1.5h2.5z" clip-path="url(#AH)" class="B"/><defs><path id="AI" d="M0 0h204.3v119.2H0z"/></defs><clipPath id="AJ"><use xlink:href="#AI"/></clipPath><path d="M30.9 34.1l.8 2.5h2.6l-2.1 1.5.8 2.4-2.1-1.5-2.1 1.5.8-2.4-2-1.5h2.5z" clip-path="url(#AJ)" class="B"/><defs><path id="AK" d="M0 0h204.3v119.2H0z"/></defs><clipPath id="AL"><use xlink:href="#AK"/></clipPath><path d="M30.9 44.9l.8 2.4h2.6l-2.1 1.5.8 2.4-2.1-1.5-2.1 1.5.8-2.4-2-1.5h2.5z" clip-path="url(#AL)" class="B"/><defs><path id="AM" d="M0 0h204.3v119.2H0z"/></defs><clipPath id="AN"><use xlink:href="#AM"/></clipPath><path d="M38.5 7.1l.8 2.4h2.5L39.7 11l.8 2.4-2-1.5-2.1 1.5.8-2.4-2.1-1.5h2.6z" clip-path="url(#AN)" class="B"/><defs><path id="AO" d="M0 0h204.3v119.2H0z"/></defs><clipPath id="AP"><use xlink:href="#AO"/></clipPath><path d="M38.5 17.8l.8 2.4h2.5l-2.1 1.5.8 2.4-2-1.5-2.1 1.5.8-2.4-2.1-1.5h2.6z" clip-path="url(#AP)" class="B"/><defs><path id="AQ" d="M0 0h204.3v119.2H0z"/></defs><clipPath id="AR"><use xlink:href="#AQ"/></clipPath><path d="M38.5 28.5l.8 2.4h2.5l-2.1 1.5.8 2.5-2-1.6-2.1 1.6.8-2.5-2.1-1.5h2.6z" clip-path="url(#AR)" class="B"/><defs><path id="AS" d="M0 0h204.3v119.2H0z"/></defs><clipPath id="AT"><use xlink:href="#AS"/></clipPath><path d="M38.5 39.2l.8 2.4h2.5l-2.1 1.5.8 2.5-2-1.5-2.1 1.5.8-2.5-2.1-1.5h2.6z" clip-path="url(#AT)" class="B"/><defs><path id="AU" d="M0 0h204.3v119.2H0z"/></defs><clipPath id="AV"><use xlink:href="#AU"/></clipPath><path d="M38.5 49.9l.8 2.5h2.5l-2.1 1.4.8 2.5-2-1.5-2.1 1.5.8-2.5-2.1-1.4h2.6z" clip-path="url(#AV)" class="B"/><defs><path id="AW" d="M0 0h204.3v119.2H0z"/></defs><clipPath id="AX"><use xlink:href="#AW"/></clipPath><path d="M45.9 12.7l.8 2.4h2.6l-2.1 1.5.8 2.5-2.1-1.5-2 1.5.7-2.5-2-1.5h2.5z" clip-path="url(#AX)" class="B"/><defs><path id="AY" d="M0 0h204.3v119.2H0z"/></defs><clipPath id="AZ"><use xlink:href="#AY"/></clipPath><path d="M45.9 23.4l.8 2.5h2.6l-2.1 1.5.8 2.4-2.1-1.5-2 1.5.7-2.4-2-1.5h2.5z" clip-path="url(#AZ)" class="B"/><defs><path id="Aa" d="M0 0h204.3v119.2H0z"/></defs><clipPath id="Ab"><use xlink:href="#Aa"/></clipPath><path d="M45.9 34.1l.8 2.5h2.6l-2.1 1.5.8 2.4-2.1-1.5-2 1.5.7-2.4-2-1.5h2.5z" clip-path="url(#Ab)" class="B"/><defs><path id="Ac" d="M0 0h204.3v119.2H0z"/></defs><clipPath id="Ad"><use xlink:href="#Ac"/></clipPath><path d="M45.9 44.9l.8 2.4h2.6l-2.1 1.5.8 2.4-2.1-1.5-2 1.5.7-2.4-2-1.5h2.5z" clip-path="url(#Ad)" class="B"/><defs><path id="Ae" d="M0 0h204.3v119.2H0z"/></defs><clipPath id="Af"><use xlink:href="#Ae"/></clipPath><path d="M53.5 7.1l.8 2.4h2.5L54.7 11l.8 2.4-2-1.5-2.1 1.5.8-2.4-2.1-1.5h2.6z" clip-path="url(#Af)" class="B"/><defs><path id="Ag" d="M0 0h204.3v119.2H0z"/></defs><clipPath id="Ah"><use xlink:href="#Ag"/></clipPath><path d="M53.5 17.8l.8 2.4h2.5l-2.1 1.5.8 2.4-2-1.5-2.1 1.5.8-2.4-2.1-1.5h2.6z" clip-path="url(#Ah)" class="B"/><defs><path id="Ai" d="M0 0h204.3v119.2H0z"/></defs><clipPath id="Aj"><use xlink:href="#Ai"/></clipPath><path d="M53.5 28.5l.8 2.4h2.5l-2.1 1.5.8 2.5-2-1.6-2.1 1.6.8-2.5-2.1-1.5h2.6z" clip-path="url(#Aj)" class="B"/><defs><path id="Ak" d="M0 0h204.3v119.2H0z"/></defs><clipPath id="Al"><use xlink:href="#Ak"/></clipPath><path d="M53.5 39.2l.8 2.4h2.5l-2.1 1.5.8 2.5-2-1.5-2.1 1.5.8-2.5-2.1-1.5h2.6z" clip-path="url(#Al)" class="B"/><defs><path id="Am" d="M0 0h204.3v119.2H0z"/></defs><clipPath id="An"><use xlink:href="#Am"/></clipPath><path d="M53.5 49.9l.8 2.5h2.5l-2.1 1.4.8 2.5-2-1.5-2.1 1.5.8-2.5-2.1-1.4h2.6z" clip-path="url(#An)" class="B"/><defs><path id="Ao" d="M0 0h204.3v119.2H0z"/></defs><clipPath id="Ap"><use xlink:href="#Ao"/></clipPath><path d="M60.9 12.7l.8 2.4h2.6l-2.1 1.5.8 2.5-2.1-1.5-2 1.5.8-2.5-2.1-1.5h2.6z" clip-path="url(#Ap)" class="B"/><defs><path id="Aq" d="M0 0h204.3v119.2H0z"/></defs><clipPath id="Ar"><use xlink:href="#Aq"/></clipPath><path d="M60.9 23.4l.8 2.5h2.6l-2.1 1.5.8 2.4-2.1-1.5-2 1.5.8-2.4-2.1-1.5h2.6z" clip-path="url(#Ar)" class="B"/><defs><path id="As" d="M0 0h204.3v119.2H0z"/></defs><clipPath id="At"><use xlink:href="#As"/></clipPath><path d="M60.9 34.1l.8 2.5h2.6l-2.1 1.5.8 2.4-2.1-1.5-2 1.5.8-2.4-2.1-1.5h2.6z" clip-path="url(#At)" class="B"/><defs><path id="Au" d="M0 0h204.3v119.2H0z"/></defs><clipPath id="Av"><use xlink:href="#Au"/></clipPath><path d="M60.9 44.9l.8 2.4h2.6l-2.1 1.5.8 2.4-2.1-1.5-2 1.5.8-2.4-2.1-1.5h2.6z" clip-path="url(#Av)" class="B"/><defs><path id="Aw" d="M0 0h204.3v119.2H0z"/></defs><clipPath id="Ax"><use xlink:href="#Aw"/></clipPath><path d="M68.5 7.1l.8 2.4h2.5l-2 1.5.7 2.4-2-1.5-2.1 1.5.8-2.4-2-1.5h2.5z" clip-path="url(#Ax)" class="B"/><defs><path id="Ay" d="M0 0h204.3v119.2H0z"/></defs><clipPath id="Az"><use xlink:href="#Ay"/></clipPath><path d="M68.5 17.8l.8 2.4h2.5l-2 1.5.7 2.4-2-1.5-2.1 1.5.8-2.4-2-1.5h2.5z" clip-path="url(#Az)" class="B"/><defs><path id="BA" d="M0 0h204.3v119.2H0z"/></defs><clipPath id="BB"><use xlink:href="#BA"/></clipPath><path d="M68.5 28.5l.8 2.4h2.5l-2 1.5.7 2.5-2-1.6-2.1 1.6.8-2.5-2-1.5h2.5z" clip-path="url(#BB)" class="B"/><defs><path id="BC" d="M0 0h204.3v119.2H0z"/></defs><clipPath id="BD"><use xlink:href="#BC"/></clipPath><path d="M68.5 39.2l.8 2.4h2.5l-2 1.5.7 2.5-2-1.5-2.1 1.5.8-2.5-2-1.5h2.5z" clip-path="url(#BD)" class="B"/><defs><path id="BE" d="M0 0h204.3v119.2H0z"/></defs><clipPath id="BF"><use xlink:href="#BE"/></clipPath><path d="M68.5 49.9l.8 2.5h2.5l-2 1.4.7 2.5-2-1.5-2.1 1.5.8-2.5-2-1.4h2.5z" clip-path="url(#BF)" class="B"/><defs><path id="BG" d="M0 0h204.3v119.2H0z"/></defs><clipPath id="BH"><use xlink:href="#BG"/></clipPath><path d="M76 12.7l.7 2.4h2.6l-2.1 1.5.8 2.5-2-1.5-2.1 1.5.8-2.5-2.1-1.5h2.6z" clip-path="url(#BH)" class="B"/><defs><path id="BI" d="M0 0h204.3v119.2H0z"/></defs><clipPath id="BJ"><use xlink:href="#BI"/></clipPath><path d="M76 23.4l.7 2.5h2.6l-2.1 1.5.8 2.4-2-1.5-2.1 1.5.8-2.4-2.1-1.5h2.6z" clip-path="url(#BJ)" class="B"/><defs><path id="BK" d="M0 0h204.3v119.2H0z"/></defs><clipPath id="BL"><use xlink:href="#BK"/></clipPath><path d="M76 34.1l.7 2.5h2.6l-2.1 1.5.8 2.4-2-1.5-2.1 1.5.8-2.4-2.1-1.5h2.6z" clip-path="url(#BL)" class="B"/><defs><path id="BM" d="M0 0h204.3v119.2H0z"/></defs><clipPath id="BN"><use xlink:href="#BM"/></clipPath><path d="M76 44.9l.7 2.4h2.6l-2.1 1.5.8 2.4-2-1.5-2.1 1.5.8-2.4-2.1-1.5h2.6z" clip-path="url(#BN)" class="B"/><defs><path id="BO" d="M0 0h204.3v119.2H0z"/></defs><clipPath id="BP"><use xlink:href="#BO"/></clipPath><path d="M83.5 7.1l.8 2.4h2.5l-2 1.5.8 2.4-2.1-1.5-2.1 1.5.8-2.4-2-1.5h2.5z" clip-path="url(#BP)" class="B"/><defs><path id="BQ" d="M0 0h204.3v119.2H0z"/></defs><clipPath id="BR"><use xlink:href="#BQ"/></clipPath><path d="M83.5 17.8l.8 2.4h2.5l-2 1.5.8 2.4-2.1-1.5-2.1 1.5.8-2.4-2-1.5h2.5z" clip-path="url(#BR)" class="B"/><defs><path id="BS" d="M0 0h204.3v119.2H0z"/></defs><clipPath id="BT"><use xlink:href="#BS"/></clipPath><path d="M83.5 28.5l.8 2.4h2.5l-2 1.5.8 2.5-2.1-1.6-2.1 1.6.8-2.5-2-1.5h2.5z" clip-path="url(#BT)" class="B"/><defs><path id="BU" d="M0 0h204.3v119.2H0z"/></defs><clipPath id="BV"><use xlink:href="#BU"/></clipPath><path d="M83.5 39.2l.8 2.4h2.5l-2 1.5.8 2.5-2.1-1.5-2.1 1.5.8-2.5-2-1.5h2.5z" clip-path="url(#BV)" class="B"/><defs><path id="BW" d="M0 0h204.3v119.2H0z"/></defs><clipPath id="BX"><use xlink:href="#BW"/></clipPath><path d="M83.5 49.9l.8 2.5h2.5l-2 1.4.8 2.5-2.1-1.5-2.1 1.5.8-2.5-2-1.4h2.5z" clip-path="url(#BX)" class="B"/></svg>