<?xml version="1.0" encoding="UTF-8"?><svg id="Ebene_2" xmlns="http://www.w3.org/2000/svg" xmlns:xlink="http://www.w3.org/1999/xlink" viewBox="0 0 83.18 48.52"><defs><style>.cls-1{fill:none;}.cls-2{clip-path:url(#clippath);}.cls-3{fill:#fff;}.cls-4{fill:#3e73b7;}.cls-5,.cls-6{fill:#292c2f;}.cls-7{clip-path:url(#clippath-1);}.cls-6,.cls-8{fill-rule:evenodd;}.cls-8{fill:#eac126;}</style><clipPath id="clippath"><rect class="cls-1" width="83.18" height="48.52"/></clipPath><clipPath id="clippath-1"><rect class="cls-1" width="83.18" height="48.52"/></clipPath></defs><g id="Layer_1"><g class="cls-2"><rect class="cls-3" width="83.18" height="48.52"/><path class="cls-4" d="M0,43.13H83.18v-5.39H0v5.39Zm0-10.78H83.18v-5.39H0v5.39Zm26.97-10.78h56.22v-5.39H26.97v5.39Zm0-10.78h56.22V5.39H26.97v5.39Z"/><g class="cls-7"><path class="cls-8" d="M13.52,13.52l.23,3.99c-3.67,2.66-1.41,4.22-4.06,5.08,1.8-1.8-.55-1.8,1.49-5.86"/><path class="cls-5" d="M13.6,13.52l.23,3.99h-.16l-.31-3.99h.23Zm.23,3.99h0v.08l-.08-.08h.08Zm0,.08c-1.95,1.41-2.19,2.5-2.42,3.28h-.23c.23-.86,.55-2.03,2.5-3.44l.16,.16Zm-2.42,3.28c-.23,.86-.39,1.41-1.64,1.8l-.08-.16c1.17-.39,1.33-.94,1.49-1.64h.23Zm-1.64,1.8l-.39,.16,.23-.23h.08l.08,.08Zm-.16-.08c.78-.86,.78-1.33,.63-1.95h.23c.08,.62,.16,1.17-.7,2.03l-.16-.08Zm.63-1.95c-.08-.78-.23-1.8,.86-3.91l.16,.08c-1.02,2.11-.94,3.05-.78,3.83h-.23Z"/><path class="cls-5" d="M12.27,16.56c-.94,1.64-1.17,2.89-1.25,3.91l-.23-.08c.16-.94,.39-2.27,1.33-3.91l.16,.08Zm-1.25,3.91c-.16,1.02-.31,1.8-1.25,2.19l-.08-.16c.86-.39,.94-1.09,1.1-2.11l.23,.08Z"/><path class="cls-8" d="M13.52,13.52l-.31-4.06c3.67-2.66,1.41-4.22,4.06-5.08-1.72,1.88,.55,1.88-1.48,5.86"/><path class="cls-5" d="M13.37,13.52l-.23-3.98,.16-.08,.31,4.06h-.23Zm-.23-3.98v-.08h.08l-.08,.08Zm0-.08c1.95-1.41,2.27-2.5,2.42-3.36l.24,.08c-.24,.86-.55,1.95-2.5,3.36l-.16-.08Zm2.42-3.36c.24-.78,.39-1.41,1.64-1.8l.08,.16c-1.17,.39-1.33,.94-1.48,1.72l-.24-.08Zm1.64-1.8l.39-.08-.23,.23-.08-.08-.08-.08Zm.16,.16c-.78,.86-.78,1.25-.62,1.88l-.23,.08c-.08-.7-.16-1.17,.7-2.11l.16,.16Zm-.62,1.88c.08,.78,.23,1.8-.86,3.98l-.16-.08c1.02-2.11,.94-3.12,.78-3.83l.23-.08Z"/><path class="cls-5" d="M14.69,10.39c.94-1.64,1.17-2.89,1.33-3.83h.16c-.16,1.02-.39,2.27-1.33,3.91l-.16-.08Zm1.33-3.83c.16-1.09,.23-1.8,1.17-2.27l.08,.16c-.86,.39-.94,1.1-1.09,2.11h-.16Z"/><path class="cls-8" d="M13.52,13.52l-4.06,.23c-2.66-3.67-4.22-1.41-5.08-4.06,1.88,1.8,1.8-.47,5.86,1.48"/><path class="cls-5" d="M13.52,13.6l-4.06,.31v-.23l3.99-.23,.08,.16Zm-4.06,.31h0l-.08-.08,.08-.08v.16Zm-.08-.08c-1.33-1.95-2.42-2.19-3.28-2.42v-.16c.94,.23,2.03,.47,3.44,2.5l-.16,.08Zm-3.28-2.42c-.78-.23-1.41-.39-1.8-1.64l.16-.08c.39,1.17,.94,1.33,1.64,1.56v.16Zm-1.8-1.64l-.16-.31,.31,.23h-.08l-.08,.08Zm.16-.08c.86,.78,1.25,.7,1.88,.62l.08,.16c-.7,.08-1.17,.16-2.11-.7l.16-.08Zm1.88,.62c.78-.16,1.8-.31,3.99,.78l-.16,.16c-2.11-1.02-3.05-.86-3.75-.78l-.08-.16Z"/><path class="cls-5" d="M10.4,12.35c-1.64-1.02-2.89-1.17-3.83-1.33v-.23c1.02,.16,2.27,.39,3.91,1.41l-.08,.16Zm-3.83-1.33c-1.09-.16-1.8-.31-2.27-1.25l.16-.08c.39,.86,1.09,1.02,2.11,1.09v.23Z"/><path class="cls-8" d="M13.52,13.52l3.99-.31c2.66,3.67,4.22,1.48,5.08,4.06-1.88-1.72-1.8,.55-5.86-1.49"/><path class="cls-5" d="M13.44,13.44l4.06-.31v.16l-3.99,.31-.08-.16Zm4.06-.31h.08l-.08,.08v-.08Zm.08,0c1.33,1.95,2.42,2.27,3.28,2.5v.16c-.94-.23-2.03-.55-3.44-2.5l.16-.16Zm3.28,2.5c.78,.16,1.41,.31,1.8,1.64h-.16c-.39-1.17-.94-1.33-1.64-1.49v-.16Zm1.8,1.64l.16,.31-.31-.23,.08-.08h.08Zm-.16,.08c-.78-.78-1.25-.71-1.88-.63l-.08-.16c.7-.16,1.17-.23,2.11,.62l-.16,.16Zm-1.88-.63c-.78,.08-1.8,.23-3.91-.86l.08-.16c2.11,1.09,3.05,.94,3.75,.86l.08,.16Z"/><path class="cls-5" d="M16.57,14.69c1.64,.94,2.89,1.17,3.91,1.33l-.08,.16c-.94-.16-2.27-.31-3.91-1.33l.08-.16Zm3.91,1.33c1.02,.16,1.72,.23,2.19,1.25l-.16,.08c-.39-.94-1.09-1.02-2.11-1.17l.08-.16Z"/><path class="cls-8" d="M13.52,13.52l-2.66,3.05c-4.53-.78-4.06,1.95-6.49,.7,2.58-.08,.94-1.64,5.16-3.13"/><path class="cls-5" d="M13.52,13.52l-2.58,3.05-.16-.08,2.66-3.05,.08,.08Zm-2.58,3.05l-.08,.08v-.08h.08Zm-.08,.08c-2.34-.39-3.36,.16-4.06,.63l-.16-.16c.78-.47,1.8-1.1,4.22-.71v.23Zm-4.06,.63c-.7,.39-1.25,.7-2.5,.08l.08-.16c1.17,.55,1.64,.31,2.27-.08l.16,.16Zm-2.5,.08l-.31-.16h.39v.08l-.08,.08Zm.08-.16c1.17-.08,1.41-.39,1.8-.94l.16,.16c-.39,.55-.7,.94-1.95,.94v-.16Zm1.8-.94c.47-.62,1.09-1.41,3.36-2.19l.08,.16c-2.27,.78-2.89,1.56-3.28,2.19l-.16-.16Z"/><path class="cls-5" d="M10.47,14.85c-1.88,.47-2.89,1.25-3.67,1.8l-.08-.16c.78-.55,1.8-1.33,3.67-1.8l.08,.16Zm-3.67,1.8c-.86,.63-1.41,1.1-2.42,.71v-.16c.94,.31,1.48-.08,2.34-.7l.08,.16Z"/><path class="cls-8" d="M13.52,13.52l2.58-3.05c4.53,.7,4.06-2.03,6.49-.78-2.58,.08-.94,1.72-5.16,3.12"/><path class="cls-5" d="M13.44,13.44l2.58-3.05,.16,.16-2.66,2.97-.08-.08Zm2.58-3.05h.08v.08l-.08-.08Zm.08,0c2.34,.39,3.36-.23,4.06-.62l.16,.16c-.78,.47-1.8,1.02-4.22,.62v-.16Zm4.06-.62c.78-.47,1.25-.7,2.5-.16l-.08,.16c-1.17-.55-1.64-.23-2.27,.16l-.16-.16Zm2.5-.16l.31,.16-.39,.08v-.16l.08-.08Zm-.08,.23c-1.17,0-1.41,.39-1.8,.86l-.16-.08c.47-.55,.7-.94,1.95-1.02v.23Zm-1.8,.86c-.47,.62-1.09,1.41-3.36,2.19l-.08-.16c2.27-.7,2.89-1.56,3.28-2.11l.16,.08Z"/><path class="cls-5" d="M16.49,12.11c1.88-.39,2.89-1.17,3.67-1.8l.08,.16c-.78,.62-1.8,1.41-3.67,1.87l-.08-.23Zm3.67-1.8c.86-.62,1.49-1.02,2.42-.7v.16c-.94-.31-1.49,.16-2.34,.7l-.08-.16Z"/><path class="cls-8" d="M13.52,13.52l-3.05-2.66c.7-4.53-2.03-4.06-.78-6.49,.08,2.58,1.72,.94,3.13,5.16"/><path class="cls-5" d="M13.44,13.6l-3.05-2.66,.16-.16,2.97,2.66-.08,.16Zm-3.05-2.66h0v-.08h.08l-.08,.08Zm0-.08c.31-2.34-.23-3.36-.62-4.06l.16-.08c.39,.78,1.02,1.72,.62,4.14h-.16Zm-.62-4.06c-.47-.7-.78-1.25-.16-2.42l.16,.08c-.55,1.1-.24,1.56,.16,2.27l-.16,.08Zm-.16-2.42l.16-.31v.31h-.16Zm.16,0c.08,1.17,.39,1.41,.94,1.8l-.08,.16c-.55-.39-.94-.7-1.02-1.96h.16Zm.94,1.8c.62,.47,1.41,1.09,2.19,3.36l-.16,.08c-.78-2.27-1.56-2.81-2.11-3.28l.08-.16Z"/><path class="cls-5" d="M12.12,10.47c-.39-1.87-1.17-2.89-1.8-3.67l.16-.08c.62,.78,1.41,1.8,1.88,3.75h-.23Zm-1.8-3.67c-.63-.86-1.02-1.41-.7-2.42h.16c-.31,.94,.08,1.49,.7,2.35l-.16,.08Z"/><path class="cls-8" d="M13.52,13.52l2.97,2.58c-.7,4.53,2.03,4.06,.78,6.49-.08-2.5-1.72-.86-3.13-5.16"/><path class="cls-5" d="M13.52,13.44l3.05,2.58-.08,.16-3.05-2.58,.08-.16Zm3.05,2.58l.08,.08-.08,.08-.08-.08,.08-.08Zm0,.16c-.31,2.35,.23,3.28,.62,4.06l-.16,.08c-.39-.78-1.02-1.8-.62-4.22l.16,.08Zm.62,4.06c.47,.7,.78,1.25,.16,2.42l-.16-.08c.55-1.09,.23-1.64-.16-2.27l.16-.08Zm.16,2.42l-.16,.31v-.39h.08l.08,.08Zm-.16-.08c-.08-1.09-.39-1.41-.94-1.8l.08-.08c.55,.39,.94,.62,1.02,1.87h-.16Zm-.94-1.8c-.62-.39-1.41-1.02-2.19-3.36h.16c.78,2.19,1.56,2.81,2.11,3.28l-.08,.08Z"/><path class="cls-5" d="M14.85,16.49c.47,1.88,1.17,2.89,1.8,3.67l-.16,.16c-.62-.86-1.41-1.87-1.8-3.75l.16-.08Zm1.8,3.67c.62,.86,1.02,1.48,.7,2.5l-.16-.08c.31-.94-.08-1.48-.7-2.27l.16-.16Z"/><polyline class="cls-8" points="13.52 13.52 15.24 13.52 13.52 23.36 11.72 13.52 13.52 13.52 13.52 23.36"/><path class="cls-5" d="M13.52,13.44h1.72v.16h-1.72v-.16Zm1.72,0h.16v.08h-.16v-.08Zm.16,.08l-1.8,9.85h-.23l1.8-9.85h.23Zm-1.8,9.85l-.08,.47-.16-.47h.23Zm-.23,0l-1.8-9.85h.23l1.8,9.85h-.23Zm-1.8-9.92h.16v.08h-.16v-.08Zm.16,0h1.8v.16h-1.8v-.16Zm1.8,0h.08v.08h-.08v-.08Zm.08,9.92h-.23V13.52h.23v9.85Z"/><polyline class="cls-8" points="13.52 13.52 11.72 13.52 13.52 3.59 15.24 13.52 13.52 13.52 13.52 3.59"/><path class="cls-5" d="M13.52,13.6h-1.8v-.16h1.8v.16Zm-1.8,0h-.16v-.08h.16v.08Zm-.16-.08l1.8-9.92,.23,.08-1.8,9.85h-.23Zm1.8-9.92l.16-.47,.08,.47h-.23Zm.23,0l1.8,9.92h-.23l-1.8-9.85,.23-.08Zm1.8,10h-.16v-.08h.16v.08Zm-.16,0h-1.72v-.16h1.72v.16Zm-1.72,0h-.16v-.08h.16v.08Zm-.16-10h.23V13.52h-.23V3.59Z"/><polyline class="cls-8" points="13.52 13.52 13.52 15.31 3.59 13.52 13.52 11.72 13.52 13.52 3.59 13.52"/><path class="cls-5" d="M13.6,15.31h-.23v-1.8h.23v1.8Zm0,0v.08h-.16l.08-.08h.08Zm-.16,.08l-9.85-1.8,.08-.16,9.85,1.8-.08,.16Zm-9.85-1.8l-.47-.08,.47-.08v.16Zm0-.16l9.85-1.8,.08,.16-9.85,1.8-.08-.16Zm9.85-1.8l.16-.08v.16h-.08l-.08-.08Zm.16,1.87h-.23v-1.8h.23v1.8Zm0,.08h-.08v-.08h.08v.08Zm-.08,0H3.59v-.16H13.52v.16Z"/><polyline class="cls-8" points="13.52 13.52 13.52 11.72 23.37 13.52 13.52 15.31 13.52 13.52 23.37 13.52"/><path class="cls-5" d="M13.37,11.72h.23v1.8h-.23v-1.8Zm0,0v-.16l.16,.08v.08h-.16Zm.16-.08l9.85,1.8-.08,.16-9.85-1.8,.08-.16Zm9.85,1.8l.47,.08-.47,.08v-.16Zm0,.16l-9.85,1.8-.08-.16,9.85-1.8,.08,.16Zm-9.85,1.8h-.16v-.08h.16v.08Zm-.16-1.87h.23v1.8h-.23v-1.8Zm0-.08h.16v.08h-.16v-.08Zm.16,0h9.85v.16H13.52v-.16Z"/><polyline class="cls-8" points="13.52 13.52 14.77 14.77 6.49 20.47 12.19 12.19 13.52 13.52 6.49 20.47"/><path class="cls-5" d="M13.52,13.44l1.33,1.25-.16,.16-1.25-1.25,.08-.16Zm1.33,1.25l.08,.08-.16,.08v-.08l.08-.08Zm-.08,.16l-8.21,5.71-.08-.16,8.21-5.7,.08,.16Zm-8.21,5.71l-.39,.31,.23-.47,.08,.08,.08,.08Zm-.16-.16l5.71-8.2,.16,.08-5.71,8.28-.16-.16Zm5.71-8.2l.08-.08,.08,.08h-.16Zm.16,0l1.25,1.25-.08,.16-1.33-1.33,.16-.08Zm1.25,1.25l.08,.08-.08,.08v-.16Zm0,.16l-6.96,6.96-.08-.16,6.96-6.95,.08,.16Z"/><polyline class="cls-8" points="13.52 13.52 12.19 12.19 20.48 6.49 14.77 14.77 13.52 13.52 20.48 6.49"/><path class="cls-5" d="M13.44,13.6l-1.33-1.33,.16-.08,1.25,1.25-.08,.16Zm-1.33-1.33v-.08h.08l-.08,.08Zm.08-.08l8.21-5.78,.08,.16-8.21,5.7-.08-.08Zm8.21-5.78l.39-.23-.23,.39-.08-.08-.08-.08Zm.16,.16l-5.71,8.28-.16-.16,5.71-8.2,.16,.08Zm-5.71,8.28l-.08,.08-.08-.08,.08-.08,.08,.08Zm-.16,0l-1.25-1.25,.08-.16,1.33,1.25-.16,.16Zm-1.25-1.25l-.08-.08,.08-.08,.08,.08-.08,.08Zm0-.16l6.96-6.95,.16,.08-7.04,7.03-.08-.16Z"/><polyline class="cls-8" points="13.52 13.52 12.19 14.77 6.49 6.49 14.77 12.19 13.52 13.52 6.49 6.49"/><path class="cls-5" d="M13.52,13.6l-1.25,1.25-.16-.16,1.33-1.25,.08,.16Zm-1.25,1.25l-.08,.08-.08-.08,.08-.08,.08,.08Zm-.16,0L6.41,6.56l.16-.08,5.71,8.2-.16,.16ZM6.41,6.56l-.23-.39,.39,.23-.08,.08-.08,.08Zm.16-.16l8.21,5.78-.08,.08L6.49,6.56l.08-.16Zm8.21,5.78h.16l-.08,.08-.08-.08Zm.08,.08l-1.33,1.33-.08-.16,1.25-1.25,.16,.08Zm-1.33,1.33h-.08l.08-.08v.08Zm-.08,0L6.49,6.56l.08-.08,6.96,6.95-.08,.16Z"/><polyline class="cls-8" points="13.52 13.52 14.77 12.19 20.48 20.47 12.19 14.77 13.52 13.52 20.48 20.47"/><path class="cls-5" d="M13.44,13.44l1.25-1.25,.16,.08-1.33,1.33-.08-.16Zm1.25-1.25l.08-.08,.08,.08h-.16Zm.16,0l5.71,8.2-.16,.16-5.71-8.28,.16-.08Zm5.71,8.2l.23,.47-.39-.31,.08-.08,.08-.08Zm-.16,.16l-8.21-5.71,.08-.16,8.21,5.7-.08,.16Zm-8.21-5.71l-.08-.08v-.08l.08,.08v.08Zm-.08-.16l1.33-1.25,.08,.16-1.25,1.25-.16-.16Zm1.33-1.25l.08-.08v.16l-.08-.08Zm.08,0l7.04,6.95-.16,.16-6.96-6.96,.08-.16Z"/><path class="cls-8" d="M16.8,13.52c0-1.87-1.49-3.28-3.28-3.28s-3.36,1.41-3.36,3.28,1.49,3.28,3.36,3.28,3.28-1.48,3.28-3.28"/><path class="cls-5" d="M16.65,13.52c0-.94-.31-1.72-.94-2.27l.16-.16c.62,.62,1.02,1.48,1.02,2.42h-.23Zm-.94-2.27c-.55-.62-1.33-.94-2.19-.94v-.23c.86,0,1.72,.39,2.35,1.02l-.16,.16Zm-2.19-.94c-.94,0-1.72,.31-2.27,.94l-.16-.16c.63-.62,1.49-1.02,2.42-1.02v.23Zm-2.27,.94c-.62,.55-.94,1.33-.94,2.27h-.23c0-.94,.39-1.8,1.02-2.42l.16,.16Zm-.94,2.27c0,.86,.31,1.64,.94,2.27l-.16,.08c-.62-.62-1.02-1.41-1.02-2.34h.23Zm.94,2.27c.55,.55,1.33,.94,2.27,.94v.16c-.94,0-1.8-.39-2.42-1.02l.16-.08Zm2.27,.94c.86,0,1.64-.39,2.19-.94l.16,.08c-.63,.62-1.49,1.02-2.35,1.02v-.16Zm2.19-.94c.62-.62,.94-1.41,.94-2.27h.23c0,.94-.39,1.72-1.02,2.34l-.16-.08Z"/><path class="cls-6" d="M15.87,12.19c-.16,.23-.31-.16-1.02-.16-.78,0-.86,.39-1.02,.31-.08-.08,.63-.62,.86-.62,.23-.08,.94,.16,1.17,.47"/><path class="cls-6" d="M15.01,12.42c.23,.23,.08,.62-.16,.62s-.62-.39-.39-.62"/><path class="cls-6" d="M14.07,12.74c0-.39,.31-.47,.78-.47s.7,.39,.86,.47c-.16,0-.39-.31-.86-.31s-.47,0-.78,.31"/><path class="cls-6" d="M14.15,12.81c.08-.16,.23,.16,.62,.16,.31,0,.47-.08,.7-.23,.16-.16-.31,.39-.62,.39s-.78-.23-.7-.31"/><path class="cls-6" d="M15.16,12.97c.39-.16,.16-.47,0-.55,.08,.08,.31,.39,0,.55"/><path class="cls-6" d="M13.52,14.77c.16,0,.23-.08,.47-.08s.78,.39,1.09,.23c-.7,.31-.39,.08-1.56,.08h-.16"/><path class="cls-6" d="M15.24,15.24c-.16-.23-.08-.16-.39-.55,.31,.23,.31,.31,.39,.55"/><path class="cls-6" d="M13.52,15.47c.7,0,.63-.16,1.56-.55-.7,.08-.86,.31-1.56,.31h-.16"/><path class="cls-6" d="M13.52,14.38c.16,0,.23-.16,.47-.16s.55,.08,.7,.23c.08,0-.08-.23-.31-.23-.23-.08-.16-.47-.39-.55,0,.16,.08,.16,.08,.31s-.24,.16-.31,0c.08,.23-.16,.23-.23,.23"/><path class="cls-6" d="M11.1,12.19c.16,.23,.31-.16,1.02-.16,.78,0,.86,.39,1.02,.31,.08-.08-.62-.62-.86-.62-.23-.08-.94,.16-1.17,.47"/><path class="cls-6" d="M11.96,12.42c-.23,.23-.08,.62,.16,.62s.62-.39,.39-.62"/><path class="cls-6" d="M12.9,12.74c0-.39-.31-.47-.78-.47s-.7,.39-.86,.47c.23,0,.39-.31,.86-.31s.47,0,.78,.31"/><path class="cls-6" d="M12.82,12.81c-.08-.16-.23,.16-.62,.16-.31,0-.47-.08-.7-.23-.16-.16,.31,.39,.63,.39,.39,0,.78-.23,.7-.31"/><path class="cls-6" d="M11.8,12.97c-.39-.16-.16-.47,0-.55-.08,.08-.31,.39,0,.55"/><path class="cls-6" d="M13.52,14.77c-.23,0-.31-.08-.55-.08s-.78,.39-1.09,.23c.7,.31,.39,.08,1.64,.08h.08"/><path class="cls-6" d="M11.72,15.24c.16-.23,.16-.16,.39-.55-.23,.23-.31,.31-.39,.55"/><path class="cls-6" d="M13.52,15.47c-.78,0-.62-.16-1.64-.55,.7,.08,.86,.31,1.64,.31h.08"/><path class="cls-6" d="M13.52,14.38c-.23,0-.31-.16-.55-.16s-.55,.08-.7,.23c-.08,0,.08-.23,.31-.23,.23-.08,.16-.47,.39-.55,0,.16-.08,.16-.08,.31s.23,.16,.31,0c-.08,.23,.16,.23,.31,.23"/><path class="cls-6" d="M13.52,15.78c-.16,0-.55,.08,0,.08,.47,0,.08-.08,0-.08"/></g></g></g></svg>