<?xml version="1.0" encoding="UTF-8"?><svg id="Ebene_2" xmlns="http://www.w3.org/2000/svg" xmlns:xlink="http://www.w3.org/1999/xlink" viewBox="0 0 83.18 48.52"><defs><style>.cls-1{fill:none;}.cls-2{clip-path:url(#clippath);}.cls-3{fill:#fff;}.cls-4{fill:#bc0030;}.cls-5{fill:#4497b1;}.cls-6{fill:#50b63f;}.cls-7{clip-path:url(#clippath-1);}</style><clipPath id="clippath"><rect class="cls-1" width="83.18" height="48.52"/></clipPath><clipPath id="clippath-1"><rect class="cls-1" width="83.18" height="48.52"/></clipPath></defs><g id="Layer_1"><g class="cls-2"><rect class="cls-5" width="83.18" height="15.53"/><rect class="cls-4" y="15.53" width="83.18" height=".97"/><rect class="cls-3" y="16.5" width="83.18" height="15.53"/><rect class="cls-4" y="32.03" width="83.18" height=".97"/><rect class="cls-6" y="33" width="83.18" height="15.53"/><g class="cls-7"><path class="cls-3" d="M19.41,7.76c0,3.21-2.61,5.82-5.82,5.82s-5.82-2.61-5.82-5.82S10.37,1.94,13.59,1.94s5.82,2.61,5.82,5.82"/><path class="cls-5" d="M21.06,7.76c0,2.68-2.17,4.85-4.85,4.85s-4.85-2.17-4.85-4.85,2.17-4.85,4.85-4.85,4.85,2.17,4.85,4.85"/><polygon class="cls-3" points="23.68 6.6 23.32 7.71 23.87 7.89 23.68 6.6"/><polygon class="cls-3" points="23.68 6.6 24.04 7.71 23.49 7.89 23.68 6.6"/><polygon class="cls-3" points="24.79 7.4 23.62 7.4 23.62 7.99 24.79 7.4"/><polygon class="cls-3" points="24.79 7.4 23.85 8.09 23.5 7.62 24.79 7.4"/><polygon class="cls-3" points="22.57 7.4 23.51 8.09 23.86 7.62 22.57 7.4"/><polygon class="cls-3" points="22.57 7.4 23.74 7.4 23.74 7.99 22.57 7.4"/><polygon class="cls-3" points="24.36 8.71 24 7.6 23.45 7.78 24.36 8.71"/><polygon class="cls-3" points="24.36 8.71 23.42 8.02 23.76 7.55 24.36 8.71"/><polygon class="cls-3" points="22.99 8.71 23.94 8.02 23.6 7.55 22.99 8.71"/><polygon class="cls-3" points="22.99 8.71 23.36 7.6 23.91 7.78 22.99 8.71"/><polygon class="cls-3" points="28.34 6.6 27.98 7.71 28.53 7.89 28.34 6.6"/><polygon class="cls-3" points="28.34 6.6 28.7 7.71 28.14 7.89 28.34 6.6"/><polygon class="cls-3" points="29.45 7.4 28.28 7.4 28.28 7.99 29.45 7.4"/><polygon class="cls-3" points="29.45 7.4 28.5 8.09 28.16 7.62 29.45 7.4"/><polygon class="cls-3" points="27.23 7.4 28.17 8.09 28.51 7.62 27.23 7.4"/><polygon class="cls-3" points="27.23 7.4 28.39 7.4 28.39 7.99 27.23 7.4"/><polygon class="cls-3" points="29.02 8.71 28.66 7.6 28.11 7.78 29.02 8.71"/><polygon class="cls-3" points="29.02 8.71 28.08 8.02 28.42 7.55 29.02 8.71"/><polygon class="cls-3" points="27.65 8.71 28.6 8.02 28.25 7.55 27.65 8.71"/><polygon class="cls-3" points="27.65 8.71 28.01 7.6 28.57 7.78 27.65 8.71"/><polygon class="cls-3" points="33 6.6 32.64 7.71 33.19 7.89 33 6.6"/><polygon class="cls-3" points="33 6.6 33.36 7.71 32.8 7.89 33 6.6"/><polygon class="cls-3" points="34.1 7.4 32.94 7.4 32.94 7.99 34.1 7.4"/><polygon class="cls-3" points="34.1 7.4 33.16 8.09 32.82 7.62 34.1 7.4"/><polygon class="cls-3" points="31.89 7.4 32.83 8.09 33.17 7.62 31.89 7.4"/><polygon class="cls-3" points="31.89 7.4 33.05 7.4 33.05 7.99 31.89 7.4"/><polygon class="cls-3" points="33.68 8.71 33.32 7.6 32.77 7.78 33.68 8.71"/><polygon class="cls-3" points="33.68 8.71 32.74 8.02 33.08 7.55 33.68 8.71"/><polygon class="cls-3" points="32.31 8.71 33.25 8.02 32.91 7.55 32.31 8.71"/><polygon class="cls-3" points="32.31 8.71 32.67 7.6 33.22 7.78 32.31 8.71"/><polygon class="cls-3" points="37.65 6.6 37.29 7.71 37.85 7.89 37.65 6.6"/><polygon class="cls-3" points="37.65 6.6 38.01 7.71 37.46 7.89 37.65 6.6"/><polygon class="cls-3" points="38.76 7.4 37.6 7.4 37.6 7.99 38.76 7.4"/><polygon class="cls-3" points="38.76 7.4 37.82 8.09 37.48 7.62 38.76 7.4"/><polygon class="cls-3" points="36.55 7.4 37.49 8.09 37.83 7.62 36.55 7.4"/><polygon class="cls-3" points="36.55 7.4 37.71 7.4 37.71 7.99 36.55 7.4"/><polygon class="cls-3" points="38.34 8.71 37.98 7.6 37.43 7.78 38.34 8.71"/><polygon class="cls-3" points="38.34 8.71 37.4 8.02 37.74 7.55 38.34 8.71"/><polygon class="cls-3" points="36.97 8.71 37.91 8.02 37.57 7.55 36.97 8.71"/><polygon class="cls-3" points="36.97 8.71 37.33 7.6 37.88 7.78 36.97 8.71"/><polygon class="cls-3" points="19.02 11.26 18.66 12.37 19.21 12.54 19.02 11.26"/><polygon class="cls-3" points="19.02 11.26 19.38 12.37 18.83 12.54 19.02 11.26"/><polygon class="cls-3" points="20.13 12.06 18.96 12.06 18.96 12.64 20.13 12.06"/><polygon class="cls-3" points="20.13 12.06 19.19 12.75 18.84 12.28 20.13 12.06"/><polygon class="cls-3" points="17.91 12.06 18.86 12.75 19.2 12.28 17.91 12.06"/><polygon class="cls-3" points="17.91 12.06 19.08 12.06 19.08 12.64 17.91 12.06"/><polygon class="cls-3" points="19.71 13.36 19.35 12.26 18.79 12.44 19.71 13.36"/><polygon class="cls-3" points="19.71 13.36 18.76 12.68 19.11 12.21 19.71 13.36"/><polygon class="cls-3" points="18.34 13.36 19.28 12.68 18.94 12.21 18.34 13.36"/><polygon class="cls-3" points="18.34 13.36 18.7 12.26 19.25 12.44 18.34 13.36"/><polygon class="cls-3" points="23.68 11.26 23.32 12.37 23.87 12.54 23.68 11.26"/><polygon class="cls-3" points="23.68 11.26 24.04 12.37 23.49 12.54 23.68 11.26"/><polygon class="cls-3" points="24.79 12.06 23.62 12.06 23.62 12.64 24.79 12.06"/><polygon class="cls-3" points="24.79 12.06 23.85 12.75 23.5 12.28 24.79 12.06"/><polygon class="cls-3" points="22.57 12.06 23.51 12.75 23.86 12.28 22.57 12.06"/><polygon class="cls-3" points="22.57 12.06 23.74 12.06 23.74 12.64 22.57 12.06"/><polygon class="cls-3" points="24.36 13.36 24 12.26 23.45 12.44 24.36 13.36"/><polygon class="cls-3" points="24.36 13.36 23.42 12.68 23.76 12.21 24.36 13.36"/><polygon class="cls-3" points="22.99 13.36 23.94 12.68 23.6 12.21 22.99 13.36"/><polygon class="cls-3" points="22.99 13.36 23.36 12.26 23.91 12.44 22.99 13.36"/><polygon class="cls-3" points="28.34 11.26 27.98 12.37 28.53 12.54 28.34 11.26"/><polygon class="cls-3" points="28.34 11.26 28.7 12.37 28.14 12.54 28.34 11.26"/><polygon class="cls-3" points="29.45 12.06 28.28 12.06 28.28 12.64 29.45 12.06"/><polygon class="cls-3" points="29.45 12.06 28.5 12.75 28.16 12.28 29.45 12.06"/><polygon class="cls-3" points="27.23 12.06 28.17 12.75 28.51 12.28 27.23 12.06"/><polygon class="cls-3" points="27.23 12.06 28.39 12.06 28.39 12.64 27.23 12.06"/><polygon class="cls-3" points="29.02 13.36 28.66 12.26 28.11 12.44 29.02 13.36"/><polygon class="cls-3" points="29.02 13.36 28.08 12.68 28.42 12.21 29.02 13.36"/><polygon class="cls-3" points="27.65 13.36 28.6 12.68 28.25 12.21 27.65 13.36"/><polygon class="cls-3" points="27.65 13.36 28.01 12.26 28.57 12.44 27.65 13.36"/><polygon class="cls-3" points="33 11.26 32.64 12.37 33.19 12.54 33 11.26"/><polygon class="cls-3" points="33 11.26 33.36 12.37 32.8 12.54 33 11.26"/><polygon class="cls-3" points="34.1 12.06 32.94 12.06 32.94 12.64 34.1 12.06"/><polygon class="cls-3" points="34.1 12.06 33.16 12.75 32.82 12.28 34.1 12.06"/><polygon class="cls-3" points="31.89 12.06 32.83 12.75 33.17 12.28 31.89 12.06"/><polygon class="cls-3" points="31.89 12.06 33.05 12.06 33.05 12.64 31.89 12.06"/><polygon class="cls-3" points="33.68 13.36 33.32 12.26 32.77 12.44 33.68 13.36"/><polygon class="cls-3" points="33.68 13.36 32.74 12.68 33.08 12.21 33.68 13.36"/><polygon class="cls-3" points="32.31 13.36 33.25 12.68 32.91 12.21 32.31 13.36"/><polygon class="cls-3" points="32.31 13.36 32.67 12.26 33.22 12.44 32.31 13.36"/><polygon class="cls-3" points="37.65 11.26 37.29 12.37 37.85 12.54 37.65 11.26"/><polygon class="cls-3" points="37.65 11.26 38.01 12.37 37.46 12.54 37.65 11.26"/><polygon class="cls-3" points="38.76 12.06 37.6 12.06 37.6 12.64 38.76 12.06"/><polygon class="cls-3" points="38.76 12.06 37.82 12.75 37.48 12.28 38.76 12.06"/><polygon class="cls-3" points="36.55 12.06 37.49 12.75 37.83 12.28 36.55 12.06"/><polygon class="cls-3" points="36.55 12.06 37.71 12.06 37.71 12.64 36.55 12.06"/><polygon class="cls-3" points="38.34 13.36 37.98 12.26 37.43 12.44 38.34 13.36"/><polygon class="cls-3" points="38.34 13.36 37.4 12.68 37.74 12.21 38.34 13.36"/><polygon class="cls-3" points="36.97 13.36 37.91 12.68 37.57 12.21 36.97 13.36"/><polygon class="cls-3" points="36.97 13.36 37.33 12.26 37.88 12.44 36.97 13.36"/></g></g></g></svg>