<?xml version="1.0" encoding="UTF-8"?><svg id="Ebene_2" xmlns="http://www.w3.org/2000/svg" xmlns:xlink="http://www.w3.org/1999/xlink" viewBox="0 0 83.18 48.52"><defs><style>.cls-1{fill:none;}.cls-2{clip-path:url(#clippath);}.cls-3{fill:#f3cd2d;}.cls-4{fill:#f5cd28;}.cls-5{fill:#c0003b;}.cls-6{fill:#3d9546;}.cls-7{clip-path:url(#clippath-1);}</style><clipPath id="clippath"><rect class="cls-1" width="83.18" height="48.52"/></clipPath><clipPath id="clippath-1"><rect class="cls-1" width="83.18" height="48.52"/></clipPath></defs><g id="Layer_1"><g class="cls-2"><rect class="cls-5" width="83.18" height="24.26"/><rect class="cls-6" y="24.26" width="83.18" height="24.26"/><polygon points="0 0 0 48.52 47.06 24.26 0 0"/><rect y="19.92" width="83.18" height="8.68"/><polygon class="cls-4" points="0 45.08 40.37 24.26 0 3.45 0 45.08"/><rect class="cls-4" y="22.98" width="83.18" height="2.55"/><polygon points="0 42.2 34.8 24.26 0 6.32 0 42.2"/><g class="cls-7"><path class="cls-3" d="M9.83,28.9v2.76c2.4,0,7.12-1.84,7.12-7.78s-5.04-7.04-6.54-7.04-6.16,1.08-6.16,5.93,4.56,5.3,5.46,5.3,4.27-.81,3.89-4.45c0,1.03-1.17,3.21-3.62,3.21s-3.98-1.82-3.98-3.62,1.48-4.2,4.07-4.2,4.47,2.29,4.47,4.61-1.82,5.26-4.72,5.26h0Z"/><path class="cls-3" d="M7.72,25.3l.14,.09s1.14-2.6,4.2-4.44c-.39,.21-2.44,1.23-4.34,4.35h0Z"/><path class="cls-3" d="M7.88,25.46l-.18-.12c.83-1.44,2.26-3.31,4.3-4.4h0c-.61,.36-1.16,.78-1.66,1.22,.47-.42,1.02-.84,1.66-1.22l.09,.05c-3.01,1.82-4.17,4.4-4.18,4.42l-.02,.05h0Zm.93-1.65c-.42,.53-.77,1.05-1.05,1.51l.08,.02c.07-.14,.37-.75,.97-1.54h0Z"/><path class="cls-3" d="M8.02,24.86s-.35-.72-.04-1.04c.31-.32,.17,.85,.17,.85l.13-.19s-.21-.89,.03-1.07c.24-.18,.12,.85,.12,.85l.14-.19s-.15-.86,.07-1.02c.23-.16,.09,.81,.09,.81l.17-.19s-.13-.82,.15-1.01c.28-.19,.03,.78,.03,.78l.19-.2s-.08-.75,.15-.92c.23-.17,.03,.71,.03,.71l.17-.18s-.05-.7,.18-.86c.23-.16,.02,.67,.02,.67l.18-.17s-.04-.7,.24-.84c.29-.13-.05,.66-.05,.66l.19-.17s.06-.82,.3-.89c.24-.07-.11,.72-.11,.72l.18-.14s.09-.7,.36-.78c.27-.08-.17,.64-.17,.64l.18-.13s.2-.7,.45-.78c.25-.08-.26,.66-.26,.66l.17-.12s.28-.63,.51-.67c.23-.04-.25,.52-.25,.52l.21-.13s.36-.66,.49-.46c.13,.2-.51,.5-.51,.5l-.21,.12s.77-.36,.86-.18c.09,.19-1.05,.3-1.05,.3l-.19,.13s.77-.21,.67-.02c-.09,.2-.85,.15-.85,.15l-.18,.13s.77-.19,.67,0c-.1,.18-.85,.16-.85,.16l-.19,.15s.75-.19,.64,.03c-.11,.23-.96,.22-.96,.22l-.21,.2s.79-.27,.72-.06c-.07,.21-.97,.32-.97,.32l-.2,.2s.85-.29,.6-.03c-.25,.26-.87,.33-.87,.33l-.24,.29s.84-.51,.72-.22c-.12,.29-.94,.48-.94,.48l-.17,.2s.76-.44,.68-.19c-.08,.24-.88,.51-.88,.51l-.13,.19s.89-.53,.82-.26c-.08,.27-.93,.46-.93,.46l-.11,.17s.83-.47,.83-.24c0,.23-.97,.46-.97,.46l-.02-.19Z"/><path class="cls-3" d="M12.57,25.3l-.14,.09s-1.14-2.6-4.2-4.44c.39,.21,2.44,1.23,4.34,4.35h0Z"/><path class="cls-3" d="M12.41,25.46l-.02-.04s-1.17-2.61-4.18-4.42l.03-.02v-.02s.01-.04,.01-.04c.01,0,.03,.02,.04,.03h0c2.04,1.09,3.47,2.96,4.31,4.34l-.2,.18h0Zm-1.2-1.99c.76,.92,1.15,1.68,1.24,1.87l.1-.07c-.35-.54-.79-1.17-1.34-1.8h0Z"/><path class="cls-3" d="M12.28,24.86s.35-.72,.04-1.04c-.31-.32-.17,.85-.17,.85l-.14-.19s.21-.89-.03-1.07c-.23-.18-.12,.85-.12,.85l-.14-.19s.15-.86-.08-1.02c-.23-.16-.08,.81-.08,.81l-.17-.19s.13-.82-.15-1.01c-.28-.19-.04,.78-.04,.78l-.18-.2s.08-.75-.15-.92c-.24-.17-.03,.71-.03,.71l-.17-.18s.05-.7-.18-.86c-.23-.16-.02,.67-.02,.67l-.18-.17s.04-.7-.24-.84c-.29-.13,.05,.66,.05,.66l-.19-.17s-.06-.82-.3-.89c-.25-.07,.11,.72,.11,.72l-.18-.14s-.09-.7-.36-.78c-.27-.08,.17,.64,.17,.64l-.18-.13s-.19-.7-.45-.78c-.25-.08,.26,.66,.26,.66l-.17-.12s-.28-.63-.51-.67c-.23-.04,.25,.52,.25,.52l-.21-.13s-.36-.66-.49-.46c-.13,.2,.51,.5,.51,.5l.21,.12s-.77-.36-.86-.18c-.09,.19,1.05,.3,1.05,.3l.18,.13s-.77-.21-.67-.02c.09,.2,.85,.15,.85,.15l.18,.13s-.77-.19-.66,0c.1,.18,.85,.16,.85,.16l.19,.15s-.75-.19-.64,.03c.11,.23,.96,.22,.96,.22l.21,.2s-.79-.27-.72-.06c.07,.21,.97,.32,.97,.32l.2,.2s-.85-.29-.6-.03c.25,.26,.87,.33,.87,.33l.24,.29s-.84-.51-.72-.22c.12,.29,.94,.48,.94,.48l.17,.2s-.76-.44-.68-.19c.08,.24,.88,.51,.88,.51l.13,.19s-.89-.53-.82-.26c.08,.27,.93,.46,.93,.46l.11,.17s-.83-.47-.84-.24c0,.23,.97,.46,.97,.46l.02-.19Z"/></g></g></g></svg>