<?xml version="1.0" encoding="UTF-8"?><svg id="Ebene_2" xmlns="http://www.w3.org/2000/svg" xmlns:xlink="http://www.w3.org/1999/xlink" viewBox="0 0 83.18 48.52"><defs><style>.cls-1{fill:none;}.cls-2{clip-path:url(#clippath);}.cls-3{fill:#fff;}.cls-4{fill:#df7a21;}.cls-5{fill:#cb0423;}.cls-6{fill:#3e8b11;}.cls-7{clip-path:url(#clippath-1);}</style><clipPath id="clippath"><rect class="cls-1" width="83.18" height="48.52"/></clipPath><clipPath id="clippath-1"><rect class="cls-1" width="83.18" height="48.52"/></clipPath></defs><g id="Layer_1"><g class="cls-2"><rect class="cls-6" width="83.18" height="48.52"/><rect class="cls-4" x="73.42" y="19.92" width="9.76" height="28.6"/><rect x="63.67" y="19.91" width="9.75" height="28.61"/><rect class="cls-5" x="53.72" y="19.93" width="9.96" height="28.6"/><g class="cls-7"><path class="cls-4" d="M76.64,7.1s3.67-1.57,4.03-1.89c.16,.19-1.47,2.17-4.64,2.9,2.88-.68,5.34-2.82,5.84-2.75,.15,.03,.11,2.09-6.49,3.87,4.56-1.2,7.22-3.4,7.18-3.16,.03,.05-.45,1.73-4.45,3.04,1.12-.26,4.14-2.1,4.11-1.75,.1,.15-2.93,4.03-8.4,2.77,4.37,1.13,7.2-1.6,7.61-1.55,.08,.02-.81,2.4-6.31,2.54,2.64-.28,1.88-.02,1.88-.02,0,0-1.55,1.21-3.43,.39,1.47,.4,1.63,.42,1.67,.55-.1,.16-1.31,.4-2.48-.23,.94,.39,1.78,.45,1.8,.6-.02,.05-.62,.39-1.15,.15-.53-.24-5.45-3.27-5.45-3.27l8.38-2.3,.31,.11Z"/><path d="M73.82,12.71c-.16,0-.31-.03-.44-.09-.53-.24-5.26-3.15-5.46-3.27-.02-.01-.04-.04-.03-.07,0-.03,.02-.05,.05-.06l8.38-2.3,.35,.12c1.21-.54,3.68-1.63,3.96-1.88,.01-.01,.04-.01,.05-.02,.02,0,.04,0,.05,.02,.01,.02,.03,.1,.02,.12-.04,.2-.38,.64-.98,1.13,.28-.17,.54-.33,.78-.47,.65-.4,1.08-.66,1.3-.66,.03,0,.12,.09,.12,.12,.04,.25-.16,.79-.97,1.45,.4-.23,.73-.42,.97-.57,.38-.23,.51-.31,.58-.31,.01,.01,.09,.08,.08,.1-.05,.26-.34,.78-1.06,1.38,.3-.14,.49-.21,.6-.21,.02,0,.09,.02,.1,.04,0,0,.03,.12,.02,.12-.04,.14-.39,.61-1.02,1.14,.06-.03,.11-.04,.15-.04,.04,0,.09,.05,.08,.09-.01,.28-.87,1.87-4.34,2.42,0,0,0,0,0,.01,0,.06-.04,.11-.15,.15-.01,.02-.8,.62-1.94,.67,.15,.05,.2,.1,.22,.18-.07,.16-.39,.25-.77,.27,.06,.03,.09,.07,.1,.11-.03,.12-.42,.31-.8,.31h0Zm-5.7-3.4c.8,.49,4.84,2.96,5.31,3.18,.41,.19,1.02-.08,1.06-.12-.05,.01-.27-.04-.5-.1-.46-.06-.89-.19-1.28-.4-.03-.02-.05-.06-.03-.09,.02-.03,.05-.05,.09-.03,.47,.19,.93,.31,1.23,.38,.63,.07,1.13-.08,1.16-.13h0s-.14-.04-.64-.18c-.33-.04-.67-.13-.99-.27-.03-.02-.05-.05-.04-.09,.01-.03,.05-.05,.08-.04l.98,.27c.11,.01,.23,.02,.34,.02,1.07,0,1.88-.54,2.02-.64-.03,0-.07,0-.12,0-.53,.07-1.09,.11-1.69,.13-.04-.01-.07-.03-.07-.07,0-.04,.02-.07,.06-.07,.8-.08,1.37-.13,1.69-.13,3.64-.47,4.55-2.1,4.56-2.33-.02,.06-.24,.19-.5,.34-.27,.16-.62,.37-1.05,.58-.54,.28-1.11,.5-1.69,.66-1.41,.39-2.87,.4-4.32,.02-.04,0-.06-.05-.05-.08,0-.04,.05-.06,.08-.05,1.47,.34,2.91,.33,4.25-.02,.56-.16,1.1-.37,1.66-.65,1.6-.83,2.38-1.9,2.4-2.02-.17,.02-.86,.37-1.27,.57-.57,.36-1.26,.69-2.05,.99-.27,.11-.51,.2-.7,.25-.04,0-.07-.01-.08-.05,0-.04,0-.07,.05-.08,.24-.08,.47-.16,.69-.24,.51-.22,1.14-.53,1.71-.82l.33-.17c1.33-.83,1.65-1.59,1.67-1.73-.02,.06-.22,.18-.45,.32-.47,.29-1.25,.76-2.3,1.27-.89,.48-2.02,.93-3.36,1.33-.32,.1-.65,.19-.99,.28h0s-.08-.01-.08-.05c0-.04,.01-.08,.05-.09,.35-.09,.67-.19,.99-.28,1.13-.35,2.26-.8,3.34-1.33,2.07-1.11,2.19-2.04,2.14-2.14-.16,.02-.62,.3-1.21,.66-.62,.38-1.39,.85-2.27,1.27-.71,.37-1.49,.65-2.3,.84-.04,0-.08-.02-.08-.05,0-.04,.01-.08,.05-.08h0c.72-.17,1.46-.44,2.27-.83,1.37-.71,2.1-1.52,2.28-1.84-.77,.46-3.76,1.74-3.9,1.8l-.36-.11-8.18,2.26h0Z"/><path class="cls-4" d="M66.79,15.29c-.74,0-.76,.65-.76,.65,0,0-.06,.05-.02,.37,.12-.21,.18-.28,.18-.28,.08,.01,.42,.12,.95-.3-.49,.51-.2,.7-.2,.7,0,0-.12,.4,.26,.48-.11-.16-.05-.3-.05-.3,0,0,.52-.05,.49-.69,.02,.57,.33,.72,.33,.72,0,0,0,.32,.34,.34-.18-.16-.14-.41-.14-.41,0,0,.44-.32,.07-.86,.22-.13,.4-.49,.4-.49,0,0-.3-.13-.45-.24-.07-.14,0-.92,0-.92l-.18-1.01-.52,1.57c.02-.22,.03,.68-.7,.68h0Z"/><path d="M68.32,17.04s0,0,0,0c-.31-.02-.4-.27-.4-.4-.03,0-.17-.07-.26-.33-.12,.27-.38,.34-.46,.36,.02,.02,0,.1,.07,.2,.02,.02,.02,.05,0,.08-.02,.02-.05,.03-.07,.03-.12-.03-.21-.09-.27-.18-.08-.13-.06-.29-.05-.36-.02,0-.07-.06-.08-.16-.01-.09,.01-.18,.06-.28-.24,.12-.53,.13-.65,.11,0,.02-.06,.1-.14,.24-.02,.03-.04,.04-.07,.03-.03,0-.05-.03-.06-.06-.04-.3,0-.4,.04-.43-.02,0,.04-.67,.8-.67,.51,0,.61-.47,.63-.6,0,0,0-.01,0-.02,0-.01,0-.03,.02-.05l.51-1.54s.04-.04,.07-.05c.03,0,.06,.03,.06,.06l.18,1.01c-.02,.33-.04,.82,0,.9,.11,.08,.41,.2,.41,.2,.02,0,.03,.02,.04,.04,0,.02,0,.04,0,.05,0,.01-.16,.32-.37,.47,.31,.52-.06,.84-.12,.89,.02,0,0,.19,.14,.31,.02,.02,.03,.05,.02,.08-.01,.03-.04,.04-.06,.04h0Zm-.67-1.19s.06,.02,.07,.05c.03,.52,.28,.65,.29,.66,.03,.06,.04,.18,.13,.26-.05-.14-.03-.27-.03-.28,.04-.06,.41-.33,.08-.81-.01-.02-.01-.04-.01-.05,0-.02,.02-.04,.03-.05,.15-.08,.28-.29,.34-.39-.1-.05-.28-.13-.39-.21-.09-.18-.05-.85-.04-.98l-.13-.72-.43,1.29h0s-.07,.74-.78,.74c-.66,0-.69,.56-.69,.59,0,.03-.03,.06-.03,.13,.05-.07,.07-.1,.07-.1,.12-.01,.16,0,.23,0,.22,0,.47-.1,.73-.31,.03-.03,.07-.02,.09,0,.02,.03,.02,.07,0,.1-.23,.24-.27,.39-.26,.48,0,.08,.05,.11,.05,.11,.03,.08-.02,.24,.05,.35,0,.02,.02,.03,.03,.04-.02-.11,.02-.19,.02-.19,.07-.04,.5-.1,.48-.63,0-.04,.03-.08,.07-.08h0Z"/><path class="cls-4" d="M70.43,13.03s.55,.62,1.07,.58c.19-.16-.4-.52-.4-.6,.21,.19,1.1,.96,1.67,.68,.23-.32-.4-.28-1.1-1.15,.49,.32,1.7,1.04,2.27,.76,.24-.26-1.26-1.07-1.76-1.7l-1.3-.66-1.76,1.44,1.33,.65Z"/><path d="M72.48,13.82c-.29,0-.62-.15-.88-.33,0,.01,0,.03,0,.04,0,.02-.05,.12-.06,.13h-.03c-.55,0-1-.45-1.13-.58l-1.31-.64s-.04-.03-.04-.05c0-.02,0-.05,.03-.06l1.76-1.44,1.37,.66c.23,.28,.64,.59,.99,.86,.51,.38,.82,.63,.83,.82,0,.02-.03,.12-.04,.13-.54,.28-1.35-.15-1.91-.47,.2,.18,.38,.29,.51,.38,.16,.1,.27,.17,.29,.28,.01,.06,0,.12-.06,.2-.12,.07-.22,.09-.33,.09h0Zm-1.39-.88s.03,0,.05,.02c.15,.14,1.09,.9,1.59,.67,0-.12-.1-.18-.22-.26-.22-.14-.55-.35-.9-.79-.02-.03-.02-.07,0-.09,.02-.03,.06-.03,.09-.01,.24,.16,1.66,1.01,2.2,.76-.03-.15-.43-.46-.79-.73-.36-.28-.77-.59-.99-.87l-1.27-.64-1.6,1.36,1.23,.6c.28,.29,.66,.58,1,.58,.01-.09-.17-.24-.26-.32-.12-.1-.17-.15-.17-.21,0-.03,.02-.05,.04-.06,0,0,.02,0,.03,0h0Z"/><path class="cls-4" d="M68.44,8.11s.6-.36,2.99-.18c.26,.03,1.63-.47,2.07-.62,.7-.13,2.91-.62,3.51-1.07,.42-.05-.11,.78-.65,.97-.57,.26-2.62,.97-3.35,.88,.87,.02,.39,.73-1.07,.39,.7,.39,.44,.45,.44,.45,0,0-1.23,.06-1.55-.21,.83,.31,.49,.42,.49,.42,0,0-.84,.08-1.23-.1,.6,.18,.29,.29,.29,.29,0,0-.49,.08-.89-.06-.41-.15-1.02-1.17-1.05-1.17h0Z"/><path d="M70.06,9.43c-.22,0-.42-.03-.59-.09-.33-.12-.74-.71-.97-1.03-.05-.08-.09-.13-.1-.14-.03,0-.04-.01-.05-.04,0-.03,.03-.05,.05-.07,.02-.01,.63-.37,3.03-.19h0c.28,0,1.24-.33,1.75-.51l.29-.1c.91-.17,2.95-.65,3.49-1.06,.18-.02,.25,.04,.26,.12,.04,.25-.4,.81-.84,.97-.5,.23-2.01,.76-2.93,.87,.05,.05,.06,.11,.06,.14-.01,.21-.5,.42-1.23,.33,.19,.14,.21,.22,.21,.28,0,.03-.07,.1-.1,.11-.02,0-.53,.03-.98-.02,.02,.03,.03,.07,.03,.1,0,.03-.09,.12-.12,.13-.02,0-.5,.04-.82,0,0,.01,0,.03,0,.04,0,.07-.07,.12-.12,.15-.01,0-.15,.03-.34,.03h0Zm-1.51-1.29s.04,.05,.06,.09c.18,.26,.62,.88,.9,.98,.15,.05,.34,.08,.55,.08,.18,0,.31-.02,.31-.02,.02,0,0-.04-.14-.1-.06-.01-.11-.03-.17-.06-.03-.02-.05-.05-.04-.09,.01-.04,.05-.06,.08-.04,.07,.02,.12,.04,.17,.06,.15,.04,.35,.06,.6,.06s.43-.02,.43-.02c0,0,0-.06-.19-.15-.14-.03-.26-.08-.33-.14-.03-.02-.03-.06-.02-.09,.02-.03,.05-.04,.08-.03,.14,.05,.25,.1,.33,.14,.42,.1,1.12,.07,1.19,.07-.02,0-.07-.1-.46-.32-.03-.02-.04-.05-.03-.09,.01-.03,.05-.05,.08-.04,.26,.06,.5,.09,.71,.09,.48,0,.7-.15,.7-.22,0-.03-.06-.09-.24-.11-.04,0-.09,0-.14,0-.04,0-.06-.04-.06-.07,0-.04,.03-.07,.07-.07h0c.05,0,.1,0,.14,0,.83,0,2.69-.65,3.18-.88,.41-.15,.78-.66,.76-.82-.65,.42-2.85,.91-3.58,1.05l-.28,.1c-.76,.26-1.53,.52-1.78,.52-.51-.04-.92-.05-1.26-.05-1.01,0-1.48,.12-1.65,.19h0Z"/><path class="cls-4" d="M69.4,13.36l.09,1.58s-.05,.08-.09,.13c-.04,.05-1.12-.17-.97,.66,0,.34,0,.43,.24,.62-.06-.22-.04-.38-.04-.38,0,0,.3,.18,.6-.32-.2,.49-.06,.67-.01,.68,.05,.09-.08,.49,.33,.48-.16-.15-.08-.37-.08-.37,0,0,.43-.07,.28-.84,.16-.15,.22,0,.22,0,0,0,.05,.46,.42,.37,.17,.09-.03,.34-.03,.34,0,0,.27,0,.35-.22,.08-.23,.18-.64-.27-.81-.05-.16,.18-.18,.18-.18,0,0,.28,.09,.37,.24,.08,.14,.05-.37-.3-.43-.43-.01-.46-.1-.46-.12,0-.02-.07-1.15-.11-1.47l-.7,.05Z"/><path d="M69.52,16.88c-.36,0-.37-.29-.37-.44,0,0-.07-.15-.07-.15-.03-.06-.06-.16-.03-.34-.15,.12-.29,.12-.37,.11,0,.06,.01,.15,.04,.26,0,.03,0,.06-.03,.08-.03,.02-.06,.01-.08,0-.25-.21-.26-.32-.26-.67-.04-.2,0-.37,.1-.49,.17-.21,.5-.23,.73-.23h.15s.09-.1,.09-.1l-.1-1.54,.76-.12c.11,.38,.18,1.49,.18,1.54,0,0,.06,.04,.39,.06,.31,.05,.41,.37,.4,.5,0,.06-.14,.09-.17,.03-.06-.1-.25-.18-.33-.2,0,0-.07,.02-.09,.05,.21,.09,.47,.33,.27,.9-.09,.26-.38,.27-.41,.27-.03,0-.05-.02-.06-.04-.01-.02,0-.05,0-.07,.03-.04,.09-.14,.08-.2-.37-.02-.47-.31-.49-.46-.02,.31-.04,.56-.16,.73-.08,.12-.19,.16-.24,.17,.02,.02,0,.15,.1,.25,.02,.02,.03,.05,.02,.08-.01,.03-.04,.04-.06,.04h0Zm-.3-1.3s.02,0,.03,0c.03,.02,.05,.06,.03,.09-.17,.41-.08,.57-.05,.59,.06,.07,.06,.12,.06,.18,0,.13,.01,.23,.1,.27-.05-.14,0-.28,0-.29,.06-.05,.15-.06,.22-.17,.09-.13,.11-.35,.06-.63,.2-.31,.32-.11,.35-.05,0,.03,.04,.33,.26,.33,.02,0,.11-.01,.13,0,.05,.03,.09,.08,.1,.13,.01,.06,0,.12-.03,.18,.06-.02,.12-.07,.15-.15,.13-.38,.06-.61-.23-.72-.07-.12-.05-.17-.03-.21,.06-.09,.21-.1,.22-.1,.04,0,.18,.06,.29,.14,0-.02-.02-.04-.04-.06-.05-.07-.12-.12-.2-.13-.12,0-.52-.02-.52-.19,0-.04-.07-1.15-.11-1.47l-.62,.11,.15,1.51s-.06,.13-.1,.18c-.01,.02-.1,.03-.12,.03h-.15c-.12,0-.47,0-.62,.18-.08,.09-.1,.22-.07,.39,0,.22,0,.32,.06,.42,0-.11,0-.17,0-.17,0-.02,.02-.04,.04-.05,.02-.01,.05,0,.07,0,0,0,.25,.14,.51-.29,.01-.02,.04-.03,.06-.03h0Z"/><path class="cls-4" d="M70.9,14.71c0-.07-.74-1.07-.55-1.2,.19,.04,.5,.49,.75,.35-.08-.18-.3-.08-.55-.53-.25-.51-.29-1.29-1.18-2.13,.58,.89,1.88,1.41,1.94,1.15,.05-.26-1.15-1.24-1.09-1.48,.24,.49,1.45,1.57,2.34,1.48,.06-.21-.73-.63-.93-1.02-.57-.38-2.1-1.7-2.13-2-.55-.81-.9-1.05-1.06-1.15-.06-.07-.08-.14-.09-.19-.34-.81,.11-1.08,.38-1.12,.22-.03,.28,0,.44-.07-.19-.07-.38-.14-.56-.21,.24,.18,.87,.02,.73,.54,.27-.1,.86-.8-.66-.95-.49-.56-2.52-.89-3.03,1.58,.04,.04,.06,.06,.19,.16-.64-.31-2.37-.55-2.99-.65-1.68-.48-3.43-1.65-3.6-1.51-.22,.1,1.02,1.25,.95,1.28-1.08-.63-2.06-1.07-2.97-1.48-.64-.24-1.29-.8-1.36-.69-.24,.49,1.03,1.72,1.27,1.87,.24,.14,2.09,1,2.06,1.01-2.79-1.27-3.26-1.5-3.4-1.64-.25-.05-.85-.87-1.01-.81-.09,.09,.09,1.37,1.43,1.94,.22,.16,2.86,1.11,2.83,1.18,0,.02-3.02-1.24-3.14-1.29-.58-.23-1.3-1.03-1.43-.94-.13,.08,.33,.95,.92,1.22,.31,.14,1.49,.72,2.56,1.1,.07,.02-1.91-.75-2.87-1.15-.43-.24-.64-.54-.7-.47-.1,.06,.16,1.34,3.22,2.06,.08,.03,1.08-.24,1.03-.2-.01,0-.99,.22-1.09,.21-.08-.01-.62,.06-.63,.09-.03,.09,.19,.54,1.78,.45,.2-.01,1.3-.4,1.21-.32-.05,.04-1.49,.51-1.6,.52-.1,.01-.6,.07-.62,.12-.02,.07,.38,.4,1.23,.45,.75,.04,2.18-.46,2.15-.43-.03,.03-1.38,.5-1.41,.52-.05,.03-.54,.05-.56,.09-.04,.09,.71,.8,2.94,.05-.22,.3-1.3,.51-1.3,.56,0,.04,.24,.27,.62,.36,.19,.04,.45,.03,.68,0,.42-.09,.87-.25,1.44-.78,.07,.16-1.42,.92-1.35,.99,.32,.3,1.39-.04,1.46-.08,.07-.04,2.06-1.16,2.05-1.29,.03,.17-2.57,1.58-2.54,1.63,.17,.27,1.05-.01,1.09-.04,.04-.02,1.13-.61,1.16-.63,.03-.02-1.28,.77-1.16,.88-.06,.51,2.05-.35,2.21-.46,.08-.05-1.01,.48-1.01,.73,.35,.6,1.48,.41,1.65,.28,.09-.06-.1,.44-.04,.4,.02,0,.25-.27,.33-.46-.03,.17-.15,.43-.22,.73-.07,.3-.09,.64-.19,1-.02,.16,.69-.31,.59-1.43,.06,.58-.23,1.67-.15,1.72,.15,.11,.57-.54,.61-.98,.12,.22,.38,.69,.61,.8-.02-.34,0-.32-.1-.65,.06-.44,.07-1.05,.08-1.74,.61,1.16,.85,1.65,.68,2.54,.18,.08,.47-.62,.45-.98,.23,1,1.23,1.14,1.25,1.12h0Z"/><path d="M70.88,14.77c-.14,0-.89-.17-1.2-.9-.05,.26-.17,.55-.3,.68-.05,.05-.1,.08-.15,.08-.02,0-.09-.05-.08-.07,.15-.8-.03-1.25-.57-2.31-.01,.61-.02,1.13-.08,1.53,.08,.23,.08,.29,.09,.45v.19c-.26-.05-.48-.38-.62-.63-.1,.39-.4,.89-.6,.89-.13-.06-.12-.15-.05-.59,0-.03,.01-.07,.02-.11-.15,.27-.33,.41-.42,.41-.01-.01-.08-.08-.08-.09,.06-.21,.09-.4,.12-.59,.02-.15,.04-.29,.08-.42,.03-.12,.07-.24,.1-.34-.06,.08-.11,.13-.13,.14-.1-.05-.09-.09-.05-.24,.02-.06,.04-.17,.04-.19-.03,.1-.33,.18-.66,.18-.28,0-.78-.06-1-.44,0-.12,.13-.26,.3-.39-.59,.21-1.3,.4-1.47,.22-.02-.03-.05-.07-.04-.14,0-.07,.1-.17,.24-.29l-.16,.08c-.05,.03-1.01,.27-1.17,.02-.02-.05-.03-.06,.21-.22-.4,.1-.98,.15-1.18-.04,0-.08,.04-.14,.22-.26-.09,.03-.18,.05-.26,.06-.25,.04-.52,.04-.7,0-.36-.08-.67-.32-.66-.42,0-.05,.05-.07,.32-.15,.2-.06,.49-.15,.71-.25-.54,.16-1.03,.24-1.45,.24-.74,0-1.1-.24-1.18-.37,0-.02-.03-.08-.02-.1,.02-.04,.07-.06,.36-.09,.09,0,.2-.02,.23-.03,0,0,.06-.03,.3-.11-.32,.07-.66,.13-.93,.13-.82-.05-1.25-.29-1.35-.44,0-.14,.06-.18,.58-.24,.05,0,.19-.04,.37-.1-1.27,.05-1.6-.25-1.68-.37-.04-.06-.05-.12-.04-.16,.02-.06,.28-.09,.47-.11-2.22-.57-2.93-1.46-3.01-1.92-.02-.09,0-.14,.03-.17,.12-.02,.17,.03,.28,.12,.11,.09,.27,.23,.49,.35,0,0,.01,0,.02,0-.41-.3-.72-.83-.73-1.05,0-.02,.03-.11,.05-.12,.16-.01,.3,.1,.57,.32,.11,.09,.24,.19,.36,.29-.49-.48-.62-1.03-.65-1.17-.02-.1-.04-.27,.02-.33,.16-.01,.33,.13,.58,.39,.18,.18,.39,.39,.49,.41,.1,.1,.35,.23,1.12,.6-.42-.37-1.34-1.34-1.12-1.8,.17-.05,.29,.03,.53,.19,.26,.16,.57,.36,.9,.48,.85,.38,1.76,.79,2.73,1.34-.04-.04-.08-.08-.11-.12-.5-.54-.73-.81-.7-.95,0,0,.12-.09,.12-.09,.15,0,.48,.17,.99,.43,.7,.35,1.65,.83,2.58,1.1l.24,.04c.68,.11,1.88,.29,2.54,.53,.34-1.86,1.48-2.05,1.95-2.05s.9,.17,1.12,.42c.62,.05,.98,.22,1.01,.5,.03,.25-.22,.48-.37,.54-.05-.17-.05-.24-.08-.29-.01-.02-.04-.04-.06-.06,0,0-.01,.02-.02,.02-.12,.06-.19,.06-.29,.06-.05,0-.1,0-.17,.01-.06,0-.27,.05-.39,.25-.11,.19-.09,.45,.05,.78,.02,.06,.03,.12,.08,.17,.3,.17,.66,.56,1.07,1.15,.04,.28,1.47,1.56,2.11,1.99,.11,.2,.34,.39,.55,.56,.25,.21,.45,.38,.41,.52-.08,.04-.12,.05-.16,.05-.47,0-1-.27-1.42-.6,.23,.26,.36,.43,.33,.55,0,.04-.04,.11-.19,.11-.23,0-.69-.18-1.12-.49,.18,.31,.28,.6,.36,.86,.06,.17,.11,.32,.17,.46,.14,.26,.27,.32,.38,.38,.07,.04,.14,.07,.18,.16-.06,.1-.11,.11-.16,.11-.15,0-.3-.12-.43-.23-.08-.07-.16-.14-.22-.15,0,.02,.04,.19,.45,.85,.14,.22,.17,.27,.16,.31l-.07,.05h0Zm-1.23-1.23s.05,.02,.05,.04c.19,.81,.92,1.04,1.13,1.07-.04-.03-.1-.11-.14-.19-.31-.5-.54-.9-.38-1.01,.12,0,.21,.08,.31,.16,.12,.1,.25,.2,.36,.2h0s0-.02-.07-.05c-.11-.06-.26-.13-.43-.42-.07-.14-.12-.3-.18-.47-.11-.33-.24-.71-.53-1.12-.19-.16-.34-.34-.47-.53-.02-.02-.01-.06,.01-.07,.02-.02,.05-.02,.07,0,.18,.17,.34,.35,.47,.54,.49,.43,1.07,.67,1.3,.67,.1-.12-.23-.48-.47-.73-.36-.39-.58-.63-.54-.77,0-.02,.02-.04,.05-.04,.02,0,.05,0,.06,.03,.25,.5,1.44,1.54,2.29,1.45-.03-.03-.25-.22-.42-.36-.21-.18-.45-.38-.56-.58-.48-.31-2.1-1.68-2.13-2.02-.39-.55-.74-.93-1.04-1.11-.08-.09-.1-.16-.11-.21-.16-.37-.17-.67-.05-.89,.14-.24,.39-.3,.47-.31,.08,0,.13-.01,.18-.01,.04,0,.07,0,.1,0l-.11-.04c-.15-.05-.25-.07-.32-.12-.02-.02-.03-.05-.02-.07,.01-.02,.04-.04,.07-.02l.32,.1c.17,.03,.34,.06,.42,.19,.05,.08,.06,.18,.02,.31,.04-.11,.25-.3,.23-.49-.03-.21-.36-.36-.95-.42-.2-.2-.59-.4-1.08-.4-.45,0-1.53,.19-1.89,1.93,.04,0,.08,.03,.17,.1,.02,.02,.03,.05,.01,.07-.02,.02-.05,.03-.07,.02-.56-.27-1.97-.49-2.72-.61l-.25-.04c-.95-.27-1.91-.76-2.6-1.11-.44-.22-.82-.41-.94-.41-.04,.1,.45,.63,.66,.85,.29,.31,.32,.34,.3,.39-1.15-.58-2.13-1.03-3.05-1.43-.33-.12-.65-.33-.91-.49-.17-.1-.34-.21-.39-.21-.19,.42,1.02,1.63,1.27,1.78,.12,.07,.67,.33,1.17,.57,.57,.27,.79,.38,.87,.43,0,0,.01,0,.02,0h0s.03,.04,.03,.05c-.02,0-.03-.01-.05-.02l-.04,.06s-.48-.24-.88-.43c-.18-.09-.37-.18-.54-.26-1.63-.7-1.88-.84-1.99-.96-.11-.01-.31-.21-.52-.42-.16-.16-.37-.37-.44-.37,.01,.01,.01,.21,.12,.49,.13,.35,.47,.98,1.32,1.35,.03,.02,.1,.06,.3,.14l.15,.06c.27,.11,.64,.25,1,.39,1.45,.56,1.44,.57,1.41,.65-.02,0-.04,.01-.08,0h-.01s-.02,0-.03,0c-.2-.05-.72-.27-2.33-.94l-.14-.06h0s0,0,0,0c-.34-.14-.58-.24-.61-.25-.32-.12-.66-.41-.94-.63-.18-.15-.38-.31-.44-.31-.03,.09,.36,.87,.91,1.12l.28,.13c.26,.12,.65,.3,1.08,.49l.84,.33c.15,.06,.25,.1,.3,.12,.01,0,.03,.01,.04,.02h0s.04,.04,.04,.06c-.02,0-.04,0-.06-.01l-.02,.05s-.15-.06-.37-.15l-.15-.06c-.24-.08-.46-.17-.67-.27-.58-.23-1.24-.49-1.68-.68-.23-.13-.39-.27-.51-.37-.06-.05-.13-.11-.15-.11,.01,0,.01,.1,.1,.27,.18,.33,.83,1.16,3.11,1.7,.11-.01,.22-.03,.33-.05l.36-.08c.22-.05,.3-.07,.33-.07,0,.02,.05,.09,.03,.1-.03,.02-.69,.16-.7,.16-.12,.03-.23,.05-.3,.05-.06,0-.1,.01-.12,.01-.16,0-.55,.06-.6,.08,.17,.17,.53,.42,1.74,.35,.09,0,.41-.1,.67-.18,.31-.09,.48-.15,.54-.15,0,.02,.06,.09,.04,.11-.07,.06-1.55,.53-1.64,.54-.38,.05-.55,.08-.59,.1,.04,.03,.4,.31,1.19,.36h0c.66,0,1.56-.26,1.94-.38,.33-.1,.23-.06,.25-.02,0,.02,0,.04,0,.06-.02,.02-.06,.04-.84,.32-.29,.1-.55,.2-.58,.21-.03,.02-.1,.03-.27,.05-.1,.01-.26,.03-.29,.04,.04,.03,.37,.29,1.12,.29,.51,0,1.1-.11,1.77-.34,.02,0,.05,0,.06,.02,.01,.02,.01,.05,0,.07-.16,.22-.7,.38-1.06,.49-.11,.03-.23,.07-.25,.08,.03-.01,.24,.19,.59,.27,.17,.04,.43,.03,.66,0,.39-.08,.83-.23,1.41-.76,.14,.14-.07,.29-.76,.71-.21,.13-.47,.29-.5,.33,.07,.02,.2,.05,.4,.05,.42,0,.95-.17,.99-.19,.55-.3,1.95-1.12,2.03-1.26,0-.03,.02-.05,.05-.05,0-.01,.05,.02,.06,.05,.02,.11-.21,.28-1.71,1.16-.39,.23-.8,.47-.84,.51-.02,0,.13,.03,.28,.03,.3,0,.71-.13,.74-.15l.26-.14c.34-.18,.88-.47,.9-.49,.02-.02,.06,0,.08,.02,.02,.03,0,.06-.02,.08h0c-.62,.37-1.12,.73-1.14,.82,.04,.09,.08,.12,.2,.12,.41,0,1.27-.31,1.75-.52,.19-.1,.21-.1,.22-.1,.02,0,.04,.02,.05,.04,0,.02,0,.05-.02,.07-.03,.02-.1,.05-.2,.1-.46,.24-.79,.49-.79,.59,.19,.31,.65,.36,.9,.36,.32,0,.59-.07,.66-.12,.13,.05,.11,.11,.07,.28,0,.01,0,.03-.01,.04,.05-.1,.16-.25,.21-.37,.01-.03,.04-.04,.07-.03,.03,0,.04,.04,.04,.06-.01,.08-.05,.19-.09,.32-.04,.12-.09,.26-.13,.42-.03,.13-.05,.27-.08,.41-.03,.19-.06,.39-.12,.59,.05-.05,.4-.36,.47-.97,.01-.14,.02-.27,.01-.39h0s.01-.08,.04-.09c.02-.01,.04-.01,.05-.01,0,0,.01,0,.01,.02h0c.02,.24,0,.37,0,.5-.02,.25-.06,.51-.1,.74-.03,.2-.07,.43-.06,.47,.11-.01,.47-.54,.51-.96,0-.02,.02-.04,.04-.05,.03,0,.05,0,.06,.03,.11,.21,.38,.67,.58,.77l-.09-.14c0-.15,0-.2-.08-.45,.05-.43,.06-.97,.08-1.61v-.15s.02-.05,.05-.05c.03,0,.05,0,.06,.03,.59,1.13,.86,1.65,.68,2.58l.04-.11c.14-.15,.31-.61,.29-.88,0-.03,.02-.05,.05-.06h0Z"/><path class="cls-4" d="M60.8,7.34s-.41,.31-.93,.29c.13,.51,1.19,.12,1.19,.12,0,0-.51,.57-.88,.66,.22,.18,1.15,.12,1.3,.03,.16-.09,.43-.45,.43-.45,0,0-.95,1.1-1.09,1.09-.02,.13,1,.08,1.21-.11,.21-.19,.74-.48,.74-.48,0,0-1.39,.97-1.46,.97,.52,.14,1.57-.16,2.24-.58-.99,.66-1.08,.78-1.59,1,.45,.1,.68,.4,2.2-.26,.87-.41,1.37-1.17,1.37-1.17-.54,.72-1.39,1.34-2.34,1.95-.05,.11,1.01,.56,2.37-.85l-4.77-2.22Z"/><path d="M63.68,10.61c-.24,0-.41-.06-.47-.1-.02-.02-.07-.1-.05-.13,.34-.22,.67-.44,.99-.68-1.25,.53-1.62,.41-1.98,.3-.07-.02-.13-.04-.21-.06-.02,0-.04-.03-.04-.05,0-.02,.01-.05,.03-.06,.34-.15,.49-.25,.88-.52,.02-.01,.04-.03,.05-.04-.57,.22-1.19,.35-1.58,.24-.03,0-.04-.03-.04-.06,0-.03,.03-.05,.06-.05,.03-.01,.19-.12,.4-.26-.33,.07-.77,.08-.9,.01-.02-.01-.06-.07-.06-.09,.09-.04,.32-.26,.58-.54-.33,.06-1,.09-1.2-.08,.25-.12,.55-.41,.73-.58-.24,.06-.63,.14-.87,.01-.1-.05-.16-.13-.19-.24,.54-.05,.94-.35,.95-.35,.02-.02,.06-.01,.08,.01,.02,.02,.01,.06-.01,.08-.02,.01-.45,.34-.96,.3,.08,0,.12,.06,.19,.1,.31,.16,.98-.08,.99-.09,.03,0,.05,0,.07,.02,.01,.02,.01,.05,0,.07-.02,.02-.53,.58-.91,.68,.21,.06,1.11,.01,1.26-.08,.03-.02,.06-.04,.09-.08,.11-.12,.22-.24,.32-.36,.02-.03,.06-.03,.08,0,.02,.02,.03,.05,0,.08,0,.01-.17,.22-.32,.36-.32,.36-.69,.73-.81,.75,.16,0,.99-.04,1.16-.21,.21-.19,.73-.47,.75-.48,.03-.01,.06,0,.07,.02,.02,.03,0,.06-.02,.08-.79,.55-1.15,.79-1.33,.9,.51,.05,1.41-.21,2.04-.6,.03-.01,.06,0,.08,.02,.02,.03,0,.06-.02,.08-.3,.2-.52,.35-.7,.47-.33,.23-.5,.34-.76,.47,.02,0,.04,.01,.07,.02,.34,.11,.7,.23,1.95-.31,.3-.14,.55-.33,.76-.5,.22-.21,.42-.42,.59-.64,.02-.02,.05-.03,.08-.01,.02,.02,.03,.05,.01,.08-.01,.02-.23,.35-.63,.69-.5,.46-1.11,.88-1.71,1.26,.03-.01,.13,.03,.31,.05,.28,.03,1.04,0,1.98-.99,.02-.02,.06-.02,.08,0,.02,.02,.02,.06,0,.08-.79,.83-1.49,1.02-1.93,1.02h0Z"/><path class="cls-4" d="M68.18,10.4s.09,.43,.46,.76c.37,.33,.39,.65,.39,.65l-.85-1.41Z"/><path d="M69.03,11.87s-.05-.02-.06-.05c0,0-.03-.31-.38-.62-.38-.34-.47-.77-.48-.79,0-.03,.01-.06,.04-.07,.03,0,.06,.01,.07,.04,0,0,.09,.42,.44,.73,.38,.34,.41,.68,.41,.69,0,.03-.02,.06-.05,.06h0Z"/><path class="cls-4" d="M67.99,7.59s.13,.38,.5,.63c.39,.25,.96,1.03,1.01,1.17,.04,.17,.27,1.37,.25,1.49l-1.76-3.29Z"/><path d="M69.75,10.94h0s-.05-.03-.05-.06c.02-.11-.2-1.29-.25-1.47-.04-.13-.61-.89-.99-1.13-.39-.26-.52-.65-.53-.66,0-.03,0-.06,.04-.07,.03,0,.06,0,.07,.04,0,0,.13,.37,.48,.6,.4,.26,.98,1.05,1.03,1.2,.04,.15,.27,1.38,.25,1.52,0,.03-.03,.05-.06,.05h0Z"/><path class="cls-4" d="M65.65,8.19c.03,.15-.54,.89,.24,1.76-.71,.86-.71,.97-.71,.97,0,0,.39,.22,1.1-.38,1.16,1.43,.78,2.09,.78,2.09l-1.41-4.44Z"/><path d="M67.06,12.68s-.02,0-.03,0c-.03-.01-.04-.05-.02-.08,0,0,.35-.65-.77-2.02-.65,.63-1.07,.41-1.09,.4-.03-.13,.23-.5,.69-1.06-.63-.64-.4-1.27-.29-1.58,.02-.05,.04-.12,.04-.14,0-.03,.02-.06,.05-.06,.04,0,.06,.01,.06,.04,0,.05-.01,.1-.05,.2-.11,.3-.32,.87,.27,1.53-.57,.75-.67,.96-.69,1.01,0,0,.04,0,.08,0,.14,0,.46-.03,.93-.42,1.25,1.45,.88,2.13,.86,2.16,0,.02-.03,.03-.05,.03h0Z"/><path class="cls-4" d="M66.97,11.61s-.11-.15,.08-.73c.17,.21,.36,.25,.45,.34,.08,.08,.96,.21,1.02,.8l-1.55-.41Z"/><path d="M68.52,12.08s-.05-.02-.06-.05c-.04-.41-.54-.58-.81-.68-.11-.04-.17-.06-.19-.09-.02-.02-.07-.05-.12-.08-.09-.05-.22-.12-.33-.26-.08,.51,0,.66,0,.66,.02,.03,0,.06-.02,.08-.03,.02-.06,0-.08-.01-.01-.02-.12-.19,.08-.78,.2,.11,.31,.17,.4,.22,.06,.03,.1,.06,.14,.09,.01,.01,.09,.04,.15,.06,.29,.1,.84,.29,.88,.77,0,.03-.02,.06-.05,.06h0Z"/><path class="cls-4" d="M74.31,7.96s1.97,.44,2.62,.23c-.83,1.1-2.48,.36-2.48,.36,.81,.24,.84,.23,1.1,.45,.08,.21-1.49,.11-2.01-.18,1.44,.45,1.47,.42,1.52,.6,.06,.24-2.36-.06-2.57-.39,.65,.5,1,.6,1.36,.83-.44,.19-1.25,.39-2.73-.66,1.96,1.78,3.72,1.67,4,1.99-.68,1-3.32-.6-4.53-1.41-1.21-.81,2.65,1.96,3.01,1.91-.18,.28-1.46,.03-1.54-.1l2.25-3.62Z"/><path d="M73.14,11.87h-.02c-.41,0-1.03-.13-1.1-.25l.1-.06c.06,.06,.69,.22,1.15,.19,.1,0,.17-.02,.21-.04-.64-.23-2.79-1.78-3.12-2.03,0,0,0,0,0,0h0s-.03-.03-.03-.03c.05-.1,.05-.1,.32,.08,1.12,.75,3.8,2.38,4.45,1.42-.07-.02-.29-.08-.61-.16-.75-.19-2.02-.52-3.38-1.76-.02-.02-.02-.05,0-.08,.02-.02,.05-.03,.08-.01,1.44,1.02,2.22,.86,2.68,.66-.12,.02-.24-.04-.37-.1-.24-.12-.5-.26-.86-.52-.07-.04-.12-.08-.15-.12-.01-.02-.01-.05,0-.07,.02-.02,.05-.02,.07,0,.05,.04,.09,.07,.13,.1,.24,.12,.81,.25,1.43,.32,.6,.07,.89,.04,.92,0-.03-.09-.03-.09-.76-.31l-.08-.03c-.27-.05-.51-.12-.66-.21-.03-.01-.04-.04-.02-.07,.01-.03,.04-.04,.07-.03l.65,.2c.56,.1,1.23,.11,1.29,.03-.14-.11-.21-.14-.43-.21-.37-.07-.64-.19-.64-.19-.03-.01-.04-.04-.03-.07,.01-.03,.04-.04,.07-.03l.3,.09c.14,.04,.24,.07,.33,.1,.5,.1,1.2,.11,1.68-.4-.77,.11-2.44-.24-2.5-.27l.04-.1c.09,.03,1.96,.42,2.59,.23,.02,0,.05,0,.06,.02,.01,.02,.01,.05,0,.07-.41,.54-1.01,.65-1.53,.61,.04,.03,.09,.07,.15,.12,.01,.01,.01,.05,.01,.07,0,.02-.01,.05-.03,.07-.08,.07-.4,.09-.77,.07,.26,.09,.29,.13,.32,.25,0,.03-.04,.11-.07,.12-.22,.09-1.33,0-2.04-.19,.19,.12,.35,.2,.49,.27,.13,.07,.25,.13,.37,.21-.41,.26-1.03,.42-2.07-.12,1.09,.79,2.06,1.04,2.68,1.2,.34,.09,.57,.15,.67,.26-.49,.77-1.92,.24-3.21-.47,.75,.5,1.53,.99,1.64,.96,.02,0,.04,0,.05,.03,.01,.02,.01,.04,0,.06-.07,.1-.24,.15-.51,.15h0Z"/><path class="cls-4" d="M74.81,9.82c-.23,.03-.91,.03-1,.02l1-.02Z"/><path d="M74.15,9.91c-.17,0-.31,0-.35-.01-.03,0-.05-.03-.05-.06,0-.03,.04-.05,.06-.05,.09,.02,.77,.01,.99-.02,.03,0,.06,.02,.06,.05,0,.03-.02,.06-.05,.06-.14,.02-.43,.03-.67,.03h0Z"/><path class="cls-4" d="M60.23,7.04s1.48,.78,2.1,.72c-.17,.16-.41,.22-.41,.22,.16,.06,.59,.29,1.24,.15-.16,.16-.36,.33-.36,.33,0,0,.56,.21,1.19-.12-.19,.24-.3,.41-.3,.41l.44,.03-3.9-1.74Z"/><path d="M64.13,8.84h0l-.44-.03c-.03-.06,.02-.18,.13-.33-.56,.21-1.01,.04-1.03,.03-.01-.07,.09-.18,.21-.3-.52,.07-.88-.09-1.05-.16-.02,0-.06-.04-.06-.07,0-.02,0-.05,.02-.06,0,0,.13-.04,.26-.11-.69-.06-1.91-.7-1.96-.73-.03-.01-.04-.05-.02-.08,.02-.03,.05-.04,.08-.02,.01,0,1.48,.79,2.07,.72,.02,0,.05,.01,.06,.03,0,.02,0,.05-.01,.06-.09,.09-.21,.15-.3,.18,.24,.1,.59,.2,1.07,.09,.03,0,.05,0,.06,.03,.01,.02,0,.05,0,.07-.12,.12-.27,.25-.33,.31,.05,0,.15,0,.28,0,.21,0,.51-.03,.82-.19,.02-.01,.05,0,.07,.01,.02,.02,.02,.05,0,.07-.19,.23-.3,.41-.3,.41l.4-.06s.05,.03,.05,.06c0,.03-.03,.05-.06,.05h0Z"/><path class="cls-3" d="M40.78,31.55s.17-.08,.06-.08c-.05,0-.17,.08-.06,.08h0Z"/></g></g></g></svg>