<svg xmlns="http://www.w3.org/2000/svg" viewBox="0 0 13.12 13.12" xmlns:v="https://vecta.io/nano"><circle cx="6.56" cy="6.56" r="6.56" fill="#fff"/><circle cx="6.56" cy="6.56" r="6.08" fill="#c6cde0"/><path d="M8.95 6.53s.02.02.04.03c-.06.04-.11.09-.17.13l-.95.71h4.5c.04-.27.06-.55.06-.84a5.83 5.83 0 0 0-.06-.84h-4.5l1.08.81z"/><path d="M10.67 10.75H3.4l-.51.38a5.81 5.81 0 0 0 3.67 1.29h.01a5.79 5.79 0 0 0 4.1-1.67zm0-8.38A5.84 5.84 0 0 0 6.56.7a5.81 5.81 0 0 0-3.67 1.29l.51.39h7.27z" fill="#176533"/><path d="M5.64 4.05h6.22c-.3-.63-.71-1.19-1.2-1.68H3.4l2.24 1.68zM5.2 9.41l-1.8 1.35h7.26a5.92 5.92 0 0 0 1.2-1.68H5.64l-.44.33z" fill="#fdd106"/><path d="M5.64 9.08h6.23a5.86 5.86 0 0 0 .51-1.68h-4.5L5.64 9.08zm.28-4.82l1.95 1.46h4.49a5.65 5.65 0 0 0-.51-1.68H5.64c.09.08.19.15.28.22z" fill="#d21f26"/><path d="M5.2 9.41l.44-.33L7.87 7.4l.95-.71c.06-.04.11-.09.17-.13-.02 0-.03-.02-.04-.03l-1.08-.81-1.95-1.46-.28-.21L3.4 2.37l-.51-.38-.22.18 5.86 4.39-5.85 4.39.22.18.51-.38L5.2 9.41z"/><path d="M8.52 6.57l-5.85-4.4C1.46 3.25.69 4.82.69 6.56a5.83 5.83 0 0 0 1.98 4.39l5.85-4.38z" fill="#fff"/><path d="M1.16 5.43l.11.08 1.42 1.03c0 .01.02.02 0 .03l-.55 1.69c0 .04-.02.07-.03.11l1.55-1.12 1.55 1.13a.84.84 0 0 1-.04-.12L4.69 6.8c-.02-.08-.04-.15-.07-.23-.01-.02 0-.02.01-.03l1.51-1.09c.01 0 .01-.01.03-.02H4.28s-.03-.01-.04-.03l-.58-1.78V3.6c0 .05-.02.09-.03.12l-.49 1.51-.06.17c0 .02 0 .03-.03.03H1.16z" fill="#d21f26"/><path d="M3.54 4.76c-.06-.06-.14-.1-.22-.09s-.16.05-.2.12c-.05 0-.09 0-.14.01-.04.01-.08.03-.1.07-.03.04-.03.09 0 .13h.16c.06.03.1.1.1.17l.02.64c-.03.06-.05.13-.05.2a1.14 1.14 0 0 0 .02.26.25.25 0 0 1-.07.23 1.91 1.91 0 0 0-.24.32c-.05.08-.04.2.02.27l.19.71H4.4l.08-.6a.78.78 0 0 1 .38-.61h.05s.07 0 .09-.03.01-.07-.02-.1L3.69 5.45l-.03-.42c0-.1-.05-.2-.11-.27" fill="#fdd106"/><path d="M3.52 4.77h0l.03-.02h0l-.03.02zm0 0s0-.02-.02-.02l.02-.03.03.03-.03.02zm0-.05h0zm-.02.03s-.02-.02-.03-.02l.02-.03s.02.01.03.02l-.02.03zm-.03-.02s-.09-.05-.15-.04v-.04c.06 0 .12.01.18.05l-.03.03zm-.15-.04h0v-.03h0v.03zm0-.04h0 0zm0 .04h-.03v-.03l.03-.01v.04zm-.03 0s-.02.01-.03.01v-.03s0-.01.02-.01v.03zm-.02 0s-.1.05-.12.1l-.04-.02c.04-.05.09-.09.15-.11v.03zm-.12.1h-.01l.01-.01zm-.01.02v-.04h0v.04h0zm0 0h0 0zm0 0h-.02v-.04h.02v.04zm-.02 0H3.1v-.04h.02v.04zm-.02 0s-.06 0-.09.01v-.04s.06-.01.09-.01v.04zm-.09.01h0v-.04h0v.04h0zm0-.04h0 0 0zm0 .04h-.02v-.03h0v.03zm0 0l-.02-.02s0-.01.02-.01v.03zm-.02-.02h0v.02zm.02.03s-.05.03-.06.05h-.03s.04-.07.07-.08l.02.03zm-.09.04h.02-.02zm.03.01h-.03.03zm-.03-.01h.02-.02 0zm.03.01l-.03.01.03-.02zm-.04.02h.02-.02 0zm.03.01v.02H2.9V4.9h.03zm-.04.02h0zm.04 0v.08l-.04.02s-.02-.07 0-.1h.04zm-.01.11h-.02l.02-.02v.02zm0-.04h.16v.03h-.15V5zm.16-.01h0 0zm0 .01v.03h0V5h0zm0 0s.02 0 .03.02l-.03.03s0-.02-.02-.02L3.09 5zm.03.02s0 .01.02.02l-.03.02h-.02l.03-.03zm.02.02a.37.37 0 0 0 .06.15h-.04c0-.05-.02-.09-.05-.13l.03-.02zm.06.15l.02.64h-.04v-.64h.02zm.02.64h0zm0 .01h-.04v-.02l.04.02zm-.04-.01h.02-.02 0zm.03.01v.03h-.03v-.04h.03zm-.04.03h.02-.02zm.03 0v.03h-.03v-.04h.03zm0 .04s-.02.09-.02.13h-.04c0-.05 0-.1.02-.15l.04.02h0zm-.02.13h-.03.03zm0 .01v.04h-.04v-.04h.04zm.01.04v.04h-.04v-.04h.04zm0 .03c0 .06 0 .12.02.17h-.04c0-.05-.02-.11-.02-.17h.04zm0 .18h0zm0 0h0zm0 0v.04h-.04v-.03h.04zm0 .02v.04h-.03v-.03h.03zm0 .03c0 .07-.04.13-.09.17l-.02-.02s.06-.09.07-.15h.04zm-.09.17h0zm0 0l-.02-.02h0l.02.02zm0 0h-.02.02zm0 0s-.02.03-.03.04l-.03-.02s.02-.03.04-.04l.02.02zm-.06.02h0zm.03.02l-.04.04L3 6.58s.02-.03.04-.04l.03.02zM3 6.58h0 0zm.03.02c-.06.08-.12.15-.16.23h-.03a1.38 1.38 0 0 1 .17-.25l.02.02zm-.19.22h.02-.02 0zm.03.01h-.03.03zm0 0s-.02.02-.02.03h-.03s0-.04.02-.05l.03.02zm-.02.03v.04h-.04v-.05h.04zm0 .05c0 .06 0 .13.05.18l-.03.03c-.05-.07-.07-.14-.06-.22h.04zm.05.19h-.02.02zm0 .01l.18.71h-.03l-.18-.7h.03zm.17.72l-.02-.02h.02v.02zm0-.04h1.37v.04H3.07v-.04zm1.38.02l-.02.02v-.02h.02zm-.04 0l.08-.6h.03l-.07.6h-.04zm.11-.6h0zm-.03 0h0zm.03 0h0zm-.03 0l.02-.11h.03s0 .08-.02.11h-.03zm.02-.11l.03-.1h.04l-.04.11h-.03zm.03-.11c.07-.17.19-.32.35-.42l.02.03c-.15.1-.27.24-.33.4h-.04zm.35-.43h.01 0zm0 0l.05.02v.03l-.06-.02v-.03zm.06 0h0 0zm0 0h0v.04h0v-.04zm0 .04h0 0zm0-.04h.01v.04h-.02v-.04zm.02.01h.01v.03h-.02v-.03zm.02 0s.04-.01.05-.03l.03.02s-.04.04-.07.04v-.03zm.07-.02h-.01zm-.03-.02h0l.03.02h0l-.03-.02zm0 0h0 .03q0 0-.01.02l-.02-.02zm.04 0h0zm-.03-.01h0l.04-.01v.02h-.04zm.03-.02h0zm-.03 0s-.01-.04-.02-.05l.02-.03a.22.22 0 0 0 .03.08h-.03zm-.03-.05L3.72 5.44l.02-.03 1.29 1.01-.02.03zM3.72 5.44v-.02h.02l-.02.02zm0-.02L3.68 5h.04l.03.43h-.03zm-.04-.43h0zm.04-.01h0zm-.04.01v-.04h.03v.03h-.04zm0-.03v-.04h.03v.03h-.03zm-.01-.03a.4.4 0 0 0-.1-.18l.03-.02c.05.05.08.12.1.19"/><path d="M3.53 5.92H3.5h.03 0zm0 0h0zm0 0v.03H3.5v-.04h.03zm0 .03v.03H3.5v-.03h.03zm0 .03c0 .05 0 .1.03.14l-.03.02c-.03-.05-.04-.1-.03-.16h.03zm.03.15h-.03.03 0zm0 0l-.02.04s-.02-.02-.02-.03h.03zm0 0s0 .02.02.02l-.02.03s-.02-.02-.02-.03l.02-.02zm.02.02s.08.07.12.08v.04s-.1-.05-.14-.09m.13-.71l-.53.36-.02-.03.53-.36"/><path d="M3.4 4.89s-.03-.07-.07-.07-.07.03-.07.07.03.07.07.07.07-.03.07-.07" fill="#fdd106"/><path d="M3.38 4.89h0zm0 0s0-.03-.02-.04l.02-.02s.03.04.03.06h-.03zm-.01-.04h-.04v-.04s.05.01.06.03l-.02.02h0zm-.04-.05h0 0zm0 .04h0V4.8h0v.04zm0 0h0V4.8h0v.04zm0 0s-.03.01-.04.02l-.02-.03s.04-.03.06-.03v.04zm-.04 0v.04h-.04s0-.05.03-.06l.02.02h0zm-.05.04h0zm.04 0h0zm0 0h0zm0 0s0 .03.02.04l-.03.02s-.03-.04-.03-.06h.04zm0 .04s.02.02.04.02v.04s-.05-.01-.06-.03l.02-.03h0zm.04.05h0 0zm0-.04h0v.04h0v-.04zm0 0h0v.04h0v-.04zm0 0s.03-.01.04-.02l.02.02s-.03.04-.06.04v-.04zm.04-.01s.01-.03.01-.04h.04s0 .05-.03.06l-.02-.02h0zm.05-.04h0zm-.04 0h.04m-.15 1.67h0l.02.03h0l-.02-.03h0zm.02.03h0zm-.02-.03s.03-.02.04-.02l.02.03s-.03.02-.04.02l-.02-.03zm.04-.02s.03-.02.04-.03l.03.02s-.03.03-.05.04l-.02-.03zm.04-.03a.35.35 0 0 0 .08-.22h.04c0 .09-.02.18-.09.25m.13-.35h0l-.02-.03h0l.02.03h0zm-.02-.03h0v.02zm.02.03h0l-.03-.02s0-.01.02-.01l.02.03zm0 .01h0l-.03-.01c0-.01 0-.01.02-.01l.02.02zm-.02 0s-.02.05-.02.08h-.04s0-.07.04-.1"/><path d="M3.7 6.7h0l-.02-.03h0l.02.03zm0 0s-.04.01-.06.02v-.03s.02-.02.04-.02l.02.03zm-.06.02s-.04.02-.05.03l-.02-.04s.04-.01.06-.02v.03zm-.04.03c-.1.04-.19.08-.28.13l-.02-.04.28-.13"/><path d="M3.68 6.67h0l.02.03h0l-.02-.03zm.02.03h0v-.02zm-.02-.03l.06-.03.02.03-.06.03-.02-.03zm.06-.03s.04-.02.05-.04l.02.03s-.03.03-.05.04l-.02-.03zm.05-.04a.47.47 0 0 0 .16-.27h.03c-.01.13-.07.23-.16.3m-.31.11h1.14v.04H3.51"/><path d="M3.77 6.97c0-.07-.06-.13-.13-.13s-.13.06-.13.13.06.13.13.13a.12.12 0 0 0 .13-.13" fill="#fdd106"/><path d="M3.76 6.97h0zm0 0s-.01-.06-.03-.08l.02-.02s.04.06.04.11h-.03zm-.01-.11h0 0zm-.03.02s-.05-.03-.08-.03v-.04a.51.51 0 0 0 .11.04l-.03.03zm-.08-.03h0v-.04h0v.04zm0 0h0v-.04h0v.04zm0 0s-.06.01-.08.03l-.02-.02s.06-.04.11-.04v.03zm-.09.03s-.03.05-.03.08h-.04s.02-.08.04-.11l.03.03zm-.03.08h0zm0 0h0zm0 0s0 .06.03.08l-.02.03s-.05-.07-.05-.11h.04zm.03.08a.22.22 0 0 0 .08.03v.04s-.08-.02-.11-.04l.03-.03zm.08.04h0v.04h0v-.04zm0 0h0v.04h0v-.04zm0 0s.06-.01.08-.03l.03.02s-.07.04-.11.04v-.03zm.11-.01h0 0zm-.03-.03s.04-.05.04-.08h.04s-.02.08-.04.11l-.04-.03zm.04-.08h.04"/><path d="M4.3 6.97c0-.07-.06-.13-.13-.13s-.13.06-.13.13.06.13.13.13.13-.05.13-.13" fill="#fdd106"/><path d="M4.28 6.97h0zm0 0s-.01-.06-.03-.08l.02-.02s.04.06.04.11h-.03zm-.01-.11h0 0zm-.02.02s-.05-.03-.08-.03v-.04a.51.51 0 0 0 .11.04l-.03.03zm-.08-.03h0v-.04h0v.04zm0 0h0v-.04h0v.04zm0 0s-.06.01-.08.03l-.03-.02s.06-.04.11-.04v.03zm-.08.03s-.04.05-.04.08h-.03s.02-.08.04-.11l.03.03zm-.04.08h0zm0 0h0zm0 0s.02.06.04.08l-.03.03s-.04-.07-.04-.11h.03zm.04.08a.22.22 0 0 0 .08.03v.04s-.08-.02-.11-.04l.03-.03zm.08.04h0v.04h0v-.04zm0 0h0v.04h0v-.04zm0 0s.06-.01.08-.03l.02.02s-.06.04-.1.04v-.03zm.1-.01h0 0zm-.02-.03s.03-.05.03-.08h.04s-.02.08-.04.11l-.03-.03zm.03-.08h.04"/><path d="M3.9 6.5s.01 0 .02.01v.03s-.02 0-.03-.01V6.5zm.03.01s.02 0 .03.01v.03s-.03 0-.04-.01v-.03zm.04 0s.02 0 .03.01v.03s-.03 0-.04-.01v-.03zm.03 0l.13.01v.04c-.05 0-.09 0-.14-.01"/><path d="M4.11 6.53h.02v.03h-.02v-.03h0zm.02 0h0 0 0zm0 0s.02 0 .03-.01v.03s0 .01-.02.01v-.03zm.02 0s.02-.01.03-.01v.03s0 .01-.02.01v-.03zm0-.01s.08-.05.1-.1h.03c-.02.07-.06.11-.11.13"/><path d="M4.85 6.6L3.7 6.28v-.03l1.16.33m-2 .59h1.6v.03h-1.6m.37.32h1.19v.04H3.23"/><path d="M3.78 7.4l-.13.12-.02-.02.13-.13"/><path d="M3.54 7.38l.13.13-.03.03-.13-.13"/><path d="M3.55 7.4l-.13.12-.03-.02.13-.13"/><path d="M3.3 7.38l.13.13-.02.03-.13-.13m.74-.01l-.13.12-.03-.02.13-.13"/><path d="M3.77 7.38l.13.12-.02.02-.13-.11m.5-.01l-.13.12-.02-.02.13-.13"/><path d="M4.01 7.38l.12.12-.02.02-.13-.11m.46.03l-.08.08-.03-.02.08-.08"/><path d="M4.24 7.38l.13.13-.02.03-.13-.13m-.44-.19l-.13.13-.02-.03.13-.13m-.22.02l.13.13-.03.02-.13-.13"/><path d="M3.55 7.22l-.13.13-.03-.03.13-.13"/><path d="M3.3 7.21l.13.13-.02.02-.13-.13m.74-.01l-.13.13-.03-.03.13-.13"/><path d="M3.77 7.21l.13.13-.02.02-.13-.13m.5-.01l-.13.13-.02-.03.13-.13m-.22.02l.13.13-.03.02-.13-.13m.49.01l-.11.11-.03-.03.11-.11"/><path d="M4.24 7.21l.13.13-.02.02-.13-.13M3.18 5h-.15v-.03h.15m.1 1.62h0l-.02-.04h0l.02.04h0zm-.02-.04h0v.02zm0 .04l-.08.05-.02-.03.09-.06v.04zm-.07.05l-.07.06-.02-.02s.05-.05.08-.07v.03zm-.06.06c-.11.12-.16.29-.12.46h-.03c-.04-.17 0-.35.13-.48"/><path d="M3.3 6.88h0l-.02-.04h0l.02.04zm-.02-.04h0v.02zm.02.04s-.03 0-.04.02l-.02-.03s.03-.02.04-.03l.02.04zm-.04.02s-.03.02-.04.03l-.02-.02s.02-.03.04-.04l.02.03zm-.04.03c-.06.06-.09.15-.08.23h-.03c0-.1.03-.19.1-.25"/><path d="M2.89 7h-.03.03zm-.03.01h.03L2.86 7h0zm.03 0v.03h-.03v-.03h.03zm0 .02l-.03.04v-.03h.03zm0 .02s.05.08.08.1l-.02.03s-.07-.07-.09-.12"/><path d="M2.89 7.01l-.04.09h-.03l.04-.1"/><path d="M2.97 7.17h0H3h-.03zm.03 0h-.03H3zm-.03-.01H3v.03l-.03-.03zm0-.03L3 7.11v.04l-.03-.02zm0-.02s.04-.09.05-.13h.03c0 .05-.03.1-.05.14"/><path d="M3.1 7.16h.03-.03zm.03 0h0zm-.03 0l.03-.02-.03.02zm0-.02l.04-.04v.03H3.1zm.03-.03h0zm-.03.01L3.05 7h0l.03-.01a.61.61 0 0 1 .05.12m.13.69l-.05-.27h.03l.05.25m-.08-.24l-.12-.35h.03l.12.34"/><path d="M3.31 7.4l-.09.09-.03-.03.09-.09m.03-.15l-.14.13-.02-.02.14-.14"/></svg>