<?xml version="1.0" encoding="UTF-8"?><svg id="Ebene_2" xmlns="http://www.w3.org/2000/svg" xmlns:xlink="http://www.w3.org/1999/xlink" viewBox="0 0 83.18 48.52"><defs><style>.cls-1{fill:none;}.cls-2{clip-path:url(#clippath);}.cls-3{fill:#f6d128;}.cls-4{fill:#fff;}.cls-5{fill:#fcff2c;}.cls-6{fill:#cb0423;}.cls-7{fill:#4a9318;}.cls-8{clip-path:url(#clippath-1);}</style><clipPath id="clippath"><rect class="cls-1" width="83.18" height="48.52"/></clipPath><clipPath id="clippath-1"><rect class="cls-1" width="83.18" height="48.52"/></clipPath></defs><g id="Layer_1"><g class="cls-2"><rect class="cls-7" width="83.18" height="48.52"/><rect class="cls-3" y="6.93" width="83.18" height="34.66"/><rect class="cls-6" y="13.86" width="83.18" height="20.8"/><rect y="20.8" width="83.18" height="6.93"/><polygon points="0 0 0 48.52 1.76 48.52 34.09 24.26 1.76 0 0 0"/><polygon class="cls-4" points="0 0 0 48.52 32.33 24.26 0 0"/><polygon class="cls-6" points="13.08 11.94 7.63 22.99 15.92 27.08 13.08 11.94"/><polygon class="cls-6" points="13.08 11.94 18.53 22.99 10.25 27.08 13.08 11.94"/><polygon class="cls-6" points="13.08 11.94 8.96 23.55 17.66 26.65 13.08 11.94"/><polygon class="cls-6" points="13.08 11.94 17.21 23.55 8.51 26.65 13.08 11.94"/><polygon class="cls-6" points="24.79 20.45 12.61 18.68 11.28 27.83 24.79 20.45"/><polygon class="cls-6" points="1.37 20.45 13.56 18.68 14.89 27.83 1.37 20.45"/><polygon class="cls-6" points="24.79 20.45 12.49 20.11 12.23 29.35 24.79 20.45"/><polygon class="cls-6" points="1.37 20.45 13.68 20.11 13.94 29.35 1.37 20.45"/><polygon class="cls-6" points="19.3 32.83 17.14 22.46 11.96 23.54 19.3 32.83"/><polygon class="cls-6" points="19.3 32.83 10.12 27.57 12.75 22.97 19.3 32.83"/><polygon class="cls-6" points="6.86 32.83 16.05 27.57 13.42 22.97 6.86 32.83"/><polygon class="cls-6" points="6.86 32.83 9.02 22.46 14.2 23.54 6.86 32.83"/><g class="cls-8"><path d="M17.31,31.96c0-1.56,.27-3.04,.83-4.62,.25-.72,.93-2.18,1.1-2.41,.02-.02,.3,.04,.64,.13,.68,.19,.87,.15,.87-.16,0-.18-.69-.8-4.09-3.64-2.29-1.92-4.17-3.43-4.26-3.43s-.19-.05-.21-.11c-.02-.06-.13-.8-.24-1.65-.11-.85-.27-1.68-.34-1.85-.22-.51-.66-.77-1.38-.82-.54-.04-.65-.02-1.02,.2-.25,.14-.54,.24-.74,.24-.41,0-.73,.31-.73,.7v.26l.59-.02c.33,0,.49,0,.37,.03-.42,.08-.25,.68,.25,.86,.53,.19,.51,.08,.51,2.59,0,2.06-.02,2.35-.16,2.83-.22,.7-.22,1.73,0,2.41,.09,.28,.16,.53,.16,.57,0,.04-.25,.38-.56,.75-.56,.67-.91,1.4-.91,1.9,0,.12-.07,.32-.16,.44-.21,.29-.21,.8-.01,.99,.21,.2,1.07,3.77,1.08,4.44,0,.25,.04,.24,1.35-.04,1.06-.23,3.56-.28,4.83-.09,.58,.08,1.27,.21,1.51,.28,.78,.21,.74,.26,.74-.75"/><path class="cls-5" d="M16.24,32.47c-1.15-.28-2.46-.38-3.93-.32-.74,.03-1.52,.09-1.73,.13l-.38,.07-.09-.63c-.05-.35-.08-.65-.07-.66,.01-.02,.37-.08,.8-.14,1.46-.21,4.59-.13,6.03,.16l.27,.05v.76c0,.56-.03,.76-.1,.75-.06,0-.42-.09-.8-.18"/><path class="cls-5" d="M9.04,32.53c0-.18-.46-2.37-.65-3.14-.14-.53-.25-.99-.25-1.03s.12,0,.28,.11c.15,.11,.34,.19,.43,.19,.42,0,.65,.64,1.01,2.78,.05,.3,.11,.63,.13,.74,.03,.17-.01,.21-.37,.29-.46,.11-.57,.12-.57,.05"/><path class="cls-5" d="M17.03,30.86s0-.13,.08-.2c.1-.09,.12-.09,.12,.03,0,.17-.13,.28-.2,.17"/><path class="cls-5" d="M10.45,30.51c.22-.24,.22-.24,.39-.07,.16,.16,.16,.18,.02,.24-.08,.04-.26,.07-.39,.07h-.24s.22-.24,.22-.24Z"/><path class="cls-5" d="M15.85,30.65c.02-.06,.1-.16,.19-.22,.14-.1,.18-.09,.31,.11l.15,.22h-.34c-.22,0-.33-.04-.31-.11"/><path class="cls-5" d="M16.58,30.52c-.1-.14-.16-.26-.15-.28,.01-.02,.19,0,.38,.04l.35,.07-.2,.21-.2,.21-.17-.25Z"/><path class="cls-5" d="M9.89,30.53c-.06-.18,.08-.32,.32-.32,.19,0,.18,.02-.06,.27-.18,.19-.21,.2-.26,.05"/><path class="cls-5" d="M11.8,30.37l.21-.25,.21,.2c.12,.11,.22,.21,.24,.22,.01,0-.18,.03-.43,.05l-.45,.03,.22-.25Z"/><path class="cls-5" d="M14.7,30.58l-.27-.06,.2-.21,.2-.2,.24,.27c.26,.3,.23,.31-.36,.19"/><path class="cls-5" d="M11.09,30.34l-.19-.23h.29c.16,0,.36-.03,.44-.06,.11-.05,.1,0-.05,.23-.11,.16-.21,.29-.24,.29s-.14-.1-.25-.23"/><path class="cls-5" d="M13.17,30.3l.24-.27,.23,.24c.13,.13,.23,.26,.23,.27s-.21,.03-.47,.03h-.47l.24-.27Z"/><path class="cls-5" d="M15.34,30.34l-.19-.23h.38c.41,0,.47,.07,.23,.3-.19,.19-.2,.19-.42-.08"/><path class="cls-5" d="M12.48,30.25l-.19-.23h.88l-.19,.23c-.24,.28-.25,.28-.49,0"/><path class="cls-5" d="M13.95,30.25l-.19-.23h.88l-.19,.23c-.24,.28-.25,.28-.49,0"/><path class="cls-5" d="M16.57,30.02c-.2-.04-1.02-.12-1.81-.19-1.37-.11-3.08-.05-4.6,.16-.31,.04-.39,.03-.39-.08,0-.24,1.64-.39,4.17-.39,1.24,0,2.5,.04,2.8,.08,.51,.07,.55,.09,.55,.3,0,.24-.07,.25-.74,.13"/><path class="cls-5" d="M10.21,29.24c.17-.17,.34-.31,.37-.31s.15,.1,.26,.22l.19,.22-.4,.06c-.22,.03-.47,.07-.56,.09-.12,.03-.08-.04,.14-.28"/><path class="cls-5" d="M9.63,29.29c-.06-.18-.04-.23,.1-.29,.09-.04,.24-.06,.32-.04,.13,.02,.12,.06-.1,.29l-.25,.27-.07-.22Z"/><path class="cls-5" d="M17.23,29.39s.05-.1,.12-.13c.08-.03,.1,0,.07,.08-.05,.14-.19,.18-.19,.05"/><path class="cls-5" d="M11.73,29.07c.12-.15,.22-.28,.22-.29,0,0,.12,.1,.26,.24l.26,.26-.48,.03-.48,.03,.22-.27Z"/><path class="cls-5" d="M16.1,29.32l-.35-.04,.25-.23,.25-.23,.2,.21c.22,.23,.26,.37,.1,.34-.06,0-.26-.03-.45-.05"/><path class="cls-5" d="M11.04,29.07l-.24-.21,.39-.07c.22-.04,.41-.05,.42-.03,.02,.02-.05,.14-.16,.28l-.19,.24-.24-.21Z"/><path class="cls-5" d="M14.62,29.22l-.19-.06,.21-.22c.18-.19,.23-.2,.34-.1,.07,.06,.17,.19,.21,.29,.07,.14,.05,.17-.15,.16-.12,0-.31-.04-.42-.07"/><path class="cls-5" d="M16.69,29.01l-.24-.29,.2,.06c.11,.03,.35,.06,.53,.06h.33s-.25,.23-.25,.23c-.13,.12-.27,.22-.29,.23-.03,0-.15-.12-.29-.28"/><path class="cls-5" d="M12.49,28.99c-.1-.11-.17-.23-.17-.27,0-.03,.21-.06,.46-.06h.46l-.16,.19c-.27,.34-.4,.37-.6,.14"/><path class="cls-5" d="M13.25,28.97c.26-.26,.35-.25,.53,.04,.12,.2,.11,.2-.32,.2h-.44s.23-.23,.23-.23Z"/><path class="cls-5" d="M15.28,28.93l-.19-.27h.2c.11,0,.31,.03,.45,.06l.25,.06-.23,.22c-.13,.12-.25,.21-.26,.21-.02,0-.12-.13-.22-.27"/><path class="cls-5" d="M13.95,28.88l-.19-.23h.88l-.19,.23c-.24,.28-.25,.28-.49,0"/><path class="cls-5" d="M9.58,28.59c.03-.09,.1-.36,.16-.61l.1-.46,.9-.5c.49-.28,1.04-.63,1.22-.78,.18-.15,.37-.31,.42-.34,.13-.08,2.5,.09,3.55,.26,.81,.13,2.23,.41,2.27,.45,.01,0-.11,.42-.28,.92-.16,.5-.31,.96-.33,1.03-.03,.09-.12,.11-.4,.06-1.35-.22-5.22-.2-6.71,.04-.85,.14-.97,.13-.9-.06"/><path d="M16.41,28.03c.53-.59,.17-1.56-.58-1.56-.48,0-.82,.38-.82,.91,0,.83,.87,1.23,1.4,.64"/><path class="cls-5" d="M15.53,28.01c-.45-.25-.41-1.04,.05-1.26,.45-.21,.91,.12,.91,.64s-.54,.85-.96,.61"/><path d="M13.12,27.97c.49-.46,.38-1.28-.21-1.55-.39-.18-.8-.03-1.02,.36-.24,.43-.2,.76,.12,1.12,.35,.39,.74,.42,1.1,.08"/><path class="cls-5" d="M12.34,27.93c-.61-.27-.4-1.37,.26-1.37s.85,.99,.28,1.32c-.26,.15-.29,.15-.54,.04"/><path class="cls-5" d="M9.21,28.33c.12-.34,.1-.77-.03-.77-.07,0-.11,.12-.11,.32,0,.18-.05,.37-.11,.43-.09,.09-.1,.02-.06-.41,.02-.29,.01-.52-.02-.52-.07,0-.22,.44-.27,.82-.03,.22-.03,.22-.1-.04-.05-.21-.03-.35,.11-.61,.1-.19,.18-.46,.18-.61,0-.22,.16-.44,.91-1.26,.5-.54,1.08-1.22,1.3-1.5,.37-.48,.38-.53,.37-1.03,0-.28-.04-.54-.07-.57-.1-.11-.22,.44-.17,.74,.05,.27,0,.36-.53,1.03-.32,.4-.86,1.01-1.2,1.35-.63,.63-.85,.97-.85,1.29,0,.1-.07,.35-.16,.57-.09,.22-.14,.44-.11,.49,.03,.06,0,.06-.05,0-.07-.07-.08-.21-.02-.5,.04-.22,.06-.43,.04-.47-.09-.16-.19,.04-.24,.48-.03,.25-.09,.43-.12,.4-.12-.08-.08-.53,.06-.76,.07-.12,.17-.4,.21-.63,.11-.64,.37-1.15,.94-1.84,.29-.35,.52-.65,.52-.66,0-.02-.08-.27-.17-.57-.21-.68-.23-1.72-.03-2.36,.21-.67,.63-1.33,1.3-2.02,.69-.72,1.35-1.15,1.67-1.1,.27,.05,8.2,6.68,8.2,6.86,0,.07-.06,.13-.14,.13-.08,0-2.09-.61-4.48-1.36-3.81-1.19-4.36-1.38-4.52-1.6-.23-.3-.24-.77-.02-1.08,.09-.13,.16-.29,.16-.35,0-.2-.4,.31-.48,.61-.09,.35,.08,.94,.32,1.13,.1,.07,.82,.34,1.61,.59,1.35,.43,1.44,.47,1.51,.71,.17,.57-.4,1.24-1.21,1.43-.26,.06-.6,.23-.83,.42-.92,.74-1.57,1.18-2.11,1.43-.32,.15-.62,.31-.68,.37-.05,.06-.14,.32-.18,.59-.1,.56-.14,.65-.29,.65-.09,0-.1-.05-.04-.23"/><path class="cls-5" d="M17.51,26.24c-.84-.21-2.17-.4-3.53-.52l-1.3-.11,.49-.2c.27-.11,.66-.3,.86-.42,.32-.19,.45-.21,.94-.18,.73,.06,1.22-.09,1.41-.41,.08-.14,.15-.26,.16-.28,.01-.02,.59,.14,1.29,.36l1.27,.39-.25,.47c-.13,.25-.31,.6-.38,.76-.15,.33-.2,.34-.96,.15"/><path class="cls-5" d="M14.63,24.58c-.07-.05-.07-.11,.01-.23,.07-.1,.13-.13,.16-.07,.08,.14-.06,.38-.17,.3"/><path class="cls-5" d="M14.93,24.56c0-.12,.06-.12,.12,0,.03,.05,.01,.09-.04,.09s-.09-.04-.09-.09"/><path class="cls-5" d="M15.34,24.51c0-.08,.04-.12,.08-.09,.11,.07,.11,.23,0,.23-.04,0-.08-.06-.08-.14"/><path class="cls-5" d="M15.73,24.5s-.06-.13-.06-.21c0-.1,.02-.11,.09-.04,.05,.05,.08,.15,.06,.21-.02,.06-.06,.08-.09,.04"/><path class="cls-5" d="M15.08,24.32s-.06-.13-.06-.21c0-.1,.02-.11,.09-.04,.05,.06,.08,.15,.06,.21-.02,.06-.06,.07-.09,.04"/><path class="cls-5" d="M16.04,24.28c-.09-.16,.01-.19,.12-.04,.06,.09,.07,.14,.02,.14-.05,0-.11-.04-.14-.1"/><path class="cls-5" d="M15.39,24.11s0-.11,.04-.14c.05-.03,.08,0,.08,.09,0,.16-.05,.18-.12,.06"/><path class="cls-5" d="M15.75,23.96c0-.08,.04-.12,.08-.09,.11,.07,.11,.23,0,.23-.04,0-.08-.06-.08-.14"/><path class="cls-5" d="M14.77,23.88c0-.16,.05-.18,.12-.06,.03,.05,0,.11-.04,.14-.05,.03-.08,0-.08-.09"/><path class="cls-5" d="M15.1,23.78c0-.08,.04-.12,.08-.09,.11,.07,.11,.23,0,.23-.04,0-.08-.06-.08-.14"/><path class="cls-5" d="M9.59,19.4c-.02-.39-.02-1.31,0-2.04,.05-1.51,.01-1.66-.45-1.82-.38-.13-.51-.25-.51-.43,0-.12,.08-.13,.5-.08,.43,.05,.49,.04,.47-.09-.04-.23-.61-.41-1.22-.38-.48,.03-.54,.01-.5-.12,.07-.28,.33-.46,.73-.5,.22-.02,.53-.12,.71-.23,.25-.15,.43-.18,.92-.15,1.07,.06,1.28,.38,1.56,2.42,.11,.79,.2,1.53,.2,1.63,0,.14-.15,.3-.53,.57-.55,.4-1.27,1.12-1.62,1.64l-.21,.3-.04-.71Z"/><path d="M10.39,14.63c.12-.15,.13-.22,.05-.41-.12-.29-.25-.22-.2,.09,.03,.19,0,.23-.13,.23s-.17-.06-.17-.29c0-.24-.02-.27-.12-.17-.16,.15-.16,.35,.01,.56,.18,.22,.38,.21,.56-.02"/></g></g></g></svg>